<svg width="42" height="24" viewBox="0 0 42 24" fill="none" xmlns="http://www.w3.org/2000/svg">
<defs>
<clipPath id="clip0_678_4091">
<rect width="42" height="24" fill="white"/>
</clipPath>
</defs>
<g clip-path="url(#clip0_678_4091)">
<path d="M23.0861 14.2212C23.1912 14.3287 25.6278 14.5078 26.0836 14.6511C26.5393 14.8122 36.268 16.657 36.8114 16.3705C37.3549 16.0839 37.1971 15.7257 38.021 14.8839C38.8448 14.0421 38.9675 13.3257 39.7038 12.7884C40.44 12.2511 41.9826 10.1376 41.93 9.56448C41.8774 8.99135 41.3165 8.41821 41.3165 8.41821L22.2622 6.48389H19.1946C19.1946 6.48389 18.5811 8.95553 18.7388 9.11672C18.8966 9.27792 19.2822 13.8809 19.3874 13.9346" fill="#C9653A"/>
<path d="M24.4008 9.60031C26.066 10.4242 28.117 9.90479 29.6069 10.2451C31.0969 10.5854 33.7614 10.4779 35.7772 10.9973C37.3899 11.4093 39.1604 11.9466 40.6153 11.9287C41.2989 11.1048 41.9826 10.0122 41.9475 9.61822C41.8949 9.04508 41.334 8.47195 41.334 8.47195L22.2622 6.48389H19.1946C19.1946 6.48389 18.5811 8.95553 18.7388 9.11672C18.7564 9.13464 18.7914 9.2421 18.8089 9.38538C20.632 9.20628 23.349 9.06299 24.4008 9.60031Z" fill="#C9653A"/>
<path d="M34.0243 14.2748C32.2013 13.648 22.2973 12.6271 19.2122 12.3047C19.2823 12.8957 19.3524 13.3614 19.3875 13.3793L23.1036 14.2211C23.2088 14.3286 25.6454 14.5077 26.1011 14.651C26.5569 14.8122 36.2856 16.6569 36.829 16.3704C37.3724 16.0838 37.2147 15.7256 38.0385 14.8838C38.0736 14.848 38.0911 14.8301 38.1086 14.7942C36.8991 14.8659 35.5319 14.7942 34.0243 14.2748Z" fill="#BA5E36"/>
<path d="M19.0369 10.9794C19.0895 11.4272 19.1596 11.9108 19.2122 12.3048C22.2973 12.6093 32.2013 13.6302 34.0244 14.275C35.5494 14.7944 36.8991 14.866 38.1087 14.8302C38.7397 14.1496 38.9501 13.5406 39.4233 13.0571C35.8123 13.0033 29.3616 12.0899 27.4334 11.5347C25.6629 10.9974 21.3507 10.9615 19.0369 10.9794Z" fill="#C9653A"/>
<path d="M39.7039 12.8064C39.9493 12.6273 40.2648 12.287 40.5978 11.8929C39.1429 11.9288 37.3725 11.3735 35.7598 10.9616C33.7439 10.4422 31.062 10.5497 29.5895 10.2094C28.117 9.86905 26.0486 10.3885 24.3833 9.56458C23.3316 9.04517 20.6145 9.18846 18.7915 9.34965C18.8616 9.68995 18.9317 10.2989 19.0194 10.9437C21.3157 10.9258 25.6454 10.9616 27.4159 11.481C29.3441 12.0541 35.7948 12.9496 39.4059 13.0034C39.511 12.9676 39.5987 12.8959 39.7039 12.8064Z" fill="#B35A34"/>
<path d="M41.9999 10.1733C41.9473 9.60021 41.3163 8.45395 41.3163 8.45395L41.176 8.43604C41.1936 8.50768 41.2111 8.56141 41.2111 8.63305C41.2637 9.20619 39.7211 11.3196 38.9849 11.8569C38.2487 12.3942 38.126 13.1107 37.3021 13.9525C36.4782 14.7942 36.6535 15.1525 36.0926 15.439C35.5492 15.7256 25.8204 13.8808 25.3647 13.7196C24.9089 13.5584 22.4724 13.3972 22.3672 13.2898V14.2032L23.0859 14.2569C23.1911 14.3644 25.6276 14.5435 26.0834 14.6868C26.5391 14.848 36.2679 16.6928 36.8113 16.4062C37.3547 16.1196 37.1969 15.7614 38.0208 14.9196C38.8447 14.0778 38.9674 13.3614 39.7036 12.8241C40.4398 12.2868 42.0525 10.7465 41.9999 10.1733Z" fill="#E39652"/>
<path d="M25.6101 18.09C25.6802 18.3765 26.0308 21.5288 26.0133 21.9586C25.9782 22.3885 26.0133 23.678 25.7328 23.8392C24.6285 24.3765 15.671 23.4094 13.7428 23.0512C11.8146 22.7109 6.8363 21.1168 5.80208 20.078C4.76785 19.0213 1.05166 14.2571 0.841309 12.2153" fill="#E39652"/>
<g opacity="0.73">
<path opacity="0.73" d="M4.90809 13.1825L0.841309 12.2153C1.03413 14.2571 4.76785 19.0213 5.80208 20.078C6.4156 20.7049 8.41393 21.5109 10.3421 22.1377C9.90391 21.9049 9.57086 21.69 9.37804 21.4929C8.44899 20.5616 5.60925 17.3556 4.90809 13.1825Z" fill="#D18743"/>
</g>
<path d="M41.8422 8.86618C41.8422 8.86618 41.8422 8.84827 41.8422 8.86618C41.9298 9.15275 41.9649 9.42141 41.9123 9.47514C41.7896 9.60051 40.9307 9.47514 40.4399 9.47514C39.949 9.47514 39.7212 9.77962 39.0551 9.77962C38.389 9.77962 37.4073 8.5438 36.5133 8.5438C35.6369 8.5438 33.6385 9.31394 32.5693 9.31394C31.5 9.31394 30.9215 8.11394 30.1853 7.97066C29.449 7.84529 27.8539 8.50797 26.8898 8.34678C25.9257 8.18559 25.3297 7.54081 24.2955 7.54081C23.2612 7.54081 22.8581 7.79156 22.0693 7.79156C21.2804 7.79156 19.9833 7.3438 19.7905 7.54081C19.6502 7.68409 19.843 8.00648 20.0359 8.43633C20.4916 8.45424 21.4382 8.74081 22.0693 8.74081C22.8581 8.74081 23.2612 8.49006 24.2955 8.49006C25.3297 8.49006 25.9257 9.15275 26.8898 9.29603C27.8539 9.45723 29.4315 8.77663 30.1853 8.91991C30.9215 9.04529 31.5175 10.2632 32.5693 10.2632C33.6385 10.2632 35.6369 9.49305 36.5133 9.49305C37.3898 9.49305 38.3714 10.7289 39.0551 10.7289C39.7212 10.7289 39.949 10.4244 40.4399 10.4244C40.9307 10.4244 41.7896 10.5498 41.9123 10.4244C42 10.3169 42.035 9.34977 41.8422 8.86618Z" fill="#E39652"/>
<path d="M19.7729 7.52272C19.9657 7.32571 21.2629 7.77347 22.0517 7.77347C22.8405 7.77347 23.2437 7.52272 24.2779 7.52272C25.3121 7.52272 25.9081 8.18541 26.8722 8.32869C27.8363 8.48988 29.4139 7.80929 30.1677 7.95257C30.9039 8.07794 31.4999 9.29585 32.5517 9.29585C33.6209 9.29585 35.6193 8.52571 36.4957 8.52571C37.3722 8.52571 38.3538 9.76153 39.0375 9.76153C39.7036 9.76153 39.9315 9.45705 40.4223 9.45705C40.9131 9.45705 41.772 9.58242 41.8947 9.45705C42.0174 9.33168 41.5442 7.93466 41.3689 7.73765C41.1936 7.54063 40.8605 6.8063 40.545 6.00033C40.247 5.19436 38.7044 4.67496 38.2136 4.37048C37.7228 4.066 37.7403 3.3675 36.7411 2.97347C35.9348 2.65108 35.5667 2.99138 35.0934 2.866C34.6201 2.74063 34.55 2.09585 34.0592 1.97048C33.5684 1.84511 33.025 2.02421 32.5867 1.91675C32.1485 1.8272 32.0784 1.37944 31.3071 1.23615C30.5183 1.07496 29.9573 1.57645 29.3263 1.34362C28.6952 1.11078 28.1168 0.555556 27.5558 0.555556C26.9949 0.555556 26.0659 0.806302 25.5926 0.806302C25.1368 0.806302 24.8213 0.268989 24.1201 0.179437C23.4189 0.0898846 22.9982 0.609288 22.4023 0.609288C21.8063 0.609288 21.7887 -0.0175781 20.9298 -0.0175781C20.0709 -0.0175781 19.6151 0.483914 19.0892 0.483914C18.5634 0.483914 18.7386 -0.0175781 17.9323 -0.0175781C17.126 -0.0175781 16.863 0.466004 16.2846 0.537646C15.7061 0.609288 15.5834 0.268989 14.8121 0.358541C14.0408 0.430183 13.9006 1.1466 13.4273 1.1466C12.954 1.1466 12.5508 0.931676 11.8672 1.05705C11.1836 1.16451 11.2537 1.57645 10.7103 1.73765C10.1669 1.91675 9.7111 1.55854 9.11511 1.79138C8.51912 2.02421 8.5717 2.43615 8.20359 2.5078C7.81795 2.57944 7.7303 2.25705 6.78372 2.5078C5.83715 2.75854 6.0475 3.09884 5.7495 3.42123C5.43397 3.76153 4.03164 3.49287 3.59341 3.94063C3.13765 4.4063 3.33047 4.65705 3.15518 5.06899C2.97988 5.49884 1.52496 5.69585 1.22696 6.25108C0.928966 6.8063 1.15685 7.61227 1.01661 8.18541C0.876379 8.75854 0.245327 8.66899 0.0349764 9.74362C-0.175374 10.8541 0.771203 12.8959 1.1919 13.0391C1.61261 13.1824 2.01578 14.3645 2.59424 14.7944C3.17271 15.2242 4.36469 15.2242 4.99574 15.5287C5.64432 15.8332 6.10008 16.2809 6.69608 16.6033C7.29207 16.9257 9.78122 17.6959 11.2011 17.6959C12.621 17.6959 14.742 18.5376 15.4081 18.7347C16.0742 18.9138 18.651 19.1824 19.5099 19.0391C20.3513 18.8959 25.242 19.4153 25.5926 19.0391C25.9607 18.663 25.2245 16.9436 24.9265 16.3167C24.6285 15.6899 23.6644 15.3317 23.4189 14.5615C23.1735 13.7914 22.858 13.2003 22.4548 12.7884C22.0517 12.3765 21.666 12.0182 21.2804 11.3556C20.8947 10.6929 20.5091 9.56451 20.2637 8.90182C20.0183 8.25705 19.58 7.71974 19.7729 7.52272Z" fill="#FFB573"/>
<path opacity="0.2" d="M40.4398 9.45705C40.9306 9.45705 41.7896 9.58242 41.9123 9.45705C42.035 9.33168 41.5617 7.93466 41.3864 7.73765C41.2111 7.55854 40.878 6.8063 40.5625 6.00033C40.247 5.19436 38.722 4.67496 38.2311 4.37048C37.7403 4.066 37.7578 3.3675 36.7587 2.97347C35.9523 2.65108 35.5842 2.99138 35.1109 2.866C34.6376 2.74063 34.5675 2.09585 34.0767 1.97048C33.5859 1.84511 33.0425 2.02421 32.6043 1.91675C32.166 1.8272 32.0959 1.37944 31.3246 1.23615C30.5358 1.07496 29.9749 1.57645 29.3438 1.34362C28.7128 1.11078 28.1343 0.555556 27.5734 0.555556C27.0124 0.555556 26.0834 0.806302 25.6101 0.806302C25.1543 0.806302 24.8388 0.268989 24.1376 0.179437C23.4365 0.0898846 23.0158 0.609288 22.4198 0.609288C21.8238 0.609288 21.8063 -0.0175781 20.9473 -0.0175781C20.0884 -0.0175781 19.6326 0.483914 19.1068 0.483914C18.5809 0.483914 18.7562 -0.0175781 17.9498 -0.0175781C17.1435 -0.0175781 16.8806 0.466004 16.3021 0.537646C15.7236 0.609288 15.6009 0.268989 14.8296 0.358541C14.0583 0.430183 13.9181 1.1466 13.4448 1.1466C12.9715 1.1466 12.5684 0.931676 11.8847 1.05705C11.2011 1.16451 11.2712 1.57645 10.7278 1.73765C10.1844 1.89884 9.72863 1.55854 9.13264 1.79138C8.53664 2.02421 8.58923 2.43615 8.22112 2.5078C7.83548 2.57944 7.74783 2.25705 6.80125 2.5078C5.85468 2.75854 6.06503 3.09884 5.76703 3.42123C5.43397 3.76153 4.03164 3.49287 3.59341 3.94063C3.13765 4.4063 3.33047 4.65705 3.15518 5.06899C2.97988 5.49884 1.52496 5.69585 1.22696 6.25108C0.928966 6.8063 1.15685 7.61227 1.01661 8.18541C0.876379 8.75854 0.245327 8.66899 0.0349764 9.74362C-0.175374 10.8541 0.771203 12.8959 1.1919 13.0391C1.61261 13.1824 2.01578 14.3645 2.59424 14.7944C3.17271 15.2242 4.36469 15.2242 4.99574 15.5287C5.64433 15.8332 6.10008 16.2809 6.69608 16.6033C7.29207 16.9257 9.78122 17.6959 11.2011 17.6959C12.621 17.6959 14.742 18.5376 15.4081 18.7347C16.0742 18.9138 18.651 19.1824 19.5099 19.0391C20.3689 18.8959 25.242 19.4153 25.5926 19.0391C25.7679 18.86 25.6977 18.3765 25.54 17.857C25.5225 17.9108 25.5049 17.9466 25.4699 17.9824C25.1543 18.3048 20.8071 17.857 20.0533 17.9824C19.2996 18.1078 17.0033 17.875 16.4073 17.6959C15.8288 17.5347 13.9356 16.7824 12.6735 16.7824C11.4114 16.7824 9.20276 16.1018 8.65935 15.8153C8.13347 15.5287 7.71277 15.1347 7.15184 14.8481C6.57337 14.5615 5.52162 14.5615 5.01327 14.1854C4.4874 13.8093 4.13681 12.7526 3.75117 12.6272C3.38306 12.5018 2.52412 10.6929 2.71695 9.72571C2.90977 8.75854 3.4707 8.84809 3.59341 8.32869C3.71611 7.80929 3.50576 7.11078 3.78623 6.60929C4.0667 6.1078 5.34633 5.92869 5.50409 5.55257C5.66185 5.17645 5.48656 4.96153 5.88973 4.54959C6.29291 4.13765 7.51995 4.38839 7.80042 4.10182C8.08089 3.81526 7.88806 3.51078 8.72947 3.29585C9.57087 3.08093 9.64099 3.3675 9.99157 3.29585C10.3246 3.22421 10.272 2.866 10.8154 2.65108C11.3413 2.43615 11.7445 2.74063 12.2353 2.59735C12.7261 2.43615 12.656 2.07794 13.2695 1.98839C13.8831 1.89884 14.2336 2.07794 14.6543 2.07794C15.075 2.07794 15.1977 1.45108 15.8814 1.37944C16.565 1.30779 16.6702 1.61227 17.1961 1.54063C17.722 1.46899 17.9498 1.03914 18.6685 1.03914C19.3872 1.03914 19.247 1.4869 19.7028 1.4869C20.1585 1.4869 20.5792 1.03914 21.333 1.03914C22.1043 1.03914 22.1043 1.59436 22.6477 1.59436C23.1735 1.59436 23.5417 1.12869 24.1727 1.20033C24.8038 1.28988 25.0667 1.75556 25.4874 1.75556C25.8906 1.75556 26.7144 1.54063 27.2228 1.54063C27.7311 1.54063 28.2395 2.04212 28.8004 2.23914C29.3614 2.45406 29.8697 2.0063 30.5533 2.14959C31.2545 2.29287 31.3071 2.6869 31.6927 2.75854C32.0959 2.84809 32.5692 2.6869 33.0074 2.79436C33.4457 2.90182 33.5158 3.47496 33.9365 3.58242C34.3572 3.68988 34.6902 3.38541 35.4089 3.67197C36.3029 4.03018 36.2854 4.63914 36.7236 4.90779C37.1619 5.17645 38.5291 5.64212 38.7921 6.35854C39.0725 7.07496 39.353 7.73765 39.5283 7.89884C39.6861 8.06003 39.8088 9.31376 40.0717 9.42123L40.4398 9.45705Z" fill="#CF6446"/>
<path d="M2.6643 15.5466C3.24276 15.9764 4.43475 15.9764 5.0658 16.2809C5.71438 16.5854 6.17014 17.0332 6.76613 17.3555C7.36213 17.6779 9.85128 18.4481 11.2711 18.4481C12.691 18.4481 14.812 19.2899 15.4782 19.4869C16.1443 19.666 18.7211 19.9346 19.58 19.7914C20.4214 19.6481 25.312 20.1675 25.6626 19.7914C25.8029 19.6481 25.7853 19.3078 25.6802 18.8958C25.6626 18.9496 25.6451 19.0033 25.61 19.0391C25.2419 19.4152 20.3688 18.8958 19.5274 19.0391C18.686 19.1824 16.0917 18.9138 15.4256 18.7346C14.7595 18.5555 12.656 17.6958 11.2186 17.6958C9.79869 17.6958 7.30954 16.9257 6.71355 16.6033C6.11755 16.2809 5.66179 15.8332 5.01321 15.5287C4.36463 15.2242 3.19018 15.2242 2.61171 14.7943C2.03325 14.3645 1.63008 13.1824 1.20937 13.0391C1.15679 13.0212 1.08667 12.9675 0.999023 12.8779C1.1042 13.1824 1.24443 13.5406 1.43725 13.8988C1.78784 14.2212 2.15595 15.1705 2.6643 15.5466Z" fill="#D18A4C"/>
<g opacity="0.15">
<path opacity="0.15" d="M5.87231 11.0694C5.87231 11.0694 6.04761 10.1739 8.25629 10.6933C10.465 11.2127 11.4291 10.9261 11.4291 11.4455C11.4291 11.9649 8.30888 12.7709 7.22206 12.4127C6.17031 12.0545 5.87231 11.4455 5.87231 11.0694Z" fill="white"/>
<path opacity="0.15" d="M11.9199 14.7589C11.9199 14.7589 13.3573 13.6663 14.7946 14.2574C16.232 14.8484 16.6878 14.4723 17.424 14.938C18.1603 15.4037 18.1953 16.3171 17.0033 15.9947C15.8113 15.6902 14.4616 15.6544 13.2345 15.7081C12.025 15.7977 11.4641 15.2246 11.9199 14.7589Z" fill="white"/>
<path opacity="0.15" d="M29.6245 5.7322C29.6069 6.03668 29.4141 6.48444 30.7288 6.48444C32.0435 6.48444 32.6044 6.73518 33.4283 6.98593C34.2522 7.23668 35.9175 7.82772 36.5485 7.32623C37.1971 6.82474 36.0051 6.64563 35.076 6.32324C34.1645 6.01877 31.728 5.03369 30.8515 5.03369C29.9926 5.0516 29.642 5.42772 29.6245 5.7322Z" fill="white"/>
<path opacity="0.15" d="M10.7279 8.27542C11.4291 8.41871 12.0075 8.86647 13.182 8.86647C14.3564 8.86647 17.5292 8.68736 17.5292 8.43662C17.5292 8.16796 14.7421 7.32617 13.5676 7.32617C12.3756 7.32617 11.8498 7.39781 11.1311 7.5411C10.4124 7.66647 9.36062 7.43363 9.04509 7.48736C8.7471 7.5411 8.41404 7.73811 8.65945 7.97095C8.90486 8.20378 10.0267 8.13214 10.7279 8.27542Z" fill="white"/>
<path opacity="0.15" d="M12.9015 3.95879C13.252 3.8155 13.7604 3.18864 14.4265 3.34983C15.0926 3.51103 15.5834 3.22446 16.232 3.33192C16.8806 3.43939 17.4766 4.19162 16.4424 4.22744C15.4081 4.28118 15.1277 4.317 14.4265 4.76476C13.7429 5.19461 11.9724 4.6573 11.9724 4.46028C11.9899 4.24536 12.5333 4.10207 12.9015 3.95879Z" fill="white"/>
<path opacity="0.15" d="M21.7539 3.31409C21.7539 3.31409 22.8933 2.88424 23.7172 3.31409C24.5411 3.74394 25.2948 3.22454 25.5928 3.58275C25.8908 3.94096 25.8733 4.22752 25.1195 4.22752C24.3658 4.22752 23.3316 3.92305 23.1037 4.22752C22.8933 4.532 20.6496 4.51409 20.3691 4.22752C20.0886 3.94096 20.1062 3.65439 20.3691 3.4932C20.6321 3.31409 21.7539 3.31409 21.7539 3.31409Z" fill="white"/>
<path opacity="0.15" d="M15.4433 11.5169C15.4433 11.5169 16.2847 10.7467 17.5468 10.9975C18.8089 11.2482 19.6152 11.2303 19.6152 11.2303C19.6152 11.2303 20.667 10.9975 20.1937 11.5169C19.7204 12.0363 19.0894 12.5557 18.0727 12.2154C17.056 11.8751 15.4784 12.699 15.1804 12.5019C14.8648 12.3228 15.4433 11.5169 15.4433 11.5169Z" fill="white"/>
<path opacity="0.15" d="M23.6118 6.05428C23.6118 6.05428 24.1377 5.66026 25.1544 5.82145C26.1711 5.98264 26.9248 5.53488 27.0826 6.05428C27.2403 6.57369 26.9248 6.89608 26.136 6.68115C25.3472 6.46622 24.1727 7.18264 23.2437 7.00354C22.2971 6.84234 21.2278 6.17966 21.9115 6.10802C22.5951 6.05428 23.0859 6.26921 23.6118 6.05428Z" fill="white"/>
</g>
<g opacity="0.22">
<path opacity="0.22" d="M22.2268 9.60032C22.2268 9.60032 21.6483 10.2093 22.0515 10.7108C22.4547 11.1944 22.9806 11.463 22.9806 11.463C22.9806 11.463 23.8745 10.6391 23.8745 10.3526C23.857 10.066 22.63 9.18838 22.2268 9.60032Z" fill="#FFB573"/>
<path opacity="0.22" d="M24.7161 11.0871C24.7161 11.0871 24.1376 11.6961 24.5408 12.1976C24.9439 12.6812 25.1543 13.0752 25.4698 12.9498C25.7853 12.8244 26.3463 12.0006 26.3638 11.8394C26.3638 11.5528 25.1192 10.6752 24.7161 11.0871Z" fill="#FFB573"/>
<path opacity="0.22" d="M33.0422 12.1974C33.0422 12.1974 31.9729 12.1437 32.0605 12.7705C32.1482 13.3974 32.1306 13.8452 32.4462 13.9168C32.7792 13.9884 33.6907 13.5944 33.7784 13.469C33.9186 13.2362 33.5856 12.072 33.0422 12.1974Z" fill="#FFB573"/>
<path opacity="0.22" d="M36.0749 11.0511C36.0749 11.0511 35.0056 10.9973 35.0932 11.6242C35.1809 12.2511 35.1634 12.6988 35.4789 12.7705C35.8119 12.8421 36.7235 12.4481 36.8111 12.3227C36.9689 12.0719 36.6183 10.9257 36.0749 11.0511Z" fill="#FFB573"/>
<path opacity="0.22" d="M30.9738 9.92299C30.9738 9.92299 29.9045 9.86926 29.9922 10.4961C30.0798 11.123 30.0623 11.5708 30.3778 11.6424C30.7109 11.714 31.6224 11.32 31.71 11.1946C31.8503 10.9618 31.5172 9.79762 30.9738 9.92299Z" fill="#FFB573"/>
<path opacity="0.22" d="M26.6617 10.0838C26.6617 10.0838 26.3988 11.2838 26.837 11.3734C27.2753 11.4629 28.1342 11.6062 28.2744 11.445C28.4147 11.3017 28.4322 10.2092 28.3095 10.1017C28.1868 9.99426 26.6617 10.0838 26.6617 10.0838Z" fill="#FFB573"/>
<path opacity="0.22" d="M28.5548 12.806C28.4671 12.9851 28.8352 14.006 29.2735 13.8807C29.7117 13.7732 30.5356 13.4866 30.6057 13.2896C30.6758 13.0926 30.2025 12.1254 30.0623 12.0717C29.922 12.018 28.6424 12.6269 28.5548 12.806Z" fill="#FFB573"/>
<path opacity="0.22" d="M34.1818 14.0776C34.1292 14.203 34.3921 14.991 34.7252 14.9015C35.0582 14.8119 35.6893 14.597 35.7419 14.4537C35.7945 14.2925 35.4439 13.5582 35.3212 13.5224C35.216 13.4686 34.2519 13.9343 34.1818 14.0776Z" fill="#FFB573"/>
<path opacity="0.22" d="M33.1125 10.5494C32.9898 10.639 32.8846 11.4629 33.2002 11.5345C33.5332 11.6241 34.1818 11.7315 34.3045 11.6241C34.4272 11.5166 34.4448 10.6927 34.3746 10.6032C34.3045 10.5136 33.2352 10.4599 33.1125 10.5494Z" fill="#FFB573"/>
<path opacity="0.22" d="M26.6792 12.6271C26.574 12.6988 26.4689 13.451 26.7669 13.5226C27.0649 13.5943 27.6433 13.7017 27.7485 13.6122C27.8537 13.5047 27.8887 12.7704 27.8011 12.6988C27.7485 12.5913 26.7844 12.5555 26.6792 12.6271Z" fill="#FFB573"/>
<path opacity="0.22" d="M22.8928 12.0181C22.7877 12.0897 22.6825 12.8419 22.9805 12.9136C23.2785 12.9852 23.8569 13.0927 23.9621 13.0031C24.0673 12.8957 24.1023 12.1613 24.0147 12.0897C23.9446 12.0002 22.998 11.9464 22.8928 12.0181Z" fill="#FFB573"/>
</g>
<path opacity="0.3" d="M3.15519 5.53433C3.33048 5.10448 3.13766 4.87164 3.57589 4.40597C4.03165 3.9403 5.41646 4.22687 5.71446 3.90448C6.01245 3.6 5.8021 3.24179 6.74868 2.99104C7.69526 2.7403 7.7829 3.06269 8.16855 2.99104C8.55419 2.9194 8.48407 2.50746 9.08006 2.27463C9.67606 2.04179 10.1143 2.38209 10.6752 2.2209C11.2186 2.04179 11.1485 1.64776 11.8322 1.5403C12.5508 1.41493 12.954 1.61194 13.4273 1.61194C13.9006 1.61194 14.0408 0.895522 14.8121 0.823881C15.5834 0.752239 15.7061 1.09254 16.2846 1.00299C16.863 0.931343 17.126 0.447761 17.9323 0.447761C18.7387 0.447761 18.5809 0.949254 19.0892 0.949254C19.6151 0.949254 20.0709 0.447761 20.9298 0.447761C21.7887 0.447761 21.8063 1.07463 22.4023 1.07463C22.9983 1.07463 23.419 0.537313 24.1201 0.644776C24.8213 0.734328 25.1368 1.27164 25.5926 1.27164C26.0483 1.27164 26.9774 1.0209 27.5559 1.0209C28.1168 1.0209 28.6953 1.57612 29.3263 1.80896C29.9574 2.04179 30.5183 1.5403 31.3071 1.70149C32.0959 1.86269 32.1485 2.29254 32.5867 2.38209C33.025 2.47164 33.5684 2.31045 34.0592 2.43582C34.55 2.56119 34.6201 3.20597 35.0934 3.33134C35.5667 3.45672 35.9348 3.11642 36.7412 3.43881C37.7403 3.83284 37.7228 4.53134 38.2136 4.83582C38.7044 5.1403 40.2295 5.6597 40.545 6.46567C40.843 7.27164 41.1761 8.00597 41.3689 8.20298C41.4916 8.32836 41.7545 9.00896 41.8597 9.49254C41.8772 9.49254 41.8772 9.47463 41.8948 9.47463C42.0175 9.34925 41.5442 7.95224 41.3689 7.75522C41.1936 7.57612 40.8605 6.82388 40.545 6.01791C40.2295 5.21194 38.7044 4.69254 38.2136 4.38806C37.7228 4.08358 37.7403 3.38507 36.7412 2.99104C35.9348 2.66866 35.5667 3.00896 35.0934 2.88358C34.6201 2.75821 34.55 2.11343 34.0592 1.98806C33.5684 1.86269 33.025 2.04179 32.5867 1.93433C32.1485 1.84478 32.0784 1.39701 31.3071 1.25373C30.5183 1.09254 29.9574 1.59403 29.3263 1.36119C28.6953 1.12836 28.1168 0.573134 27.5559 0.573134C26.9949 0.573134 26.0659 0.823881 25.5926 0.823881C25.1368 0.823881 24.8213 0.286567 24.1201 0.197015C23.419 0.107463 22.9983 0.626866 22.4023 0.626866C21.8063 0.626866 21.7887 0 20.9298 0C20.0709 0 19.6151 0.501493 19.0892 0.501493C18.5634 0.501493 18.7387 0 17.9323 0C17.126 0 16.863 0.483582 16.2846 0.555224C15.7061 0.626866 15.5834 0.286567 14.8121 0.376119C14.0408 0.447761 13.9006 1.16418 13.4273 1.16418C12.954 1.16418 12.5508 0.949254 11.8672 1.07463C11.1836 1.18209 11.2537 1.59403 10.7103 1.75522C10.1669 1.91642 9.71112 1.57612 9.11512 1.80896C8.51913 2.04179 8.57172 2.45373 8.2036 2.52537C7.81796 2.59701 7.73032 2.27463 6.78374 2.52537C5.83716 2.77612 6.04751 3.11642 5.74951 3.43881C5.43399 3.76119 4.03165 3.49254 3.59342 3.9403C3.13766 4.40597 3.33048 4.65672 3.15519 5.06866C2.9799 5.49851 1.52497 5.69552 1.22698 6.25075C1.03416 6.59104 1.05168 7.03881 1.05168 7.45075C1.06921 7.18209 1.10427 6.93134 1.22698 6.69851C1.52497 6.16119 2.99743 5.96418 3.15519 5.53433Z" fill="#CF6446"/>
<g opacity="0.35">
<path opacity="0.35" d="M10.3422 5.05077C10.3422 5.05077 10.57 4.60301 11.9899 5.24778C13.4098 5.91047 14.4615 5.24778 15.0751 5.24778C15.6886 5.24778 16.8455 5.30151 16.8105 5.53435C16.7929 5.76718 15.6535 5.65972 15.0751 5.76718C14.4966 5.87465 13.7078 6.28659 13.0592 6.28659C12.4106 6.28659 9.79876 5.60599 10.3422 5.05077Z" fill="#D18743"/>
<path opacity="0.35" d="M5.34628 9.1882C5.34628 9.1882 6.22274 8.65089 7.16932 9.08074C8.1159 9.49268 9.32541 9.09865 9.88635 9.49268C10.4298 9.88671 10.605 10.227 10.0091 10.0479C9.41306 9.8688 8.58919 9.67178 7.87049 9.79716C7.13426 9.94044 4.66265 9.43895 5.34628 9.1882Z" fill="#D18743"/>
<path opacity="0.35" d="M16.3897 13.6478C16.3897 13.6478 16.9156 12.7702 17.9674 13.1284C19.0366 13.4866 21.1927 12.9851 20.9649 13.3433C20.737 13.7015 19.878 13.9523 19.0366 13.7911C18.1952 13.6299 17.0909 14.2747 16.6001 14.0956C16.1268 13.8986 16.3897 13.6478 16.3897 13.6478Z" fill="#D18743"/>
<path opacity="0.35" d="M8.22115 13.6479C8.22115 13.6479 8.71196 13.9166 9.62348 13.6479C10.535 13.3793 11.3764 13.1464 11.9899 13.3434C12.6034 13.5225 11.6393 13.7733 11.6393 13.7733C11.6393 13.7733 10.8155 13.8808 10.2019 14.0957C9.58842 14.3106 6.74869 14.4002 7.08175 13.9345C7.43233 13.4688 8.22115 13.6479 8.22115 13.6479Z" fill="#D18743"/>
<path opacity="0.35" d="M20.842 5.17626C20.842 5.17626 21.6308 5.4091 22.3671 5.17626C23.1033 4.94343 24.716 4.58522 25.1016 4.8897C25.4873 5.19418 24.7335 5.28373 24.7335 5.28373C24.7335 5.28373 23.6116 5.33746 22.8929 5.58821C22.1567 5.83895 19.5449 5.7494 19.7377 5.37328C19.9305 4.99716 20.842 5.17626 20.842 5.17626Z" fill="#D18743"/>
<path opacity="0.35" d="M28.3973 3.77926C28.3973 3.77926 28.8005 4.20911 29.6068 4.11956C30.4132 4.03001 30.9215 4.03001 31.535 4.31657C32.1486 4.60314 33.0075 4.42403 32.7971 4.11956C32.5868 3.81508 32.0609 3.83299 31.4825 3.77926C30.904 3.72553 30.0976 2.83001 29.2212 2.95538C28.3447 3.08075 26.8372 3.27777 27.4683 3.56433C28.0993 3.8509 27.9766 3.52851 28.3973 3.77926Z" fill="#D18743"/>
<path opacity="0.35" d="M13.0591 10.6925C13.0591 10.6925 13.0591 11.3552 13.9881 11.1402C14.9347 10.9074 15.4781 10.3343 16.1267 10.5134C16.7753 10.6746 18.0023 10.8178 17.9673 10.4775C17.9322 10.1372 17.3537 10.1731 16.898 10.1014C16.4422 10.0298 15.0749 9.61784 14.3387 9.92232C13.6025 10.2268 13.0591 10.388 13.0591 10.6925Z" fill="#D18743"/>
<path opacity="0.35" d="M17.9673 2.40015C17.9673 2.61508 18.0023 2.91956 19.0366 2.72254C20.0708 2.54344 20.1409 2.43597 20.8596 2.57926C21.5783 2.72254 22.1743 2.4897 21.6835 2.40015C21.1927 2.3106 19.4923 1.84493 18.8087 2.02403C18.125 2.22105 17.9673 2.18523 17.9673 2.40015Z" fill="#D18743"/>
<path opacity="0.35" d="M30.3253 7.03898C30.448 7.46883 30.8162 6.84197 31.3771 7.52257C31.9205 8.20316 31.8679 8.00615 32.7268 8.07779C33.5858 8.16734 35.216 8.57928 35.0933 8.07779C34.9706 7.5763 34.0415 7.71958 33.3053 7.52257C32.5691 7.30764 32.3938 6.8957 31.5524 6.78824C30.7285 6.69868 30.2026 6.60913 30.3253 7.03898Z" fill="#D18743"/>
</g>
<path d="M14.5494 4.96157C14.4266 5.17649 14.8824 5.67798 15.4959 6.25112C15.8816 6.59142 16.7405 7.14664 16.8807 6.94963C16.9333 6.82425 16.6353 6.25112 15.9692 5.66007C15.6186 5.3556 14.637 4.87202 14.5494 4.96157Z" fill="#A3644B"/>
<path d="M14.5492 4.96168C14.4791 5.05123 14.9874 5.58855 15.601 6.14377C15.9866 6.48407 16.828 7.00347 16.8806 6.93183C16.9332 6.86019 16.6878 6.14377 16.0041 5.55273C15.6711 5.24825 14.6369 4.87213 14.5492 4.96168Z" fill="#BF7352"/>
<path d="M13.6201 9.49276C13.7253 9.70769 14.3914 9.61814 15.1802 9.42112C15.671 9.29575 16.6176 8.8659 16.5124 8.63306C16.4423 8.5256 15.8112 8.45396 14.9523 8.68679C14.5316 8.81217 13.585 9.3853 13.6201 9.49276Z" fill="#A3644B"/>
<path d="M13.6201 9.49275C13.6552 9.60021 14.3739 9.47484 15.1627 9.27783C15.6535 9.15245 16.5475 8.7226 16.5125 8.63305C16.4949 8.5435 15.7587 8.34648 14.8998 8.59723C14.4791 8.7226 13.5851 9.38529 13.6201 9.49275Z" fill="#BF7352"/>
<path d="M16.5648 11.8571C16.7576 12.0004 17.3185 11.6243 17.932 11.069C18.3177 10.7287 18.9663 9.92277 18.791 9.76158C18.6858 9.68994 18.0723 9.92277 17.4237 10.5138C17.0906 10.8362 16.4946 11.7675 16.5648 11.8571Z" fill="#A3644B"/>
<path d="M16.5649 11.8571C16.635 11.9467 17.231 11.4989 17.8445 10.9616C18.2302 10.6213 18.8437 9.83323 18.7736 9.7795C18.721 9.70785 17.9672 9.86905 17.3187 10.478C17.0031 10.7646 16.4948 11.7676 16.5649 11.8571Z" fill="#BF7352"/>
<path d="M21.8064 6.34031C21.9115 6.55524 22.5776 6.4836 23.3665 6.30449C23.8573 6.19703 24.8214 5.803 24.7162 5.57016C24.6461 5.4627 24.015 5.37315 23.1561 5.57016C22.7354 5.67763 21.7713 6.23285 21.8064 6.34031Z" fill="#A3644B"/>
<path d="M21.8064 6.34039C21.8239 6.44785 22.5602 6.34039 23.349 6.16129C23.8398 6.05382 24.7513 5.65979 24.7163 5.57024C24.6987 5.48069 23.9625 5.26576 23.1211 5.48069C22.6829 5.58815 21.7713 6.23293 21.8064 6.34039Z" fill="#BF7352"/>
<path d="M19.055 6.21549C19.2829 6.30505 19.7211 5.80355 20.2119 5.12296C20.5099 4.71102 20.9657 3.76176 20.7378 3.6543C20.6151 3.61848 20.0892 3.97669 19.5809 4.71102C19.3179 5.08714 18.9673 6.14385 19.055 6.21549Z" fill="#A3644B"/>
<path d="M19.0543 6.21513C19.142 6.28677 19.6153 5.71363 20.0886 5.03304C20.3866 4.6211 20.8073 3.70766 20.7196 3.65393C20.6495 3.6002 19.9659 3.9405 19.475 4.67483C19.2296 5.05095 18.9667 6.14348 19.0543 6.21513Z" fill="#BF7352"/>
</g>

</svg>
