<svg width="15" height="46" viewBox="0 0 15 46" fill="none" xmlns="http://www.w3.org/2000/svg">
<path d="M7.62939e-05 24.9161C0.00489712 24.7814 0.296554 23.483 0.400201 23.0028C0.503847 22.5226 0.778631 20.4916 0.985925 19.4651C1.19322 18.4386 1.92839 16.3684 2.18389 15.6212C2.43939 14.874 2.85398 12.1375 3.20348 10.7043C3.61566 9.00403 4.23031 8.92074 4.23031 8.92074L4.93173 8.81049L5.35837 8.74434L5.83804 8.6684C6.014 8.64145 6.15139 8.4969 6.17067 8.31806L6.3177 7.04656L6.36832 6.60803C6.25503 6.45858 6.15621 6.28709 6.07185 6.10335C6.03569 6.02495 6.00194 5.94411 5.97302 5.86081C5.9682 5.86326 5.96579 5.86326 5.96097 5.86571C5.78019 5.93186 5.53674 5.70891 5.41381 5.36593C5.29329 5.02294 5.3415 4.69221 5.51987 4.62606C5.55361 4.61381 5.58736 4.61136 5.62351 4.61871C5.44996 3.78574 5.38006 2.78128 5.79224 2.08306C5.79947 2.07326 5.8067 2.06101 5.81393 2.05121C5.90794 1.89932 6.02605 1.76457 6.17067 1.64943C6.0839 1.47303 6.04533 1.27949 6.06461 1.0835C6.13451 0.402427 6.87932 -0.0777538 7.73019 0.0104427C8.58106 0.101089 9.21258 0.725814 9.14268 1.40689C9.13063 1.51958 9.1017 1.62493 9.0559 1.72537C9.06796 1.73517 9.08001 1.74742 9.09206 1.75722C9.09206 1.75967 9.08965 1.76212 9.08965 1.76457C9.78384 2.44565 9.73563 3.66815 9.5428 4.64321C9.60306 4.61381 9.66573 4.60891 9.71876 4.62851C9.89954 4.69466 9.94775 5.02539 9.82482 5.36838C9.7043 5.71136 9.45844 5.93431 9.27766 5.86816C9.26561 5.86326 9.25356 5.85836 9.24392 5.85101C9.20535 5.94411 9.16437 6.0323 9.11858 6.1205C8.986 6.37284 8.82451 6.60068 8.63891 6.78442L8.8004 8.22986C8.82933 8.47975 9.01011 8.68554 9.25115 8.74189L10.8348 9.10938C10.8348 9.10938 11.4277 9.28577 11.7941 10.7141C12.1629 12.1424 12.5582 14.8838 12.8137 15.631C13.0716 16.3758 13.8068 18.446 14.0141 19.4725C14.2214 20.499 14.4962 22.5299 14.5998 23.0101C14.7034 23.4903 14.9951 24.7888 14.9999 24.9235C15.0047 25.0582 14.783 26.2268 14.7782 26.2758C14.7733 26.3248 14.6094 26.2758 14.6094 26.2758C14.6094 26.2758 14.5998 26.342 14.5877 26.4204C14.5853 26.4326 14.5829 26.4449 14.5829 26.4571C14.5805 26.4694 14.5781 26.4816 14.5757 26.4939C14.5709 26.5257 14.5636 26.5551 14.5588 26.5845C14.5588 26.5894 14.5564 26.5943 14.5564 26.6017C14.5516 26.6213 14.5468 26.6409 14.5444 26.6556C14.5444 26.658 14.5419 26.6629 14.5419 26.6654C14.5371 26.6776 14.5347 26.685 14.5299 26.685C14.5203 26.6874 14.4865 26.6727 14.4479 26.6409C14.4021 26.6041 14.3515 26.5478 14.3178 26.4792C14.3033 26.4498 14.2937 26.4179 14.2889 26.3836C14.2792 26.3175 14.2744 26.1435 14.272 25.9476C14.272 25.9402 14.272 25.9304 14.272 25.9206C14.272 25.8692 14.272 25.8153 14.2696 25.7638C14.2696 25.754 14.2696 25.7467 14.2696 25.7369C14.2696 25.7026 14.2696 25.6658 14.2696 25.634C14.2696 25.6168 14.2696 25.5997 14.2696 25.5825C14.2696 25.5482 14.2696 25.5164 14.2696 25.487C14.2696 25.3718 14.2696 25.2738 14.2696 25.2199C14.2696 25.2126 14.2696 25.2077 14.2696 25.2003C14.2696 25.1832 14.2696 25.1758 14.2696 25.1758L14.1611 24.9994C14.1611 24.9994 14.1225 25.0656 14.0454 25.0925C14.002 25.1072 13.9562 25.0876 13.9394 25.0435C13.8357 24.7937 13.4476 23.8382 13.4308 23.6495C13.4115 23.4315 13.5199 22.2629 13.3681 21.942C13.2162 21.621 11.8978 19.0413 11.5699 17.5836C11.2421 16.1259 11.1144 15.2194 10.613 13.8769C10.613 13.8769 10.613 13.8793 10.6106 13.8793C10.5986 13.9112 10.4949 14.166 10.3744 14.5041C10.3117 14.678 10.2418 14.874 10.1767 15.0724V15.0749C10.1671 15.1018 10.1575 15.1312 10.1502 15.1582C10.0297 15.5379 9.92847 15.9152 9.90918 16.1626C9.87062 16.6624 10.4901 18.5391 10.801 19.4382C10.8372 19.5117 11.0276 20.0359 11.1409 20.2907C12.8209 24.0979 12.4256 28.5347 12.3726 30.1516C12.3172 31.8763 12.7125 33.5251 13.1174 35.828C13.5224 38.1309 13.1174 41.6367 13.1174 41.6367C13.0885 41.6465 13.0571 41.6563 13.0282 41.6661L12.8812 43.2855C12.8884 43.6432 13.1897 44.5766 13.4525 44.7873C13.5923 44.9 13.6718 45.2307 13.7176 45.5198C13.7417 45.6717 13.7538 45.8138 13.761 45.902C13.7658 45.9535 13.7248 45.9976 13.6742 45.9976H11.0083C10.9577 45.9976 10.9191 45.9559 10.9215 45.9045C10.9264 45.8016 10.9384 45.6693 10.9553 45.5198C11.0469 44.7114 11.2831 43.408 11.2831 43.408C11.2952 43.2561 11.3313 41.7347 11.3337 41.6049C11.3217 41.6024 11.3144 41.6 11.3144 41.6C11.353 39.8164 10.8806 38.1285 10.4467 36.0387C10.0128 33.9465 10.278 32.5696 9.71153 31.0164C9.20535 29.6273 8.01944 25.3841 7.77358 24.4997C7.77117 24.4874 7.76635 24.4776 7.76394 24.4678C7.76153 24.4629 7.76153 24.458 7.75912 24.4531C7.75912 24.4531 7.75912 24.4531 7.75912 24.4507C7.75671 24.4458 7.75671 24.4409 7.7543 24.436C7.7543 24.4335 7.75189 24.4311 7.75189 24.4286C7.73501 24.3698 7.72537 24.338 7.72537 24.338L7.31078 24.2988C7.30837 24.3331 7.30355 24.3698 7.29873 24.4041C7.29873 24.4066 7.29873 24.409 7.29873 24.4115C7.28668 24.5144 7.27222 24.6197 7.25535 24.7251C6.93235 26.8295 5.83081 29.0859 5.09805 31.1438C4.31708 33.3414 4.67141 34.608 4.08086 37.2416C3.49032 39.8752 3.55299 41.5975 3.55299 41.5975C3.55299 41.5975 3.59156 43.2488 3.60361 43.4105C3.60361 43.4105 3.83983 44.7163 3.93142 45.5223C3.94829 45.6717 3.96035 45.8016 3.96517 45.9069C3.96758 45.9584 3.92901 46 3.87839 46H1.2125C1.16188 46 1.12091 45.9559 1.12573 45.9045C1.13296 45.8163 1.14501 45.6766 1.16912 45.5223C1.2125 45.2356 1.29204 44.9024 1.43426 44.7898C1.6994 44.5791 2.0007 43.6456 2.00552 43.288L1.85125 41.5926C1.74761 41.5681 1.68494 41.5485 1.68494 41.5485C1.68494 41.5485 1.6536 39.6278 1.63432 37.4792C1.61504 35.3307 2.02962 34.1229 2.23692 33.165C2.44421 32.2071 2.42493 29.4828 2.63222 25.7246C2.77443 23.1571 3.46139 21.18 3.88321 20.1854C4.07845 19.7248 4.20379 19.3941 4.2062 19.3941C4.48099 18.6101 5.11974 16.7384 5.13902 16.2655C5.15108 15.9961 5.0402 15.5428 4.91486 15.1288C4.89558 15.0626 4.87388 14.9989 4.8546 14.9352V14.9328C4.84978 14.9181 4.84496 14.9034 4.84014 14.8887V14.8862C4.83532 14.8715 4.83049 14.8568 4.82567 14.8422C4.77506 14.6903 4.72685 14.5506 4.68828 14.4404C4.63043 14.2762 4.58946 14.1709 4.58946 14.1709L4.53402 13.36C4.49304 13.5511 4.44483 13.725 4.3918 13.872C3.89044 15.2145 3.76269 16.121 3.43488 17.5787C3.10707 19.0364 1.78858 21.6186 1.63673 21.9371C1.48487 22.2556 1.59334 23.4266 1.57406 23.6446C1.55719 23.8333 1.16912 24.7863 1.06547 25.0386C1.0486 25.0803 1.00039 25.1023 0.959411 25.0876C0.882278 25.0607 0.843713 24.9945 0.843713 24.9945L0.735245 25.1709C0.735245 25.1709 0.735245 25.1807 0.735245 25.1954C0.735245 25.2003 0.735245 25.2077 0.735245 25.215C0.735245 25.2689 0.735245 25.3645 0.735245 25.4821C0.735245 25.5139 0.735245 25.5458 0.735245 25.5776C0.735245 25.5948 0.735245 25.6119 0.735245 25.6291C0.735245 25.6634 0.735245 25.6977 0.735245 25.732C0.735245 25.7418 0.735245 25.7491 0.735245 25.7589C0.735245 25.8128 0.735244 25.8643 0.732834 25.9157C0.732834 25.9255 0.732834 25.9329 0.732834 25.9427C0.730423 26.1386 0.725604 26.3126 0.715962 26.3787C0.706321 26.4596 0.662932 26.5282 0.617135 26.5796C0.556876 26.6458 0.491796 26.685 0.474923 26.6801C0.472513 26.6801 0.467692 26.6727 0.462872 26.6605C0.462872 26.658 0.460461 26.6531 0.460461 26.6507C0.431536 26.5576 0.395379 26.2734 0.395379 26.2734C0.395379 26.2734 0.231473 26.3224 0.226652 26.2734C0.21701 26.2195 -0.00474453 25.0509 7.62939e-05 24.9161Z" fill="#DDDADA"/>
</svg>
