<svg width="36" height="43" viewBox="0 0 36 43" fill="none" xmlns="http://www.w3.org/2000/svg">
<g clip-path="url(#clip0_308_650)">
<path d="M6.65135 27.4751C7.13459 35.1525 13.2145 34.5652 18.9695 34.7055C20.6666 34.745 22.3814 34.6328 24.0763 34.5645C25.2263 34.516 26.4791 34.1984 27.1547 33.3017C27.4918 32.7867 27.7054 32.2054 27.7797 31.6004C28.3061 28.729 28.1828 25.7555 28.225 22.8499C28.2745 19.3283 28.3052 15.8096 28.351 12.2886C28.3582 11.7658 28.3869 3.60792 28.6345 3.61119C21.9679 3.5613 15.2675 2.24211 8.61005 2.50758C5.42709 2.63487 6.2442 5.27166 6.20067 7.55515C6.15808 10.6943 6.17338 13.8334 6.24655 16.9723C6.30838 19.6957 6.41362 22.4248 6.56227 25.1597C6.60088 25.8916 6.60639 26.6808 6.65135 27.4751Z" fill="#F7A32D"/>
<path d="M8.41922 9.72142C8.41922 9.72142 11.5309 11.2595 18.4822 11.0201C25.4334 10.7807 26.4594 9.73743 26.4594 9.73743C26.4594 9.73743 26.7061 18.7775 26.1079 22.3901C26.1079 22.3901 19.2739 25.4475 8.66177 22.183C8.27897 18.0397 8.19792 13.8756 8.41922 9.72142Z" fill="#D88121"/>
<g style="mix-blend-mode:multiply">
<path d="M27.1546 33.3016C27.4917 32.7866 27.7053 32.2053 27.7796 31.6003C28.3061 28.729 28.1827 25.7554 28.2249 22.8498C28.2744 19.3282 28.3052 15.8095 28.3509 12.2885C28.3581 11.7657 28.3869 3.60786 28.6344 3.61112C27.1163 3.60397 25.597 3.51874 24.0816 3.41054C23.7483 3.62284 23.4819 3.91955 23.3115 4.26822C23.1411 4.61689 23.0734 5.00408 23.1156 5.38743C23.1514 6.99926 23.6435 8.61608 23.843 10.2141C24.0692 12.1875 24.1115 14.1765 23.9694 16.1572C23.8076 18.4326 23.3997 20.6854 22.7524 22.8788C22.1289 24.9675 21.2445 27.0661 19.6302 28.5716C17.8666 30.2266 15.3803 31.0266 12.924 31.1363C11.0097 31.1858 9.0985 30.9569 7.25468 30.4574C8.99259 34.996 14.1062 34.5894 18.9819 34.711C20.679 34.7505 22.3938 34.6383 24.0887 34.57C25.23 34.5153 26.4808 34.2092 27.1546 33.3016Z" fill="#E8E8E8"/>
</g>
<path d="M19.9097 32.964C20.5178 32.5 21.2212 32.1484 21.7544 31.6025C22.4707 30.8764 22.8913 29.7999 23.857 29.4237C24.1713 29.3218 24.5051 29.288 24.8345 29.3248C25.1638 29.3615 25.4808 29.4679 25.7628 29.6363C26.3253 29.9758 26.8144 30.4171 27.2034 30.9358C27.5183 31.3787 27.8905 31.7809 28.3111 32.1327C28.9814 32.6279 29.8664 32.804 30.5144 33.3287C30.7371 33.4969 30.907 33.7216 31.005 33.9776C31.0539 34.1059 31.0708 34.2434 31.0545 34.3792C31.0382 34.5149 30.9891 34.6451 30.9112 34.7591C30.7318 34.9591 30.4971 35.1055 30.2345 35.1813C29.1432 35.6182 28.0062 35.9403 26.8434 36.142C24.699 36.4792 22.5 36.2486 20.4807 35.4746C20.0406 35.3061 19.0861 35.0585 18.8881 34.5965C18.6331 34.0202 19.5039 33.2709 19.9097 32.964Z" fill="white"/>
<path d="M32.4778 33.3726C32.588 33.3252 32.7102 33.3101 32.8293 33.3291C32.9483 33.348 33.059 33.4002 33.1476 33.4792C33.2363 33.5582 33.2991 33.6605 33.3282 33.7735C33.3573 33.8865 33.3515 34.0053 33.3115 34.1152C32.8543 35.4431 32.1837 36.6913 30.946 37.3431C29.9611 37.8637 28.793 37.8941 27.677 37.9129L22.1814 38.0279C21.1657 38.0465 20.1143 38.0593 19.1949 37.6462C18.0765 37.1476 17.0408 35.8468 16.5856 34.604C16.5505 34.5078 16.5416 34.4045 16.5597 34.3041C16.5778 34.2036 16.6222 34.1093 16.6888 34.0302C16.7554 33.951 16.8419 33.8897 16.94 33.852C17.0381 33.8143 17.1446 33.8016 17.2493 33.815C19.985 34.1486 22.9313 34.7598 25.675 34.593C27.139 34.507 28.2991 34.5225 29.7329 34.2249C30.6647 33.9942 31.5814 33.7096 32.4778 33.3726Z" fill="#9F4A4A"/>
<g style="mix-blend-mode:multiply">
<path d="M32.4777 33.3724C32.2089 33.4762 31.9169 33.5797 31.6275 33.6753C31.5262 34.0549 31.357 34.4144 31.1275 34.7377C30.4307 35.6494 29.4421 36.3139 28.3147 36.6285C27.1888 36.9388 26.0245 37.1001 24.8537 37.108C22.5937 37.1897 20.3306 37.1117 18.0825 36.8746C18.4047 37.1914 18.781 37.4524 19.1948 37.6461C20.1143 38.0591 21.1656 38.0463 22.1813 38.0277L27.6624 37.9187C28.7784 37.8999 29.9454 37.8622 30.9314 37.3488C32.1691 36.697 32.8398 35.4488 33.2969 34.1209C33.3365 34.0123 33.3426 33.8949 33.3145 33.783C33.2864 33.671 33.2254 33.5694 33.1387 33.4902C33.0521 33.411 32.9436 33.3578 32.8263 33.3369C32.709 33.316 32.5879 33.3283 32.4777 33.3724Z" fill="#E8E8E8"/>
</g>
<path d="M28.6344 3.61127C28.6327 5.70207 24.7853 7.38393 18.4618 7.37864C12.1383 7.37335 6.1339 5.68354 6.13321 3.5782C6.13253 1.47286 12.0993 0.217074 18.4216 0.21509C24.7438 0.213106 28.6344 1.50957 28.6344 3.61127Z" fill="#FFB966"/>
</g>
<defs>
<clipPath id="clip0_308_650">
<rect width="36" height="43" fill="white"/>
</clipPath>
</defs>
</svg>
