<svg width="26" height="26" viewBox="0 0 26 26" fill="none" xmlns="http://www.w3.org/2000/svg">
<defs>
<clipPath id="clip0_1017_447">
<rect width="26" height="26" fill="white"/>
</clipPath>
</defs>
<g clip-path="url(#clip0_1017_447)">
<path fill-rule="evenodd" clip-rule="evenodd" d="M0.999512 24.8748C0.999512 25.4354 1.44141 25.8951 1.98121 25.8951H7.07356L8.17094 25.0691L9.28463 25.8951H11.7003L12.5292 25.0691L13.3597 25.8951H14.1901L15.0205 25.0691L15.8509 25.8951H18.6195C19.1593 25.8951 19.6012 25.4354 19.6012 24.8748V23.8441V23.509L10.0547 21.7344L0.999512 23.509V24.8748Z" fill="#7E707D"/>
<path fill-rule="evenodd" clip-rule="evenodd" d="M13.3978 4.43809L19.1785 2.91075C19.223 2.91075 19.266 2.90333 19.3075 2.89297C19.5018 2.83661 19.6442 2.65572 19.6442 2.44513V0.570645C19.6442 0.314098 19.4351 0.10498 19.1786 0.10498H6.86435C6.60781 0.10498 6.39722 0.314098 6.39722 0.570645V2.2612L13.3978 4.43809Z" fill="#F5A96C"/>
<path fill-rule="evenodd" clip-rule="evenodd" d="M0.465613 5.067L6.62345 7.03264L12.7813 5.067C12.8243 5.067 12.8688 5.06106 12.9088 5.04923C13.103 4.99286 13.2469 4.81345 13.2469 4.60139V2.91077V2.7269C13.2469 2.47035 13.0363 2.26123 12.7813 2.26123H6.39732H0.465613C0.209066 2.26123 0 2.47035 0 2.7269V4.60139C0 4.84905 0.197234 5.0537 0.441898 5.06705H0.465613V5.067Z" fill="#FFBC85"/>
<path fill-rule="evenodd" clip-rule="evenodd" d="M20.5869 22.0306V23.509H6.24716C4.36855 22.6511 3.15803 22.1159 1.31655 19.2308C1.41542 17.2235 1.4238 15.2869 1.31554 13.1917C1.30665 13.0212 1.2972 12.8496 1.28674 12.6764C1.27521 12.4901 1.26318 12.3023 1.25013 12.113C1.10469 10.0189 0.844184 7.73954 0.441895 5.06733H12.7812C12.8257 5.06733 12.8685 5.06104 12.9088 5.04956C13.2468 5.55387 17.2028 15.6468 20.5514 21.3532C20.5686 21.3825 20.5587 21.4228 20.5618 21.4584C20.578 21.6361 20.5869 21.8261 20.5869 22.0306Z" fill="#FDE588"/>
<path fill-rule="evenodd" clip-rule="evenodd" d="M1.31684 19.231C1.25012 20.6012 1.14185 22.0026 0.999512 23.5093H6.24755C5.73004 21.2893 3.84077 19.231 1.31684 19.231Z" fill="#FFBC85"/>
<path fill-rule="evenodd" clip-rule="evenodd" d="M25.9998 19.8742V21.4582L22.7878 22.6512L19.5756 21.4582C19.573 21.4227 19.5699 21.3887 19.5651 21.3541C19.5651 21.3531 19.5651 21.3531 19.5651 21.3531C19.0954 17.2156 14.1051 20.4941 12.3688 17.2093C11.943 16.4042 11.7609 14.7374 11.8692 12.4727C11.8965 11.9161 11.9399 11.3239 12.0026 10.6982C12.0152 10.5727 12.0283 10.4461 12.0424 10.3179C12.057 10.185 12.0722 10.0511 12.0879 9.91565C12.2637 8.44142 12.5352 6.8082 12.9087 5.06564C13.1028 5.00912 13.2466 4.82971 13.2466 4.61785V2.92866H19.1785C19.223 2.92866 19.2658 2.92292 19.3072 2.91089C18.7401 5.55537 18.41 7.94402 18.2897 9.91677C18.2813 10.0523 18.274 10.1862 18.2677 10.318C18.2614 10.4477 18.2561 10.5748 18.252 10.7004C18.1808 12.7705 18.366 14.2954 18.7673 15.055C20.59 18.5025 25.9998 14.7181 25.9998 19.8742Z" fill="#FDE588"/>
<path fill-rule="evenodd" clip-rule="evenodd" d="M17.9314 25.8954H18.6195C19.1593 25.8954 19.6012 25.4357 19.6012 24.8751V23.8444V23.5093H17.9314V23.8444V25.8954Z" fill="#6A5C69"/>
<path fill-rule="evenodd" clip-rule="evenodd" d="M17.3131 2.92871C16.7111 5.74336 16.3774 8.26734 16.2795 10.3079C16.2781 10.3108 16.2781 10.3153 16.2781 10.3182H18.2681C18.366 8.27176 18.7012 5.73737 19.3077 2.91089C19.3062 2.91089 19.3047 2.91089 19.3032 2.91236C19.2632 2.92272 19.2217 2.92866 19.1786 2.92866H17.3131V2.92871Z" fill="#FDD76F"/>
<path fill-rule="evenodd" clip-rule="evenodd" d="M16.2778 10.3181C16.1695 12.5826 16.6841 15.329 17.1097 16.1343C18.9337 19.5822 24.0097 16.1298 24.0097 21.2876V21.4581H25.9998V19.8743V19.8728C25.9983 14.7181 20.5901 18.5026 18.7676 15.0547C18.4206 14.3992 18.2352 13.1713 18.2367 11.5149C18.2367 11.1367 18.2471 10.7378 18.2679 10.3181H16.2778Z" fill="#FDD76F"/>
<path d="M18.29 9.91654C18.2817 10.052 18.2743 10.1859 18.2681 10.3178C18.2618 10.4475 18.2565 10.5746 18.2524 10.7002H12.0427C12.0291 10.7002 12.0161 10.6997 12.003 10.6981C11.8052 10.6783 11.6504 10.5108 11.6504 10.3079C11.6504 10.0908 11.8262 9.91553 12.0427 9.91553H18.2681C18.2754 9.91553 18.2827 9.91553 18.29 9.91654Z" fill="#7E707D"/>
<path fill-rule="evenodd" clip-rule="evenodd" d="M19.6008 22.0305V23.5089H17.9315L17.896 22.2261C17.9875 19.4561 12.4355 21.4346 10.6991 18.1467C10.2979 17.386 10.1127 15.023 10.1839 12.8562C10.188 12.7244 10.1933 12.5936 10.1996 12.4639H11.8694C11.8631 12.5968 11.8579 12.7275 11.8537 12.8562C11.7831 14.9226 11.9683 16.4455 12.369 17.2051C14.1053 20.4925 19.0955 17.2124 19.5653 21.353L19.5757 21.4582C19.5919 21.636 19.6008 21.8259 19.6008 22.0305Z" fill="#FDD76F"/>
<path fill-rule="evenodd" clip-rule="evenodd" d="M12.909 5.04956C12.501 6.95482 12.2148 8.72724 12.0427 10.3082C11.9747 10.927 11.9244 11.5166 11.891 12.0727C11.8826 12.205 11.8758 12.3353 11.8695 12.464H10.1997C10.206 12.3353 10.2133 12.2045 10.2211 12.0717C10.2552 11.5156 10.3048 10.9271 10.3729 10.3082C10.545 8.73303 10.8295 6.96533 11.2345 5.06738H12.7814C12.8258 5.06733 12.8687 5.06109 12.909 5.04956Z" fill="#FDD76F"/>
<path d="M11.8909 12.0726C11.8825 12.2049 11.8757 12.3352 11.8695 12.4639C11.8632 12.5968 11.8579 12.7275 11.8538 12.8562H6.41363C5.92867 12.8562 5.5991 12.8656 5.43381 12.9928C5.25749 13.1288 5.17172 13.5007 5.17172 14.1296C5.17172 14.6129 4.97449 14.9833 4.6308 15.1444C4.53924 15.1873 4.40792 15.2287 4.24004 15.2287C3.98004 15.2287 3.63265 15.1293 3.21365 14.7814L1.31565 13.1915C1.30676 13.021 1.29732 12.8494 1.28686 12.6763C1.27533 12.49 1.26329 12.3022 1.25024 12.1128L3.71425 14.1771C4.01401 14.4256 4.22694 14.4669 4.29758 14.434C4.34049 14.4141 4.38705 14.31 4.38705 14.1296C4.38705 13.2036 4.55707 12.6778 4.95519 12.3713C5.34387 12.0715 5.86337 12.0715 6.41368 12.0715H11.8695C11.8768 12.0715 11.8836 12.0715 11.8909 12.0726Z" fill="#7E707D"/>
<path fill-rule="evenodd" clip-rule="evenodd" d="M19.6011 22.0307V23.5092V23.8444H20.5888L21.4192 23.0184L22.2496 23.8444H25.0182C25.558 23.8444 25.9999 23.3846 25.9999 22.8241V21.4583H19.5759C19.5922 21.6362 19.6011 21.8261 19.6011 22.0307Z" fill="#7E707D"/>
<path d="M24.01 21.4583V23.8444H25.0184C25.5582 23.8444 26.0001 23.3846 26.0001 22.8241V21.4583H24.01V21.4583Z" fill="#6A5C69"/>
</g>

</svg>
