<svg width="18" height="18" viewBox="0 0 18 18" fill="none" xmlns="http://www.w3.org/2000/svg">
<defs>
<clipPath id="clip0_308_548">
<rect width="18" height="18" fill="white"/>
</clipPath>
</defs>
<g clip-path="url(#clip0_308_548)">
<path d="M8.99917 18C5.10456 18 1.93604 14.8237 1.93604 10.9196C1.93604 7.88334 3.31592 5.17596 5.3419 2.95247C7.0082 1.12371 8.65735 0.116693 8.72671 0.074752C9.09226 -0.146381 9.58287 0.154908 9.58287 0.562369V5.4127L12.0644 3.09664C12.2798 2.89558 12.6208 2.90951 12.8183 3.13278C13.7614 4.1989 14.5122 5.32471 15.0497 6.47899C18.0476 12.9169 13.9149 18 8.99917 18Z" fill="#FE4E33"/>
<path d="M15.0495 6.47915C14.512 5.32487 13.7612 4.19906 12.8181 3.13295C12.6206 2.90963 12.2796 2.89575 12.0642 3.0968L9.58269 5.41286V0.562531C9.58269 0.255758 9.30464 0.00927734 9.01123 0.000488281V18C13.9216 17.9916 18.0449 12.9118 15.0495 6.47915Z" fill="#FE1600"/>
<path d="M8.99913 17.9999C7.51905 17.9999 6.31494 16.7929 6.31494 15.3093C6.31494 12.9118 8.64257 11.4923 8.74164 11.433C8.91531 11.3292 9.13276 11.3341 9.30165 11.4453C9.39889 11.5095 11.6833 13.0417 11.6833 15.3093C11.6833 16.7929 10.4792 17.9999 8.99913 17.9999Z" fill="#FEC356"/>
<path d="M11.6832 15.309C11.6832 13.0415 9.39876 11.5092 9.30155 11.4451C9.21359 11.3871 9.11248 11.3583 9.01123 11.3584V17.9994C10.4856 17.9927 11.6832 16.7885 11.6832 15.309Z" fill="#FEB020"/>
</g>

</svg>
