<svg width="46" height="19" viewBox="0 0 46 19" fill="none" xmlns="http://www.w3.org/2000/svg">
<defs>
<clipPath id="clip0_678_4202">
<rect width="46" height="19" fill="white"/>
</clipPath>
</defs>
<g clip-path="url(#clip0_678_4202)">
<path d="M0.268065 14.4118C0.428904 14.7896 0.643357 15.1135 0.911422 15.3294C2.14452 16.4089 4.5035 15.6532 6.00466 15.9231C7.55944 16.193 8.95338 17.1646 10.4545 17.6504C10.7226 17.7583 10.9907 17.8123 11.2051 17.8663C12.5991 18.1362 13.6713 18.9998 15.1725 18.9458C16.9417 18.8379 18.4429 18.1902 20.1585 17.8123C21.7133 17.4345 23.1608 17.2725 24.7692 17.2186C26.3776 17.2186 27.5571 17.5424 29.0583 17.8663C29.4336 17.9203 29.7552 18.0282 30.1305 18.0822C32.7576 18.622 35.4918 18.9998 38.0653 18.0282C38.3333 17.9203 38.6014 17.8123 38.9231 17.7583C41.0676 17.0566 43.373 16.4089 44.7669 14.4657C45.0886 14.0339 45.303 13.5481 45.5175 13.0083C45.8928 11.9828 46.0536 10.7413 46.0536 9.7697C46.0536 8.5822 45.6783 7.8805 45.0886 7.3947C44.4452 6.90891 43.5338 6.693 42.4079 6.58505C41.4965 6.47709 40.6387 6.80095 39.7809 6.85493C39.2448 6.90891 38.7086 6.90891 38.1725 6.90891C35.7599 6.90891 33.2937 6.693 30.9347 6.15323C29.4872 5.82936 28.1469 5.39755 26.8601 4.85777C23.6434 3.50834 20.1049 2.6447 16.6737 2.69868C15.0653 2.69868 13.3496 2.69868 11.7949 2.91459C10.9907 3.02255 10.2401 3.29243 9.48951 3.50834C9.06061 3.6163 8.68531 3.72425 8.25641 3.77823C6.54079 4.04811 5.09324 4.10209 3.6993 5.23561C2.8951 5.88334 1.93007 6.90891 1.44755 7.77255C0.482517 9.28391 -0.482517 12.4686 0.268065 14.4118Z" fill="#B0502E"/>
<path d="M29.9162 16.625C29.9162 17.1108 29.9698 17.6506 30.1306 18.1364C32.7577 18.6762 35.4919 19.054 38.0654 18.0824C38.3334 17.9745 38.6015 17.8665 38.9232 17.8125C39.4593 17.3807 39.9954 16.841 40.3707 16.2472C41.2285 14.8978 41.3894 13.2245 41.7111 11.6052C41.8183 11.0654 41.9791 10.4716 41.8719 9.93186C41.7111 9.01425 40.9069 8.4205 40.1027 7.9347C39.4593 7.55686 38.816 7.233 38.119 6.96311C36.4034 6.26141 34.5269 5.82959 32.6505 5.82959C32.0071 5.82959 31.3637 5.88357 30.8276 6.20743C30.774 6.20743 30.7204 6.26141 30.7204 6.31539C29.9162 6.90913 29.809 8.04266 29.809 9.06823C29.7017 11.5512 29.7553 14.0881 29.9162 16.625Z" fill="#C75A34"/>
<path d="M7.1841 11.1732C10.9906 11.3891 14.4755 13.5482 18.282 13.3322C20.641 13.2243 22.8927 12.1447 25.2517 12.1447C27.8251 12.1447 30.1841 13.2783 32.7039 13.4942C36.564 13.818 40.1561 11.9828 43.4265 10.2016C44.3916 9.66179 45.4638 9.01406 45.5174 8.04247C45.5174 7.34077 44.9813 6.69304 44.2307 6.3152C43.5337 5.93736 42.6759 5.82941 41.8717 5.66747C35.7599 4.426 30.0233 1.99702 23.8578 0.701564C21.1771 0.107815 18.3356 -0.216049 15.5477 0.161792C12.1165 0.647587 9.11417 2.26691 6.16545 3.77827C4.7179 4.53395 3.27035 5.34361 2.41254 6.53111C1.55473 7.77259 1.55473 9.55384 2.84144 10.4175C3.96732 11.2811 5.68293 11.1192 7.1841 11.1732Z" fill="#D8774A"/>
<path d="M23.9113 1.13335C21.177 0.593578 18.3355 0.323692 15.5477 0.701533C12.1164 1.13335 9.11409 2.53676 6.16537 3.94017C5.62924 4.21006 5.09311 4.42596 4.6106 4.69585C5.14673 4.37199 5.68286 4.1021 6.16537 3.83221C9.11409 2.26687 12.1164 0.647556 15.5477 0.16176C18.3355 -0.216081 21.177 0.107783 23.8577 0.647556C28.4148 1.61915 32.7038 3.18449 37.1537 4.47994C32.7038 3.34642 28.4148 1.94301 23.9113 1.13335Z" fill="#BF8E7D"/>
<path d="M2.7878 9.82364C3.96729 10.5253 5.68291 10.3634 7.18407 10.4174C10.9906 10.5793 14.4754 12.5225 18.282 12.3066C20.6409 12.1986 22.8927 11.281 25.2517 11.2271C27.8251 11.2271 30.1841 12.2526 32.7039 12.4146C36.564 12.6844 40.1561 11.0651 43.4801 9.49978C44.3915 9.06796 45.4102 8.47421 45.5174 7.66455C45.5174 7.77251 45.571 7.82648 45.5174 7.93444C45.4638 8.90603 44.3915 9.60773 43.4265 10.0935C40.1561 11.8748 36.564 13.71 32.7039 13.3861C30.1841 13.1702 27.8251 11.9827 25.2517 12.0367C22.8927 12.0367 20.6409 13.1163 18.282 13.2242C14.4754 13.4401 10.9906 11.281 7.18407 11.0651C5.68291 11.0111 3.96729 11.1731 2.7878 10.3634C2.03722 9.82364 1.71554 9.01398 1.76915 8.15035C1.82277 8.85205 2.14444 9.4458 2.7878 9.82364Z" fill="#BF8E7D"/>
<path d="M0.268066 14.4117C0.428906 14.7895 0.643358 15.1134 0.911423 15.3293C2.14452 16.4088 4.5035 15.6531 6.00466 15.923C7.82751 16.2469 9.4359 17.5423 11.2051 17.9202C12.5991 18.1901 13.6713 19.0537 15.1725 18.9997C16.9417 18.8918 18.4429 18.2441 20.1585 17.8662C21.7133 17.4884 23.1608 17.3264 24.7692 17.2725C26.3776 17.2725 27.5571 17.5963 29.0583 17.9202C32.007 18.5139 35.1702 19.1617 38.0653 18.0821C40.4242 17.2725 43.1585 16.7327 44.7133 14.5736C45.035 14.1418 45.2494 13.656 45.4639 13.1162C41.6573 16.8946 35.9744 18.6759 30.7203 17.6503C27.9324 17.1105 24.9837 16.5168 22.1422 17.0026C19.3007 17.4884 16.4592 18.2441 13.6177 17.8122C11.1515 17.4344 8.95338 16.1389 6.48718 15.6531C5.09324 15.3833 3.64569 15.3833 2.25175 15.1134C1.60839 14.9514 0.911423 14.7355 0.268066 14.4117Z" fill="#6B301C"/>
<path d="M33.7761 4.96564C35.5453 5.18155 37.3682 5.45144 39.1374 5.72132C40.1561 5.88326 41.3355 6.15314 41.8181 7.07076C42.3006 7.98837 41.8181 9.22985 40.9603 9.87757C40.1025 10.5253 39.0302 10.6872 38.0115 10.7952C36.9393 10.9031 35.867 10.9571 34.7948 10.9571C34.4195 10.9571 34.0978 10.9571 33.7225 10.9031C33.4008 10.8492 33.0791 10.7412 32.7575 10.6333C31.4707 10.2554 30.184 9.8236 28.8973 9.44576C28.4684 9.28382 27.9323 9.01394 27.9859 8.58212C28.0395 8.1503 28.522 7.98837 28.8973 7.88041C30.1304 7.50257 31.2563 6.74689 32.1141 5.7753C32.3822 5.45144 32.6502 5.12757 33.0255 5.01962C33.24 4.91167 33.508 4.96564 33.7761 4.96564Z" fill="#C96F45"/>
<path d="M17.7994 9.87779C17.9067 8.9062 18.0139 7.98859 18.1211 7.017C18.1747 6.58518 18.2283 6.15336 18.1211 5.72154C17.9603 4.96586 17.3169 4.37211 16.888 3.72439C16.4591 3.07666 16.191 2.10507 16.7808 1.51132C17.4241 0.86359 18.4964 1.24143 19.3542 1.56529C22.3029 2.75279 25.5733 2.64484 28.7365 2.91473C29.3799 2.9687 30.0768 3.07666 30.5593 3.50848C31.0419 3.94029 31.1491 4.85791 30.5593 5.23575C30.1304 5.50564 29.6479 5.3437 29.1654 5.39768C28.522 5.50564 28.0931 6.04541 27.7178 6.58518C27.0745 7.55677 26.2703 8.63632 26.2703 9.82382C25.1444 9.98575 24.0185 9.33802 22.8391 9.28404C21.1771 9.23007 19.4614 10.3636 17.7994 9.87779Z" fill="#C96F45"/>
<path d="M16.4056 10.0396C16.2447 10.2015 15.9767 10.2555 15.7622 10.2555C13.296 10.5254 10.9906 8.25835 8.52445 8.74415C7.66664 8.90608 6.80883 9.39187 6.00463 9.06801C5.62934 8.90608 5.36128 8.52824 5.09321 8.1504C4.82514 7.71858 4.61069 7.28676 4.39624 6.80096C5.62934 6.74699 6.80883 6.20721 8.04193 6.04528C9.54309 5.88335 10.9906 6.31517 12.4382 6.74699C12.9743 5.93733 12.2774 4.85778 12.2774 3.83221C12.2774 2.59074 13.6177 1.56517 14.7972 1.88903C14.3683 2.86062 15.1725 3.88619 15.7622 4.8038C16.5664 6.09926 16.8881 7.71858 16.6736 9.22994C16.6736 9.5538 16.62 9.82369 16.4056 10.0396Z" fill="#C96F45"/>
<path d="M17.6925 2.21295C18.6575 2.21295 19.3545 2.5908 19.1937 2.86068C19.9442 3.13057 19.9442 3.45443 20.3731 3.7783C20.802 4.10216 21.7135 4.26409 22.1424 4.58795C22.5713 4.91182 22.3568 5.28966 22.7857 5.61352C23.2682 5.99136 23.858 6.1533 24.2333 6.53114C25.0911 7.23284 25.8953 7.98852 26.7531 8.69023C27.0748 8.96011 28.147 9.33795 28.3079 9.66182C28.4687 9.9317 27.9326 10.0397 27.9326 10.2556C27.9326 10.4715 28.4687 10.6874 28.5223 10.8493C27.7181 10.9033 27.1284 10.3635 26.7531 10.1476C26.1097 9.76977 26.3242 9.60784 26.0025 9.17602C25.7881 8.85216 24.8766 8.5283 24.4477 8.25841C24.0724 7.98852 23.9116 7.66466 23.6435 7.39477C23.0538 6.74705 21.8743 6.26125 21.2846 5.6675C21.0165 5.39761 20.8557 5.01977 20.4804 4.74989C19.8906 4.42602 19.14 4.37205 18.9792 3.88625C18.0678 3.83227 17.7997 3.23852 17.6389 2.91466C16.8883 2.8067 16.7275 2.48284 17.1027 2.21295C17.2636 2.15898 17.5317 2.21295 17.6925 2.21295Z" fill="#642917"/>
<path d="M12.0094 2.32093C12.4383 2.05105 13.8322 2.48287 14.0467 2.75275C14.422 3.18457 13.6714 3.56241 14.5828 4.04821C15.3334 4.42605 16.6201 4.58798 17.2098 5.0198C17.6924 5.39764 17.5315 5.82946 18.014 6.26128C18.5502 6.63912 19.2471 6.96298 19.6224 7.3948C19.9977 7.88059 20.0513 8.25843 20.8555 8.69025C22.0886 9.33798 22.7856 10.2016 22.8928 11.0113C22.3031 10.7414 21.9814 10.3096 21.8206 9.98571C20.4266 9.87775 19.5152 8.69025 18.9791 8.20446C18.2821 7.50275 17.3707 6.909 16.352 6.31525C15.7087 5.93741 16.0304 5.55957 15.5478 5.18173C15.0117 4.80389 14.1003 4.64196 13.6178 4.21014C13.1352 3.77832 12.9744 3.56241 12.8672 3.13059C12.7063 2.6448 12.1702 2.42889 11.7949 1.99707L12.0094 2.32093Z" fill="#642917"/>
<path d="M8.25638 3.29238C8.95335 3.29238 10.2401 4.47988 10.7762 4.80374C11.6876 5.39749 11.6876 6.15317 12.1701 6.8009C12.6526 7.44863 14.1002 8.04238 14.9044 8.63613C15.7622 9.28386 16.3519 9.71567 16.3519 10.4714C16.4592 10.0935 14.6899 9.12192 14.1002 8.79806C13.2424 8.31226 11.5268 7.82647 11.3659 7.17874C10.5617 7.07079 10.7226 6.42306 10.6154 6.15317C10.4009 5.6134 9.972 5.45147 9.27503 5.07363C8.63167 4.80374 6.32631 3.2384 8.25638 3.29238Z" fill="#803018"/>
<path d="M24.6622 2.80646C26.9139 3.88601 27.2356 5.39737 29.4873 6.47692C30.1307 6.80078 30.2379 6.96271 30.6668 7.34055C31.0421 7.71839 31.8999 7.9343 32.3288 8.31214C32.6505 8.58203 32.6505 8.95987 33.0794 9.28374C33.4011 9.55362 33.9372 9.71555 33.9908 9.98544C34.2589 9.98544 34.8486 9.93146 35.1167 9.87749C34.6342 9.28374 33.0794 8.79794 32.4897 8.20419C31.8463 7.55646 31.6855 6.80078 30.8277 6.15305C30.6668 6.0451 30.1307 5.99112 29.9162 5.82919C29.7018 5.66726 29.8626 5.39737 29.7554 5.23544C29.4873 4.8576 28.844 4.53374 28.3615 4.20987C27.45 3.56214 26.485 2.91442 24.7158 2.64453C24.3941 2.75249 24.3405 2.69851 24.6622 2.80646Z" fill="#7A2E17"/>
<path d="M32.9186 4.85803C32.9722 4.80405 32.8114 4.6961 33.0258 4.6961C33.5084 5.28985 33.9373 5.93758 34.4734 6.47735C35.0631 7.01712 35.6529 7.17905 36.4035 7.55689C37.0468 7.88076 37.3149 8.42053 37.7974 8.90632C38.0655 9.12223 38.1727 9.23019 38.4407 9.33814C38.6552 9.4461 38.9769 9.28417 39.1913 9.55405C39.1913 9.55405 39.2986 9.39212 39.2986 9.4461C38.816 8.90632 38.1191 8.63644 37.6366 8.09667C37.154 7.55689 36.5643 7.12508 35.9209 6.63928C35.224 6.04553 34.0445 3.72451 32.7042 3.99439C32.5433 4.53417 32.865 4.75008 33.1867 5.12792L32.9186 4.85803Z" fill="#803018"/>
<path d="M41.9255 8.58261C41.7646 8.20477 40.8532 7.71897 40.5315 7.23318C40.3171 6.85534 40.2099 6.6934 39.8882 6.36954C39.5665 5.9917 39.2448 5.88374 39.084 5.39795C40.4779 6.20761 41.7646 7.1792 41.9255 8.58261Z" fill="#732F1B"/>
<path d="M4.87886 5.12755C5.57583 5.61334 6.38002 6.423 6.80893 7.07073C7.23783 7.77243 7.55951 8.58209 7.98841 9.22982C7.77396 8.85198 7.18422 8.74402 6.80893 8.47414C6.43364 8.15027 6.21918 7.71846 6.00473 7.34062C5.52221 6.47698 4.71802 5.93721 4.71802 5.01959C4.87886 4.96562 4.82524 5.07357 4.87886 5.12755Z" fill="#803018"/>
</g>

</svg>
