<svg width="38" height="33" viewBox="0 0 38 33" fill="none" xmlns="http://www.w3.org/2000/svg">
<defs>
<clipPath id="clip0_678_4152">
<rect width="38" height="33" fill="white"/>
</clipPath>
</defs>
<g clip-path="url(#clip0_678_4152)">
<path d="M15.2786 28.7482C18.125 29.3933 21.062 29.4031 23.9588 29.0219C28.2738 28.4549 30.4061 23.5577 31.5628 19.9214C32.0155 18.5139 34.4294 4.25231 32.9609 3.54852C31.7539 2.9718 28.7264 4.08614 27.3987 4.19366C25.2764 4.36961 23.134 4.38916 21.0017 4.34029C15.9927 4.24254 11.034 3.5583 6.08533 4.16434C5.66289 8.70966 6.97046 17.9762 8.80105 22.1599C10.0885 24.672 11.6677 27.5947 14.6248 28.5624C14.836 28.6309 15.0573 28.6895 15.2786 28.7482Z" fill="#F5D4A2"/>
<path d="M24.5422 27.4283C21.6454 27.8096 18.7084 27.7998 15.8619 27.1546C15.6306 27.1058 15.4093 27.0471 15.1981 26.9689C12.241 26.0012 10.6719 23.0785 9.37437 20.5664C7.74494 16.8128 6.52789 8.96358 6.5983 4.10547C6.42731 4.12502 6.25632 4.14457 6.08533 4.16412C5.66289 8.70944 6.97046 17.976 8.80106 22.1597C10.0885 24.6718 11.6677 27.5945 14.6248 28.5622C14.836 28.6306 15.0573 28.6893 15.2886 28.7479C18.1351 29.3931 21.0721 29.4029 23.9689 29.0216C28.0525 28.484 30.1849 24.0658 31.3818 20.5077C30.0943 23.6748 28.0324 26.9689 24.5422 27.4283Z" fill="#CC9C62"/>
<path d="M25.0652 27.7611C22.0075 28.1521 18.9196 28.1521 15.9223 27.4776C15.6809 27.4288 15.4495 27.3603 15.2282 27.2919C9.43471 25.4249 8.03661 18.2599 7.11126 13.2454C6.55805 10.2543 6.22613 7.2143 6.13561 4.17432C6.02497 5.4255 5.98473 6.67669 6.03502 7.92787C4.70734 7.40003 3.11814 7.85945 2.08214 8.81738C-1.36783 12.0138 -0.0904383 17.1847 2.96726 20.1562C3.73169 20.8991 4.61681 21.5345 5.59246 21.9841C6.09537 22.209 6.60834 22.3947 7.15149 22.5218C7.54376 22.6097 8.48923 22.512 8.79098 22.6879C9.6761 23.206 10.4405 25.2099 11.1446 26.0505C12.07 27.1551 13.2267 28.1032 14.6348 28.5626C14.846 28.6311 15.0673 28.6897 15.2987 28.7484C18.1451 29.3935 21.0821 29.4033 23.9789 29.0221C25.8598 28.7777 27.3283 27.7025 28.4749 26.2753C27.4993 27.0475 26.3728 27.5949 25.0652 27.7611ZM7.60411 18.7096C7.60411 18.8464 7.60411 18.9735 7.59405 19.1103C7.54376 19.8923 7.59405 20.0389 6.68881 20.0487C6.14567 20.0585 5.5824 19.8239 5.12978 19.5502C3.20866 18.4163 1.84074 15.6012 2.06202 13.4409C2.25313 11.5544 3.73169 9.5114 5.90427 9.91217C6.59829 10.0392 6.57817 12.9717 6.64858 13.48C6.87992 15.1124 7.58399 17.0283 7.60411 18.7096Z" fill="#CC9C62"/>
<path d="M32.971 3.73414C32.9106 3.17697 32.5787 2.61003 31.8746 2.08219C28.4347 -0.508159 4.83811 -1.80822 6.18591 5.1124C6.9604 9.0419 18.9397 8.25991 21.6052 8.12306C24.5422 7.97644 28.2134 7.84937 30.899 6.51021C30.899 6.51021 30.899 6.51021 30.909 6.51021C32.1261 5.89439 33.0917 4.8387 32.971 3.73414Z" fill="#F5D4A2"/>
<path d="M31.8141 3.69471C31.7638 3.24506 31.4621 2.77587 30.8183 2.34577C27.6701 0.2344 6.11533 -0.840837 7.35249 4.81882C8.05657 8.03476 18.9999 7.38961 21.434 7.28209C24.1196 7.16479 27.4689 7.05727 29.9232 5.96248C29.9232 5.96248 29.9232 5.96248 29.9332 5.96248C31.0296 5.46396 31.9147 4.60377 31.8141 3.69471Z" fill="#CC9C62"/>
<path d="M8.28809 6.01186C11.1346 7.84954 19.3622 7.37057 21.4241 7.2826C24.1097 7.1653 27.4591 7.05778 29.9133 5.96299C29.9133 5.96299 29.9133 5.96299 29.9233 5.96299C30.1547 5.85547 30.386 5.73817 30.5872 5.60132C27.3887 3.89071 12.3114 2.98165 8.28809 6.01186Z" fill="#45301C"/>
<path d="M17.3706 4.05671C22.279 4.26198 26.8857 5.17105 28.8973 6.35381C29.2494 6.23651 29.5913 6.10944 29.9233 5.96281C29.9233 5.96281 29.9233 5.96281 29.9333 5.96281C30.1647 5.85529 30.396 5.73799 30.5972 5.60114C28.7163 4.6041 22.7819 3.88076 17.3706 4.05671Z" fill="#362512"/>
<path d="M30.1545 6.55908C30.0137 6.67638 28.8671 6.9012 28.6156 6.9794C27.8009 7.23355 26.9359 7.39972 26.091 7.54634C24.9846 7.73207 23.8681 7.83959 22.7617 7.91779C22.1884 7.95689 21.6151 7.98621 21.0418 8.02531C20.7702 8.04486 20.4986 8.06441 20.227 8.08396C19.9655 8.11329 19.523 8.26969 19.2916 8.15239C19.2816 8.15239 19.2715 8.15239 19.2715 8.16216C19.0703 8.78775 21.4642 8.57271 21.776 8.56293C24.5118 8.45541 27.992 8.39676 30.1545 6.55908Z" fill="#FDFFEB"/>
<path d="M16.7672 8.1917C16.043 8.10373 15.2886 8.13305 14.5644 8.08418C13.8302 8.0353 13.106 7.90823 12.3717 7.87891C12.2711 7.87891 12.2611 8.01575 12.3516 8.04508C13.0557 8.26013 13.8302 8.32855 14.5644 8.37742C15.2987 8.4263 16.0631 8.4654 16.7873 8.32855C16.8677 8.309 16.8376 8.20148 16.7672 8.1917Z" fill="#FDFFEB"/>
<path d="M23.5665 4.07613C22.9429 3.91973 22.259 3.94905 21.6253 3.90995C20.9212 3.87085 20.2172 3.84153 19.503 3.83175C18.1351 3.80243 16.7672 3.82198 15.4093 3.94905C13.0155 4.17388 10.4908 4.71149 8.41885 5.94313C8.30821 6.01155 8.40879 6.16795 8.51943 6.1093C9.95776 5.45438 11.4162 4.96564 12.935 4.63329C12.8847 4.66262 12.8545 4.72127 12.8545 4.77992C12.8545 4.87767 12.935 4.96564 13.0456 4.96564C13.1462 4.96564 13.2367 4.87767 13.2367 4.77992C13.2367 4.69194 13.1764 4.62352 13.0959 4.60397C13.116 4.60397 13.1362 4.5942 13.1462 4.5942C13.1764 4.67239 13.2669 4.73104 13.3574 4.69194C13.3977 4.67239 13.4379 4.66262 13.4681 4.63329C13.4983 4.60397 13.5184 4.56487 13.5083 4.52577C14.2124 4.38892 14.9366 4.29117 15.6708 4.22275C16.9482 4.10545 18.2256 4.0859 19.503 4.10545C20.1769 4.11523 20.8508 4.14455 21.5247 4.17388C22.1886 4.2032 22.8826 4.31072 23.5464 4.22275C23.6269 4.21298 23.6571 4.09568 23.5665 4.07613Z" fill="#87602D"/>
<path d="M25.4475 4.40852C25.1055 4.30099 24.7434 4.2619 24.3914 4.2228C24.331 4.21302 24.3109 4.32054 24.3813 4.33032C24.7334 4.39874 25.0854 4.47694 25.4475 4.47694C25.4777 4.47694 25.4777 4.41829 25.4475 4.40852Z" fill="#543B22"/>
<path d="M26.3125 5.60134C25.1156 5.24945 23.7476 5.23967 22.5205 5.18102C21.1928 5.1126 19.8652 5.1126 18.5375 5.16147C17.2903 5.21035 16.0531 5.31787 14.8159 5.48404C13.7799 5.62089 12.6232 5.75774 11.8186 6.47131C11.7783 6.51041 11.8286 6.57883 11.8789 6.54951C12.925 5.97279 14.0414 5.80661 15.2283 5.66977C16.4554 5.53292 17.6825 5.43517 18.9197 5.39607C20.1166 5.35697 21.3236 5.36674 22.5205 5.42539C23.7678 5.48404 25.0451 5.73819 26.3024 5.71864C26.3728 5.72842 26.3829 5.62089 26.3125 5.60134Z" fill="#87602D"/>
<path d="M22.973 6.84255C22.802 6.50043 22.0979 6.53953 21.7761 6.5102C20.4685 6.36358 19.0201 6.30493 17.7326 6.60795C17.6924 6.61772 17.7025 6.67637 17.7427 6.67637C18.5373 6.65682 19.3319 6.57862 20.1265 6.59817C20.4987 6.60795 20.8608 6.6275 21.2329 6.6666C21.4642 6.68615 21.7056 6.71547 21.937 6.7448C22.0577 6.76435 22.1784 6.7839 22.2991 6.80345C22.4801 6.80345 22.6109 6.88165 22.7014 7.04782C22.5505 7.04782 22.5505 7.28242 22.7014 7.27264C22.9227 7.25309 23.0736 7.05759 22.973 6.84255Z" fill="#87602D"/>
<path d="M27.3684 5.67931C27.2377 5.64998 27.0264 5.65976 26.9862 5.80638C26.956 5.85525 26.9359 5.9139 26.9661 5.96278C26.9963 6.01165 27.0365 6.02143 27.0868 6.02143C27.1069 6.0312 27.127 6.0312 27.1572 6.0312C27.1773 6.0312 27.1974 6.0312 27.2075 6.0312C27.2176 6.0312 27.2377 6.0312 27.2477 6.0312H27.2578C27.2578 6.0312 27.2578 6.0312 27.2678 6.0312C27.3684 6.05075 27.4791 6.00188 27.4992 5.90413C27.5294 5.80638 27.4791 5.70863 27.3684 5.67931Z" fill="#87602D"/>
<path d="M25.2763 4.40881C25.2763 4.39903 25.2763 4.39903 25.2763 4.39903C25.2763 4.34038 25.2461 4.27196 25.1857 4.24263C25.0952 4.20353 24.9645 4.20353 24.9242 4.31106C24.894 4.39903 24.9142 4.48701 24.9846 4.54566C24.9846 4.54566 24.9846 4.54565 24.9846 4.55543C24.9846 4.55543 24.9946 4.5652 24.9946 4.57498C24.9946 4.58475 25.0047 4.59453 25.0047 4.59453C25.0047 4.59453 25.0147 4.61408 25.0147 4.62385C25.0147 4.6434 25.0147 4.65318 25.0248 4.67273C25.0349 4.70205 25.055 4.7216 25.0952 4.7216C25.1254 4.7216 25.1656 4.71183 25.1958 4.6825C25.1958 4.6825 25.226 4.65318 25.2059 4.67273C25.236 4.6434 25.2561 4.63363 25.2662 4.59453C25.2763 4.5652 25.2863 4.52611 25.2863 4.48701C25.2863 4.44791 25.2763 4.42836 25.2763 4.40881Z" fill="#543B22"/>
<path d="M25.2966 4.91702C25.2865 4.83882 25.2161 4.7704 25.1357 4.76062C25.0652 4.75085 24.9848 4.78017 24.9445 4.8486C24.9043 4.91702 24.9144 5.01477 24.9747 5.07342C24.9747 5.07342 24.9747 5.07342 24.9848 5.08319C25.0451 5.14184 25.1155 5.14184 25.196 5.11252H25.2061C25.2765 5.06364 25.3066 4.98544 25.2966 4.91702Z" fill="#422D16"/>
<path d="M26.926 4.84847C26.8556 4.84847 26.7953 4.88757 26.7651 4.93644C26.7249 5.00487 26.7349 5.10261 26.7953 5.16126C26.8154 5.18081 26.8355 5.19059 26.8556 5.20036C26.8556 5.20036 26.8556 5.20036 26.8657 5.21014C26.916 5.24924 26.9562 5.24924 27.0065 5.21014C27.0065 5.21014 27.0065 5.21014 27.0166 5.20036C27.0367 5.19059 27.0568 5.17104 27.0769 5.16126C27.1775 5.05374 27.087 4.83869 26.926 4.84847Z" fill="#543B22"/>
<path d="M28.7868 5.54256C28.7767 5.42527 28.6057 5.42527 28.5956 5.54256C28.5956 5.56211 28.5956 5.57189 28.5856 5.59144C28.5755 5.64031 28.6359 5.68919 28.6862 5.68919C28.7365 5.68919 28.7968 5.64031 28.7868 5.59144C28.7868 5.57189 28.7868 5.55234 28.7868 5.54256Z" fill="#543B22"/>
<path d="M14.5744 4.4278C14.4638 4.37892 14.333 4.45712 14.333 4.58419V4.59397V4.58419C14.333 4.61352 14.3431 4.63307 14.3531 4.66239C14.4135 4.76992 14.5643 4.76992 14.6348 4.68194C14.7152 4.59397 14.675 4.4669 14.5744 4.4278Z" fill="#87602D"/>
<path d="M15.4596 6.30474C15.4093 6.24609 15.3389 6.24609 15.2685 6.24609C15.1679 6.24609 15.0774 6.33407 15.0774 6.43182C15.0774 6.52957 15.1579 6.61754 15.2685 6.61754C15.3389 6.61754 15.3993 6.60776 15.4596 6.55889C15.52 6.48069 15.52 6.37317 15.4596 6.30474Z" fill="#87602D"/>
<path d="M16.4352 5.8848C16.395 5.86525 16.3447 5.8457 16.2944 5.8457C16.2844 5.8457 16.2743 5.8457 16.2643 5.8457C16.2341 5.8457 16.2341 5.8457 16.2643 5.8457C16.2441 5.8457 16.2341 5.8457 16.214 5.85548C16.1938 5.86525 16.1737 5.86525 16.1637 5.87503C16.1033 5.90435 16.0731 5.98255 16.0832 6.0412C16.0933 6.10962 16.1436 6.1585 16.2039 6.17805C16.224 6.18782 16.224 6.18782 16.1938 6.17805C16.214 6.18782 16.224 6.1976 16.2441 6.1976C16.2643 6.1976 16.2743 6.20737 16.2944 6.20737C16.385 6.2367 16.4855 6.17805 16.5157 6.09985C16.5459 6.03143 16.5157 5.9239 16.4352 5.8848Z" fill="#87602D"/>
<path d="M16.8376 6.52006C16.8275 6.51028 16.8275 6.51028 16.8175 6.50051C16.7873 6.47118 16.737 6.47118 16.7169 6.50051C16.7068 6.51028 16.7068 6.51028 16.6968 6.52006C16.6565 6.55916 16.6465 6.58848 16.6465 6.60803C16.6565 6.64713 16.7068 6.66668 16.7672 6.66668C16.8275 6.66668 16.8778 6.64713 16.8879 6.60803C16.8879 6.58848 16.8778 6.55916 16.8376 6.52006Z" fill="#87602D"/>
<path d="M17.4814 6.03125C17.3708 6.03125 17.3708 6.19742 17.4814 6.19742C17.5921 6.18765 17.5921 6.03125 17.4814 6.03125Z" fill="#87602D"/>
<path d="M29.5814 1.74974C28.3946 1.35874 27.0971 1.16324 25.87 0.997069C24.6931 0.830896 23.4258 0.635399 22.2389 0.762472C22.1886 0.772247 22.1685 0.840671 22.2289 0.850446C23.4359 1.07527 24.6831 1.08504 25.8901 1.27077C27.1172 1.45649 28.304 1.76928 29.5211 2.00388C29.682 2.02343 29.7424 1.79861 29.5814 1.74974Z" fill="#FDFFEB"/>
<path d="M5.31074 8.18199C3.75171 7.91806 2.22286 8.85645 1.35785 10.0588C0.442553 11.3295 -0.0402425 13.3822 0.764416 14.8094C0.834824 14.9267 0.995755 14.8582 1.00581 14.7409C1.08628 14.0665 1.04605 13.3724 1.11645 12.6882C1.19692 11.9453 1.42826 11.2122 1.84065 10.5671C2.59501 9.37452 3.86235 8.73915 5.26045 8.57298C5.47167 8.56321 5.57225 8.23086 5.31074 8.18199Z" fill="#F5D4A2"/>
<path d="M10.5511 7.55591C9.62576 7.37019 8.75069 7.22356 7.96615 6.68595C7.18161 6.1581 6.72899 5.43476 6.38701 4.58435C6.36689 4.53547 6.27637 4.53547 6.27637 4.59412C6.35683 6.51 8.66017 7.81983 10.3701 8.1815C10.7925 8.2597 10.9635 7.63411 10.5511 7.55591Z" fill="#CC9C62"/>
<path d="M32.2676 24.525C30.8896 24.613 29.3809 25.2777 28.9987 26.568C28.6164 27.8778 29.6122 29.2756 30.9097 29.8035C32.1972 30.3313 33.6757 30.1652 35.0336 29.8719C36.321 29.5884 38.5842 28.3763 37.8499 26.7244C37.1358 25.1311 33.8568 24.4273 32.2676 24.525Z" fill="#6E4115"/>
<path d="M33.1118 28.4155C34.3691 28.5914 35.8175 28.7674 36.9641 28.1027C38.151 27.4087 37.3061 25.8349 36.3908 25.2484C35.5761 24.7206 34.5501 24.6033 33.5745 24.6326C32.6391 24.6619 29.8127 24.7694 29.5612 25.9913C29.2494 27.4282 32.106 28.2786 33.1118 28.4155Z" fill="#915821"/>
<path d="M37.6782 27.2421C37.5373 27.1443 37.3764 27.0857 37.2155 27.027C37.1652 27.0075 37.125 26.9879 37.0747 26.9684C36.9338 26.8902 36.783 26.8413 36.622 26.8315C36.5718 26.8218 36.5315 26.812 36.4812 26.7924C36.3404 26.7338 36.2499 26.6751 36.089 26.6458C35.9783 26.6263 35.8576 26.636 35.7369 26.636C35.6062 26.6165 35.4754 26.5872 35.3346 26.5676C35.3145 26.5578 35.3044 26.5578 35.2843 26.5383C35.1334 26.4308 35.1737 26.3135 34.9323 26.2841C34.8619 26.2744 34.7311 26.2939 34.6607 26.3037C34.3992 26.3428 34.2282 26.3526 33.9667 26.2841C33.5945 26.1766 33.2525 26.0495 32.8603 26.0007C32.468 25.9518 32.0958 26.1668 31.7337 26.1082C31.4018 26.0593 31.2811 25.8247 30.9391 25.8247C30.6072 25.8149 30.2552 25.8638 29.9132 25.9127C29.883 25.854 29.8327 25.8149 29.7422 25.8149L29.5511 25.8345C29.4706 25.8443 29.4304 25.8931 29.4204 25.9518C29.2393 26.0789 29.1186 26.2841 29.4002 26.4405C29.5712 26.5383 29.8529 26.4405 30.0339 26.4308C30.4262 26.4112 30.8184 26.421 31.2107 26.4503C31.3918 26.4992 31.5628 26.5676 31.7539 26.6458C32.4278 26.9293 33.1117 26.6849 33.7756 26.939C33.9968 27.027 34.1276 27.0466 34.369 27.027C34.8216 26.9879 35.063 27.0661 35.4855 27.1932C35.7269 27.2714 35.9582 27.3007 36.2097 27.2714C36.8232 27.203 37.0143 27.3985 37.3664 27.8188C37.4669 27.9361 37.6882 27.8774 37.6983 27.7113C37.7083 27.6037 37.6882 27.506 37.658 27.4278C37.7486 27.4082 37.7687 27.3007 37.6782 27.2421Z" fill="#6E4115"/>
<path d="M36.2198 28.4057C36.1292 28.3959 36.0286 28.4253 35.9582 28.4644C35.9281 28.4839 35.8878 28.5035 35.8576 28.523C35.8174 28.5523 35.8074 28.5816 35.7772 28.6207C35.7369 28.6598 35.7772 28.7381 35.8375 28.7087C35.8979 28.6794 35.9783 28.6696 36.0387 28.6501C36.1091 28.6305 36.1896 28.6208 36.26 28.5914C36.3505 28.5621 36.3103 28.4057 36.2198 28.4057Z" fill="#593511"/>
<path d="M37.1249 26.9006C36.7628 26.7246 36.3806 26.7442 35.9884 26.7148C35.4855 26.6757 35.0731 26.4314 34.6003 26.3141C33.8057 26.1088 32.981 26.1772 32.1662 26.0697C31.4018 25.9719 30.6776 25.6005 29.9132 25.8742C29.8327 25.9035 29.873 26.0306 29.9635 26.0208C30.6776 25.9328 31.3616 26.2065 32.0556 26.3043C32.7094 26.3923 33.3732 26.3825 34.0371 26.49C34.711 26.6073 35.2843 26.9787 35.9682 27.0276C36.3706 27.0569 36.7327 27.0374 37.1048 27.2524C37.1853 27.3013 37.2658 27.3795 37.3563 27.4088C37.4367 27.4284 37.477 27.4479 37.4971 27.4577C37.4971 27.5066 37.5273 27.5555 37.5776 27.575C37.5977 27.5848 37.6077 27.5848 37.6279 27.5946C37.6681 27.6043 37.7284 27.6043 37.7687 27.5652C38.0805 27.2427 37.3362 26.9983 37.1249 26.9006Z" fill="#593511"/>
<path d="M36.4812 28.7969C35.9481 28.9826 35.4854 29.2661 34.9121 29.3932C34.4092 29.5007 33.9063 29.5202 33.3933 29.5496C33.3229 29.5496 33.3128 29.6669 33.3832 29.6766C34.379 29.9112 35.8375 29.6962 36.622 29.0119C36.7427 28.9142 36.622 28.748 36.4812 28.7969Z" fill="#915821"/>
<path d="M36.924 28.4739L36.9139 28.4837C36.7932 28.5717 36.8938 28.7965 37.0447 28.7574C37.0547 28.7574 37.0547 28.7574 37.0648 28.7574C37.1654 28.7378 37.2358 28.6303 37.1855 28.5326C37.1352 28.4348 37.0145 28.4153 36.924 28.4739Z" fill="#915821"/>
<path d="M34.7914 29.9405C34.2684 29.8428 33.6951 29.9698 33.1519 29.9601C32.5585 29.9405 31.9651 29.8623 31.4018 29.6766C30.1244 29.2465 29.3801 28.3668 28.9878 27.1449C28.9778 27.1058 28.8973 27.096 28.9074 27.1449C28.9476 28.2886 29.9735 29.3052 30.9693 29.7841C31.5527 30.0578 32.1964 30.2142 32.8502 30.2631C33.4637 30.312 34.2583 30.3706 34.8115 30.0969C34.892 30.048 34.8618 29.9503 34.7914 29.9405Z" fill="#593511"/>
<path d="M28.7566 26.7441C27.439 26.2358 25.7392 26.2163 24.8038 27.2524C23.8583 28.2983 24.16 30.0285 25.1156 31.0646C26.0812 32.1007 27.5195 32.5797 28.9176 32.8827C30.2352 33.1662 32.8906 33 32.9509 31.1526C33.0012 29.3833 30.2754 27.3306 28.7566 26.7441Z" fill="#6E4115"/>
<path d="M27.7812 30.7223C28.8674 31.4163 30.1348 32.1983 31.4926 32.0614C32.9108 31.9246 32.8304 30.1065 32.247 29.1681C31.724 28.3372 30.8288 27.7898 29.9135 27.3988C29.0384 27.0274 26.3629 25.9228 25.5683 26.9492C24.643 28.1515 26.9161 30.1651 27.7812 30.7223Z" fill="#915821"/>
<path d="M32.5585 31.5728C32.4781 31.4164 32.3574 31.2991 32.2166 31.1818C32.1864 31.1427 32.1462 31.1036 32.1059 31.0645C32.0154 30.9375 31.8947 30.8299 31.7438 30.742C31.7036 30.7126 31.6634 30.6833 31.6332 30.654C31.5326 30.5367 31.4723 30.4487 31.3415 30.351C31.2409 30.2825 31.1303 30.2434 31.0196 30.1946C30.909 30.1164 30.7883 30.0382 30.6777 29.96C30.6676 29.9502 30.6575 29.9306 30.6475 29.9209C30.557 29.7547 30.6475 29.6667 30.4363 29.5397C30.3759 29.5006 30.2451 29.4615 30.1747 29.4419C29.9132 29.3637 29.7523 29.3051 29.5411 29.1291C29.2393 28.8652 28.9879 28.6013 28.6358 28.396C28.2939 28.1907 27.8513 28.22 27.5395 28.0148C27.2478 27.8291 27.2478 27.5651 26.936 27.4087C26.6242 27.2621 26.2822 27.1546 25.9402 27.0568C25.9402 26.9884 25.91 26.9298 25.8296 26.9004L25.6485 26.832C25.5681 26.8027 25.5178 26.832 25.4775 26.8809C25.2462 26.92 25.0551 27.0666 25.2361 27.3305C25.3468 27.4967 25.6485 27.526 25.8296 27.5945C26.2017 27.7411 26.5638 27.917 26.9159 28.1125C27.0567 28.2396 27.1975 28.3667 27.3283 28.5231C27.8211 29.0705 28.5755 29.1389 29.0784 29.6569C29.2494 29.8329 29.35 29.9111 29.5914 29.9893C30.0339 30.1457 30.225 30.3216 30.557 30.6149C30.7481 30.7908 30.9392 30.9179 31.1906 30.9961C31.7941 31.1916 31.8746 31.4555 32.0255 31.9931C32.0657 32.1495 32.297 32.1789 32.3876 32.042C32.4378 31.9443 32.468 31.8465 32.4781 31.7585C32.5384 31.7488 32.6088 31.6706 32.5585 31.5728Z" fill="#6E4115"/>
<path d="M30.6778 32.0323C30.5974 31.9834 30.4968 31.9736 30.4063 31.9736C30.366 31.9736 30.3258 31.9834 30.2856 31.9932C30.2353 32.003 30.2152 32.0323 30.1649 32.0421C30.1045 32.0616 30.1146 32.1496 30.185 32.1496C30.2453 32.1496 30.3258 32.1691 30.3962 32.1789C30.4767 32.1887 30.5471 32.2082 30.6276 32.218C30.7281 32.2376 30.7583 32.0812 30.6778 32.0323Z" fill="#593511"/>
<path d="M32.1965 31.0155C31.945 30.7027 31.5729 30.5561 31.2309 30.3606C30.7783 30.1065 30.5168 29.7155 30.1245 29.3929C29.4808 28.8651 28.6761 28.5718 27.972 28.1319C27.3082 27.7116 26.8053 27.0567 25.9704 26.9981C25.8799 26.9883 25.8698 27.1251 25.9503 27.1545C26.6544 27.3695 27.1674 27.9267 27.7709 28.3079C28.3442 28.6696 28.9678 28.9433 29.521 29.3245C30.0943 29.7155 30.4564 30.3117 31.07 30.6441C31.432 30.8494 31.774 30.9862 32.0255 31.3381C32.0758 31.4163 32.116 31.5238 32.1864 31.5923C32.2468 31.6509 32.2769 31.6802 32.2971 31.6998C32.2769 31.7487 32.2769 31.8073 32.3172 31.8366C32.3272 31.8464 32.3373 31.8562 32.3574 31.8757C32.3876 31.9051 32.4479 31.9246 32.4982 31.9148C32.9307 31.7389 32.3473 31.2013 32.1965 31.0155Z" fill="#593511"/>
<path d="M30.7381 32.5114C30.1547 32.4626 29.6015 32.5212 29.0181 32.4039C28.5052 32.2964 28.0224 32.0911 27.5396 31.9054C27.4792 31.8761 27.4189 31.9836 27.4692 32.0227C28.2939 32.6581 29.7423 33.0882 30.7783 32.7851C30.9292 32.7265 30.889 32.5212 30.7381 32.5114Z" fill="#915821"/>
<path d="M31.3015 32.4037C31.2914 32.4037 31.2914 32.4037 31.2813 32.4037C31.1204 32.433 31.1204 32.6774 31.2813 32.7165C31.2914 32.7165 31.2914 32.7165 31.3015 32.7165C31.4121 32.7361 31.5127 32.6676 31.5127 32.5601C31.5127 32.4526 31.402 32.3842 31.3015 32.4037Z" fill="#915821"/>
<path d="M28.6561 32.8533C28.2135 32.5405 27.6201 32.4135 27.1272 32.1691C26.5841 31.9052 26.0711 31.5728 25.6386 31.1623C24.6529 30.2141 24.3511 29.0802 24.5422 27.7802C24.5523 27.7411 24.4819 27.702 24.4618 27.7508C23.979 28.8261 24.4819 30.2141 25.196 31.0743C25.6185 31.5826 26.1415 31.9931 26.7249 32.3255C27.268 32.6285 27.9822 33.0195 28.6259 33.0097C28.7064 32.9902 28.7164 32.8924 28.6561 32.8533Z" fill="#593511"/>
<path d="M26.3427 29.3443C26.1315 28.9435 25.7392 28.7382 25.5984 28.2788C25.4576 27.7999 25.5883 27.3795 25.7593 26.9299C25.7794 26.8712 25.6889 26.8126 25.6386 26.8615C25.0351 27.5946 25.3369 29.0706 26.2824 29.4127C26.3326 29.4225 26.3528 29.3736 26.3427 29.3443Z" fill="#593511"/>
<path d="M25.357 28.5428C25.3469 28.5428 25.3469 28.5428 25.3368 28.5428C25.2061 28.533 25.2061 28.7481 25.3368 28.7285C25.3469 28.7285 25.3469 28.7285 25.357 28.7285C25.4877 28.7285 25.4877 28.5624 25.357 28.5428Z" fill="#593511"/>
</g>

</svg>
