<svg width="29" height="20" viewBox="0 0 29 20" fill="none" xmlns="http://www.w3.org/2000/svg">
<defs>
<linearGradient id="paint0_linear_672_4493" x1="22.6977" y1="8.39502" x2="18.439" y2="8.1627" gradientUnits="userSpaceOnUse">
<stop stop-color="#92A3FD"/>
<stop offset="1" stop-color="#9DCEFF"/>
</linearGradient>
<linearGradient id="paint1_linear_672_4493" x1="13.6856" y1="14.3425" x2="2.79186" y2="13.4805" gradientUnits="userSpaceOnUse">
<stop stop-color="#92A3FD"/>
<stop offset="1" stop-color="#9DCEFF"/>
</linearGradient>
<linearGradient id="paint2_linear_672_4493" x1="28.9689" y1="19.5091" x2="22.3511" y2="18.7171" gradientUnits="userSpaceOnUse">
<stop stop-color="#92A3FD"/>
<stop offset="1" stop-color="#9DCEFF"/>
</linearGradient>
<clipPath id="clip0_672_4493">
<rect width="29" height="19.6529" fill="white" transform="translate(0 0.173584)"/>
</clipPath>
</defs>
<g clip-path="url(#clip0_672_4493)">
<path d="M11.5592 7.73281C11.5592 7.73281 12.1497 2.966 12.0164 1.22513C11.9481 0.332206 11.513 0.130194 10.8481 0.181122C10.1832 0.232049 6.38086 2.23944 6.38086 2.23944L6.92271 3.53809L10.0849 2.5501C10.0849 2.5501 9.76271 4.4047 9.68836 4.75695C9.614 5.1092 9.45845 5.58367 9.33453 6.00892C9.27385 6.21857 9.18924 6.49018 9.18924 6.62174C9.19095 6.9324 11.5592 7.73281 11.5592 7.73281Z" fill="#FFEDE5"/>
<path d="M10.0848 2.55026C10.5258 2.46538 10.966 2.2065 11.1044 2.00024C11.0333 2.23217 10.8764 2.42871 10.6652 2.55026C10.4641 2.67899 10.2512 2.78842 10.0293 2.87704L10.0848 2.55026Z" fill="#F28F8F"/>
<path d="M17.5451 7.64787C17.4793 7.40511 17.0502 7.14963 15.7717 6.93658C14.4931 6.72354 13.3299 6.93658 13.3231 7.08682C13.3163 7.23705 13.6385 8.24117 15.1127 8.42451C16.587 8.60785 17.6801 8.18091 17.5451 7.64787Z" fill="#263238"/>
<path d="M13.6993 9.71167C13.6993 9.71167 12.866 4.34392 12.9856 3.24813C13.1096 2.11585 13.542 1.59045 14.2676 1.5166C15.2154 2.06322 15.7205 3.36951 16.3265 4.65713C16.9324 5.94474 17.5888 8.70671 17.6238 10.0266C17.6589 11.3464 16.6076 12.2869 15.4171 12.4584C14.2266 12.6298 13.6993 9.71167 13.6993 9.71167Z" fill="#FFEDE5"/>
<path d="M15.0084 5.50903C14.6239 5.20203 14.3641 4.76734 14.2769 4.28507L15.4691 3.87256L16.2733 4.53716L16.2973 4.58894C16.3075 4.61101 16.3178 4.63307 16.3289 4.65514C16.352 4.70437 16.375 4.75615 16.3981 4.80877C16.4041 4.82405 16.4109 4.83933 16.4178 4.85546C16.4357 4.8962 16.4528 4.94034 16.4707 4.98278L16.4887 5.02691C16.5126 5.08548 16.5357 5.14574 16.5596 5.20771C16.5827 5.26967 16.6058 5.33333 16.6289 5.39783C16.634 5.41226 16.6391 5.42584 16.6434 5.43942L16.7049 5.61767C16.7049 5.62616 16.7109 5.63549 16.7143 5.64398C16.7622 5.78828 16.81 5.93766 16.8562 6.09045L16.8639 6.11506C16.887 6.1906 16.9092 6.26699 16.9314 6.34423C16.9314 6.34423 15.8238 6.18636 15.0084 5.50903Z" fill="#F28F8F"/>
<path d="M14.0161 1.56243C14.4691 1.38503 15.0204 1.80009 15.3118 1.98682C15.9041 2.36368 19.5252 5.16639 20.3696 5.82335C20.5525 5.9337 20.7388 6.0398 20.9285 6.13995L19.9337 7.68475C19.852 7.46274 19.7242 7.2603 19.5585 7.0906C18.656 6.45061 16.9091 6.10176 15.7844 5.66718C14.9092 5.32766 14.7264 5.13753 14.4315 4.64099C14.2059 4.248 13.3914 1.85611 14.0161 1.56243Z" fill="#FFEDE5"/>
<path d="M13.6811 9.74133L13.323 7.08716C13.323 7.08716 13.6443 7.81882 15.2989 8.01149C16.9536 8.20417 17.5868 7.92661 17.545 7.64821C17.545 7.64821 17.9774 9.31014 17.8099 10.3898C17.6424 11.4695 15.9818 12.6196 15.9818 12.6196L13.6811 9.74133Z" fill="#37474F"/>
<path opacity="0.15" d="M14.4137 10.1045C14.2615 10.1045 14.1188 10.1139 13.9863 10.1223L15.8255 12.42H16.2529C16.7298 12.044 17.6861 11.1986 17.8109 10.3923C17.934 9.60034 17.734 8.49691 17.6186 7.96387C17.6844 8.57669 16.3041 10.0646 14.4137 10.1045Z" fill="black"/>
<path d="M22.6969 3.89389C22.0986 3.78354 21.8209 4.21218 21.6004 4.56613C21.3799 4.92007 21.0107 5.5694 20.8457 5.67889C20.6808 5.78839 20.5893 5.67889 20.3543 5.85459C20.1193 6.03029 19.9475 6.36387 20.0201 6.48524L20.191 6.78062C20.0925 6.7699 19.9928 6.78237 19.9 6.81702C19.8072 6.85168 19.7239 6.90754 19.6569 6.98009C19.4005 7.23473 19.5338 7.27716 19.6783 7.42146C19.8227 7.56575 20.162 8.21762 20.5021 8.39502C20.5021 8.39502 21.4183 8.12256 22.0824 7.09043C22.7464 6.0583 22.6969 3.89389 22.6969 3.89389Z" fill="url(#paint0_linear_672_4493)"/>
<path d="M20.6913 8.53163C20.6562 8.52544 20.6228 8.51207 20.5933 8.49237C20.5637 8.47268 20.5386 8.44708 20.5196 8.41722C20.5005 8.38736 20.4879 8.35388 20.4826 8.31893C20.4773 8.28397 20.4794 8.2483 20.4887 8.21418C20.5899 7.89591 20.742 7.59585 20.9391 7.3255C21.169 7.00126 21.5997 6.39183 21.6724 6.05825C21.745 5.72468 21.9014 4.79016 22.157 4.39887C22.4125 4.00758 22.6749 3.7818 23.0116 3.90827C23.3484 4.03474 22.2852 6.53952 21.9732 6.96391C21.6613 7.38831 20.6913 8.53163 20.6913 8.53163Z" fill="#37474F"/>
<path d="M20.8877 8.47741C21.7295 8.0318 22.0064 7.59892 22.2551 7.03447C22.5038 6.47002 23.085 5.94972 23.2354 5.44299C23.3858 4.93626 23.4012 3.63676 22.8226 3.95166C22.244 4.26656 22.1235 5.42856 21.8697 6.09995C21.6158 6.77135 20.0621 8.91624 20.8877 8.47741Z" fill="#263238"/>
<path d="M15.8281 9.84989C16.2127 9.79132 16.952 9.9492 17.6229 10.8795C18.3433 11.8785 18.4775 13.6219 18.0254 13.7654C18.0254 13.7654 16.9776 13.6431 16.258 13.2688C15.5384 12.8945 14.3291 10.366 15.8281 9.84989Z" fill="#263238"/>
<path d="M28.1181 18.1681C27.002 17.7326 26.0884 16.984 25.2978 16.1471C24.6619 15.2898 21.9373 11.6188 21.4647 11.1019C21.2938 10.9185 20.8887 10.4466 20.3272 10.3286C18.3392 9.90423 14.6583 9.96704 14.6583 9.96704L13.243 9.73022L10.4226 12.3666C10.8115 12.7782 11.2995 13.1373 12.0131 13.5065C12.7267 13.8757 13.4985 14.1439 14.5395 14.0565C16.6231 13.8817 17.8726 13.2968 18.9879 13.038C19.311 12.9633 19.646 12.8945 19.8998 13.4208C20.1537 13.947 20.1742 14.211 20.9254 14.7703C21.8886 15.4884 23.4791 16.2914 24.1731 17.147C24.2874 17.3567 24.3555 17.5881 24.3731 17.826C24.4389 18.7283 25.2012 18.5509 25.8157 18.943C26.1507 19.1569 26.3994 19.4166 26.8028 19.5049C27.1701 19.5799 27.5496 19.573 27.9139 19.4845C28.2421 19.4073 28.7121 19.1722 28.8737 18.8547C29.0856 18.432 28.4395 18.2928 28.1181 18.1681Z" fill="#FFEDE5"/>
<path d="M28.1181 18.1681C27.002 17.7326 26.0884 16.984 25.2978 16.1471C24.6619 15.2898 21.9373 11.6188 21.4647 11.1019C21.2938 10.9185 20.8887 10.4466 20.3272 10.3286C18.3392 9.90423 14.6583 9.96704 14.6583 9.96704L13.243 9.73022L10.4226 12.3666C10.8115 12.7782 11.2995 13.1373 12.0131 13.5065C12.7267 13.8757 13.4985 14.1439 14.5395 14.0565C16.6231 13.8817 17.8726 13.2968 18.9879 13.038C19.311 12.9633 19.646 12.8945 19.8998 13.4208C20.1537 13.947 20.1742 14.211 20.9254 14.7703C21.8886 15.4884 23.4791 16.2914 24.1731 17.147C24.2874 17.3567 24.3555 17.5881 24.3731 17.826C24.4389 18.7283 25.2012 18.5509 25.8157 18.943C26.1507 19.1569 26.3994 19.4166 26.8028 19.5049C27.1701 19.5799 27.5496 19.573 27.9139 19.4845C28.2421 19.4073 28.7121 19.1722 28.8737 18.8547C29.0856 18.432 28.4395 18.2928 28.1181 18.1681Z" fill="#FFEDE5"/>
<path d="M20.8612 14.3424C20.6496 14.1095 20.489 13.8355 20.3895 13.5378C20.313 13.2889 20.2146 13.0472 20.0955 12.8155C19.7485 12.2213 17.4461 12.9793 16.4265 13.2899C16.3692 13.3748 16.1299 13.6295 16.0444 13.8417C17.2794 13.5913 18.1682 13.2271 18.9861 13.037C19.3092 12.9623 19.6442 12.8936 19.8981 13.4198C20.1519 13.9461 20.1724 14.21 20.9236 14.7694C21.3151 15.0614 21.8099 15.3635 22.3065 15.6852C21.7518 15.2574 21.3339 14.8288 20.8612 14.3424Z" fill="#F28F8F"/>
<path d="M13.4615 9.73022C13.4615 9.73022 15.4845 9.82868 15.828 9.8533C15.828 9.8533 15.0665 10.057 15.993 11.9167C16.9194 13.7764 18.0262 13.7662 18.0262 13.7662C16.5733 14.228 15.8186 14.7466 13.9666 14.5301C11.759 14.2135 10.4207 12.572 10.4207 12.572L13.4615 9.73022Z" fill="#455A64"/>
<path opacity="0.15" d="M18.0211 13.7662C18.0043 13.7672 17.9874 13.7672 17.9706 13.7662C17.8057 13.7475 17.3151 13.6406 16.7656 13.0591C16.3293 13.1747 15.8868 13.2651 15.44 13.3299C13.7888 13.5701 12.5504 13.2807 10.7053 12.3037L10.4207 12.5702C11.1529 13.3904 12.0923 14.0016 13.1419 14.3408C13.206 14.3603 13.2718 14.3799 13.3384 14.3977C13.4008 14.4138 13.4641 14.4299 13.5273 14.4444L13.5444 14.4486C13.6025 14.4622 13.6623 14.4741 13.7222 14.486L13.7538 14.4919C13.8239 14.5055 13.894 14.5174 13.9657 14.5275C14.082 14.5411 14.1931 14.5513 14.3008 14.5598C14.4085 14.5683 14.5119 14.5725 14.6127 14.5759H14.7606C14.8093 14.5759 14.8571 14.5759 14.9041 14.5759C15.0452 14.5759 15.1793 14.5649 15.3084 14.5522C15.3939 14.5437 15.4776 14.5335 15.5597 14.5216C15.7573 14.4919 15.953 14.4511 16.146 14.3994C16.2212 14.379 16.2955 14.3578 16.369 14.3349C16.5545 14.2788 16.7374 14.216 16.9254 14.1481L17.1536 14.0633C17.4237 13.9648 17.7074 13.8612 18.0253 13.7602L18.0211 13.7662Z" fill="black"/>
<path d="M6.69714 7.19828C5.87496 7.48177 5.09808 7.97747 5.75702 9.42805C6.69714 11.5229 10.9584 13.8486 13.1463 14.3425C12.0353 12.673 12.96 10.9032 13.6856 9.74125L13.4899 8.32208C13.4899 8.32208 12.8335 8.00887 11.7464 7.17451C10.6593 6.34015 10.208 6.11352 8.59019 6.60243C7.47829 6.93855 6.69714 7.19828 6.69714 7.19828Z" fill="url(#paint1_linear_672_4493)"/>
<path opacity="0.05" d="M10.0274 11.9327C7.78995 10.6595 7.08657 9.52552 6.20885 8.43652L5.63452 9.13253C5.64991 9.17752 5.667 9.22335 5.6858 9.27088C5.68548 9.27342 5.68548 9.27599 5.6858 9.27852C5.7046 9.3269 5.72597 9.37698 5.74904 9.42791C6.16611 10.3446 7.21306 11.3054 8.44376 12.1415C8.61469 12.2603 8.79929 12.3766 8.98048 12.4895C9.07193 12.5464 9.16337 12.6024 9.25568 12.6593C9.88157 13.0314 10.5294 13.3659 11.1957 13.6608C11.8209 13.9474 12.4719 14.1748 13.1401 14.3399C12.8967 13.9807 12.7341 13.5736 12.6632 13.1465C11.8854 12.9139 11.0513 12.5158 10.0274 11.9327Z" fill="black"/>
<path d="M6.07998 7.48258C6.07998 7.48258 3.32032 6.01756 2.88359 5.8198L5.29883 4.41165L4.78604 3.09009C4.78604 3.09009 1.19651 4.35733 0.51279 4.72146C0.154692 4.91414 0 5.07286 0 5.34617C0 5.80197 0.436726 6.39273 1.04182 6.90455C2.32807 7.99355 4.07326 9.00785 5.77316 9.93473C6.16288 10.2216 6.56799 10.5824 6.56799 10.5824C7.01497 10.8047 7.66536 8.75237 6.07998 7.48258Z" fill="#FFEDE5"/>
<path d="M8.66359 2.39069C8.49121 1.99325 8.16692 1.6801 7.76206 1.52013C7.35719 1.36015 6.90492 1.36646 6.50474 1.53766C6.10456 1.70885 5.78925 2.03092 5.62817 2.43301C5.46709 2.8351 5.47344 3.28426 5.64582 3.6817C5.65693 3.70886 5.6706 3.73348 5.68342 3.75894L5.26635 4.66036L4.65015 3.53231C4.6504 3.44346 4.6174 3.35768 4.55754 3.29165C4.49768 3.22561 4.41524 3.18403 4.32624 3.17497C4.2811 3.17115 4.23566 3.17648 4.19266 3.19064C4.14966 3.2048 4.11001 3.22749 4.07612 3.25734C4.04222 3.28719 4.0148 3.32357 3.9955 3.36428C3.9762 3.40498 3.96544 3.44916 3.96387 3.49412L4.43478 3.53486C4.33144 3.60293 4.25223 3.7015 4.2083 3.81666C4.09634 4.10694 4.48606 4.69855 5.00825 5.21801C5.00825 5.21801 5.74752 6.25438 5.927 6.39953C6.04264 6.48694 6.18761 6.52703 6.3321 6.51157L6.37655 4.47447C6.67672 4.63537 7.01991 4.69941 7.35842 4.65771C7.69693 4.616 8.01396 4.47062 8.26546 4.24176C8.51695 4.0129 8.69042 3.71192 8.76177 3.38064C8.83312 3.04937 8.79881 2.70425 8.66359 2.39324V2.39069Z" fill="#263238"/>
<path d="M5.6296 5.01187C5.56122 5.10608 5.35269 4.9864 5.18774 4.9168C5.02279 4.8472 4.58094 4.84466 4.56385 5.31234C4.54675 5.78002 5.12535 6.16113 5.45781 6.12633C6.03043 6.06776 5.9706 5.71382 5.9706 5.71382L6.81158 7.56333C7.78502 8.09298 9.59688 7.25946 8.50977 6.73576L8.26961 6.18659C8.47741 6.13114 8.67813 6.05226 8.86786 5.95148C9.20972 5.73589 9.32168 5.34544 9.261 4.89813C9.16443 4.1809 9.00461 3.63428 8.30892 2.43664C7.53974 1.1278 5.9159 1.80514 5.28175 2.72438C4.6476 3.64362 5.6296 5.01187 5.6296 5.01187Z" fill="#FFEDE5"/>
<path d="M5.69701 5.16879C5.65086 5.19001 5.34746 4.97441 5.18422 4.91924C4.96286 4.8437 4.60305 3.45253 4.60305 3.45253C4.60305 3.45253 4.30906 3.19365 4.47058 2.72682C4.60305 2.34401 5.09191 2.08768 5.43036 1.91792C6.04058 1.61151 6.72344 1.26265 7.02257 0.620969C7.0465 0.570041 7.08069 0.512323 7.13709 0.511475C7.15461 0.513027 7.17165 0.518029 7.1872 0.52619C7.20276 0.534351 7.21652 0.545507 7.22769 0.559007C7.36858 0.716101 7.44804 0.918195 7.4516 1.12855C7.4516 1.14807 7.45759 1.17268 7.47724 1.17862C7.4969 1.18457 7.51143 1.16844 7.52339 1.15401C7.58545 1.07853 7.63271 0.992155 7.6627 0.899372C7.70373 0.772902 7.9191 1.09459 7.93448 1.13873C7.98487 1.27837 8.0066 1.42661 7.99838 1.57472C7.99016 1.72283 7.95216 1.86781 7.88662 2.0011C7.7533 2.26677 7.47895 2.43144 7.22769 2.57658C6.66789 2.90082 5.71068 3.20978 5.57736 3.24628C5.39617 3.29636 5.43121 3.47715 5.53377 3.9669C5.62778 4.39978 5.8517 5.09664 5.69701 5.16879Z" fill="#263238"/>
<path d="M8.26964 6.18651C8.26964 6.18651 7.2697 6.39616 6.91417 6.36984C6.70559 6.3548 6.50652 6.27726 6.34326 6.14746C6.4593 6.2971 6.60467 6.42184 6.77059 6.51414C7.09877 6.69238 8.36365 6.40804 8.36365 6.40804L8.26964 6.18651Z" fill="#F28F8F"/>
<path d="M6.70739 3.60209L6.40998 3.92463C6.36713 3.88325 6.34205 3.82702 6.33998 3.7677C6.33791 3.70838 6.35901 3.65057 6.39887 3.60634C6.41865 3.5856 6.44241 3.56901 6.46875 3.55755C6.49509 3.54608 6.52347 3.53997 6.55223 3.53957C6.58099 3.53918 6.60953 3.5445 6.63618 3.55524C6.66283 3.56598 6.68704 3.58191 6.70739 3.60209Z" fill="#263238"/>
<path d="M7.66528 5.24962L8.10543 5.22925C8.10812 5.258 8.10494 5.287 8.09608 5.31451C8.08722 5.34201 8.07287 5.36746 8.05388 5.38933C8.03489 5.4112 8.01165 5.42905 7.98556 5.44179C7.95947 5.45454 7.93106 5.46193 7.90202 5.46352C7.84237 5.46518 7.78439 5.44383 7.74025 5.40395C7.69611 5.36407 7.66924 5.30875 7.66528 5.24962Z" fill="#F28F8F"/>
<path d="M8.51741 3.09011L8.09009 2.98147C8.0959 2.9532 8.10743 2.92641 8.12398 2.9027C8.14053 2.87899 8.16175 2.85887 8.18636 2.84355C8.21098 2.82823 8.23847 2.81804 8.26717 2.81359C8.29586 2.80914 8.32517 2.81052 8.35332 2.81765C8.41045 2.83379 8.45924 2.87096 8.48973 2.92159C8.52022 2.97222 8.53012 3.03249 8.51741 3.09011Z" fill="#263238"/>
<path d="M7.60547 3.75464L7.8969 4.79611L8.40969 4.48715L7.60547 3.75464Z" fill="#F28F8F"/>
<path d="M6.79444 4.2215C6.7946 4.25906 6.80598 4.29574 6.82711 4.32689C6.84825 4.35805 6.87821 4.38229 6.91321 4.39655C6.9482 4.41081 6.98667 4.41445 7.02375 4.40702C7.06083 4.39959 7.09486 4.38141 7.12155 4.35479C7.14824 4.32817 7.16638 4.29429 7.1737 4.25743C7.18102 4.22057 7.17718 4.18238 7.16266 4.14769C7.14815 4.113 7.12361 4.08336 7.09215 4.0625C7.06068 4.04165 7.0237 4.03052 6.98588 4.03052C6.96066 4.03052 6.9357 4.03546 6.91242 4.04507C6.88914 4.05468 6.86799 4.06876 6.8502 4.08651C6.83242 4.10425 6.81833 4.12531 6.80876 4.14848C6.79919 4.17164 6.79432 4.19646 6.79444 4.2215Z" fill="#263238"/>
<path d="M8.17993 3.68261C8.17976 3.71911 8.19052 3.75484 8.21083 3.78526C8.23115 3.81567 8.2601 3.83941 8.29403 3.85346C8.32795 3.8675 8.36531 3.87122 8.40136 3.86414C8.43742 3.85706 8.47054 3.8395 8.49653 3.81369C8.52252 3.78788 8.5402 3.75499 8.54733 3.71918C8.55446 3.68337 8.55071 3.64627 8.53657 3.61258C8.52243 3.57889 8.49853 3.55013 8.4679 3.52996C8.43727 3.50978 8.40129 3.4991 8.36454 3.49927C8.31565 3.49949 8.26882 3.51888 8.23425 3.55321C8.19968 3.58755 8.18016 3.63405 8.17993 3.68261Z" fill="#263238"/>
<path d="M24.2618 18.0151C24.1892 18.0644 24.302 18.375 24.3678 18.4514C24.5049 18.5838 24.6742 18.6785 24.8592 18.7264C25.1957 18.8288 25.5101 18.9922 25.7865 19.2085C26.1274 19.4826 26.5239 19.6804 26.9488 19.7883C27.4531 19.8994 28.0359 19.7577 28.5445 19.4581C29.0778 19.1449 29.0282 18.8444 28.9555 18.6441L24.2618 18.0151Z" fill="#37474F"/>
<path d="M25.4156 16.272C25.5865 16.4519 26.5164 17.3652 27.23 17.5978C27.7983 17.7828 28.5376 17.9594 28.8615 18.3031C29.1982 18.6613 28.6966 19.1197 28.0069 19.3828C27.2873 19.6561 26.7984 19.4354 26.3206 19.1969C25.9848 19.0271 25.4899 18.6876 25.2412 18.551C24.9925 18.4143 24.5319 18.3396 24.3396 18.1368C24.2336 18.0247 24.1575 17.7124 24.1114 17.4382C24.0695 17.1836 23.9003 16.9536 23.9866 16.94L24.1268 17.0919C24.7763 17.2107 25.4532 16.6149 25.4156 16.272Z" fill="url(#paint2_linear_672_4493)"/>
<path d="M2.88367 5.81982C2.47409 6.03956 2.03179 6.19286 1.57349 6.27393C1.57349 6.27393 2.29908 6.45472 3.16228 5.95818L2.88367 5.81982Z" fill="#F28F8F"/>
</g>

</svg>
