<svg width="316" height="415" viewBox="0 0 316 415" fill="none" xmlns="http://www.w3.org/2000/svg">
<path d="M149.226 402.537C143.068 402.548 136.927 401.898 130.908 400.598C120.388 398.441 110.479 393.983 101.893 387.544C93.308 381.105 86.2605 372.847 81.2587 363.363C77.2896 354.492 74.3411 345.201 72.4697 335.668L72.038 333.852C65.8704 307.634 58.0991 279.908 43.7593 254.859C41.4464 250.828 38.9177 246.796 36.4815 242.919C30.5875 234.139 25.5972 224.788 21.5866 215.008C15.4189 198.237 16.5599 181.558 24.9788 170.572C26.0878 168.866 27.5307 167.4 29.2211 166.263C30.9115 165.126 32.8146 164.342 34.8162 163.956C36.0359 163.809 37.2728 163.914 38.4505 164.263C39.6281 164.612 40.7213 165.199 41.6623 165.987C42.3964 166.571 42.9984 167.304 43.4289 168.136C43.8593 168.969 44.1086 169.883 44.1602 170.819H42.1557C42.1075 170.166 41.9235 169.531 41.6155 168.953C41.3076 168.376 40.8824 167.869 40.3671 167.464C39.6349 166.858 38.7883 166.403 37.8773 166.129C36.9663 165.854 36.0093 165.764 35.0629 165.864C31.5886 166.654 28.5521 168.748 26.5824 171.711C18.5953 182.205 17.3309 198.114 23.4985 214.239C27.4752 223.949 32.4351 233.229 38.3009 241.934C40.7371 245.842 43.2659 249.874 45.6096 253.936C59.9802 279.169 67.844 307.049 74.0117 333.421L74.4434 335.237C76.2756 344.613 79.1725 353.75 83.0781 362.471C87.9388 371.687 94.7895 379.711 103.136 385.964C111.482 392.217 121.115 396.542 131.34 398.629C152.016 402.717 173.468 399.816 192.307 390.382C199.851 387.027 206.661 382.228 212.352 376.257C218.142 369.264 222.604 361.276 225.52 352.685C230.67 339.207 234.772 324.99 238.472 311.296C244.177 290.863 250.067 269.722 260.059 250.581C263.143 244.981 266.227 239.472 269.496 234.149C275.616 224.594 280.781 214.462 284.915 203.899C288.461 193.867 288.615 185.436 285.408 179.281C284.282 177.229 282.718 175.448 280.826 174.066C278.934 172.683 276.761 171.732 274.461 171.28C272.854 170.901 271.182 170.901 269.576 171.281C267.97 171.66 266.475 172.408 265.209 173.465L263.883 171.957C265.371 170.687 267.135 169.781 269.036 169.311C270.936 168.84 272.921 168.819 274.831 169.249C277.441 169.787 279.9 170.893 282.033 172.489C284.165 174.085 285.918 176.131 287.166 178.481C290.651 185.251 290.496 194.052 286.765 204.638C282.588 215.334 277.34 225.582 271.099 235.226C268.015 240.549 264.623 246.027 261.848 251.566C251.979 270.522 246.12 291.57 240.446 311.88C236.591 325.667 232.613 339.914 227.401 353.454C224.42 362.283 219.842 370.491 213.894 377.672C208.016 383.834 200.986 388.789 193.202 392.259C179.496 398.916 164.47 402.428 149.226 402.537Z" fill="#AB8DA8"/>
<path d="M171.861 44.2202C173.456 41.6946 174.369 38.8008 174.513 35.8192C174.688 34.4802 174.565 33.1194 174.155 31.8327C173.745 30.546 173.056 29.3647 172.139 28.3723C171.368 27.6337 170.412 27.049 169.703 26.2489C168.993 25.4488 168.654 24.618 168.068 23.8487C167.433 23.0233 166.616 22.3552 165.68 21.8962C164.744 21.4373 163.714 21.1998 162.672 21.2022C160.544 21.2022 158.293 22.1869 156.504 21.2022C155.394 20.6483 154.654 19.5405 153.42 18.925C152.259 18.3354 150.927 18.172 149.658 18.4635C148.549 18.8494 147.378 19.0268 146.204 18.9866C144.539 18.7404 143.398 17.2633 141.917 16.4325C141.157 16.0443 140.32 15.8268 139.466 15.7955C138.612 15.7641 137.761 15.9195 136.974 16.2508C136.186 16.5821 135.481 17.0813 134.907 17.7134C134.334 18.3455 133.905 19.0951 133.653 19.9098C133.452 20.6869 133.452 21.5022 133.653 22.2793C133.992 24.1564 135.287 25.6643 135.38 27.5414C135.472 29.4185 134.331 31.0495 135.38 32.7112C136.428 34.3729 137.97 34.4345 138.71 36.0039C139.697 38.1272 138.71 40.8967 139.605 43.1739C140.067 44.6202 140.314 46.682 141.671 47.6052C143.552 48.8976 147.653 47.8206 149.905 47.6052L158.632 46.8974C162.487 46.5281 167.236 46.8974 170.72 44.9895C171.141 44.7985 171.527 44.5385 171.861 44.2202Z" fill="#3B2645"/>
<path d="M142.257 42.866C141.951 42.4464 141.55 42.105 141.086 41.8696C140.622 41.6342 140.11 41.5115 139.589 41.5115C139.069 41.5115 138.557 41.6342 138.093 41.8696C137.629 42.105 137.228 42.4464 136.922 42.866C134.239 45.9433 138.772 52.0978 142.257 52.4671C142.46 49.2699 142.46 46.0632 142.257 42.866Z" fill="#FFEDE5"/>
<path d="M185.585 94.4101C184.772 99.5935 183.681 104.73 182.316 109.796C182.1 110.75 181.915 111.674 181.792 112.566C181.668 113.458 181.545 114.135 181.391 115.274C181.391 115.489 181.391 115.736 181.391 115.951C181.391 116.689 181.175 117.459 181.082 118.29L177.197 154.448C153.05 161.064 127.855 154.448 127.855 154.448C127.855 154.448 127.855 153.986 127.855 153.094C127.455 149.001 126.221 135.984 124.987 121.305C124.987 121.305 124.987 121.09 124.987 120.998C125 120.772 125 120.546 124.987 120.321C124.463 114.166 123.97 107.642 123.569 101.426C122.829 90.625 122.366 80.6547 122.459 74.4694C122.459 72.1922 127.794 72.4384 131.433 71.946C134.116 71.5768 136.86 71.3306 139.235 71.2075C141.609 71.0844 143.398 71.0228 144.601 71.0228H145.958C145.958 71.0228 146.266 67.484 146.266 67.4532L147.099 58.7753C147.503 58.8795 147.916 58.9515 148.332 58.9907C149.095 59.1335 149.869 59.2158 150.645 59.2369C151.663 59.2369 152.619 59.2369 153.513 59.2369L154.839 59.0831H155.61C156.473 58.9292 157.306 58.7446 158.077 58.5292C158.848 58.3137 159.095 58.2214 159.588 58.0676C161.841 57.3472 163.98 56.3111 165.941 54.9903L166.218 54.8057L166.743 54.4056L167.113 54.1287C167.113 54.5595 167.113 54.7441 167.113 54.9288C166.866 56.9597 166.588 59.5447 166.465 62.0988C166.465 63.8836 166.28 65.6376 166.218 67.1455C166.157 68.6534 165.663 70.8382 166.743 71.6075C167.128 71.8235 167.544 71.9791 167.976 72.0691C169.669 72.3358 171.382 72.4491 173.095 72.4076C173.619 72.4076 174.144 72.4076 174.668 72.4076C175.983 72.3312 177.301 72.3312 178.615 72.4076C179.534 72.405 180.444 72.586 181.291 72.9402C182.139 73.2943 182.907 73.8143 183.549 74.4694C184.349 75.624 184.856 76.9542 185.03 78.3467L185.4 80.8701C185.987 85.361 186.049 89.9048 185.585 94.4101Z" fill="#FFEDE5"/>
<path d="M166.989 53.9131C166.572 56.1153 165.671 58.198 164.351 60.0114C163.031 61.8247 161.325 63.3238 159.356 64.4007C157.386 65.4776 155.201 66.1057 152.959 66.2397C150.718 66.3737 148.474 66.0104 146.389 65.1759L146.975 58.8059C150.467 59.4782 154.064 59.389 157.519 58.5445C160.973 57.6999 164.204 56.12 166.989 53.9131Z" fill="#E0855C" fill-opacity="0.1"/>
<path d="M142.874 33.6345C141.085 35.4809 140.931 39.6044 140.807 44.1588C140.345 58.0065 144.508 62.3146 151.57 63.084C158.632 63.8533 166.064 61.1145 167.575 48.3131C168.346 41.8816 169.148 36.004 166.804 33.2037C163.443 29.0802 148.301 27.9724 142.874 33.6345Z" fill="#FFEDE5"/>
<path d="M166.527 46.4359C166.527 46.4359 168.685 40.7122 172.108 43.7587C175.531 46.8052 170.813 55.4523 165.571 54.8061C165.632 54.8061 164.923 48.4054 166.527 46.4359Z" fill="#FFEDE5"/>
<path d="M170.598 46.3741C169.788 46.6265 169.063 47.0947 168.501 47.7281C167.864 48.259 167.348 48.9201 166.99 49.6668C166.99 49.8822 167.205 50.0361 167.36 49.8822C167.794 49.4528 168.206 49.0008 168.593 48.5282C168.874 48.8378 169.222 49.0797 169.611 49.236C169.919 49.236 170.166 48.9591 170.043 48.7129C169.829 48.387 169.544 48.1135 169.21 47.9128C169.786 47.5449 170.332 47.1334 170.844 46.6819C170.854 46.6449 170.855 46.6061 170.847 46.5687C170.839 46.5313 170.822 46.4963 170.798 46.4664C170.774 46.4366 170.744 46.4127 170.709 46.3966C170.674 46.3806 170.636 46.3729 170.598 46.3741Z" fill="#E0855C" fill-opacity="0.1"/>
<path d="M146.882 43.8507C146.882 43.8507 145.68 44.2815 145.865 42.1582C146.05 40.0348 146.882 40.5272 146.882 40.5272C146.882 40.5272 147.715 40.5272 147.592 42.1889C147.468 43.8507 146.882 43.8507 146.882 43.8507Z" fill="#3B2645"/>
<path d="M159.002 43.8507C159.002 43.8507 157.83 44.2815 158.015 42.1582C158.2 40.0348 159.002 40.5272 159.002 40.5272C159.002 40.5272 159.835 40.5272 159.712 42.1889C159.588 43.8507 159.002 43.8507 159.002 43.8507Z" fill="#3B2645"/>
<path d="M148.178 37.4195C147.694 37.1457 147.135 37.031 146.582 37.0918C146.028 37.1526 145.508 37.3856 145.095 37.758C145.074 37.8 145.064 37.8467 145.066 37.8937C145.068 37.9406 145.082 37.9862 145.107 38.0262C145.132 38.0662 145.166 38.0993 145.207 38.1224C145.248 38.1454 145.294 38.1577 145.341 38.158C145.773 38.158 146.143 37.9118 146.575 37.881C147.027 37.8596 147.479 37.9329 147.901 38.0965C148.302 38.2195 148.579 37.6041 148.178 37.4195Z" fill="#3B2645"/>
<path d="M160.822 38.4655C160.328 37.2346 158.2 37.1423 157.275 37.8808C157.231 37.9153 157.194 37.9596 157.169 38.0103C157.144 38.061 157.131 38.1167 157.131 38.1732C157.131 38.2296 157.144 38.2853 157.169 38.336C157.194 38.3867 157.231 38.431 157.275 38.4655C157.829 38.5116 158.386 38.5116 158.941 38.4655C159.389 38.5376 159.825 38.6722 160.236 38.8655C160.289 38.9431 160.371 38.9964 160.463 39.0137C160.556 39.031 160.651 39.0109 160.729 38.9579C160.807 38.9048 160.86 38.8231 160.878 38.7308C160.895 38.6385 160.875 38.543 160.822 38.4655Z" fill="#3B2645"/>
<path d="M149.319 53.7595C151.92 54.0998 154.564 53.6494 156.905 52.467C156.555 53.2882 156.037 54.0272 155.383 54.6366C154.73 55.2461 153.957 55.7125 153.112 56.0059C150.429 56.7445 149.319 53.7595 149.319 53.7595Z" fill="white"/>
<path d="M133.746 74.4389C140.838 79.3933 141.486 89.0251 138.032 96.7183C135.688 101.857 131.34 105.458 128.781 110.32C126.113 115.035 123.016 119.496 119.529 123.644C111.881 133.338 104.603 142.108 101.797 145.431C92.1446 156.94 71.8531 172.142 64.5444 177.435C62.8791 178.666 61.8923 179.343 61.8923 179.343C61.8923 179.343 54.892 175.681 56.7423 168.911C56.7423 168.911 84.4968 139.492 88.5982 133.492C93.1308 125.692 97.2483 117.659 100.934 109.427C105.662 100.298 110.586 91.292 115.705 82.409C118.049 78.3162 121.04 73.1772 126.19 72.254C128.268 72.0209 130.367 72.4634 132.173 73.5157C132.718 73.7856 133.244 74.0941 133.746 74.4389Z" fill="#FFEDE5"/>
<path d="M56.7425 168.942C57.5021 168.884 58.265 168.884 59.0245 168.942C59.0245 168.942 65.6856 172.635 64.5446 177.435C64.5446 177.435 63.8353 178.081 62.7251 179.066C61.615 180.051 60.4123 181.22 58.9629 182.697C57.5135 184.174 54.2138 188.852 52.7952 188.452C52.4646 188.33 52.1757 188.116 51.9626 187.836L49.0946 184.759C47.491 182.974 44.8081 179.958 46.8434 177.589C45.3632 178.481 41.9093 180.666 40.2132 179.62L39.5039 178.481C39.5039 178.481 44.5922 174.696 46.6892 172.819C49.5181 170.452 53.0538 169.089 56.7425 168.942Z" fill="#FFEDE5"/>
<path d="M142.164 121.583C142.154 121.747 142.154 121.911 142.164 122.075C142.164 122.075 142.442 122.075 142.38 122.075L142.164 121.583Z" fill="#D6BED3"/>
<path d="M252.874 414.076C249.605 414.415 246.305 414.692 242.944 414.846L53.134 415H52.5481H51.5613L48.2308 414.692C47.4701 414.692 46.7406 414.39 46.2028 413.854C45.665 413.317 45.3628 412.589 45.3628 411.83C45.3628 411.071 45.665 410.343 46.2028 409.806C46.7406 409.27 47.4701 408.968 48.2308 408.968L51.5921 408.66H52.5481H53.1649L242.944 408.814C246.274 408.814 249.574 409.214 252.874 409.584C253.345 409.742 253.755 410.043 254.046 410.446C254.337 410.85 254.493 411.333 254.493 411.83C254.493 412.327 254.337 412.81 254.046 413.214C253.755 413.617 253.345 413.918 252.874 414.076Z" fill="#C6C6C6"/>
<path d="M153.606 221.317C150.768 243.996 147.438 263.721 147.438 263.721C147.9 269.199 148.116 275.138 148.116 281.231C148.116 293.171 147.315 305.849 146.297 317.02C145.002 331.267 143.213 343.392 142.442 349.485V350.254C143.583 390.659 132.05 396.013 126.653 387.181C121.256 378.35 126.653 352.316 126.653 352.316C126.67 352.08 126.67 351.844 126.653 351.608C124.382 339.518 122.868 327.298 122.12 315.02C120.269 285.293 123.446 264.952 123.076 261.26C116.63 196.637 125.635 161.002 125.635 161.002C127.041 155.824 129.579 151.022 133.067 146.939C139.636 139.862 147.53 141.646 152.495 150.294C153.017 151.18 153.491 152.094 153.914 153.032C155.937 157.999 157.085 163.277 157.306 168.634C157.8 182.02 155.918 202.669 153.606 221.317Z" fill="#F5A784"/>
<path d="M185.461 313.45C184.744 325.984 183.24 338.461 180.959 350.808L180.681 352.316C180.681 352.316 186.078 378.442 180.681 387.181C175.285 395.921 163.874 390.812 164.892 350.808C164.892 350.623 164.892 350.439 164.892 350.285C164.029 344.5 162.302 331.975 160.945 317.143C159.896 305.88 159.094 293.263 159.094 281.323C159.094 275.169 159.341 269.26 159.804 263.752C159.804 263.752 156.381 244.027 153.636 221.378C151.323 202.699 149.411 182.051 150.213 168.788C150.444 163.429 151.602 158.151 153.636 153.186C154.04 152.219 154.514 151.283 155.055 150.386C160.76 140.508 170.258 139.646 177.258 150.786C179.264 154.015 180.839 157.491 181.946 161.125C181.946 161.125 190.95 196.668 184.505 261.383C184.043 265.014 187.096 284.647 185.461 313.45Z" fill="#F5A784"/>
<path d="M56.0024 188.913C56.6168 189.622 57.38 190.189 58.2379 190.572C59.0959 190.954 60.0277 191.145 60.9674 191.128C61.3978 191.028 61.8035 190.842 62.1599 190.581C62.5163 190.321 62.8159 189.99 63.0408 189.611C63.2656 189.231 63.4109 188.81 63.468 188.372C63.5251 187.935 63.4927 187.491 63.3728 187.066C63.0142 186.13 62.4319 185.296 61.6767 184.635C57.0201 180.019 52.2401 175.404 47.3985 171.126C46.5894 170.216 45.5081 169.59 44.3147 169.341C43.2048 169.341 42.1307 169.733 41.2837 170.449C40.4366 171.165 39.8715 172.157 39.689 173.249C39.689 175.219 41.3851 175.957 42.7728 177.065C47.1518 180.943 51.5309 185.005 56.0024 188.913Z" fill="#3B2645"/>
<path d="M55.3233 183.467C55.5153 183.269 55.6717 183.04 55.7859 182.79C55.8641 182.472 55.8686 182.14 55.7991 181.82C55.7296 181.5 55.588 181.2 55.385 180.943C54.244 179.066 51.9003 176.05 49.5874 175.773C48.8238 175.735 48.0633 175.896 47.3816 176.242C46.6999 176.587 46.1208 177.105 45.7018 177.743C45.0097 178.736 44.5696 179.883 44.4192 181.083C44.2688 182.284 44.4126 183.503 44.8383 184.636C45.5151 186.674 46.9056 188.4 48.7548 189.498C49.6775 189.888 50.7156 189.908 51.6523 189.552C52.589 189.197 53.3518 188.494 53.7814 187.59C54.244 186.452 54.0898 185.067 54.8299 184.113C54.9703 183.88 55.1357 183.663 55.3233 183.467Z" fill="#FFEDE5"/>
<path d="M173.342 74.4387C166.218 79.3931 165.571 89.0249 169.056 96.7181C171.368 101.857 175.717 105.457 178.307 110.32C180.996 115.021 184.092 119.48 187.559 123.644C195.206 133.338 202.515 142.108 205.291 145.431C214.974 157.002 235.265 172.142 242.574 177.435L245.257 179.343C245.257 179.343 252.226 175.681 250.376 168.911C250.376 168.911 222.622 139.492 218.52 133.491C213.975 125.699 209.857 117.665 206.185 109.427C201.436 100.195 196.532 91.3021 191.383 82.4088C189.039 78.316 186.078 73.177 180.897 72.2538C178.819 72.023 176.722 72.4653 174.915 73.5155C174.368 73.784 173.843 74.0926 173.342 74.4387Z" fill="#FFEDE5"/>
<path d="M250.345 168.942C249.575 168.884 248.802 168.884 248.032 168.942C248.032 168.942 241.371 172.634 242.512 177.435C242.512 177.435 243.252 178.081 244.332 179.066C245.411 180.05 246.675 181.22 248.094 182.697C249.513 184.174 252.874 188.851 254.262 188.451C254.588 188.321 254.875 188.109 255.094 187.836L257.931 184.759C259.566 182.974 262.218 179.958 260.214 177.589C261.663 178.481 265.117 180.666 266.844 179.62L267.43 178.481C267.43 178.481 262.341 174.696 260.214 172.819C257.439 170.482 253.972 169.12 250.345 168.942Z" fill="#FFEDE5"/>
<path d="M251.054 188.913C250.44 189.623 249.677 190.189 248.819 190.572C247.961 190.955 247.029 191.145 246.089 191.129C245.653 191.036 245.241 190.855 244.878 190.597C244.514 190.339 244.208 190.01 243.977 189.629C243.745 189.249 243.595 188.825 243.534 188.384C243.473 187.944 243.503 187.495 243.622 187.067C244.007 186.172 244.599 185.381 245.349 184.759C250.016 180.143 254.786 175.64 259.658 171.249C260.463 170.334 261.546 169.707 262.742 169.465C263.848 169.465 264.918 169.859 265.76 170.575C266.602 171.291 267.161 172.283 267.337 173.373C267.337 175.342 265.672 176.081 264.253 177.189C259.905 180.943 255.526 185.005 251.054 188.913Z" fill="#3B2645"/>
<path d="M251.764 183.467C251.553 183.278 251.385 183.048 251.27 182.79C251.205 182.469 251.21 182.138 251.285 181.819C251.359 181.501 251.501 181.202 251.702 180.943C252.812 179.066 255.156 176.05 257.469 175.773C258.233 175.735 258.993 175.896 259.675 176.242C260.356 176.587 260.936 177.105 261.355 177.743C262.039 178.741 262.467 179.892 262.601 181.094C262.736 182.295 262.572 183.512 262.126 184.636C261.469 186.685 260.073 188.418 258.209 189.498C257.286 189.888 256.248 189.908 255.311 189.552C254.375 189.197 253.612 188.494 253.182 187.59C252.751 186.452 252.905 185.067 252.134 184.113L251.764 183.467Z" fill="#FFEDE5"/>
<path d="M185.923 293.725V296.802C185.923 298.864 185.923 300.987 185.923 303.172V305.665C185.923 308.188 185.738 310.804 185.615 313.481C177.63 315.679 169.409 316.909 161.13 317.143C160.79 313.696 160.112 304.526 160.081 303.511C160.081 301.418 159.618 295.51 159.588 294.71C159.403 290.217 159.279 285.724 159.279 281.324C159.279 275.6 159.495 269.999 159.927 264.799C159.927 264.429 159.927 264.091 159.927 263.752C159.927 263.414 156.504 244.058 153.759 221.379C153.451 223.779 153.142 226.179 152.834 228.487C150.244 247.997 147.499 263.752 147.499 263.752C147.962 269.23 148.177 275.169 148.177 281.262C148.177 285.909 148.177 290.494 147.838 295.356C147.838 296.156 147.221 306.434 147.129 307.419C146.913 310.712 146.636 313.943 146.358 317.051C142.041 316.866 137.785 316.589 133.56 316.22C130.23 315.943 126.036 315.758 121.965 315.174C121.78 312.404 121.656 309.758 121.564 307.173C121.564 306.526 121.564 305.88 121.564 305.234C121.564 302.403 121.564 299.726 121.564 297.141V295.11C121.564 276.462 123.383 264.183 123.106 261.26C116.661 196.637 125.665 161.003 125.665 161.003C127.071 155.825 129.61 151.022 133.098 146.939C135.741 147.348 138.335 148.029 140.838 148.97C144.651 149.965 148.586 150.41 152.526 150.294H155.363C158.786 150.294 162.209 149.894 165.601 149.801H167.883C171.135 149.753 174.382 150.063 177.566 150.724C179.469 153.989 180.941 157.485 181.945 161.126C184.437 172.741 185.902 184.551 186.324 196.422C187.369 218.09 186.761 239.807 184.505 261.383C184.135 264.122 185.769 275.846 185.923 293.725Z" fill="#3B2645"/>
<path d="M142.257 350.254C142.689 366.163 141.178 376.626 138.834 382.934C135.257 392.689 129.582 392.566 126.499 387.304C125.666 385.844 125.092 384.251 124.802 382.596C122.551 371.61 126.499 352.439 126.499 352.439C126.516 352.203 126.516 351.966 126.499 351.731C128.033 352.848 129.772 353.653 131.618 354.1C133.688 354.608 135.868 354.432 137.831 353.6C139.793 352.768 141.432 351.324 142.504 349.484L142.257 350.254Z" fill="#AB8DA8"/>
<path d="M182.532 381.735C182.269 383.69 181.641 385.579 180.682 387.305C177.351 392.721 171.615 392.69 168.069 382.196C165.91 376.042 164.522 365.795 164.985 350.778C167.294 352.848 170.269 354.027 173.373 354.101C176.142 353.847 178.772 352.775 180.928 351.024C180.985 351.504 180.985 351.99 180.928 352.47C180.928 352.47 184.444 370.626 182.532 381.735Z" fill="#AB8DA8"/>
<path d="M137.6 359.701C136.038 358.771 134.253 358.281 132.435 358.281C130.616 358.281 128.831 358.771 127.269 359.701C127.211 359.765 127.173 359.844 127.158 359.929C127.142 360.014 127.151 360.101 127.183 360.181C127.216 360.262 127.27 360.331 127.339 360.382C127.409 360.433 127.492 360.464 127.578 360.47C129.12 360.47 130.662 359.824 132.111 359.855C133.808 359.999 135.483 360.329 137.107 360.84C137.246 360.857 137.387 360.829 137.508 360.759C137.63 360.69 137.725 360.583 137.781 360.455C137.837 360.326 137.849 360.184 137.816 360.048C137.784 359.912 137.708 359.79 137.6 359.701Z" fill="#291B30"/>
<path d="M137.107 364.625C134.473 363.093 131.383 362.537 128.379 363.055C127.362 363.055 127.331 364.748 128.379 364.655C129.83 364.516 131.294 364.578 132.728 364.84C134.054 365.086 135.256 365.64 136.582 365.917C136.746 365.952 136.916 365.928 137.063 365.85C137.211 365.772 137.326 365.645 137.388 365.491C137.451 365.336 137.457 365.165 137.406 365.006C137.354 364.848 137.248 364.713 137.107 364.625Z" fill="#291B30"/>
<path d="M177.937 359.701C175.593 358.901 170.505 358.593 168.686 360.747C168.439 361.024 168.686 361.609 169.025 361.578C170.474 361.394 171.739 360.809 173.25 360.747C174.761 360.686 176.334 361.086 177.752 360.994C177.837 361.006 177.924 361.001 178.007 360.98C178.09 360.958 178.168 360.921 178.237 360.87C178.306 360.818 178.364 360.754 178.408 360.68C178.451 360.606 178.48 360.525 178.492 360.44C178.504 360.355 178.5 360.268 178.478 360.185C178.457 360.102 178.42 360.024 178.368 359.956C178.316 359.887 178.252 359.829 178.178 359.786C178.104 359.742 178.022 359.713 177.937 359.701Z" fill="#291B30"/>
<path d="M179.078 364.902C176.518 363.763 170.134 362.933 168.839 366.379C168.654 366.841 169.24 367.21 169.61 366.994C170.943 366.253 172.427 365.826 173.951 365.746C175.474 365.666 176.996 365.935 178.399 366.533C179.324 366.902 180.034 365.302 179.078 364.902Z" fill="#291B30"/>
<path d="M62.3242 70.7767C62.3242 70.592 61.9542 70.592 61.9234 70.7767C60.3814 81.2701 61.2758 92.3175 61.2758 103.057C61.2758 114.412 60.9057 125.86 61.5841 137.184C61.6133 137.305 61.6824 137.413 61.7803 137.489C61.8782 137.566 61.9992 137.608 62.1238 137.608C62.2484 137.608 62.3694 137.566 62.4673 137.489C62.5652 137.413 62.6343 137.305 62.6635 137.184C63.3111 125.86 62.941 114.412 62.941 103.057C62.941 92.5637 63.8353 81.3625 62.3242 70.7767Z" fill="#F7F8F8"/>
<path d="M75.8004 74.3465C75.7676 74.1954 75.6839 74.06 75.5632 73.963C75.4426 73.8659 75.2923 73.813 75.1374 73.813C74.9824 73.813 74.8321 73.8659 74.7115 73.963C74.5909 74.06 74.5072 74.1954 74.4743 74.3465C74.4743 84.4399 73.8267 94.718 74.4743 104.781C74.4743 104.952 74.5426 105.116 74.664 105.238C74.7855 105.359 74.9502 105.427 75.122 105.427C75.2937 105.427 75.4584 105.359 75.5799 105.238C75.7013 105.116 75.7696 104.952 75.7696 104.781C76.4788 94.718 75.8621 84.4399 75.8004 74.3465Z" fill="#F7F8F8"/>
<path d="M213.679 180.02C213.654 179.929 213.599 179.849 213.524 179.791C213.449 179.734 213.357 179.703 213.262 179.703C213.168 179.703 213.076 179.734 213.001 179.791C212.925 179.849 212.871 179.929 212.846 180.02C211.977 193.234 211.802 206.484 212.322 219.717C212.322 232.949 212.322 246.15 212.815 259.382C212.841 259.481 212.899 259.568 212.98 259.63C213.061 259.692 213.16 259.726 213.262 259.726C213.364 259.726 213.464 259.692 213.544 259.63C213.625 259.568 213.683 259.481 213.71 259.382C214.141 246.15 214.141 232.949 214.203 219.717C214.707 206.484 214.532 193.234 213.679 180.02Z" fill="#F7F8F8"/>
<path d="M237.455 102.627C237.358 93.8215 236.782 85.028 235.728 76.2853C235.728 75.7622 234.895 75.9161 234.864 76.2853C234.626 85.7406 234.904 95.2018 235.697 104.627C236.098 113.397 236.005 122.383 237.177 131.061C237.177 131.861 238.534 131.615 238.565 130.876C238.997 121.49 238.01 111.92 237.455 102.627Z" fill="#F7F8F8"/>
<path d="M243.623 107.52C243.601 107.451 243.558 107.391 243.5 107.348C243.442 107.305 243.371 107.282 243.299 107.282C243.227 107.282 243.156 107.305 243.098 107.348C243.04 107.391 242.997 107.451 242.975 107.52C242.158 120.163 242.096 132.843 242.79 145.493C242.771 145.57 242.77 145.651 242.786 145.728C242.803 145.806 242.837 145.879 242.886 145.942C242.935 146.004 242.998 146.055 243.069 146.09C243.141 146.124 243.219 146.142 243.299 146.142C243.379 146.142 243.457 146.124 243.529 146.09C243.6 146.055 243.663 146.004 243.712 145.942C243.761 145.879 243.795 145.806 243.812 145.728C243.828 145.651 243.827 145.57 243.808 145.493C244.502 132.843 244.44 120.163 243.623 107.52Z" fill="#F7F8F8"/>
<path d="M152.68 228.456C152.727 226.06 153.038 223.676 153.606 221.347C153.297 223.748 152.989 226.148 152.68 228.456Z" fill="#291B30"/>
<path d="M186.233 196.421C182.069 171.465 147.685 170.295 147.685 170.295C145.557 160.017 159.434 156.94 159.434 156.94L167.545 149.955C170.797 149.906 174.044 150.216 177.228 150.878C179.237 154.076 180.823 157.521 181.946 161.125C184.386 172.746 185.82 184.555 186.233 196.421Z" fill="#291B30"/>
<path d="M182.439 163.803C154.685 176.82 124.525 164.88 124.525 164.88C126.715 158.725 125.08 127.337 124.926 121.367C124.926 121.367 124.926 121.152 124.926 121.059C124.938 120.834 124.938 120.608 124.926 120.382C130.754 106.904 131.402 80.9319 131.433 72.0078C134.054 71.6078 136.799 71.3924 139.173 71.2693C140.098 81.2396 143.398 106.812 152.588 105.704C161.778 104.596 166.157 81.8243 167.76 71.854C169.451 72.137 171.166 72.2504 172.88 72.1925C173.404 72.1925 173.928 72.1925 174.452 72.1925C173.651 85.8248 181.237 114.474 181.453 115.274C181.453 115.49 181.453 115.736 181.453 115.951C181.453 116.69 181.237 117.459 181.144 118.29C181.144 118.29 181.144 118.628 181.144 118.813C179.201 136.169 182.439 163.803 182.439 163.803Z" fill="#AB8DA8"/>
</svg>
