<svg width="43" height="41" viewBox="0 0 43 41" fill="none" xmlns="http://www.w3.org/2000/svg">
<path d="M41.864 19.7162C41.8619 28.4155 36.1367 33.9496 29.083 33.9508C22.0293 33.952 16.2977 29.4347 16.2929 20.7336C16.288 12.0324 22.0223 2.45119 29.0829 2.45179C36.1435 2.4524 41.8643 11.0238 41.864 19.7162Z" fill="#DB8E76"/>
<g style="mix-blend-mode:multiply">
<path d="M33.8957 3.83798C34.0232 4.10948 34.1488 4.3879 34.2569 4.67645C35.0118 6.44195 35.6062 8.2718 36.0331 10.1438C36.8981 14.1953 36.7429 18.5666 34.9474 22.3057C33.1519 26.0447 29.517 29.0091 25.3956 29.3881C22.7543 29.5463 20.125 28.9218 17.8369 27.5926C19.9611 31.7886 24.1889 33.9746 29.0829 33.9509C36.1365 33.9497 41.8618 28.4156 41.8639 19.7163C41.8653 13.1232 38.569 6.6032 33.8957 3.83798Z" fill="#E8E8E8"/>
</g>
<path d="M28.864 23.7162C28.8619 32.4155 23.1367 37.9496 16.083 37.9508C9.02934 37.952 3.29767 33.4347 3.29286 24.7336C3.28804 16.0324 9.02228 6.45119 16.0829 6.45179C23.1435 6.4524 28.8643 15.0238 28.864 23.7162Z" fill="#DB8E76"/>
<g style="mix-blend-mode:multiply">
<path d="M20.8957 7.83798C21.0232 8.10948 21.1488 8.3879 21.2569 8.67645C22.0118 10.442 22.6062 12.2718 23.0331 14.1438C23.8981 18.1953 23.7429 22.5666 21.9474 26.3057C20.1519 30.0447 16.517 33.0091 12.3956 33.3881C9.75427 33.5463 7.12495 32.9218 4.83692 31.5926C6.96115 35.7886 11.1889 37.9746 16.0829 37.9509C23.1365 37.9497 28.8618 32.4156 28.8639 23.7163C28.8653 17.1232 25.569 10.6032 20.8957 7.83798Z" fill="#E8E8E8"/>
</g>
</svg>
