<svg width="289" height="288" viewBox="0 0 289 288" fill="none" xmlns="http://www.w3.org/2000/svg">
<defs>
<linearGradient id="paint0_linear_430_655" x1="287.836" y1="208.902" x2="10.6966" y2="230.227" gradientUnits="userSpaceOnUse">
<stop stop-color="#D72F5D"/>
<stop offset="0.33" stop-color="#D83360"/>
<stop offset="0.64" stop-color="#DA3E68"/>
<stop offset="0.93" stop-color="#DD5077"/>
<stop offset="1" stop-color="#DE567B"/>
</linearGradient>
<linearGradient id="paint1_linear_430_655" x1="4184.03" y1="28434.3" x2="111672" y2="28434.3" gradientUnits="userSpaceOnUse">
<stop stop-color="#D72F5D"/>
<stop offset="0.33" stop-color="#D83360"/>
<stop offset="0.64" stop-color="#DA3E68"/>
<stop offset="0.93" stop-color="#DD5077"/>
<stop offset="1" stop-color="#DE567B"/>
</linearGradient>
<linearGradient id="paint2_linear_430_655" x1="44.2916" y1="218.988" x2="252.605" y2="218.988" gradientUnits="userSpaceOnUse">
<stop stop-color="#F0A82C"/>
<stop offset="0.31" stop-color="#EFA42C"/>
<stop offset="0.59" stop-color="#EB992C"/>
<stop offset="0.86" stop-color="#E6872C"/>
<stop offset="1" stop-color="#E27A2C"/>
</linearGradient>
<linearGradient id="paint3_linear_430_655" x1="13578.1" y1="11920.4" x2="51027.1" y2="37142.3" gradientUnits="userSpaceOnUse">
<stop stop-color="#F0A82C"/>
<stop offset="0.31" stop-color="#EFA42C"/>
<stop offset="0.59" stop-color="#EB992C"/>
<stop offset="0.86" stop-color="#E6872C"/>
<stop offset="1" stop-color="#E27A2C"/>
</linearGradient>
<radialGradient id="paint4_radial_430_655" cx="0" cy="0" r="1" gradientUnits="userSpaceOnUse" gradientTransform="translate(46732.4 9033.85) scale(22410.1 5650.2)">
<stop stop-color="#F0A82C"/>
<stop offset="0.31" stop-color="#EFA42C"/>
<stop offset="0.59" stop-color="#EB992C"/>
<stop offset="0.86" stop-color="#E6872C"/>
<stop offset="1" stop-color="#E27A2C"/>
</radialGradient>
<radialGradient id="paint5_radial_430_655" cx="0" cy="0" r="1" gradientUnits="userSpaceOnUse" gradientTransform="translate(153.508 112.164) scale(75.794 76.2878)">
<stop stop-color="#E27A2C"/>
<stop offset="0.28" stop-color="#E4802C"/>
<stop offset="0.66" stop-color="#E9932C"/>
<stop offset="1" stop-color="#F0A82C"/>
</radialGradient>
<radialGradient id="paint6_radial_430_655" cx="0" cy="0" r="1" gradientUnits="userSpaceOnUse" gradientTransform="translate(68066.4 510.733) scale(40999.1 8833.58)">
<stop stop-color="#F0A82C"/>
<stop offset="0.31" stop-color="#EFA42C"/>
<stop offset="0.59" stop-color="#EB992C"/>
<stop offset="0.86" stop-color="#E6872C"/>
<stop offset="1" stop-color="#E27A2C"/>
</radialGradient>
<linearGradient id="paint7_linear_430_655" x1="13671.6" y1="3021.69" x2="78909.7" y2="3021.69" gradientUnits="userSpaceOnUse">
<stop stop-color="#F0A82C"/>
<stop offset="0.31" stop-color="#EFA42C"/>
<stop offset="0.59" stop-color="#EB992C"/>
<stop offset="0.86" stop-color="#E6872C"/>
<stop offset="1" stop-color="#E27A2C"/>
</linearGradient>
<clipPath id="clip0_430_655">
<rect width="288" height="263" fill="white" transform="translate(0 19)"/>
</clipPath>
</defs>
<circle opacity="0.3" cx="145" cy="144" r="144" fill="white"/>
<g clip-path="url(#clip0_430_655)">
<path opacity="0.27" d="M1.86743 227.122C1.86743 256.546 66.3058 283.482 145.348 281.94C235.18 280.186 288.033 254.356 288.033 224.931C288.033 195.507 224.153 176.698 145.124 176.698C66.0954 176.698 1.86743 197.691 1.86743 227.122Z" fill="black"/>
<path d="M0 223.991C0 253.416 64.4384 280.352 143.481 278.81C233.313 277.056 286.165 251.225 286.165 221.801C286.165 192.376 222.247 173.567 143.224 173.567C64.2016 173.567 0 194.567 0 223.991Z" fill="#B22F5D"/>
<path d="M0.125 220.702C0.125 250.133 61.1508 273.138 140.167 273.138C219.183 273.138 286.323 250.166 286.323 220.735C286.323 191.304 222.253 167.459 143.224 167.459C64.1951 167.459 0.125 191.278 0.125 220.702Z" fill="url(#paint0_linear_430_655)"/>
<path d="M4.97754 220.676C4.97754 247.903 63.7808 269.167 139.91 269.167C216.039 269.167 280.767 247.903 280.767 220.676C280.767 193.449 219.038 171.377 142.889 171.377C66.7397 171.377 4.97754 193.449 4.97754 220.676Z" fill="#B22F5D"/>
<path d="M10.3232 221.914C10.3232 247.625 66.9961 267.705 140.41 267.705C213.824 267.705 276.164 247.625 276.164 221.914C276.164 196.202 216.651 175.361 143.231 175.361C69.8104 175.361 10.3232 196.202 10.3232 221.914Z" fill="url(#paint1_linear_430_655)"/>
<path d="M43.1277 226.698L49.1376 241.305L85.8411 252.576L126.273 256.54L155.303 254.66L174.168 249.445L196.767 240.676L43.5419 211.463L43.1277 226.698Z" fill="#914004"/>
<path d="M25.0916 226.698C25.0916 226.698 24.2565 226.281 31.7261 224.607C39.1957 222.933 30.8911 219.187 32.9689 211.668C35.0467 204.15 50.8012 201.662 61.5782 203.323C72.3552 204.984 63.2417 223.773 63.2417 223.773L49.5519 233.376L25.0916 226.698Z" fill="#914004"/>
<path d="M44.9951 209.167C44.9951 209.167 43.3316 214.177 45.4094 224.19C47.4872 234.204 60.7496 242.556 71.9474 244.23C83.1453 245.905 113.004 250.908 128.758 250.908C144.513 250.908 166.08 248.817 177.692 246.315C189.304 243.813 220.82 235.461 227.869 234.21C234.917 232.959 248.193 225.448 251.093 222.959C253.992 220.471 254.827 210.021 252.335 207.519C249.843 205.017 229.841 209.081 229.841 209.081L44.9951 209.167Z" fill="#FFEDC4"/>
<path d="M69.771 197.373C69.771 197.373 54.4308 197.79 46.9612 205.315C39.4916 212.84 47.7897 229.73 70.6324 235.573C93.4751 241.417 148.386 243.085 167.461 239.955C186.536 236.824 219.505 228.042 227.592 225.765C235.68 223.489 258.497 212.41 251.231 202.807C243.965 193.204 69.771 197.373 69.771 197.373Z" fill="url(#paint2_linear_430_655)"/>
<path d="M61.8937 196.367C61.8937 196.367 60.96 198.869 66.2466 203.568C71.5331 208.267 77.4247 209.2 82.731 209.828C88.0373 210.457 96.4142 218.591 111.34 219.842C126.266 221.093 144 223.283 174.464 224.852C204.927 226.42 230.137 212.297 237.304 211.046C244.471 209.795 255.058 203.846 255.965 199.133C256.872 194.421 255.34 189.12 255.34 189.12L61.8937 196.367Z" fill="#FFEDC4"/>
<path d="M131.974 213.442C131.974 213.442 148.149 214.488 163.286 215.951C178.422 217.413 201.422 219.081 229.841 209.061C258.26 199.041 262.599 185.481 245.181 181.099C227.763 176.718 109.374 209.895 109.374 209.895C109.374 209.895 116.219 213.442 131.974 213.442Z" fill="#E2952C"/>
<path opacity="0.18" d="M58.1589 158.869C55.7033 161.512 53.1089 164.022 50.3868 166.387C46.0274 170.139 54.1151 170.556 56.3047 179.008C58.4942 187.459 56.8373 190.921 62.0581 196.017C69.9485 203.74 81.1266 204.839 92.5414 209.008C103.417 212.979 120.085 217.221 135.281 216.367C159.432 215.011 173.74 217.83 183.071 216.262C192.401 214.693 201.62 209.643 210.233 206.817C222.674 202.747 228.178 198.062 235.739 192.992C253.493 181.079 246.917 175.46 246.917 172.019C246.917 168.578 241.322 171.357 232.616 166.063C223.91 160.768 58.1589 158.869 58.1589 158.869Z" fill="black"/>
<path d="M58.159 157.83C55.7023 160.47 53.1079 162.978 50.3869 165.341C46.0275 169.1 42.6083 171.913 44.7847 180.365C46.9612 188.816 54.4308 191.615 60.0264 196.334C65.622 201.053 83.9738 212.926 95.4806 214.203C106.987 215.481 117.252 217.016 132.493 217.334C147.735 217.651 171.058 215.454 180.388 213.886C189.718 212.317 203.5 207.003 212.114 204.183C224.555 200.113 228.191 197.049 235.785 191.973C253.539 180.06 246.963 174.448 246.963 171C246.963 167.552 241.368 170.378 232.662 165.043C223.956 159.709 58.159 157.83 58.159 157.83Z" fill="#FFEDC4"/>
<path d="M60.0262 156.473C60.0262 156.473 46.7571 161.483 44.7122 171.291C42.6673 181.099 57.7774 191.324 67.9363 193.826C78.0952 196.327 87.8399 205.738 104.429 208.856C121.019 211.973 144.033 210.729 164.765 209.689C185.497 208.65 208.307 201.748 221.162 195.076C234.016 188.405 248.535 185.48 247.496 173.375C246.457 161.271 232.984 161.059 232.984 161.059L60.0262 156.473Z" fill="url(#paint3_linear_430_655)"/>
<path opacity="0.18" d="M52.6685 160.543C52.6685 160.543 54.115 170.556 72.572 175.983C91.029 181.41 109.683 182.35 118.185 181.94C126.687 181.529 140.265 182.773 153.33 182.562C166.396 182.35 192.828 174.739 198.01 174.739C203.191 174.739 223.726 169.941 230.775 169.107C237.824 168.273 241.953 163.68 240.105 162.634C238.257 161.589 211.285 167.016 211.285 167.016L160.274 174.527L95.5857 173.905L63.8597 167.433L52.6816 160.55" fill="black"/>
<path d="M50.3869 150.781C50.3869 150.781 49.7622 159.239 55.7787 164.09C58.3036 166.129 73.6044 177.863 100.978 177.446C128.351 177.029 148.248 180.364 171.886 176.195C195.524 172.025 215.014 169.1 227.454 166.585C239.895 164.07 252.75 156.572 250.678 145.301C248.607 134.03 50.3869 150.781 50.3869 150.781Z" fill="#FFEDC4"/>
<path d="M61.6833 135.599C61.6833 135.599 50.5052 137.274 50.0713 148.121C49.6373 158.968 70.8099 168.571 94.0274 170.245C117.245 171.92 137.99 172.33 162.871 169.828C187.752 167.327 211.384 165.652 230.045 158.975C248.706 152.297 257.832 141.443 242.9 140.609C227.967 139.775 61.6833 135.599 61.6833 135.599Z" fill="#E2802C"/>
<path d="M52.5633 126.42C52.5633 126.42 49.7622 129.861 54.1151 139.252C58.468 148.644 74.6433 153.343 81.4883 155.533C88.3332 157.724 109.479 161.165 121.295 165.235C133.111 169.306 144.625 167.426 154.573 165.864C164.522 164.302 182.255 160.57 190.961 159.603C199.667 158.637 222.378 157.413 238.547 145.831C254.716 134.249 254.098 124.229 253.151 119.848C252.204 115.467 52.5633 126.42 52.5633 126.42Z" fill="#FFEDC4"/>
<path d="M58.7835 110.139C58.7835 110.139 47.6055 121.39 54.2203 136.016C60.8351 150.642 82.0011 149.378 101.497 156.473C120.993 163.567 153.33 160.629 171.991 157.32C190.652 154.011 208.07 158.154 233.799 143.13C259.529 128.107 255.36 112.687 245.826 112.687C236.291 112.687 58.7835 110.139 58.7835 110.139Z" fill="url(#paint4_radial_430_655)"/>
<path d="M49.7623 108.266C49.7623 108.266 47.5859 114.527 52.2478 118.908C56.9097 123.289 77.1289 131.112 86.4396 136.115C95.7503 141.119 125.011 148.637 156.73 144.256C188.449 139.875 205.558 137.995 214.593 137.055C223.628 136.115 236.673 134.236 245.694 127.353C249.055 124.806 251.846 121.576 253.885 117.873C255.924 114.169 257.166 110.075 257.53 105.857C257.839 100.847 227.98 103.038 227.98 103.038L49.7886 108.26" fill="#FFEDC4"/>
<path d="M71.224 85.5127C71.224 85.5127 50.4854 87.604 49.6569 103.878C48.8284 120.152 68.7254 121.827 82.8361 128.087C96.9468 134.348 134.255 140.192 154.159 138.524C174.062 136.857 194.801 131.43 215.967 130.583C237.133 129.735 244.583 117.644 251.217 113.468C257.852 109.292 260.752 103.865 251.632 97.1872C242.512 90.5094 71.224 85.5127 71.224 85.5127Z" fill="url(#paint5_radial_430_655)"/>
<path d="M50.8011 217.545C50.8011 217.545 47.8948 210.451 56.6071 209.603C65.3194 208.756 71.1189 212.913 78.1677 213.78C85.2164 214.647 101.392 218.783 111.34 219.829C121.289 220.874 148.248 223.376 148.248 223.376C148.248 223.376 153.225 227.135 141.613 228.386C130.001 229.637 94.343 231.304 91.851 237.148C89.3589 242.992 93.9288 247.585 96.8285 248.836C99.7282 250.087 117.146 251.966 123.787 252.383C130.428 252.8 157.381 251.761 171.064 248.413C184.747 245.064 203.822 239.65 210.043 238.816C210.043 238.816 190.553 245.077 181.433 248.829C172.313 252.582 148.668 260.934 128.765 259.683C108.861 258.432 96 255.931 84.8219 255.077C73.6438 254.223 49.8871 248.942 37.131 243.826C24.6904 238.823 19.3052 232.979 22.6192 227.942C25.9331 222.906 37.5518 227.942 37.966 224.183C38.3803 220.424 44.2981 221.357 45.429 228.571C46.0471 232.542 52.8921 242.549 85.2362 247.559C85.2362 247.559 88.1425 245.891 87.314 241.298C86.4855 236.705 83.1649 238.379 71.1386 234.203C59.1123 230.027 53.2603 226.281 50.8011 217.545Z" fill="#914004"/>
<path d="M130.836 54.7314C138.967 54.7314 145.558 53.6113 145.558 52.2297C145.558 50.8481 138.967 49.728 130.836 49.728C122.705 49.728 116.114 50.8481 116.114 52.2297C116.114 53.6113 122.705 54.7314 130.836 54.7314Z" fill="#6C3200"/>
<path opacity="0.18" d="M95.1716 124.699C96.1053 124.957 119.428 134.037 148.353 131.218C177.278 128.399 192.211 120.265 198.431 119.636C204.651 119.007 230.459 110.245 237.304 108.683C244.149 107.121 253.48 101.165 248.193 95.8438C242.906 90.5228 95.1716 124.699 95.1716 124.699Z" fill="black"/>
<path d="M51.1628 98.3519C51.1628 98.3519 51.6297 103.408 53.4971 104.818C55.3645 106.228 53.4971 107.326 56.4494 109.358C59.4017 111.39 78.845 120.609 95.1716 124.699C111.498 128.789 130.159 131.43 153.64 127.201C177.12 122.972 186.299 118.438 198.582 115.149C210.865 111.86 227.198 106.386 236.219 104.196C245.241 102.005 246.477 99.3381 247.568 97.4651C248.66 95.5922 248.969 91.3565 247.259 90.4167C245.55 89.477 224.088 96.9952 224.088 96.9952L141.199 101.846L51.1628 98.3519Z" fill="#FFEDC4"/>
<path d="M57.2055 80.7144C57.2055 80.7144 52.5436 82.905 51.2877 91.3564C50.0318 99.8078 51.5968 103.269 59.9935 106.069C68.3902 108.868 83.9409 117.981 104.778 121.41C125.615 124.838 143.967 122.66 172.583 116.717C201.199 110.774 222.963 101.065 232.918 99.1857C242.873 97.3061 249.087 92.6072 246.911 89.4768C244.734 86.3464 228.25 86.3464 228.25 86.3464L57.2055 80.7144Z" fill="url(#paint6_radial_430_655)"/>
<path d="M64.537 87.5513C64.537 87.5513 49.9726 91.4626 51.2154 97.7565C52.4581 104.05 69.8762 109.861 73.1902 111.112C76.5041 112.363 77.3392 118.624 74.4395 118.624C71.5398 118.624 62.8274 114.454 62.4132 118.207C61.9989 121.959 76.7146 124.679 82.8362 128.134C88.9578 131.589 93.5145 138.677 88.537 138.26C83.5595 137.843 65.2603 135.751 67.3315 142.846C69.4028 149.941 79.4104 147.856 91.851 153.7C104.292 159.544 93.9288 161.642 86.4592 159.961C74.4921 157.314 66.5556 165.388 83.5595 168.306C100.563 171.225 103.89 172.853 102.22 177.837C100.55 182.82 83.9737 181.596 78.9962 183.68C74.0187 185.765 74.4395 193.277 86.4592 197.036C98.4789 200.795 103.049 195.368 110.926 198.704C118.803 202.039 129.587 202.88 133.322 197.036C137.056 191.192 122.952 184.931 117.146 182.013C111.34 179.094 103.049 177.003 108.441 173.243C113.832 169.484 122.124 173.243 121.71 168.65C121.295 164.057 108.441 164.481 105.12 161.139C101.799 157.797 103.049 153.627 114.247 154.461C125.444 155.295 127.562 149.425 120.519 146.069C113.477 142.714 100.978 143.197 98.0713 139.861C95.165 136.526 91.851 129.008 96.8285 129.008C101.806 129.008 109.013 135.924 111.656 131.979C113.714 128.915 100.563 126.188 95.1715 124.699C89.7798 123.21 80.7847 120.186 80.7847 120.186C80.7847 120.186 76.0965 117.757 79.8247 111.079C83.5529 104.401 94.343 111.496 106.784 106.909C119.224 102.323 107.178 93.4216 92.7124 92.1641C83.2273 91.2729 73.8137 89.7317 64.537 87.5513Z" fill="#914004"/>
<path opacity="0.18" d="M54.4308 82.7002L52.2478 87.0814C52.2478 87.0814 64.0834 96.4726 94.2379 96.1616C124.392 95.8505 132.493 97.7235 140.581 94.5931C148.669 91.4627 174.477 93.9313 180.079 93.9313C185.681 93.9313 214.271 92.0583 223.312 88.9279C232.353 85.7975 54.4308 82.7002 54.4308 82.7002Z" fill="black"/>
<path d="M43.2328 59.4302C43.236 60.6567 43.445 61.874 43.8509 63.0305C44.5084 64.4335 42.6082 66.6308 42.6082 70.2311C42.6082 73.8313 46.0273 78.8347 58.1588 84.9433C70.2903 91.0519 88.3265 92.2961 111.031 93.077C133.736 93.858 128.127 91.3563 159.242 90.2643C190.356 89.1723 182.097 93.8646 215.066 90.1055C248.035 86.3463 248.66 81.5018 249.436 80.2444C250.211 78.9869 251.178 74.1424 250.521 72.607C249.863 71.0716 237.613 68.8545 237.613 68.8545L43.2328 59.4302Z" fill="#FFEDC4"/>
<path d="M45.7183 64.6654C45.7183 64.6654 46.7572 63.4145 44.2651 61.3563C41.7731 59.298 43.8509 53.8446 51.3205 48.2126C58.7901 42.5805 89.4574 29.8471 142.133 32.1436C194.808 34.4401 231.912 52.3357 238.547 57.1339C245.181 61.9321 250.159 65.6912 249.955 70.9063C249.955 70.9063 252.44 74.6654 245.392 75.4993C238.343 76.3332 225.902 78.4179 214.29 80.0857C202.678 81.7535 170.124 83.3948 151.259 81.7601C132.394 80.1254 117.462 84.8905 91.5418 82.594C65.6218 80.2975 50.8536 77.1803 45.7183 70.9063C42.8185 67.359 45.7183 64.6654 45.7183 64.6654Z" fill="url(#paint7_linear_430_655)"/>
<path d="M126.247 45.7571C126.247 45.7571 96.079 45.4461 98.5644 51.3164C101.05 57.1867 110.696 52.8584 114.424 60.2708C118.152 67.6832 89.8587 64.9035 79.5749 64.5925C69.291 64.2814 62.2028 71.118 64.7672 77.6899C68.1929 86.4589 73.5058 85.036 69.8762 88.9408C69.5146 89.3312 72.776 89.7747 72.776 89.7747C72.776 89.7747 74.4855 88.7025 72.4669 83.4013C70.1129 77.2398 83.645 74.758 95.7896 76.6111C107.934 78.4642 145.243 78.7752 156.441 79.3907C167.638 80.0062 183.498 81.2438 186.917 77.2266C190.336 73.2093 178.521 76.0155 179.77 70.1451C181.019 64.2748 195.005 68.6031 211.798 66.4456C228.592 64.288 221.444 55.327 211.798 52.8584C202.152 50.3899 224.239 50.6943 234.812 55.6381C245.385 60.5819 238.856 51.9319 226.415 47.9146C213.975 43.8974 185.359 46.0682 166.698 47.2992C148.037 48.5301 142.757 46.0682 126.247 45.7571Z" fill="#914004"/>
<path opacity="0.18" d="M245.701 127.359C236.679 134.242 223.621 136.122 214.599 137.062C205.578 138.001 188.476 139.881 156.736 144.262C124.997 148.643 95.7763 141.132 86.4459 136.122C77.9769 131.575 60.5259 124.705 53.898 120.198L53.1681 120.265C53.1681 120.265 52.55 121.932 52.55 126.419C52.55 130.907 67.4761 132.786 76.2213 136.539C84.9665 140.291 105.764 146.976 121.315 148.643C136.866 150.311 159.57 149.06 172.945 146.87C186.319 144.679 210.575 140.298 217.111 140.913C223.647 141.529 253.183 137.604 253.183 119.841C253.181 119.637 253.153 119.435 253.098 119.239C251.146 122.378 248.639 125.131 245.701 127.359Z" fill="black"/>
<path opacity="0.18" d="M81.4881 155.533C74.6432 153.343 58.4744 148.644 54.1149 139.252C54.1149 139.252 51.6295 140.609 50.3867 144.679C50.3867 144.679 60.3352 153.448 70.5993 155.93C80.8634 158.412 89.5692 161.887 96.7232 159.689C96.8622 159.662 96.9934 159.604 97.1072 159.52C97.221 159.435 97.3144 159.326 97.3807 159.2C90.6213 157.777 84.5851 156.526 81.4881 155.533Z" fill="black"/>
<path d="M86.1371 64.3872C86.137 64.7926 86.0167 65.1888 85.7918 65.525C85.5668 65.8613 85.2474 66.1224 84.8742 66.275C84.5011 66.4276 84.0912 66.4648 83.697 66.3817C83.3028 66.2987 82.9421 66.0992 82.6611 65.8088C82.3801 65.5184 82.1915 65.1503 82.1194 64.7515C82.0473 64.3526 82.095 63.9412 82.2564 63.5698C82.4177 63.1984 82.6855 62.8838 83.0254 62.6663C83.3653 62.4488 83.7619 62.3383 84.1645 62.3488C84.693 62.361 85.1957 62.5813 85.5645 62.9624C85.9334 63.3436 86.1389 63.8552 86.1371 64.3872Z" fill="#D72F5D"/>
<path d="M101.083 71.5811C102.198 71.5811 103.101 70.6715 103.101 69.5494C103.101 68.4272 102.198 67.5176 101.083 67.5176C99.968 67.5176 99.0642 68.4272 99.0642 69.5494C99.0642 70.6715 99.968 71.5811 101.083 71.5811Z" fill="#F6605D"/>
<path d="M107.77 65.7906C107.771 66.194 107.654 66.5888 107.432 66.9248C107.21 67.2609 106.894 67.5232 106.524 67.6785C106.154 67.8338 105.747 67.8751 105.354 67.7972C104.96 67.7193 104.599 67.5257 104.315 67.2409C104.031 66.9561 103.838 66.5929 103.759 66.1973C103.68 65.8017 103.72 65.3915 103.873 65.0187C104.026 64.6458 104.286 64.3271 104.619 64.1028C104.952 63.8785 105.344 63.7588 105.745 63.7588C106.281 63.7588 106.795 63.9726 107.174 64.3535C107.554 64.7343 107.768 65.2511 107.77 65.7906Z" fill="#D72F5D"/>
<path d="M213.824 63.2887C214.938 63.2887 215.842 62.379 215.842 61.2569C215.842 60.1348 214.938 59.2251 213.824 59.2251C212.709 59.2251 211.805 60.1348 211.805 61.2569C211.805 62.379 212.709 63.2887 213.824 63.2887Z" fill="#D72F5D"/>
<path d="M227.507 50.6612C228.622 50.6612 229.526 49.7516 229.526 48.6294C229.526 47.5073 228.622 46.5977 227.507 46.5977C226.392 46.5977 225.488 47.5073 225.488 48.6294C225.488 49.7516 226.392 50.6612 227.507 50.6612Z" fill="#D72F5D"/>
<path d="M98.8997 105.387C100.015 105.387 100.918 104.478 100.918 103.356C100.918 102.233 100.015 101.324 98.8997 101.324C97.7849 101.324 96.8811 102.233 96.8811 103.356C96.8811 104.478 97.7849 105.387 98.8997 105.387Z" fill="#D72F5D"/>
<path d="M77.9112 223.409C77.9125 223.813 77.7949 224.207 77.5731 224.543C77.3514 224.88 77.0356 225.142 76.6656 225.297C76.2957 225.452 75.8883 225.494 75.495 225.416C75.1017 225.338 74.7402 225.144 74.4563 224.86C74.1725 224.575 73.9789 224.212 73.9002 223.816C73.8216 223.42 73.8613 223.01 74.0144 222.637C74.1675 222.264 74.427 221.946 74.7602 221.721C75.0934 221.497 75.4852 221.377 75.886 221.377C76.422 221.377 76.9361 221.591 77.3158 221.972C77.6954 222.353 77.9095 222.87 77.9112 223.409Z" fill="#D72F5D"/>
<path d="M130.626 72.21C131.741 72.21 132.644 71.3004 132.644 70.1783C132.644 69.0561 131.741 68.1465 130.626 68.1465C129.511 68.1465 128.607 69.0561 128.607 70.1783C128.607 71.3004 129.511 72.21 130.626 72.21Z" fill="#F6605D"/>
<path d="M107.178 224.977C107.178 225.381 107.059 225.775 106.837 226.11C106.614 226.445 106.298 226.706 105.928 226.861C105.558 227.015 105.151 227.055 104.758 226.977C104.365 226.898 104.004 226.704 103.721 226.419C103.438 226.134 103.245 225.77 103.167 225.375C103.088 224.98 103.129 224.57 103.282 224.197C103.435 223.825 103.695 223.506 104.028 223.282C104.361 223.059 104.752 222.939 105.153 222.939C105.69 222.939 106.205 223.154 106.585 223.536C106.965 223.918 107.178 224.437 107.178 224.977Z" fill="#F6605D"/>
<path d="M110.097 192.416C111.212 192.416 112.116 191.506 112.116 190.384C112.116 189.262 111.212 188.353 110.097 188.353C108.983 188.353 108.079 189.262 108.079 190.384C108.079 191.506 108.983 192.416 110.097 192.416Z" fill="#F6605D"/>
<path d="M88.3265 148.75C89.4414 148.75 90.3451 147.84 90.3451 146.718C90.3451 145.596 89.4414 144.686 88.3265 144.686C87.2116 144.686 86.3079 145.596 86.3079 146.718C86.3079 147.84 87.2116 148.75 88.3265 148.75Z" fill="#F6605D"/>
<path d="M183.965 76.1212C185.08 76.1212 185.984 75.2115 185.984 74.0894C185.984 72.9673 185.08 72.0576 183.965 72.0576C182.85 72.0576 181.946 72.9673 181.946 74.0894C181.946 75.2115 182.85 76.1212 183.965 76.1212Z" fill="#F6605D"/>
<path d="M59.0926 99.755C60.2075 99.755 61.1112 98.8453 61.1112 97.7232C61.1112 96.6011 60.2075 95.6914 59.0926 95.6914C57.9777 95.6914 57.074 96.6011 57.074 97.7232C57.074 98.8453 57.9777 99.755 59.0926 99.755Z" fill="#F6605D"/>
<path d="M110.255 46.6968C110.257 47.1003 110.139 47.495 109.917 47.8311C109.696 48.1672 109.38 48.4295 109.01 48.5848C108.64 48.7401 108.232 48.7814 107.839 48.7035C107.446 48.6256 107.084 48.432 106.801 48.1471C106.517 47.8623 106.323 47.4991 106.244 47.1036C106.166 46.708 106.206 46.2978 106.359 45.9249C106.512 45.5521 106.771 45.2333 107.104 45.009C107.438 44.7848 107.829 44.665 108.23 44.665C108.766 44.665 109.28 44.8789 109.66 45.2597C110.04 45.6406 110.254 46.1574 110.255 46.6968Z" fill="#F6605D"/>
<path d="M208.096 57.1733C208.315 57.3949 208.464 57.6768 208.524 57.9833C208.584 58.2899 208.552 58.6075 208.433 58.8959C208.314 59.1844 208.112 59.4309 207.854 59.6043C207.596 59.7777 207.292 59.8702 206.982 59.8702C206.672 59.8702 206.368 59.7777 206.11 59.6043C205.852 59.4309 205.65 59.1844 205.531 58.8959C205.412 58.6075 205.38 58.2899 205.44 57.9833C205.5 57.6768 205.649 57.3949 205.867 57.1733C206.163 56.8763 206.564 56.7095 206.982 56.7095C207.4 56.7095 207.801 56.8763 208.096 57.1733Z" fill="#F6605D"/>
<path d="M216.723 47.769C217.591 47.769 218.295 47.0608 218.295 46.1872C218.295 45.3136 217.591 44.6055 216.723 44.6055C215.855 44.6055 215.152 45.3136 215.152 46.1872C215.152 47.0608 215.855 47.769 216.723 47.769Z" fill="#F6605D"/>
<path d="M115.851 66.0288C115.851 66.2605 115.783 66.487 115.655 66.6796C115.527 66.8723 115.345 67.0224 115.132 67.1111C114.92 67.1997 114.686 67.2229 114.46 67.1777C114.234 67.1325 114.027 67.021 113.864 66.8572C113.701 66.6933 113.59 66.4846 113.546 66.2574C113.501 66.0301 113.524 65.7946 113.612 65.5806C113.7 65.3665 113.849 65.1836 114.04 65.0548C114.232 64.9261 114.457 64.8574 114.687 64.8574C114.996 64.8574 115.292 64.9808 115.51 65.2005C115.728 65.4202 115.851 65.7182 115.851 66.0288Z" fill="#F6605D"/>
<path d="M123.708 76.2007C123.71 76.434 123.642 76.6624 123.514 76.857C123.387 77.0516 123.204 77.2036 122.991 77.2938C122.777 77.384 122.541 77.4082 122.314 77.3635C122.086 77.3188 121.877 77.2072 121.713 77.0427C121.548 76.8782 121.436 76.6683 121.391 76.4396C121.345 76.2109 121.368 75.9737 121.456 75.7581C121.545 75.5424 121.695 75.358 121.887 75.2283C122.08 75.0986 122.306 75.0293 122.538 75.0293C122.847 75.0293 123.144 75.1525 123.363 75.372C123.583 75.5915 123.707 75.8894 123.708 76.2007Z" fill="#F6605D"/>
<path d="M70.2905 103.355C70.2918 103.588 70.2243 103.817 70.0965 104.011C69.9687 104.206 69.7863 104.358 69.5726 104.448C69.3588 104.538 69.1233 104.563 68.8958 104.518C68.6684 104.473 68.4592 104.361 68.2948 104.197C68.1305 104.032 68.0184 103.823 67.9727 103.594C67.927 103.365 67.9498 103.128 68.0382 102.912C68.1266 102.697 68.2766 102.512 68.4692 102.383C68.6618 102.253 68.8883 102.184 69.1201 102.184C69.4294 102.184 69.7261 102.307 69.9454 102.526C70.1647 102.746 70.2888 103.044 70.2905 103.355Z" fill="#F6605D"/>
<path d="M80.7847 143.508C80.7847 143.741 80.7159 143.969 80.587 144.163C80.4581 144.357 80.2749 144.508 80.0606 144.597C79.8464 144.686 79.6107 144.709 79.3835 144.663C79.1563 144.617 78.9477 144.504 78.7843 144.338C78.6209 144.173 78.51 143.962 78.4655 143.733C78.4211 143.504 78.4452 143.267 78.5348 143.052C78.6244 142.837 78.7755 142.654 78.9688 142.525C79.1621 142.396 79.3891 142.328 79.6208 142.33C79.7742 142.33 79.9261 142.36 80.0677 142.419C80.2094 142.479 80.338 142.566 80.4461 142.675C80.5543 142.785 80.6399 142.914 80.698 143.057C80.7561 143.2 80.7855 143.353 80.7847 143.508Z" fill="#F6605D"/>
<path d="M107.224 101.793C107.225 102.027 107.158 102.255 107.03 102.45C106.902 102.644 106.72 102.796 106.506 102.887C106.292 102.977 106.057 103.001 105.829 102.956C105.602 102.912 105.393 102.8 105.228 102.635C105.064 102.471 104.952 102.261 104.906 102.032C104.861 101.804 104.883 101.566 104.972 101.351C105.06 101.135 105.21 100.951 105.403 100.821C105.595 100.691 105.822 100.622 106.054 100.622C106.363 100.622 106.66 100.745 106.879 100.965C107.098 101.184 107.222 101.482 107.224 101.793Z" fill="#F6605D"/>
<path d="M177.666 73.3089C177.664 73.5403 177.595 73.7661 177.466 73.9579C177.338 74.1497 177.156 74.2988 176.943 74.3864C176.73 74.4741 176.496 74.4963 176.271 74.4504C176.046 74.4044 175.839 74.2923 175.677 74.1283C175.515 73.9642 175.404 73.7554 175.36 73.5284C175.316 73.3013 175.339 73.0661 175.427 72.8525C175.516 72.6388 175.665 72.4563 175.856 72.3278C176.047 72.1994 176.272 72.1309 176.502 72.1309C176.655 72.1309 176.807 72.1614 176.949 72.2207C177.09 72.2799 177.219 72.3668 177.327 72.4763C177.435 72.5858 177.521 72.7157 177.579 72.8586C177.637 73.0015 177.667 73.1545 177.666 73.3089Z" fill="#F6605D"/>
<path d="M76.4319 69.0005C76.4332 69.2341 76.3655 69.4628 76.2374 69.6575C76.1093 69.8522 75.9265 70.0043 75.7124 70.0942C75.4983 70.1842 75.2624 70.2081 75.0347 70.1629C74.8071 70.1176 74.598 70.0053 74.4339 69.8401C74.2698 69.675 74.1582 69.4645 74.1132 69.2353C74.0683 69.0062 74.092 68.7688 74.1814 68.5533C74.2708 68.3378 74.4218 68.1538 74.6153 68.0249C74.8088 67.896 75.036 67.8278 75.268 67.8291C75.5762 67.8309 75.8712 67.9548 76.0891 68.1741C76.307 68.3935 76.4301 68.6904 76.4319 69.0005Z" fill="#F6605D"/>
<path d="M105.981 50.2178C105.983 50.4511 105.915 50.6795 105.787 50.8741C105.66 51.0687 105.477 51.2207 105.263 51.3109C105.05 51.4011 104.814 51.4253 104.587 51.3806C104.359 51.3359 104.15 51.2242 103.986 51.0598C103.821 50.8953 103.709 50.6854 103.664 50.4567C103.618 50.228 103.641 49.9908 103.729 49.7751C103.817 49.5595 103.967 49.3751 104.16 49.2454C104.353 49.1156 104.579 49.0464 104.811 49.0464C105.12 49.0464 105.417 49.1696 105.636 49.3891C105.856 49.6086 105.98 49.9065 105.981 50.2178Z" fill="#F6605D"/>
<path d="M124.563 60.1582C124.565 60.3915 124.497 60.6199 124.369 60.8145C124.241 61.0091 124.059 61.1611 123.845 61.2513C123.632 61.3415 123.396 61.3658 123.169 61.3211C122.941 61.2764 122.732 61.1647 122.568 61.0002C122.403 60.8357 122.291 60.6258 122.245 60.3971C122.2 60.1684 122.222 59.9312 122.311 59.7156C122.399 59.4999 122.549 59.3156 122.742 59.1858C122.934 59.0561 123.161 58.9868 123.393 58.9868C123.702 58.9868 123.999 59.11 124.218 59.3295C124.437 59.549 124.561 59.8469 124.563 60.1582Z" fill="#F6605D"/>
<path d="M91.9824 229.279C91.9837 229.513 91.916 229.742 91.7879 229.936C91.6598 230.131 91.4771 230.283 91.2629 230.373C91.0488 230.463 90.8129 230.487 90.5853 230.442C90.3576 230.396 90.1485 230.284 89.9844 230.119C89.8203 229.954 89.7087 229.743 89.6638 229.514C89.6188 229.285 89.6426 229.048 89.732 228.832C89.8214 228.617 89.9724 228.433 90.1659 228.304C90.3593 228.175 90.5865 228.107 90.8186 228.108C91.1272 228.108 91.4233 228.231 91.6415 228.451C91.8598 228.671 91.9824 228.969 91.9824 229.279Z" fill="#F6605D"/>
<path d="M223.338 46.7964C223.339 47.0297 223.272 47.2581 223.144 47.4527C223.016 47.6473 222.834 47.7993 222.62 47.8895C222.406 47.9797 222.171 48.0039 221.943 47.9592C221.716 47.9145 221.507 47.8029 221.342 47.6384C221.178 47.4739 221.066 47.264 221.02 47.0353C220.975 46.8066 220.997 46.5694 221.086 46.3538C221.174 46.1381 221.324 45.9537 221.517 45.824C221.709 45.6943 221.936 45.625 222.168 45.625C222.477 45.625 222.774 45.7482 222.993 45.9677C223.212 46.1872 223.336 46.4851 223.338 46.7964Z" fill="#F6605D"/>
<path d="M206.045 64.2285C206.045 64.4602 205.977 64.6867 205.849 64.8793C205.721 65.072 205.539 65.2221 205.327 65.3108C205.114 65.3995 204.88 65.4227 204.654 65.3775C204.428 65.3323 204.221 65.2207 204.058 65.0569C203.895 64.893 203.785 64.6843 203.74 64.4571C203.695 64.2298 203.718 63.9943 203.806 63.7803C203.894 63.5662 204.043 63.3833 204.235 63.2545C204.426 63.1258 204.651 63.0571 204.881 63.0571C205.19 63.0571 205.486 63.1805 205.704 63.4002C205.922 63.6199 206.045 63.9179 206.045 64.2285Z" fill="#F6605D"/>
<path opacity="0.19" d="M246.529 245.792C246.529 247.288 239.954 248.506 231.807 248.506C223.66 248.506 217.092 247.288 217.092 245.792C217.092 244.296 223.667 243.079 231.807 243.079C239.947 243.079 246.529 244.296 246.529 245.792Z" fill="black"/>
<path opacity="0.19" d="M179.349 261.444C179.349 262.94 172.774 264.157 164.633 264.157C156.493 264.157 149.918 262.94 149.918 261.444C149.918 259.948 156.493 258.73 164.64 258.73C172.787 258.73 179.349 259.948 179.349 261.444Z" fill="black"/>
<path opacity="0.19" d="M147.63 262.072C147.63 263.568 141.054 264.786 132.908 264.786C124.761 264.786 118.185 263.568 118.185 262.072C118.185 260.577 124.761 259.359 132.908 259.359C141.054 259.359 147.63 260.563 147.63 262.072Z" fill="black"/>
<path d="M79.154 193.356C80.4766 194.727 81.9973 195.89 83.6647 196.804C86.2949 198.207 85.8412 203.376 85.0653 206.506C84.2894 209.637 80.8636 209.948 76.6686 209.815C72.4735 209.683 56.9425 207.936 53.0302 210.596C49.1179 213.257 83.0401 224.058 83.0401 224.058L104.66 218.869C104.66 218.869 92.9951 216.367 91.2856 211.357C89.576 206.347 89.7272 203.998 90.8187 201.966C91.9102 199.934 95.1716 198.207 98.2817 198.207C101.392 198.207 79.154 193.356 79.154 193.356Z" fill="#914004"/>
<path d="M226.626 223.25C226.626 223.25 229.013 221.794 229.841 221.688C230.67 221.582 232.018 223.879 232.018 223.879C232.249 223.151 232.563 222.451 232.951 221.794C233.569 220.749 235.851 223.462 235.851 223.462C235.851 223.462 236.061 221.477 236.37 221.377C236.679 221.278 239.277 223.879 239.277 223.879L236.785 227.115C236.785 227.115 228.802 227.737 228.388 227.426C227.974 227.115 226.626 223.25 226.626 223.25Z" fill="#343057"/>
<path d="M227.336 222.218C227.336 222.218 213.87 224.203 217.664 237.095C221.457 249.988 240.677 248.148 245.385 242.622C250.093 237.095 252.835 227.486 238.455 222.615C238.04 222.892 237.694 223.263 237.444 223.696C237.195 224.13 237.048 224.616 237.015 225.117C236.298 224.264 235.399 223.585 234.385 223.131C233.508 223.795 232.793 224.65 232.294 225.633C232.294 225.633 232.688 224.183 230.203 222.985C230.203 222.985 228.368 223.647 227.849 224.971L227.336 222.218Z" fill="#605A8F"/>
<path opacity="0.45" d="M241.552 236.923C237.751 245.884 226.33 245.031 220.596 242.218C227.303 249.266 241.44 247.228 245.385 242.595C249.988 237.155 252.736 227.77 239.112 222.827L239.066 223.019L238.455 222.588C238.455 222.588 245.497 227.638 241.552 236.923Z" fill="#343057"/>
<path opacity="0.16" d="M220.202 230.782C220.202 230.782 220.977 227.962 223.154 227.022C223.67 226.77 224.24 226.65 224.813 226.674C225.386 226.698 225.944 226.864 226.438 227.159C226.931 227.453 227.344 227.867 227.64 228.361C227.935 228.856 228.104 229.417 228.131 229.994C228.441 232.813 227.816 235.474 225.639 237.512C223.463 239.551 218.176 237.181 220.202 230.782Z" fill="#E0E6FF"/>
<path opacity="0.19" d="M130.626 56.088C136.294 56.088 140.89 55.1783 140.89 54.0562C140.89 52.9341 136.294 52.0244 130.626 52.0244C124.957 52.0244 120.362 52.9341 120.362 54.0562C120.362 55.1783 124.957 56.088 130.626 56.088Z" fill="black"/>
<path opacity="0.19" d="M207.781 49.9862C207.781 51.1112 203.178 52.0179 197.517 52.0179C191.855 52.0179 187.253 51.1112 187.253 49.9862C187.253 48.8611 191.855 47.9478 197.517 47.9478C203.178 47.9478 207.781 48.8611 207.781 49.9862Z" fill="black"/>
<path opacity="0.19" d="M158.775 77.6835C165.733 77.6835 171.373 76.5635 171.373 75.1818C171.373 73.8002 165.733 72.6802 158.775 72.6802C151.817 72.6802 146.177 73.8002 146.177 75.1818C146.177 76.5635 151.817 77.6835 158.775 77.6835Z" fill="black"/>
<path opacity="0.19" d="M81.6394 49.1987C88.5973 49.1987 94.2377 48.0786 94.2377 46.697C94.2377 45.3153 88.5973 44.1953 81.6394 44.1953C74.6815 44.1953 69.041 45.3153 69.041 46.697C69.041 48.0786 74.6815 49.1987 81.6394 49.1987Z" fill="black"/>
<path opacity="0.19" d="M169.19 48.8879C174.514 48.8879 178.83 48.4671 178.83 47.9481C178.83 47.4291 174.514 47.0083 169.19 47.0083C163.867 47.0083 159.551 47.4291 159.551 47.9481C159.551 48.4671 163.867 48.8879 169.19 48.8879Z" fill="black"/>
<path d="M126.904 28.7483C126.904 28.7483 124.682 28.4902 124.162 28.4902C123.643 28.4902 123.952 31.3559 123.952 31.3559C122.979 31.1567 121.992 31.035 120.999 30.9919C120.585 31.0978 120.427 34.1223 120.427 34.1223C119.33 33.8455 118.349 33.2242 117.626 32.3486C117.614 33.6754 117.685 35.0016 117.837 36.3195C118.041 37.3123 121.986 37.6763 122.242 37.4711C122.499 37.2659 128.818 32.1766 128.818 32.0442C128.818 31.9118 126.904 28.7483 126.904 28.7483Z" fill="#343057"/>
<path d="M117.613 32.3487C117.613 32.3487 117.771 34.6981 115.437 38.6095C113.102 42.5208 113.569 49.2515 119.014 53.0106C124.458 56.7698 135.656 55.0424 141.409 48.6294C147.163 42.2164 144.697 33.1296 139.7 29.9992C134.702 26.8688 128.811 29.2183 126.634 27.8086C126.337 28.6869 126.145 29.5978 126.062 30.522C126.062 31.5148 124.405 30.6809 123.11 30.6809C122.784 31.6665 122.542 32.6783 122.387 33.7054C122.334 34.6452 120.158 33.2884 119.533 33.1826C118.908 33.0767 119.428 33.9701 118.757 35.221C118.086 36.4718 117.613 32.3487 117.613 32.3487Z" fill="#605A8F"/>
<path opacity="0.45" d="M139.7 29.9992C136.379 27.9145 132.651 28.2586 129.883 28.305L129.692 28.4373C143.066 29.9992 141.528 48.8875 128.66 51.912C120.46 53.8379 116.732 50.456 115.068 48.2654C115.917 50.1872 117.284 51.8311 119.014 53.0106C124.458 56.7698 135.656 55.0424 141.409 48.6294C147.163 42.2164 144.657 33.1296 139.7 29.9992Z" fill="#343057"/>
<path d="M159.242 24.4732C159.242 24.4732 161.622 23.0105 162.45 22.9046C163.279 22.7988 164.633 25.0953 164.633 25.0953C164.866 24.3684 165.177 23.6693 165.561 23.0105C166.218 21.9649 168.467 24.6783 168.467 24.6783C168.467 24.6783 168.671 22.6929 168.986 22.5936C169.302 22.4943 171.886 25.0953 171.886 25.0953L169.401 28.3316C169.401 28.3316 161.418 28.9934 161.004 28.6426C160.59 28.2918 159.242 24.4732 159.242 24.4732Z" fill="#343057"/>
<path d="M159.952 23.4409C159.952 23.4409 146.479 25.4264 150.273 38.312C154.067 51.1976 173.287 49.371 177.995 43.8382C182.702 38.3054 185.425 28.7024 171.064 23.838C170.653 24.1167 170.312 24.4866 170.065 24.9192C169.819 25.3518 169.675 25.8355 169.644 26.3331C168.923 25.4841 168.025 24.8061 167.014 24.3476C166.137 25.0112 165.422 25.8666 164.923 26.8493C164.923 26.8493 165.311 25.3999 162.825 24.202C162.825 24.202 160.997 24.8638 160.471 26.1875L159.952 23.4409Z" fill="#605A8F"/>
<path opacity="0.45" d="M174.168 38.1399C170.367 47.1009 158.939 46.2472 153.206 43.4874C159.919 50.5358 174.049 48.4974 177.995 43.8646C182.63 38.4245 185.352 29.0399 171.728 24.1027L171.682 24.2947L171.064 23.8711C171.064 23.8711 178.106 28.8546 174.168 38.1399Z" fill="#343057"/>
<path d="M83.816 163.932C84.9308 163.932 85.8346 163.022 85.8346 161.9C85.8346 160.778 84.9308 159.868 83.816 159.868C82.7011 159.868 81.7974 160.778 81.7974 161.9C81.7974 163.022 82.7011 163.932 83.816 163.932Z" fill="#D72F5D"/>
<path d="M99.3665 166.433C100.481 166.433 101.385 165.524 101.385 164.401C101.385 163.279 100.481 162.37 99.3665 162.37C98.2517 162.37 97.3479 163.279 97.3479 164.401C97.3479 165.524 98.2517 166.433 99.3665 166.433Z" fill="#F6605D"/>
<path d="M61.4268 218.71C62.5417 218.71 63.4455 217.8 63.4455 216.678C63.4455 215.556 62.5417 214.646 61.4268 214.646C60.312 214.646 59.4082 215.556 59.4082 216.678C59.4082 217.8 60.312 218.71 61.4268 218.71Z" fill="#F6605D"/>
<path d="M104.811 163.461C104.812 163.695 104.745 163.924 104.616 164.118C104.488 164.313 104.306 164.465 104.092 164.555C103.877 164.645 103.642 164.669 103.414 164.624C103.186 164.579 102.977 164.466 102.813 164.301C102.649 164.136 102.537 163.925 102.492 163.696C102.447 163.467 102.471 163.23 102.561 163.014C102.65 162.799 102.801 162.615 102.994 162.486C103.188 162.357 103.415 162.289 103.647 162.29C103.8 162.29 103.951 162.32 104.093 162.379C104.234 162.438 104.362 162.524 104.47 162.633C104.578 162.742 104.664 162.871 104.722 163.013C104.781 163.155 104.811 163.308 104.811 163.461Z" fill="#F6605D"/>
<path d="M85.7622 222.39C85.7635 222.623 85.6958 222.852 85.5677 223.047C85.4396 223.241 85.2569 223.393 85.0427 223.483C84.8286 223.573 84.5927 223.597 84.3651 223.552C84.1374 223.507 83.9283 223.394 83.7642 223.229C83.6001 223.064 83.4885 222.854 83.4436 222.625C83.3986 222.395 83.4223 222.158 83.5117 221.942C83.6011 221.727 83.7522 221.543 83.9457 221.414C84.1391 221.285 84.3663 221.217 84.5984 221.218C84.9065 221.22 85.2015 221.344 85.4194 221.563C85.6373 221.783 85.7605 222.08 85.7622 222.39Z" fill="#F6605D"/>
<path d="M123.084 189.213C123.084 189.446 123.015 189.674 122.886 189.868C122.757 190.062 122.574 190.213 122.36 190.302C122.145 190.391 121.91 190.414 121.683 190.368C121.455 190.322 121.247 190.209 121.083 190.044C120.92 189.878 120.809 189.668 120.765 189.439C120.72 189.21 120.744 188.973 120.834 188.758C120.924 188.543 121.075 188.359 121.268 188.23C121.461 188.102 121.688 188.034 121.92 188.035C122.073 188.035 122.225 188.066 122.367 188.125C122.508 188.184 122.637 188.271 122.745 188.381C122.853 188.49 122.939 188.62 122.997 188.763C123.055 188.906 123.085 189.059 123.084 189.213Z" fill="#F6605D"/>
<path d="M92.0547 186.003C92.0547 186.236 91.986 186.464 91.8574 186.658C91.7288 186.851 91.546 187.002 91.3322 187.092C91.1183 187.181 90.883 187.204 90.6559 187.159C90.4289 187.113 90.2204 187.001 90.0567 186.836C89.893 186.671 89.7815 186.462 89.7364 186.233C89.6912 186.005 89.7144 185.768 89.803 185.552C89.8916 185.337 90.0416 185.153 90.234 185.024C90.4265 184.894 90.6528 184.825 90.8843 184.825C91.1947 184.825 91.4924 184.949 91.7119 185.17C91.9314 185.391 92.0547 185.691 92.0547 186.003Z" fill="#F6605D"/>
<path opacity="0.16" d="M122.854 45.1351C122.854 47.2066 121.387 48.8876 119.566 48.8876C117.745 48.8876 116.278 47.2066 116.278 45.1351C116.278 43.0636 117.745 41.376 119.566 41.376C121.387 41.376 122.854 43.057 122.854 45.1351Z" fill="#E0E6FF"/>
<path opacity="0.16" d="M120.414 38.7153C120.415 38.9436 120.349 39.1671 120.224 39.3575C120.099 39.5479 119.92 39.6965 119.711 39.7845C119.502 39.8725 119.271 39.8959 119.048 39.8516C118.826 39.8074 118.621 39.6976 118.461 39.5362C118.301 39.3747 118.192 39.1689 118.148 38.9449C118.104 38.7209 118.127 38.4888 118.214 38.2781C118.302 38.0675 118.449 37.8877 118.639 37.7616C118.828 37.6356 119.05 37.569 119.277 37.5703C119.426 37.5703 119.574 37.5999 119.712 37.6575C119.85 37.715 119.975 37.7994 120.081 37.9057C120.187 38.012 120.27 38.1382 120.328 38.2771C120.385 38.416 120.414 38.5649 120.414 38.7153Z" fill="#E0E6FF"/>
<path opacity="0.16" d="M151.233 32.7658C151.233 32.7658 151.89 29.1655 153.863 27.6566C155.836 26.1476 158.939 25.8829 158.893 29.5295C158.847 33.1761 157.749 35.1682 158.472 38.2986C159.196 41.429 155.467 42.3158 153.81 40.8003C152.153 39.2847 150.575 36.9419 151.233 32.7658Z" fill="#E0E6FF"/>
<path d="M188.37 26.9749C188.37 26.9749 190.547 25.413 191.171 25.5123C192.191 25.8297 193.07 26.4942 193.657 27.3919C193.657 27.3919 195.419 24.9961 196.044 24.9961C196.668 24.9961 198.115 27.1867 198.115 27.1867L198.431 25.5123C199.285 26.0267 199.914 26.847 200.193 27.8088C200.607 29.3773 198.01 31.4621 198.01 31.4621C198.01 31.4621 192.309 33.7586 191.895 33.5534C191.48 33.3482 188.37 26.9749 188.37 26.9749Z" fill="#343057"/>
<path d="M188.791 26.0615C188.791 26.0615 175.325 28.047 179.119 40.9326C182.913 53.8182 202.133 51.985 206.84 46.4588C211.548 40.9326 214.29 31.323 199.89 26.452C199.482 26.729 199.143 27.0959 198.897 27.5247C198.65 27.9536 198.505 28.4332 198.47 28.9272C197.753 28.0742 196.854 27.3954 195.84 26.9417C194.966 27.6078 194.251 28.4627 193.749 29.4434C193.749 29.4434 194.143 27.994 191.658 26.7961C191.658 26.7961 189.823 27.458 189.304 28.7816L188.791 26.0615Z" fill="#605A8F"/>
<path opacity="0.45" d="M207.307 30.4761C208.675 35.1816 206.795 43.269 198.273 46.5384C191.303 49.1857 184.031 46.598 181.572 45.5391C188.061 53.2294 202.797 51.2042 206.841 46.459C210.464 42.2101 212.91 35.5456 207.307 30.4761Z" fill="#343057"/>
<path opacity="0.16" d="M182.512 30.5418C183.353 29.9652 184.379 29.7289 185.385 29.88C186.865 30.2043 188.213 31.9052 186.76 34.1951C185.306 36.485 183.012 40.4956 181.085 39.033C179.158 37.5703 179.31 36.0085 180.184 33.6458C180.709 32.4424 181.506 31.3794 182.512 30.5418Z" fill="#E0E6FF"/>
<path d="M181.479 42.3156C181.479 42.3156 173.55 41.5347 170.124 47.9477C166.698 54.3607 168.414 62.19 174.634 65.3204C180.855 68.4508 189.1 68.9207 194.071 62.6731C199.042 56.4256 200.758 43.7253 181.479 42.3156Z" fill="#605A8F"/>
<path d="M179.665 42.3689C179.665 42.3689 181.578 43.6925 181.841 44.9235C181.841 44.9235 183.445 43.9308 184.642 44.1426C185.839 44.3544 186.45 46.2273 186.45 46.2273C186.45 46.2273 188.476 44.2419 189.409 44.9037C190.343 45.5655 191.014 46.7303 190.862 46.6773C190.711 46.6244 191.066 44.7978 191.842 45.0096C191.842 45.0096 191.185 42.2961 189.981 42.4549C189.218 42.5729 188.5 42.8952 187.903 43.3881C187.746 42.6068 187.337 41.8996 186.74 41.3762C185.859 40.7144 183.991 42.5741 183.991 42.5741C183.603 41.8605 183.031 41.2659 182.334 40.8533C181.322 40.3305 179.665 42.3689 179.665 42.3689Z" fill="#343057"/>
<path opacity="0.45" d="M195.801 48.4707C195.945 49.4436 196.879 57.3391 188.712 61.8262C179.954 66.631 170.959 59.4304 169.9 57.6038C169.771 57.3788 169.574 57.201 169.337 57.0963C169.101 56.9916 168.837 56.9654 168.585 57.0214C169.407 60.5754 171.478 63.7256 174.654 65.3206C180.875 68.451 189.12 68.9209 194.091 62.6733C197.017 58.9605 198.819 53.0108 195.801 48.4707Z" fill="#343057"/>
<path d="M154.764 49.7216C154.764 49.7216 144.566 49.1988 141.166 57.6171C137.767 66.0354 141.429 76.0488 155.941 76.1811C170.453 76.3135 172.932 67.2267 172.682 61.5682C172.432 55.9096 167.323 49.1988 154.764 49.7216Z" fill="#605A8F"/>
<path d="M152.291 54.7383C152.291 54.7383 152.193 51.919 153.541 52.7529C154.229 53.1439 154.855 53.6345 155.402 54.2089C155.402 54.2089 155.921 52.958 156.717 52.7529C157.512 52.5477 157.808 55.2545 157.808 55.2545C157.808 55.2545 159.879 54.1096 160.609 54.7317C161.339 55.3538 159.676 56.7172 159.676 56.7172C159.676 56.7172 160.813 57.24 159.879 57.968C158.946 58.696 159.676 60.4697 157.598 60.4697C157.338 60.4911 157.077 60.4535 156.834 60.3596C156.591 60.2657 156.372 60.1179 156.193 59.9272C156.014 59.7366 155.881 59.5078 155.802 59.258C155.723 59.0083 155.701 58.7438 155.737 58.4842C155.737 58.4842 154.179 60.2579 153.14 59.5233C152.101 58.7886 152.416 57.3326 152.416 57.3326C152.019 57.3235 151.629 57.2139 151.285 57.0138C150.94 56.8137 150.651 56.5297 150.444 56.1877C149.806 55.0428 152.291 54.7383 152.291 54.7383Z" fill="#343057"/>
<path opacity="0.45" d="M172.682 61.5682C172.64 60.7265 172.497 59.8931 172.254 59.0864C172.412 63.2294 170.61 70.9992 159.551 73.4082C148.78 75.7907 142.317 70.0197 141.258 68.9806C143.323 73.0839 148.004 76.1084 155.941 76.1812C170.459 76.3069 172.931 67.2268 172.682 61.5682Z" fill="#343057"/>
<path opacity="0.16" d="M142.448 60.1055C142.87 58.8751 143.739 57.8512 144.881 57.2398C146.643 56.4523 149.287 57.1869 149.484 60.6283C149.681 64.0698 150.312 69.8938 147.255 69.8607C144.197 69.8276 143.185 68.0937 142.33 65.0096C141.989 63.388 142.029 61.7086 142.448 60.1055Z" fill="#E0E6FF"/>
<path opacity="0.19" d="M194.696 195.706C200.978 195.706 206.071 194.692 206.071 193.442C206.071 192.192 200.978 191.179 194.696 191.179C188.413 191.179 183.321 192.192 183.321 193.442C183.321 194.692 188.413 195.706 194.696 195.706Z" fill="black"/>
<path d="M195.011 170.166C195.011 170.166 185.806 169.69 182.729 177.3C179.651 184.911 182.965 193.939 196.07 194.058C209.175 194.177 211.424 185.977 211.193 180.868C210.963 175.758 206.347 169.69 195.011 170.166Z" fill="#605A8F"/>
<path d="M192.776 174.692C192.776 174.692 192.684 172.144 193.9 172.899C194.523 173.254 195.09 173.7 195.584 174.223C195.584 174.223 196.057 173.091 196.8 172.899C197.543 172.707 197.74 175.162 197.74 175.162C197.74 175.162 199.614 174.123 200.265 174.692C200.916 175.262 199.424 176.479 199.424 176.479C199.424 176.479 200.456 176.949 199.614 177.611C198.773 178.273 199.424 179.875 197.55 179.875C197.315 179.892 197.08 179.857 196.861 179.772C196.642 179.687 196.445 179.553 196.283 179.381C196.122 179.21 196.001 179.004 195.929 178.779C195.857 178.554 195.835 178.315 195.866 178.081C195.866 178.081 194.466 179.683 193.526 179.027C193.249 178.786 193.042 178.475 192.926 178.125C192.811 177.776 192.791 177.402 192.868 177.042C192.509 177.033 192.158 176.933 191.848 176.751C191.538 176.57 191.278 176.312 191.093 176.003C190.527 174.97 192.776 174.692 192.776 174.692Z" fill="#343057"/>
<path opacity="0.45" d="M211.187 180.867C211.152 180.104 211.024 179.349 210.805 178.617C210.944 182.363 209.319 189.352 199.331 191.562C189.607 193.707 183.768 188.498 182.808 187.558C184.675 191.265 188.91 193.991 196.07 194.057C209.181 194.177 211.424 185.977 211.187 180.867Z" fill="#343057"/>
<path opacity="0.16" d="M183.886 179.544C184.264 178.429 185.049 177.502 186.082 176.949C187.674 176.248 190.06 176.903 190.251 180.014C190.442 183.124 191.001 188.405 188.239 188.353C185.477 188.3 184.563 186.758 183.787 183.971C183.479 182.508 183.513 180.992 183.886 179.544Z" fill="#E0E6FF"/>
<path opacity="0.16" d="M176.581 52.2234C175.772 54.1295 173.767 55.0957 172.11 54.381C170.453 53.6662 169.769 51.5418 170.578 49.6357C171.386 47.7297 173.392 46.7568 175.049 47.4716C176.706 48.1864 177.39 50.3108 176.581 52.2234Z" fill="#E0E6FF"/>
<path opacity="0.16" d="M177.784 45.9824C177.695 46.1921 177.546 46.3705 177.357 46.4951C177.167 46.6196 176.945 46.6846 176.718 46.682C176.492 46.6793 176.271 46.609 176.084 46.48C175.898 46.351 175.753 46.1691 175.669 45.9573C175.585 45.7456 175.566 45.5135 175.613 45.2905C175.66 45.0676 175.772 44.8637 175.934 44.7048C176.097 44.5458 176.302 44.439 176.525 44.3978C176.748 44.3567 176.978 44.383 177.186 44.4734C177.463 44.5943 177.682 44.8208 177.794 45.1036C177.907 45.3864 177.903 45.7023 177.784 45.9824Z" fill="#E0E6FF"/>
<path d="M151.93 242.35C151.93 242.35 154.422 238.28 155.665 238.28C156.48 238.306 157.278 238.518 157.999 238.902C157.999 238.902 158.926 236.738 160.175 236.738C161.425 236.738 163.752 238.148 163.752 238.148L163.286 244.104L151.93 242.35Z" fill="#343057"/>
<path d="M152.778 239.518C152.778 239.518 140.239 244.852 147.15 256.368C154.06 267.884 172.195 261.206 175.358 254.66C178.521 248.115 178.771 238.115 163.627 237.069C163.297 237.444 163.056 237.89 162.924 238.373C162.791 238.856 162.771 239.363 162.865 239.856C161.961 239.219 160.928 238.794 159.84 238.611C159.159 239.476 158.683 240.486 158.446 241.563C158.446 241.563 158.446 240.061 155.757 239.578C155.757 239.578 154.152 240.676 153.975 242.086L152.778 239.518Z" fill="#605A8F"/>
<path opacity="0.16" d="M149.661 249.194C149.661 249.194 150.279 246.957 152.009 246.209C152.418 246.011 152.87 245.918 153.324 245.938C153.778 245.958 154.22 246.091 154.611 246.325C155.002 246.559 155.329 246.886 155.563 247.278C155.797 247.67 155.932 248.115 155.954 248.571C156.129 249.651 156.041 250.757 155.698 251.795C155.354 252.832 154.765 253.77 153.981 254.528C152.259 256.163 148.057 254.296 149.661 249.194Z" fill="#E0E6FF"/>
<path d="M137.425 238.598C137.425 238.598 135.847 236.996 135.452 236.672C135.058 236.348 133.512 238.783 133.512 238.783C132.874 238.015 132.177 237.298 131.428 236.639C131.04 236.46 129.041 238.724 129.041 238.724C128.353 237.82 127.973 236.718 127.956 235.58C127.124 236.607 126.358 237.686 125.661 238.81C125.208 239.716 128.055 242.476 128.39 242.476C128.726 242.476 136.8 242.476 136.899 242.377C136.997 242.278 137.425 238.598 137.425 238.598Z" fill="#343057"/>
<path d="M127.956 235.58C127.956 235.58 126.641 237.513 122.374 239.101C118.106 240.689 114.312 246.242 116.232 252.602C118.152 258.962 127.969 264.647 136.445 263.251C144.921 261.854 148.603 253.198 146.663 247.625C144.723 242.053 138.641 240.173 137.819 237.698C137.043 238.198 136.327 238.789 135.689 239.458C135.071 240.233 134.295 238.538 133.282 237.724C132.415 238.287 131.599 238.925 130.843 239.63C130.185 240.332 129.357 237.903 128.936 237.433C128.515 236.963 128.37 237.976 127.069 238.532C125.767 239.088 127.956 235.58 127.956 235.58Z" fill="#605A8F"/>
<path opacity="0.16" d="M119.783 243.303C119.783 243.303 121.499 241.04 123.814 240.98C124.371 240.94 124.93 241.041 125.44 241.272C125.95 241.503 126.395 241.857 126.735 242.304C127.075 242.751 127.3 243.275 127.389 243.831C127.478 244.386 127.429 244.955 127.246 245.487C126.516 248.134 124.991 250.338 122.288 251.384C119.586 252.43 115.641 248.379 119.783 243.303Z" fill="#E0E6FF"/>
<path opacity="0.45" d="M139.022 242.82C141.357 246.573 142.757 253.621 136.392 258.155C130.843 262.125 121.269 258.115 118.908 257.016C122.854 261.298 130.034 264.296 136.458 263.251C144.927 261.854 148.616 253.198 146.676 247.625C144.736 242.053 138.654 240.173 137.832 237.698C137.819 237.704 136.688 239.061 139.022 242.82Z" fill="#343057"/>
<path opacity="0.45" d="M149.872 259.571C157.946 266.374 172.55 260.471 175.358 254.66C178.337 248.512 178.731 239.333 166.231 237.36C169.335 238.022 174.023 240.305 173.392 247.83C172.471 258.764 158.61 262.873 149.872 259.571Z" fill="#343057"/>
<path d="M79.075 24.2151C79.075 24.2151 66.3583 23.8379 64.1161 34.7513C61.8739 45.6647 73.8345 52.0909 87.6756 45.2874C101.517 38.4839 97.0191 21.2039 79.075 24.2151Z" fill="#605A8F"/>
<path d="M78.1349 25.2806C78.1349 25.2806 78.8845 21.9715 78.0165 20.6479C77.1486 19.3242 78.5754 18.9602 79.2001 19.0198C79.8248 19.0793 80.1338 22.6598 79.5091 23.9768C78.8845 25.2938 78.7596 26.2204 78.1349 25.2806Z" fill="#343057"/>
<path opacity="0.45" d="M91.0225 25.8765C93.0609 28.9804 93.7578 37.8686 85.0587 43.7853C76.6685 49.4901 67.2263 44.5 66.2598 43.9573C70.205 48.4908 78.5294 49.7681 87.6757 45.281C97.565 40.4431 98.0844 30.2511 91.0225 25.8765Z" fill="#343057"/>
<path opacity="0.16" d="M66.7924 32.6465C66.7924 32.6465 67.6603 30.3831 69.5343 29.7874C69.9803 29.6214 70.4602 29.5694 70.9311 29.6361C71.4019 29.7028 71.849 29.886 72.2321 30.1693C72.6153 30.4527 72.9227 30.8273 73.1266 31.2597C73.3305 31.692 73.4247 32.1685 73.4006 32.6465C73.4006 34.9959 72.697 37.1402 70.7705 38.6425C68.8439 40.1449 64.6028 37.7756 66.7924 32.6465Z" fill="#E0E6FF"/>
<path opacity="0.18" d="M167.329 192.264C167.329 193.296 166.073 194.143 164.528 194.143C162.983 194.143 161.753 193.296 161.753 192.264C161.753 191.231 163.009 190.384 164.555 190.384C166.1 190.384 167.329 191.225 167.329 192.264Z" fill="#CC562A"/>
<path opacity="0.18" d="M57.2252 178.174C58.7722 178.174 60.0263 177.332 60.0263 176.294C60.0263 175.256 58.7722 174.415 57.2252 174.415C55.6782 174.415 54.4241 175.256 54.4241 176.294C54.4241 177.332 55.6782 178.174 57.2252 178.174Z" fill="#CC562A"/>
<path opacity="0.34" d="M139.956 233.27C139.956 234.309 138.7 235.15 137.155 235.15C135.61 235.15 134.361 234.309 134.361 233.27C134.361 232.231 135.61 231.391 137.155 231.391C138.7 231.391 139.956 232.231 139.956 233.27Z" fill="#CC562A"/>
<path opacity="0.28" d="M218.019 186.943C219.566 186.943 220.82 186.102 220.82 185.064C220.82 184.026 219.566 183.184 218.019 183.184C216.472 183.184 215.218 184.026 215.218 185.064C215.218 186.102 216.472 186.943 218.019 186.943Z" fill="#CC562A"/>
<path opacity="0.38" d="M156.75 154.673C156.75 155.705 155.5 156.552 153.955 156.552C152.41 156.552 151.154 155.705 151.154 154.673C151.154 153.64 152.403 152.793 153.955 152.793C155.507 152.793 156.75 153.66 156.75 154.673Z" fill="#CC562A"/>
<path opacity="0.38" d="M140.89 104.295C140.89 105.334 139.634 106.174 138.089 106.174C136.544 106.174 135.294 105.334 135.294 104.295C135.294 103.256 136.544 102.422 138.089 102.422C139.634 102.422 140.89 103.262 140.89 104.295Z" fill="#CC562A"/>
<path opacity="0.38" d="M213.981 98.6628C213.981 99.7018 212.725 100.542 211.18 100.542C209.635 100.542 208.379 99.7018 208.379 98.6628C208.379 97.6237 209.635 96.7832 211.18 96.7832C212.725 96.7832 213.981 97.6237 213.981 98.6628Z" fill="#CC562A"/>
<path opacity="0.21" d="M60.0262 62.349C61.5732 62.349 62.8273 61.5075 62.8273 60.4694C62.8273 59.4314 61.5732 58.5898 60.0262 58.5898C58.4792 58.5898 57.2251 59.4314 57.2251 60.4694C57.2251 61.5075 58.4792 62.349 60.0262 62.349Z" fill="#CC562A"/>
<path opacity="0.21" d="M210.871 74.2487C210.871 75.2811 209.615 76.1217 208.07 76.1217C206.525 76.1217 205.269 75.2811 205.269 74.2487C205.269 73.2163 206.525 72.3691 208.07 72.3691C209.615 72.3691 210.871 73.2097 210.871 74.2487Z" fill="#CC562A"/>
<path opacity="0.41" d="M238.862 69.8608C238.862 70.8998 237.607 71.7404 236.061 71.7404C234.516 71.7404 233.26 70.8998 233.26 69.8608C233.26 68.8217 234.516 67.9746 236.055 67.9746C237.593 67.9746 238.862 68.8284 238.862 69.8608Z" fill="#CC562A"/>
<path opacity="0.21" d="M89.4246 55.6184C89.4246 56.2272 88.6948 56.717 87.7874 56.717C86.88 56.717 86.137 56.2272 86.137 55.6184C86.137 55.0095 86.8668 54.5264 87.7676 54.5264C88.6685 54.5264 89.4246 55.0161 89.4246 55.6184Z" fill="#CC562A"/>
<path opacity="0.21" d="M108.309 40.2775C108.309 40.8864 107.579 41.3762 106.678 41.3762C105.777 41.3762 105.048 40.8864 105.048 40.2775C105.048 39.6687 105.777 39.1855 106.678 39.1855C107.579 39.1855 108.309 39.6753 108.309 40.2775Z" fill="#CC562A"/>
<path opacity="0.21" d="M63.5243 50.1384C63.5243 50.7473 62.7944 51.237 61.8936 51.237C60.9928 51.237 60.2563 50.7473 60.2563 50.1384C60.2563 49.5295 60.9928 49.0464 61.8936 49.0464C62.7944 49.0464 63.5243 49.5361 63.5243 50.1384Z" fill="#CC562A"/>
<path opacity="0.21" d="M75.6559 52.9577C75.6559 53.5666 74.926 54.0563 74.0186 54.0563C73.1112 54.0563 72.3879 53.5666 72.3879 52.9577C72.3879 52.3489 73.1178 51.8657 74.0186 51.8657C74.9194 51.8657 75.6559 52.3555 75.6559 52.9577Z" fill="#CC562A"/>
<path opacity="0.21" d="M113.911 36.6836C113.911 37.2858 113.181 37.7756 112.274 37.7756C111.367 37.7756 110.643 37.2858 110.643 36.6836C110.643 36.0813 111.373 35.585 112.274 35.585C113.175 35.585 113.911 36.0747 113.911 36.6836Z" fill="#CC562A"/>
<path opacity="0.38" d="M127.516 118.385C129.063 118.385 130.317 117.544 130.317 116.506C130.317 115.467 129.063 114.626 127.516 114.626C125.969 114.626 124.715 115.467 124.715 116.506C124.715 117.544 125.969 118.385 127.516 118.385Z" fill="#CC562A"/>
<path opacity="0.38" d="M226.731 123.395C226.731 124.428 225.475 125.268 223.93 125.268C222.385 125.268 221.129 124.428 221.129 123.395C221.129 122.363 222.385 121.516 223.93 121.516C225.475 121.516 226.731 122.356 226.731 123.395Z" fill="#CC562A"/>
<path opacity="0.38" d="M152.706 234.839C152.706 235.871 151.456 236.712 149.911 236.712C148.366 236.712 147.11 235.871 147.11 234.839C147.11 233.806 148.366 232.959 149.911 232.959C151.456 232.959 152.706 233.799 152.706 234.839Z" fill="#CC562A"/>
<path opacity="0.16" d="M168.572 204.785C168.572 205.818 167.316 206.665 165.771 206.665C164.226 206.665 162.97 205.818 162.97 204.785C162.97 203.753 164.226 202.906 165.771 202.906C167.316 202.906 168.572 203.746 168.572 204.785Z" fill="#CC562A"/>
<path opacity="0.38" d="M213.666 145.93C215.213 145.93 216.467 145.089 216.467 144.05C216.467 143.012 215.213 142.171 213.666 142.171C212.119 142.171 210.865 143.012 210.865 144.05C210.865 145.089 212.119 145.93 213.666 145.93Z" fill="#CC562A"/>
<path opacity="0.38" d="M211.18 124.017C211.18 124.54 210.556 124.957 209.78 124.957C209.004 124.957 208.379 124.54 208.379 124.017C208.379 123.495 209.004 123.078 209.78 123.078C210.556 123.078 211.18 123.501 211.18 124.017Z" fill="#CC562A"/>
<path opacity="0.38" d="M158.617 232.959C159.391 232.959 160.018 232.538 160.018 232.019C160.018 231.5 159.391 231.08 158.617 231.08C157.844 231.08 157.217 231.5 157.217 232.019C157.217 232.538 157.844 232.959 158.617 232.959Z" fill="#CC562A"/>
<path opacity="0.38" d="M137.938 113.686C137.938 114.209 137.28 114.626 136.537 114.626C135.794 114.626 135.136 114.209 135.136 113.686C135.136 113.164 135.761 112.747 136.537 112.747C137.313 112.747 137.938 113.17 137.938 113.686Z" fill="#CC562A"/>
<path opacity="0.38" d="M204.96 149.378C205.734 149.378 206.361 148.957 206.361 148.438C206.361 147.919 205.734 147.499 204.96 147.499C204.187 147.499 203.56 147.919 203.56 148.438C203.56 148.957 204.187 149.378 204.96 149.378Z" fill="#CC562A"/>
<path opacity="0.38" d="M198.74 148.438C199.513 148.438 200.14 148.017 200.14 147.498C200.14 146.979 199.513 146.559 198.74 146.559C197.966 146.559 197.339 146.979 197.339 147.498C197.339 148.017 197.966 148.438 198.74 148.438Z" fill="#CC562A"/>
<path opacity="0.18" d="M158.617 199.147C159.391 199.147 160.018 198.726 160.018 198.207C160.018 197.688 159.391 197.267 158.617 197.267C157.844 197.267 157.217 197.688 157.217 198.207C157.217 198.726 157.844 199.147 158.617 199.147Z" fill="#CC562A"/>
<path opacity="0.18" d="M103.568 205.097C104.342 205.097 104.969 204.676 104.969 204.157C104.969 203.638 104.342 203.217 103.568 203.217C102.795 203.217 102.168 203.638 102.168 204.157C102.168 204.676 102.795 205.097 103.568 205.097Z" fill="#CC562A"/>
<path opacity="0.18" d="M68.7321 190.384C69.5056 190.384 70.1326 189.964 70.1326 189.445C70.1326 188.926 69.5056 188.505 68.7321 188.505C67.9586 188.505 67.3315 188.926 67.3315 189.445C67.3315 189.964 67.9586 190.384 68.7321 190.384Z" fill="#CC562A"/>
<path opacity="0.18" d="M119.428 235.461C120.201 235.461 120.828 235.04 120.828 234.521C120.828 234.002 120.201 233.581 119.428 233.581C118.654 233.581 118.027 234.002 118.027 234.521C118.027 235.04 118.654 235.461 119.428 235.461Z" fill="#CC562A"/>
<path opacity="0.18" d="M137.004 186.003C137.004 186.519 136.346 186.943 135.603 186.943C134.86 186.943 134.203 186.519 134.203 186.003C134.203 185.487 134.86 185.063 135.603 185.063C136.346 185.063 137.004 185.48 137.004 186.003Z" fill="#CC562A"/>
<path opacity="0.18" d="M70.5995 180.682C71.373 180.682 72.0001 180.262 72.0001 179.743C72.0001 179.223 71.373 178.803 70.5995 178.803C69.826 178.803 69.199 179.223 69.199 179.743C69.199 180.262 69.826 180.682 70.5995 180.682Z" fill="#CC562A"/>
<path opacity="0.38" d="M169.506 151.569C170.279 151.569 170.906 151.148 170.906 150.629C170.906 150.11 170.279 149.689 169.506 149.689C168.732 149.689 168.105 150.11 168.105 150.629C168.105 151.148 168.732 151.569 169.506 151.569Z" fill="#CC562A"/>
<path opacity="0.38" d="M166.547 232.642C166.547 233.165 165.922 233.581 165.146 233.581C164.37 233.581 163.752 233.165 163.752 232.642C163.752 232.119 164.41 231.708 165.146 231.708C165.883 231.708 166.547 232.106 166.547 232.642Z" fill="#CC562A"/>
<path opacity="0.22" d="M64.5369 180.993C64.5369 181.509 63.8794 181.933 63.1364 181.933C62.3934 181.933 61.7358 181.509 61.7358 180.993C61.7358 180.477 62.3934 180.053 63.1364 180.053C63.8794 180.053 64.5369 180.483 64.5369 180.993Z" fill="#CC562A"/>
<path opacity="0.22" d="M57.5409 205.408C58.3144 205.408 58.9415 204.987 58.9415 204.468C58.9415 203.949 58.3144 203.528 57.5409 203.528C56.7674 203.528 56.1404 203.949 56.1404 204.468C56.1404 204.987 56.7674 205.408 57.5409 205.408Z" fill="#CC562A"/>
<path opacity="0.18" d="M153.021 191.953C153.795 191.953 154.422 191.532 154.422 191.013C154.422 190.494 153.795 190.073 153.021 190.073C152.248 190.073 151.621 190.494 151.621 191.013C151.621 191.532 152.248 191.953 153.021 191.953Z" fill="#CC562A"/>
<path opacity="0.18" d="M181.479 202.595C182.253 202.595 182.88 202.174 182.88 201.655C182.88 201.136 182.253 200.715 181.479 200.715C180.706 200.715 180.079 201.136 180.079 201.655C180.079 202.174 180.706 202.595 181.479 202.595Z" fill="#CC562A"/>
<path opacity="0.38" d="M163.594 105.235C164.368 105.235 164.995 104.814 164.995 104.295C164.995 103.776 164.368 103.355 163.594 103.355C162.821 103.355 162.194 103.776 162.194 104.295C162.194 104.814 162.821 105.235 163.594 105.235Z" fill="#CC562A"/>
<path opacity="0.38" d="M224.219 95.2215C224.219 95.7377 223.594 96.1613 222.825 96.1613C222.056 96.1613 221.425 95.7377 221.425 95.2215C221.425 94.7053 222.082 94.2817 222.825 94.2817C223.568 94.2817 224.219 94.6987 224.219 95.2215Z" fill="#CC562A"/>
<path opacity="0.38" d="M204.184 98.6628C204.957 98.6628 205.585 98.242 205.585 97.723C205.585 97.204 204.957 96.7832 204.184 96.7832C203.41 96.7832 202.783 97.204 202.783 97.723C202.783 98.242 203.41 98.6628 204.184 98.6628Z" fill="#CC562A"/>
<path opacity="0.21" d="M67.4894 57.9679C68.2629 57.9679 68.89 57.5472 68.89 57.0282C68.89 56.5091 68.2629 56.0884 67.4894 56.0884C66.7159 56.0884 66.0889 56.5091 66.0889 57.0282C66.0889 57.5472 66.7159 57.9679 67.4894 57.9679Z" fill="#CC562A"/>
<path opacity="0.21" d="M104.66 36.3661C104.66 36.8889 104.002 37.3058 103.259 37.3058C102.516 37.3058 101.859 36.8889 101.859 36.3661C101.859 35.8432 102.516 35.4263 103.259 35.4263C104.002 35.4263 104.66 35.8498 104.66 36.3661Z" fill="#CC562A"/>
<path opacity="0.21" d="M216.158 71.4294C216.931 71.4294 217.558 71.0086 217.558 70.4896C217.558 69.9706 216.931 69.5498 216.158 69.5498C215.384 69.5498 214.757 69.9706 214.757 70.4896C214.757 71.0086 215.384 71.4294 216.158 71.4294Z" fill="#CC562A"/>
<path opacity="0.38" d="M234.036 114.626C234.81 114.626 235.437 114.205 235.437 113.686C235.437 113.167 234.81 112.747 234.036 112.747C233.263 112.747 232.635 113.167 232.635 113.686C232.635 114.205 233.263 114.626 234.036 114.626Z" fill="#CC562A"/>
<path opacity="0.38" d="M173.083 108.683C173.083 109.199 172.425 109.616 171.682 109.616C170.939 109.616 170.282 109.199 170.282 108.683C170.282 108.167 170.906 107.743 171.682 107.743C172.458 107.743 173.083 108.16 173.083 108.683Z" fill="#CC562A"/>
<path opacity="0.38" d="M123.939 110.556C124.712 110.556 125.339 110.135 125.339 109.616C125.339 109.097 124.712 108.676 123.939 108.676C123.165 108.676 122.538 109.097 122.538 109.616C122.538 110.135 123.165 110.556 123.939 110.556Z" fill="#CC562A"/>
<path opacity="0.21" d="M79.7786 59.5298C79.7786 60.0527 79.1211 60.4696 78.3781 60.4696C77.6351 60.4696 76.9775 60.0527 76.9775 59.5298C76.9775 59.007 77.6351 58.5967 78.3781 58.5967C79.1211 58.5967 79.7786 59.0136 79.7786 59.5298Z" fill="#CC562A"/>
</g>

</svg>
