<svg width="19" height="55" viewBox="0 0 19 55" fill="none" xmlns="http://www.w3.org/2000/svg">
<path d="M12.9858 10.6175C12.9858 10.6175 14.1737 10.6263 14.5648 12.6818C14.9588 14.7373 15.3064 17.473 15.77 18.5008C16.2335 19.5285 17.0621 21.3679 17.4474 23.2307C17.8327 25.0935 17.9921 26.2701 18.0819 26.6585C18.1717 27.0468 18.5454 28.676 18.5773 29.1636C18.6063 29.6512 18.4498 30.8045 18.4064 31.0059C18.36 31.2045 17.9863 32.241 17.9428 32.2848C17.8965 32.3315 17.6879 32.0687 17.7053 31.9081C17.7227 31.7475 17.8588 30.8921 17.8588 30.8921L17.6647 29.6074C17.6647 29.6074 17.5285 30.7052 17.3576 30.784C17.1867 30.8629 17.0244 30.8132 16.9839 30.7899C16.9433 30.7665 17.0129 29.8059 16.8187 29.0351C16.6246 28.2643 17.0273 27.5169 16.8014 26.8307C16.5754 26.1446 14.7386 22.3168 14.3967 21.073C14.0578 19.8263 12.8554 16.5154 12.4933 15.6336C12.1312 14.7548 12.2644 10.5737 12.9858 10.6175Z" fill="#FFEDE5"/>
<path d="M12.98 14.8483C12.8728 14.4717 12.6208 14.4863 12.3311 14.6673C12.3629 15.0936 12.418 15.444 12.4962 15.6337C12.5918 15.8615 12.7425 16.2556 12.9192 16.7345C13.038 16.3432 13.1944 15.6075 12.98 14.8483Z" fill="#DD825C"/>
<path d="M14.5965 19.5671C14.5849 19.5671 14.5733 19.5613 14.5704 19.5496C14.5646 19.535 14.5733 19.5175 14.5878 19.5116L15.344 19.2343C15.3584 19.2284 15.3758 19.2372 15.3816 19.2518C15.3874 19.2664 15.3787 19.2839 15.3642 19.2897L14.6081 19.5671C14.6023 19.5671 14.5994 19.5671 14.5965 19.5671Z" fill="#472938"/>
<path d="M5.81523 10.6732C5.81523 10.6732 4.4188 10.9127 4.019 12.6849C3.55835 14.7258 3.27733 17.4762 2.81378 18.5039C2.35024 19.5317 1.52166 21.3711 1.13634 23.2339C0.751016 25.0967 0.588776 26.2704 0.498965 26.6587C0.409153 27.047 0.0354214 28.6762 0.00355278 29.1638C-0.0254187 29.6514 0.131027 30.8047 0.174484 31.0062C0.220839 31.2047 0.59457 32.2412 0.638028 32.285C0.681485 32.3288 0.892976 32.069 0.875594 31.9084C0.858211 31.7478 0.722045 30.8923 0.722045 30.8923L0.916154 29.6076C0.916154 29.6076 1.05232 30.7055 1.22325 30.7843C1.39418 30.8631 1.55642 30.8135 1.59698 30.7901C1.63754 30.7668 1.56801 29.8062 1.76212 29.0354C1.95623 28.2646 1.55353 27.5171 1.7795 26.831C2.00548 26.1448 3.84227 22.3171 4.18413 21.0733C4.5231 19.8266 5.72542 16.5156 6.08756 15.6339C6.4526 14.755 6.53662 10.6265 5.81523 10.6732Z" fill="#FFEDE5"/>
<path d="M5.31381 14.584C5.47025 14.2249 5.96277 14.4818 6.25248 14.6628C6.22061 15.0891 6.16557 15.4395 6.08735 15.6293C5.99174 15.857 5.84109 16.2512 5.66436 16.73C5.43838 16.5052 5.13129 15.0044 5.31381 14.584Z" fill="#DD825C"/>
<path d="M3.99264 19.5663C3.98685 19.5663 3.98395 19.5663 3.97816 19.5633L3.35527 19.2246C3.34079 19.2159 3.33499 19.2013 3.34368 19.1867C3.35237 19.1721 3.36686 19.1663 3.38135 19.175L4.00423 19.5137C4.01872 19.5225 4.02451 19.5371 4.01582 19.5517C4.01292 19.5604 4.00133 19.5663 3.99264 19.5663Z" fill="#472938"/>
<path d="M13.8518 54.999H17.4037C17.4907 54.999 17.5602 54.929 17.5602 54.8414C17.5602 54.7333 17.5544 54.5815 17.5399 54.4326H13.7881C13.7678 54.5844 13.7475 54.7246 13.7273 54.853C13.7157 54.929 13.7765 54.999 13.8518 54.999Z" fill="#3B2645"/>
<path d="M17.3777 53.8812C17.1865 53.7585 16.581 53.2388 16.384 51.8958C16.384 51.8958 16.384 51.8958 16.384 51.8928C16.384 51.8899 16.384 51.8841 16.3811 51.8812C16.3666 51.7965 16.2623 51.3907 15.5003 51.3936C14.6515 51.3994 14.5298 52.36 14.4805 52.3483C14.4313 52.3366 14.3096 51.7585 14.0952 51.7527C14.0054 52.6491 13.8924 53.671 13.791 54.433H17.5428C17.5167 54.1877 17.4733 53.9396 17.3777 53.8812Z" fill="#AB8DA8"/>
<path d="M14.4776 52.3484C14.5297 52.3601 14.6485 51.3995 15.4974 51.3936C16.2593 51.3878 16.3636 51.7936 16.3781 51.8812C16.3665 51.8024 16.3549 51.7206 16.3462 51.633C16.2796 50.9557 16.2999 49.6973 16.2999 49.6973L14.2806 49.7498C14.2806 49.7498 14.1994 50.6549 14.0894 51.7498C14.3095 51.7557 14.4283 52.3367 14.4776 52.3484Z" fill="#FFEDE5"/>
<path d="M17.3776 53.8804C17.3776 53.8892 17.3747 53.895 17.3747 53.895C17.3747 53.895 16.6186 53.895 15.6393 53.895C14.6601 53.895 14.4747 52.3476 14.4747 52.3476C14.4225 52.3359 14.3037 51.7578 14.0894 51.752C13.9995 52.6483 13.8866 53.6702 13.7852 54.4323H17.537C17.5167 54.187 17.4732 53.9447 17.3776 53.8804Z" fill="#AB8DA8"/>
<path d="M15.6423 53.8967C16.6215 53.8967 17.3777 53.8967 17.3777 53.8967C17.3777 53.8967 17.3777 53.8909 17.3806 53.8821C17.3806 53.8821 17.3806 53.8821 17.3777 53.8792C17.1864 53.7566 16.5809 53.2369 16.3839 51.8938C16.3839 51.8938 16.3839 51.8938 16.3839 51.8909C16.3839 51.888 16.3839 51.8821 16.381 51.8792C16.3665 51.7945 16.2623 51.3887 15.5003 51.3916C14.6514 51.3975 14.5298 52.358 14.4805 52.3464C14.4776 52.3493 14.663 53.8967 15.6423 53.8967Z" fill="#543753"/>
<path d="M5.23007 54.999H1.67817C1.59126 54.999 1.52173 54.929 1.52173 54.8414C1.52173 54.7333 1.52752 54.5815 1.54201 54.4326H5.29381C5.31409 54.5844 5.33437 54.7246 5.35465 54.853C5.36624 54.929 5.3083 54.999 5.23007 54.999Z" fill="#3B2645"/>
<path d="M1.70423 53.8812C1.89544 53.7585 2.50095 53.2388 2.69795 51.8958C2.69795 51.8958 2.69795 51.8958 2.69795 51.8928C2.69795 51.8899 2.69795 51.8841 2.70085 51.8812C2.71534 51.7965 2.81963 51.3907 3.58158 51.3936C4.43045 51.3994 4.55213 52.36 4.60138 52.3483C4.65063 52.3366 4.77231 51.7585 4.9867 51.7527C5.07651 52.6491 5.1895 53.671 5.2909 54.433H1.54199C1.56517 54.1877 1.61152 53.9396 1.70423 53.8812Z" fill="#AB8DA8"/>
<path d="M4.60439 52.3484C4.55224 52.3601 4.43345 51.3995 3.58459 51.3936C2.82264 51.3878 2.71834 51.7936 2.70386 51.8812C2.71545 51.8024 2.72703 51.7206 2.73573 51.633C2.80236 50.9557 2.78208 49.6973 2.78208 49.6973L4.80139 49.7498C4.80139 49.7498 4.88251 50.6549 4.9926 51.7498C4.77242 51.7557 4.65364 52.3367 4.60439 52.3484Z" fill="#FFEDE5"/>
<path d="M1.70423 53.8804C1.70423 53.8892 1.70713 53.895 1.70713 53.895C1.70713 53.895 2.46328 53.895 3.44252 53.895C4.42175 53.895 4.60717 52.3476 4.60717 52.3476C4.65932 52.3359 4.7781 51.7578 4.99249 51.752C5.0823 52.6483 5.19529 53.6702 5.29669 54.4323H1.54199C1.56517 54.187 1.60863 53.9447 1.70423 53.8804Z" fill="#AB8DA8"/>
<path d="M3.4397 53.8967C2.46047 53.8967 1.70431 53.8967 1.70431 53.8967C1.70431 53.8967 1.70431 53.8909 1.70142 53.8821C1.70142 53.8821 1.70142 53.8821 1.70431 53.8792C1.89552 53.7566 2.50103 53.2369 2.69803 51.8938C2.69803 51.8938 2.69803 51.8938 2.69803 51.8909C2.69803 51.888 2.69803 51.8821 2.70093 51.8792C2.71542 51.7945 2.81971 51.3887 3.58166 51.3916C4.43053 51.3975 4.55221 52.358 4.60146 52.3464C4.60436 52.3493 4.41894 53.8967 3.4397 53.8967Z" fill="#543753"/>
<path d="M15.738 39.7079C15.4888 38.5663 15.512 35.3196 15.2628 30.8407C15.0919 27.7809 14.2662 25.4247 13.7592 24.2393C9.1151 25.7809 6.11077 24.8378 5.04462 24.3648C3.02531 28.9021 3.50044 34.1897 3.56417 36.1167C3.63081 38.1722 3.15568 40.1371 2.66896 42.8817C2.18224 45.6233 2.66896 49.8043 2.66896 49.8043C3.61053 50.1459 4.83312 49.7576 4.83312 49.7576C4.78677 47.6321 5.35461 45.6204 5.8761 43.1298C6.39758 40.6364 6.0789 38.9955 6.75973 37.1444C7.44055 35.2933 9.12669 29.1006 9.12669 29.1006H9.85098C10.1233 31.7517 11.3633 34.6773 12.302 37.2962C13.2406 39.9152 12.8148 41.4247 13.5246 44.5634C14.2344 47.7021 14.159 49.7547 14.159 49.7547C14.9992 50.1197 16.4014 49.6963 16.4014 49.6963C16.4014 49.6963 16.4391 47.4072 16.4623 44.8466C16.4854 42.289 15.9871 40.8495 15.738 39.7079Z" fill="#AB8DA8"/>
<path d="M13.7564 24.2412C13.5217 23.6923 13.3566 23.3916 13.3566 23.3916L5.48211 23.4675C5.32277 23.7624 5.17791 24.0631 5.04175 24.3668C6.1108 24.8398 9.11224 25.7829 13.7564 24.2412Z" fill="#3B2645"/>
<path d="M10.7665 8.14062L10.8882 9.90706C10.9085 10.1844 11.12 10.4063 11.3923 10.4355L12.9887 10.6165C12.9887 10.6165 13.571 14.8589 12.5889 16.6107C11.6067 18.3626 12.1311 20.4881 13.3566 23.3903C13.3566 23.3903 8.32425 24.5319 5.48215 23.4662C5.48215 23.4662 6.73662 20.5582 6.41793 18.456C6.09924 16.3538 5.26776 16.0472 5.31412 14.5874C5.36047 13.1275 5.81243 10.672 5.81243 10.672L7.44642 10.3596C7.61156 10.3275 7.73613 10.1961 7.75931 10.0297L7.99108 8.40048L10.7665 8.14062Z" fill="#FFEDE5"/>
<path d="M7.99414 8.40048C7.99414 8.40048 8.79665 10.6165 10.8449 9.291L10.7667 8.14062L7.99414 8.40048Z" fill="#DD825C"/>
<path d="M12.586 16.6107C12.7511 16.3159 12.8699 15.9538 12.9568 15.5509C12.9916 15.3465 13.0379 14.8414 12.8467 14.0151C12.5918 12.9231 12.6584 10.5786 12.6584 10.5786L11.656 10.4647C11.656 10.4647 11.5054 13.945 9.25427 13.945C7.00319 13.945 7.05823 10.4326 7.05823 10.4326L6.19199 10.599C6.19199 10.599 6.34553 14.1786 5.31705 14.5845C5.27069 16.0472 6.10217 16.3509 6.42086 18.4531C6.44114 18.5903 6.45563 18.7305 6.46432 18.8735C6.46432 18.8735 8.54157 19.7786 12.079 18.8064C12.0558 18.0064 12.2094 17.2823 12.586 16.6107Z" fill="#AB8DA8"/>
<path d="M6.46144 18.8767C6.46144 18.8767 8.5387 19.7818 12.0761 18.8095C12.0703 18.611 12.0761 18.4154 12.0935 18.2256C9.58167 18.9117 7.22339 18.5176 6.39771 18.3365C6.4035 18.3745 6.40929 18.4154 6.41799 18.4562C6.43827 18.5935 6.45275 18.7336 6.46144 18.8767Z" fill="#3B2645"/>
<path d="M8.01126 17.4417C7.51874 17.4417 7.21454 17.3074 7.20006 17.3016C7.18557 17.2958 7.17978 17.2782 7.18557 17.2636C7.19136 17.249 7.20875 17.2432 7.22323 17.249C7.22613 17.252 7.61724 17.4213 8.21406 17.3775C8.43424 17.36 8.60227 17.325 8.76741 17.2899C9.05423 17.2286 9.32366 17.1702 9.76982 17.249C10.329 17.3483 11.0243 17.4447 11.4502 17.2987C11.4647 17.2928 11.482 17.3016 11.4849 17.3162C11.4907 17.3308 11.482 17.3483 11.4676 17.3512C11.033 17.5001 10.3261 17.4038 9.76113 17.3016C9.32656 17.2257 9.07451 17.2782 8.7819 17.3425C8.61386 17.3775 8.44293 17.4155 8.21985 17.433C8.14742 17.4388 8.07789 17.4417 8.01126 17.4417Z" fill="#472938"/>
<path d="M9.29762 23.5867C9.35683 23.5867 9.40482 23.5069 9.40482 23.4086C9.40482 23.3102 9.35683 23.2305 9.29762 23.2305C9.23842 23.2305 9.19043 23.3102 9.19043 23.4086C9.19043 23.5069 9.23842 23.5867 9.29762 23.5867Z" fill="#DD825C"/>
<path d="M12.0259 6.77695C12.1719 6.3689 12.1146 5.97425 11.8979 5.89546C11.6811 5.81668 11.387 6.08359 11.241 6.49164C11.095 6.89968 11.1523 7.29434 11.369 7.37312C11.5858 7.45191 11.8798 7.18499 12.0259 6.77695Z" fill="#FFEDE5"/>
<path d="M7.27091 7.37309C7.48765 7.29431 7.54497 6.89965 7.39893 6.49161C7.25289 6.08356 6.9588 5.81664 6.74206 5.89543C6.52531 5.97422 6.468 6.36887 6.61404 6.77692C6.76007 7.18496 7.05417 7.45188 7.27091 7.37309Z" fill="#FFEDE5"/>
<path d="M7.13905 6.91075C7.13036 6.91075 7.12167 6.90783 7.11588 6.89908L6.83196 6.49323C6.82327 6.48156 6.82616 6.46112 6.83775 6.45236C6.84934 6.4436 6.86672 6.44652 6.87831 6.4582L7.16223 6.86404C7.17092 6.87572 7.16802 6.89616 7.15644 6.90491C7.15064 6.91075 7.14485 6.91075 7.13905 6.91075Z" fill="#472938"/>
<path d="M11.5284 6.8545C11.5226 6.8545 11.5139 6.85158 11.511 6.84866C11.4995 6.83698 11.4995 6.81946 11.5081 6.80778L11.8095 6.46034C11.821 6.44866 11.8384 6.44866 11.85 6.45742C11.8616 6.46909 11.8616 6.48661 11.8529 6.49829L11.5516 6.84574C11.5429 6.85158 11.5342 6.8545 11.5284 6.8545Z" fill="#472938"/>
<path d="M11.528 5.73111C11.528 7.7282 10.627 9.43332 9.32908 9.43332C8.03116 9.43332 6.97949 7.59098 6.97949 5.59389C6.97949 3.5968 8.02826 2.20117 9.32908 2.20117C10.6299 2.20117 11.528 3.73403 11.528 5.73111Z" fill="#FFEDE5"/>
<path d="M9.43712 3.13856C10.4589 3.03193 11.2195 2.28625 11.1359 1.47303C11.0524 0.659819 10.1563 0.0870199 9.13453 0.193649C8.11275 0.300279 7.35216 1.04596 7.43572 1.85917C7.51927 2.67239 8.41533 3.24518 9.43712 3.13856Z" fill="#3B2645"/>
<g opacity="0.5">
<g opacity="0.5">
<path opacity="0.5" d="M9.43659 3.1377C10.4187 3.03551 11.1575 2.34354 11.1401 1.56981C10.8417 1.00047 10.0971 0.641342 9.27145 0.728933C8.28932 0.831124 7.55054 1.5231 7.56793 2.29682C7.86923 2.86617 8.6109 3.2253 9.43659 3.1377Z" fill="#3B2645"/>
</g>
</g>
<path d="M11.5198 6.03016C11.5198 6.03016 10.642 5.01994 10.755 3.86665C10.755 3.86665 9.99012 5.25352 6.97999 5.95717L6.71925 5.90462C6.71925 5.90462 5.76319 1.41992 9.32957 1.40824C11.4764 1.39949 11.6328 2.78051 11.6328 2.78051C11.6328 2.78051 12.8177 3.13672 11.8964 5.89586L11.5198 6.03016Z" fill="#3B2645"/>
<path d="M9.26277 7.50232C9.11502 7.50232 8.9267 7.38261 8.90063 7.33298C8.87165 7.27458 8.95277 6.94466 9.08894 6.58261C9.2338 6.19721 9.15268 5.97239 9.15268 5.96947C9.14688 5.95487 9.15558 5.93736 9.17006 5.93152C9.18455 5.92568 9.20193 5.93444 9.20772 5.94904C9.21062 5.95779 9.29754 6.19137 9.14399 6.60013C8.98464 7.02641 8.94408 7.27458 8.95277 7.30378C8.96726 7.33298 9.14978 7.45269 9.28015 7.44101C9.41342 7.42933 9.61333 7.31546 9.61333 7.31254C9.62781 7.30378 9.6452 7.30962 9.65099 7.32422C9.65968 7.33882 9.65389 7.35634 9.6394 7.36218C9.63071 7.36802 9.42791 7.4848 9.28305 7.49648C9.27726 7.50232 9.26857 7.50232 9.26277 7.50232Z" fill="#472938"/>
<path d="M9.29746 8.17074C8.90055 8.17074 8.63112 7.89921 8.61953 7.88753C8.60794 7.87585 8.60794 7.85833 8.61953 7.84665C8.63112 7.83497 8.6485 7.83497 8.66009 7.84665C8.66299 7.84957 8.92663 8.11235 9.29746 8.11235C9.6683 8.11235 9.93194 7.84957 9.93483 7.84665C9.94642 7.83497 9.96381 7.83497 9.97539 7.84665C9.98698 7.85833 9.98698 7.87585 9.97539 7.88753C9.96381 7.89921 9.69437 8.17074 9.29746 8.17074Z" fill="#472938"/>
<path d="M10.3695 6.35193C10.271 6.34901 10.1957 6.26434 10.1986 6.16507L10.2044 6.0366C10.2073 5.93733 10.2913 5.86142 10.3898 5.86434C10.4883 5.86726 10.5636 5.95193 10.5607 6.0512L10.5549 6.17967C10.552 6.27894 10.468 6.35777 10.3695 6.35193Z" fill="#472938"/>
<path d="M8.30675 6.3502C8.20825 6.35604 8.12423 6.27721 8.12133 6.17794L8.11554 6.04947C8.10974 5.9502 8.18797 5.86553 8.28647 5.86261C8.38497 5.85677 8.46899 5.9356 8.47189 6.03487L8.47768 6.16334C8.48058 6.26261 8.40525 6.34728 8.30675 6.3502Z" fill="#472938"/>
<path d="M10.9198 5.41484C10.9198 5.41484 10.6967 5.21338 10.3577 5.27469C10.0188 5.33601 9.94344 5.35353 9.92026 5.32725C9.89709 5.30389 9.86812 5.11119 10.2592 5.04988C10.6503 4.98856 10.8995 5.26009 10.9198 5.41484Z" fill="#472938"/>
</svg>
