<svg width="43" height="41" viewBox="0 0 43 41" fill="none" xmlns="http://www.w3.org/2000/svg">
<defs>
<clipPath id="clip0_414_7022">
<rect width="43" height="41" fill="white"/>
</clipPath>
</defs>

<g clip-path="url(#clip0_414_7022)">
<path d="M13.8181 1.82662C14.4499 1.76529 15.0778 1.72087 15.7111 1.69917C16.0655 1.67939 16.4235 1.67476 16.7815 1.67012C19.2604 1.59239 21.7418 1.69814 24.2055 1.98651C26.626 2.28873 28.9918 2.9327 31.2325 3.89925C32.3173 4.37032 33.7028 5.64154 32.8105 6.93129C32.3648 7.45566 31.7985 7.8637 31.1603 8.12034C28.6014 9.47346 25.9335 10.609 23.1846 11.5149C16.9997 13.3434 10.375 12.999 4.40931 10.539C3.19521 10.0392 2.06016 9.36492 1.03992 8.53754C-0.084145 7.59619 -0.309358 7.08193 1.00985 6.1469C4.85663 3.6692 9.25711 2.1849 13.8181 1.82662Z" fill="#D88121"/>
<path d="M29.5838 6.3107C28.7544 8.71488 27.215 10.8094 25.1694 12.3168C23.114 13.8108 20.6541 14.6454 18.1143 14.7106C15.3188 14.6902 12.5731 13.9644 10.1309 12.6002C9.03221 12.0226 7.96902 11.3796 6.94703 10.6748C5.88167 10.0667 4.88467 9.34557 3.97325 8.52391C3.06878 7.49873 4.57679 7.12653 5.35371 6.76718C6.39583 6.29089 7.46473 5.87561 8.55501 5.52344C12.9776 4.09959 17.6639 3.68913 22.2676 4.3224C22.8619 4.40582 29.7323 5.89199 29.5838 6.3107Z" fill="white"/>
<path d="M30.2529 4.78598C30.5835 4.64988 30.9435 4.60073 31.2986 4.64322C31.6537 4.68571 31.9921 4.81841 32.2816 5.02873C32.5712 5.23904 32.8023 5.51997 32.953 5.84483C33.1036 6.16969 33.1689 6.52768 33.1425 6.88478C32.6381 14.0053 32.0509 21.1135 31.6332 28.2295C31.5921 28.7987 31.5528 29.3755 31.4947 29.9407C31.1798 32.7964 30.4799 35.7112 28.6059 37.9122C26.8547 39.8547 24.5323 41.1897 21.9737 41.7247C19.4306 42.248 16.837 42.4853 14.241 42.4323C12.3399 42.407 10.4667 41.9687 8.75073 41.1476C6.60325 40.0964 5.57205 38.3658 4.69232 36.1279C2.90898 31.7537 2.12328 27.1438 1.54921 22.4839C0.975132 17.824 0.332798 13.3481 0.00432118 8.78209C-0.263501 5.0809 3.27932 7.07337 5.6879 7.43955C11.7394 8.43144 17.9258 8.21942 23.8937 6.8156C26.0518 6.26596 28.1753 5.58822 30.2529 4.78598Z" fill="#F4BC2F"/>
<path d="M33.3629 33.4238C32.8585 33.4547 32.3524 33.4014 31.8654 33.266C30.9404 32.9817 30.1114 32.4473 29.4698 31.7218C28.8282 30.9962 28.3987 30.1076 28.2288 29.1537C28.0875 28.2558 28.1395 27.3381 28.3812 26.4622C28.623 25.5863 29.0489 24.7724 29.6305 24.0751C30.9298 22.4814 32.713 21.6526 34.4526 20.842L35.281 20.4305C36.5278 19.8764 37.6758 19.122 38.6794 18.1971C39.581 17.3762 40.1835 16.2778 40.3917 15.0752C40.4713 14.5624 40.4246 14.0379 40.2559 13.5471C40.0871 13.0563 39.8013 12.6141 39.4233 12.2588C38.9739 11.9275 38.4482 11.7153 37.8952 11.6419C37.3421 11.5686 36.7796 11.6364 36.2599 11.8392C35.0486 12.3308 34.0138 13.1769 33.2904 14.267C32.4752 15.5023 31.7859 16.8165 31.2327 18.1898C31.1741 18.3723 31.078 18.5406 30.9506 18.6837C30.8233 18.8269 30.6674 18.9418 30.4931 19.021C30.3187 19.1003 30.1298 19.1422 29.9382 19.1441C29.7467 19.1459 29.5569 19.1077 29.381 19.0318C29.205 18.9559 29.0468 18.844 28.9165 18.7034C28.7862 18.5627 28.6867 18.3964 28.6243 18.215C28.5619 18.0336 28.538 17.8412 28.5542 17.6501C28.5704 17.4591 28.6263 17.2735 28.7183 17.1053C29.3372 15.5395 30.1176 14.0426 31.0466 12.639C32.1017 11.0702 33.6217 9.87261 35.3926 9.21469C36.3572 8.8599 37.3964 8.75776 38.4118 8.91795C39.4271 9.07814 40.385 9.49535 41.1946 10.13C41.9366 10.7872 42.5028 11.6198 42.8414 12.5519C43.1801 13.484 43.2805 14.486 43.1334 15.4666C42.8404 17.2756 41.9553 18.9354 40.6173 20.1851C39.4008 21.3256 38.0015 22.2533 36.4777 22.9292L35.6021 23.3439C34.0843 24.0461 32.6629 24.7175 31.7651 25.8487C31.4376 26.2313 31.1938 26.6785 31.0495 27.1613C30.9052 27.6442 30.8635 28.1521 30.9271 28.6522C30.9984 29.107 31.1923 29.5338 31.488 29.8866C31.7836 30.2393 32.1698 30.5045 32.6048 30.6536C32.9834 30.7543 33.3842 30.7305 33.748 30.5855C34.1118 30.4406 34.4193 30.1823 34.6251 29.8487C34.6979 29.6822 34.7373 29.5028 34.7409 29.3209C34.7445 29.1391 34.7122 28.9582 34.646 28.7888C34.6036 28.6454 34.5323 28.5122 34.4365 28.3973C34.3408 28.2825 34.2226 28.1885 34.0893 28.121C33.7786 27.9623 33.5397 27.6913 33.421 27.3629C33.3022 27.0345 33.3124 26.6733 33.4496 26.3523C33.5868 26.0314 33.8407 25.7748 34.1599 25.6344C34.479 25.494 34.8396 25.4804 35.1686 25.5962C35.6455 25.8095 36.0737 26.1183 36.4268 26.5037C36.78 26.889 37.0506 27.3426 37.222 27.8366C37.42 28.3567 37.5092 28.912 37.4841 29.4679C37.4589 30.0238 37.3199 30.5685 37.0756 31.0682C36.7143 31.7498 36.1819 32.3254 35.531 32.7384C34.8801 33.1514 34.1329 33.3876 33.3629 33.4238Z" fill="#F4BC2F"/>
<path d="M25.329 37.5514C23.3306 37.6718 22.9118 39.9527 23.8801 41.1466C25.171 40.6596 26.3703 39.9575 27.4272 39.0699C27.3158 38.6078 27.0431 38.2007 26.6583 37.9222C26.2734 37.6437 25.8019 37.5122 25.329 37.5514Z" fill="white"/>
<path d="M24.8495 17.9551C22.0818 18.1293 22.3494 22.438 25.1189 22.2713C27.8884 22.1047 27.6265 17.7867 24.8495 17.9551Z" fill="white"/>
<path d="M31.5955 28.2386C31.6446 27.3319 31.7106 26.4291 31.754 25.5317C31.5936 25.5112 31.4317 25.504 31.2701 25.5101C28.5269 25.6866 28.7656 29.9062 31.4907 29.8219C31.5292 29.3093 31.5605 28.7664 31.5955 28.2386Z" fill="white"/>
<path d="M21.2467 14.7298C24.0144 14.5556 23.7467 10.247 20.9697 10.4154C18.1926 10.5838 18.4697 14.8983 21.2467 14.7298Z" fill="white"/>
<path d="M32.2476 7.48756C29.4706 7.656 29.74 11.9722 32.5153 11.7962L32.742 11.7427C32.8476 10.343 32.9507 8.94395 33.0513 7.54549C32.789 7.47797 32.5168 7.45835 32.2476 7.48756Z" fill="white"/>
<path d="M22.5573 28.3514C19.7896 28.5256 20.0573 32.8343 22.8326 32.6583C25.6078 32.4823 25.3326 28.1754 22.5573 28.3514Z" fill="white"/>
<path d="M1.89479 24.656L1.84189 24.6685C2.04064 26.0842 2.27897 27.4985 2.54175 28.915C4.91056 28.4034 4.53042 24.497 1.89479 24.656Z" fill="white"/>
<path d="M15.6146 42.4034C15.7711 42.0671 15.8382 41.6959 15.8093 41.3258C15.7804 40.9558 15.6565 40.5994 15.4496 40.2913C15.2428 39.9831 14.96 39.7337 14.6287 39.5671C14.2973 39.4005 13.9287 39.3224 13.5585 39.3405C13.234 39.3594 12.9184 39.4537 12.6366 39.6158C12.3548 39.7779 12.1146 40.0034 11.9348 40.2745C11.7551 40.5457 11.6408 40.855 11.601 41.178C11.5611 41.5011 11.5968 41.829 11.7053 42.136C12.542 42.3288 13.3976 42.427 14.2561 42.4286L15.6146 42.4034Z" fill="white"/>
<path d="M13.4393 18.6682C10.6716 18.8424 10.9317 23.1529 13.707 22.9769C16.4822 22.8009 16.2145 18.4922 13.4393 18.6682Z" fill="white"/>
<path d="M1.17528 15.2592C1.00011 15.2812 0.827811 15.3219 0.661336 15.3806C0.833835 16.7865 1.01568 18.1982 1.18818 19.6041L1.45767 19.5964C4.21999 19.3995 3.95052 15.0832 1.17528 15.2592Z" fill="white"/>
<path d="M10.9996 29.8584C8.23192 30.0326 8.49959 34.3413 11.2673 34.1671C14.035 33.9929 13.7748 29.6824 10.9996 29.8584Z" fill="white"/>
<path d="M8.55095 14.9316C11.3262 14.7556 11.0585 10.447 8.28327 10.623C5.50803 10.799 5.78327 15.1059 8.55095 14.9316Z" fill="white"/>
<g style="mix-blend-mode:multiply">
<path d="M28.606 37.9122C30.4422 35.7201 31.1648 32.8 31.442 29.9532C31.5 29.388 31.5393 28.8112 31.5804 28.242C31.9981 21.126 32.5853 14.0178 33.0897 6.89728C33.1161 6.54018 33.0509 6.18219 32.9002 5.85733C32.7495 5.53247 32.5184 5.25154 32.2288 5.04123C31.9393 4.83092 31.6009 4.69821 31.2458 4.65572C30.8907 4.61323 30.5307 4.66238 30.2001 4.79848C29.7551 4.97551 29.3217 5.13383 28.8959 5.29037C28.8665 6.71997 28.8634 8.15935 28.866 9.58938C28.8685 11.6269 28.8693 13.6568 28.7757 15.693C28.5851 20.9331 27.4801 26.3893 24.3041 30.5442C21.8787 33.6377 18.4996 35.8409 14.6927 36.8109C11.5067 37.6064 8.17457 37.6116 4.98502 36.8261C5.82386 38.722 6.83742 40.2089 8.76596 41.1441C10.4819 41.9652 12.3551 42.4035 14.2562 42.4288C16.8522 42.4817 19.4459 42.2444 21.9889 41.7211C24.5417 41.1841 26.8583 39.8506 28.606 37.9122Z" fill="#E8E8E8"/>
</g>
</g>

</svg>
