<svg width="14" height="46" viewBox="0 0 14 46" fill="none" xmlns="http://www.w3.org/2000/svg">
<path d="M10.6143 19.4383C10.562 19.3501 10.5071 19.2643 10.4548 19.1785C15.5346 14.3093 14.7046 15.0812 10.8087 9.38851C10.7514 9.25373 10.6841 9.1214 10.6018 8.99642L9.94629 6.39882C9.94629 6.39882 11.1328 5.54357 11.4717 4.93828C11.726 4.28888 11.7235 3.66888 11.5415 3.12241C11.5714 3.12486 11.6038 3.12976 11.6338 3.12976C11.7509 3.13956 11.8656 3.13221 11.9777 3.11015C11.9777 3.10525 11.9777 3.10035 11.9777 3.09545C12.7429 2.90186 13.1941 1.94368 12.4339 0.836027C11.3546 -0.644116 9.76683 0.0395922 9.91389 1.3482C8.87698 0.845829 7.60328 0.872786 6.7259 1.75499C5.91333 1.97799 6.3246 3.15426 6.3246 3.15426L6.34454 3.06114C6.31463 3.76446 6.57136 4.64666 6.0579 5.28626C5.91831 5.53132 6.25481 5.58768 6.41682 5.63914C6.41682 5.63914 6.47415 7.02861 6.90537 7.10703C7.01005 7.12664 7.21694 7.08253 7.47616 6.99185L7.67308 9.09934C6.7608 9.96929 5.86597 11.3612 5.4198 11.6749C4.29565 12.4493 3.47062 14.5126 4.82408 15.1841C4.82408 15.1841 4.8515 15.3605 4.88888 15.6252C4.91381 15.7992 4.94372 16.0124 4.97363 16.2354C5.19048 17.7008 5.0185 18.24 5.52449 19.7667C5.59179 19.9799 5.63915 20.2029 5.66407 20.4504C5.68152 20.6268 5.6865 20.8155 5.67903 21.0238C5.65161 21.7565 5.45719 22.7147 5.02598 24.1287C3.341 31.0148 3.79714 34.4872 3.29115 41.4615C3.2413 42.334 3.20641 42.9123 3.20641 42.9123C2.75027 44.1596 0.429693 44.9512 0.247736 45.0467C0.140555 45.1031 0.0682711 45.4315 0.0283901 45.6863C0.0109422 45.7574 -0.00401319 45.8285 0.000971935 45.8848C0.000971935 45.9485 0.0533157 46 0.118122 46H5.07832C5.13565 46 5.17802 45.9559 5.17802 45.8995C5.1855 45.8432 5.17054 45.7696 5.15808 45.6961C5.08829 44.9904 4.92129 43.2872 4.94123 43.0838C4.9512 42.9907 5.12568 42.3732 5.35499 41.5326C5.75131 40.0868 6.30466 37.9817 6.43677 36.7663C6.71095 32.8699 5.73636 33.2105 7.67806 30.1497C7.67806 30.1497 7.68803 30.1767 7.70299 30.2306C7.70299 30.233 7.70548 30.2355 7.70548 30.2379C7.70797 30.2453 7.71046 30.2502 7.71046 30.2576C7.71296 30.2674 7.71545 30.2747 7.71794 30.2845V30.287C7.78275 30.5075 7.90488 30.9805 7.97717 31.5907C7.97717 31.5907 7.97717 31.5907 7.97717 31.5931C7.97966 31.6225 7.98465 31.6519 7.98714 31.6813C7.98714 31.6838 7.98714 31.6862 7.98714 31.6887C7.98963 31.7181 7.99212 31.745 7.99462 31.7745C7.99462 31.7794 7.99462 31.7818 7.99462 31.7867C7.99711 31.8137 7.9996 31.8406 8.00209 31.87C8.00209 31.8749 8.00209 31.8823 8.00459 31.8872C8.00708 31.9141 8.00957 31.9386 8.00957 31.9656C8.01206 31.9901 8.01206 32.0146 8.01456 32.0391C8.08186 33.1321 8.39592 33.4433 8.49811 33.9162C8.58535 34.3083 8.77728 39.3712 8.72244 41.7605C8.70998 42.2506 8.68755 42.628 8.65265 42.829C8.44328 44.0175 6.06288 44.9389 5.69398 44.9953C5.50704 45.0247 5.39737 45.2771 5.33505 45.5221C5.3201 45.581 5.30763 45.6398 5.29766 45.6937C5.27772 45.7696 5.26028 45.8456 5.26775 45.902C5.26526 45.9534 5.30764 45.9975 5.36247 45.9975H10.4623C10.5171 45.9975 10.5595 45.9559 10.5644 45.902C10.5719 45.8603 10.5694 45.8064 10.562 45.75C10.5395 45.2673 10.4224 43.9636 10.375 43.0765C10.3551 43.0765 10.3376 43.0789 10.3202 43.0814C10.3376 43.0789 10.3551 43.0789 10.375 43.0765C10.3775 42.7015 10.4274 42.2678 10.5046 41.7997C11.4019 38.0136 11.8556 35.8694 11.0929 32.3675C10.9633 31.4216 11.7434 25.0403 11.7434 25.0403C12.2569 24.1605 12.2021 21.8398 11.0256 20.1367C10.896 19.9039 10.7564 19.6686 10.6143 19.4383ZM10.9682 16.228C10.6417 16.8603 10.0585 17.6837 9.76184 18.0905C9.55496 17.7695 9.37799 17.4974 9.25585 17.2965C9.25087 17.2891 9.24588 17.2793 9.24339 17.272C9.27579 16.902 9.31069 16.4829 9.34558 16.0516C9.373 15.9781 9.40291 15.8997 9.43532 15.8213C9.5076 15.6375 9.58736 15.4414 9.67211 15.2331C10.0011 14.4906 10.3351 13.7285 10.5919 12.9786L10.9907 13.5349L11.7808 14.6352C11.7783 14.6352 11.4169 15.3556 10.9682 16.228ZM9.54998 43.3803C9.7095 43.373 9.80172 43.3117 9.90392 43.2431C9.80172 43.3117 9.7095 43.3754 9.54998 43.3803Z" fill="#DDDADA"/>
</svg>
