<svg width="21" height="26" viewBox="0 0 21 26" fill="none" xmlns="http://www.w3.org/2000/svg">
<defs>
<linearGradient id="paint0_linear_672_4426" x1="3.59202" y1="23.4596" x2="-0.235128" y2="23.2821" gradientUnits="userSpaceOnUse">
<stop stop-color="#92A3FD"/>
<stop offset="1" stop-color="#9DCEFF"/>
</linearGradient>
<linearGradient id="paint1_linear_672_4426" x1="2.77987" y1="22.0544" x2="1.35767" y2="21.7879" gradientUnits="userSpaceOnUse">
<stop stop-color="#92A3FD"/>
<stop offset="1" stop-color="#9DCEFF"/>
</linearGradient>
<linearGradient id="paint2_linear_672_4426" x1="2.93142" y1="21.5026" x2="1.51337" y2="21.2607" gradientUnits="userSpaceOnUse">
<stop stop-color="#92A3FD"/>
<stop offset="1" stop-color="#9DCEFF"/>
</linearGradient>
<linearGradient id="paint3_linear_672_4426" x1="19.5659" y1="25.3627" x2="12.7662" y2="24.5132" gradientUnits="userSpaceOnUse">
<stop stop-color="#92A3FD"/>
<stop offset="1" stop-color="#9DCEFF"/>
</linearGradient>
<linearGradient id="paint4_linear_672_4426" x1="17.3359" y1="23.5386" x2="16.0144" y2="23.3404" gradientUnits="userSpaceOnUse">
<stop stop-color="#92A3FD"/>
<stop offset="1" stop-color="#9DCEFF"/>
</linearGradient>
<linearGradient id="paint5_linear_672_4426" x1="17.8756" y1="23.8797" x2="16.4139" y2="23.6413" gradientUnits="userSpaceOnUse">
<stop stop-color="#92A3FD"/>
<stop offset="1" stop-color="#9DCEFF"/>
</linearGradient>
<linearGradient id="paint6_linear_672_4426" x1="18.4719" y1="24.1774" x2="17.0293" y2="23.9464" gradientUnits="userSpaceOnUse">
<stop stop-color="#92A3FD"/>
<stop offset="1" stop-color="#9DCEFF"/>
</linearGradient>
<linearGradient id="paint7_linear_672_4426" x1="17.1887" y1="24.5127" x2="-0.862188" y2="22.9633" gradientUnits="userSpaceOnUse">
<stop stop-color="#92A3FD"/>
<stop offset="1" stop-color="#9DCEFF"/>
</linearGradient>
<linearGradient id="paint8_linear_672_4426" x1="6.82158" y1="15.8446" x2="5.82406" y2="15.7683" gradientUnits="userSpaceOnUse">
<stop stop-color="#92A3FD"/>
<stop offset="1" stop-color="#9DCEFF"/>
</linearGradient>
<clipPath id="clip0_672_4426">
<rect width="20.5333" height="25.3151" fill="white" transform="translate(0.466553 0.342529)"/>
</clipPath>
</defs>
<g clip-path="url(#clip0_672_4426)">
<g opacity="0.3">
<path opacity="0.3" d="M5.61437 15.8282H5.60189L5.1229 15.689C5.10647 15.6839 5.09266 15.6724 5.08443 15.657C5.07621 15.6416 5.07422 15.6235 5.0789 15.6067C5.08357 15.5898 5.09455 15.5755 5.10946 15.5667C5.12437 15.558 5.14203 15.5556 5.15866 15.56L5.63433 15.6975C5.64941 15.7026 5.66219 15.713 5.67031 15.7269C5.67844 15.7409 5.68135 15.7573 5.67851 15.7732C5.67567 15.7892 5.66727 15.8035 5.65487 15.8136C5.64247 15.8238 5.6269 15.8289 5.61104 15.8282H5.61437Z" fill="black"/>
<path opacity="0.3" d="M5.12355 16.205C5.10999 16.2037 5.09714 16.1982 5.08673 16.1893C5.07633 16.1803 5.06886 16.1683 5.06534 16.1549C5.06272 16.1461 5.0619 16.1368 5.06294 16.1277C5.06397 16.1185 5.06684 16.1097 5.07137 16.1017C5.07589 16.0938 5.08197 16.0869 5.08924 16.0814C5.0965 16.0759 5.10478 16.0721 5.11357 16.07L5.59256 15.9461C5.60918 15.9424 5.62655 15.9455 5.64101 15.9546C5.65546 15.9638 5.66589 15.9783 5.67009 15.9951C5.67429 16.0119 5.67194 16.0297 5.66353 16.0448C5.65512 16.0599 5.6413 16.0711 5.62499 16.076L5.14517 16.1999C5.13831 16.2028 5.13099 16.2046 5.12355 16.205Z" fill="black"/>
<path opacity="0.3" d="M5.36814 16.6566C5.35236 16.655 5.33764 16.6478 5.32656 16.6362C5.31442 16.6236 5.30762 16.6067 5.30762 16.5891C5.30762 16.5714 5.31442 16.5545 5.32656 16.542L5.68081 16.1897C5.68684 16.1829 5.69417 16.1775 5.70233 16.1737C5.7105 16.1699 5.71934 16.1679 5.72831 16.1677C5.73728 16.1676 5.74618 16.1693 5.75447 16.1728C5.76277 16.1763 5.77027 16.1814 5.77653 16.188C5.78278 16.1946 5.78766 16.2024 5.79085 16.2109C5.79404 16.2195 5.79548 16.2286 5.79508 16.2378C5.79469 16.2469 5.79246 16.2559 5.78854 16.2641C5.78462 16.2723 5.77909 16.2797 5.77229 16.2856L5.4197 16.6396C5.41272 16.6459 5.40454 16.6507 5.39566 16.6536C5.38679 16.6565 5.37742 16.6575 5.36814 16.6566Z" fill="black"/>
<path opacity="0.3" d="M5.79801 16.924H5.78554C5.77705 16.9216 5.76912 16.9174 5.76223 16.9118C5.75534 16.9062 5.74963 16.8992 5.74544 16.8913C5.74125 16.8834 5.73866 16.8747 5.73784 16.8657C5.73701 16.8568 5.73796 16.8477 5.74063 16.8391L5.87202 16.3536C5.87705 16.3368 5.88831 16.3227 5.9034 16.3143C5.91848 16.3059 5.93619 16.3039 5.95273 16.3087C5.96927 16.3135 5.98331 16.3247 5.99185 16.3399C6.00039 16.3551 6.00275 16.3731 5.99842 16.3901L5.86371 16.8756C5.85963 16.89 5.85094 16.9026 5.83904 16.9114C5.82713 16.9202 5.81268 16.9246 5.79801 16.924Z" fill="black"/>
</g>
<path d="M18.7886 9.38672L17.597 10.087L14.9875 10.4724C14.9875 10.4724 13.0823 7.55073 12.7905 7.09152C12.4986 6.63232 12.1568 6.33778 11.366 6.33862L11.5156 8.66947C11.5406 8.74502 13.1181 10.7287 14.1584 11.8101C14.526 12.1912 14.7513 12.2888 15.3226 12.1258C16.7887 11.7108 18.5658 10.4808 18.7088 10.1736C18.9009 9.77208 18.7745 9.39521 18.7886 9.38672Z" fill="#FFEDE5"/>
<path d="M18.2989 7.90901C18.4552 7.38784 19.0939 6.96343 19.6868 7.13319C19.7807 7.15968 19.8707 7.19879 19.9546 7.24948C20.5367 7.58901 20.9999 8.4166 20.9999 9.09735C21.0018 9.21231 20.986 9.32687 20.9533 9.43688C20.7978 9.9572 20.1608 10.385 19.5654 10.2144C19.4716 10.1875 19.3816 10.1484 19.2976 10.0981C18.7205 9.75858 18.2523 8.93013 18.2523 8.24938C18.2506 8.13416 18.2663 8.01936 18.2989 7.90901Z" fill="#455A64"/>
<path d="M19.2985 10.0931C18.7214 9.75353 18.2532 8.92509 18.2532 8.24434C18.2532 7.56359 18.7214 7.28857 19.2985 7.6281C19.8756 7.96762 20.3413 8.79522 20.3413 9.47597C20.3413 10.1567 19.8756 10.4326 19.2985 10.0931Z" fill="#37474F"/>
<path d="M19.2985 8.38262C19.0764 8.25191 18.896 8.35801 18.896 8.61944C18.9035 8.76196 18.9439 8.90065 19.0139 9.02424C19.0838 9.14784 19.1813 9.25285 19.2985 9.33075C19.5205 9.46146 19.7001 9.35536 19.7001 9.09393C19.6927 8.95147 19.6525 8.8128 19.5827 8.6892C19.5129 8.56561 19.4155 8.46056 19.2985 8.38262Z" fill="#455A64"/>
<path d="M19.1604 8.77561C19.163 8.82442 19.1769 8.87191 19.2009 8.91423C19.2249 8.95655 19.2583 8.99252 19.2984 9.01922C19.3116 9.02891 19.3269 9.03514 19.343 9.03736C19.3591 9.03958 19.3755 9.03772 19.3907 9.03195L19.4007 9.02601C19.4126 9.01561 19.4219 9.00252 19.428 8.98779C19.4341 8.97305 19.4367 8.95708 19.4356 8.94113C19.433 8.89241 19.4192 8.84499 19.3954 8.80269C19.3715 8.76038 19.3383 8.72436 19.2984 8.69752C19.2852 8.68783 19.2699 8.6816 19.2538 8.67938C19.2377 8.67716 19.2213 8.67901 19.2061 8.68479L19.1961 8.69073C19.184 8.701 19.1745 8.71404 19.1683 8.72879C19.1621 8.74355 19.1593 8.75959 19.1604 8.77561Z" fill="#37474F"/>
<path d="M16.9526 10.0768C16.9552 10.1256 16.969 10.173 16.9928 10.2153C17.0166 10.2577 17.0499 10.2937 17.0899 10.3205C17.1077 10.3322 17.1285 10.3387 17.1497 10.3391C17.1659 10.3388 17.1817 10.3341 17.1955 10.3255L19.3908 9.03195L19.4008 9.02601C19.4127 9.01561 19.422 9.00252 19.4281 8.98779C19.4342 8.97305 19.4368 8.95708 19.4357 8.94113C19.4331 8.89241 19.4193 8.84499 19.3955 8.80269C19.3717 8.76038 19.3384 8.72436 19.2985 8.69752C19.2853 8.68783 19.27 8.6816 19.2539 8.67938C19.2378 8.67716 19.2214 8.67901 19.2062 8.68479L19.1962 8.69073L17.0009 9.98432C16.9851 9.99354 16.9722 10.0071 16.9637 10.0235C16.9552 10.0399 16.9513 10.0584 16.9526 10.0768Z" fill="#FAFAFA"/>
<path d="M14.7981 9.97254C14.9536 9.45222 15.5906 9.02187 16.186 9.19248C16.28 9.21948 16.3702 9.25856 16.4546 9.30877C17.0317 9.64829 17.4999 10.4767 17.4999 11.1575C17.5013 11.2724 17.4856 11.3869 17.4533 11.497C17.297 12.0173 16.6608 12.4451 16.0654 12.2754C15.9717 12.2484 15.8817 12.2093 15.7977 12.1591C15.2205 11.8196 14.7524 10.9911 14.7524 10.3112C14.7504 10.1966 14.7659 10.0824 14.7981 9.97254Z" fill="#455A64"/>
<path d="M15.7968 12.1557C15.2196 11.8162 14.7515 10.9878 14.7515 10.3078C14.7515 9.62795 15.2196 9.35123 15.7968 9.69076C16.3739 10.0303 16.8421 10.8587 16.8421 11.5395C16.8421 12.2202 16.3747 12.4961 15.7968 12.1557Z" fill="#37474F"/>
<path d="M15.7967 10.4437C15.5746 10.3121 15.395 10.4182 15.395 10.6805C15.4025 10.8228 15.4428 10.9613 15.5126 11.0848C15.5824 11.2082 15.6797 11.3131 15.7967 11.391C16.0187 11.5217 16.1992 11.4156 16.1992 11.1542C16.1915 11.0118 16.151 10.8733 16.0811 10.7498C16.0112 10.6264 15.9137 10.5215 15.7967 10.4437Z" fill="#455A64"/>
<path d="M15.6596 10.8383C15.6622 10.8871 15.676 10.9345 15.6998 10.9768C15.7236 11.0191 15.7569 11.0551 15.7968 11.0819C15.81 11.0916 15.8253 11.0979 15.8414 11.1001C15.8575 11.1023 15.8739 11.1004 15.8892 11.0947C15.8928 11.0934 15.8962 11.0914 15.8991 11.0887C15.9112 11.0784 15.9207 11.0654 15.9269 11.0506C15.9331 11.0359 15.9358 11.0199 15.9349 11.0038C15.9322 10.955 15.9182 10.9076 15.8943 10.8653C15.8703 10.823 15.8369 10.787 15.7968 10.7602C15.7837 10.7508 15.7685 10.7448 15.7525 10.7428C15.7366 10.7407 15.7204 10.7426 15.7054 10.7483L15.6954 10.7543C15.6833 10.7644 15.6738 10.7773 15.6675 10.7919C15.6613 10.8065 15.6586 10.8224 15.6596 10.8383Z" fill="#37474F"/>
<path d="M15.3269 11.0376C15.3293 11.0864 15.343 11.1339 15.3668 11.1762C15.3907 11.2186 15.424 11.2545 15.4641 11.2812C15.482 11.293 15.5027 11.2994 15.524 11.2999C15.5401 11.2995 15.5559 11.2948 15.5697 11.2863L15.8891 11.0978C15.8927 11.0966 15.8961 11.0945 15.899 11.0919C15.9111 11.0816 15.9206 11.0685 15.9268 11.0538C15.933 11.0391 15.9357 11.023 15.9348 11.007C15.9321 10.9582 15.9182 10.9108 15.8942 10.8684C15.8702 10.8261 15.8368 10.7902 15.7968 10.7634C15.7836 10.754 15.7684 10.748 15.7525 10.7459C15.7365 10.7439 15.7203 10.7458 15.7053 10.7515L15.6953 10.7575L15.3751 10.9451C15.3594 10.9543 15.3465 10.9679 15.338 10.9842C15.3294 11.0006 15.3256 11.0191 15.3269 11.0376Z" fill="#FAFAFA"/>
<path d="M15.3269 11.0379C15.3294 11.0868 15.3431 11.1344 15.3669 11.1769C15.3907 11.2193 15.424 11.2555 15.4641 11.2824C15.4774 11.2918 15.4928 11.2978 15.5089 11.2999C15.5249 11.3019 15.5412 11.3 15.5564 11.2942L15.5664 11.2883C15.5786 11.2781 15.5881 11.265 15.5944 11.2503C15.6006 11.2355 15.6033 11.2195 15.6022 11.2034C15.5994 11.1545 15.5854 11.107 15.5615 11.0645C15.5375 11.0221 15.5042 10.9859 15.4641 10.959C15.4508 10.9495 15.4355 10.9436 15.4194 10.9415C15.4033 10.9394 15.387 10.9413 15.3718 10.9471L15.3618 10.953C15.3499 10.9634 15.3405 10.9765 15.3344 10.9912C15.3284 11.006 15.3258 11.022 15.3269 11.0379Z" fill="#E0E0E0"/>
<path d="M18.027 10.771C18.5317 10.378 19.0157 10.3806 18.9284 9.41972C18.8544 8.99531 18.7513 8.96475 18.3463 8.80347C18.1683 8.73302 17.9305 8.67955 17.7883 8.84592C17.7727 8.86682 17.7554 8.88641 17.7367 8.90448C17.6948 8.93176 17.6467 8.94755 17.597 8.95032C17.5022 8.95505 17.4121 8.99383 17.3426 9.05982C17.2952 9.11499 17.2769 9.19053 17.2303 9.24571C17.1856 9.28895 17.1375 9.32841 17.0864 9.36369C17.0499 9.39606 17.0204 9.43591 16.9999 9.48066C16.9794 9.5254 16.9684 9.57405 16.9675 9.62343C16.9709 9.67989 16.9863 9.73492 17.0128 9.78463C17.0392 9.83435 17.076 9.87754 17.1205 9.91118L17.375 9.76179C17.4789 9.68879 17.6935 9.94938 17.6012 10.0869C17.454 10.3059 18.027 10.771 18.027 10.771Z" fill="#FFEDE5"/>
<path d="M12.1478 12.7031C12.3092 12.0376 12.3557 10.3748 12.3557 10.3748L7.63403 10.5191L7.89099 11.569C7.93339 11.8057 7.95592 12.0457 7.95835 12.2863C7.95835 12.2863 8.41655 13.1529 9.77535 13.3049C10.6103 13.3861 11.4473 13.1738 12.1478 12.7031Z" fill="#FFEDE5"/>
<path d="M12.3583 10.3747C12.3641 10.4274 12.3309 10.9307 12.3309 10.9307C11.7271 11.4493 9.79038 11.7116 7.75717 11.0215L7.32642 9.32389C7.32642 9.32389 8.78833 8.66861 7.80042 6.47018L8.86234 6.3853L10.7475 6.33691H11.3662C11.8749 6.8414 12.3049 7.42251 12.641 8.06001C12.888 8.53025 13.2024 9.21949 12.3583 10.3747Z" fill="#455A64"/>
<path d="M9.68647 10.3899C8.83577 10.1684 8.62288 9.62599 8.56218 9.22705C8.56218 9.22705 8.40168 10.3899 9.61745 10.6607C10.8997 10.9459 11.427 9.9095 11.427 9.9095C11.427 9.9095 10.7126 10.6573 9.68647 10.3899Z" fill="#37474F"/>
<path d="M2.44493 23.3301C2.19545 23.516 1.62083 23.561 1.1144 23.3182C0.607969 23.0755 0.396748 22.3845 0.491548 21.8506C0.606306 21.1996 0.921474 20.8439 1.00131 20.4518C1.08114 20.0596 1.00131 19.5181 1.12272 19.1684C1.17276 19.0339 1.2507 18.9122 1.35117 18.8114C1.45164 18.7106 1.57228 18.6331 1.70482 18.5844C1.78932 18.5511 1.88018 18.5379 1.97042 18.546C2.06066 18.5541 2.14788 18.5832 2.22539 18.6311L2.37507 18.721L2.44493 23.3301Z" fill="#263238"/>
<path d="M3.03966 20.8473L2.64549 22.0544C2.64549 22.0544 2.89497 22.9151 2.75443 23.1442C2.54737 23.4838 2.1823 23.5432 1.56777 23.3513C0.865085 23.1332 0.699601 22.4839 0.73619 21.9797C0.786085 21.2607 1.43721 20.72 1.36237 20.0274C1.32578 19.6879 1.37152 19.3084 1.55363 19.0164C1.75737 18.6905 2.09166 18.6294 2.43843 18.7355C2.73614 18.8272 2.99725 19.0181 3.24922 19.1972C3.32156 19.2442 3.38706 19.3014 3.44381 19.367C3.48895 19.4285 3.52276 19.4978 3.5436 19.5716C3.58919 19.7199 3.6028 19.8766 3.58351 20.0308C3.56522 20.1751 3.47458 20.2591 3.39059 20.3703L3.03966 20.8473Z" fill="url(#paint0_linear_672_4426)"/>
<path d="M4.73841 20.2761C4.7143 20.2667 3.51017 19.4807 3.38045 19.4213C3.25072 19.3619 2.93139 19.2778 2.62288 20.007C2.40251 20.5256 2.71934 20.7174 2.71934 20.7174L4.13303 21.5747L4.73841 20.2761Z" fill="#FFEDE5"/>
<path d="M2.6453 22.0544C2.39052 21.9244 2.10845 21.86 1.8237 21.8668C1.80255 21.8689 1.78125 21.8656 1.76165 21.8572C1.74205 21.8489 1.72476 21.8357 1.7113 21.819C1.69783 21.8022 1.6886 21.7823 1.68442 21.7611C1.68024 21.7398 1.68124 21.7178 1.68732 21.6971C1.69532 21.6723 1.71034 21.6506 1.73048 21.6346C1.75061 21.6185 1.77495 21.609 1.80041 21.6071C1.99085 21.5918 2.4532 21.5859 2.76006 21.8439C2.84155 22.012 2.6453 22.0544 2.6453 22.0544Z" fill="url(#paint1_linear_672_4426)"/>
<path d="M2.78995 21.5026C2.54219 21.3594 2.26379 21.2804 1.97916 21.2726C1.95773 21.2736 1.93636 21.2693 1.91699 21.2599C1.89761 21.2504 1.88082 21.2363 1.86813 21.2186C1.85544 21.2009 1.84724 21.1803 1.84427 21.1586C1.8413 21.137 1.84364 21.1148 1.8511 21.0943C1.86027 21.0699 1.87629 21.0489 1.89715 21.0338C1.91801 21.0187 1.94278 21.0102 1.96835 21.0094C2.15961 21.0043 2.62197 21.0239 2.91552 21.2972C2.98786 21.4712 2.78995 21.5026 2.78995 21.5026Z" fill="url(#paint2_linear_672_4426)"/>
<path opacity="0.3" d="M2.6453 22.0544C2.39052 21.9244 2.10845 21.86 1.8237 21.8668C1.80255 21.8689 1.78125 21.8656 1.76165 21.8572C1.74205 21.8489 1.72476 21.8357 1.7113 21.819C1.69783 21.8022 1.6886 21.7823 1.68442 21.7611C1.68024 21.7398 1.68124 21.7178 1.68732 21.6971C1.69532 21.6723 1.71034 21.6506 1.73048 21.6346C1.75061 21.6185 1.77495 21.609 1.80041 21.6071C1.99085 21.5918 2.4532 21.5859 2.76006 21.8439C2.84155 22.012 2.6453 22.0544 2.6453 22.0544Z" fill="black"/>
<path opacity="0.3" d="M2.78995 21.5026C2.54219 21.3594 2.26379 21.2804 1.97916 21.2726C1.95773 21.2736 1.93636 21.2693 1.91699 21.2599C1.89761 21.2504 1.88082 21.2363 1.86813 21.2186C1.85544 21.2009 1.84724 21.1803 1.84427 21.1586C1.8413 21.137 1.84364 21.1148 1.8511 21.0943C1.86027 21.0699 1.87629 21.0489 1.89715 21.0338C1.91801 21.0187 1.94278 21.0102 1.96835 21.0094C2.15961 21.0043 2.62197 21.0239 2.91552 21.2972C2.98786 21.4712 2.78995 21.5026 2.78995 21.5026Z" fill="black"/>
<path d="M15.0617 23.4608L16.6259 22.8276C16.5993 22.4159 16.4995 21.8676 16.6034 20.7904L14.8289 20.4458V22.2589L15.0617 23.4608Z" fill="#FFEDE5"/>
<path d="M19.5246 24.8631C19.5662 24.9916 19.5585 25.1314 19.503 25.2544C19.4498 25.369 18.8635 25.706 18.0727 25.6516C17.4863 25.6097 16.9215 25.4084 16.437 25.0685C16.136 24.8648 15.8216 24.8266 15.4308 24.8037C15.0399 24.7808 14.5244 24.5813 14.4387 24.3945C14.3531 24.2078 14.452 23.8853 14.452 23.8853L19.5246 24.8631Z" fill="#263238"/>
<path d="M16.334 22.3439L16.3964 22.3303C16.4303 22.321 16.4657 22.3193 16.5003 22.3252C16.5387 22.3373 16.5728 22.3606 16.5985 22.3923C16.6759 22.493 16.7433 22.6013 16.7997 22.7157C16.966 22.9915 17.3136 23.2207 17.6936 23.4287C17.9523 23.5704 18.2051 23.6833 18.472 23.803C18.7389 23.9227 19.1048 24.0042 19.3177 24.151C19.6279 24.3641 19.6686 24.9005 19.3177 25.1119C19.0134 25.2952 18.2109 25.493 17.3693 25.2494C16.9103 25.117 16.4014 24.617 15.8001 24.5703C15.4176 24.5398 14.6933 24.4303 14.4472 24.134C14.3565 24.0025 14.4779 23.5848 14.5777 23.2249C14.6867 22.8319 14.7266 22.1393 14.8546 22.1741C14.8546 22.1741 14.8197 22.2717 14.8696 22.3244C14.9195 22.377 15.095 22.4822 15.1465 22.5264C15.2327 22.6161 15.3023 22.7211 15.3519 22.8362C15.3725 22.8882 15.4109 22.9307 15.46 22.9559C15.5249 22.9805 15.5731 22.9389 15.6263 22.9126C15.6983 22.8797 15.7793 22.874 15.855 22.8965C15.8477 22.8185 15.8341 22.7413 15.8143 22.6656C15.8058 22.6417 15.8038 22.6159 15.8085 22.5909C15.8189 22.5676 15.836 22.5481 15.8575 22.5349C16.0015 22.4379 16.1638 22.3728 16.334 22.3439Z" fill="url(#paint3_linear_672_4426)"/>
<path d="M17.3359 23.2164C17.3359 23.2164 17.281 23.0662 17.054 23.0237C16.8793 22.9906 16.5717 23.1213 16.3804 23.2784C16.3624 23.2935 16.3483 23.3129 16.3393 23.3349C16.3303 23.3569 16.3266 23.3808 16.3287 23.4045C16.3307 23.4282 16.3384 23.4511 16.351 23.4711C16.3637 23.4911 16.3809 23.5077 16.4012 23.5194C16.4273 23.5347 16.4574 23.5411 16.4873 23.5377C16.5172 23.5344 16.5453 23.5214 16.5675 23.5008C16.778 23.3082 17.0534 23.2063 17.3359 23.2164Z" fill="url(#paint4_linear_672_4426)"/>
<path d="M17.8756 23.5246C17.8379 23.4703 17.788 23.4261 17.7301 23.3955C17.6723 23.3649 17.6081 23.3489 17.5429 23.3489C17.5429 23.3489 17.088 23.3625 16.8061 23.6298C16.789 23.6446 16.7755 23.6633 16.767 23.6845C16.7584 23.7056 16.7549 23.7286 16.7569 23.7514C16.7588 23.7742 16.7661 23.7962 16.7782 23.8155C16.7902 23.8349 16.8067 23.8509 16.8261 23.8624C16.8508 23.8764 16.8792 23.8822 16.9072 23.8788C16.9353 23.8755 16.9616 23.8632 16.9824 23.8437C17.0985 23.7259 17.239 23.636 17.3935 23.5808C17.5481 23.5256 17.7128 23.5064 17.8756 23.5246Z" fill="url(#paint5_linear_672_4426)"/>
<path d="M18.4719 23.8028C18.4285 23.7524 18.375 23.7122 18.3151 23.6848C18.2551 23.6574 18.19 23.6435 18.1243 23.6441C18.1243 23.6441 17.7002 23.6602 17.4192 23.9276C17.4018 23.9421 17.3881 23.9608 17.3794 23.9819C17.3706 24.0031 17.367 24.0261 17.3689 24.049C17.3708 24.0719 17.3781 24.0939 17.3902 24.1133C17.4022 24.1327 17.4188 24.1487 17.4383 24.1601C17.4631 24.1741 17.4916 24.1798 17.5198 24.1764C17.548 24.1731 17.5744 24.1609 17.5955 24.1415C17.7056 24.0193 17.8423 23.925 17.9944 23.8662C18.1466 23.8074 18.3101 23.7857 18.4719 23.8028Z" fill="url(#paint6_linear_672_4426)"/>
<path opacity="0.3" d="M17.3359 23.2164C17.3359 23.2164 17.281 23.0662 17.054 23.0237C16.8793 22.9906 16.5717 23.1213 16.3804 23.2784C16.3624 23.2935 16.3483 23.3129 16.3393 23.3349C16.3303 23.3569 16.3266 23.3808 16.3287 23.4045C16.3307 23.4282 16.3384 23.4511 16.351 23.4711C16.3637 23.4911 16.3809 23.5077 16.4012 23.5194C16.4273 23.5347 16.4574 23.5411 16.4873 23.5377C16.5172 23.5344 16.5453 23.5214 16.5675 23.5008C16.778 23.3082 17.0534 23.2063 17.3359 23.2164Z" fill="black"/>
<path opacity="0.3" d="M17.8756 23.5246C17.8379 23.4703 17.788 23.4261 17.7301 23.3955C17.6723 23.3649 17.6081 23.3489 17.5429 23.3489C17.5429 23.3489 17.088 23.3625 16.8061 23.6298C16.789 23.6446 16.7755 23.6633 16.767 23.6845C16.7584 23.7056 16.7549 23.7286 16.7569 23.7514C16.7588 23.7742 16.7661 23.7962 16.7782 23.8155C16.7902 23.8349 16.8067 23.8509 16.8261 23.8624C16.8508 23.8764 16.8792 23.8822 16.9072 23.8788C16.9353 23.8755 16.9616 23.8632 16.9824 23.8437C17.0985 23.7259 17.239 23.636 17.3935 23.5808C17.5481 23.5256 17.7128 23.5064 17.8756 23.5246Z" fill="black"/>
<path opacity="0.3" d="M18.4719 23.8028C18.4285 23.7524 18.375 23.7122 18.3151 23.6848C18.2551 23.6574 18.19 23.6435 18.1243 23.6441C18.1243 23.6441 17.7002 23.6602 17.4192 23.9276C17.4018 23.9421 17.3881 23.9608 17.3794 23.9819C17.3706 24.0031 17.367 24.0261 17.3689 24.049C17.3708 24.0719 17.3781 24.0939 17.3902 24.1133C17.4022 24.1327 17.4188 24.1487 17.4383 24.1601C17.4631 24.1741 17.4916 24.1798 17.5198 24.1764C17.548 24.1731 17.5744 24.1609 17.5955 24.1415C17.7056 24.0193 17.8423 23.925 17.9944 23.8662C18.1466 23.8074 18.3101 23.7857 18.4719 23.8028Z" fill="black"/>
<path d="M16.1311 14.3555C14.9419 14.0831 12.1021 13.477 12.1021 13.477L12.1478 12.7029C11.1208 13.2461 8.9562 13.0925 7.95831 12.2861L7.80114 13.1069C7.42278 13.5693 7.09513 14.0725 6.82403 14.6076C6.59618 15.0685 6.21532 15.7875 6.59452 17.4622C6.81738 18.446 7.11425 21.0357 7.11425 21.0357L4.20373 19.9407C4.20373 19.9407 3.95426 19.984 3.74303 20.5409C3.6183 20.8702 3.57672 21.1868 3.70312 21.3506C4.76754 22.2088 6.49223 23.6102 8.23522 24.3962C9.39943 24.8511 10.0181 23.8521 10.0747 23.482C10.2934 22.0645 10.5453 17.5097 10.5453 17.5097L14.4371 17.3833C14.3082 18.1353 14.8321 21.0739 14.8321 21.0739C14.8321 21.0739 15.7901 21.4983 16.5834 21.0637C16.5834 21.0637 17.114 17.6821 17.1655 16.554C17.2179 15.296 17.2811 14.6195 16.1311 14.3555Z" fill="url(#paint7_linear_672_4426)"/>
<path opacity="0.15" d="M14.437 17.3834C14.437 17.1805 14.5693 16.4717 15.0192 16.094C15.0192 16.094 14.4021 16.2069 14.1194 17.3935L14.437 17.3834Z" fill="black"/>
<path opacity="0.15" d="M7.11434 21.0359C7.11434 21.0359 7.1975 22.1538 7.40705 22.6987C7.40705 22.6987 6.88233 21.7311 6.82495 20.9255L7.11434 21.0359Z" fill="black"/>
<path opacity="0.15" d="M12.1013 13.4771L12.147 12.7039C11.12 13.2463 8.95623 13.0926 7.95917 12.2871L7.802 13.1071C7.81032 13.1147 8.45063 13.7904 10.1155 13.8778C11.7803 13.9652 12.1013 13.4771 12.1013 13.4771Z" fill="black"/>
<path opacity="0.15" d="M10.5486 17.5099C10.5348 17.0897 10.4375 16.6768 10.2625 16.2963C10.0875 15.9157 9.83858 15.5754 9.53076 15.2961C9.53076 15.2961 10.4255 15.7206 10.7249 17.0642C10.7249 17.0642 11.3902 16.7476 11.7378 15.7986C11.7378 15.7986 11.6313 16.7476 11.0958 17.2875L12.7099 17.4394L10.5486 17.5099Z" fill="black"/>
<path d="M10.0297 0.342533C9.68804 0.341975 9.34963 0.410167 9.03382 0.54321C8.71801 0.676253 8.43099 0.871536 8.18917 1.11789C7.94735 1.36425 7.75548 1.65685 7.62454 1.97895C7.49359 2.30105 7.42613 2.64635 7.42603 2.99508C7.42602 3.34389 7.4934 3.68927 7.6243 4.01147C7.7552 4.33367 7.94705 4.62637 8.18887 4.87282C8.4307 5.11926 8.71776 5.31462 9.03363 5.44772C9.3495 5.58081 9.68797 5.64903 10.0297 5.64848C10.7183 5.64735 11.3784 5.36728 11.8648 4.86976C12.3513 4.37225 12.6244 3.69799 12.6242 2.99508C12.6242 2.29232 12.351 1.61827 11.8646 1.12094C11.3781 0.623618 10.7182 0.343657 10.0297 0.342533Z" fill="#263238"/>
<path d="M7.31469 1.95509C7.40867 1.9507 7.50285 1.9561 7.59576 1.97122C7.62725 1.97333 7.65686 1.98724 7.67892 2.01026C7.69172 2.02931 7.69893 2.05169 7.69971 2.07477C7.72117 2.22214 7.70777 2.37261 7.66062 2.51361C7.62404 2.61207 7.51011 2.66215 7.43776 2.73345C7.15669 3.01187 7.13424 3.47277 7.24484 3.85559C7.35544 4.2384 7.57747 4.57963 7.72133 4.94971C7.86519 5.31979 7.9417 5.76542 7.73796 6.13805C7.65896 6.28065 7.5151 6.3927 7.53256 6.56246C7.55252 6.77042 7.73048 6.96904 7.80698 7.15663C7.89096 7.37886 7.91953 7.61891 7.89014 7.85521C7.86908 8.149 7.7622 8.42959 7.58329 8.66073C7.44653 8.82341 7.26997 8.94619 7.0716 9.01657C6.87323 9.08695 6.66013 9.10241 6.454 9.06137C6.3671 9.04589 6.28486 9.01017 6.21368 8.95697C6.09144 8.85681 6.04237 8.69299 5.97585 8.54784C5.76213 8.07844 5.31058 7.73722 5.17337 7.23897C5.02452 6.70846 5.27233 6.15673 5.57669 5.70601C5.71889 5.4955 5.87772 5.28924 5.94757 5.04308C6.04154 4.71119 5.95921 4.35809 5.93759 4.01262C5.91697 3.67517 5.95497 3.33665 6.04986 3.01271C6.11805 2.77844 6.22366 2.50852 6.40245 2.34045C6.65336 2.1076 6.97595 1.97133 7.31469 1.95509Z" fill="#263238"/>
<path d="M11.6546 1.55615C11.939 1.73016 12.2891 2.46438 12.2484 4.00074C12.2134 5.30282 11.7985 5.62283 11.5906 5.71535C11.3827 5.80787 10.9819 5.74845 10.5927 5.68055V6.46231C10.5927 6.46231 11.1282 7.10231 11.0916 7.46136C11.055 7.82041 10.3133 7.90105 9.811 7.54624C9.30873 7.19144 8.88712 6.50984 8.88712 6.50984L8.90375 4.71205C8.90375 4.71205 8.67174 4.94123 8.28339 4.59321C7.9649 4.30547 7.85846 3.82249 8.10959 3.56785C8.36073 3.3132 8.82226 3.38195 8.99855 3.75204C8.99855 3.75204 9.61891 3.7775 10.448 3.31744C10.7705 3.14125 11.0478 2.88997 11.2575 2.58397C11.4671 2.27796 11.6032 1.92584 11.6546 1.55615Z" fill="#FFEDE5"/>
<path d="M10.8247 3.66834C10.8248 3.70052 10.8156 3.73203 10.7984 3.75894C10.7811 3.78585 10.7564 3.80696 10.7274 3.81964C10.6984 3.83233 10.6665 3.83602 10.6354 3.83026C10.6044 3.8245 10.5758 3.80955 10.553 3.78726C10.5303 3.76498 10.5145 3.73635 10.5076 3.70495C10.5007 3.67355 10.503 3.64077 10.5142 3.61071C10.5254 3.58064 10.5451 3.55462 10.5707 3.53588C10.5964 3.51715 10.6268 3.50654 10.6583 3.50537C10.7013 3.50534 10.7426 3.52229 10.7736 3.55267C10.8047 3.58305 10.8229 3.62451 10.8247 3.66834Z" fill="#263238"/>
<g style="mix-blend-mode:multiply" opacity="0.5">
<g style="mix-blend-mode:multiply" opacity="0.5">
<path d="M10.8613 4.77246L11.233 4.89469C11.2263 4.92016 11.2145 4.94398 11.1985 4.96471C11.1825 4.98544 11.1626 5.00266 11.1399 5.01534C11.1173 5.02802 11.0923 5.0359 11.0666 5.03851C11.0409 5.04111 11.0149 5.03839 10.9902 5.0305C10.9401 5.01303 10.8986 4.97632 10.8745 4.92815C10.8505 4.87998 10.8457 4.82414 10.8613 4.77246Z" fill="#F28F8F"/>
</g>
</g>
<path d="M12.1428 3.17058L11.8193 2.9397C11.8329 2.91734 11.8508 2.89805 11.8719 2.88302C11.893 2.86798 11.917 2.85751 11.9422 2.85227C11.9674 2.84702 11.9935 2.8471 12.0187 2.8525C12.0439 2.8579 12.0677 2.86852 12.0888 2.88368C12.1317 2.9156 12.1612 2.96298 12.1713 3.01624C12.1813 3.06951 12.1711 3.12468 12.1428 3.17058Z" fill="#263238"/>
<path d="M12.0663 3.55446C12.0666 3.58667 12.0576 3.61826 12.0405 3.64528C12.0233 3.6723 11.9986 3.69354 11.9697 3.70635C11.9407 3.71917 11.9087 3.72298 11.8776 3.71732C11.8466 3.71166 11.8178 3.69677 11.795 3.67452C11.7722 3.65227 11.7563 3.62365 11.7493 3.59223C11.7424 3.56081 11.7446 3.52799 11.7558 3.49787C11.767 3.46776 11.7867 3.44168 11.8123 3.42291C11.838 3.40414 11.8685 3.3935 11.9 3.39233C11.9429 3.39229 11.9841 3.40912 12.0151 3.43933C12.046 3.46953 12.0644 3.51077 12.0663 3.55446Z" fill="#263238"/>
<g style="mix-blend-mode:multiply" opacity="0.5">
<g style="mix-blend-mode:multiply" opacity="0.5">
<path d="M11.3096 3.45776L11.3312 4.44409L11.8401 4.28536L11.3096 3.45776Z" fill="#F28F8F"/>
</g>
</g>
<g style="mix-blend-mode:multiply" opacity="0.5">
<g style="mix-blend-mode:multiply" opacity="0.5">
<path d="M10.5937 5.68072C10.1829 5.6247 9.33969 5.37345 9.20996 5.03223C9.26222 5.20466 9.36495 5.35662 9.50434 5.46767C9.75548 5.69006 10.592 5.9447 10.592 5.9447L10.5937 5.68072Z" fill="#F28F8F"/>
</g>
</g>
<path d="M7.80027 6.47095C6.99531 6.52952 6.66351 6.63392 6.21529 7.6491C5.81197 8.56158 4.84734 10.923 4.60618 11.4492C4.36502 11.9755 4.31929 12.1869 4.52302 12.7378C4.68934 13.1868 6.04814 15.7663 6.19699 16.1423C6.34584 16.5184 6.41154 16.8986 6.66517 17.3366C6.9188 17.7746 7.31962 18.2024 7.63645 18.3034C8.1063 18.4537 8.71751 18.2449 8.73497 17.9554C8.75243 17.666 8.04559 17.183 7.8535 16.5404C7.98133 16.6262 8.11596 16.7008 8.25598 16.7637C8.44641 16.8435 8.65929 16.8256 8.72249 16.7153C8.78569 16.605 8.59526 16.5379 8.42562 16.3656C8.32417 16.2629 8.14455 16.032 7.91503 15.8283C7.75953 15.6908 7.50506 15.65 7.39031 15.4989C7.32877 15.4183 7.04936 14.7197 6.83897 14.0976C6.57952 13.326 6.23774 12.2989 6.23774 12.2989L7.63645 9.32806C7.63645 9.32806 8.73331 8.21102 7.80027 6.47095Z" fill="#FFEDE5"/>
<path d="M6.19463 16.1423C6.19463 16.1423 6.51645 15.4777 7.38795 15.4989L7.1576 14.9761C7.1576 14.9761 6.3069 15.0372 5.94849 15.6254L6.19463 16.1423Z" fill="#37474F"/>
<path d="M6.10039 15.5779L6.2875 15.8486C6.30104 15.8683 6.31833 15.885 6.33834 15.8977C6.35834 15.9105 6.38065 15.9189 6.40393 15.9227C6.42722 15.9264 6.451 15.9253 6.47385 15.9194C6.49671 15.9136 6.51818 15.9031 6.53697 15.8885L6.8696 15.6339C6.90827 15.6037 6.93418 15.5595 6.94206 15.5105C6.94994 15.4614 6.9392 15.4112 6.91201 15.3699L6.73821 15.1085C6.72514 15.0883 6.70817 15.071 6.68836 15.0578C6.66854 15.0445 6.64628 15.0355 6.62294 15.0313C6.5996 15.0271 6.57567 15.0278 6.55259 15.0333C6.52952 15.0388 6.5078 15.0491 6.48874 15.0635L6.13615 15.3181C6.09776 15.3478 6.07244 15.3918 6.06574 15.4405C6.05904 15.4891 6.0715 15.5385 6.10039 15.5779Z" fill="#263238"/>
<path d="M6.03829 15.5712L6.22706 15.8419C6.24068 15.8615 6.258 15.8781 6.27801 15.8908C6.29802 15.9034 6.3203 15.9119 6.34356 15.9156C6.36681 15.9193 6.39055 15.9182 6.41339 15.9124C6.43623 15.9066 6.4577 15.8962 6.47654 15.8818L6.80917 15.6272C6.8478 15.597 6.87375 15.5529 6.88178 15.5039C6.8898 15.4549 6.87931 15.4046 6.85241 15.3632L6.67861 15.1018C6.66545 15.0817 6.64846 15.0645 6.62863 15.0513C6.60881 15.0381 6.58658 15.0292 6.56328 15.0249C6.53997 15.0207 6.51607 15.0214 6.49302 15.0269C6.46997 15.0323 6.44824 15.0425 6.42914 15.0568L6.07655 15.3157C6.03877 15.3447 6.01362 15.3877 6.00648 15.4355C5.99933 15.4832 6.01075 15.5319 6.03829 15.5712Z" fill="#455A64"/>
<path d="M6.81824 15.482C6.81404 15.5156 6.797 15.5461 6.77084 15.5669L6.43821 15.8216C6.42665 15.831 6.41324 15.8378 6.39889 15.8414C6.38454 15.8451 6.36959 15.8455 6.35505 15.8428C6.34079 15.8405 6.32712 15.8354 6.31484 15.8277C6.30255 15.8199 6.29191 15.8098 6.28353 15.7978L6.09393 15.5262C6.07794 15.5036 6.07081 15.4758 6.07398 15.4481C6.07511 15.4313 6.07987 15.415 6.08792 15.4003C6.09597 15.3856 6.10712 15.373 6.12055 15.3632L6.47313 15.1086C6.48493 15.0996 6.4984 15.0933 6.51271 15.0899C6.52702 15.0866 6.54186 15.0863 6.55629 15.089C6.57053 15.0916 6.58413 15.0971 6.59627 15.1051C6.60841 15.1131 6.61885 15.1235 6.62698 15.1357L6.80078 15.3972C6.81709 15.4221 6.82416 15.4522 6.82073 15.482H6.81824Z" fill="url(#paint8_linear_672_4426)"/>
</g>

</svg>
