<svg width="37" height="38" viewBox="0 0 37 38" fill="none" xmlns="http://www.w3.org/2000/svg">
<g clip-path="url(#clip0_678_3973)">
<path d="M36.0992 3.81049C34.6441 1.46826 29.5168 0 17.1834 0C12.9915 0 8.73025 0.48942 4.78082 1.99264C3.49898 2.51702 0.207781 3.88041 0.103849 7.20147C0.0692046 7.90064 0.484935 8.49494 0.623512 9.19411L1.10853 11.1168C1.10853 11.0469 1.10853 11.012 1.10853 10.942C3.6722 22.9328 19.1235 21.919 28.0271 18.5281C31.3529 17.2696 33.9166 15.4867 35.5102 12.2006C36.1338 10.9071 36.7228 9.1242 36.9306 7.69089C36.9999 7.23643 36.896 6.85189 36.9653 6.39742C36.896 5.41858 36.5495 4.54462 36.0992 3.81049Z" fill="#688EAD"/>
<path d="M3.84539 6.60719C4.39969 6.46735 4.98864 6.46735 5.50831 6.32752C6.27048 6.11777 6.85943 5.55843 7.48303 5.10397C8.557 4.36984 9.80419 3.88042 11.086 3.74058C12.4371 3.56579 13.8576 3.74058 15.2087 3.53083C16.5944 3.32108 17.9456 2.72678 19.366 2.7967C20.7171 2.86662 21.9643 3.49587 23.3154 3.60075C24.8398 3.74058 26.468 3.18124 27.9231 3.77554C28.616 4.05521 29.2049 4.57959 29.9325 4.78934C30.4175 4.92917 30.9371 4.92917 31.4222 4.96413C32.5308 5.10397 33.5355 5.6633 34.5401 6.18768C35.3023 6.60719 36.0991 7.06165 36.4456 7.8657C36.8613 8.8795 36.3416 10.0681 35.5795 10.8721C34.2283 12.3404 32.2536 13.0046 30.3135 13.494C26.0523 14.5428 21.6179 14.7525 17.218 14.8574C13.8229 14.9623 10.3931 14.9973 7.03265 14.333C5.78546 14.0883 4.50363 13.7038 3.60288 12.8298C2.04389 11.2217 0.796697 7.44619 3.84539 6.60719Z" fill="#F4D09F"/>
<path d="M28.7547 5.52375C28.6854 5.76846 28.4429 5.94325 28.235 6.08309C27.8886 6.3278 27.4728 6.53755 27.0571 6.71234C26.8839 6.78226 26.7107 6.85218 26.5721 6.99201C26.4335 7.13185 26.3989 7.37656 26.5374 7.48143C26.6067 7.55135 26.676 7.55135 26.7453 7.58631C27.265 7.69118 27.7153 7.3416 28.235 7.27168C28.6161 7.20176 28.9972 7.27168 29.3783 7.30664C29.7594 7.30664 30.1751 7.27168 30.4522 7.02697C30.5562 6.95705 30.6255 6.85218 30.6255 6.71234C30.6255 6.57251 30.5562 6.46763 30.4176 6.43267C30.9026 6.64243 31.4569 6.71234 32.0112 6.67738C32.1498 6.67738 32.323 6.60747 32.3923 6.46763C32.427 6.39772 32.3923 6.3278 32.3923 6.25788C32.2884 5.83838 31.8034 5.62863 31.3876 5.55871C30.9719 5.48879 30.5215 5.48879 30.1751 5.24408C30.0019 5.13921 29.8979 4.96441 29.7247 4.85954C29.4129 4.64979 28.7547 4.50995 28.4429 4.75466C28.6507 4.92945 28.8586 5.20912 28.7547 5.52375Z" fill="#F2C194"/>
<path d="M22.2415 8.14524C22.1029 8.42491 21.7911 8.52979 21.4793 8.63466C21.029 8.80946 20.6479 9.01921 20.3014 9.33384C20.2668 9.3688 20.2321 9.40375 20.1975 9.47367C20.0936 9.68342 20.3707 9.85822 20.6132 9.82326C20.8211 9.7883 21.029 9.64846 21.2368 9.64846C21.514 9.64846 21.7218 9.82326 21.9644 9.89317C22.1376 9.92813 22.3454 9.92813 22.5187 9.89317C23.3848 9.7883 24.2162 9.68342 25.0823 9.57855C25.3941 9.54359 25.7752 9.47367 25.9484 9.194C25.9831 9.12408 26.0177 9.05417 26.0177 8.98425C25.9831 8.84442 25.8445 8.7745 25.7406 8.73954C25.3595 8.63466 24.9438 8.59971 24.5627 8.63466C24.4934 8.28508 25.1863 8.21516 25.2209 7.83062C24.632 7.69078 24.0084 7.58591 23.4194 7.44607C22.7958 7.30624 22.1722 7.20136 21.5833 7.27128C21.8951 7.41111 22.484 7.65582 22.2415 8.14524Z" fill="#F2C194"/>
<path d="M26.2948 10.6276C26.8145 10.348 27.2302 9.85855 27.3341 9.26426C28.3042 9.26426 29.3781 9.26426 30.1403 8.635C30.3135 8.49517 30.4521 8.32038 30.6253 8.2155C30.8332 8.07567 31.1103 8.04071 31.3875 8.00575C32.115 7.90087 32.8079 7.796 33.5354 7.65616C33.6047 7.65616 33.7087 7.6212 33.7779 7.65616C33.9165 7.72608 33.9512 7.93583 33.9165 8.07567C33.7779 8.60004 33.2583 8.94963 32.7386 9.08947C32.219 9.2293 31.6646 9.26426 31.145 9.43905C30.66 9.61384 30.2442 9.96343 29.8285 10.2431C29.2396 10.6276 28.616 10.9423 27.9231 11.187C26.5027 11.6764 24.9783 11.7114 23.454 11.7463C22.6572 11.7813 21.895 11.7813 21.1328 11.6414C21.895 11.0471 22.969 11.3268 23.8351 11.2569C24.6319 11.152 25.5673 11.0471 26.2948 10.6276Z" fill="#F2C194"/>
<path d="M12.4374 7.20118C12.6453 7.23614 12.8878 7.23614 13.0957 7.16623C13.3035 7.09631 13.5114 6.92152 13.5114 6.71176C13.5114 6.53697 13.4421 6.39714 13.3035 6.2573C13.1649 6.15243 13.0264 6.08251 12.8532 6.01259C12.2296 5.80284 10.8091 5.59309 10.4973 6.39714C10.2202 7.2711 12.0217 7.16623 12.4374 7.20118Z" fill="#BF9777"/>
<path d="M11.1901 6.95624C12.032 6.95624 12.7145 6.26757 12.7145 5.41806C12.7145 4.56855 12.032 3.87988 11.1901 3.87988C10.3482 3.87988 9.66577 4.56855 9.66577 5.41806C9.66577 6.26757 10.3482 6.95624 11.1901 6.95624Z" fill="#600C4E"/>
<path d="M11.9869 3.91503L12.0215 3.94999C12.0215 3.94999 12.0562 3.94999 12.0908 3.94999C12.1947 3.91503 12.2987 3.88007 12.368 3.84511C12.368 3.91503 12.3333 3.98494 12.3333 4.05486C12.4372 4.05486 12.5758 4.05486 12.6797 4.05486C12.6451 4.12478 12.5758 4.1947 12.5412 4.26461C12.6105 4.26461 12.7144 4.26461 12.7837 4.26461C12.8183 4.26461 12.853 4.26461 12.853 4.29957C12.853 4.29957 12.853 4.33453 12.8183 4.33453C12.7144 4.43941 12.6105 4.54428 12.5065 4.6142C12.4719 4.64916 12.4026 4.68412 12.3333 4.71908C12.264 4.71908 12.2294 4.68412 12.1601 4.68412C11.9869 4.6142 11.7097 4.43941 11.6404 4.26461C11.5711 4.08982 11.7444 3.88007 11.8483 3.74023C11.9522 3.84511 11.9522 3.88007 11.9869 3.91503Z" fill="#600C4E"/>
<path opacity="0.33" d="M10.7051 4.29977C10.5319 4.40465 10.3933 4.54448 10.3586 4.75423C10.3586 4.78919 10.3586 4.85911 10.3586 4.89407C10.3586 4.96399 10.4279 4.99894 10.4626 5.0339C10.4972 5.06886 10.5319 5.10382 10.5665 5.06886C10.6358 5.06886 10.6704 4.99894 10.7051 4.92903C10.8437 4.71928 11.0862 4.57944 11.3287 4.64936C11.398 4.64936 11.4673 4.68432 11.5019 4.6144C11.5019 4.6144 11.5019 4.57944 11.5019 4.54448C11.5365 4.12498 10.9822 4.1949 10.7051 4.29977Z" fill="white"/>
<path d="M8.59172 10.313C8.79959 10.348 9.0421 10.348 9.24996 10.278C9.45783 10.2081 9.66569 10.0333 9.66569 9.82358C9.66569 9.64879 9.5964 9.50895 9.45783 9.36912C9.31925 9.26424 9.18067 9.19433 9.00745 9.12441C8.38386 8.91466 6.96344 8.70491 6.65165 9.50895C6.37449 10.3829 8.14135 10.278 8.59172 10.313Z" fill="#BF9777"/>
<path d="M8.81374 8.88961C9.00888 8.0632 8.50317 7.23364 7.6842 7.03672C6.86522 6.8398 6.04312 7.35011 5.84797 8.17651C5.65283 9.00292 6.15854 9.83248 6.97751 10.0294C7.79648 10.2263 8.61859 9.71602 8.81374 8.88961Z" fill="#600C4E"/>
<path d="M8.10649 7.02684L8.14114 7.0618C8.14114 7.0618 8.17578 7.0618 8.21043 7.0618C8.31436 7.02684 8.41829 6.99188 8.48758 6.95693C8.48758 7.02684 8.45294 7.09676 8.45294 7.16668C8.55687 7.16668 8.69544 7.16668 8.79938 7.16668C8.76473 7.2366 8.69544 7.30651 8.6608 7.37643C8.73009 7.37643 8.83402 7.37643 8.90331 7.37643C8.93795 7.37643 8.9726 7.37643 8.9726 7.41139C8.9726 7.41139 8.9726 7.44635 8.93795 7.44635C8.83402 7.55122 8.73009 7.6561 8.62616 7.72602C8.59151 7.76097 8.52222 7.79593 8.45294 7.83089C8.38365 7.83089 8.349 7.79593 8.27971 7.79593C8.10649 7.72602 7.82934 7.55122 7.76005 7.37643C7.69076 7.20164 7.86398 6.99189 7.96792 6.85205C8.07185 6.95693 8.10649 6.99189 8.10649 7.02684Z" fill="#600C4E"/>
<path opacity="0.33" d="M6.85938 7.4111C6.68616 7.51598 6.54758 7.65581 6.51294 7.86556C6.51294 7.90052 6.51294 7.97044 6.51294 8.0054C6.51294 8.07531 6.58223 8.11027 6.61687 8.14523C6.65152 8.18019 6.68616 8.21515 6.7208 8.18019C6.79009 8.18019 6.82474 8.11027 6.85938 8.04036C6.99796 7.8306 7.24047 7.69077 7.48298 7.76069C7.55226 7.76069 7.62155 7.79565 7.6562 7.72573C7.6562 7.72573 7.6562 7.69077 7.6562 7.65581C7.69084 7.23631 7.10189 7.30622 6.85938 7.4111Z" fill="white"/>
<path d="M22.4147 11.0117C22.6226 11.0467 22.8651 11.0467 23.073 10.9768C23.2808 10.9069 23.4887 10.7321 23.4887 10.5223C23.4887 10.3475 23.4194 10.2077 23.2808 10.0678C23.1422 9.96297 23.0037 9.89306 22.8305 9.82314C22.2069 9.61339 20.7864 9.40364 20.4746 10.2077C20.1975 11.0817 21.9643 10.9768 22.4147 11.0117Z" fill="#BF9777"/>
<path d="M21.641 10.6931C22.4417 10.4308 22.88 9.56314 22.6201 8.75517C22.3601 7.9472 21.5003 7.50487 20.6996 7.7672C19.8989 8.02953 19.4605 8.89718 19.7205 9.70515C19.9804 10.5131 20.8403 10.9555 21.641 10.6931Z" fill="#600C4E"/>
<path d="M21.9644 7.72557L21.9991 7.76053C21.9991 7.76053 22.0337 7.76053 22.0683 7.76053C22.1723 7.72557 22.2762 7.69062 22.3455 7.65566C22.3455 7.72557 22.3109 7.79549 22.3109 7.86541C22.4148 7.86541 22.5534 7.86541 22.6573 7.86541C22.6227 7.93533 22.5534 8.00524 22.5187 8.07516C22.588 8.07516 22.6919 8.07516 22.7612 8.07516C22.7959 8.07516 22.8305 8.07516 22.8305 8.11012C22.8305 8.11012 22.8305 8.14508 22.7959 8.14508C22.6919 8.24995 22.588 8.35483 22.4841 8.42475C22.4494 8.4597 22.3801 8.49466 22.3109 8.52962C22.2416 8.52962 22.2069 8.49466 22.1376 8.49466C21.9644 8.42475 21.6873 8.24995 21.618 8.07516C21.5487 7.90037 21.7219 7.69062 21.8258 7.55078C21.8951 7.6207 21.9298 7.69062 21.9644 7.72557Z" fill="#600C4E"/>
<path opacity="0.33" d="M20.6826 8.11071C20.5094 8.21559 20.3708 8.35542 20.3362 8.56517C20.3362 8.60013 20.3362 8.67005 20.3362 8.70501C20.3362 8.77492 20.4055 8.80988 20.4401 8.84484C20.4748 8.8798 20.5094 8.91476 20.544 8.8798C20.6133 8.8798 20.648 8.80988 20.6826 8.73997C20.8212 8.53021 21.0637 8.39038 21.3062 8.4603C21.3755 8.4603 21.4448 8.49526 21.4794 8.42534C21.4794 8.42534 21.4794 8.39038 21.4794 8.35542C21.5141 7.93592 20.9251 7.97088 20.6826 8.11071Z" fill="white"/>
<path d="M25.8792 7.79591C26.0871 7.83087 26.3296 7.83087 26.5374 7.76095C26.7453 7.69104 26.9532 7.51624 26.9532 7.30649C26.9532 7.1317 26.8839 6.99186 26.7453 6.85203C26.6067 6.74715 26.4681 6.67724 26.2949 6.60732C25.6713 6.39757 24.2509 6.18782 23.9391 6.99186C23.6273 7.86583 25.4288 7.76095 25.8792 7.79591Z" fill="#BF9777"/>
<path d="M24.632 7.55097C25.4739 7.55097 26.1564 6.8623 26.1564 6.01279C26.1564 5.16328 25.4739 4.47461 24.632 4.47461C23.7901 4.47461 23.1077 5.16328 23.1077 6.01279C23.1077 6.8623 23.7901 7.55097 24.632 7.55097Z" fill="#600C4E"/>
<path d="M25.3943 4.50975L25.429 4.54471C25.429 4.54471 25.4636 4.54471 25.4983 4.54471C25.6022 4.50975 25.7061 4.4748 25.7754 4.43984C25.7754 4.50975 25.7408 4.57967 25.7408 4.64959C25.8447 4.64959 25.9833 4.64959 26.0872 4.64959C26.0526 4.71951 25.9833 4.78942 25.9486 4.85934C26.0179 4.85934 26.1219 4.85934 26.1912 4.85934C26.2258 4.85934 26.2604 4.85934 26.2604 4.8943C26.2604 4.8943 26.2604 4.92926 26.2258 4.92926C26.1219 5.03413 26.0179 5.13901 25.914 5.20893C25.8794 5.24388 25.8101 5.27884 25.7408 5.3138C25.6715 5.3138 25.6368 5.27884 25.5676 5.27884C25.3943 5.20893 25.1172 5.03413 25.0479 4.85934C24.9786 4.68455 25.1518 4.4748 25.2558 4.33496C25.3597 4.43984 25.3943 4.4748 25.3943 4.50975Z" fill="#600C4E"/>
<path opacity="0.33" d="M24.1123 4.8944C23.9391 4.99928 23.8005 5.13911 23.7659 5.34887C23.7659 5.38382 23.7659 5.45374 23.7659 5.4887C23.7659 5.55862 23.8352 5.59358 23.8698 5.62854C23.9044 5.66349 23.9391 5.69845 23.9737 5.66349C24.043 5.66349 24.0777 5.59358 24.1123 5.52366C24.2509 5.31391 24.4934 5.17407 24.7359 5.24399C24.8052 5.24399 24.8745 5.27895 24.9091 5.20903C24.9091 5.20903 24.9091 5.17407 24.9091 5.13911C24.9784 4.71961 24.3895 4.75457 24.1123 4.8944Z" fill="white"/>
<path d="M19.3315 4.75392C19.5393 4.78888 19.7818 4.78888 19.9897 4.71896C20.1976 4.64904 20.4054 4.47425 20.4054 4.2645C20.4054 4.08971 20.3361 3.94987 20.1976 3.81004C20.059 3.70516 19.9204 3.63524 19.7472 3.56533C19.1236 3.35557 17.7032 3.14582 17.3914 3.94987C17.1142 4.82384 18.8811 4.71896 19.3315 4.75392Z" fill="#BF9777"/>
<path d="M19.5661 3.33264C19.7578 2.50547 19.2487 1.67811 18.4289 1.48468C17.6092 1.29124 16.7893 1.80499 16.5976 2.63216C16.4059 3.45933 16.915 4.28669 17.7347 4.48013C18.5545 4.67356 19.3744 4.15981 19.5661 3.33264Z" fill="#600C4E"/>
<path d="M18.8812 1.46776L18.9158 1.50272C18.9158 1.50272 18.9504 1.50272 18.9851 1.50272C19.089 1.46776 19.193 1.4328 19.2622 1.39784C19.2622 1.46776 19.2276 1.53768 19.2276 1.6076C19.3315 1.6076 19.4701 1.6076 19.574 1.6076C19.5394 1.67751 19.4701 1.74743 19.4355 1.81735C19.5047 1.81735 19.6087 1.81735 19.678 1.81735C19.7126 1.81735 19.7473 1.81735 19.7473 1.85231C19.7473 1.85231 19.7473 1.88726 19.7126 1.88726C19.6087 1.99214 19.5047 2.09702 19.4008 2.16693C19.3662 2.20189 19.2969 2.23685 19.2276 2.27181C19.1583 2.27181 19.1237 2.23685 19.0544 2.23685C18.8812 2.16693 18.604 1.99214 18.5347 1.81735C18.4654 1.64255 18.6386 1.4328 18.7426 1.29297C18.8119 1.39784 18.8465 1.4328 18.8812 1.46776Z" fill="#600C4E"/>
<path opacity="0.33" d="M17.5994 1.85251C17.4262 1.95738 17.2876 2.09722 17.2529 2.30697C17.2529 2.34193 17.2529 2.41184 17.2529 2.4468C17.2529 2.51672 17.3222 2.55168 17.3569 2.58664C17.3915 2.6216 17.4262 2.65655 17.4608 2.6216C17.5301 2.6216 17.5647 2.55168 17.5994 2.48176C17.7379 2.27201 17.9805 2.13218 18.223 2.20209C18.2923 2.20209 18.3615 2.23705 18.3962 2.16713C18.3962 2.16713 18.3962 2.13218 18.3962 2.09722C18.4308 1.67771 17.8419 1.74763 17.5994 1.85251Z" fill="white"/>
<path d="M32.3229 11.7808C32.5308 11.8157 32.7733 11.8157 32.9812 11.7458C33.189 11.6759 33.3969 11.5011 33.3969 11.2914C33.3969 11.1166 33.3276 10.9767 33.189 10.8369C33.0505 10.732 32.9119 10.6621 32.7387 10.5922C32.1151 10.3824 30.6946 10.1727 30.3828 10.9767C30.1057 11.8507 31.8725 11.7458 32.3229 11.7808Z" fill="#BF9777"/>
<path d="M32.5781 10.3088C32.7551 9.47828 32.2314 8.66021 31.4084 8.48156C30.5854 8.30291 29.7747 8.83132 29.5977 9.66181C29.4206 10.4923 29.9443 11.3104 30.7673 11.489C31.5903 11.6677 32.401 11.1392 32.5781 10.3088Z" fill="#600C4E"/>
<path d="M31.8379 8.49462L31.8726 8.52958C31.8726 8.52958 31.9072 8.52958 31.9419 8.52958C32.0458 8.49462 32.1497 8.45966 32.219 8.4247C32.219 8.49462 32.1844 8.56454 32.1844 8.63445C32.2883 8.63445 32.4269 8.63445 32.5308 8.63445C32.4962 8.70437 32.4269 8.77429 32.3922 8.8442C32.4615 8.8442 32.5655 8.8442 32.6348 8.8442C32.6694 8.8442 32.704 8.8442 32.704 8.87916C32.704 8.87916 32.704 8.91412 32.6694 8.91412C32.5655 9.019 32.4615 9.12387 32.3576 9.19379C32.323 9.22875 32.2537 9.26371 32.1844 9.29867C32.1151 9.29867 32.0804 9.26371 32.0112 9.26371C31.8379 9.19379 31.5608 9.019 31.4915 8.8442C31.4222 8.66941 31.5954 8.45966 31.6994 8.31982C31.8033 8.38974 31.8379 8.45966 31.8379 8.49462Z" fill="#600C4E"/>
<path opacity="0.33" d="M30.5908 8.87927C30.4176 8.98414 30.279 9.12398 30.2444 9.33373C30.2444 9.36869 30.2444 9.43861 30.2444 9.47357C30.2444 9.54348 30.3137 9.57844 30.3483 9.6134C30.383 9.64836 30.4176 9.68332 30.4522 9.64836C30.5215 9.64836 30.5562 9.57844 30.5908 9.50852C30.7294 9.29877 30.9719 9.15894 31.2144 9.22885C31.2837 9.22885 31.353 9.26381 31.3876 9.1939C31.3876 9.1939 31.3876 9.15894 31.3876 9.12398C31.4223 8.70447 30.8333 8.73943 30.5908 8.87927Z" fill="white"/>
<path d="M36.9651 6.32764C36.5841 7.44631 35.7526 8.11053 35.0251 8.8097C34.055 9.71862 33.0503 10.3828 31.8378 11.0121C28.7545 12.5852 25.3247 12.3755 21.9642 12.6901C17.3912 13.0746 11.467 13.0746 7.20577 11.6413C4.26102 10.6625 2.45952 9.19424 0.103714 7.2016C-0.000218138 9.92837 0.484801 12.3755 0.761954 14.0535C1.31626 17.6542 2.77132 21.7793 5.36963 24.3313C5.95858 24.9256 6.58218 25.45 7.20577 25.8695C7.65615 32.5116 19.3312 32.0572 23.35 31.9173C26.1908 31.8125 28.8238 30.3792 29.6899 29.0158C30.2788 27.8621 30.3481 26.8134 30.2788 25.8345C32.1842 24.4712 33.7432 22.6883 34.7826 20.5558C36.4108 17.2697 36.3069 13.8088 36.7573 10.278C36.9651 9.05441 37.0344 7.58615 36.9651 6.32764Z" fill="#8FBBEF"/>
<path d="M34.8519 20.5558C36.4802 17.2697 36.3763 13.8088 36.8267 10.278C36.9652 9.05441 37.0345 7.62111 36.9652 6.32764C36.1338 7.65606 35.6834 8.2154 34.9559 8.87961C33.9166 9.78854 33.0851 10.3479 31.8726 10.9771C31.3875 11.2218 30.9372 11.3966 30.4175 11.5714C30.175 12.5503 30.0018 13.599 29.7593 14.5079C28.6853 18.8778 26.2602 23.3874 22.0336 25.2402C21.41 25.5199 17.9109 25.7646 18.2227 26.6386C18.3613 27.0231 19.4699 27.163 19.7471 27.6873C20.0242 28.2467 19.8857 29.3304 19.7817 29.9597C19.6778 30.5539 19.2967 31.323 19.5046 31.9873C21.0636 32.0222 22.4493 31.9523 23.4194 31.9173C26.2602 31.8125 28.8932 30.3792 29.7593 29.0158C30.3482 27.8621 30.4175 26.8134 30.3482 25.8345C32.219 24.4712 33.778 22.6883 34.8519 20.5558Z" fill="#80ABD6"/>
<path d="M0.796592 10.9768C1.10839 10.9418 1.45483 10.9418 1.73199 11.0816C1.93985 11.1865 2.11307 11.3963 2.25165 11.606C2.63273 12.2003 2.90989 12.8296 3.49884 13.284C4.6421 14.123 6.1318 13.1792 7.3097 13.8783C7.6215 14.0531 7.9333 14.3328 8.21045 14.5775C8.4876 14.8222 8.76476 15.0669 9.04191 15.2767C9.56157 15.6962 10.1505 16.0807 10.8088 16.2905C11.5709 16.5352 12.3678 16.4653 13.1646 16.2555C13.8575 16.0807 14.5157 15.801 15.2432 15.7311C15.5897 15.6962 15.9361 15.7311 16.2825 15.871C16.6983 16.0108 17.0794 16.2905 17.4951 16.5002C18.2919 16.8848 19.1234 17.1644 20.0241 17.1994C20.9249 17.2344 21.791 16.9547 22.5878 16.5002C23.246 16.1157 23.9043 15.7661 24.6318 15.6263C25.2207 15.5214 25.8097 15.6612 26.364 15.801C27.0569 15.9758 27.7844 16.2905 28.5119 16.2206C29.6552 16.0807 30.1749 15.0669 30.9024 14.2978C31.2835 13.8783 31.7685 13.5637 32.3228 13.4588C32.8078 13.3889 33.2582 13.4938 33.7432 13.4938C34.2282 13.4938 34.6786 13.3539 34.9904 12.9694C35.2329 12.6897 35.4061 12.3751 35.5447 12.0255C35.6487 11.7459 35.6833 11.4662 35.7872 11.1516C35.8565 10.9068 35.9951 10.802 36.2722 10.8369C36.2722 10.6971 36.2722 10.5223 36.2722 10.3825C36.099 10.4174 35.9604 10.4873 35.8219 10.5922C35.614 10.802 35.9258 11.1166 36.1337 10.9068C36.1683 10.8719 36.203 10.8369 36.2722 10.8369C36.5494 10.802 36.584 10.3825 36.2722 10.3825C35.9604 10.3475 35.6833 10.4524 35.4754 10.7321C35.3022 10.9768 35.2676 11.2564 35.1983 11.5361C35.0597 12.0605 34.7479 12.7247 34.2629 12.9344C33.8818 13.0743 33.4314 12.9694 33.0157 12.9344C32.4614 12.8995 31.9071 12.9694 31.4221 13.2491C30.9024 13.5287 30.5213 13.9482 30.1402 14.4027C29.8284 14.7872 29.5166 15.2068 29.1009 15.4515C28.6159 15.7661 28.0269 15.7661 27.4726 15.5913C26.7797 15.4165 26.0869 15.1718 25.394 15.0669C24.7704 14.997 24.1814 15.1019 23.6271 15.3466C22.7957 15.6962 22.0681 16.2555 21.202 16.5002C20.3706 16.7449 19.5045 16.675 18.673 16.4303C18.2573 16.2905 17.8415 16.1157 17.4258 15.9059C17.0447 15.6962 16.6636 15.4515 16.2133 15.3466C15.5204 15.1368 14.8621 15.2767 14.1693 15.4515C13.4071 15.6612 12.6103 15.9409 11.8134 15.9409C10.3584 15.9409 9.31906 14.8572 8.24509 13.9482C7.96794 13.7035 7.65614 13.4588 7.3097 13.284C6.9979 13.1442 6.65146 13.0743 6.30502 13.0393C5.68142 13.0044 5.02318 13.1792 4.39959 13.0743C3.67206 12.9344 3.25633 12.3751 2.90989 11.7458C2.63273 11.2564 2.32094 10.7321 1.76663 10.5223C1.45483 10.4873 1.10839 10.4873 0.796592 10.5223C0.484795 10.5223 0.484795 11.0117 0.796592 10.9768Z" fill="#E5E5B7"/>
<path d="M1.35097 13.3192C1.66277 13.2143 1.97457 13.2143 2.25172 13.3891C2.49423 13.5639 2.66745 13.8435 2.80603 14.0882C3.11783 14.6126 3.36034 15.2768 3.81071 15.6614C4.08786 15.8711 4.39966 15.976 4.71146 16.0459C5.09255 16.0809 5.47363 16.011 5.82007 15.9061C6.20116 15.8012 6.5476 15.6963 6.92869 15.8362C7.24049 15.9411 7.51764 16.1508 7.7255 16.4305C8.17588 16.9549 8.45303 17.5841 9.04198 17.9687C9.38843 18.1784 9.76951 18.3182 10.1506 18.3182C10.497 18.3182 10.8088 18.2134 11.086 18.0735C11.7442 17.7589 12.4025 17.4093 13.1646 17.4443C13.7536 17.4792 14.2733 17.8288 14.7583 18.1085C15.3472 18.4581 16.0055 18.8426 16.6984 19.0174C17.4259 19.1922 18.1534 19.0524 18.8463 18.8077C19.5045 18.563 20.1974 18.2483 20.8903 18.2483C21.5832 18.2483 22.2414 18.493 22.8304 18.8077C23.35 19.0524 23.8697 19.367 24.4587 19.367C25.2208 19.402 25.9484 18.9825 26.6066 18.5979C26.953 18.3882 27.2995 18.1434 27.6459 18.0036C28.027 17.8638 28.4427 17.8288 28.8931 17.8638C29.3088 17.8987 29.6899 18.0036 30.1057 17.9687C30.5214 17.9337 30.9025 17.7589 31.2489 17.4792C31.7686 17.0248 31.9418 16.3256 32.3575 15.7663C32.5654 15.5216 32.8426 15.2768 33.1197 15.2069C33.3969 15.137 33.7087 15.102 33.9858 15.0671C34.4708 14.9622 34.9212 14.6825 35.3023 14.4029C35.5448 14.263 35.7527 14.0882 35.9605 13.8785C36.0991 13.7387 36.2723 13.5988 36.3416 13.424C36.4455 13.2492 36.4109 13.0395 36.203 12.9346C35.9605 12.7948 35.718 13.1793 35.9605 13.3192C35.9952 13.3541 35.9259 13.2842 35.9259 13.2842C35.8566 13.1793 35.9605 13.3192 35.9259 13.2143V13.1793C35.9259 13.1793 35.8912 13.2492 35.9259 13.1793C35.8912 13.2492 35.8566 13.2842 35.7873 13.3541C35.6141 13.5289 35.4409 13.6687 35.233 13.8435C34.8866 14.0882 34.4362 14.4029 34.0551 14.5427C33.7779 14.6126 33.4661 14.6476 33.1543 14.6825C32.8772 14.7525 32.6 14.8573 32.3575 15.0321C31.7686 15.4866 31.5954 16.1508 31.1796 16.7451C31.1103 17.1296 30.8332 17.3744 30.4867 17.4792C30.1057 17.5841 29.6899 17.5492 29.2742 17.4792C28.8585 17.4093 28.4427 17.3744 28.027 17.4792C27.6459 17.5492 27.2648 17.7239 26.953 17.9337C26.2948 18.3182 25.6366 18.8426 24.8744 18.9475C24.3201 19.0174 23.8004 18.7727 23.3154 18.528C22.7264 18.2134 22.1028 17.9337 21.4446 17.8638C20.7171 17.7589 20.0588 17.9687 19.366 18.2134C18.7077 18.4581 18.0495 18.7377 17.3566 18.7028C16.6637 18.6678 15.9708 18.3182 15.3819 17.9687C14.8622 17.654 14.3425 17.3044 13.7882 17.1296C13.13 16.9549 12.4718 17.0248 11.8482 17.3044C11.2246 17.5492 10.601 18.0386 9.87345 17.8638C9.527 17.7589 9.21521 17.5841 8.9727 17.3044C8.73019 17.0597 8.55697 16.7801 8.38374 16.5004C7.96801 15.9411 7.44835 15.4516 6.72082 15.3817C5.95865 15.3118 5.30041 15.8362 4.53824 15.6264C3.94929 15.4516 3.70678 14.8224 3.46427 14.333C3.18711 13.8086 2.84067 13.1793 2.25172 12.9346C1.93992 12.8297 1.59348 12.8297 1.28168 12.9346C0.935242 12.9696 1.07382 13.424 1.35097 13.3192Z" fill="#E5E5B7"/>
<path opacity="0.1" d="M10.1159 14.1235C9.42305 13.6341 8.66087 13.2496 7.86406 12.9C7.0326 12.5154 4.74608 10.9773 4.01855 11.9911C0.900574 12.9349 3.63746 18.4584 4.9193 20.3112C5.71612 21.4648 8.69552 23.9119 9.97735 21.9892C10.4277 21.29 10.2545 20.1714 10.3238 19.4023C10.3931 18.4584 10.3931 17.5495 10.5317 16.6056C10.7049 15.4869 11.1206 14.8577 10.1159 14.1235Z" fill="white"/>
<path d="M14.3425 4.68468C14.1693 4.82452 14.1 5.03427 14.2039 5.20906C14.2732 5.31394 14.3771 5.38386 14.481 5.41881C14.8275 5.59361 15.2432 5.7684 15.3818 6.11799C15.555 6.50253 15.3125 6.95699 15.0354 7.30658C14.7236 7.65617 14.3425 7.93583 13.9267 8.11063C13.4071 8.32038 12.7835 8.42525 12.3331 8.8098C12.2292 8.91468 12.1252 9.01955 12.1252 9.15939C12.1252 9.33418 12.3331 9.47401 12.5063 9.54393C13.511 9.92847 14.6889 9.71872 15.5204 9.05451C15.7282 8.87972 15.9361 8.70492 16.1786 8.56509C16.4904 8.3903 16.8715 8.3903 17.2179 8.35534C17.9108 8.25046 18.5691 8.04071 19.1927 7.72608C19.4352 7.62121 19.643 7.44641 19.8163 7.27162C19.8509 7.2017 19.9202 7.13179 19.9202 7.06187C19.9548 6.92203 19.8163 6.7822 19.6777 6.71228C19.5391 6.64237 19.3659 6.64237 19.2273 6.64237C18.8116 6.64237 18.4305 6.60741 18.0494 6.46757C17.6683 6.32774 17.3565 6.04807 17.1833 5.69848C17.114 5.52369 17.0794 5.3489 16.9754 5.20906C16.8369 4.96435 16.629 4.82452 16.4211 4.68468C15.8322 4.40501 14.8621 4.26518 14.3425 4.68468Z" fill="#F2DCA5"/>
<path d="M15.174 21.5342C13.9961 21.5342 12.8182 21.6391 11.6403 21.674C9.28453 21.7789 6.92872 21.7789 4.57292 21.7789C3.70681 21.7789 2.87535 21.7439 2.04389 21.7439C1.62816 21.7439 1.21243 21.7439 0.796701 21.7439C0.588836 21.7439 -0.104048 21.8138 0.0345286 21.8488V21.9537C0.0345286 22.6179 0.103817 23.4219 0.554191 23.9114C0.935278 27.4422 2.11318 35.9721 2.91 36.6363C5.02329 38.3842 11.9521 38.4891 13.7883 36.5664C14.4812 35.8322 15.5551 27.9666 15.9362 24.226C16.3519 23.9463 16.0748 23.2821 16.1441 22.6878C16.3173 21.5342 16.2134 21.5691 15.174 21.5342Z" fill="#EFE0CB"/>
<path d="M7.93342 18.8426C3.67218 18.9125 -0.104034 20.136 -0.000101105 21.7441C0.103831 23.3522 2.56357 25.1002 8.00271 25.1002C14.1001 25.1002 16.0402 24.1213 16.3173 21.9189C16.6291 19.9612 12.645 18.8076 7.93342 18.8426Z" fill="#EF6A60"/>
<path d="M13.7882 36.5669C14.4118 35.9027 15.3819 29.3305 15.8322 25.3452C15.3126 25.52 14.7929 25.7298 14.4811 25.7997C13.3725 26.0444 12.2292 26.1842 11.1206 26.359C10.0466 26.5338 8.93803 26.5688 7.79477 26.5688C6.75545 26.5688 5.26575 26.4989 4.39964 25.9745L4.43429 26.1143C4.91931 26.4289 5.8547 26.6387 6.47829 26.7785C8.73017 27.233 11.0167 27.4078 13.2339 27.8622C13.3032 29.0508 13.1993 30.3093 13.0953 31.4979C12.9914 32.7914 12.6796 34.1897 12.3678 35.4133C12.0214 36.8116 10.2199 37.0913 9.04197 37.0913C7.44833 37.0913 5.75077 37.1263 4.22642 36.6718C3.77605 36.532 3.11781 36.0775 2.59814 36.1125C2.70208 36.3921 2.80601 36.6019 2.90994 36.6718C5.02324 38.4197 11.9867 38.5246 13.7882 36.5669Z" fill="#E8D2BF"/>
<path d="M16.8717 24.4359C16.4559 23.7368 16.9063 22.2685 15.9016 21.9888C15.382 21.849 14.793 21.9539 14.4119 22.3384C14.2041 22.5482 13.6151 24.0164 14.2387 23.8766L14.3426 24.0514C14.9316 24.0164 15.3127 24.5058 15.4513 24.9953C15.5898 25.5196 15.9363 25.9741 16.4213 26.2887C16.9063 26.6034 17.3913 26.5684 17.4953 25.9391C17.5992 25.2749 17.1488 24.9253 16.8717 24.4359Z" fill="#EF6A60"/>
<path opacity="0.3" d="M2.94472 26.0441C2.59828 25.9392 2.2172 25.8343 1.94004 25.9741C1.87075 25.9741 1.83611 26.0091 1.80147 26.114C1.76682 26.2188 1.73218 26.3237 1.73218 26.4985C1.73218 26.6733 1.76682 26.8831 1.80147 27.0579C1.83611 27.3725 1.87075 27.6521 1.9054 27.7221C2.04398 28.6659 2.28648 29.6098 2.42506 30.5188C2.56364 31.4277 2.59828 32.3016 2.70221 33.2106C2.7715 33.8049 2.97937 35.413 3.84547 35.343C4.8848 35.2382 4.2612 33.0008 4.2612 32.3366C4.2612 31.0781 4.64229 30.0293 4.91944 28.8407C5.16195 27.4774 4.15727 26.4636 2.94472 26.0441Z" fill="white"/>
<path d="M13.7536 29.8198C15.0354 31.8124 14.689 34.3644 12.9567 35.4831C11.2245 36.6018 8.86873 35.6579 7.20581 33.9449C5.40431 32.0921 5.61217 29.0857 7.34438 27.967C9.04195 26.8483 12.4371 27.7922 13.7536 29.8198Z" fill="white"/>
<path d="M13.7536 29.8197C13.615 29.575 13.4418 29.3652 13.2686 29.1904C13.2339 29.9595 13.1993 30.7286 13.13 31.4627C13.0261 32.7562 12.7143 34.1546 12.4025 35.3781C12.3678 35.5529 12.2985 35.6927 12.2292 35.8326C12.4718 35.7627 12.7143 35.6228 12.9568 35.483C14.6543 34.3643 15.0354 31.8123 13.7536 29.8197Z" fill="#DDDDDD"/>
<path d="M9.28455 28.561C9.31919 28.4911 9.38848 28.4911 9.45777 28.4911C9.52706 28.5261 9.59634 28.596 9.5617 28.6659C9.5617 28.7009 9.52706 28.7358 9.49241 28.7708L9.18061 29.1204L9.14597 29.3301C9.11133 29.435 9.04204 29.5049 8.93811 29.47C8.83417 29.435 8.79953 29.3651 8.83417 29.2602L8.86882 29.0505L8.73024 28.596C8.73024 28.561 8.6956 28.5261 8.73024 28.4911C8.73024 28.4212 8.83417 28.3513 8.90346 28.3863C8.97275 28.3863 9.00739 28.4562 9.04204 28.5261L9.11133 28.8058L9.28455 28.561Z" fill="#EF6A60"/>
<path d="M10.2893 28.7357C10.5318 28.8406 10.705 29.0853 10.5665 29.4349C10.4279 29.7845 10.1507 29.8194 9.90822 29.7495C9.66571 29.6446 9.49248 29.3999 9.63106 29.0503C9.73499 28.7357 10.0121 28.6658 10.2893 28.7357ZM10.1854 28.9804C10.0468 28.9455 9.9775 29.0154 9.90822 29.1552C9.83893 29.2951 9.87357 29.4349 9.9775 29.4698C10.1161 29.5048 10.1854 29.4349 10.2547 29.2951C10.3239 29.1552 10.3239 29.0503 10.1854 28.9804Z" fill="#EF6A60"/>
<path d="M11.1552 29.9941C11.1206 29.9592 11.0859 29.9242 11.1206 29.8543C11.1552 29.7844 11.2245 29.7844 11.2591 29.8193L11.4324 29.9242C11.5017 29.9592 11.5363 30.0641 11.467 30.134L11.3284 30.3787C11.2938 30.4486 11.2245 30.4836 11.1552 30.4486C11.0859 30.4136 11.0859 30.3437 11.1206 30.3088V30.2738C11.0513 30.3088 10.9127 30.2738 10.8088 30.2388C10.6355 30.134 10.4623 29.8893 10.6702 29.5397C10.8781 29.2251 11.1899 29.2251 11.3631 29.3649C11.6402 29.5397 11.6402 29.7145 11.5709 29.7844C11.5363 29.8543 11.467 29.8893 11.3631 29.8193C11.2591 29.7494 11.3284 29.6446 11.2245 29.5746C11.1206 29.5047 11.0166 29.5397 10.9127 29.7145C10.8088 29.8543 10.8088 29.9592 10.9473 30.0641C11.0166 30.134 11.0859 30.099 11.1552 30.0641V29.9941Z" fill="#EF6A60"/>
<path d="M12.4719 30.3436C12.5412 30.2737 12.6451 30.2388 12.7144 30.3087C12.7837 30.3786 12.7837 30.4485 12.7144 30.5534L12.4026 30.903C12.1947 31.1477 11.9869 31.0778 11.779 30.903C11.5711 30.7282 11.5019 30.4835 11.6751 30.2737L11.9869 29.9241C12.0562 29.8542 12.1601 29.8193 12.2294 29.8892C12.2987 29.9591 12.2987 30.029 12.2294 30.1339L11.9176 30.4835C11.8483 30.5534 11.8483 30.6583 11.9176 30.7282C11.9869 30.7981 12.0908 30.7981 12.1601 30.6932L12.4719 30.3436Z" fill="#EF6A60"/>
<path d="M12.8875 30.7982C12.9914 30.7283 13.0607 30.7283 13.1647 30.8332L13.4072 31.1129C13.5457 31.2877 13.5457 31.4625 13.4072 31.5673C13.3032 31.6372 13.1993 31.6372 13.0954 31.5673C13.1647 31.6372 13.1647 31.7421 13.0954 31.812L13.0261 31.882C12.9914 31.9169 12.9568 31.9519 12.9222 31.9868C12.8529 32.0218 12.7836 32.0218 12.7489 31.9519C12.6796 31.882 12.6796 31.812 12.7489 31.7421L12.8529 31.6372C12.9222 31.5673 12.8875 31.5324 12.8529 31.4625L12.7836 31.3576L12.5757 31.4625C12.5064 31.5324 12.4025 31.5324 12.3332 31.4625C12.2639 31.3925 12.2639 31.2877 12.3678 31.2177L12.8875 30.7982ZM12.9914 31.3226C13.0607 31.3925 13.0954 31.3925 13.1647 31.3576C13.234 31.3226 13.1993 31.2527 13.1647 31.1828L13.0607 31.043L12.9222 31.1828L12.9914 31.3226Z" fill="#EF6A60"/>
<path d="M13.5458 31.7772C13.5111 31.7073 13.5111 31.6374 13.5804 31.6025C13.6497 31.5675 13.719 31.5675 13.7536 31.6724L14.1001 32.2667C14.1694 32.3366 14.1347 32.4065 14.0654 32.4415C13.9962 32.4764 13.9269 32.4764 13.8922 32.4065L13.7883 32.2317L13.3033 32.5463C13.1993 32.6163 13.13 32.5813 13.0608 32.5114C13.0261 32.4415 13.0261 32.3366 13.13 32.2667L13.6151 31.952L13.5458 31.7772Z" fill="#EF6A60"/>
<path d="M11.4672 31.4976C11.2593 31.0781 10.6704 30.6935 10.1853 30.9033C9.83891 31.0431 9.56175 31.3228 9.2846 31.4976C9.04209 31.4626 8.69565 31.6374 8.55707 31.7773C8.24527 32.0919 8.14134 32.6163 8.24527 33.0358C8.48778 33.9447 9.35389 34.504 10.1853 34.8187C10.4625 34.9235 10.9475 34.9935 11.2593 34.8886C11.779 34.6788 11.779 34.2244 11.8136 33.8398C11.8483 33.0707 11.8483 32.1618 11.4672 31.4976Z" fill="#ED4B48"/>
<path d="M8.59155 32.3016C8.59155 32.4414 8.6262 32.6162 8.66084 32.7561C8.66084 32.791 8.73013 32.8959 8.76477 32.826C8.76477 32.791 8.73013 32.7561 8.69549 32.826C8.73013 32.826 8.73013 32.826 8.73013 32.791V32.7561C8.73013 32.7211 8.69549 32.6862 8.69549 32.6512C8.69549 32.5114 8.66084 32.4065 8.66084 32.3016C8.66084 32.2667 8.59155 32.2667 8.59155 32.3016Z" fill="#EACE49"/>
<path d="M9.04201 32.1617C9.07665 32.1967 9.1113 32.2666 9.14594 32.3015C9.14594 32.3365 9.18059 32.3365 9.18059 32.3715V32.4064V32.3715H9.21523C9.18059 32.3365 9.14594 32.3715 9.18059 32.4064C9.21523 32.4414 9.24987 32.4064 9.24987 32.3715C9.24987 32.3365 9.21523 32.3015 9.21523 32.3015C9.18059 32.2316 9.1113 32.1268 9.04201 32.0918C9.04201 32.0918 9.00736 32.1617 9.04201 32.1617Z" fill="#EACE49"/>
<path d="M9.70037 31.9522C9.76966 32.0222 9.83895 32.0571 9.87359 32.0921C9.90824 32.127 9.94288 32.0571 9.90824 32.0222C9.83895 31.9872 9.76966 31.9522 9.73502 31.8823C9.73502 31.8823 9.66573 31.9173 9.70037 31.9522Z" fill="#EACE49"/>
<path d="M10.1853 31.6375C10.2893 31.7074 10.3585 31.7424 10.4625 31.8123C10.4971 31.8123 10.5318 31.7774 10.4625 31.7424C10.3585 31.7074 10.2893 31.6375 10.1853 31.6026C10.1853 31.5676 10.1507 31.6375 10.1853 31.6375Z" fill="#EACE49"/>
<path d="M10.7743 31.2179C10.8089 31.2179 10.8089 31.1479 10.7743 31.1479C10.7396 31.1479 10.7396 31.2179 10.7743 31.2179Z" fill="#EACE49"/>
<path d="M10.7741 31.2182C10.8434 31.2531 10.9127 31.323 10.982 31.358C11.0166 31.393 11.0512 31.323 11.0166 31.2881C10.982 31.2881 10.9473 31.2531 10.9473 31.2182C10.9127 31.1832 10.878 31.1482 10.8434 31.1133C10.7741 31.1482 10.7394 31.2182 10.7741 31.2182Z" fill="#EACE49"/>
<path d="M8.59155 33.2806C8.6262 33.3855 8.66084 33.4904 8.73013 33.5603C8.76477 33.5952 8.79942 33.5603 8.76477 33.5253C8.69548 33.4554 8.66084 33.3505 8.66084 33.2806C8.6262 33.2107 8.59155 33.2456 8.59155 33.2806Z" fill="#EACE49"/>
<path d="M9.146 33.1056C9.18064 33.1755 9.21528 33.2454 9.28457 33.2804C9.31922 33.3153 9.35386 33.2804 9.31922 33.2454C9.28457 33.2105 9.21528 33.1405 9.18064 33.0706C9.18064 33.0357 9.146 33.0706 9.146 33.1056Z" fill="#EACE49"/>
<path d="M9.83881 32.756C9.9081 32.8259 9.97739 32.8958 10.0467 32.9308C10.0813 32.9308 10.116 32.8609 10.0467 32.8609C9.97739 32.8259 9.9081 32.756 9.87346 32.721C9.83881 32.6861 9.80417 32.721 9.83881 32.756Z" fill="#EACE49"/>
<path d="M10.4277 32.4762C10.4623 32.5461 10.497 32.616 10.5662 32.651C10.6009 32.686 10.6355 32.651 10.6009 32.616C10.5662 32.5811 10.5316 32.5112 10.4623 32.4412C10.4623 32.4063 10.393 32.4412 10.4277 32.4762Z" fill="#EACE49"/>
<path d="M10.9474 32.2667C10.9821 32.3017 11.0167 32.3366 11.0514 32.4066C11.086 32.4415 11.1207 32.4066 11.1207 32.3716C11.086 32.3366 11.0514 32.3017 11.0167 32.2318C10.9821 32.1968 10.9128 32.2318 10.9474 32.2667Z" fill="#EACE49"/>
<path d="M11.3632 32.0223C11.3978 32.0922 11.4325 32.1621 11.4325 32.232C11.4325 32.267 11.5018 32.267 11.5018 32.232C11.5018 32.1621 11.4671 32.0922 11.4325 31.9873C11.3978 31.9873 11.3286 31.9873 11.3632 32.0223Z" fill="#EACE49"/>
<path d="M9.31904 33.9796C9.38833 34.0495 9.49226 34.1194 9.56155 34.1544C9.59619 34.1544 9.63084 34.1194 9.59619 34.0845C9.49226 34.0495 9.42297 33.9796 9.35368 33.9097C9.31904 33.9097 9.28439 33.9446 9.31904 33.9796Z" fill="#EACE49"/>
<path d="M9.90822 33.7696C9.97751 33.8046 10.0122 33.8745 10.0814 33.8745C10.1161 33.8745 10.1507 33.8395 10.0814 33.8046C10.0122 33.7696 9.97751 33.7347 9.90822 33.6997C9.90822 33.6997 9.87358 33.7347 9.90822 33.7696Z" fill="#EACE49"/>
<path d="M10.5319 33.4202C10.5666 33.4902 10.6358 33.5601 10.6705 33.63C10.7051 33.665 10.7398 33.63 10.7051 33.595C10.6705 33.5251 10.6012 33.4902 10.5666 33.4202C10.5666 33.3503 10.4973 33.3853 10.5319 33.4202Z" fill="#EACE49"/>
<path d="M11.1207 33.1754C11.1554 33.1754 11.1554 33.1055 11.1207 33.1055C11.0861 33.1055 11.0861 33.1754 11.1207 33.1754Z" fill="#EACE49"/>
<path d="M11.0861 33.1407C11.1207 33.2107 11.1554 33.2806 11.19 33.3505C11.19 33.3855 11.2593 33.3855 11.2593 33.3505C11.2593 33.2806 11.2247 33.1757 11.1554 33.1058C11.1207 33.0708 11.0515 33.1058 11.0861 33.1407Z" fill="#EACE49"/>
<path d="M11.571 32.931C11.6056 33.0009 11.6056 33.0708 11.571 33.1407C11.571 33.1757 11.6403 33.2106 11.6403 33.1407C11.6403 33.0708 11.6403 32.9659 11.6403 32.896C11.6056 32.8611 11.5363 32.8611 11.571 32.931Z" fill="#EACE49"/>
<path d="M10.1162 34.5742C10.1854 34.6091 10.2894 34.679 10.3933 34.679C10.428 34.679 10.428 34.6091 10.3933 34.6091C10.2894 34.6091 10.2201 34.5742 10.1508 34.5392C10.1162 34.4693 10.0815 34.5392 10.1162 34.5742Z" fill="#EACE49"/>
<path d="M10.5664 34.2594C10.6356 34.3293 10.7049 34.3643 10.8089 34.3992C10.8435 34.3992 10.8781 34.3293 10.8089 34.3293C10.7396 34.3293 10.6703 34.2594 10.601 34.2244C10.5664 34.1895 10.5317 34.2244 10.5664 34.2594Z" fill="#EACE49"/>
<path d="M11.0514 34.0494C11.0861 34.0844 11.0861 34.1543 11.1207 34.1893C11.1554 34.2242 11.19 34.1893 11.19 34.1543C11.1554 34.0844 11.1554 34.0494 11.1207 34.0145C11.0861 33.9795 11.0168 34.0145 11.0514 34.0494Z" fill="#EACE49"/>
<path d="M11.6057 33.7347C11.6057 33.8046 11.6404 33.8395 11.6057 33.9095C11.6057 33.9444 11.675 33.9794 11.675 33.9095C11.675 33.8395 11.675 33.7696 11.675 33.6997C11.6404 33.6997 11.6057 33.6997 11.6057 33.7347Z" fill="#EACE49"/>
<path d="M10.9129 34.7137C10.9822 34.7487 11.0861 34.7836 11.19 34.7836C11.2247 34.7836 11.2247 34.7137 11.19 34.7137C11.1208 34.7137 11.0168 34.6787 10.9475 34.6787C10.8782 34.6438 10.8782 34.7137 10.9129 34.7137Z" fill="#EACE49"/>
<path d="M11.1554 34.5738C11.1901 34.6088 11.2247 34.6437 11.294 34.6437C11.3287 34.6437 11.3287 34.5738 11.294 34.5738L11.2594 34.5389L11.2247 34.5039C11.1554 34.5039 11.1208 34.5389 11.1554 34.5738Z" fill="#EACE49"/>
<path d="M11.5365 34.3292C11.5711 34.3292 11.5711 34.2593 11.5365 34.2593C11.5018 34.2593 11.5018 34.3292 11.5365 34.3292Z" fill="#EACE49"/>
<path d="M11.5017 34.3289C11.5017 34.3988 11.5017 34.4338 11.5017 34.5037C11.5017 34.5387 11.571 34.5736 11.571 34.5037C11.571 34.4338 11.571 34.3639 11.571 34.294C11.5364 34.259 11.5017 34.259 11.5017 34.3289Z" fill="#EACE49"/>
<path d="M9.31929 31.0082C9.18071 30.8683 9.11142 30.6236 9.04214 30.4488C8.90356 30.4838 8.59176 30.6236 8.48783 30.7635C8.69569 30.9033 8.9382 31.0781 9.11142 31.2878C8.66105 31.2179 8.14139 31.5325 7.82959 31.8122C8.0721 31.8122 8.27996 31.8122 8.52247 31.8122C8.69569 31.8122 9.07678 31.7772 9.21536 31.6374L9.14607 31.6724C9.38858 31.5675 9.63109 31.4277 9.80431 31.2179C9.90824 31.113 10.0468 30.9732 10.1161 30.8334C10.1854 30.6935 10.1854 30.4838 10.324 30.3789C9.8736 30.3789 9.45787 30.5887 9.31929 31.0082Z" fill="#53B748"/>
<g opacity="0.5">
<path opacity="0.5" d="M1.45483 22.0938C1.48948 22.9677 2.5288 23.3173 3.22169 23.5271C4.26101 23.8417 5.36963 24.0165 6.4436 24.1214C7.96794 24.2612 9.49229 24.1563 11.0166 24.0165C12.0906 23.9116 13.3031 23.7718 14.2385 23.1775C14.6543 22.8978 15.0354 22.4783 15.1739 21.9539C15.2779 21.4995 15.1046 21.045 14.7928 20.7304C13.9267 19.8215 12.4717 19.6117 11.3284 19.4719C9.83873 19.2621 8.38367 19.332 6.89397 19.4019C5.68143 19.4369 4.39959 19.5068 3.29098 19.9962C2.66738 20.2759 2.04379 20.7304 1.76663 21.3946C1.83592 21.3946 1.93985 21.4295 2.00914 21.4295C2.00914 21.3946 2.00914 21.3596 2.00914 21.3247C2.00914 21.1499 1.76663 21.1499 1.76663 21.3247C1.76663 21.3596 1.76663 21.3946 1.76663 21.4295C1.76663 21.5694 1.9745 21.6043 2.00914 21.4645C2.25165 20.8353 2.90989 20.4157 3.53349 20.171C4.12244 19.9263 4.78068 19.8215 5.40427 19.7515C6.02787 19.6816 6.65146 19.6467 7.27506 19.6467C8.00259 19.6117 8.73011 19.5767 9.45764 19.6117C10.2545 19.6117 11.0859 19.6816 11.8827 19.8215C12.541 19.9263 13.2339 20.1011 13.8575 20.3808C14.3425 20.6255 14.8621 20.9401 15.0007 21.4995C15.1393 22.0938 14.6196 22.6531 14.1693 22.9677C13.3031 23.562 12.1252 23.6669 11.0859 23.7718C9.70015 23.9116 8.31438 24.0165 6.89397 23.9116C5.82 23.8417 4.74603 23.6319 3.70671 23.3872C3.08311 23.2124 1.83592 22.9328 1.80128 22.0938C1.69734 21.919 1.45483 21.919 1.45483 22.0938Z" fill="white"/>
</g>
<path opacity="0.1" d="M10.7395 19.7863C10.1852 19.3319 9.11123 19.4367 8.41835 19.4367C6.51292 19.4367 4.46891 19.5766 2.66741 20.2058C2.11311 20.4156 1.38558 20.7652 1.10843 21.3245C0.935205 21.5342 0.796628 21.8139 0.831272 22.1285C0.865916 22.7928 1.62809 23.0375 2.14775 23.2123C2.80599 23.457 3.53352 23.5968 4.19176 23.422C5.30037 23.1423 4.33034 22.6529 4.43427 21.9188C4.57285 21.0448 6.3397 20.9749 6.96329 20.905C7.93333 20.8001 8.93801 20.6952 9.90805 20.6603C10.3931 20.6952 11.4324 20.3457 10.7395 19.7863Z" fill="white"/>
</g>
<defs>
<clipPath id="clip0_678_3973">
<rect width="37" height="38" fill="white"/>
</clipPath>
</defs>
</svg>
