<svg width="39" height="31" viewBox="0 0 39 31" fill="none" xmlns="http://www.w3.org/2000/svg">
<defs>
<clipPath id="clip0_677_3716">
<rect width="39" height="29.64" fill="white" transform="translate(0 0.680176)"/>
</clipPath>
</defs>
<g clip-path="url(#clip0_677_3716)">
<path d="M15.2698 4.88512C15.2698 4.88512 19.3258 0.151002 26.4525 2.801C26.4525 2.801 22.3941 9.68365 15.2698 4.88512Z" fill="#5C7732"/>
<path d="M15.2698 4.88512C15.2698 4.88512 19.3258 0.151002 26.4525 2.801C26.4525 2.801 19.6431 4.37904 15.2698 4.88512Z" fill="#69893E"/>
<path d="M13.8503 9.23287L15.153 0.680176L16.6753 1.57961L14.5852 9.46981C14.3343 9.40924 14.0886 9.33002 13.8503 9.23287Z" fill="#69893E"/>
<path d="M26.3237 19.2462C26.3237 25.3651 17.4076 30.2327 10.4121 30.2327C3.41662 30.2327 0 24.8936 0 18.7746C0 12.6557 5.67368 7.69385 12.6715 7.69385C19.6694 7.69385 26.3237 13.1273 26.3237 19.2462Z" fill="#E87F18"/>
<path d="M11.9296 10.3785C13.5711 8.32433 17.8705 8.91552 20.2183 10.6592C22.566 12.4029 22.2821 15.0506 20.6406 17.1002C18.9991 19.1498 15.7614 19.4005 13.4137 17.6592C11.0659 15.9178 10.2834 12.4351 11.9296 10.3785Z" fill="#E89B34"/>
<path d="M26.8964 29.8806C24.5936 29.8806 22.3425 29.2222 20.4278 27.9887C18.5131 26.7552 17.0207 25.002 16.1395 22.9508C15.2582 20.8996 15.0276 18.6425 15.4769 16.4649C15.9262 14.2873 17.0351 12.2871 18.6634 10.7171C20.2917 9.14719 22.3664 8.07805 24.6249 7.6449C26.8835 7.21176 29.2245 7.43406 31.3521 8.28371C33.4796 9.13336 35.298 10.5722 36.5774 12.4182C37.8567 14.2643 38.5396 16.4347 38.5396 18.6549C38.5364 21.6312 37.3087 24.4847 35.1259 26.5893C32.9431 28.6939 29.9834 29.8776 26.8964 29.8806Z" fill="#FFB506"/>
<path d="M26.8963 8.00488C24.6945 8.00488 22.5421 8.63439 20.7113 9.81379C18.8806 10.9932 17.4537 12.6695 16.6111 14.6308C15.7685 16.5921 15.548 18.7502 15.9776 20.8323C16.4071 22.9144 17.4674 24.8269 19.0243 26.328C20.5813 27.8291 22.5649 28.8514 24.7244 29.2655C26.884 29.6797 29.1224 29.4671 31.1566 28.6547C33.1908 27.8423 34.9295 26.4666 36.1528 24.7015C37.376 22.9364 38.0289 20.8612 38.0289 18.7383C38.0258 15.8926 36.8519 13.1642 34.7648 11.152C32.6777 9.13975 29.8479 8.00793 26.8963 8.00488ZM18.2546 14.2526C18.2856 14.1675 19.1373 12.0581 20.4878 11.6716C20.5894 11.6439 20.6946 11.6299 20.8003 11.6302C20.9585 11.6306 21.1147 11.6634 21.2587 11.7264C21.4027 11.7895 21.5311 11.8814 21.6354 11.996L25.5697 17.3351C25.6127 17.3903 25.8322 17.6894 25.7368 17.8688C25.7134 17.9087 25.6782 17.9409 25.6357 17.9614C25.5932 17.9819 25.5453 17.9897 25.4982 17.9838C25.3337 17.972 25.1724 17.934 25.021 17.8711L18.579 15.8008C18.4758 15.7711 18.3805 15.7202 18.2997 15.6515C18.219 15.5827 18.1547 15.4979 18.1114 15.4028C17.9683 15.1245 18.016 14.7311 18.2546 14.2526ZM17.4815 20.6936C16.625 19.617 17.2238 17.4294 17.2429 17.3351C17.429 16.3805 17.9134 16.2355 18.1973 16.2355C18.2851 16.2359 18.3723 16.2507 18.455 16.2792L24.9303 18.2483C25.3264 18.3542 25.5125 18.4784 25.5149 18.6302C25.5149 18.8464 25.126 18.9752 25.0377 19.0006L18.6101 21.0916C18.5245 21.1084 18.4373 21.1169 18.35 21.1169C18.1811 21.1162 18.0147 21.0775 17.8639 21.0041C17.7132 20.9306 17.5823 20.8243 17.4815 20.6936ZM20.8003 25.8004C20.6945 25.801 20.5891 25.7863 20.4878 25.7567C19.1373 25.3725 18.2856 23.2631 18.2522 23.1734C18.0136 22.6949 17.9683 22.3016 18.1114 22.0232C18.1591 21.9321 18.2263 21.8518 18.3086 21.7876C18.3908 21.7233 18.4863 21.6766 18.5886 21.6506L25.0305 19.5687C25.1821 19.5066 25.3434 19.4693 25.5077 19.4583C25.5548 19.4524 25.6027 19.4602 25.6452 19.4807C25.6877 19.5012 25.7229 19.5334 25.7463 19.5733C25.8417 19.7528 25.6222 20.0518 25.5793 20.1093L21.6425 25.4369C21.5374 25.5529 21.408 25.646 21.2628 25.7102C21.1177 25.7745 20.96 25.8083 20.8003 25.8096V25.8004ZM26.641 27.2496C26.6457 27.3418 26.6314 27.4339 26.5991 27.5207C26.5667 27.6076 26.5169 27.6874 26.4525 27.7557C26.3356 27.8619 26.1968 27.943 26.045 27.9938C25.8933 28.0445 25.7321 28.0637 25.5721 28.0501C25.4572 28.0488 25.3425 28.0411 25.2286 28.0271C25.1355 28.0271 22.7902 27.9167 21.9837 26.8056C21.8637 26.6379 21.7955 26.4408 21.787 26.2372C21.7786 26.0336 21.8303 25.8319 21.936 25.6555L25.9348 20.3647C25.9753 20.3118 26.1734 20.038 26.3786 20.038C26.4059 20.0385 26.4328 20.0442 26.4578 20.0549C26.4828 20.0656 26.5054 20.0809 26.5241 20.1001C26.6172 20.1921 26.6529 20.3831 26.641 20.7028V27.2496ZM26.5241 17.3213C26.5052 17.3402 26.4826 17.3552 26.4576 17.3654C26.4326 17.3757 26.4057 17.381 26.3786 17.3811C26.1829 17.3811 25.9753 17.1097 25.9348 17.0545L21.9503 11.7798C21.8442 11.6037 21.7918 11.4022 21.7994 11.1987C21.807 10.9951 21.8742 10.7978 21.9933 10.6296C22.7997 9.51851 25.1451 9.4104 25.2453 9.4081C25.3568 9.39389 25.4692 9.38621 25.5817 9.38509C25.7417 9.3715 25.9028 9.39071 26.0546 9.44146C26.2063 9.4922 26.3452 9.57334 26.4621 9.67954C26.527 9.74884 26.5771 9.82985 26.6094 9.91788C26.6418 10.0059 26.6558 10.0993 26.6506 10.1925V16.7301C26.6529 17.0476 26.6172 17.2431 26.5241 17.3305V17.3213ZM33.0758 11.6164C33.1815 11.616 33.2867 11.6299 33.3884 11.6578C34.7388 12.0443 35.5905 14.1537 35.6263 14.2434C35.8649 14.7219 35.9079 15.1153 35.7647 15.3936C35.7176 15.4854 35.6507 15.5664 35.5684 15.631C35.486 15.6957 35.3903 15.7426 35.2875 15.7686L28.8456 17.8389C28.694 17.901 28.5327 17.9383 28.3684 17.9493C28.3213 17.9552 28.2734 17.9474 28.2309 17.9269C28.1884 17.9064 28.1532 17.8742 28.1298 17.8343C28.0368 17.6548 28.2539 17.3558 28.2992 17.2983L32.236 11.9983C32.3403 11.8821 32.4693 11.7887 32.6141 11.7244C32.7589 11.6602 32.9164 11.6265 33.0758 11.6256V11.6164ZM27.0657 16.852L27.2089 10.3167C27.2344 10.1124 27.3197 9.91925 27.4549 9.75996C27.5901 9.60067 27.7696 9.48181 27.9723 9.4173C28.1595 9.36238 28.3542 9.33523 28.5497 9.33679C29.8143 9.33679 31.2673 10.3052 31.3293 10.3466C31.8065 10.6135 32.0689 10.9125 32.1191 11.23C32.1339 11.3296 32.1266 11.4311 32.0979 11.5279C32.0691 11.6246 32.0194 11.7144 31.952 11.7913L27.8364 16.9992C27.6336 17.2799 27.4713 17.411 27.3329 17.411C27.3055 17.4111 27.2784 17.4056 27.2533 17.3949C27.2282 17.3842 27.2058 17.3685 27.1874 17.3489C27.0915 17.2006 27.0488 17.026 27.0657 16.852ZM32.1191 26.2144C32.0689 26.5319 31.8017 26.8309 31.3222 27.1024C31.2673 27.1392 29.8143 28.1076 28.5497 28.1076C28.3542 28.1092 28.1595 28.082 27.9723 28.0271C27.7713 27.9638 27.593 27.8468 27.4583 27.6896C27.3235 27.5324 27.2379 27.3415 27.2112 27.1392L27.0657 20.5901C27.0491 20.4168 27.0918 20.2431 27.1874 20.0955C27.2058 20.0759 27.2282 20.0602 27.2533 20.0496C27.2784 20.0388 27.3055 20.0334 27.3329 20.0334C27.4713 20.0334 27.6336 20.1645 27.8387 20.4475L31.9568 25.6578C32.0229 25.7343 32.0716 25.8235 32.0995 25.9194C32.1275 26.0153 32.1341 26.1159 32.1191 26.2144ZM35.6239 23.1964C35.5905 23.2815 34.7388 25.3909 33.3907 25.7751C33.2886 25.8047 33.1825 25.8195 33.0758 25.8188C32.9181 25.818 32.7623 25.785 32.6188 25.7219C32.4753 25.6589 32.3472 25.5672 32.2431 25.453L28.3064 20.1139C28.2634 20.0587 28.0463 19.7597 28.1394 19.5802C28.1627 19.5403 28.1979 19.5081 28.2404 19.4876C28.2829 19.4671 28.3308 19.4593 28.378 19.4652C28.5424 19.477 28.7037 19.5151 28.8551 19.5779L35.2971 21.6483C35.396 21.6757 35.4879 21.7229 35.5668 21.7867C35.6457 21.8504 35.7099 21.9295 35.7552 22.0186C35.9079 22.3039 35.8625 22.7041 35.6239 23.1872V23.1964ZM35.5214 21.2917C35.4412 21.2905 35.3613 21.2821 35.2828 21.2664L28.8408 19.1823C28.7645 19.1593 28.3636 19.0282 28.3756 18.8119C28.3756 18.6578 28.5664 18.5359 28.9625 18.4324L35.4426 16.4587C35.5191 16.4319 35.5998 16.4179 35.6812 16.4173C35.9532 16.4173 36.4399 16.5622 36.6356 17.5237C36.6594 17.6111 37.2583 19.7988 36.397 20.8776C36.2931 21.0055 36.1601 21.1085 36.0083 21.1788C35.8564 21.249 35.6898 21.2845 35.5214 21.2825V21.2917Z" fill="#FFFFCF"/>
<path d="M26.8868 7.38086C20.4687 7.38086 15.1362 12.0046 15.1362 18.1925C15.1362 24.3804 19.8221 30.3199 26.245 30.3199C32.6679 30.3199 39.0024 25.0038 39.0024 18.8182C39.0024 12.6326 33.3073 7.38086 26.8868 7.38086ZM26.8868 29.4642C24.6851 29.4624 22.5334 28.8312 20.7037 27.6503C18.8741 26.4695 17.4487 24.7922 16.6077 22.8303C15.7668 20.8685 15.5481 18.7103 15.9793 16.6286C16.4105 14.547 17.4723 12.6353 19.0303 11.1354C20.5883 9.63551 22.5727 8.61471 24.7324 8.20209C26.8921 7.78946 29.1302 8.00354 31.1638 8.81725C33.1973 9.63097 34.935 11.0078 36.1569 12.7736C37.3789 14.5394 38.0304 16.6149 38.029 18.7377C38.0258 21.5834 36.8519 24.3118 34.7648 26.324C32.6777 28.3362 29.8479 29.4681 26.8964 29.4711L26.8868 29.4642Z" fill="#F38E1C"/>
<path d="M26.4527 9.66978C26.3358 9.56358 26.1969 9.48244 26.0452 9.43169C25.8934 9.38094 25.7323 9.36174 25.5723 9.37533C25.4598 9.37645 25.3474 9.38413 25.2359 9.39833C25.1357 9.39833 22.7903 9.50875 21.9839 10.6198C21.8648 10.7881 21.7976 10.9854 21.79 11.1889C21.7824 11.3925 21.8347 11.5939 21.9409 11.77L25.9349 17.0608C25.9755 17.116 26.1735 17.3874 26.3787 17.3874C26.4059 17.3874 26.4328 17.3821 26.4578 17.3718C26.4828 17.3615 26.5054 17.3465 26.5243 17.3276C26.6173 17.2356 26.6531 17.0447 26.6412 16.7272V10.1828C26.6464 10.0895 26.6324 9.99616 26.6 9.90812C26.5677 9.82008 26.5176 9.73908 26.4527 9.66978Z" fill="#FFB506"/>
<path d="M32.119 11.2297C32.0689 10.9122 31.8017 10.6132 31.3293 10.3463C31.2672 10.3049 29.8142 9.33649 28.5497 9.33649C28.3541 9.33493 28.1594 9.36208 27.9723 9.417C27.7696 9.48152 27.5901 9.60037 27.4549 9.75966C27.3197 9.91895 27.2343 10.1121 27.2088 10.3164L27.0656 16.8517C27.0487 17.0257 27.0914 17.2003 27.1873 17.3486C27.2057 17.3682 27.2282 17.3839 27.2532 17.3946C27.2783 17.4053 27.3054 17.4108 27.3329 17.4107C27.4712 17.4107 27.6335 17.2796 27.8363 16.999L31.952 11.791C32.0193 11.7141 32.069 11.6243 32.0978 11.5276C32.1266 11.4308 32.1338 11.3293 32.119 11.2297Z" fill="#FFB506"/>
<path d="M35.6264 14.2524C35.5906 14.1626 34.7388 12.0532 33.3884 11.6668C33.1835 11.6105 32.9663 11.6118 32.7621 11.6705C32.558 11.7291 32.3755 11.8428 32.236 11.998L28.3088 17.3279C28.2635 17.3854 28.0463 17.6845 28.1394 17.8639C28.1628 17.9038 28.198 17.9361 28.2405 17.9566C28.283 17.9771 28.3309 17.9848 28.378 17.9789C28.5423 17.9679 28.7036 17.9306 28.8552 17.8685L35.2971 15.7982C35.3998 15.7723 35.4956 15.7254 35.5779 15.6607C35.6603 15.596 35.7272 15.515 35.7743 15.4232C35.9079 15.1242 35.8626 14.7308 35.6264 14.2524Z" fill="#FFB506"/>
<path d="M25.5696 17.3299L21.6353 11.9908C21.531 11.8761 21.4026 11.7843 21.2586 11.7212C21.1146 11.6581 20.9583 11.6253 20.8002 11.625C20.6945 11.6247 20.5893 11.6387 20.4876 11.6664C19.1372 12.0529 18.2855 14.1623 18.2544 14.252C18.0158 14.7351 17.9681 15.1284 18.1113 15.416C18.1566 15.5054 18.2207 15.5847 18.2996 15.6489C18.3784 15.7131 18.4703 15.7607 18.5694 15.7886L25.0113 17.859C25.1628 17.9218 25.3241 17.9599 25.4885 17.9717C25.5356 17.9776 25.5835 17.9698 25.626 17.9493C25.6685 17.9288 25.7037 17.8966 25.7271 17.8566C25.8321 17.6841 25.6126 17.3851 25.5696 17.3299Z" fill="#FFB506"/>
<path d="M26.6408 27.2582V20.7068C26.6408 20.387 26.6169 20.1961 26.5239 20.1041C26.5051 20.0849 26.4826 20.0696 26.4576 20.0589C26.4326 20.0482 26.4056 20.0425 26.3783 20.042C26.1827 20.042 25.9751 20.3157 25.9345 20.3686L21.9358 25.6594C21.83 25.8359 21.7783 26.0376 21.7868 26.2412C21.7952 26.4448 21.8634 26.6419 21.9835 26.8096C22.7899 27.9207 25.1353 28.0288 25.2283 28.0311C25.3423 28.0451 25.457 28.0528 25.5719 28.0541C25.7319 28.0677 25.893 28.0485 26.0448 27.9977C26.1965 27.947 26.3354 27.8659 26.4523 27.7597C26.5811 27.6229 26.6489 27.4428 26.6408 27.2582Z" fill="#FFB506"/>
<path d="M31.9566 25.6483L27.8385 20.438C27.6334 20.155 27.4711 20.0239 27.3327 20.0239C27.3053 20.0239 27.2782 20.0294 27.2531 20.0401C27.228 20.0508 27.2056 20.0664 27.1872 20.086C27.0917 20.2336 27.0489 20.4074 27.0655 20.5806L27.2111 27.1297C27.2377 27.332 27.3233 27.5229 27.4581 27.6801C27.5928 27.8373 27.7711 27.9543 27.9722 28.0176C28.1593 28.0726 28.354 28.0997 28.5495 28.0982C29.8141 28.0982 31.2671 27.1297 31.322 27.0929C31.7991 26.8215 32.0688 26.5224 32.1189 26.205C32.1339 26.1064 32.1273 26.0059 32.0993 25.9099C32.0714 25.814 32.0227 25.7249 31.9566 25.6483Z" fill="#FFB506"/>
<path d="M35.7646 22.0206C35.7198 21.932 35.6564 21.8532 35.5784 21.7895C35.5003 21.7257 35.4094 21.6783 35.3113 21.6503L28.8693 19.58C28.7179 19.5171 28.5566 19.479 28.3922 19.4673C28.345 19.4613 28.2971 19.4691 28.2546 19.4896C28.2121 19.5101 28.1769 19.5424 28.1536 19.5823C28.0605 19.7617 28.2776 20.0607 28.3206 20.116L32.2573 25.4551C32.3615 25.5693 32.4895 25.6609 32.633 25.724C32.7765 25.787 32.9323 25.82 33.09 25.8208C33.1967 25.8215 33.3028 25.8068 33.4049 25.7771C34.753 25.393 35.6047 23.2835 35.6382 23.1984C35.8624 22.7039 35.9078 22.3036 35.7646 22.0206Z" fill="#FFB506"/>
<path d="M36.6306 17.5142C36.4445 16.5526 35.9578 16.4077 35.6762 16.4077C35.5949 16.4083 35.5142 16.4223 35.4377 16.4491L28.9575 18.4228C28.5615 18.5263 28.3754 18.6529 28.3706 18.8024C28.3706 19.0186 28.7595 19.1497 28.8359 19.1727L35.2778 21.2569C35.3563 21.2725 35.4362 21.281 35.5164 21.2822C35.6856 21.2831 35.8527 21.2461 36.0046 21.1743C36.1566 21.1024 36.2892 20.9976 36.392 20.8681C37.2533 19.7892 36.6545 17.6016 36.6306 17.5142Z" fill="#FFB506"/>
<path d="M25.7368 19.5706C25.7134 19.5307 25.6782 19.4984 25.6357 19.4779C25.5932 19.4574 25.5453 19.4496 25.4982 19.4555C25.3339 19.4665 25.1726 19.5038 25.021 19.566L18.5791 21.6478C18.4767 21.6739 18.3813 21.7206 18.2991 21.7848C18.2168 21.849 18.1496 21.9293 18.1019 22.0204C17.9587 22.3103 18.0065 22.7105 18.2427 23.1706C18.2761 23.2603 19.1278 25.3697 20.4783 25.7539C20.5796 25.7835 20.6849 25.7982 20.7908 25.7976C20.9505 25.7964 21.1082 25.7625 21.2533 25.6983C21.3985 25.634 21.5279 25.5409 21.633 25.4249L25.5602 20.095C25.6127 20.049 25.8322 19.75 25.7368 19.5706Z" fill="#FFB506"/>
<path d="M24.9256 18.2569L18.4503 16.2878C18.3676 16.2593 18.2804 16.2445 18.1926 16.2441C17.9206 16.2441 17.4363 16.3891 17.2382 17.3437C17.212 17.438 16.6131 19.6257 17.4768 20.7022C17.5793 20.8322 17.7118 20.9373 17.8638 21.0091C18.0158 21.081 18.1831 21.1177 18.3524 21.1163C18.439 21.1161 18.5253 21.1077 18.6101 21.091L25.0377 19.0207C25.1141 18.9954 25.5149 18.8665 25.5149 18.6503C25.5078 18.4847 25.3217 18.3628 24.9256 18.2569Z" fill="#FFB506"/>
</g>

</svg>
