<svg width="118" height="74" viewBox="0 0 118 74" fill="none" xmlns="http://www.w3.org/2000/svg">
<path fill-rule="evenodd" clip-rule="evenodd" d="M108.843 63.2944C108.843 68.4013 85.7094 74.0002 61.1717 74.0002C36.6341 74.0002 16.5715 65.1255 16.5715 60.0186C16.5715 54.9117 39.887 54.0522 64.4184 54.0522C88.9497 54.0522 108.843 58.1876 108.843 63.2944Z" fill="#E2CAB3"/>
<path fill-rule="evenodd" clip-rule="evenodd" d="M112.641 68.5073C112.71 71.2351 106.799 73.6017 99.4351 73.7886C92.0706 73.9754 86.0412 71.9202 85.9723 69.1861C85.9033 66.4521 91.8137 64.0917 99.1781 63.9049C106.543 63.718 112.572 65.7732 112.641 68.5073Z" fill="#E2CAB3"/>
<path fill-rule="evenodd" clip-rule="evenodd" d="M5.41487 49.0944C1.49136 58.3366 6.26726 63.1757 12.6289 63.9728C15.1359 64.2842 18.8965 62.5591 21.6793 61.4817C23.9435 60.4824 26.0931 59.2442 28.091 57.7885C29.0374 56.8232 30.1531 55.5091 30.3787 54.0518C30.409 53.4886 30.2879 52.9276 30.0277 52.4263C30.0985 52.2163 30.2021 52.0188 30.3348 51.8409C30.6733 51.2181 29.7582 50.7385 30.2157 50.041C30.9428 48.9262 29.9838 47.7242 29.5138 46.734C29.3571 46.4164 25.3145 42.8478 25.1265 42.5052C21.7545 38.9616 20.8457 37.2925 16.2077 36.5638C10.3851 35.6421 4.73797 37.7534 5.41487 49.0944Z" fill="#5F825C"/>
<g style="mix-blend-mode:multiply" opacity="0.4">
<path fill-rule="evenodd" clip-rule="evenodd" d="M7.52104 45.682C8.18541 45.763 8.51132 47.5504 8.23555 49.6928C7.95978 51.8352 7.20766 53.4794 6.53703 53.3984C5.8664 53.3174 5.55302 51.53 5.82253 49.3876C6.09203 47.2452 6.81907 45.5948 7.52104 45.682Z" fill="#5F825C"/>
</g>
<path fill-rule="evenodd" clip-rule="evenodd" d="M8.14782 55.7023C6.72507 56.3251 6.85669 58.1499 7.43331 59.3332C7.44747 59.3519 7.45809 59.373 7.46465 59.3955C7.60006 59.6681 7.76844 59.9232 7.96606 60.1553C8.66452 61.0389 9.62838 61.6781 10.7175 61.98C12.0839 62.3226 13.6508 62.0921 14.4405 61.0147C14.4598 60.9816 14.4912 60.957 14.5282 60.9462V60.8092C14.3527 60.1117 13.2747 59.9747 12.6981 59.8875C11.4446 59.6944 11.0748 58.5983 10.6925 57.5831C10.3101 56.568 9.40134 55.1293 8.14782 55.7023Z" fill="#8DB54F"/>
<g style="mix-blend-mode:multiply" opacity="0.4">
<path fill-rule="evenodd" clip-rule="evenodd" d="M21.0213 41.9761C19.8618 42.5989 20.9398 44.0064 21.4976 44.6728C22.7512 46.2173 24.4685 47.3259 25.5152 49.0822C26.5619 50.8384 25.1955 53.56 26.869 55.0423C26.9496 55.1139 27.0438 55.1688 27.1461 55.2038C27.2483 55.2389 27.3566 55.2533 27.4645 55.2464C27.5724 55.2394 27.6779 55.2112 27.7747 55.1633C27.8715 55.1154 27.9578 55.0489 28.0285 54.9675C28.1018 54.8498 28.1567 54.7217 28.1914 54.5876C28.3951 54.3291 28.554 54.0386 28.6615 53.7282C28.9435 52.7538 28.9062 51.7156 28.555 50.7637C28.2917 49.9105 28.8809 49.0822 28.6239 48.2289C28.5061 47.911 28.3176 47.6236 28.0723 47.3882C27.8152 47.0918 27.5203 46.8301 27.1949 46.6097C26.5882 46.1084 26.0282 45.554 25.5214 44.9531C24.9145 44.2383 24.2477 43.5757 23.5283 42.9726C22.77 42.2564 21.7859 41.5589 21.0213 41.9761Z" fill="#5F825C"/>
</g>
<path fill-rule="evenodd" clip-rule="evenodd" d="M6.4806 49.6676C5.85384 49.5617 5.45898 49.3126 3.43454 48.8143C1.41011 48.3161 0.382226 48.204 0.0688463 48.0172C-0.244533 47.8303 0.63293 46.8525 0.63293 46.8525C0.63293 46.8525 2.14969 47.4317 3.39694 47.8926C4.64419 48.3535 6.92559 48.9638 6.92559 48.9638C6.92559 48.9638 7.28285 49.1631 7.13869 49.487C6.99454 49.8108 6.4806 49.6676 6.4806 49.6676Z" fill="#300D33"/>
<path fill-rule="evenodd" clip-rule="evenodd" d="M112.817 31.663C111.118 32.0553 109.683 33.0767 107.915 33.1639C106.035 33.2573 104.155 32.4788 102.318 32.1239C98.3259 31.3516 94.2394 30.9219 90.2031 30.4797C82.0552 29.5829 73.8008 29.1967 65.6216 28.2626C57.4424 27.3284 49.3259 26.2634 41.1404 26.3008C37.197 26.3106 33.2615 26.6523 29.3761 27.3221C26.1734 27.8764 22.9142 28.5241 20.2317 30.4361C18.1671 31.9452 16.6112 34.0406 15.7692 36.446C14.6786 39.3731 20.4385 57.2971 21.3097 58.4741C28.881 68.4388 41.5916 70.6186 62.5066 70.2013C84.8568 69.7529 93.4936 67.2804 99.8239 61.7251C103.227 58.7419 106.091 51.0691 106.605 49.5682C107.477 46.9214 108.442 44.3119 109.344 41.6775C109.915 40.0084 110.51 38.358 111.225 36.745C111.981 35.2296 112.61 33.6548 113.105 32.0367C113.119 31.9926 113.122 31.9458 113.114 31.9002C113.106 31.8546 113.088 31.8116 113.059 31.7748C113.031 31.7381 112.994 31.7088 112.952 31.6893C112.909 31.6698 112.863 31.6608 112.817 31.663Z" fill="#DA840D"/>
<path fill-rule="evenodd" clip-rule="evenodd" d="M109.432 32.8897C106.58 34.8826 102.475 34.9636 99.1343 35.6175C90.8861 37.2368 82.663 38.3516 74.2457 38.1523C66.0101 37.9654 57.7682 37.0001 49.5639 36.3275C41.1779 35.6424 32.773 35.1504 24.3619 35.5303C22.5038 35.5978 20.6605 35.8864 18.8715 36.3898C17.9564 36.6513 16.5901 37.0126 16.1325 37.9467C16.0197 38.1892 15.9578 38.452 15.9508 38.719V38.7626C15.5371 40.1452 16.0197 41.3036 16.4961 42.5305C16.6089 43.0474 16.7342 43.5643 16.8533 44.0812C16.6402 44.0812 16.6089 44.4051 16.8533 44.4113H16.9223C16.9481 44.4405 16.98 44.4638 17.0156 44.4798C17.0513 44.4958 17.09 44.5041 17.1291 44.5041C17.1682 44.5041 17.2069 44.4958 17.2426 44.4798C17.2782 44.4638 17.31 44.4405 17.3359 44.4113C18.8151 44.4113 20.2817 44.1373 21.7671 44.0999C23.9984 44.0376 25.8912 45.1711 27.8404 46.1053C31.3377 47.7619 34.6407 49.6988 38.1819 51.1686C39.7619 51.8255 41.3873 52.3687 43.0456 52.7941C44.699 53.1474 46.374 53.3929 48.0597 53.529C49.8522 53.7594 51.6259 54.1518 53.4122 54.3946C55.4128 54.6302 57.4299 54.6948 59.4416 54.5877C67.4309 54.4478 75.3958 53.6667 83.2585 52.2522C90.4035 50.9195 97.5486 48.9141 103.772 45.0839C106.233 43.5973 108.317 41.5688 109.864 39.155C110.579 38.0402 111.187 36.8382 111.851 35.6922C112.34 34.839 112.929 33.8239 112.842 32.8336C112.697 30.6788 110.309 32.2856 109.432 32.8897Z" fill="#C66720"/>
<path opacity="0.4" fill-rule="evenodd" clip-rule="evenodd" d="M61.3723 66.0157C30.3477 70.3752 21.0591 57.963 21.3412 58.3305C28.9124 68.2951 41.6294 70.4749 62.5381 70.0576C84.8883 69.6154 93.9701 66.9935 100.307 61.4382C103.516 58.6169 107.069 48.2101 107.778 46.186C92.2527 58.8785 87.8215 62.2789 61.3723 66.0157Z" fill="#C66720"/>
<path fill-rule="evenodd" clip-rule="evenodd" d="M117.968 21.5113C117.611 19.3253 114.208 19.0201 112.528 18.3973C111.043 17.8493 110.021 16.529 108.811 15.5387C107.506 14.4664 106.054 13.5837 104.499 12.9168C100.958 11.3972 97.4107 10.1827 94.1829 8.03409C91.2121 6.04739 87.5643 5.79205 84.1547 5.23776C82.047 4.91078 79.984 4.34449 78.0062 3.55C76.2494 2.72956 74.3935 2.1372 72.4845 1.7875C70.5165 1.52593 68.492 1.97434 66.524 2.0553C64.3429 2.14249 62.3372 1.43251 60.2877 0.809721C58.6147 0.207628 56.8377 -0.0570251 55.0606 0.0312328C53.4059 0.168247 51.9268 1.04015 50.5354 1.89961C50.5005 1.91888 50.4712 1.94678 50.4503 1.9806C50.4294 2.01442 50.4177 2.05303 50.4163 2.09267C48.8431 2.90853 47.3326 3.8178 45.7532 4.63988C44.4352 5.3622 43.0216 5.8968 41.5539 6.228C39.7551 6.60168 38.0628 6.30274 36.2766 6.0723C33.1428 5.66749 30.1782 5.59275 27.2074 6.73246C23.6724 8.09015 20.8583 10.8553 17.3547 12.3376C14.34 13.5832 11.7139 15.0592 9.83359 17.8181C9.05097 18.9761 8.51753 20.2821 8.2667 21.6545C8.0348 23.1305 8.39205 24.4695 8.70543 25.9144C9.11909 27.7828 8.7493 29.2775 8.21029 31.0774C7.75098 32.2641 7.78479 33.5836 8.3043 34.7456C8.79317 35.6922 9.83359 36.3026 10.7424 36.7883C11.6512 37.2741 13.9702 37.7973 14.1645 38.9307C14.9918 43.7387 20.4321 41.4842 23.6348 42.6675C25.208 43.2591 26.6621 44.156 28.2603 44.7352C30.0967 45.4015 32.0209 45.8998 33.9012 46.4042C37.6617 47.4132 41.2844 48.7584 44.9384 50.141C46.5492 50.7638 48.0722 51.536 49.7958 51.8474C51.5194 52.1588 53.2994 51.8786 55.0042 51.7291C58.5453 51.4115 69.7455 52.3519 71.231 51.5983C73.1551 50.6579 74.9414 50.7451 77.0222 50.9195C78.6455 51.0565 80.0495 49.8607 81.679 49.7299C83.5522 49.5465 85.3996 49.1602 87.1883 48.5778C88.7836 47.9653 90.4089 47.4332 92.0582 46.9834C93.9385 46.5662 95.5806 45.2147 97.4797 44.9594C101.171 44.4549 103.879 42.3997 106.737 40.0144C109.332 37.8533 115.468 30.4047 116 28.9287C116.533 27.4527 116.928 25.8148 117.36 24.2889C117.599 23.4357 118.119 22.4206 117.968 21.5113Z" fill="#F0A508"/>
<g opacity="0.5">
<path opacity="0.5" fill-rule="evenodd" clip-rule="evenodd" d="M60.0622 10.5311C59.542 11.2099 58.9153 11.3968 58.9717 15.6193C59.0281 19.8418 59.4355 21.4362 57.7996 24.6373C56.1638 27.8384 52.9924 30.9462 51.8705 34.3528C50.7486 37.7595 49.3321 43.3522 50.7674 45.5257C52.2027 47.6992 57.4298 48.7704 64.5561 48.9635C71.6824 49.1566 79.498 47.9982 83.8916 46.6405C88.2852 45.2828 90.8236 44.7223 91.8201 43.5265C92.8167 42.3308 87.8465 32.117 84.368 28.1311C80.8895 24.1453 79.2223 22.825 75.2988 19.5242C71.3752 16.2234 69.6579 14.9093 67.7212 12.2438C65.7846 9.57821 65.2831 9.43497 63.2462 9.46611C62.0958 9.46284 60.9765 9.83722 60.0622 10.5311Z" fill="#E2CAB3"/>
<path opacity="0.5" fill-rule="evenodd" clip-rule="evenodd" d="M20.4761 37.3672C23.2401 31.0334 26.8878 28.1499 27.9094 26.7175C30.7236 22.7752 32.3908 21.0501 36.12 20.4896C39.8492 19.9291 37.806 19.9477 42.0429 19.3561C46.2798 18.7644 49.8335 17.8489 52.6978 15.6194C55.5621 13.3898 57.0412 11.6522 58.5642 11.1103C60.0873 10.5685 62.4376 9.36031 60.7704 11.0668C59.1033 12.7732 61.3283 13.4209 58.1945 18.0482C55.0607 22.6756 53.569 25.0671 52.4533 28.6357C51.3377 32.2043 50.1845 43.3398 47.6336 44.2179C45.0826 45.096 38.9968 45.2517 33.3434 43.1654C28.9566 41.4543 24.6618 39.519 20.4761 37.3672Z" fill="#E2CAB3"/>
<path opacity="0.5" fill-rule="evenodd" clip-rule="evenodd" d="M96.878 40.2133C96.878 40.2133 102.118 38.5879 105.126 35.9908C108.135 33.3938 111.143 30.9711 112.096 27.4025C113.048 23.8339 114.126 22.9434 112.961 21.8846C111.795 20.8259 105.559 15.2021 100.425 12.4306C95.2923 9.65923 88.7677 7.90919 82.9639 6.69475C77.1601 5.48031 74.0828 6.19029 71.0555 6.07196C68.0283 5.95363 63.2335 9.42257 63.3025 9.45994C64.9786 11.0616 66.8431 12.4564 68.8556 13.614C71.5757 15.0339 77.9185 17.4379 81.0147 19.2191C84.1109 21.0002 86.5678 24.9363 87.2823 26.7797C87.9968 28.6232 88.9996 29.1962 90.0213 32.7274C91.0429 36.2586 93.8758 41.9447 93.8758 41.9447L96.878 40.2133Z" fill="#E2CAB3"/>
<path opacity="0.5" fill-rule="evenodd" clip-rule="evenodd" d="M11.9397 18.7582C11.9397 18.7582 9.52041 25.2165 10.7739 28.3242C11.6432 30.3627 12.8274 32.2538 14.2838 33.9293C14.2838 33.9293 17.4176 36.9063 19.5548 33.8235C21.6921 30.7407 26.3238 23.5412 30.0029 20.7636C33.682 17.9859 38.2636 17.388 41.6606 16.9832C45.0577 16.5784 53.0363 15.2145 55.2425 13.4271C57.4487 11.6397 63.3026 9.4599 63.3026 9.4599C60.7701 8.30456 58.1319 7.39319 55.4243 6.73831C51.3253 5.80412 44.7694 8.30151 39.4482 7.05593C34.127 5.81035 28.9374 8.61913 23.0459 11.6085C19.1336 13.6527 15.4163 16.0457 11.9397 18.7582Z" fill="#E2CAB3"/>
<path opacity="0.5" fill-rule="evenodd" clip-rule="evenodd" d="M47.0383 5.53659C47.0383 5.53659 52.5475 0.373654 56.2893 0.467073C61.0213 0.591631 62.5569 1.62546 64.8195 2.33545C67.3955 3.13262 68.4234 3.45024 67.759 4.47785C67.0946 5.50545 63.9608 10.083 63.9608 10.083C63.9608 10.083 56.4397 6.41473 53.682 5.99123C51.4823 5.67234 49.2613 5.52036 47.0383 5.53659Z" fill="#E2CAB3"/>
</g>
<path opacity="0.4" fill-rule="evenodd" clip-rule="evenodd" d="M101.222 11.2539C99.7361 10.6311 98.2444 10.1142 96.7841 9.42287C95.0739 8.55029 93.3163 7.77269 91.5193 7.09363C89.8981 6.59936 88.2342 6.25535 86.5491 6.06603C82.7384 5.44323 79.2411 3.88003 75.5871 2.75901C73.4921 2.11853 71.3028 1.83634 69.1127 1.92447C67.2073 2.04902 65.2957 2.04902 63.3904 1.92447C61.5101 1.72517 59.8554 0.859494 58.0253 0.379945C55.8003 -0.205478 53.9514 0.379945 51.9771 1.43246C49.0626 2.93339 46.1545 4.76439 42.9956 5.72349C41.3085 6.27025 39.5429 6.53952 37.7684 6.52066C35.8882 6.45838 34.0956 6.08471 32.2467 5.96015C30.2098 5.74405 28.1534 6.11596 26.3238 7.03135C24.9352 7.76265 23.6266 8.63507 22.4191 9.63462C22.4128 9.74455 22.4128 9.85476 22.4191 9.9647C22.0546 11.0228 21.9242 12.1465 22.0368 13.2593C22.0919 14.3947 22.3912 15.5052 22.9145 16.5161C23.4377 17.527 24.1728 18.4148 25.0703 19.1197C26.374 20.2158 27.7403 21.0566 28.8309 22.3707C29.9214 23.6848 30.7111 25.0549 31.9647 26.1074C34.0079 27.8388 36.7218 27.9758 39.2915 27.9758C40.6453 27.9758 41.9928 27.9073 43.3403 27.9758C45.1899 28.1693 47.0085 28.5876 48.7555 29.2214C52.3657 30.3424 55.9069 31.8932 59.6361 32.6218C63.3653 33.3505 67.0632 32.4724 70.6858 31.507C74.3085 30.5417 77.881 29.894 81.4285 28.9598C84.6358 28.1764 87.6799 26.8399 90.4225 25.0113C93.3494 22.8985 95.9964 20.4273 98.3009 17.6562C99.1846 16.6348 100.024 15.576 100.896 14.5422C101.67 13.7631 102.189 12.7683 102.381 11.6898C101.987 11.564 101.6 11.4185 101.222 11.2539Z" fill="#E2CAB3"/>
<path fill-rule="evenodd" clip-rule="evenodd" d="M51.2122 15.5327C50.9239 15.595 50.6356 15.6448 50.3661 15.6822H50.2783C48.3103 16.0621 46.3611 16.5354 44.3367 16.3797C42.9703 16.2801 37.6303 16.4233 38.8839 18.8709C38.8987 18.9132 38.8987 18.9593 38.8839 19.0017C39.987 19.6992 42.4376 19.4127 43.2712 19.3504C43.9779 19.3024 44.6799 19.2004 45.3708 19.0453C47.3366 18.2706 49.2062 17.2738 50.9427 16.0745C51.055 15.9058 51.1455 15.7238 51.2122 15.5327Z" fill="#C66720"/>
<path fill-rule="evenodd" clip-rule="evenodd" d="M58.9842 20.5522C59.1138 19.2482 59.0674 17.9329 58.8463 16.6411C58.009 18.6175 56.9358 20.4868 55.6499 22.2089C54.8977 23.1493 53.9012 23.9651 53.2932 25.0114C52.9673 25.5719 52.5161 26.4065 52.7542 27.0915C53.1303 28.169 53.7946 28.1627 54.5029 28.0195C55.7188 27.2722 56.8344 25.5283 57.4361 24.6315C57.9927 23.8008 58.4452 22.9056 58.7836 21.966C58.8526 21.4989 58.9153 21.0318 58.9842 20.5522Z" fill="#C66720"/>
<path fill-rule="evenodd" clip-rule="evenodd" d="M79.0217 16.8155C77.5521 16.2208 76.0521 15.7032 74.5279 15.2647C73.5972 15.0243 72.6876 14.7098 71.8077 14.3243C71.1323 13.9214 70.3691 13.6864 69.5827 13.6393C69.5352 13.6362 69.4877 13.6453 69.4448 13.6659C69.4019 13.6864 69.3651 13.7177 69.338 13.7565C69.3109 13.7954 69.2943 13.8406 69.29 13.8877C69.2856 13.9348 69.2936 13.9823 69.3132 14.0254C69.3755 14.2236 69.4981 14.3977 69.6642 14.5236C70.5989 15.8224 71.6341 17.0468 72.7604 18.1856C73.7695 19.3191 74.6407 20.5398 75.7688 21.5923C77.2981 23.0559 80.0621 23.9465 81.629 21.9286C83.3589 19.6803 81.0023 17.6438 79.0217 16.8155Z" fill="#C66720"/>
<path fill-rule="evenodd" clip-rule="evenodd" d="M72.7039 5.7798C72.1712 4.64009 70.4413 4.67123 69.2943 4.93903C69.2012 4.95111 69.109 4.96984 69.0186 4.99509C67.4312 5.80649 66.1998 7.16979 65.5588 8.82525C67.4391 8.27097 68.8243 6.95688 70.8111 6.72645C71.1307 6.68908 73.0674 6.54584 72.7039 5.7798Z" fill="#C66720"/>
<path fill-rule="evenodd" clip-rule="evenodd" d="M46.1792 7.84704C46.431 7.92678 46.6924 7.97286 46.9564 7.98405C47.5772 7.87848 48.2073 7.83674 48.8367 7.85949C49.081 7.84727 49.3257 7.84727 49.57 7.85949C50.3907 7.89219 51.2089 7.9712 52.0206 8.09615L52.3403 8.18335C52.7866 8.2303 53.2344 8.10795 53.5938 7.84081C51.7574 7.03741 46.6994 5.13167 46.01 7.59169C46.0005 7.64763 46.0126 7.70509 46.044 7.75247C46.0754 7.79986 46.1237 7.83365 46.1792 7.84704Z" fill="#C66720"/>
<path fill-rule="evenodd" clip-rule="evenodd" d="M11.8018 34.8017C11.655 35.1257 11.5497 35.4668 11.4884 35.8169C11.3946 36.0774 11.3397 36.3502 11.3254 36.6265C11.3284 36.6439 11.3354 36.6603 11.346 36.6745C11.3566 36.6887 11.3703 36.7002 11.3862 36.7081C11.4021 36.716 11.4196 36.72 11.4374 36.7199C11.4551 36.7198 11.4726 36.7155 11.4884 36.7075C11.6764 36.6016 11.6827 36.284 11.714 36.0847C11.7709 35.6615 11.8674 35.2444 12.0023 34.8391C12.0525 34.7457 11.8582 34.6834 11.8018 34.8017Z" fill="#C66720"/>
<path fill-rule="evenodd" clip-rule="evenodd" d="M12.9799 35.7666C12.8198 36.0751 12.7038 36.4041 12.6351 36.7444C12.585 36.925 12.4408 37.2115 12.4973 37.3672C12.5008 37.3874 12.5105 37.406 12.5251 37.4205C12.5397 37.435 12.5584 37.4446 12.5787 37.4482C12.8169 37.4482 12.842 37.1368 12.8796 36.9686C12.9673 36.6012 13.0425 36.2213 13.1679 35.86C13.2118 35.7542 13.0425 35.6545 12.9799 35.7666Z" fill="#C66720"/>
<path fill-rule="evenodd" clip-rule="evenodd" d="M18.6461 40.0142C18.5897 40.637 18.3891 41.2598 18.3954 41.92C18.3954 42.1068 18.69 42.138 18.6963 41.92C18.791 41.278 18.8516 40.6314 18.878 39.9831C18.8717 39.8585 18.6586 39.8897 18.6461 40.0142Z" fill="#C66720"/>
<path fill-rule="evenodd" clip-rule="evenodd" d="M20.2004 40.3382C19.9955 40.8292 19.8972 41.3577 19.9121 41.889C19.9121 42.0883 20.2318 42.1256 20.238 41.889C20.2565 41.3749 20.3131 40.8628 20.4073 40.3569C20.4323 40.2573 20.2443 40.2261 20.2004 40.3382Z" fill="#C66720"/>
<path fill-rule="evenodd" clip-rule="evenodd" d="M45.5278 48.8395C45.4334 49.074 45.3661 49.3185 45.3273 49.5681C45.2683 49.7915 45.2429 50.0224 45.2521 50.2532C45.2603 50.2781 45.2763 50.2998 45.2976 50.3152C45.319 50.3306 45.3448 50.3389 45.3712 50.3389C45.3976 50.3389 45.4233 50.3306 45.4447 50.3152C45.466 50.2998 45.482 50.2781 45.4902 50.2532C45.5433 50.0498 45.5706 49.8406 45.5717 49.6304C45.6093 49.3688 45.6219 49.1073 45.672 48.8457C45.6845 48.7896 45.5592 48.771 45.5278 48.8395Z" fill="#C66720"/>
<path fill-rule="evenodd" clip-rule="evenodd" d="M47.3077 49.0574C47.2097 49.372 47.1426 49.6952 47.1072 50.0227C47.0368 50.2971 47.0156 50.5817 47.0445 50.8635C47.0542 50.8877 47.0711 50.9085 47.0929 50.9232C47.1147 50.9379 47.1404 50.9457 47.1667 50.9457C47.193 50.9457 47.2187 50.9379 47.2405 50.9232C47.2623 50.9085 47.2791 50.8877 47.2889 50.8635C47.3558 50.618 47.3854 50.364 47.3767 50.1099C47.3767 49.7611 47.4331 49.4124 47.4644 49.0698C47.4611 49.0524 47.4521 49.0365 47.4388 49.0246C47.4255 49.0128 47.4087 49.0056 47.3908 49.0042C47.373 49.0027 47.3552 49.0072 47.3402 49.0168C47.3252 49.0264 47.3138 49.0407 47.3077 49.0574Z" fill="#C66720"/>
<path fill-rule="evenodd" clip-rule="evenodd" d="M54.384 50.122C54.384 50.0224 54.2649 49.9352 54.2147 50.0286C54.0534 50.3365 53.9675 50.678 53.964 51.0251C53.964 51.1995 53.9202 51.6479 54.1395 51.6915C54.1535 51.6964 54.1683 51.6985 54.1832 51.6978C54.198 51.697 54.2125 51.6933 54.2259 51.687C54.2393 51.6806 54.2513 51.6717 54.2612 51.6607C54.2711 51.6497 54.2788 51.6369 54.2837 51.623C54.2938 51.4288 54.2791 51.2342 54.2398 51.0438C54.2372 50.7308 54.2859 50.4195 54.384 50.122Z" fill="#C66720"/>
<path fill-rule="evenodd" clip-rule="evenodd" d="M56.1451 50.0598C56.1407 50.0459 56.1319 50.0337 56.1201 50.025C56.1083 50.0164 56.094 50.0117 56.0793 50.0117C56.0646 50.0117 56.0503 50.0164 56.0384 50.025C56.0266 50.0337 56.0178 50.0459 56.0135 50.0598C55.8749 50.5921 55.8199 51.1425 55.8505 51.6915C55.8505 51.8597 56.12 51.8783 56.1137 51.6915C56.0843 51.1476 56.0947 50.6022 56.1451 50.0598Z" fill="#C66720"/>
<path fill-rule="evenodd" clip-rule="evenodd" d="M58.0754 50.2533C58.0754 50.2319 58.0668 50.2113 58.0515 50.1961C58.0362 50.1809 58.0155 50.1724 57.9939 50.1724C57.9723 50.1724 57.9516 50.1809 57.9363 50.1961C57.921 50.2113 57.9124 50.2319 57.9124 50.2533C57.8873 50.5024 57.8685 50.7516 57.856 51.0007C57.856 51.1813 57.7307 51.418 57.856 51.5737C57.8659 51.5812 57.878 51.5853 57.8905 51.5853C57.903 51.5853 57.9151 51.5812 57.925 51.5737C58.1381 51.5737 58.1255 51.2311 58.1381 51.0692C58.1495 50.7957 58.1284 50.5219 58.0754 50.2533Z" fill="#C66720"/>
<path fill-rule="evenodd" clip-rule="evenodd" d="M92.4093 46.3605C92.4093 46.3979 92.4093 46.2982 92.4093 46.2858C92.3715 46.1968 92.3401 46.1052 92.3153 46.0117C92.2526 45.7688 92.2401 45.5073 92.1649 45.2644C92.1649 45.1959 92.027 45.1585 92.0082 45.2644C91.9894 45.3702 92.0082 46.7404 92.3968 46.51C92.4105 46.5033 92.4222 46.4933 92.4308 46.4808C92.4394 46.4683 92.4446 46.4539 92.4459 46.4388C92.4472 46.4237 92.4445 46.4085 92.4381 46.3948C92.4316 46.3811 92.4217 46.3693 92.4093 46.3605Z" fill="#C66720"/>
<path fill-rule="evenodd" clip-rule="evenodd" d="M94.6407 45.8003C94.5164 45.4188 94.3656 45.0463 94.1895 44.6855C94.1811 44.6599 94.1629 44.6387 94.1388 44.6264C94.1148 44.6141 94.0867 44.6119 94.061 44.6201C94.0352 44.6284 94.0138 44.6465 94.0015 44.6704C93.9891 44.6944 93.9869 44.7222 93.9952 44.7478C94.0886 45.1501 94.2101 45.5455 94.3587 45.9311C94.4276 46.1179 94.7159 45.9872 94.6407 45.8003Z" fill="#C66720"/>
<path fill-rule="evenodd" clip-rule="evenodd" d="M96.784 44.6976C96.5662 44.3859 96.4186 44.0311 96.3516 43.6575C96.3458 43.6346 96.3325 43.6142 96.3138 43.5996C96.295 43.5851 96.2719 43.5771 96.2481 43.5771C96.2243 43.5771 96.2012 43.5851 96.1825 43.5996C96.1637 43.6142 96.1504 43.6346 96.1447 43.6575C96.1159 44.1041 96.2494 44.5461 96.5208 44.9031C96.6399 45.1024 96.9094 44.8782 96.784 44.6976Z" fill="#C66720"/>
<path fill-rule="evenodd" clip-rule="evenodd" d="M99.4541 44.3927C99.2434 44.2168 99.0709 44.0003 98.947 43.7562C98.8231 43.5121 98.7504 43.2456 98.7333 42.9727C98.7347 42.9577 98.7315 42.9427 98.7241 42.9295C98.7168 42.9164 98.7056 42.9057 98.692 42.899C98.6785 42.8923 98.6632 42.8898 98.6482 42.8918C98.6332 42.8938 98.6192 42.9003 98.608 42.9104C98.0564 43.2966 98.8837 44.293 99.1908 44.5857C99.3475 44.7601 99.6108 44.5484 99.4541 44.3927Z" fill="#C66720"/>
<path fill-rule="evenodd" clip-rule="evenodd" d="M102.475 42.9725C102.144 42.4147 101.777 41.878 101.378 41.3657C101.335 41.291 101.19 41.3159 101.222 41.4155C101.416 42.0383 101.968 42.4805 102.237 43.0846C102.306 43.2528 102.544 43.1407 102.475 42.9725Z" fill="#C66720"/>
<path fill-rule="evenodd" clip-rule="evenodd" d="M104.969 41.0481C104.913 40.9298 104.763 40.8613 104.662 40.7866L104.167 40.4253C104.042 40.3319 103.91 40.2447 103.779 40.1575C103.647 40.0704 103.641 40.1202 103.584 40.089C103.528 40.0579 103.534 40.089 103.553 40.089C103.572 40.089 103.584 40.1887 103.628 40.2323C103.739 40.3466 103.856 40.4547 103.979 40.5561C104.136 40.6931 104.299 40.8177 104.462 40.9422C104.625 41.0668 104.712 41.1727 104.857 41.1727C104.872 41.1728 104.888 41.1695 104.903 41.1631C104.917 41.1567 104.93 41.1473 104.941 41.1356C104.952 41.1238 104.96 41.1099 104.965 41.0949C104.97 41.0798 104.971 41.0639 104.969 41.0481Z" fill="#C66720"/>
<path fill-rule="evenodd" clip-rule="evenodd" d="M107.094 39.4912C107.083 39.455 107.061 39.4226 107.033 39.3973C107.004 39.3721 106.969 39.3551 106.931 39.3479C106.814 39.2941 106.707 39.2227 106.612 39.1362C106.391 38.9439 106.2 38.7192 106.048 38.4698C105.979 38.3639 105.816 38.4698 105.866 38.5881C106 38.886 106.194 39.1531 106.436 39.3729C106.587 39.5099 106.869 39.7403 107.063 39.6095C107.08 39.5954 107.092 39.5765 107.098 39.5553C107.103 39.5341 107.102 39.5117 107.094 39.4912Z" fill="#C66720"/>
<path fill-rule="evenodd" clip-rule="evenodd" d="M114.171 31.4823C114.142 31.4486 114.107 31.4212 114.067 31.4019C114.027 31.3826 113.983 31.3718 113.939 31.3702C113.8 31.3462 113.667 31.2931 113.55 31.2145C113.301 31.0432 113.114 30.7963 113.017 30.5107C113.017 30.4173 112.855 30.4733 112.861 30.5605C112.9 30.8967 113.068 31.2047 113.331 31.42C113.513 31.5695 113.958 31.8123 114.164 31.5944C114.179 31.5794 114.187 31.56 114.188 31.5395C114.189 31.5189 114.183 31.4987 114.171 31.4823Z" fill="#C66720"/>
<path fill-rule="evenodd" clip-rule="evenodd" d="M115.555 29.8942C115.026 29.622 114.58 29.2133 114.264 28.7109C114.208 28.6175 114.045 28.7109 114.101 28.7919C114.39 29.3668 114.861 29.831 115.443 30.1122C115.568 30.162 115.681 29.9502 115.555 29.8942Z" fill="#C66720"/>
<path fill-rule="evenodd" clip-rule="evenodd" d="M116.414 27.6956C116.174 27.54 115.943 27.3694 115.725 27.1849C115.511 26.9918 115.311 26.7988 115.098 26.6244C115.016 26.5621 114.91 26.6804 114.979 26.7614C115.305 27.2655 115.759 27.6757 116.295 27.9509C116.327 27.959 116.362 27.9556 116.392 27.9412C116.422 27.9269 116.447 27.9025 116.461 27.8722C116.475 27.842 116.478 27.8078 116.469 27.7755C116.461 27.7433 116.441 27.715 116.414 27.6956Z" fill="#C66720"/>
<path fill-rule="evenodd" clip-rule="evenodd" d="M10.2475 33.1576C9.7049 33.8966 9.33841 34.7484 9.17578 35.6488C9.17578 35.7235 9.28233 35.7297 9.30113 35.6488C9.51628 34.7936 9.89971 33.9893 10.4293 33.2822C10.5045 33.1638 10.3228 33.0393 10.2475 33.1576Z" fill="#C66720"/>
<path fill-rule="evenodd" clip-rule="evenodd" d="M9.26973 32.541C9.13184 32.6033 9.07543 32.7216 8.98142 32.8462C8.88741 32.9707 8.72445 33.2074 8.61163 33.4005C8.45175 33.6219 8.36622 33.8877 8.3672 34.1603C8.3672 34.2537 8.51135 34.235 8.51762 34.1603C8.59048 33.8783 8.72295 33.6151 8.90621 33.388C9.05663 33.1576 9.35121 32.896 9.38255 32.622C9.38364 32.6081 9.38113 32.5942 9.37526 32.5816C9.36939 32.569 9.36035 32.5581 9.34902 32.55C9.33769 32.5419 9.32445 32.5368 9.31056 32.5352C9.29667 32.5336 9.28261 32.5356 9.26973 32.541Z" fill="#C66720"/>
<path fill-rule="evenodd" clip-rule="evenodd" d="M11.0813 34.5648C10.905 34.8464 10.762 35.1474 10.6551 35.4616C10.5156 35.7548 10.4145 36.0646 10.3542 36.3833C10.3542 36.4643 10.4733 36.4892 10.4921 36.3833C10.5725 36.0764 10.6881 35.7796 10.8369 35.499C11.0199 35.2159 11.1475 34.9011 11.2129 34.571C11.2137 34.5537 11.2076 34.5367 11.1958 34.5239C11.1841 34.511 11.1677 34.5033 11.1502 34.5025C11.1328 34.5017 11.1157 34.5078 11.1028 34.5195C11.0898 34.5311 11.0821 34.5475 11.0813 34.5648Z" fill="#C66720"/>
<path fill-rule="evenodd" clip-rule="evenodd" d="M14.478 36.7446C14.0079 36.8879 13.7885 37.5044 13.6632 37.9342C13.6585 37.9563 13.662 37.9794 13.6731 37.9991C13.6842 38.0189 13.7021 38.0339 13.7235 38.0415C13.745 38.0491 13.7685 38.0488 13.7896 38.0405C13.8108 38.0322 13.8282 38.0165 13.8387 37.9964C13.9138 37.7788 14.0126 37.57 14.1333 37.3736C14.2523 37.1868 14.4216 37.0311 14.5469 36.8443C14.572 36.8069 14.5344 36.7446 14.478 36.7446Z" fill="#C66720"/>
<path fill-rule="evenodd" clip-rule="evenodd" d="M15.5184 38.6133C15.274 38.7005 15.1423 39.0057 15.0295 39.2361C14.9015 39.504 14.8433 39.7995 14.8603 40.0955C14.8603 40.1952 15.0107 40.2139 15.017 40.0955C15.038 39.8479 15.1016 39.6056 15.205 39.3793C15.3053 39.1364 15.5497 38.9496 15.6187 38.7067C15.6235 38.6931 15.6242 38.6783 15.6207 38.6643C15.6172 38.6503 15.6097 38.6375 15.5991 38.6276C15.5885 38.6177 15.5752 38.6111 15.5609 38.6086C15.5466 38.606 15.5318 38.6077 15.5184 38.6133Z" fill="#C66720"/>
<path fill-rule="evenodd" clip-rule="evenodd" d="M16.5274 39.2669C16.3265 39.5853 16.1745 39.9316 16.0762 40.2945C15.942 40.6328 15.8412 40.9832 15.7753 41.3408C15.7703 41.3623 15.7742 41.3849 15.7859 41.4036C15.7977 41.4222 15.8164 41.4355 15.838 41.4405C15.8596 41.4454 15.8823 41.4417 15.9011 41.43C15.9199 41.4183 15.9333 41.3997 15.9383 41.3782C16.0316 41.0314 16.151 40.692 16.2955 40.363C16.4725 40.0326 16.5992 39.6779 16.6716 39.3105C16.6745 39.3011 16.6755 39.2912 16.6745 39.2815C16.6736 39.2717 16.6707 39.2622 16.666 39.2535C16.6613 39.2448 16.655 39.2371 16.6474 39.2309C16.6397 39.2247 16.6309 39.22 16.6215 39.2171C16.612 39.2142 16.6021 39.2133 16.5922 39.2142C16.5824 39.2152 16.5728 39.218 16.5641 39.2227C16.5553 39.2273 16.5476 39.2336 16.5413 39.2412C16.535 39.2488 16.5303 39.2575 16.5274 39.2669Z" fill="#C66720"/>
<path fill-rule="evenodd" clip-rule="evenodd" d="M17.4489 40.2697C17.2304 40.7562 17.1398 41.2898 17.1857 41.8205C17.1857 41.9263 17.3486 41.9388 17.3486 41.8205C17.3486 41.3036 17.5805 40.7929 17.5492 40.2822C17.5457 40.2723 17.5396 40.2636 17.5314 40.2571C17.5232 40.2505 17.5134 40.2464 17.5029 40.2451C17.4925 40.2438 17.4819 40.2454 17.4724 40.2498C17.4628 40.2541 17.4547 40.261 17.4489 40.2697Z" fill="#C66720"/>
<path fill-rule="evenodd" clip-rule="evenodd" d="M49.1317 49.537C48.91 50.1141 48.8263 50.7345 48.8872 51.3493C48.8872 51.4302 49.0314 51.424 49.0377 51.3493C49.0377 51.0503 49.0815 50.7265 49.1192 50.4587C49.1915 50.1631 49.2273 49.8598 49.2257 49.5556C49.2257 49.4934 49.1505 49.4996 49.1317 49.537Z" fill="#C66720"/>
<path fill-rule="evenodd" clip-rule="evenodd" d="M50.7674 50.7324C50.7674 50.4459 50.9053 50.1906 50.9303 49.9041C50.9268 49.8945 50.9204 49.8863 50.912 49.8805C50.9035 49.8747 50.8936 49.8716 50.8833 49.8716C50.8731 49.8716 50.8631 49.8747 50.8547 49.8805C50.8463 49.8863 50.8399 49.8945 50.8363 49.9041C50.6542 50.1956 50.548 50.5275 50.5272 50.87C50.5064 51.2125 50.5717 51.5547 50.7172 51.8659C50.7611 51.9593 50.8865 51.8659 50.8551 51.8036C50.7431 51.458 50.7131 51.0914 50.7674 50.7324Z" fill="#C66720"/>
<path fill-rule="evenodd" clip-rule="evenodd" d="M52.2718 50.9444C52.2912 50.6599 52.2658 50.3741 52.1966 50.0974C52.1897 50.0844 52.1793 50.0735 52.1666 50.0658C52.1539 50.0582 52.1393 50.0542 52.1245 50.0542C52.1097 50.0542 52.0951 50.0582 52.0824 50.0658C52.0697 50.0735 52.0593 50.0844 52.0524 50.0974C51.9991 50.3794 51.9991 50.6687 52.0524 50.9506C52.0706 51.2758 52.1274 51.5978 52.2217 51.9097C52.2217 52.0156 52.4159 51.9907 52.3909 51.9097C52.3247 51.5917 52.2849 51.2689 52.2718 50.9444Z" fill="#C66720"/>
<path fill-rule="evenodd" clip-rule="evenodd" d="M108.674 36.7445C108.674 36.676 108.58 36.6387 108.548 36.6947C108.497 36.7757 108.469 36.8696 108.469 36.9656C108.469 37.0616 108.497 37.1556 108.548 37.2365C108.649 37.4296 108.893 37.7161 109.131 37.6849C109.15 37.6805 109.167 37.6689 109.177 37.6526C109.188 37.6364 109.191 37.6167 109.188 37.5978C109.125 37.2614 108.592 37.1244 108.674 36.7445Z" fill="#C66720"/>
<path fill-rule="evenodd" clip-rule="evenodd" d="M110.936 35.742C110.874 35.6423 110.817 35.6299 110.705 35.5925C110.551 35.5445 110.413 35.4537 110.31 35.3309C110.109 35.0958 109.969 34.8158 109.902 34.5151C109.9 34.5028 109.895 34.4911 109.888 34.4807C109.881 34.4703 109.872 34.4614 109.861 34.4545C109.851 34.4475 109.839 34.4427 109.827 34.4403C109.815 34.4379 109.802 34.4379 109.789 34.4403C109.777 34.4428 109.765 34.4476 109.755 34.4546C109.744 34.4615 109.735 34.4705 109.729 34.4809C109.722 34.4913 109.717 34.503 109.714 34.5153C109.712 34.5275 109.712 34.5402 109.714 34.5524C109.771 34.8961 109.911 35.221 110.122 35.4991C110.278 35.6921 110.692 36.0098 110.943 35.8354C110.952 35.8211 110.956 35.8044 110.955 35.7877C110.953 35.7709 110.947 35.755 110.936 35.742Z" fill="#C66720"/>
<path fill-rule="evenodd" clip-rule="evenodd" d="M112.002 33.6307C111.807 33.4377 111.6 33.2446 111.419 33.0391C111.343 32.9519 111.187 33.0391 111.243 33.145C111.385 33.3956 111.558 33.6278 111.757 33.8363C111.926 34.0106 112.114 34.2909 112.384 34.3096C112.397 34.3107 112.41 34.3088 112.423 34.304C112.435 34.2993 112.446 34.2919 112.455 34.2823C112.464 34.2727 112.471 34.2612 112.475 34.2487C112.479 34.2362 112.48 34.2229 112.478 34.2099C112.44 33.967 112.19 33.8051 112.002 33.6307Z" fill="#C66720"/>
<path opacity="0.4" fill-rule="evenodd" clip-rule="evenodd" d="M66.1983 11.9514C66.1983 13.664 63.5596 15.0653 60.2942 15.0653C57.0288 15.0653 54.3901 13.6765 54.3901 11.9514C54.3901 10.2262 57.0288 8.8374 60.2942 8.8374C63.5596 8.8374 66.1983 10.2387 66.1983 11.9514Z" fill="#DA840D"/>
<path fill-rule="evenodd" clip-rule="evenodd" d="M98.5263 37.9901C85.214 34.6333 79.6421 42.0009 79.8614 50.6701C79.9492 54.0581 83.0579 58.729 85.1012 62.2603C86.9136 65.0816 89.0276 67.7001 91.4063 70.0701C92.9106 71.135 94.9162 72.3619 96.9281 72.3619C97.6994 72.2864 98.4369 72.0092 99.0653 71.5585C99.3599 71.6157 99.6448 71.7143 99.9115 71.8512C100.864 72.1751 101.284 70.8548 102.324 71.3219C103.985 72.0755 105.421 70.5434 106.662 69.7089C107.063 69.441 111.049 63.3003 111.481 62.9765C115.587 57.7388 117.655 56.1943 117.699 49.8356C117.749 41.8888 113.732 34.7703 98.5263 37.9901Z" fill="#C73A54"/>
<g style="mix-blend-mode:multiply">
<path fill-rule="evenodd" clip-rule="evenodd" d="M103.572 40.0704C103.572 40.9797 101.228 41.7769 98.2884 41.8516C95.3489 41.9263 92.9484 41.2288 92.9233 40.3382C92.8982 39.4476 95.2674 38.6131 98.2069 38.557C101.146 38.501 103.547 39.1611 103.572 40.0704Z" fill="#ED6366"/>
</g>
<path fill-rule="evenodd" clip-rule="evenodd" d="M90.1405 43.0101C88.9684 41.2476 86.568 41.7645 85.0825 42.7984L85.0073 42.8544C84.6625 43.0859 84.3505 43.3624 84.0797 43.6765C83.0232 44.7905 82.3533 46.2113 82.1681 47.7309C81.9864 49.5993 82.6194 51.6732 84.2427 52.5015C84.2885 52.5247 84.3258 52.5618 84.3492 52.6073C84.4115 52.5944 84.4723 52.5756 84.531 52.5513C85.446 52.1776 85.4022 50.6829 85.4085 49.9231C85.4085 48.2353 86.8187 47.488 88.1098 46.7656C89.2944 46.0867 91.1684 44.5609 90.1405 43.0101Z" fill="#ED6366"/>
<g style="mix-blend-mode:multiply">
<path fill-rule="evenodd" clip-rule="evenodd" d="M111.35 57.3966C110.247 55.9829 108.592 57.708 107.802 58.5799C105.966 60.604 104.819 63.1014 102.65 64.8577C100.482 66.6139 96.5458 65.3372 94.8598 67.8907C94.781 68.0137 94.7274 68.151 94.702 68.2946C94.6767 68.4382 94.6802 68.5854 94.7122 68.7278C94.7442 68.8701 94.8042 69.0047 94.8887 69.124C94.9731 69.2432 95.0805 69.3448 95.2045 69.4227C95.3797 69.4909 95.5629 69.537 95.7498 69.5597C96.1397 69.7772 96.5633 69.9287 97.0033 70.0081C98.3782 70.1867 99.7746 69.9249 100.989 69.2608C102.093 68.7376 103.34 69.348 104.437 68.8311C104.842 68.6114 105.191 68.3025 105.458 67.928C105.81 67.5229 106.105 67.0725 106.336 66.589C106.887 65.6818 107.516 64.8233 108.216 64.0231C109.066 63.0642 109.836 62.0372 110.516 60.9528C111.331 59.7882 112.071 58.3308 111.35 57.3966Z" fill="#ED6366"/>
</g>
<path fill-rule="evenodd" clip-rule="evenodd" d="M110.999 26.1574C110.259 25.9083 108.899 27.0293 108.323 27.3718C107.007 28.1565 105.672 28.9475 104.406 29.8069C102.482 31.1472 100.889 32.9013 99.7425 34.9387C99.2645 35.8063 98.9442 36.7508 98.7961 37.7288C98.6014 38.2423 98.5037 38.787 98.5077 39.3356C98.5043 39.3741 98.5086 39.4129 98.5203 39.4497C98.532 39.4865 98.5509 39.5207 98.576 39.5502C98.601 39.5797 98.6317 39.604 98.6662 39.6217C98.7008 39.6394 98.7385 39.6501 98.7773 39.6532C101.986 39.6906 105.27 37.6043 107.514 35.5055C108.69 34.4755 109.621 33.1993 110.241 31.7687C110.55 30.9619 110.78 30.1278 110.93 29.2776C111.106 28.3683 110.842 27.2659 111.137 26.4252C111.153 26.3715 111.148 26.3137 111.122 26.2638C111.096 26.214 111.052 26.1759 110.999 26.1574Z" fill="#8DB54F"/>
<path fill-rule="evenodd" clip-rule="evenodd" d="M97.9685 39.541C97.9685 38.6504 98.238 38.0961 98.495 35.2935C98.752 32.491 98.7018 31.0897 98.8899 30.6288C99.0779 30.168 100.582 31.1457 100.582 31.1457C100.582 31.1457 100.1 33.2944 99.7423 35.0569C99.385 36.8194 99.0278 39.9894 99.0278 39.9894C99.0278 39.9894 98.8335 40.5063 98.3634 40.3755C97.8933 40.2447 97.9685 39.541 97.9685 39.541Z" fill="#300D33"/>
</svg>
