<svg width="116" height="76" viewBox="0 0 116 76" fill="none" xmlns="http://www.w3.org/2000/svg">
<defs>
<linearGradient id="paint0_linear_700_3944" x1="27.4946" y1="41.9533" x2="115.234" y2="41.9533" gradientUnits="userSpaceOnUse">
<stop offset="0.0747467" stop-color="#97C1FB"/>
<stop offset="0.6348" stop-color="#94B2FB"/>
<stop offset="1" stop-color="#91A5FB"/>
</linearGradient>
<linearGradient id="paint1_linear_700_3944" x1="19.2512" y1="41.9533" x2="106.991" y2="41.9533" gradientUnits="userSpaceOnUse">
<stop offset="0.0747467" stop-color="#97C1FB"/>
<stop offset="0.6348" stop-color="#94B2FB"/>
<stop offset="1" stop-color="#91A5FB"/>
</linearGradient>
<radialGradient id="paint2_radial_700_3944" cx="0" cy="0" r="1" gradientUnits="userSpaceOnUse" gradientTransform="translate(79.4264 10.9238) scale(24.4804 24.295)">
<stop offset="0.0747467" stop-color="#F99E96"/>
<stop offset="0.7122" stop-color="#F78F98"/>
<stop offset="1" stop-color="#F68699"/>
</radialGradient>
<radialGradient id="paint3_radial_700_3944" cx="0" cy="0" r="1" gradientUnits="userSpaceOnUse" gradientTransform="translate(79.4263 10.9238) scale(24.4804 24.295)">
<stop offset="0.0747467" stop-color="#F99E96"/>
<stop offset="0.7122" stop-color="#F78F98"/>
<stop offset="1" stop-color="#F68699"/>
</radialGradient>
<radialGradient id="paint4_radial_700_3944" cx="0" cy="0" r="1" gradientUnits="userSpaceOnUse" gradientTransform="translate(79.4265 10.9238) scale(24.4804 24.2952)">
<stop offset="0.0747467" stop-color="#F99E96"/>
<stop offset="0.7122" stop-color="#F78F98"/>
<stop offset="1" stop-color="#F68699"/>
</radialGradient>
<radialGradient id="paint5_radial_700_3944" cx="0" cy="0" r="1" gradientUnits="userSpaceOnUse" gradientTransform="translate(79.4264 10.9243) scale(24.4806 24.295)">
<stop offset="0.0747467" stop-color="#F99E96"/>
<stop offset="0.7122" stop-color="#F78F98"/>
<stop offset="1" stop-color="#F68699"/>
</radialGradient>
<radialGradient id="paint6_radial_700_3944" cx="0" cy="0" r="1" gradientUnits="userSpaceOnUse" gradientTransform="translate(79.4263 10.9243) scale(24.4804 24.295)">
<stop offset="0.0747467" stop-color="#F99E96"/>
<stop offset="0.7122" stop-color="#F78F98"/>
<stop offset="1" stop-color="#F68699"/>
</radialGradient>
<radialGradient id="paint7_radial_700_3944" cx="0" cy="0" r="1" gradientUnits="userSpaceOnUse" gradientTransform="translate(79.4264 10.9243) scale(24.4804 24.295)">
<stop offset="0.0747467" stop-color="#F99E96"/>
<stop offset="0.7122" stop-color="#F78F98"/>
<stop offset="1" stop-color="#F68699"/>
</radialGradient>
<radialGradient id="paint8_radial_700_3944" cx="0" cy="0" r="1" gradientUnits="userSpaceOnUse" gradientTransform="translate(79.4265 10.9243) scale(24.4804 24.295)">
<stop offset="0.0747467" stop-color="#F99E96"/>
<stop offset="0.7122" stop-color="#F78F98"/>
<stop offset="1" stop-color="#F68699"/>
</radialGradient>
<radialGradient id="paint9_radial_700_3944" cx="0" cy="0" r="1" gradientUnits="userSpaceOnUse" gradientTransform="translate(79.4266 10.9243) scale(24.4807 24.295)">
<stop offset="0.0747467" stop-color="#F99E96"/>
<stop offset="0.7122" stop-color="#F78F98"/>
<stop offset="1" stop-color="#F68699"/>
</radialGradient>
<radialGradient id="paint10_radial_700_3944" cx="0" cy="0" r="1" gradientUnits="userSpaceOnUse" gradientTransform="translate(79.4262 10.9243) scale(24.4804 24.295)">
<stop offset="0.0747467" stop-color="#F99E96"/>
<stop offset="0.7122" stop-color="#F78F98"/>
<stop offset="1" stop-color="#F68699"/>
</radialGradient>
<radialGradient id="paint11_radial_700_3944" cx="0" cy="0" r="1" gradientUnits="userSpaceOnUse" gradientTransform="translate(79.4264 10.9243) scale(24.4804 24.295)">
<stop offset="0.0747467" stop-color="#F99E96"/>
<stop offset="0.7122" stop-color="#F78F98"/>
<stop offset="1" stop-color="#F68699"/>
</radialGradient>
<radialGradient id="paint12_radial_700_3944" cx="0" cy="0" r="1" gradientUnits="userSpaceOnUse" gradientTransform="translate(53.7809 53.4261) scale(8.69533 8.62946)">
<stop offset="0.0747467" stop-color="#F99E96"/>
<stop offset="0.7122" stop-color="#F78F98"/>
<stop offset="1" stop-color="#F68699"/>
</radialGradient>
<radialGradient id="paint13_radial_700_3944" cx="0" cy="0" r="1" gradientUnits="userSpaceOnUse" gradientTransform="translate(53.781 53.4264) scale(8.69546 8.6295)">
<stop offset="0.0747467" stop-color="#F99E96"/>
<stop offset="0.7122" stop-color="#F78F98"/>
<stop offset="1" stop-color="#F68699"/>
</radialGradient>
<radialGradient id="paint14_radial_700_3944" cx="0" cy="0" r="1" gradientUnits="userSpaceOnUse" gradientTransform="translate(47.1619 44.057) scale(9.24615 9.17624)">
<stop offset="0.0747467" stop-color="#F99E96"/>
<stop offset="0.7122" stop-color="#F78F98"/>
<stop offset="1" stop-color="#F68699"/>
</radialGradient>
<radialGradient id="paint15_radial_700_3944" cx="0" cy="0" r="1" gradientUnits="userSpaceOnUse" gradientTransform="translate(78.6308 33.8265) scale(9.91827 9.84306)">
<stop offset="0.0747467" stop-color="#F99E96"/>
<stop offset="0.7122" stop-color="#F78F98"/>
<stop offset="1" stop-color="#F68699"/>
</radialGradient>
<radialGradient id="paint16_radial_700_3944" cx="0" cy="0" r="1" gradientUnits="userSpaceOnUse" gradientTransform="translate(47.8126 19.2875) scale(30.7848 30.552)">
<stop offset="0.0747467" stop-color="#F99E96"/>
<stop offset="0.7122" stop-color="#F78F98"/>
<stop offset="1" stop-color="#F68699"/>
</radialGradient>
<radialGradient id="paint17_radial_700_3944" cx="0" cy="0" r="1" gradientUnits="userSpaceOnUse" gradientTransform="translate(47.8128 19.2885) scale(30.7852 30.5521)">
<stop offset="0.0747467" stop-color="#F99E96"/>
<stop offset="0.7122" stop-color="#F78F98"/>
<stop offset="1" stop-color="#F68699"/>
</radialGradient>
<clipPath id="clip0_700_3944">
<rect width="116" height="76" fill="white"/>
</clipPath>
</defs>
<g clip-path="url(#clip0_700_3944)">
<path d="M36.6518 72.2842H114.794C115.557 72.2842 116.088 71.6742 115.987 70.9173L108.088 12.9851C107.986 12.2282 107.293 11.6182 106.544 11.6182H29.4648C28.716 11.6182 28.1799 12.2282 28.2677 12.9851L35.1127 70.9173C35.2052 71.6742 35.8938 72.2842 36.6518 72.2842Z" fill="#3B2645"/>
<path d="M35.8891 72.2842H114.031C114.794 72.2842 115.325 71.6742 115.224 70.9173L107.32 12.9851C107.219 12.2282 106.525 11.6182 105.777 11.6182H28.7021C27.9533 11.6182 27.4172 12.2282 27.505 12.9851L34.35 70.9173C34.4425 71.6742 35.1311 72.2842 35.8891 72.2842Z" fill="url(#paint0_linear_700_3944)"/>
<path opacity="0.3" d="M111.008 40.0206L102.948 72.2847H80.8137L107.477 14.123L111.008 40.0206Z" fill="#543753"/>
<path d="M99.3614 72.2842H21.2193C20.4567 72.2842 19.9252 71.6742 20.0269 70.9173L27.9257 12.9851C28.0273 12.2282 28.7206 11.6182 29.4694 11.6182H106.544C107.293 11.6182 107.829 12.2282 107.741 12.9851L100.896 70.9173C100.808 71.6742 100.119 72.2842 99.3614 72.2842Z" fill="#3B2645"/>
<path d="M98.5942 72.2842H20.4566C19.694 72.2842 19.1625 71.6742 19.2642 70.9173L27.163 12.9851C27.2647 12.2282 27.9579 11.6182 28.7067 11.6182H105.781C106.53 11.6182 107.066 12.2282 106.978 12.9851L100.133 70.9173C100.045 71.6742 99.3568 72.2842 98.5942 72.2842Z" fill="url(#paint1_linear_700_3944)"/>
<path d="M97.42 70.7978H22.0372C21.8431 70.7978 21.6674 70.7244 21.5473 70.5868C21.4271 70.4492 21.3716 70.2658 21.3994 70.0685L27.8561 22.5485C27.907 22.1632 28.2675 21.8467 28.6511 21.8467H103.211C103.401 21.8467 103.576 21.9201 103.697 22.0577C103.821 22.1953 103.877 22.3788 103.854 22.576L98.215 70.0915C98.1688 70.4813 97.8129 70.7978 97.42 70.7978ZM28.6511 22.0531C28.3645 22.0531 28.0965 22.287 28.0595 22.576L21.6027 70.096C21.5842 70.2291 21.6212 70.3575 21.6998 70.4492C21.783 70.541 21.8985 70.5914 22.0326 70.5914H97.4154C97.7066 70.5914 97.97 70.3575 98.0024 70.0685L103.641 22.5531C103.66 22.4155 103.618 22.2916 103.535 22.1953C103.452 22.1035 103.336 22.0531 103.207 22.0531H28.6511Z" fill="white"/>
<path d="M83.1156 20.1962H51.8578C51.3679 20.1962 50.9288 20.0036 50.6191 19.6596C50.3048 19.3018 50.1662 18.8293 50.2309 18.3202C50.3649 17.3019 51.2985 16.4717 52.3154 16.4717H83.55C84.04 16.4717 84.4837 16.6643 84.7887 17.0083C85.1076 17.3661 85.2463 17.8386 85.1862 18.3431C85.0614 19.366 84.1324 20.1962 83.1156 20.1962ZM52.3154 16.6735C51.4002 16.6735 50.559 17.4212 50.4342 18.3431C50.3742 18.7881 50.4943 19.21 50.7716 19.5174C51.0397 19.8201 51.4233 19.9852 51.8532 19.9852H83.111C84.0261 19.9852 84.8627 19.2376 84.9782 18.3156C85.0337 17.8707 84.9089 17.4487 84.6316 17.1414C84.3635 16.8386 83.9753 16.6735 83.5454 16.6735H52.3154Z" fill="white"/>
<path d="M68.5335 32.0891H60.7502L61.536 25.9473H69.31L68.5335 32.0891Z" fill="#F2F9FF"/>
<path d="M78.5352 32.0891H70.7473L71.5238 25.9473H79.2978L78.5352 32.0891Z" fill="#F2F9FF"/>
<path d="M88.5371 32.0891H80.7493L81.5073 25.9473H89.2858L88.5371 32.0891Z" fill="#F2F9FF"/>
<path d="M98.5386 32.0891H90.7507L91.4949 25.9473H99.2689L98.5386 32.0891Z" fill="url(#paint2_radial_700_3944)"/>
<path d="M37.3356 41.0793H29.5339L30.3612 34.9375H38.1537L37.3356 41.0793Z" fill="#F2F9FF"/>
<path d="M47.3562 41.0793H39.5544L40.3679 34.9375H48.1604L47.3562 41.0793Z" fill="#F2F9FF"/>
<path d="M57.3762 41.0793H49.5745L50.3741 34.9375H58.1665L57.3762 41.0793Z" fill="#F2F9FF"/>
<path d="M67.3965 41.0793H59.5947L60.3804 34.9375H68.1729L67.3965 41.0793Z" fill="#F2F9FF"/>
<path d="M77.4213 41.0793H69.615L70.3915 34.9375H78.1793L77.4213 41.0793Z" fill="#F2F9FF"/>
<path d="M87.4416 41.0793H79.6353L80.3979 34.9375H88.1903L87.4416 41.0793Z" fill="#F2F9FF"/>
<path d="M97.4616 41.0793H89.6599L90.404 34.9375H98.1965L97.4616 41.0793Z" fill="url(#paint3_radial_700_3944)"/>
<path d="M36.1386 50.0745H28.3184L29.1457 43.9326H36.9567L36.1386 50.0745Z" fill="#F2F9FF"/>
<path d="M46.1774 50.0745H38.3618L39.1753 43.9326H46.9816L46.1774 50.0745Z" fill="#F2F9FF"/>
<path d="M56.2206 50.0745H48.4004L49.2046 43.9326H57.011L56.2206 50.0745Z" fill="#F2F9FF"/>
<path d="M66.2594 50.0745H58.4438L59.2296 43.9326H67.0359L66.2594 50.0745Z" fill="#F2F9FF"/>
<path d="M76.3029 50.0745H68.4827L69.2591 43.9326H77.0655L76.3029 50.0745Z" fill="#F2F9FF"/>
<path d="M86.346 50.0745H78.5259L79.2839 43.9326H87.0948L86.346 50.0745Z" fill="#F2F9FF"/>
<path d="M96.3849 50.0745H88.5647L89.3134 43.9326H97.1198L96.3849 50.0745Z" fill="url(#paint4_radial_700_3944)"/>
<path d="M34.9417 59.0696H27.103L27.935 52.9277H35.7598L34.9417 59.0696Z" fill="#F2F9FF"/>
<path d="M45.0032 59.0696H37.1646L37.9826 52.9277H45.8074L45.0032 59.0696Z" fill="#F2F9FF"/>
<path d="M55.0652 59.0696H47.2266L48.0308 52.9277H55.8556L55.0652 59.0696Z" fill="#F2F9FF"/>
<path d="M65.127 59.0696H57.2883L58.0787 52.9277H65.8989L65.127 59.0696Z" fill="#F2F9FF"/>
<path d="M75.1844 59.0696H67.3503L68.1268 52.9277H75.947L75.1844 59.0696Z" fill="#F2F9FF"/>
<path d="M85.2462 59.0696H77.4121L78.1747 52.9277H85.9949L85.2462 59.0696Z" fill="#F2F9FF"/>
<path d="M95.308 59.0696H87.4739L88.2226 52.9277H96.0429L95.308 59.0696Z" fill="url(#paint5_radial_700_3944)"/>
<path d="M33.7398 68.0598H25.8918L26.7192 61.918H34.5578L33.7398 68.0598Z" fill="#F2F9FF"/>
<path d="M43.825 68.0598H35.9724L36.7905 61.918H44.6292L43.825 68.0598Z" fill="#F2F9FF"/>
<path d="M53.9051 68.0598H46.0571L46.8567 61.918H54.6954L53.9051 68.0598Z" fill="#F2F9FF"/>
<path d="M63.9903 68.0598H56.1377L56.9234 61.918H64.7668L63.9903 68.0598Z" fill="#F2F9FF"/>
<path d="M74.0703 68.0598H66.2178L66.9943 61.918H74.833L74.0703 68.0598Z" fill="#FDF8EE"/>
<path d="M99.5185 24.1771H91.7445C91.5735 24.1771 91.4348 24.0395 91.4348 23.8698C91.4348 23.7001 91.5735 23.5625 91.7445 23.5625H99.5185C99.6895 23.5625 99.8281 23.7001 99.8281 23.8698C99.8281 24.0395 99.6895 24.1771 99.5185 24.1771Z" fill="#F2F9FF"/>
<path d="M89.5351 24.1771H81.7611C81.5901 24.1771 81.4514 24.0395 81.4514 23.8698C81.4514 23.7001 81.5901 23.5625 81.7611 23.5625H89.5351C89.7061 23.5625 89.8448 23.7001 89.8448 23.8698C89.8448 24.0395 89.7061 24.1771 89.5351 24.1771Z" fill="url(#paint6_radial_700_3944)"/>
<path d="M79.5566 24.1771H71.7826C71.6116 24.1771 71.4729 24.0395 71.4729 23.8698C71.4729 23.7001 71.6116 23.5625 71.7826 23.5625H79.5566C79.7276 23.5625 79.8662 23.7001 79.8662 23.8698C79.8662 24.0395 79.7276 24.1771 79.5566 24.1771Z" fill="url(#paint7_radial_700_3944)"/>
<path d="M69.5734 24.1771H61.7994C61.6284 24.1771 61.4897 24.0395 61.4897 23.8698C61.4897 23.7001 61.6284 23.5625 61.7994 23.5625H69.5734C69.7444 23.5625 69.8831 23.7001 69.8831 23.8698C69.8831 24.0395 69.7444 24.1771 69.5734 24.1771Z" fill="url(#paint8_radial_700_3944)"/>
<path d="M59.5901 24.1771H51.816C51.645 24.1771 51.5063 24.0395 51.5063 23.8698C51.5063 23.7001 51.645 23.5625 51.816 23.5625H59.5901C59.7611 23.5625 59.8998 23.7001 59.8998 23.8698C59.8998 24.0395 59.7611 24.1771 59.5901 24.1771Z" fill="url(#paint9_radial_700_3944)"/>
<path d="M49.6113 24.1771H41.8373C41.6662 24.1771 41.5276 24.0395 41.5276 23.8698C41.5276 23.7001 41.6662 23.5625 41.8373 23.5625H49.6113C49.7823 23.5625 49.9209 23.7001 49.9209 23.8698C49.9209 24.0395 49.7823 24.1771 49.6113 24.1771Z" fill="url(#paint10_radial_700_3944)"/>
<path d="M39.6281 24.1771H31.8541C31.6831 24.1771 31.5444 24.0395 31.5444 23.8698C31.5444 23.7001 31.6831 23.5625 31.8541 23.5625H39.6281C39.7991 23.5625 39.9378 23.7001 39.9378 23.8698C39.9378 24.0395 39.7991 24.1771 39.6281 24.1771Z" fill="url(#paint11_radial_700_3944)"/>
<path d="M35.672 14.123C35.6165 14.5405 35.2329 14.8799 34.8169 14.8799C34.4009 14.8799 34.1098 14.5405 34.1652 14.123C34.2207 13.7056 34.6043 13.3662 35.0203 13.3662C35.4362 13.3662 35.732 13.7056 35.672 14.123Z" fill="#3B2645"/>
<path d="M35.3439 8.72852C34.683 8.72852 34.0035 8.95786 33.435 9.37527C32.6678 9.93487 32.1594 10.7697 32.0392 11.6595C31.822 13.2741 32.9497 14.5906 34.5582 14.5906C34.6552 14.5906 34.7523 14.586 34.8493 14.5768C35.0989 14.5539 35.3115 14.3291 35.3208 14.0814C35.33 13.8337 35.1359 13.6502 34.8817 13.6732C34.817 13.6778 34.7477 13.6824 34.683 13.6824C33.5737 13.6824 32.7926 12.7741 32.9451 11.6595C33.0283 11.0449 33.3796 10.4669 33.9111 10.0816C34.3086 9.78809 34.7661 9.63672 35.2283 9.63672C36.3237 9.63672 37.0956 10.522 36.9708 11.6228H37.8721C38.0569 10.022 36.9338 8.72852 35.3439 8.72852Z" fill="#5080C0"/>
<path d="M35.672 14.123C35.6165 14.5405 35.2329 14.8799 34.8169 14.8799C34.4009 14.8799 34.1098 14.5405 34.1652 14.123C34.2207 13.7056 34.6043 13.3662 35.0203 13.3662C35.4362 13.3662 35.732 13.7056 35.672 14.123Z" fill="#3B2645"/>
<path d="M35.3439 8.72852C34.683 8.72852 34.0035 8.95786 33.435 9.37527C32.6678 9.93487 32.1594 10.7697 32.0392 11.6595C31.822 13.2741 32.9497 14.5906 34.5582 14.5906C34.6552 14.5906 34.7523 14.586 34.8493 14.5768C35.0989 14.5539 35.3115 14.3291 35.3208 14.0814C35.33 13.8337 35.1359 13.6502 34.8817 13.6732C34.817 13.6778 34.7477 13.6824 34.683 13.6824C33.5737 13.6824 32.7926 12.7741 32.9451 11.6595C33.0283 11.0449 33.3796 10.4669 33.9111 10.0816C34.3086 9.78809 34.7661 9.63672 35.2283 9.63672C36.3237 9.63672 37.0956 10.522 36.9708 11.6228H37.8721C38.0569 10.022 36.9338 8.72852 35.3439 8.72852Z" fill="#AA8CA7"/>
<path d="M43.8111 14.123C43.7556 14.5405 43.372 14.8799 42.9561 14.8799C42.5401 14.8799 42.2489 14.5405 42.3044 14.123C42.3598 13.7056 42.7435 13.3662 43.1594 13.3662C43.5754 13.3662 43.8666 13.7056 43.8111 14.123Z" fill="#3B2645"/>
<path d="M43.4693 8.72852C42.8084 8.72852 42.1289 8.95786 41.5605 9.37527C40.7932 9.93487 40.2848 10.7697 40.1646 11.6595C39.9474 13.2741 41.0798 14.5906 42.6882 14.5906C42.7853 14.5906 42.8823 14.586 42.9794 14.5768C43.229 14.5539 43.4416 14.3291 43.4508 14.0814C43.4601 13.8337 43.2613 13.6502 43.0117 13.6732C42.947 13.6778 42.8777 13.6824 42.813 13.6824C41.7037 13.6824 40.9226 12.7741 41.0705 11.6595C41.1537 11.0449 41.505 10.4669 42.0319 10.0816C42.4294 9.78809 42.8869 9.63672 43.3491 9.63672C44.4445 9.63672 45.221 10.522 45.0962 11.6228H45.9975C46.187 10.022 45.0639 8.72852 43.4693 8.72852Z" fill="#AA8CA7"/>
<path d="M51.9503 14.123C51.8948 14.5405 51.5158 14.8799 51.0998 14.8799C50.6838 14.8799 50.3927 14.5405 50.4435 14.123C50.499 13.7056 50.878 13.3662 51.2939 13.3662C51.7145 13.3662 52.0057 13.7056 51.9503 14.123Z" fill="#3B2645"/>
<path d="M51.5991 8.72852C50.9382 8.72852 50.2588 8.95786 49.6903 9.37527C48.923 9.93487 48.4193 10.7697 48.2991 11.6595C48.0865 13.2741 49.2188 14.5906 50.8272 14.5906C50.9243 14.5906 51.0214 14.586 51.1184 14.5768C51.368 14.5539 51.5806 14.3291 51.5852 14.0814C51.5945 13.8337 51.3957 13.6502 51.1462 13.6732C51.0815 13.6778 51.0121 13.6824 50.9474 13.6824C49.8382 13.6824 49.0525 12.7741 49.2004 11.6595C49.2835 11.0449 49.6302 10.4669 50.1617 10.0816C50.5592 9.78809 51.0168 9.63672 51.4789 9.63672C52.5743 9.63672 53.3508 10.522 53.2306 11.6228H54.1319C54.3168 10.022 53.189 8.72852 51.5991 8.72852Z" fill="#AA8CA7"/>
<path d="M60.0895 14.123C60.0341 14.5405 59.6551 14.8799 59.2391 14.8799C58.8232 14.8799 58.5274 14.5405 58.5829 14.123C58.6383 13.7056 59.0173 13.3662 59.4333 13.3662C59.8492 13.3662 60.145 13.7056 60.0895 14.123Z" fill="#3B2645"/>
<path d="M59.7289 8.72852C59.068 8.72852 58.3932 8.95786 57.8247 9.37527C57.0621 9.93487 56.5537 10.7697 56.4381 11.6595C56.2301 13.2741 57.3671 14.5906 58.9709 14.5906C59.068 14.5906 59.165 14.586 59.2621 14.5768C59.5117 14.5539 59.7243 14.3291 59.7289 14.0814C59.7382 13.8337 59.5394 13.6502 59.2898 13.6732C59.2251 13.6778 59.1558 13.6824 59.0911 13.6824C57.9818 13.6824 57.1961 12.7741 57.3394 11.6595C57.418 11.0449 57.7692 10.4669 58.2961 10.0816C58.6936 9.78809 59.1512 9.63672 59.6134 9.63672C60.7087 9.63672 61.4852 10.522 61.3651 11.6228H62.2663C62.4466 10.022 61.3188 8.72852 59.7289 8.72852Z" fill="#AA8CA7"/>
<path d="M68.2285 14.123C68.1777 14.5405 67.7941 14.8799 67.3781 14.8799C66.9621 14.8799 66.6663 14.5405 66.7218 14.123C66.7772 13.7056 67.1562 13.3662 67.5722 13.3662C67.9882 13.3662 68.2794 13.7056 68.2285 14.123Z" fill="#3B2645"/>
<path d="M67.8543 8.72852C67.1934 8.72852 66.5186 8.95786 65.9501 9.37527C65.1875 9.93487 64.6837 10.7697 64.5682 11.6595C64.3602 13.2741 65.5018 14.5906 67.1102 14.5906C67.2072 14.5906 67.3043 14.586 67.4013 14.5768C67.6509 14.5539 67.8635 14.3291 67.8682 14.0814C67.8774 13.8337 67.6787 13.6502 67.4291 13.6732C67.3644 13.6778 67.295 13.6824 67.2303 13.6824C66.1211 13.6824 65.3354 12.7741 65.474 11.6595C65.5526 11.0449 65.8992 10.4669 66.4261 10.0816C66.8236 9.78809 67.2766 9.63672 67.7434 9.63672C68.8387 9.63672 69.6198 10.522 69.4997 11.6228H70.4009C70.5812 10.022 69.4488 8.72852 67.8543 8.72852Z" fill="#AA8CA7"/>
<path d="M76.3677 14.123C76.3168 14.5405 75.9378 14.8799 75.5172 14.8799C75.1013 14.8799 74.8055 14.5405 74.8609 14.123C74.9118 13.7056 75.2954 13.3662 75.7114 13.3662C76.1273 13.3662 76.4185 13.7056 76.3677 14.123Z" fill="#3B2645"/>
<path d="M75.9842 8.72852C75.3233 8.72852 74.6485 8.95786 74.08 9.37527C73.3174 9.93487 72.8136 10.7697 72.7027 11.6595C72.4993 13.2741 73.6409 14.5906 75.2493 14.5906C75.3464 14.5906 75.4435 14.586 75.5405 14.5768C75.7901 14.5539 75.9981 14.3291 76.0073 14.0814C76.012 13.8337 75.8178 13.6502 75.5636 13.6732C75.4989 13.6778 75.4296 13.6824 75.3649 13.6824C74.2556 13.6824 73.4653 12.7741 73.6086 11.6595C73.6871 11.0449 74.0338 10.4669 74.5607 10.0816C74.9582 9.78809 75.4111 9.63672 75.8733 9.63672C76.9687 9.63672 77.7498 10.522 77.6342 11.6228H78.5355C78.7112 10.022 77.5742 8.72852 75.9842 8.72852Z" fill="#AA8CA7"/>
<path d="M84.5022 14.123C84.4513 14.5405 84.0723 14.8799 83.6564 14.8799C83.2404 14.8799 82.9446 14.5405 82.9954 14.123C83.0463 13.7056 83.4253 13.3662 83.8412 13.3662C84.2618 13.3662 84.5577 13.7056 84.5022 14.123Z" fill="#3B2645"/>
<path d="M84.1095 8.72852C83.4485 8.72852 82.7737 8.95786 82.2052 9.37527C81.4426 9.93487 80.9435 10.7697 80.8325 11.6595C80.6338 13.2741 81.7754 14.5906 83.3838 14.5906C83.4809 14.5906 83.578 14.586 83.675 14.5768C83.9246 14.5539 84.1326 14.3291 84.1418 14.0814C84.1464 13.8337 83.9523 13.6502 83.6981 13.6732C83.6334 13.6778 83.5641 13.6824 83.4994 13.6824C82.3901 13.6824 81.5998 12.7741 81.7384 11.6595C81.817 11.0449 82.159 10.4669 82.6859 10.0816C83.0834 9.78809 83.5364 9.63672 83.9985 9.63672C85.0939 9.63672 85.8797 10.522 85.7641 11.6228H86.6654C86.841 10.022 85.704 8.72852 84.1095 8.72852Z" fill="#AA8CA7"/>
<path d="M92.6413 14.123C92.5904 14.5405 92.2114 14.8799 91.7955 14.8799C91.3795 14.8799 91.0838 14.5405 91.1346 14.123C91.1854 13.7056 91.5644 13.3662 91.9804 13.3662C92.3963 13.3662 92.6921 13.7056 92.6413 14.123Z" fill="#3B2645"/>
<path d="M92.2393 8.72852C91.5783 8.72852 90.9035 8.95786 90.3397 9.37527C89.5817 9.93487 89.0825 10.7697 88.9716 11.6595C88.7729 13.2741 89.9191 14.5906 91.5275 14.5906C91.6246 14.5906 91.7216 14.586 91.8187 14.5768C92.0682 14.5539 92.2762 14.3291 92.2809 14.0814C92.2855 13.8337 92.0867 13.6502 91.8372 13.6732C91.7724 13.6778 91.7031 13.6824 91.6384 13.6824C90.5292 13.6824 89.7342 12.7741 89.8729 11.6595C89.9468 11.0449 90.2935 10.4669 90.8204 10.0816C91.2178 9.78809 91.6708 9.63672 92.133 9.63672C93.2283 9.63672 94.014 10.522 93.9031 11.6228H94.8044C94.9708 10.022 93.8338 8.72852 92.2393 8.72852Z" fill="#AA8CA7"/>
<path d="M100.78 14.123C100.73 14.5405 100.351 14.8799 99.9347 14.8799C99.5187 14.8799 99.2229 14.5405 99.2738 14.123C99.3246 13.7056 99.7036 13.3662 100.12 13.3662C100.535 13.3662 100.831 13.7056 100.78 14.123Z" fill="#3B2645"/>
<path d="M100.369 8.72852C99.7082 8.72852 99.0334 8.95786 98.4695 9.37527C97.7115 9.93487 97.2124 10.7697 97.1061 11.6595C96.912 13.2741 98.0628 14.5906 99.6666 14.5906C99.7637 14.5906 99.8607 14.586 99.9578 14.5768C100.207 14.5539 100.415 14.3291 100.42 14.0814C100.425 13.8337 100.226 13.6502 99.9763 13.6732C99.9116 13.6778 99.8422 13.6824 99.7775 13.6824C98.6683 13.6824 97.8733 12.7741 98.0073 11.6595C98.0813 11.0449 98.4233 10.4669 98.9502 10.0816C99.3477 9.78809 99.8006 9.63672 100.263 9.63672C101.358 9.63672 102.144 10.522 102.033 11.6228H102.934C103.101 10.022 101.959 8.72852 100.369 8.72852Z" fill="#AA8CA7"/>
<path d="M45.4475 40.1207C45.3643 40.1207 45.2811 40.0886 45.2211 40.0244L41.8009 36.3778C41.6853 36.254 41.6899 36.0613 41.8147 35.9421C41.9395 35.8274 42.1336 35.832 42.2538 35.9558L45.674 39.6024C45.7895 39.7262 45.7849 39.9189 45.6601 40.0381C45.5954 40.0932 45.5215 40.1207 45.4475 40.1207Z" fill="#3B2645"/>
<path d="M41.7036 40.121C41.6158 40.121 41.528 40.0843 41.4679 40.0109C41.357 39.8825 41.3709 39.6898 41.5049 39.5797L45.8171 35.9332C45.9465 35.8231 46.1407 35.8368 46.2516 35.9699C46.3625 36.0983 46.3486 36.2909 46.2146 36.401L41.9024 40.0476C41.8469 40.0981 41.7776 40.121 41.7036 40.121Z" fill="#3B2645"/>
<path d="M64.1151 48.6384C64.0319 48.6384 63.9488 48.6063 63.8887 48.542L60.9215 45.3817C60.8059 45.2579 60.8105 45.0652 60.9353 44.946C61.0601 44.8313 61.2542 44.8359 61.3744 44.9597L64.3416 48.1201C64.4572 48.2439 64.4525 48.4365 64.3277 48.5558C64.263 48.6108 64.1891 48.6384 64.1151 48.6384Z" fill="#3B2645"/>
<path d="M60.8704 48.6387C60.7826 48.6387 60.6947 48.602 60.6347 48.5286C60.5237 48.4002 60.5376 48.2076 60.6716 48.0975L64.4107 44.9371C64.5402 44.827 64.7343 44.8408 64.8452 44.9738C64.9561 45.1022 64.9423 45.2949 64.8082 45.4049L61.0691 48.5653C61.0137 48.6158 60.9397 48.6387 60.8704 48.6387Z" fill="#3B2645"/>
<path d="M73.9363 30.9153L72.6098 28.9797C72.4804 28.7916 72.5313 28.5393 72.7208 28.4109C72.9102 28.2825 73.1645 28.3329 73.2939 28.521L74.1119 29.7136L77.4536 27.0027C77.6292 26.8605 77.888 26.8835 78.0359 27.0624C78.1792 27.2367 78.1561 27.4935 77.9759 27.6403L73.9363 30.9153Z" fill="#3B2645"/>
<path d="M71.0154 57.2754L70.0863 55.9177C69.9893 55.7755 70.0262 55.5874 70.1695 55.4911C70.3128 55.3948 70.5023 55.4315 70.5994 55.5737L71.1494 56.3764L73.4419 54.5187C73.576 54.4132 73.7701 54.4316 73.8764 54.56C73.9827 54.693 73.9642 54.8856 73.8348 54.9911L71.0154 57.2754Z" fill="#3B2645"/>
<path d="M70.3961 58.6063C69.2498 58.6063 68.7784 58.1293 68.5889 57.7073C68.062 56.5331 69.1389 54.6708 70.4746 53.4323C70.5994 53.3176 70.7935 53.3222 70.9137 53.4461C71.0293 53.5699 71.0246 53.7626 70.8998 53.8818C69.5965 55.0882 68.8154 56.689 69.1574 57.455C69.3931 57.9779 70.1603 58.0238 70.7612 57.9734C72.6931 57.8036 74.1675 56.4734 74.6251 55.2487C74.8007 54.7809 74.7961 54.3726 74.6159 54.1891C74.0335 53.5974 72.194 54.3268 71.5978 54.6295C71.4452 54.7075 71.2604 54.6478 71.1818 54.4965C71.1032 54.3451 71.1633 54.1616 71.3158 54.0836C71.5931 53.9415 74.052 52.7397 75.0596 53.7626C75.4201 54.1295 75.4755 54.7488 75.2075 55.4643C74.699 56.8312 73.1091 58.3908 70.8167 58.588C70.6641 58.6018 70.5255 58.6063 70.3961 58.6063Z" fill="#3B2645"/>
<path d="M53.5214 57.8167L52.4076 54.9912L50.9424 56.5599L50.4571 55.9315L48.8672 57.8121L53.5214 57.8167Z" fill="url(#paint12_radial_700_3944)"/>
<path d="M51.7097 54.5833C51.7513 54.3586 51.5942 54.1797 51.3631 54.1797C51.132 54.1797 50.9147 54.3632 50.8731 54.5833C50.8315 54.8081 50.9887 54.987 51.2198 54.987C51.4509 54.987 51.6681 54.8081 51.7097 54.5833Z" fill="url(#paint13_radial_700_3944)"/>
<path d="M66.8742 30.6351L65.7603 27.8096L64.2906 29.3829L63.8099 28.7499L62.2153 30.6305L66.8742 30.6351Z" fill="#3B2645"/>
<path d="M65.0624 27.4056C65.104 27.1808 64.9469 27.002 64.7158 27.002C64.4847 27.002 64.2675 27.1854 64.2259 27.4056C64.1843 27.6304 64.3415 27.8092 64.5725 27.8092C64.799 27.8092 65.0208 27.6258 65.0624 27.4056Z" fill="#3B2645"/>
<path opacity="0.3" d="M45.9463 44.6895C45.9463 44.6895 45.6828 49.7855 44.9526 51.8037H37.9458C37.9458 51.8037 39.374 48.2672 39.8546 45.0977L45.9463 44.6895Z" fill="#543753"/>
<path d="M45.9465 44.6892C45.9465 44.6892 45.7385 48.7853 43.996 50.8448L36.8506 50.6797C36.8506 50.6797 38.9674 48.1523 39.6237 44.6846H45.9465V44.6892Z" fill="url(#paint14_radial_700_3944)"/>
<path d="M44.4212 46.6153H40.4464C40.3863 46.6153 40.3401 46.5694 40.3401 46.5098C40.3401 46.4502 40.3863 46.4043 40.4464 46.4043H44.4212C44.4813 46.4043 44.5275 46.4502 44.5275 46.5098C44.5229 46.5648 44.4767 46.6153 44.4212 46.6153Z" fill="#3B2645"/>
<path d="M44.0792 47.4005H40.1043C40.0443 47.4005 39.998 47.3546 39.998 47.295C39.998 47.2353 40.0443 47.1895 40.1043 47.1895H44.0792C44.1393 47.1895 44.1855 47.2353 44.1855 47.295C44.1809 47.3546 44.1346 47.4005 44.0792 47.4005Z" fill="#3B2645"/>
<path d="M43.7095 48.1895H39.7347C39.6746 48.1895 39.6284 48.1436 39.6284 48.084C39.6284 48.0244 39.6746 47.9785 39.7347 47.9785H43.7095C43.7696 47.9785 43.8158 48.0244 43.8158 48.084C43.8158 48.1436 43.7696 48.1895 43.7095 48.1895Z" fill="#3B2645"/>
<path d="M43.335 49.0059H39.3602C39.3001 49.0059 39.2539 48.96 39.2539 48.9004C39.2539 48.8408 39.3001 48.7949 39.3602 48.7949H43.335C43.3951 48.7949 43.4413 48.8408 43.4413 48.9004C43.4413 48.96 43.3951 49.0059 43.335 49.0059Z" fill="#3B2645"/>
<path opacity="0.3" d="M77.5971 35.502C77.5971 35.502 77.3106 41.0704 76.511 43.2722H68.8572C68.8572 43.2722 70.4147 39.4054 70.9416 35.9469L77.5971 35.502Z" fill="#543753"/>
<path d="M77.597 35.502C77.597 35.502 77.3706 39.9787 75.4663 42.2263L67.6599 42.0474C67.6599 42.0474 69.9709 39.2861 70.6873 35.502H77.597Z" fill="url(#paint15_radial_700_3944)"/>
<path d="M75.933 37.6024H71.5884C71.5237 37.6024 71.4729 37.5519 71.4729 37.4877C71.4729 37.4235 71.5237 37.373 71.5884 37.373H75.933C75.9977 37.373 76.0486 37.4235 76.0486 37.4877C76.0486 37.5519 75.9931 37.6024 75.933 37.6024Z" fill="#3B2645"/>
<path d="M75.5587 38.4657H71.2142C71.1495 38.4657 71.0986 38.4152 71.0986 38.351C71.0986 38.2868 71.1495 38.2363 71.2142 38.2363H75.5587C75.6234 38.2363 75.6742 38.2868 75.6742 38.351C75.6742 38.4152 75.6188 38.4657 75.5587 38.4657Z" fill="#3B2645"/>
<path d="M75.1567 39.327H70.8121C70.7474 39.327 70.6965 39.2766 70.6965 39.2123C70.6965 39.1481 70.7474 39.0977 70.8121 39.0977H75.1567C75.2214 39.0977 75.2722 39.1481 75.2722 39.2123C75.2722 39.2766 75.2214 39.327 75.1567 39.327Z" fill="#3B2645"/>
<path d="M74.75 40.2177H70.4053C70.3406 40.2177 70.2898 40.1672 70.2898 40.103C70.2898 40.0387 70.3406 39.9883 70.4053 39.9883H74.75C74.8147 39.9883 74.8655 40.0387 74.8655 40.103C74.8655 40.1672 74.8101 40.2177 74.75 40.2177Z" fill="#3B2645"/>
<path d="M17.4846 47.6891L10.6534 46.5332C10.6534 46.5332 9.49795 51.1522 9.18366 52.0604C8.86937 52.9686 7.59373 54.6199 6.45675 58.8352C5.32439 63.046 3.4895 66.6375 3.4895 66.6375C3.4895 66.6375 4.26136 66.532 4.61262 67.2338C4.96388 67.9356 5.46305 69.7016 6.5307 68.9585C6.5307 68.9585 12.8719 57.8949 14.5358 54.7896C16.1997 51.6797 17.4846 47.6891 17.4846 47.6891Z" fill="#FFEDE5"/>
<path d="M10.6536 46.5371C10.6536 46.5371 10.344 47.7802 9.99731 49.1012C11.92 49.8397 15.5806 49.9452 16.6759 49.959C17.1797 48.6333 17.4802 47.693 17.4802 47.693L10.6536 46.5371Z" fill="#DD825C"/>
<path d="M4.61736 67.2328C4.2661 66.531 3.49424 66.6365 3.49424 66.6365C3.49424 66.6365 0.984561 67.7603 0.120269 69.2189C-0.485198 70.2372 1.45137 73.1453 2.67155 74.8011C3.22617 75.5534 4.10433 75.9983 5.04257 75.9983H8.68C8.74932 75.9983 8.80941 75.9387 8.80479 75.8699C8.76781 73.5948 7.79722 72.737 7.03461 72.5352C6.25813 72.3288 5.87914 71.1637 6.34595 70.1133C6.81738 69.0629 6.53544 68.9575 6.53544 68.9575C5.46317 69.7005 4.96862 67.9346 4.61736 67.2328Z" fill="#3B2645"/>
<path d="M11.5687 34.1254C11.5687 34.1254 9.68764 38.804 10.7738 41.3176L9.92798 47.5649C9.92798 47.5649 14.6284 49.9822 18.1041 49.2392C18.1041 49.2392 20.5213 41.4873 19.7633 35.24C19.0054 28.9926 11.9477 31.9925 11.5687 34.1254Z" fill="#3B2645"/>
<path opacity="0.5" d="M16.9949 39.1162L18.5339 47.6891C18.8991 46.2488 19.4121 43.9508 19.6987 41.4097L16.9949 39.1162Z" fill="#3B2645"/>
<path d="M5.49088 73.5681C4.40012 71.8756 2.31565 68.0959 0.85051 68.3436C0.559331 68.6143 0.295884 68.9124 0.11563 69.2243C-0.489836 70.2426 1.44673 73.1507 2.66691 74.8066C3.22154 75.5588 4.09969 76.0038 5.03794 76.0038H8.67536C8.74469 76.0038 8.80477 75.9441 8.80015 75.8753C8.79553 75.6735 8.78628 75.4809 8.76779 75.302C8.19468 75.2836 6.47534 75.0956 5.49088 73.5681Z" fill="#E5E5E5"/>
<path d="M2.66691 74.806C3.22153 75.5582 4.09969 76.0032 5.03793 76.0032H8.22703C7.4182 75.9573 5.69886 75.6316 4.67743 73.7969C3.30473 71.3383 1.04925 68.2284 0.11563 69.2237C-0.489836 70.242 1.44673 73.1501 2.66691 74.806Z" fill="#AFAFAF"/>
<path d="M30.6432 71.5679C31.1516 71.6413 31.1193 70.6093 31.1193 70.6093C31.1193 70.6093 28.1335 53.3351 27.736 51.6838C27.3386 50.0325 26.3264 44.9365 26.3264 44.9365L20.4658 47.5648C20.4658 47.5648 21.9587 51.4912 22.0558 52.3764C22.1528 53.2617 22.8276 58.0229 23.8398 60.1053C24.852 62.1878 27.3386 67.7654 27.6251 71.1368C29.0533 70.0497 30.1348 71.4945 30.6432 71.5679Z" fill="#FFEDE5"/>
<path d="M27.1212 75.8482C27.1305 75.9353 27.2091 76.0041 27.2969 76.0041H36.4112C36.5175 76.0041 36.6007 75.917 36.5961 75.8161C36.5776 75.3161 36.4667 73.9859 35.8243 73.7245C35.0293 73.4034 32.3717 72.8759 31.5721 70.9678C31.3179 70.3577 31.133 70.5916 31.1192 70.61C31.1192 70.61 31.1515 71.642 30.6431 71.5686C30.1347 71.4952 29.0532 70.0504 27.6297 71.1375C27.6297 71.1375 26.9317 74.2061 27.1212 75.8482Z" fill="#3B2645"/>
<path d="M27.2971 75.999H36.4114C36.5178 75.999 36.6009 75.9118 36.5963 75.8109C36.5917 75.6825 36.5825 75.5036 36.5547 75.3018H27.0891C27.0891 75.4944 27.103 75.6779 27.1215 75.8476C27.1307 75.9348 27.2047 75.999 27.2971 75.999Z" fill="#E5E5E5"/>
<path d="M21.3856 50.0876C21.3856 50.0876 24.4129 50.6701 26.9087 47.8033L26.331 44.9365L20.4658 47.5648L21.3856 50.0876Z" fill="#DD825C"/>
<path d="M24.8798 34.7035C24.8798 34.7035 26.6176 42.0562 27.7361 47.0146C27.7361 47.0146 25.0462 50.3218 20.3919 49.3402C20.3919 49.3402 18.5201 43.6204 18.2243 43.047C17.9285 42.4736 14.4806 37.9234 15.978 34.3594C17.4755 30.7954 23.5071 31.6257 24.8798 34.7035Z" fill="#3B2645"/>
<path d="M22.4993 13.4663C22.4993 13.4663 18.3951 12.3929 16.9947 12.4204C15.5943 12.4434 13.4728 14.2277 12.872 18.0073C12.2711 21.7869 12.5577 26.837 12.2711 28.4424C11.98 30.0478 10.8984 34.5705 10.8984 34.6393C10.8984 34.7127 16.5094 36.3685 18.5199 36.3318C20.5258 36.2952 21.122 35.9557 21.122 35.9557C21.122 35.9557 22.0279 34.3411 22.0788 34.4099C22.1342 34.4833 22.712 35.8273 22.712 35.8273L25.1847 35.4282C25.1847 35.4282 24.3666 30.5799 24.3897 29.9607C24.4128 29.3369 25.3649 19.8007 25.5359 19.0577C25.6977 18.3192 25.2725 14.6543 22.4993 13.4663Z" fill="#AA8CA7"/>
<path opacity="0.5" d="M21.2978 20.5943L24.4037 29.7222C24.5331 28.103 25.3743 19.7549 25.5314 19.0622C25.7024 18.3192 25.2726 14.6543 22.4995 13.4663C22.4995 13.4663 18.3952 12.3929 16.9948 12.4204C16.8192 12.425 16.6343 12.4526 16.4402 12.5122L23.0356 16.3193L21.2978 20.5943Z" fill="#543753"/>
<path d="M26.5807 5.28313C26.5807 5.28313 25.8551 12.0121 23.7059 13.0717C21.5521 14.1312 19.6895 9.30124 19.9067 7.39768C20.1239 5.49413 23.595 2.80622 26.5807 5.28313Z" fill="#FFEDE5"/>
<path d="M23.336 8.91584C23.336 8.91584 24.0616 8.80117 24.2835 7.47098C24.2835 7.47098 25.1894 7.2187 25.0138 6.02611C25.0138 6.02611 26.2524 6.67286 27.1398 6.15913C28.0272 5.6454 28.2444 4.39318 28.0873 4.18677C27.9348 3.98036 27.6436 4.12255 27.6436 4.12255C27.6436 4.12255 28.0503 2.65475 26.2617 2.63641C24.473 2.61347 22.9986 1.71903 21.7599 1.40254C20.5213 1.08604 18.6217 2.00342 18.6217 3.77395C18.6217 3.77395 16.3801 4.595 17.5956 9.1039C18.8112 13.6128 22.4671 11.6175 22.4671 11.6175C22.4671 11.6175 22.1713 9.00299 23.336 8.91584Z" fill="#3B2645"/>
<path d="M23.1017 10.2157C23.5722 10.089 23.7899 9.38765 23.5879 8.64931C23.386 7.91096 22.8408 7.41518 22.3703 7.54195C21.8997 7.66872 21.682 8.37003 21.884 9.10838C22.086 9.84673 22.6311 10.3425 23.1017 10.2157Z" fill="#FFEDE5"/>
<path d="M39.189 22.9198L44.3008 24.039C44.4117 24.062 44.4856 23.9289 44.4071 23.8464L40.4877 20.0576L39.189 22.9198Z" fill="#F2F9FF"/>
<path d="M39.3277 21.2636C38.9903 22.0709 38.9302 22.814 39.189 22.9195C39.4478 23.025 39.9331 22.4608 40.2705 21.6489C40.6079 20.8416 40.668 20.0986 40.4092 19.9931C40.1457 19.8876 39.6604 20.4563 39.3277 21.2636Z" fill="url(#paint16_radial_700_3944)"/>
<path d="M39.1891 22.9205L0.453125 4.24736L2.21868 0.0136719L40.4093 19.9941L39.1891 22.9205Z" fill="url(#paint17_radial_700_3944)"/>
<path d="M43.4365 23.8516C43.5752 23.5856 43.663 23.3654 43.7138 23.1865L44.421 23.87C44.4949 23.9434 44.4302 24.0718 44.3239 24.0488L43.4365 23.8516Z" fill="#3B2645"/>
<path d="M6.25359 2.12334C6.41073 2.51323 6.28132 3.38015 5.88846 4.32046C5.44938 5.37544 4.83467 6.14604 4.44181 6.17356L2.2002 5.09105L3.94265 0.916992L6.25359 2.12334Z" fill="#3B2645"/>
<path d="M4.19221 1.05421L4.48339 1.20558C4.68213 1.55877 4.55734 2.48073 4.14137 3.46691C3.68843 4.554 3.05061 5.33836 2.66237 5.32001L2.48674 5.23745L0.448486 4.25127L2.21405 0.0175781L4.19221 1.05421Z" fill="#EEEEEE"/>
<path d="M2.01528 2.41713C2.50346 1.24689 2.59332 0.172544 2.21599 0.0175082C1.83865 -0.137528 1.13701 0.685459 0.648828 1.8557C0.160644 3.02594 0.0707829 4.10029 0.448118 4.25533C0.825453 4.41036 1.52709 3.58738 2.01528 2.41713Z" fill="#EEEEEE"/>
<path d="M18.4737 11.3752C18.3858 11.3752 18.2934 11.3568 18.2102 11.311L1.75169 2.92615C1.46975 2.77937 1.35421 2.43536 1.50211 2.15556C1.65001 1.87576 1.99665 1.76109 2.27858 1.90787L18.7371 10.2881C19.019 10.4349 19.1346 10.7789 18.9867 11.0587C18.885 11.2605 18.6816 11.3752 18.4737 11.3752Z" fill="#EEEEEE"/>
<path d="M37.6503 18.4477C37.5856 18.1175 35.173 16.8974 35.0205 16.8148C34.8679 16.7322 34.6184 16.9616 34.6184 16.9616L34.8356 17.0763C34.8356 17.0763 34.7016 17.7322 34.6369 18.0303C34.5721 18.3285 33.523 19.4569 33.523 19.4569C33.523 19.4569 33.2133 19.1771 32.8528 18.7321C32.4923 18.2872 32.0763 18.3377 32.0486 18.4202C32.0209 18.5028 32.6079 19.8559 32.691 19.9889C32.7742 20.1219 33.1995 20.8971 33.1995 21.0393C33.1995 21.1815 29.807 24.8373 29.807 24.8373C29.502 24.163 28.9797 23.3511 28.4435 22.5759C27.4822 24.1125 25.5318 25.5345 24.2607 26.3555C25.1944 27.4656 28.1662 30.8461 29.6637 30.6489C31.4524 30.4149 35.4041 22.7594 35.5243 22.5347C35.6398 22.3099 35.8154 22.2365 36.5318 21.6402C37.2482 21.0439 37.7104 18.7826 37.6503 18.4477Z" fill="#FFEDE5"/>
<path d="M28.4387 22.5726C27.7039 21.5038 26.9505 20.5131 26.7379 20.0636C26.3774 19.2884 25.5917 15.6235 23.4702 15.573C21.3488 15.5271 20.7109 17.6325 20.7109 20.0636C20.7109 22.4946 23.9647 26.0081 23.9647 26.0081C23.9647 26.0081 24.0711 26.1412 24.2513 26.3567C25.5223 25.5311 27.4728 24.1046 28.4387 22.5726Z" fill="#AA8CA7"/>
<path opacity="0.5" d="M23.4701 15.567C22.9802 15.5578 22.5735 15.6587 22.2314 15.856L25.989 18.0255C25.476 16.8375 24.6995 15.5945 23.4701 15.567Z" fill="#543753"/>
</g>

</svg>
