<svg width="36" height="39" viewBox="0 0 36 39" fill="none" xmlns="http://www.w3.org/2000/svg">
<defs>
<clipPath id="clip0_1017_557">
<rect width="34.4754" height="38.2364" fill="white" transform="translate(0.688477 0.763672)"/>
</clipPath>
</defs>
<g clip-path="url(#clip0_1017_557)">
<path d="M33.2933 10.3027H13.5327C13.0534 10.3027 12.5937 10.4975 12.2547 10.8443C11.9158 11.1911 11.7253 11.6614 11.7253 12.1518V32.3679C11.7253 32.8583 11.9158 33.3287 12.2547 33.6754C12.5937 34.0222 13.0534 34.217 13.5327 34.217H27.2045L32.7043 38.8499V34.217H33.2789C33.7583 34.217 34.218 34.0222 34.557 33.6754C34.8959 33.3287 35.0863 32.8583 35.0863 32.3679V12.1518C35.0863 11.6639 34.8979 11.1958 34.562 10.8495C34.2262 10.5031 33.7702 10.3066 33.2933 10.3027Z" fill="white"/>
<path d="M13.7511 10.3028H33.3767C33.8339 10.3028 34.2724 10.4886 34.5958 10.8194C34.9191 11.1502 35.1007 11.5988 35.1007 12.0666V17.7843C35.1007 17.8022 35.0938 17.8194 35.0814 17.8321C35.069 17.8448 35.0522 17.8519 35.0346 17.8519H11.7915C11.7739 17.8519 11.7571 17.8448 11.7447 17.8321C11.7323 17.8194 11.7254 17.8022 11.7254 17.7843V12.3723C11.7238 12.0999 11.7752 11.8298 11.8765 11.5778C11.9778 11.3258 12.127 11.0969 12.3155 10.9044C12.5039 10.7119 12.7279 10.5596 12.9743 10.4563C13.2208 10.353 13.4848 10.3008 13.7511 10.3028Z" fill="#FF725E"/>
<path d="M21.8081 21.415V29.5462H19.9691V22.926H18.3801V21.415H21.8081Z" fill="#263238"/>
<path d="M29.423 21.415V22.635L26.4633 29.5462H24.4519L27.3024 22.9495H24.6789V24.2812H23.0439V21.415H29.423Z" fill="#263238"/>
<path d="M26.6789 14.5803C26.6789 14.6215 25.0726 14.6568 23.0928 14.6568C21.113 14.6568 19.5039 14.6274 19.5039 14.5803C19.5039 14.5333 21.1102 14.5039 23.0928 14.5039C25.0755 14.5039 26.6789 14.5451 26.6789 14.5803Z" fill="#263238"/>
<path d="M33.2935 10.3028C33.2935 10.3028 33.3337 10.3028 33.4171 10.3028C33.5375 10.308 33.657 10.3267 33.7734 10.3586C34.0026 10.4197 34.2178 10.5265 34.4066 10.6728C34.5954 10.819 34.7542 11.002 34.8739 11.2111C35.05 11.5191 35.1377 11.8716 35.1268 12.2282C35.1268 12.6133 35.1268 13.0367 35.1268 13.4894C35.1268 14.4007 35.1268 15.4442 35.1268 16.6113C35.1268 18.963 35.1268 21.7822 35.1268 25.0217C35.1268 26.6415 35.1268 28.3641 35.1268 30.175C35.1268 30.6306 35.1268 31.0892 35.1268 31.5537V32.2533C35.1352 32.4962 35.1032 32.7387 35.0319 32.9706C34.877 33.449 34.5434 33.8454 34.1038 34.073C33.8988 34.1821 33.6756 34.251 33.4458 34.2758C33.1958 34.2758 32.9631 34.2758 32.7188 34.2758L32.7849 34.2082C32.7849 35.678 32.7849 37.2331 32.7849 38.8382V38.991L32.67 38.894L27.1587 34.2758L27.2047 34.2934H13.51C13.1902 34.2892 12.8768 34.2017 12.5993 34.0392C12.3218 33.8766 12.0893 33.6444 11.9238 33.3645C11.815 33.183 11.7364 32.9844 11.6911 32.7766C11.6565 32.5679 11.643 32.3561 11.6508 32.1445V28.467C11.6508 25.251 11.6508 22.1496 11.6508 19.1953C11.6508 17.7156 11.6508 16.2762 11.6508 14.8769C11.6508 14.1772 11.6508 13.4913 11.6508 12.8191C11.638 12.4787 11.6495 12.1378 11.6853 11.799C11.7508 11.4604 11.9036 11.1457 12.1278 10.8877C12.3481 10.6358 12.6296 10.4482 12.9439 10.3439C13.2525 10.2579 13.5731 10.226 13.8921 10.2498H19.1562L29.5006 10.2763H32.3137H33.0435C33.2102 10.2763 33.2935 10.2763 33.2935 10.2763H33.0435H32.3137H29.5006L19.1562 10.2998H15.7282H13.9065C13.6011 10.2769 13.2942 10.3067 12.9985 10.388C12.7046 10.4877 12.4412 10.664 12.2342 10.8995C12.0254 11.14 11.8835 11.4334 11.8233 11.7491C11.7903 12.0801 11.7807 12.4132 11.7945 12.7456V14.8034C11.7945 16.2027 11.7945 17.6421 11.7945 19.1218C11.7945 22.0615 11.7945 25.1775 11.7945 28.3935V32.1298C11.7872 32.3266 11.7998 32.5236 11.8319 32.7178C11.8722 32.9128 11.9441 33.0996 12.0445 33.2704C12.2483 33.6159 12.5617 33.8794 12.9324 34.0171C13.319 34.1278 13.7221 34.1656 14.122 34.1288H27.2248L27.2449 34.1465L32.7418 38.7823L32.6269 38.8352C32.6269 37.2302 32.6269 35.6663 32.6269 34.2053V34.1376H32.6958C32.9343 34.1376 33.1814 34.1376 33.4142 34.1376C33.7567 34.1112 34.0839 33.9818 34.3548 33.7658C34.6257 33.5499 34.8283 33.2568 34.9371 32.9236C35.0068 32.7056 35.0379 32.4766 35.0291 32.2474V31.5478C35.0291 31.0833 35.0291 30.6247 35.0291 30.1691C35.0291 28.3582 35.0291 26.6415 35.0291 25.0158C35.0291 21.7822 35.0291 18.9454 35.0434 16.6054C35.0434 15.4295 35.0434 14.3948 35.0434 13.4835C35.0434 12.5722 35.1584 11.7696 34.8078 11.2287C34.5755 10.8107 34.1914 10.5033 33.7389 10.3733C33.5928 10.3363 33.4437 10.3126 33.2935 10.3028Z" fill="#263238"/>
<path d="M26.8999 7.95996H26.8511C26.4448 7.95996 26.1155 8.29689 26.1155 8.71252V12.6076C26.1155 13.0232 26.4448 13.3601 26.8511 13.3601H26.8999C27.3062 13.3601 27.6355 13.0232 27.6355 12.6076V8.71252C27.6355 8.29689 27.3062 7.95996 26.8999 7.95996Z" fill="#E0E0E0"/>
<path d="M26.9025 13.3602C27.0589 13.3378 27.2072 13.2751 27.3335 13.178C27.4745 13.0597 27.5652 12.89 27.5864 12.7047C27.5864 12.4901 27.5864 12.2226 27.5864 11.9404C27.5864 11.3524 27.5864 10.6822 27.5864 9.93552C27.5864 9.5563 27.5864 9.15945 27.5864 8.75965C27.5911 8.66331 27.5757 8.56704 27.5414 8.4772C27.507 8.38737 27.4545 8.30601 27.3871 8.23849C27.3198 8.17098 27.2392 8.11886 27.1507 8.08555C27.0622 8.05225 26.9678 8.03854 26.8738 8.04531C26.779 8.04509 26.6853 8.06572 26.5991 8.10579C26.5128 8.14586 26.436 8.20443 26.3738 8.27754C26.3134 8.3506 26.268 8.43538 26.2403 8.5268C26.2127 8.61823 26.2033 8.71442 26.2129 8.80963C26.2129 9.22118 26.2129 9.61804 26.2129 9.9855C26.2129 10.7351 26.2129 11.4142 26.2129 11.9933C26.2129 12.1344 26.2129 12.2696 26.2129 12.399C26.2025 12.5163 26.2025 12.6344 26.2129 12.7517C26.2478 12.9358 26.3507 13.0989 26.5002 13.2074C26.6338 13.2956 26.787 13.3482 26.9456 13.3602C26.9039 13.369 26.8609 13.369 26.8192 13.3602C26.6945 13.3541 26.5736 13.3146 26.4686 13.2456C26.2989 13.1337 26.1784 12.9587 26.1324 12.7576C26.114 12.6351 26.1073 12.5111 26.1123 12.3872C26.1123 12.2579 26.1123 12.1226 26.1123 11.9815C26.1123 11.3936 26.1123 10.7234 26.0951 9.97374C26.0951 9.59746 26.0951 9.2006 26.0951 8.79787C26.0849 8.68452 26.0969 8.57023 26.1305 8.4617C26.164 8.35317 26.2184 8.25259 26.2904 8.16584C26.3656 8.07449 26.4593 8.0009 26.5649 7.95015C26.6706 7.8994 26.7858 7.8727 26.9025 7.87187C27.0178 7.86541 27.1331 7.88379 27.241 7.92582C27.3489 7.96785 27.447 8.03259 27.5289 8.11586C27.5969 8.20492 27.6469 8.30692 27.676 8.41593C27.7051 8.52494 27.7127 8.63878 27.6984 8.75083C27.6984 9.15945 27.6984 9.5563 27.6984 9.9267C27.6984 10.6734 27.6984 11.3524 27.6812 11.9316C27.6812 12.2255 27.6812 12.4695 27.6611 12.7076C27.6467 12.8088 27.6126 12.9059 27.5608 12.9933C27.5089 13.0807 27.4404 13.1565 27.3594 13.2162C27.2607 13.293 27.1435 13.3407 27.0203 13.3544C26.9818 13.3642 26.9418 13.3662 26.9025 13.3602Z" fill="#263238"/>
<path d="M19.7654 7.95996H19.7166C19.3103 7.95996 18.981 8.29689 18.981 8.71252V12.6076C18.981 13.0232 19.3103 13.3601 19.7166 13.3601H19.7654C20.1717 13.3601 20.501 13.0232 20.501 12.6076V8.71252C20.501 8.29689 20.1717 7.95996 19.7654 7.95996Z" fill="#E0E0E0"/>
<path d="M19.7651 13.3604C19.9226 13.3386 20.072 13.2759 20.1989 13.1781C20.34 13.0598 20.4306 12.8901 20.4518 12.7048C20.4518 12.4902 20.4518 12.2227 20.4518 11.9405C20.4518 11.3526 20.4518 10.6823 20.4346 9.93564C20.4346 9.55642 20.4346 9.15957 20.4346 8.75977C20.4393 8.66343 20.4239 8.56716 20.3896 8.47732C20.3553 8.38749 20.3027 8.30613 20.2353 8.23861C20.168 8.1711 20.0874 8.11898 19.9989 8.08567C19.9104 8.05237 19.816 8.03866 19.722 8.04543C19.6272 8.04483 19.5334 8.06528 19.447 8.10537C19.3607 8.14547 19.2839 8.20425 19.222 8.27766C19.1612 8.35058 19.1154 8.43526 19.0872 8.52667C19.0591 8.61808 19.0492 8.71435 19.0582 8.80974C19.0582 9.2213 19.0582 9.61816 19.0582 9.98562C19.0582 10.7352 19.0582 11.4143 19.0409 11.9934C19.0409 12.1345 19.0409 12.2697 19.0409 12.3991C19.0304 12.5164 19.0304 12.6345 19.0409 12.7518C19.0748 12.9363 19.1779 13.0999 19.3283 13.2075C19.4608 13.2959 19.613 13.3484 19.7708 13.3604C19.7708 13.3604 19.7306 13.3604 19.6444 13.3604C19.5206 13.3541 19.4007 13.3146 19.2967 13.2457C19.1262 13.1347 19.0054 12.9593 18.9605 12.7577C18.9426 12.6352 18.9349 12.5112 18.9375 12.3873C18.9375 12.258 18.9375 12.1228 18.9375 11.9817C18.9375 11.3937 18.9375 10.7235 18.9375 9.97386C18.9375 9.59758 18.9375 9.20072 18.9375 8.79799C18.9206 8.56893 18.9917 8.34218 19.1358 8.16596C19.2108 8.07446 19.3045 8.00077 19.4101 7.95C19.5158 7.89924 19.6311 7.87262 19.7478 7.87199C19.8627 7.8652 19.9777 7.88344 20.0852 7.9255C20.1927 7.96757 20.2902 8.03249 20.3714 8.11598C20.45 8.19797 20.5115 8.29554 20.552 8.40271C20.5926 8.50987 20.6112 8.62437 20.607 8.73919C20.607 9.14781 20.607 9.54466 20.607 9.91506C20.607 10.6617 20.607 11.3408 20.607 11.9199C20.607 12.2139 20.607 12.4579 20.5869 12.696C20.5593 12.8973 20.4563 13.0797 20.2995 13.2046C20.2006 13.2808 20.0835 13.3285 19.9604 13.3427C19.8988 13.3697 19.8304 13.3758 19.7651 13.3604Z" fill="#263238"/>
<g opacity="0.3">
<path opacity="0.3" d="M18.1096 10.5293C18.2054 11.4867 18.1158 12.4541 17.846 13.3762C17.5763 14.2982 17.1315 15.1568 16.5372 15.9029C15.943 16.649 15.2108 17.268 14.3826 17.7245C13.5544 18.181 12.6464 18.4661 11.7104 18.5634L11.9978 14.5449L15.558 10.5852L18.1096 10.5293Z" fill="black"/>
</g>
<path d="M12.4734 16.8952C16.0619 15.9696 18.2376 12.2432 17.3329 8.57197C16.4282 4.90075 12.7857 2.67495 9.19723 3.60051C5.60875 4.52606 3.43311 8.25248 4.3378 11.9237C5.2425 15.5949 8.88494 17.8207 12.4734 16.8952Z" fill="white"/>
<path d="M10.8297 17.8402C9.40652 17.8392 8.01358 17.4197 6.81689 16.6316C5.62021 15.8434 4.67026 14.7199 4.08023 13.3949C3.4902 12.0699 3.28499 10.5993 3.48904 9.15833C3.69309 7.71735 4.2978 6.36677 5.23111 5.26754C6.16442 4.16831 7.38698 3.36679 8.75308 2.95848C10.1192 2.55017 11.5712 2.5523 12.9362 2.96462C14.3011 3.37693 15.5214 4.18204 16.4517 5.284C17.3819 6.38597 17.9828 7.73831 18.1828 9.17989C18.4568 11.173 17.947 13.196 16.7652 14.8051C15.5834 16.4143 13.826 17.4782 11.8785 17.7637C11.5312 17.8152 11.1807 17.8407 10.8297 17.8402ZM10.847 4.13246C10.5586 4.13213 10.2705 4.15276 9.98494 4.1942C8.81521 4.36608 7.72154 4.88887 6.84215 5.69648C5.96276 6.50409 5.33713 7.56027 5.04432 8.73155C4.75151 9.90283 4.80467 11.1366 5.19708 12.277C5.58948 13.4174 6.30353 14.4132 7.24896 15.1385C8.1944 15.8638 9.32879 16.2861 10.5088 16.352C11.6887 16.418 12.8613 16.1245 13.8784 15.5089C14.8954 14.8932 15.7112 13.9829 16.2226 12.893C16.7341 11.8031 16.9183 10.5826 16.7519 9.38566C16.5494 7.93003 15.8411 6.59776 14.7566 5.63297C13.6721 4.66818 12.2841 4.13548 10.847 4.13246Z" fill="#455A64"/>
<path d="M10.8466 4.13237C10.879 4.12774 10.9119 4.12774 10.9443 4.13237C11.0075 4.13237 11.1023 4.13237 11.2316 4.13237C11.5979 4.14931 11.9616 4.20247 12.3178 4.29111C12.8825 4.4339 13.4237 4.66071 13.924 4.9643C14.5907 5.36626 15.1759 5.89513 15.6481 6.52232C16.2186 7.2848 16.6055 8.17407 16.7774 9.11806C16.8212 9.3769 16.8519 9.63791 16.8693 9.90001C16.8765 10.0342 16.8765 10.1686 16.8693 10.3027C16.8693 10.438 16.8693 10.5761 16.8693 10.7114C16.8236 11.2767 16.7077 11.8339 16.5245 12.3693C16.3116 12.9259 16.0285 13.4516 15.6826 13.9332C15.3152 14.4276 14.883 14.8678 14.3982 15.2414C13.3585 16.0181 12.1038 16.4352 10.8165 16.432C9.52916 16.4289 8.27641 16.0056 7.24045 15.2238C6.75484 14.8499 6.32254 14.4086 5.95602 13.9127C5.61788 13.4272 5.34352 12.8985 5.13997 12.3399C4.95859 11.8053 4.84465 11.2491 4.8009 10.6849C4.72452 9.54118 4.96093 8.39828 5.48367 7.38426C6.0064 6.37024 6.7948 5.52517 7.76054 4.94372C8.44698 4.53408 9.20747 4.27107 9.99607 4.17058L10.4587 4.14413L10.746 4.12943C10.7785 4.12613 10.8112 4.12613 10.8437 4.12943H10.746L10.4587 4.15589L9.99894 4.19704C9.81791 4.22644 9.6139 4.26759 9.38403 4.32639C8.08114 4.66715 6.93013 5.4508 6.11981 6.54878C5.56199 7.29857 5.18316 8.17134 5.01354 9.09748C4.91896 9.61082 4.89095 10.1347 4.93021 10.6555C4.97416 11.2079 5.08714 11.7523 5.2664 12.2753C5.46646 12.8197 5.73603 13.3347 6.06809 13.8068C6.42733 14.29 6.84986 14.7203 7.32378 15.0856C8.33513 15.8463 9.55688 16.2581 10.8122 16.2613C12.0675 16.2645 13.2912 15.8589 14.3062 15.1032C14.7816 14.7398 15.2052 14.3104 15.5648 13.8274C15.8986 13.3565 16.1701 12.8425 16.3722 12.2988C16.5555 11.7775 16.6714 11.234 16.717 10.682C16.7343 10.5497 16.717 10.4145 16.717 10.2822C16.7242 10.151 16.7242 10.0195 16.717 9.88825C16.6912 9.62662 16.6797 9.37087 16.6308 9.121C16.4667 8.19395 16.0928 7.31908 15.5389 6.56642C14.7275 5.47068 13.5817 4.68338 12.2833 4.32933C11.931 4.23528 11.5715 4.17234 11.2087 4.14119C10.9788 4.13825 10.8466 4.13825 10.8466 4.13237Z" fill="#263238"/>
<path d="M10.8296 17.8405C10.8296 17.8405 10.8699 17.8405 10.9503 17.8405L11.3009 17.814C11.456 17.7993 11.6457 17.7817 11.8756 17.7464L12.6428 17.5847C13.3316 17.3939 13.9925 17.1102 14.6082 16.741C15.4149 16.2369 16.1233 15.584 16.6972 14.8155C17.3839 13.8782 17.8509 12.792 18.062 11.6407C18.0953 11.4856 18.1183 11.3285 18.131 11.1703C18.131 11.0116 18.1655 10.8528 18.1799 10.6882C18.1942 10.5236 18.1799 10.3649 18.1799 10.1973V9.95036L18.1569 9.70049C18.1124 9.01266 17.9731 8.33472 17.7431 7.68681C17.2266 6.23883 16.2886 4.98766 15.0555 4.10197C13.8224 3.21627 12.3535 2.73864 10.8469 2.73346C9.33591 2.72836 7.8602 3.20014 6.62092 4.08447C5.38165 4.96881 4.43914 6.22265 3.9219 7.67505C3.46878 8.94372 3.36248 10.3148 3.61444 11.6407C3.72133 12.2382 3.89787 12.8205 4.14028 13.3751C4.25724 13.6348 4.38769 13.888 4.53107 14.1335L4.7437 14.4892L4.98219 14.8155C5.54927 15.5848 6.25552 16.2355 7.06256 16.7322C7.67621 17.1055 8.33771 17.3894 9.02798 17.5759C9.27914 17.6457 9.53445 17.6987 9.79232 17.7346C9.9823 17.7695 10.1742 17.7921 10.367 17.8022L10.7204 17.8287C10.7606 17.8255 10.801 17.8255 10.8411 17.8287H10.7204H10.367C10.1744 17.8244 9.9823 17.8057 9.79232 17.7728C9.53234 17.744 9.27489 17.6949 9.02224 17.6259C8.32254 17.4488 7.65108 17.1706 7.02808 16.7998C6.20033 16.3045 5.47354 15.6508 4.88737 14.8743L4.646 14.5451L4.42762 14.1864C4.27997 13.9333 4.14569 13.6723 4.02534 13.4045C3.77713 12.8407 3.59578 12.2486 3.48514 11.6407C3.2285 10.2948 3.33377 8.90282 3.78972 7.61332C4.31645 6.13471 5.27567 4.85804 6.53687 3.95701C7.79806 3.05597 9.29997 2.57435 10.8382 2.57765C12.3772 2.57896 13.8784 3.06494 15.1379 3.96956C16.3974 4.87418 17.3542 6.15358 17.8781 7.6339C18.1119 8.29607 18.2522 8.98897 18.2948 9.69167L18.3149 9.94448V10.1973C18.3149 10.3649 18.3149 10.5324 18.3149 10.697C18.3149 10.8617 18.2689 11.0204 18.2689 11.1821C18.2567 11.3434 18.2327 11.5036 18.1971 11.6613C17.972 12.8303 17.4852 13.9301 16.7748 14.8743C16.1895 15.6496 15.4672 16.3057 14.6455 16.8086C14.0197 17.1743 13.3491 17.4531 12.6514 17.6376L11.8756 17.7846C11.685 17.8124 11.4932 17.83 11.3009 17.8375C11.1457 17.8375 11.0135 17.8375 10.9474 17.8375L10.8296 17.8405Z" fill="#263238"/>
<path d="M14.2357 0.799712L13.6235 1.8042L17.5607 4.31574L18.1729 3.31125L14.2357 0.799712Z" fill="#455A64"/>
<path d="M17.5532 4.3442C17.5532 4.3442 17.6049 4.23837 17.7055 4.05023L18.1279 3.30943L18.1423 3.37116C17.2515 2.82144 15.8119 1.93954 14.1999 0.895957L14.3034 0.87244L14.2832 0.904776L14.2229 0.998846L14.1453 1.12819L13.9902 1.381L13.7028 1.87487L13.6712 1.76904C14.7717 2.48044 15.7343 3.11541 16.4297 3.57988L17.2515 4.1296C17.444 4.26189 17.5388 4.33538 17.5388 4.3442C17.4379 4.29943 17.3416 4.24427 17.2515 4.17958L16.4297 3.67689C15.7228 3.24182 14.7229 2.61861 13.5879 1.89839L13.5247 1.85723L13.5649 1.7955L13.8522 1.29869L14.0189 1.05764L14.0965 0.931233L14.1367 0.866561L14.1568 0.822465V0.804827L14.2775 0.763672C15.8924 1.7955 17.3176 2.7215 18.1911 3.30061L18.2285 3.32707L18.2055 3.36529C17.9986 3.68571 17.8348 3.93558 17.7256 4.1002C17.676 4.18708 17.6183 4.2688 17.5532 4.3442Z" fill="#263238"/>
<path d="M4.77119 2.44957L1.55225 6.19678L2.41991 6.97689L5.63886 3.22968L4.77119 2.44957Z" fill="#455A64"/>
<path d="M2.42149 6.975C2.42149 6.975 2.50769 6.85742 2.66286 6.6634L3.32662 5.85499C3.9013 5.17592 4.67713 4.23817 5.57939 3.17988V3.28571L4.71736 2.5067H4.82368L4.79494 2.52727L4.76333 2.57137L4.70299 2.64192L4.57943 2.78597L4.33519 3.07993L3.86395 3.61789L2.98181 4.63208L1.58532 6.22539V6.16071C1.83531 6.39883 2.03932 6.59579 2.20023 6.74865C2.27941 6.82037 2.35426 6.89694 2.42436 6.97794C2.33671 6.92394 2.25401 6.86196 2.17725 6.79274C2.02496 6.66634 1.79795 6.4782 1.51349 6.22833L1.479 6.19893L1.50774 6.16365L2.86974 4.54389L3.73177 3.51795L4.226 2.96823C4.30359 2.87416 4.38691 2.78009 4.46737 2.67426L4.59093 2.53021L4.65127 2.45672L4.68288 2.42145L4.70012 2.40381H4.80644C5.09378 2.67426 5.38112 2.93589 5.66846 3.18576L5.72306 3.23574L5.67421 3.29159C4.76333 4.35575 3.94153 5.29057 3.35535 5.94906L2.6686 6.71631C2.59187 6.808 2.50932 6.89442 2.42149 6.975Z" fill="#263238"/>
<path d="M7.91284 10.8465L8.48465 9.73238L10.5277 10.679L12.7258 6.58398L13.7545 7.18662L10.907 12.3516L7.91284 10.8465Z" fill="#455A64"/>
<path d="M10.9099 12.3605L7.9043 10.8495L8.47898 9.72947L10.5162 10.6702L12.723 6.5752L13.7575 7.18077L10.9099 12.3605ZM7.92441 10.8436L10.907 12.3428L13.7489 7.18959L12.7317 6.60165L10.5306 10.6878L8.4991 9.74416L7.92441 10.8436Z" fill="#263238"/>
<path d="M6.84355 18.7105C6.73494 18.6764 6.62999 18.6311 6.53035 18.5752C6.41021 18.5181 6.29318 18.4543 6.17979 18.3841C6.02541 18.2943 5.87579 18.1962 5.73153 18.0902C5.34991 17.8286 4.99129 17.5335 4.65974 17.2083C4.25442 16.8107 3.88689 16.3746 3.56209 15.906C3.248 15.4366 2.97676 14.9387 2.75179 14.4185C2.56945 13.9889 2.4224 13.5444 2.31215 13.0898C2.26798 12.9154 2.2325 12.7388 2.20584 12.5607C2.17924 12.4277 2.16101 12.2932 2.15124 12.1579C2.13401 12.0432 2.12823 11.927 2.134 11.811C2.16273 11.811 2.20871 12.299 2.42134 13.0604C2.54302 13.5059 2.69768 13.9412 2.88396 14.3627C3.11684 14.8755 3.39175 15.3672 3.70577 15.8325C4.02213 16.2923 4.37586 16.7241 4.76319 17.123C5.08755 17.4424 5.43423 17.7371 5.80049 18.0049C6.42115 18.4723 6.85792 18.6958 6.84355 18.7105Z" fill="#263238"/>
<path d="M3.45326 17.1434C3.26958 16.9767 3.10823 16.786 2.9734 16.576C2.62379 16.0894 2.31887 15.5708 2.06252 15.0268C1.80651 14.4815 1.60158 13.9126 1.45048 13.3277C1.37234 13.0903 1.32689 12.843 1.31543 12.5928C1.40706 12.8229 1.48479 13.0585 1.54818 13.2983C1.72632 13.866 1.94135 14.4209 2.19183 14.9592C2.44632 15.4959 2.73426 16.0154 3.05385 16.5143C3.20152 16.714 3.335 16.9242 3.45326 17.1434Z" fill="#263238"/>
</g>

</svg>
