<svg width="14" height="46" viewBox="0 0 14 46" fill="none" xmlns="http://www.w3.org/2000/svg">
<path d="M3.3857 19.4383C3.43805 19.3501 3.49288 19.2643 3.54523 19.1785C-1.53461 14.3093 -0.704592 15.0812 3.19128 9.38851C3.24861 9.25373 3.31591 9.1214 3.39816 8.99642L4.05371 6.39882C4.05371 6.39882 2.86725 5.54357 2.52826 4.93828C2.27402 4.28888 2.27651 3.66888 2.45847 3.12241C2.42856 3.12486 2.39615 3.12976 2.36624 3.12976C2.24909 3.13956 2.13444 3.13221 2.02227 3.11015C2.02227 3.10525 2.02227 3.10035 2.02227 3.09545C1.25705 2.90186 0.805901 1.94368 1.56613 0.836027C2.64541 -0.644116 4.23317 0.0395922 4.08611 1.3482C5.12302 0.845829 6.39672 0.872786 7.2741 1.75499C8.08667 1.97799 7.6754 3.15426 7.6754 3.15426L7.65546 3.06114C7.68537 3.76446 7.42864 4.64666 7.9421 5.28626C8.08169 5.53132 7.74519 5.58768 7.58318 5.63914C7.58318 5.63914 7.52585 7.02861 7.09463 7.10703C6.98995 7.12664 6.78306 7.08253 6.52384 6.99185L6.32692 9.09934C7.2392 9.96929 8.13403 11.3612 8.5802 11.6749C9.70435 12.4493 10.5294 14.5126 9.17592 15.1841C9.17592 15.1841 9.1485 15.3605 9.11112 15.6252C9.08619 15.7992 9.05628 16.0124 9.02637 16.2354C8.80952 17.7008 8.9815 18.24 8.47551 19.7667C8.40821 19.9799 8.36085 20.2029 8.33593 20.4504C8.31848 20.6268 8.3135 20.8155 8.32097 21.0238C8.34839 21.7565 8.54281 22.7147 8.97402 24.1287C10.659 31.0148 10.2029 34.4872 10.7088 41.4615C10.7587 42.334 10.7936 42.9123 10.7936 42.9123C11.2497 44.1596 13.5703 44.9512 13.7523 45.0467C13.8594 45.1031 13.9317 45.4315 13.9716 45.6863C13.9891 45.7574 14.004 45.8285 13.999 45.8848C13.999 45.9485 13.9467 46 13.8819 46H8.92168C8.86435 46 8.82198 45.9559 8.82198 45.8995C8.8145 45.8432 8.82946 45.7696 8.84192 45.6961C8.91171 44.9904 9.07871 43.2872 9.05877 43.0838C9.0488 42.9907 8.87432 42.3732 8.64501 41.5326C8.24869 40.0868 7.69534 37.9817 7.56323 36.7663C7.28905 32.8699 8.26364 33.2105 6.32194 30.1497C6.32194 30.1497 6.31197 30.1767 6.29701 30.2306C6.29701 30.233 6.29452 30.2355 6.29452 30.2379C6.29203 30.2453 6.28954 30.2502 6.28954 30.2576C6.28704 30.2674 6.28455 30.2747 6.28206 30.2845V30.287C6.21725 30.5075 6.09512 30.9805 6.02283 31.5907C6.02283 31.5907 6.02283 31.5907 6.02283 31.5931C6.02034 31.6225 6.01535 31.6519 6.01286 31.6813C6.01286 31.6838 6.01286 31.6862 6.01286 31.6887C6.01037 31.7181 6.00788 31.745 6.00538 31.7745C6.00538 31.7794 6.00538 31.7818 6.00538 31.7867C6.00289 31.8137 6.0004 31.8406 5.99791 31.87C5.99791 31.8749 5.99791 31.8823 5.99541 31.8872C5.99292 31.9141 5.99043 31.9386 5.99043 31.9656C5.98794 31.9901 5.98794 32.0146 5.98544 32.0391C5.91814 33.1321 5.60408 33.4433 5.50189 33.9162C5.41465 34.3083 5.22272 39.3712 5.27756 41.7605C5.29002 42.2506 5.31245 42.628 5.34735 42.829C5.55672 44.0175 7.93712 44.9389 8.30602 44.9953C8.49296 45.0247 8.60263 45.2771 8.66495 45.5221C8.6799 45.581 8.69237 45.6398 8.70234 45.6937C8.72228 45.7696 8.73972 45.8456 8.73225 45.902C8.73474 45.9534 8.69236 45.9975 8.63753 45.9975H3.53775C3.48291 45.9975 3.44054 45.9559 3.43555 45.902C3.42808 45.8603 3.43057 45.8064 3.43804 45.75C3.46048 45.2673 3.57763 43.9636 3.62499 43.0765C3.64493 43.0765 3.66238 43.0789 3.67982 43.0814C3.66238 43.0789 3.64493 43.0789 3.62499 43.0765C3.62249 42.7015 3.57264 42.2678 3.49537 41.7997C2.59805 38.0136 2.14441 35.8694 2.90713 32.3675C3.03674 31.4216 2.25657 25.0403 2.25657 25.0403C1.7431 24.1605 1.79794 21.8398 2.97443 20.1367C3.10404 19.9039 3.24363 19.6686 3.3857 19.4383ZM3.03176 16.228C3.35828 16.8603 3.94154 17.6837 4.23816 18.0905C4.44504 17.7695 4.62201 17.4974 4.74415 17.2965C4.74913 17.2891 4.75412 17.2793 4.75661 17.272C4.72421 16.902 4.68931 16.4829 4.65442 16.0516C4.627 15.9781 4.59709 15.8997 4.56468 15.8213C4.4924 15.6375 4.41264 15.4414 4.32789 15.2331C3.99887 14.4906 3.66487 13.7285 3.40813 12.9786L3.00933 13.5349L2.21918 14.6352C2.22167 14.6352 2.5831 15.3556 3.03176 16.228ZM4.45002 43.3803C4.2905 43.373 4.19828 43.3117 4.09608 43.2431C4.19828 43.3117 4.2905 43.3754 4.45002 43.3803Z" fill="#DDDADA"/>
</svg>
