<svg width="42" height="32" viewBox="0 0 42 32" fill="none" xmlns="http://www.w3.org/2000/svg">
<defs>
<clipPath id="clip0_678_3738">
<rect width="42" height="32" fill="white"/>
</clipPath>
</defs>
<g clip-path="url(#clip0_678_3738)">
<path d="M1.01831 10.0762C1.1939 12.96 8.39289 15.4963 20.5785 15.4963C33.1855 15.4963 40.0334 13.5854 40.1387 10.0762C40.2441 6.56692 33.4314 4.03055 20.8594 4.06529C10.3243 4.10004 1.47483 4.82968 1.01831 10.0762Z" fill="#F7D3B0"/>
<path d="M1.86108 10.0417C2.03667 12.6128 8.91961 14.8712 20.5785 14.8712C32.6236 14.8712 39.1905 13.1687 39.2959 10.0417C39.4012 6.91466 32.8694 4.6215 20.8594 4.69099C10.7457 4.72574 2.28249 5.38589 1.86108 10.0417Z" fill="#E2BFA3"/>
<path d="M1.86108 10.0417C2.00155 12.0916 6.4263 13.9679 14.2223 14.628C13.8009 14.35 13.4146 14.0373 12.9932 13.7246C10.6052 11.8137 8.67379 9.31204 7.4447 6.49771C7.33934 6.25449 7.23399 6.01128 7.12864 5.76807C4.03834 6.53245 2.07179 7.85276 1.86108 10.0417Z" fill="#CEAD97"/>
<path d="M10.6053 13.0296C10.4648 12.8906 10.2892 12.7516 10.1839 12.5432C10.0785 12.3347 10.0434 12.1262 10.0083 11.9178C9.86784 11.3271 9.41132 10.8407 8.81433 10.6322C8.67386 10.5627 8.49828 10.528 8.39293 10.4237C8.28758 10.2847 8.28758 10.1458 8.28758 9.97204C8.21734 9.34664 7.76082 8.82546 7.16383 8.61699C6.98824 8.5475 6.77754 8.51276 6.63707 8.40853C6.2859 8.16531 6.35614 7.64414 6.14544 7.26195C6.04008 7.05348 5.82938 6.9145 5.6538 6.74077C5.33774 6.49756 5.02169 6.2196 4.70564 5.97639C4.38958 5.69843 4.03841 5.45521 3.61701 5.38572C3.40631 5.35098 3.16049 5.38572 2.9849 5.24674C2.80932 5.14251 2.7742 4.93404 2.66885 4.76032C2.28256 3.99593 1.1237 3.78746 0.456473 4.34338C-0.210751 4.8993 -0.210751 6.04588 0.456473 6.60179C-4.8995e-05 6.98399 -0.035166 7.71363 0.210653 8.2348C0.456473 8.75597 0.948111 9.17291 1.43975 9.52036C1.5451 9.62459 1.68557 9.69408 1.7558 9.83306C1.86115 10.0415 1.82604 10.25 1.82604 10.4585C1.82604 11.4313 2.5635 12.3694 3.54677 12.5779L11.0618 15.4617C11.413 14.6626 11.2023 13.655 10.6053 13.0296Z" fill="#6FB56B"/>
<path d="M8.84946 7.57448C8.42806 7.05331 8.04177 6.53213 7.79595 5.94147C7.55013 5.35081 7.47989 4.62117 7.72571 4.0305C7.79595 3.89153 7.9013 3.7178 7.9013 3.57882C7.93642 3.37035 7.86618 3.19663 7.83107 2.98816C7.6906 2.29326 7.97153 1.56362 8.49829 1.11194C9.02505 0.660255 9.79762 0.521275 10.4648 0.764489C10.8862 0.417041 11.5184 0.347551 12.01 0.590765C12.5016 0.833979 12.8177 1.3899 12.7826 1.91107C13.3093 1.77209 13.8361 2.11954 14.117 2.57122C14.398 3.0229 14.4331 3.57882 14.4682 4.09999C15.2408 4.06525 16.0133 4.4127 16.505 5.00336C16.9615 5.59402 17.1371 6.46264 16.8913 7.19229C17.6287 7.78295 18.3311 8.47785 18.5067 9.41596C18.6822 10.3193 18.0852 11.4312 17.1371 11.4659C17.6638 11.5006 17.9097 12.1955 17.6638 12.682C17.4531 13.1337 16.9264 13.4116 16.4699 13.6201C15.4866 14.037 14.4682 14.315 13.4147 14.454C12.7826 14.5234 12.1505 14.5582 11.5535 14.3497C10.2541 13.8633 9.65715 12.4735 9.20063 11.2922C8.74411 10.2498 7.44478 8.4431 8.84946 7.57448Z" fill="#81CC7A"/>
<path d="M27.1807 4.76034C27.5318 4.23917 28.2342 3.99595 28.8312 4.16968C28.9014 3.40529 29.5335 2.74514 30.271 2.6409C31.0084 2.53667 31.8161 2.98835 32.1322 3.68325C32.6238 3.30106 33.3964 3.75274 33.5369 4.3434C33.6773 4.93406 33.3613 5.55947 32.975 6.0459C33.4666 6.18488 33.7124 6.81028 33.6422 7.29671C33.572 7.78314 33.2559 8.23482 32.9399 8.68651C33.6071 9.17293 33.7124 10.1805 33.3261 10.8754C32.9399 11.5703 32.0971 11.9873 31.2894 12.022C30.4465 12.0568 29.7442 11.7093 28.9716 11.3619C26.3379 14.5584 22.8613 7.08824 27.2158 6.53233C26.8997 5.97641 26.8295 5.28151 27.1807 4.76034Z" fill="#6FB56B"/>
<path d="M30.8327 7.8522C31.1838 7.26154 31.6052 6.74037 32.132 6.32343C32.5183 6.01073 32.9748 5.80226 33.4313 5.59379C34.6604 5.00313 36.1704 4.37772 37.3293 5.07262C37.54 5.2116 37.7507 5.35057 37.9614 5.48955C38.4531 5.73277 39.05 5.66328 39.6119 5.66328C40.1738 5.66328 40.7708 5.73277 41.2273 6.04547C41.7189 6.35817 42.035 6.87935 41.9999 7.43526C41.9648 7.71322 41.8243 7.99118 41.8243 8.30389C41.8243 8.5471 41.9296 8.79031 41.9648 9.06827C42.0701 9.69368 41.6487 10.4233 40.9815 10.5276C40.7708 10.5623 40.525 10.5276 40.2791 10.5623C39.2607 10.7013 38.8393 11.9868 37.9263 12.369C37.6454 12.4733 37.3644 12.508 37.0835 12.5775C36.8025 12.6817 36.5216 12.8207 36.2407 12.9597C34.4848 13.7588 32.2022 13.3419 30.8678 11.9521C29.6738 10.6665 30.025 9.17251 30.8327 7.8522Z" fill="#81CC7A"/>
<path d="M27.4966 12.5428C27.602 12.5775 27.6722 12.6123 27.7776 12.5775C27.8829 12.5428 27.918 12.4038 27.9532 12.2996C28.1639 11.6742 28.9364 11.292 29.6037 11.5005C29.7441 11.5352 29.8846 11.6047 30.0251 11.6047C30.2358 11.5699 30.3762 11.3962 30.5518 11.292C30.9732 10.9793 31.6053 11.014 31.9916 11.3615C32.097 11.4657 32.2023 11.5699 32.3077 11.6394C32.4481 11.7089 32.6237 11.6742 32.7642 11.7437C33.2909 11.8827 33.3963 12.647 33.9231 12.786C34.2742 12.2301 35.117 12.1259 35.6789 12.5081C36.2408 12.8903 36.4515 13.5852 36.4164 14.2453C36.311 15.7046 34.8712 16.9207 33.4314 16.8164C32.7642 16.7817 32.1321 16.469 31.4649 16.469C30.8328 16.469 30.2358 16.7469 29.6388 16.9554C28.199 17.5113 26.7592 17.3376 26.3378 15.7046C26.0568 14.7665 25.6706 12.1259 27.4966 12.5428Z" fill="#6FB56B"/>
<path d="M28.7257 4.76025C28.7257 4.76025 27.1455 7.78305 31.2542 9.55504C35.3629 11.327 36.5217 7.88729 36.5217 7.88729L28.7257 4.76025Z" fill="#E24C24"/>
<path d="M36.4503 7.95564C36.8019 7.12356 35.3609 5.73486 33.2315 4.85389C31.1022 3.97292 29.091 3.93328 28.7393 4.76536C28.3876 5.59744 29.8287 6.98614 31.958 7.86712C34.0873 8.74809 36.0986 8.78772 36.4503 7.95564Z" fill="#FF5A27"/>
<path d="M36.1263 7.82129C36.4331 7.09544 35.1006 5.85286 33.1503 5.04592C31.1999 4.23897 29.3701 4.17324 29.0633 4.8991C28.7565 5.62495 30.0889 6.86753 32.0393 7.67448C33.9897 8.48142 35.8195 8.54715 36.1263 7.82129Z" fill="#FF8B78"/>
<path d="M31.4297 5.28125C31.2541 5.28125 31.0434 5.31599 31.0083 5.48972C30.9732 5.55921 30.9732 5.6287 30.9381 5.69819C30.9029 5.76768 30.8327 5.76768 30.7976 5.83717C30.7625 5.87191 30.7976 5.9414 30.7976 5.97615C30.8678 6.28885 31.219 6.42783 31.535 6.49732C32.3076 6.74053 33.0802 7.01849 33.8528 7.26171C34.0635 7.3312 34.3093 7.40069 34.4498 7.26171C34.5902 7.15747 34.5902 6.949 34.52 6.77528C34.4498 6.60155 34.3093 6.49732 34.1688 6.39309C33.7474 6.08038 33.2909 5.76768 32.7993 5.59395C32.3779 5.45497 31.9565 5.28125 31.4297 5.28125Z" fill="#FF5A27"/>
<path d="M29.744 5.21185C29.8845 5.24659 30.025 5.31608 30.1654 5.35082C30.2005 5.35082 30.2357 5.35082 30.2357 5.31608C30.2708 5.31608 30.2708 5.28134 30.2708 5.24659C30.2708 5.1771 30.2357 5.14236 30.1654 5.10761C30.1303 5.10761 30.0601 5.07287 30.025 5.07287H30.0601C29.9547 5.03812 29.8845 5.03812 29.7791 5.00338C29.7089 4.96863 29.6387 5.00338 29.6387 5.07287C29.6738 5.10761 29.6738 5.21185 29.744 5.21185Z" fill="#FFB164"/>
<path d="M30.2358 4.93388C30.3762 5.00337 30.4816 4.7949 30.3411 4.72541C30.2006 4.65592 30.0953 4.86439 30.2358 4.93388Z" fill="#FFB164"/>
<path d="M30.2358 4.93364C30.306 4.96839 30.3762 5.00313 30.4816 5.03788C30.5167 5.03788 30.5518 5.03788 30.5869 5.03788C30.622 5.03788 30.6572 5.00313 30.6572 4.96839C30.6572 4.93364 30.6572 4.8989 30.6572 4.86415C30.6572 4.82941 30.622 4.82941 30.5869 4.79466C30.5167 4.75992 30.4465 4.72517 30.3411 4.69043C30.306 4.69043 30.2709 4.69043 30.2358 4.69043C30.2006 4.69043 30.1655 4.72517 30.1655 4.75992C30.1655 4.79466 30.1655 4.82941 30.1655 4.86415C30.2006 4.8989 30.2006 4.8989 30.2358 4.93364Z" fill="#FFB164"/>
<path d="M31.1487 4.69033C31.1487 4.72507 31.1487 4.72507 31.1487 4.75982C31.1487 4.79456 31.1487 4.79456 31.1838 4.82931C31.2189 4.86405 31.2189 4.8988 31.2891 4.93354C31.2891 4.93354 31.3243 4.93354 31.3243 4.96829H31.3594H31.3945C31.3945 4.96829 31.4296 4.96829 31.4296 4.93354V4.8988C31.4296 4.86405 31.4296 4.86405 31.4296 4.82931C31.4296 4.79456 31.3945 4.75982 31.3945 4.75982C31.3945 4.75982 31.3945 4.75982 31.4296 4.79456L31.3945 4.75982C31.3945 4.75982 31.3945 4.75982 31.3945 4.79456C31.3945 4.79456 31.3945 4.75982 31.3594 4.75982V4.79456V4.75982V4.79456V4.75982C31.3594 4.75982 31.3594 4.72507 31.3243 4.72507L31.2891 4.69033H31.254C31.2189 4.69033 31.1838 4.69033 31.1838 4.72507C31.1838 4.65558 31.1487 4.69033 31.1487 4.69033Z" fill="#FFB164"/>
<path d="M31.9565 4.89923C31.9565 4.93398 31.9214 4.96872 31.9214 5.03821V5.07296C31.9214 5.07296 31.9214 5.1077 31.9565 5.1077L31.9916 5.14245H32.0267C32.0619 5.14245 32.097 5.14245 32.097 5.1077C32.097 5.1077 32.097 5.1077 32.1321 5.07296C32.1321 5.07296 32.1672 5.03821 32.1672 5.00347C32.1672 4.96872 32.2023 4.93398 32.2023 4.86449V4.82974C32.2023 4.82974 32.2023 4.795 32.1672 4.795L32.1321 4.76025H32.097C32.0619 4.76025 32.0267 4.76025 32.0267 4.795C32.0267 4.795 32.0267 4.795 31.9916 4.82974C31.9565 4.86449 31.9565 4.86449 31.9565 4.89923Z" fill="#FFB164"/>
<path d="M33.326 5.62854C33.3611 5.5938 33.4314 5.5938 33.4665 5.55905C33.4665 5.55905 33.5016 5.55905 33.5016 5.52431L33.5367 5.48957V5.45482V5.42008C33.5367 5.42008 33.5367 5.42008 33.5367 5.38533L33.5016 5.35059H33.4665C33.4314 5.35059 33.4314 5.35059 33.3963 5.35059C33.3611 5.38533 33.2909 5.38533 33.2558 5.42008C33.2558 5.42008 33.2207 5.42008 33.2207 5.45482L33.1855 5.48957V5.52431V5.55905C33.1855 5.55905 33.1855 5.55906 33.1855 5.5938L33.2207 5.62854H33.2558C33.2909 5.62854 33.326 5.62854 33.326 5.62854Z" fill="#FFB164"/>
<path d="M34.2389 6.18503C34.3091 6.18503 34.3794 6.21978 34.4847 6.21978C34.5198 6.21978 34.5549 6.21978 34.5549 6.18503C34.5901 6.18503 34.5901 6.15029 34.5901 6.11554C34.5901 6.0808 34.5901 6.04605 34.5549 6.04605C34.5198 6.01131 34.5198 6.01131 34.4847 6.01131C34.4145 6.01131 34.3442 5.97656 34.2389 5.97656C34.2038 5.97656 34.1687 5.97656 34.1687 6.01131C34.1335 6.01131 34.1335 6.04605 34.1335 6.0808C34.1335 6.11554 34.1335 6.15029 34.1687 6.15029C34.2038 6.15029 34.2038 6.18503 34.2389 6.18503Z" fill="#FFB164"/>
<path d="M34.8711 6.77532C34.9765 6.84481 35.1169 6.87956 35.2223 6.87956C35.2574 6.87956 35.2925 6.87956 35.2925 6.84481C35.3276 6.84481 35.3276 6.81007 35.3276 6.77532C35.3276 6.74058 35.3276 6.70583 35.2925 6.70583C35.2574 6.67109 35.2574 6.67109 35.2223 6.67109C35.1872 6.67109 35.1872 6.67109 35.1521 6.67109H35.1872C35.1169 6.63634 35.0116 6.6016 34.9414 6.56685C34.8711 6.53211 34.8009 6.56685 34.8009 6.63634C34.7658 6.67109 34.8009 6.74058 34.8711 6.77532Z" fill="#FFB164"/>
<path d="M35.0819 7.43552C35.1872 7.50501 35.2574 7.5745 35.3628 7.64399C35.3979 7.67873 35.433 7.67873 35.433 7.67873C35.4682 7.67873 35.5033 7.64399 35.5033 7.64399C35.5384 7.60924 35.5384 7.50501 35.4682 7.47027C35.3628 7.40078 35.2926 7.33129 35.1872 7.2618C35.1521 7.22705 35.117 7.22705 35.117 7.22705C35.0819 7.22705 35.0467 7.2618 35.0467 7.2618C35.0116 7.33129 35.0116 7.40078 35.0819 7.43552Z" fill="#FFB164"/>
<path d="M34.4497 7.60927C34.4848 7.67876 34.5199 7.74825 34.555 7.81774C34.555 7.81774 34.555 7.85249 34.5902 7.85249L34.6253 7.88723C34.6604 7.88723 34.6955 7.88723 34.7306 7.88723C34.7657 7.88723 34.7657 7.85249 34.8009 7.81774C34.8009 7.783 34.8009 7.74825 34.8009 7.71351C34.7657 7.64402 34.7306 7.57453 34.6955 7.50504C34.6955 7.50504 34.6955 7.47029 34.6604 7.47029L34.6253 7.43555C34.5902 7.43555 34.555 7.43555 34.5199 7.43555C34.4848 7.43555 34.4848 7.47029 34.4497 7.50504C34.4497 7.53978 34.4146 7.57453 34.4497 7.60927Z" fill="#FFB164"/>
<path d="M33.5366 7.60927V7.64402C33.5366 7.64402 33.5366 7.64402 33.5366 7.60927C33.5366 7.64402 33.5366 7.67876 33.5366 7.67876V7.64402C33.5366 7.64402 33.5366 7.64402 33.5366 7.67876V7.71351V7.74825C33.5366 7.74825 33.5366 7.783 33.5717 7.783L33.6068 7.81774C33.642 7.81774 33.6771 7.81774 33.7122 7.81774C33.7473 7.81774 33.7824 7.783 33.7824 7.74825C33.7824 7.71351 33.8175 7.67876 33.8175 7.64402C33.8175 7.60927 33.8175 7.57453 33.8175 7.53978C33.8175 7.50504 33.7824 7.47029 33.7824 7.47029C33.7824 7.47029 33.7473 7.47029 33.7473 7.43555H33.7122C33.6771 7.43555 33.642 7.47029 33.642 7.47029V7.50504C33.5366 7.57453 33.5015 7.60927 33.5366 7.60927Z" fill="#FFB164"/>
<path d="M32.3076 7.29654C32.3076 7.33129 32.3076 7.33129 32.3076 7.36603V7.33129C32.3076 7.36603 32.2725 7.40077 32.2725 7.40077V7.43552V7.47026C32.2725 7.50501 32.3076 7.53975 32.3427 7.53975C32.3778 7.53975 32.4129 7.53975 32.448 7.53975C32.448 7.53975 32.448 7.53975 32.4832 7.53975L32.5183 7.50501C32.5183 7.47027 32.5534 7.43552 32.5534 7.43552C32.5534 7.40078 32.5885 7.36603 32.5885 7.33129C32.5885 7.29654 32.5885 7.2618 32.5534 7.2618L32.5183 7.22705H32.4832C32.448 7.22705 32.4129 7.22705 32.4129 7.2618C32.3076 7.22705 32.3076 7.2618 32.3076 7.29654Z" fill="#FFB164"/>
<path d="M31.4647 6.91437V6.94912V6.91437C31.4647 6.94912 31.4296 6.94912 31.4296 6.94912C31.4296 6.94912 31.4647 6.94912 31.4647 6.91437C31.4296 6.94912 31.4296 6.98386 31.3945 6.98386C31.3945 6.98386 31.3945 6.98386 31.4296 6.98386C31.4296 6.98386 31.3945 6.98386 31.3945 7.01861C31.3945 7.01861 31.3593 7.01861 31.3593 7.05335L31.3242 7.08809C31.3242 7.12284 31.3242 7.15758 31.3242 7.19233C31.3242 7.22707 31.3593 7.22707 31.3945 7.26182H31.4296C31.4647 7.26182 31.4647 7.26182 31.4998 7.26182C31.5349 7.26182 31.5349 7.22707 31.57 7.22707L31.6052 7.19233C31.6403 7.15758 31.6403 7.15758 31.6403 7.12284C31.6403 7.0881 31.6754 7.08809 31.6754 7.05335C31.6754 7.01861 31.6754 6.98386 31.6754 6.94912C31.6754 6.91437 31.6403 6.87963 31.6052 6.87963C31.57 6.87963 31.5349 6.87963 31.4998 6.87963C31.4998 6.84488 31.4647 6.87963 31.4647 6.91437Z" fill="#FFB164"/>
<path d="M30.7274 6.18472C30.6923 6.18472 30.6572 6.21947 30.622 6.21947H30.6572C30.5869 6.21947 30.5518 6.25421 30.4816 6.25421C30.4465 6.25421 30.4113 6.28896 30.4113 6.28896C30.3762 6.3237 30.3762 6.35845 30.3762 6.35845C30.3762 6.39319 30.4113 6.42794 30.4113 6.42794H30.4465C30.4816 6.42794 30.4816 6.42794 30.5167 6.42794C30.622 6.42794 30.7274 6.39319 30.8327 6.35845C30.8679 6.35845 30.8679 6.3237 30.903 6.28896C30.903 6.25421 30.903 6.21947 30.903 6.18472C30.903 6.14998 30.8679 6.14998 30.8327 6.11523C30.7976 6.18472 30.7625 6.18472 30.7274 6.18472Z" fill="#FFB164"/>
<path d="M29.7791 5.83696C29.8143 5.83696 29.8494 5.80222 29.8845 5.80222C29.8845 5.80222 29.9196 5.80222 29.9196 5.76747L29.9547 5.73273V5.69798V5.66324C29.9547 5.66324 29.9547 5.66324 29.9547 5.6285L29.9196 5.59375H29.8845C29.8494 5.59375 29.8494 5.59375 29.8143 5.59375C29.7791 5.59375 29.744 5.6285 29.7089 5.6285C29.7089 5.6285 29.6738 5.62849 29.6738 5.66324L29.6387 5.69798V5.73273V5.76747C29.6387 5.76747 29.6387 5.76747 29.6387 5.80222L29.6738 5.83696H29.7089C29.744 5.83696 29.744 5.83696 29.7791 5.83696Z" fill="#FFB164"/>
<path opacity="0.24" d="M29.1472 7.57431C29.3228 7.81753 29.4633 8.06074 29.7442 8.16498C29.8496 8.19972 29.9549 8.23447 30.0252 8.13023C30.0603 8.06074 30.0252 7.95651 29.99 7.88702C29.8847 7.74804 29.7793 7.57431 29.7442 7.40059C29.674 7.08789 29.6037 6.42773 29.1121 6.42773C28.5853 6.46248 29.0068 7.40059 29.1472 7.57431Z" fill="white"/>
<path d="M16.3997 10.0065C16.0485 9.27687 16.0134 8.37351 16.505 7.71336C16.9264 7.15744 17.6288 6.84473 18.296 6.56678C17.4181 5.76764 17.2074 4.4126 17.8044 3.405C18.4013 2.39739 19.7358 1.84148 20.9298 2.08469C20.6488 1.21607 21.3863 0.243214 22.3696 0.0347454C23.3177 -0.173724 24.3712 0.312704 24.898 1.07709C25.5652 0.694897 26.5485 0.833877 27.0401 1.38979C27.5318 1.98046 27.4967 2.88382 26.9348 3.405C27.8829 4.20413 27.9883 5.69815 27.1455 6.60152C27.6722 7.01846 27.9532 7.64387 27.8478 8.26927C27.7776 8.89468 27.3562 9.4506 26.7592 9.7633C26.8997 10.1802 27.005 10.6319 26.7943 11.0141C26.5485 11.4658 25.9515 11.6395 25.4248 11.6395C24.898 11.6395 24.3361 11.5353 23.8094 11.6395C24.0201 12.126 23.5987 12.6819 23.0719 12.8903C22.5452 13.0988 21.9482 13.0293 21.3863 12.9946C20.7542 12.9251 20.1221 12.8556 19.4549 12.8208C19.1037 12.7861 18.7174 12.7514 18.4365 12.5429C18.0853 12.2997 17.9799 11.7438 17.6639 11.4311C17.2074 10.9794 16.7157 10.6319 16.3997 10.0065Z" fill="#89E269"/>
<path d="M28.3041 10.0066L28.2339 11.2574C28.2339 11.2574 28.866 13.0294 31.6051 13.3768C34.6603 13.759 36.9078 12.7862 36.9429 10.9794C36.9429 10.6667 36.5566 9.90234 36.5566 9.90234L28.269 9.97183L28.3041 10.0066Z" fill="#59B24F"/>
<path d="M36.6002 10.3523C36.6614 9.18328 34.8582 8.14057 32.5726 8.02334C30.2871 7.90611 28.3846 8.75874 28.3233 9.92775C28.2621 11.0968 30.0652 12.1395 32.3508 12.2567C34.6364 12.3739 36.5389 11.5213 36.6002 10.3523Z" fill="#84D17D"/>
<path d="M36.346 10.2847C36.3812 11.188 34.6955 11.9872 32.5534 11.9177C30.4464 11.8482 28.5852 10.8753 28.55 9.97197C28.5149 9.0686 30.3761 8.16524 32.4832 8.23473C34.6253 8.33896 36.3109 9.3813 36.346 10.2847Z" fill="#B0EDA9"/>
<path d="M30.095 9.79799C30.0248 9.7285 29.9546 9.65901 29.9194 9.58952C29.9194 9.45054 30.095 9.38105 30.2355 9.38105C30.5515 9.34631 30.8325 9.4158 31.1134 9.52003C31.0081 9.4158 30.9378 9.27682 30.9027 9.17258C30.9027 9.13784 30.8676 9.1031 30.9027 9.1031C30.9378 9.03361 31.0081 9.03361 31.0783 9.06835C31.3944 9.20733 31.7104 9.38105 32.0265 9.58952C31.9562 9.45054 31.886 9.31156 31.8509 9.17258C31.8509 9.03361 31.886 8.85988 32.0265 8.79039C32.202 8.68616 32.4127 8.79039 32.5532 8.92937C32.6937 9.06835 32.7639 9.27682 32.799 9.45054C33.0449 9.24207 33.396 9.13784 33.7472 9.17258C33.8174 9.17258 33.9228 9.20733 33.9579 9.27682C34.0281 9.38105 33.9228 9.48529 33.8174 9.55478C34.2037 9.45054 34.6602 9.55478 34.9763 9.83274C35.0114 9.86748 35.0465 9.90223 35.0465 9.97172C35.0465 10.0065 35.0114 10.0412 35.0114 10.0412C34.8709 10.2149 34.6602 10.3192 34.4495 10.3539C34.2388 10.3887 33.993 10.3887 33.7823 10.3887C33.993 10.4581 34.2037 10.5624 34.4144 10.7014C34.4495 10.7014 34.4495 10.7361 34.4847 10.7708C34.4847 10.8056 34.4847 10.8056 34.4495 10.8403C34.3091 11.0836 33.993 11.153 33.7121 11.0488C33.4311 10.9793 33.2204 10.8056 32.9746 10.6319C33.08 10.7708 33.1853 10.9446 33.1502 11.1183C33.1151 11.292 32.9746 11.431 32.799 11.3963C32.7288 11.3615 32.6586 11.3268 32.6234 11.2573C32.4479 11.0836 32.3074 10.8751 32.2372 10.6666C32.2372 10.9446 31.9913 11.1878 31.6753 11.2225C31.6051 11.2225 31.5348 11.2225 31.4646 11.153C31.3944 11.0836 31.3944 10.9793 31.4295 10.9098C31.4646 10.8403 31.5348 10.7708 31.6051 10.7014C31.3944 10.8403 31.1485 10.9446 30.9378 10.8056C30.8676 10.7708 30.8325 10.7014 30.8325 10.6319C30.8325 10.5971 30.9027 10.5624 30.9378 10.5276C31.0432 10.4581 31.289 10.3887 31.3241 10.2844C30.8325 10.1454 30.4462 10.076 30.095 9.79799Z" fill="#C1FFB8"/>
<path d="M14.6788 16.5384L16.0484 17.5807C16.0484 17.5807 18.8226 18.4494 22.0885 16.4342C25.7758 14.1758 27.0751 11.5351 25.0032 10.0759C24.652 9.83265 23.3176 9.55469 23.3176 9.55469L14.5383 16.5037L14.6788 16.5384Z" fill="#59B24F"/>
<path d="M20.6665 15.5448C23.452 13.9476 25.0873 11.5896 24.3191 10.2781C23.5508 8.96647 20.67 9.19797 17.8844 10.7951C15.0989 12.3923 13.4636 14.7503 14.2318 16.0618C15.0001 17.3734 17.8809 17.1419 20.6665 15.5448Z" fill="#84D17D"/>
<path d="M23.5635 10.0411C24.617 10.736 23.7742 12.786 21.4214 14.4885C19.0685 16.1909 15.9782 16.9901 14.8896 16.2952C13.8361 15.6003 14.7491 13.3766 17.0668 11.6741C19.3846 9.97162 22.51 9.34621 23.5635 10.0411Z" fill="#B0EDA9"/>
<path d="M16.3293 14.9051C16.1888 14.9399 16.0132 14.9399 15.9079 14.8704C15.7323 14.7662 15.8377 14.5577 15.9781 14.4187C16.2591 14.1408 16.6454 13.9323 17.0668 13.7586C16.8561 13.7586 16.6102 13.7238 16.4347 13.6543C16.3995 13.6543 16.3293 13.6196 16.3293 13.5848C16.2591 13.5153 16.3995 13.4459 16.5049 13.4111C16.9965 13.2374 17.5584 13.0984 18.0852 13.0289C17.8393 12.9942 17.6286 12.9594 17.453 12.8552C17.2775 12.751 17.1721 12.5772 17.2072 12.4035C17.2775 12.195 17.5935 12.0561 17.9096 12.0561C18.2256 12.0561 18.5066 12.1603 18.7875 12.2645C18.8226 11.8823 19.0684 11.5002 19.4547 11.2569C19.5601 11.1874 19.6654 11.1527 19.8059 11.1527C19.9815 11.1874 20.0166 11.3612 19.9815 11.5001C20.2624 11.0832 20.8945 10.8053 21.5266 10.7705C21.5969 10.7705 21.7022 10.7705 21.7724 10.8053C21.8076 10.84 21.8076 10.8747 21.8427 10.9095C21.9129 11.1527 21.8076 11.4307 21.5969 11.6391C21.4213 11.8476 21.1755 12.0561 20.9296 12.2298C21.2457 12.0908 21.5969 12.0213 21.9831 11.9518C22.0183 11.9518 22.0885 11.9518 22.1236 11.9518C22.1587 11.9518 22.1587 11.9866 22.1939 12.0213C22.2992 12.334 22.0534 12.6467 21.6671 12.8205C21.2808 12.9942 20.8243 13.0289 20.4029 13.0984C20.6838 13.0984 20.9648 13.1679 21.1403 13.3416C21.3159 13.4806 21.2808 13.7586 21.0701 13.8628C20.9648 13.8975 20.8243 13.9323 20.7189 13.9323C20.3326 13.9323 19.9815 13.8975 19.6303 13.7933C19.9464 14.0365 19.9815 14.4187 19.6654 14.6967C19.5952 14.7662 19.4898 14.8357 19.3494 14.8357C19.2089 14.8357 19.0684 14.7662 19.0333 14.6619C18.9631 14.5577 18.9982 14.4535 18.9982 14.3492C18.928 14.6272 18.7875 14.9399 18.4012 15.0094C18.2959 15.0441 18.1554 15.0094 18.0852 14.9399C18.05 14.9051 18.05 14.8357 18.0852 14.8009C18.1203 14.6619 18.2959 14.384 18.2256 14.2797C17.5233 14.523 17.0316 14.8009 16.3293 14.9051Z" fill="#C1FFB8"/>
<path d="M16.5049 2.04996L15.2407 2.60588C15.2407 2.60588 13.7658 4.0999 14.6437 6.91424C15.627 10.076 17.5935 11.8133 19.3845 10.9446C19.6654 10.8057 20.2624 10.0065 20.2624 10.0065L16.54 1.98047L16.5049 2.04996Z" fill="#59B24F"/>
<path d="M19.7997 10.3829C20.9998 9.94251 21.2675 7.70405 20.3976 5.38313C19.5277 3.06221 17.8496 1.5377 16.6494 1.97806C15.4492 2.41841 15.1815 4.65687 16.0514 6.97779C16.9213 9.29872 18.5995 10.8232 19.7997 10.3829Z" fill="#84D17D"/>
<path d="M19.8058 10.0411C18.9278 10.4928 17.3827 9.24195 16.5048 7.15726C15.6268 5.07256 15.7673 2.74466 16.6452 2.29298C17.5232 1.84129 19.2088 3.19634 20.0867 5.28103C20.9646 7.36572 20.6837 9.58939 19.8058 10.0411Z" fill="#B0EDA9"/>
<path d="M17.4881 3.68267C17.5232 3.57844 17.5232 3.4742 17.6286 3.40471C17.7691 3.33522 17.9095 3.4742 17.9798 3.61318C18.1202 3.89114 18.2256 4.20385 18.2607 4.55129C18.3309 4.41231 18.4012 4.27333 18.5065 4.1691C18.5416 4.13436 18.5416 4.13436 18.5768 4.09961C18.647 4.09961 18.6821 4.1691 18.6821 4.27333C18.7172 4.65553 18.6821 5.03772 18.5768 5.45466C18.647 5.31568 18.7523 5.1767 18.8928 5.10721C19.0333 5.03772 19.2089 5.00298 19.3493 5.10721C19.5249 5.21145 19.5249 5.4894 19.4547 5.69787C19.3844 5.90634 19.2089 6.04532 19.0684 6.1843C19.3844 6.32328 19.6654 6.60124 19.7707 6.94869C19.8059 7.01818 19.8059 7.12241 19.7707 7.1919C19.7005 7.29614 19.5249 7.26139 19.4196 7.1919C19.7005 7.50461 19.8059 8.02578 19.6654 8.44272C19.6654 8.51221 19.6303 8.54695 19.56 8.5817C19.5249 8.5817 19.4898 8.5817 19.4547 8.5817C19.2089 8.54695 19.0333 8.37323 18.8928 8.1995C18.7523 7.99103 18.647 7.78256 18.5768 7.53935C18.6119 7.78256 18.5768 8.06052 18.5416 8.30374C18.5416 8.33848 18.5416 8.37323 18.5065 8.40797C18.4714 8.40797 18.4714 8.40797 18.4363 8.40797C18.1554 8.37323 17.9446 8.09527 17.8744 7.78256C17.8393 7.46986 17.9095 7.15716 17.9798 6.84445C17.9095 7.01818 17.7691 7.1919 17.5935 7.26139C17.4179 7.33088 17.2072 7.22665 17.1721 7.05292C17.1721 6.98343 17.1721 6.8792 17.2072 6.80971C17.3125 6.56649 17.4179 6.32328 17.5935 6.14956C17.3125 6.28854 16.9614 6.14956 16.8209 5.8716C16.7858 5.80211 16.7507 5.69787 16.7858 5.62838C16.8209 5.52415 16.9263 5.4894 17.0316 5.4894C17.137 5.4894 17.2072 5.52415 17.3125 5.55889C17.1018 5.41991 16.856 5.21145 16.8911 4.93349C16.8911 4.864 16.9614 4.75976 17.0316 4.75976C17.0667 4.75976 17.137 4.75976 17.1721 4.79451C17.2774 4.864 17.4881 5.07247 17.5935 5.07247C17.4881 4.58604 17.3828 4.1691 17.4881 3.68267Z" fill="#C1FFB8"/>
<path d="M10.8511 11.7438C10.8511 11.7438 11.0969 15.1488 15.5216 14.5234C19.9815 13.898 19.1387 10.354 19.1387 10.354L10.8511 11.7438Z" fill="#E24C24"/>
<path d="M15.2504 12.6984C17.5304 12.3445 19.2642 11.3353 19.1229 10.4443C18.9816 9.55333 17.0188 9.11798 14.7387 9.47192C12.4587 9.82587 10.7249 10.8351 10.8662 11.726C11.0075 12.617 12.9703 13.0524 15.2504 12.6984Z" fill="#FF5A27"/>
<path d="M15.2178 12.4922C17.3062 12.168 18.8993 11.2752 18.776 10.4979C18.6528 9.72069 16.8599 9.35344 14.7714 9.67763C12.683 10.0018 11.0899 10.8947 11.2132 11.672C11.3364 12.4492 13.1293 12.8164 15.2178 12.4922Z" fill="#FF8B78"/>
<path d="M13.4498 10.7715C13.3093 10.8758 13.1688 11.0147 13.2039 11.1885C13.2039 11.258 13.2742 11.3274 13.2742 11.3969C13.2742 11.4664 13.2391 11.5359 13.2391 11.6054C13.2391 11.6401 13.2742 11.7096 13.3093 11.7444C13.5551 11.9528 13.9063 11.8834 14.2223 11.8139C15.03 11.6401 15.8026 11.4317 16.6103 11.258C16.821 11.2232 17.0668 11.119 17.1019 10.9452C17.1722 10.7715 17.0668 10.5978 16.8912 10.4936C16.7508 10.3893 16.5752 10.3546 16.3996 10.3546C15.8728 10.2851 15.3461 10.2851 14.8193 10.3893C14.3277 10.4241 13.8712 10.4936 13.4498 10.7715Z" fill="#FF5A27"/>
<path d="M11.9747 11.6053C12.1152 11.5705 12.2556 11.5358 12.3961 11.501C12.4312 11.501 12.4312 11.4663 12.4663 11.4315C12.4663 11.3968 12.4663 11.362 12.4663 11.3273C12.4312 11.2578 12.361 11.2578 12.3259 11.2578C12.2907 11.2578 12.2556 11.2926 12.1854 11.2926H12.2205C12.1152 11.3273 12.0449 11.3273 11.9396 11.362C11.8693 11.362 11.8342 11.4315 11.8342 11.501C11.8693 11.5705 11.9045 11.6053 11.9747 11.6053Z" fill="#FFB164"/>
<path d="M12.2558 11.084C12.3962 11.0493 12.3611 10.8408 12.2207 10.8408C12.0451 10.8756 12.0802 11.1188 12.2558 11.084Z" fill="#FFB164"/>
<path d="M12.2557 11.084C12.3611 11.084 12.4313 11.084 12.5367 11.0493C12.5718 11.0493 12.6069 11.0145 12.6069 11.0145C12.6069 10.9798 12.642 10.9451 12.642 10.9451C12.642 10.9103 12.6069 10.8756 12.6069 10.8756C12.5718 10.8408 12.5367 10.8408 12.5367 10.8408C12.4313 10.8408 12.3611 10.8408 12.2557 10.8756C12.2206 10.8756 12.1855 10.9103 12.1855 10.9103C12.1855 10.9451 12.1504 10.9798 12.1504 10.9798C12.1504 11.0145 12.1855 11.0493 12.1855 11.0493C12.1855 11.084 12.2206 11.084 12.2557 11.084Z" fill="#FFB164"/>
<path d="M12.9231 10.4237C12.9231 10.4585 12.9582 10.4585 12.9582 10.4932C12.9582 10.528 12.9933 10.528 13.0284 10.528C13.0635 10.5627 13.1338 10.5627 13.1689 10.5974H13.204C13.204 10.5974 13.2391 10.5974 13.2391 10.5627L13.2742 10.528V10.4932V10.4585C13.2742 10.4237 13.2742 10.4237 13.2391 10.389C13.204 10.3542 13.204 10.3542 13.1689 10.3542C13.1689 10.3542 13.1689 10.3542 13.1338 10.3542H13.1689C13.1689 10.3542 13.1338 10.3542 13.1338 10.3195C13.1338 10.3195 13.1338 10.3195 13.1689 10.3195L13.1338 10.2847C13.1338 10.2847 13.1338 10.2847 13.1689 10.3195L13.1338 10.2847C13.1338 10.2847 13.1338 10.2847 13.1338 10.3195C13.1338 10.3195 13.1338 10.2847 13.0987 10.2847L13.0635 10.25H13.0284H12.9933C12.9582 10.25 12.9582 10.2847 12.9231 10.3195C12.8879 10.3542 12.8879 10.389 12.9231 10.4237Z" fill="#FFB164"/>
<path d="M13.6604 10.1806C13.6604 10.2153 13.6955 10.2501 13.6955 10.3195C13.6955 10.3195 13.6955 10.3543 13.7306 10.3543L13.7658 10.389H13.8009H13.836C13.8711 10.389 13.8711 10.3543 13.9062 10.3195V10.2848C13.9062 10.2501 13.9062 10.2501 13.9062 10.2153C13.9062 10.1806 13.8711 10.1458 13.8711 10.0763C13.8711 10.0763 13.8711 10.0416 13.836 10.0416L13.8009 10.0068H13.7658H13.7306C13.6955 10.0068 13.6955 10.0416 13.6604 10.0763V10.1111C13.6604 10.1458 13.6604 10.1458 13.6604 10.1806Z" fill="#FFB164"/>
<path d="M15.2407 10.0763C15.2759 10.0416 15.311 10.0068 15.3461 9.93732C15.3461 9.93732 15.3461 9.90257 15.3812 9.90257V9.86783V9.83308C15.3812 9.83308 15.3812 9.79834 15.3461 9.79834C15.3461 9.79834 15.3461 9.79834 15.311 9.79834C15.2758 9.79834 15.2759 9.79834 15.2407 9.79834H15.2056C15.1705 9.79834 15.1705 9.83308 15.1705 9.83308C15.1354 9.86783 15.1003 9.90257 15.0651 9.97206C15.0651 9.97206 15.0651 10.0068 15.03 10.0068V10.0416V10.0763C15.03 10.0763 15.03 10.111 15.0651 10.111C15.0651 10.111 15.0651 10.111 15.1003 10.111C15.1354 10.111 15.1354 10.111 15.1705 10.111H15.2056L15.2407 10.0763Z" fill="#FFB164"/>
<path d="M16.3294 10.0765C16.3996 10.0417 16.4699 10.007 16.5401 9.97222C16.5752 9.97222 16.5752 9.93747 16.6103 9.90273C16.6103 9.86798 16.6103 9.83324 16.6103 9.79849C16.6103 9.76375 16.5752 9.76375 16.5401 9.729C16.505 9.729 16.4699 9.729 16.4347 9.729C16.3645 9.76375 16.2943 9.79849 16.224 9.83324C16.1889 9.83324 16.1889 9.86798 16.1538 9.90273C16.1538 9.93747 16.1538 9.97222 16.1538 10.007C16.1538 10.0417 16.1889 10.0417 16.224 10.0765C16.2592 10.0765 16.2943 10.0765 16.3294 10.0765Z" fill="#FFB164"/>
<path d="M17.1722 10.2502C17.3126 10.2502 17.418 10.2155 17.5233 10.1807C17.5585 10.1807 17.5585 10.146 17.5936 10.1112C17.5936 10.0765 17.5936 10.0417 17.5936 10.007C17.5936 9.97224 17.5585 9.97224 17.5233 9.9375C17.4882 9.9375 17.4531 9.9375 17.418 9.9375C17.3829 9.9375 17.3829 9.9375 17.3478 9.97225H17.3829C17.3126 10.007 17.2073 10.007 17.1019 10.007C17.0317 10.007 16.9966 10.0765 16.9966 10.146C17.0317 10.2502 17.1019 10.2849 17.1722 10.2502Z" fill="#FFB164"/>
<path d="M17.6989 10.7364C17.8042 10.7364 17.9447 10.7364 18.05 10.7711C18.0851 10.7711 18.1203 10.7711 18.1203 10.7364C18.1554 10.7016 18.1554 10.7016 18.1554 10.6669C18.1554 10.5974 18.1203 10.5279 18.05 10.5279C17.9447 10.5279 17.8042 10.5279 17.6989 10.4932C17.6637 10.4932 17.6286 10.4932 17.6286 10.5279C17.5935 10.5627 17.5935 10.5627 17.5935 10.5974C17.5935 10.6669 17.6286 10.7364 17.6989 10.7364Z" fill="#FFB164"/>
<path d="M17.2424 11.1884C17.3126 11.2231 17.3829 11.2579 17.4531 11.2926C17.4531 11.2926 17.4882 11.2926 17.4882 11.3274H17.5233C17.5584 11.3274 17.5936 11.2926 17.5936 11.2926C17.5936 11.2579 17.6287 11.2231 17.6287 11.2231C17.6287 11.1884 17.5936 11.1536 17.5936 11.1536C17.5233 11.1189 17.4531 11.0841 17.3829 11.0494C17.3829 11.0494 17.3477 11.0494 17.3477 11.0146H17.3126C17.2775 11.0146 17.2424 11.0494 17.2424 11.0494C17.2424 11.0841 17.2073 11.1189 17.2073 11.1189C17.2073 11.1536 17.2073 11.1884 17.2424 11.1884Z" fill="#FFB164"/>
<path d="M16.4699 11.6746L16.505 11.7094C16.4699 11.7094 16.4699 11.7094 16.4699 11.6746C16.505 11.7094 16.505 11.7441 16.505 11.7441V11.7094C16.505 11.7094 16.505 11.7094 16.505 11.7441V11.7789C16.505 11.7789 16.505 11.8136 16.5402 11.8136C16.5402 11.8136 16.5753 11.8136 16.5753 11.8483H16.6104C16.6455 11.8483 16.6806 11.8136 16.6806 11.8136C16.6806 11.7789 16.7157 11.7441 16.7157 11.7441C16.7157 11.7094 16.7158 11.6746 16.6806 11.6399C16.6806 11.6051 16.6455 11.5704 16.6104 11.5704C16.5753 11.5356 16.5753 11.5356 16.5402 11.5356H16.505C16.505 11.5356 16.4699 11.5356 16.4699 11.5704C16.4348 11.6051 16.4348 11.6051 16.4348 11.6399V11.6746C16.4348 11.6399 16.4348 11.6746 16.4699 11.6746Z" fill="#FFB164"/>
<path d="M15.2407 12.0223C15.2407 12.057 15.2758 12.057 15.2758 12.0918V12.057C15.2758 12.0918 15.2758 12.1265 15.2758 12.1613V12.196C15.2758 12.196 15.2758 12.2307 15.3109 12.2307C15.346 12.2307 15.3812 12.2655 15.3812 12.2655C15.4163 12.2655 15.4514 12.2307 15.4514 12.2307C15.4514 12.2307 15.4514 12.2307 15.4514 12.196C15.4514 12.1613 15.4514 12.1613 15.4514 12.1265C15.4514 12.0918 15.4514 12.057 15.4514 12.057C15.4514 12.0223 15.4163 11.9875 15.4163 11.9528C15.4163 11.918 15.3812 11.918 15.346 11.8833H15.3109H15.2758C15.2407 11.8833 15.2407 11.918 15.2056 11.9528C15.2407 11.9528 15.2407 11.9875 15.2407 12.0223Z" fill="#FFB164"/>
<path d="M14.3276 12.1263V12.161C14.3276 12.161 14.3276 12.161 14.3276 12.1263C14.3276 12.161 14.3276 12.161 14.3276 12.1958C14.3276 12.1958 14.3276 12.1958 14.3276 12.1263C14.3276 12.161 14.3276 12.1958 14.3276 12.1958C14.3276 12.1958 14.3276 12.1958 14.3276 12.161C14.3276 12.161 14.3276 12.1958 14.2924 12.1958C14.2924 12.1958 14.2924 12.2305 14.2573 12.2305V12.2653C14.2573 12.3 14.2924 12.3348 14.2924 12.3348C14.3276 12.3348 14.3627 12.3695 14.3627 12.3695H14.3978C14.4329 12.3695 14.4329 12.3348 14.4329 12.3348C14.468 12.3 14.468 12.3 14.468 12.2653C14.468 12.2653 14.468 12.2305 14.5031 12.2305C14.5031 12.1958 14.5031 12.1958 14.5031 12.161C14.5031 12.1263 14.5031 12.0915 14.5031 12.0915C14.5031 12.0568 14.468 12.022 14.468 12.022C14.4329 12.022 14.3978 11.9873 14.3978 11.9873C14.3627 11.9873 14.3276 12.022 14.3276 12.022C14.3276 12.0915 14.3276 12.1263 14.3276 12.1263Z" fill="#FFB164"/>
<path d="M13.3093 11.9177C13.2742 11.9525 13.2742 11.9872 13.2391 12.0219C13.2391 12.0219 13.2391 12.0219 13.2742 11.9872C13.2391 12.0219 13.1689 12.0567 13.1338 12.0914C13.0986 12.0914 13.0986 12.1262 13.0986 12.1609C13.0986 12.1957 13.0986 12.2304 13.1338 12.2304C13.1689 12.2652 13.1689 12.2652 13.204 12.2652H13.2391C13.2742 12.2652 13.2742 12.2652 13.3093 12.2304C13.4147 12.1609 13.4849 12.0914 13.5552 11.9872C13.5552 11.9525 13.5903 11.9177 13.5903 11.9177C13.5903 11.883 13.5552 11.8482 13.5552 11.8482C13.52 11.8482 13.4849 11.8135 13.4849 11.8135C13.3796 11.883 13.3445 11.883 13.3093 11.9177Z" fill="#FFB164"/>
<path d="M12.3259 12.0918C12.3611 12.057 12.3611 12.0223 12.3962 12.0223C12.3962 12.0223 12.3962 11.9875 12.4313 11.9875V11.9528V11.918C12.4313 11.918 12.4313 11.8833 12.3962 11.8833C12.3962 11.8833 12.3962 11.8833 12.3611 11.8833C12.3259 11.8833 12.3259 11.8833 12.2908 11.8833H12.2557C12.2206 11.8833 12.2206 11.918 12.2206 11.918C12.1855 11.9528 12.1855 11.9875 12.1504 11.9875C12.1504 11.9875 12.1504 12.0223 12.1152 12.0223V12.057V12.0918C12.1152 12.0918 12.1152 12.1265 12.1504 12.1265C12.1504 12.1265 12.1504 12.1265 12.1855 12.1265C12.2206 12.1265 12.2206 12.1265 12.2557 12.1265H12.2908C12.2908 12.1265 12.2908 12.1265 12.3259 12.0918Z" fill="#FFB164"/>
<path opacity="0.24" d="M12.7123 13.9331C12.9581 14.0373 13.239 14.1763 13.52 14.1416C13.6253 14.1416 13.7307 14.0721 13.7307 13.9678C13.7307 13.8984 13.6253 13.8289 13.5551 13.7941C13.3795 13.7246 13.2039 13.6551 13.0986 13.5162C12.8879 13.3077 12.4665 12.7518 12.0451 12.995C11.6588 13.2729 12.5016 13.8289 12.7123 13.9331Z" fill="white"/>
<path d="M20.2273 9.31159C20.2273 9.31159 22.3694 11.9522 25.6704 8.96414C28.9714 5.97608 26.2674 3.54395 26.2674 3.54395L20.2273 9.31159Z" fill="#E24C24"/>
<path d="M24.4057 7.64278C26.0829 6.07402 26.9349 4.27098 26.3086 3.61558C25.6824 2.96018 23.8151 3.70061 22.1379 5.26937C20.4607 6.83813 19.6087 8.64117 20.235 9.29657C20.8612 9.95197 22.7285 9.21154 24.4057 7.64278Z" fill="#FF5A27"/>
<path d="M24.2609 7.49109C25.7971 6.05415 26.5997 4.42581 26.0534 3.85408C25.5071 3.28235 23.8189 3.98373 22.2826 5.42066C20.7464 6.8576 19.9438 8.48594 20.4901 9.05767C21.0364 9.62941 22.7246 8.92802 24.2609 7.49109Z" fill="#FF8B78"/>
<path d="M21.8075 7.08793C21.7373 7.22691 21.7022 7.43537 21.8427 7.57435C21.8778 7.6091 21.948 7.64384 22.0183 7.71333C22.0534 7.78282 22.0534 7.85231 22.0885 7.88706C22.1236 7.9218 22.1587 7.95655 22.229 7.95655C22.545 7.99129 22.7908 7.74808 23.0015 7.50486C23.5634 6.9142 24.0902 6.32354 24.652 5.69813C24.7925 5.55915 24.933 5.35069 24.8979 5.14222C24.8627 4.96849 24.652 4.86426 24.4764 4.86426C24.3009 4.86426 24.1253 4.93375 23.9848 5.03798C23.5283 5.2812 23.0718 5.55915 22.6855 5.94135C22.3343 6.32354 22.0183 6.63624 21.8075 7.08793Z" fill="#FF5A27"/>
<path d="M21.0701 8.58187C21.1754 8.47764 21.2808 8.37341 21.351 8.23443C21.351 8.19968 21.3861 8.16494 21.351 8.16494C21.351 8.13019 21.3159 8.09545 21.2808 8.09545C21.2106 8.0607 21.1754 8.09545 21.1052 8.13019C21.0701 8.16494 21.035 8.19968 21.035 8.23443C21.035 8.23443 21.035 8.23443 21.0701 8.19968C20.9999 8.26917 20.9647 8.33866 20.8945 8.40815C20.8594 8.4429 20.8594 8.51238 20.8945 8.58187C20.9296 8.61662 21.035 8.61662 21.0701 8.58187Z" fill="#FFB164"/>
<path d="M20.9998 8.02618C21.1052 7.92194 20.9647 7.74822 20.8242 7.85245C20.7189 7.95669 20.8945 8.13041 20.9998 8.02618Z" fill="#FFB164"/>
<path d="M20.9998 8.02567C21.07 7.95618 21.1403 7.92144 21.2105 7.85195C21.2456 7.8172 21.2456 7.78246 21.2456 7.78246C21.2456 7.74771 21.2456 7.71297 21.2105 7.71297C21.1754 7.67822 21.1754 7.67822 21.1403 7.67822C21.1052 7.67822 21.07 7.67822 21.07 7.71297C20.9998 7.78246 20.9296 7.8172 20.8593 7.88669C20.8242 7.92144 20.8242 7.95618 20.8242 7.95618C20.8242 7.99093 20.8242 8.02567 20.8593 8.02567C20.8945 8.06042 20.8945 8.06042 20.9296 8.06042C20.9296 8.06042 20.9647 8.02567 20.9998 8.02567Z" fill="#FFB164"/>
<path d="M21.1755 7.08786C21.2106 7.08786 21.2106 7.12261 21.2457 7.12261C21.2808 7.12261 21.2808 7.12261 21.3159 7.12261C21.351 7.12261 21.4213 7.12261 21.4564 7.08786C21.4564 7.08786 21.4915 7.08786 21.4915 7.05312L21.5266 7.01837V6.98363V6.94888C21.5266 6.94888 21.5266 6.94888 21.4915 6.91414L21.4564 6.87939C21.4213 6.87939 21.3862 6.87939 21.3862 6.87939C21.3862 6.87939 21.3862 6.87939 21.351 6.87939H21.3862H21.351H21.3862H21.351H21.3862H21.351H21.3862H21.351H21.3159C21.3159 6.87939 21.2808 6.87939 21.2808 6.91414L21.2457 6.94888C21.2457 6.98363 21.2106 7.01837 21.2457 7.01837C21.1052 7.05312 21.1403 7.08786 21.1755 7.08786Z" fill="#FFB164"/>
<path d="M21.632 6.46238C21.6671 6.49712 21.7023 6.53186 21.7374 6.53186H21.7725H21.8076C21.8076 6.53186 21.8427 6.53186 21.8427 6.49712L21.8778 6.46238C21.8778 6.42763 21.913 6.39289 21.8778 6.39289V6.35814C21.8778 6.3234 21.8427 6.3234 21.8427 6.3234C21.8076 6.28865 21.7725 6.25391 21.7374 6.25391H21.7023H21.6671C21.6671 6.25391 21.632 6.25391 21.632 6.28865L21.5969 6.3234C21.5969 6.35814 21.5618 6.39289 21.5969 6.39289V6.42763C21.632 6.42763 21.632 6.46238 21.632 6.46238Z" fill="#FFB164"/>
<path d="M22.8962 5.48939C22.8962 5.4199 22.8962 5.38515 22.8962 5.31566V5.28092C22.8962 5.28092 22.8962 5.24617 22.8611 5.24617L22.826 5.21143H22.7909H22.7557C22.7206 5.21143 22.7206 5.21143 22.6855 5.24617C22.6855 5.24617 22.6855 5.24617 22.6504 5.28092C22.6504 5.31566 22.6504 5.31566 22.6504 5.35041C22.6504 5.4199 22.6504 5.45464 22.6504 5.52413V5.55887C22.6504 5.55887 22.6504 5.59362 22.6855 5.59362L22.7206 5.62837H22.7557H22.7909C22.826 5.62837 22.826 5.62836 22.8611 5.59362C22.8611 5.59362 22.8611 5.59362 22.8962 5.55887C22.8962 5.55887 22.8962 5.52413 22.8962 5.48939Z" fill="#FFB164"/>
<path d="M23.7742 4.89902C23.8093 4.82953 23.8444 4.76004 23.8795 4.69055C23.8795 4.65581 23.9146 4.62106 23.8795 4.62106C23.8795 4.58632 23.8444 4.55157 23.8093 4.55157C23.7742 4.55157 23.739 4.51683 23.739 4.55157C23.7039 4.55157 23.6688 4.58632 23.6688 4.62106C23.6337 4.69055 23.5986 4.76004 23.5635 4.82953C23.5635 4.86428 23.5283 4.89902 23.5635 4.89902C23.5635 4.93377 23.5986 4.96851 23.6337 4.96851C23.6688 4.96851 23.7039 5.00326 23.7039 4.96851C23.739 4.93377 23.7742 4.93377 23.7742 4.89902Z" fill="#FFB164"/>
<path d="M24.5818 4.58619C24.6872 4.5167 24.7574 4.41246 24.8277 4.30823C24.8277 4.27349 24.8628 4.23874 24.8277 4.23874C24.8277 4.204 24.7925 4.16925 24.7574 4.16925C24.7223 4.16925 24.6872 4.13451 24.6872 4.16925C24.6521 4.16925 24.617 4.204 24.617 4.23874C24.617 4.27349 24.5818 4.27349 24.5818 4.30823C24.5818 4.30823 24.5818 4.30823 24.617 4.27349C24.5467 4.34298 24.5116 4.41246 24.4414 4.44721C24.4063 4.48195 24.4063 4.58619 24.4414 4.62093C24.4765 4.62093 24.5116 4.62093 24.5818 4.58619Z" fill="#FFB164"/>
<path d="M25.2843 4.65579C25.3896 4.5863 25.495 4.55155 25.5652 4.48206C25.6003 4.48206 25.6003 4.44732 25.6354 4.41257C25.6354 4.37783 25.6354 4.34308 25.6354 4.34308C25.6003 4.30834 25.5301 4.27359 25.495 4.30834C25.3896 4.37783 25.2843 4.41257 25.214 4.48206C25.1789 4.48206 25.1789 4.51681 25.1438 4.55155C25.1438 4.5863 25.1438 4.62104 25.1438 4.62104C25.1438 4.65579 25.2491 4.69053 25.2843 4.65579Z" fill="#FFB164"/>
<path d="M25.1788 5.31589C25.2491 5.31589 25.3544 5.31589 25.4247 5.31589H25.4598C25.4598 5.31589 25.4949 5.31589 25.4949 5.28115C25.53 5.2464 25.53 5.2464 25.53 5.21166C25.53 5.17691 25.53 5.14217 25.4949 5.14217C25.4598 5.10742 25.4598 5.10742 25.4247 5.10742C25.3544 5.10742 25.2491 5.10742 25.1788 5.10742H25.1437C25.1437 5.10742 25.1086 5.10742 25.1086 5.14217C25.0735 5.17691 25.0735 5.17691 25.0735 5.21166C25.0735 5.2464 25.0735 5.28115 25.1086 5.28115C25.1086 5.28115 25.1437 5.31589 25.1788 5.31589Z" fill="#FFB164"/>
<path d="M24.8275 6.14946H24.8626H24.8275C24.8626 6.14946 24.8977 6.18421 24.8977 6.18421C24.8977 6.18421 24.8977 6.18421 24.8626 6.14946L24.8977 6.18421H24.9328H24.9679C24.9679 6.18421 25.0031 6.18421 25.0031 6.14946C25.0382 6.11472 25.0382 6.11472 25.0382 6.07997C25.0382 6.04523 25.0382 6.01048 25.0031 6.01048C24.9679 5.97574 24.9679 5.97574 24.9328 5.94099C24.8977 5.94099 24.8626 5.90625 24.8275 5.90625C24.7924 5.90625 24.7572 5.90625 24.7572 5.90625C24.7572 5.90625 24.7221 5.90625 24.7221 5.94099L24.687 5.97574C24.687 6.01048 24.687 6.04523 24.687 6.04523C24.687 6.04523 24.687 6.04523 24.7221 6.07997C24.7572 6.11472 24.7924 6.14946 24.8275 6.14946Z" fill="#FFB164"/>
<path d="M24.0199 7.12291C24.055 7.12291 24.055 7.15766 24.0902 7.15766C24.0902 7.15766 24.0902 7.15766 24.055 7.12291C24.0902 7.15766 24.0902 7.15766 24.1253 7.1924L24.1604 7.22715H24.1955C24.2306 7.22715 24.2657 7.22715 24.2657 7.1924C24.3009 7.15766 24.3009 7.15766 24.3009 7.12291V7.08817C24.3009 7.05342 24.3009 7.05342 24.2657 7.01868C24.2306 6.98393 24.2306 6.98393 24.1955 6.94919C24.1604 6.91445 24.1253 6.91444 24.0902 6.8797C24.055 6.8797 24.0199 6.84496 24.0199 6.8797C24.0199 6.8797 23.9848 6.8797 23.9848 6.91444L23.9497 6.94919C23.9497 6.98393 23.9146 7.01868 23.9497 7.01868C23.9497 7.08817 23.9848 7.08817 24.0199 7.12291Z" fill="#FFB164"/>
<path d="M23.3176 7.71343C23.3176 7.71343 23.3527 7.74817 23.3176 7.71343C23.3527 7.74817 23.3527 7.71343 23.3176 7.71343C23.3527 7.74817 23.3527 7.74817 23.3527 7.74817C23.3527 7.74817 23.3527 7.74817 23.3176 7.71343C23.3527 7.74817 23.3527 7.78292 23.3527 7.78292V7.74817V7.78292V7.81766C23.3527 7.81766 23.3527 7.85241 23.3878 7.85241C23.423 7.88715 23.423 7.88715 23.4581 7.88715C23.4932 7.88715 23.5283 7.88715 23.5283 7.85241C23.5283 7.85241 23.5283 7.85241 23.5634 7.81766C23.5634 7.78292 23.5634 7.78292 23.5634 7.74817C23.5634 7.71343 23.5634 7.71343 23.5634 7.67868V7.64394C23.5634 7.60919 23.5634 7.60919 23.5283 7.57445C23.5283 7.5397 23.4932 7.5397 23.4932 7.50496C23.4581 7.47021 23.4581 7.47021 23.423 7.47021C23.3878 7.47021 23.3527 7.47021 23.3527 7.50496C23.3176 7.5397 23.3176 7.5397 23.3176 7.57445C23.2825 7.67868 23.3176 7.67868 23.3176 7.71343Z" fill="#FFB164"/>
<path d="M22.3696 8.09545C22.3696 8.13019 22.3696 8.16494 22.3696 8.23443V8.19968C22.3696 8.26917 22.3345 8.30391 22.3345 8.3734C22.3345 8.40815 22.3345 8.44289 22.3345 8.44289C22.3345 8.47764 22.3696 8.47764 22.4047 8.51238C22.4398 8.51238 22.4749 8.51238 22.4749 8.51238C22.4749 8.51238 22.4749 8.51238 22.5101 8.47764L22.5452 8.44289C22.5803 8.33866 22.6154 8.23442 22.6154 8.13019C22.6154 8.09545 22.6154 8.0607 22.5803 8.0607C22.5452 7.99121 22.5101 7.99121 22.4749 7.99121C22.4398 7.99121 22.4047 7.99121 22.4047 8.02596C22.3696 8.02596 22.3696 8.0607 22.3696 8.09545Z" fill="#FFB164"/>
<path d="M21.632 8.82517C21.632 8.79042 21.632 8.75568 21.632 8.72093V8.68619C21.632 8.68619 21.632 8.65144 21.5969 8.65144L21.5618 8.6167H21.5267H21.4916C21.4565 8.6167 21.4565 8.6167 21.4213 8.65144C21.4213 8.65144 21.4213 8.65144 21.3862 8.68619C21.3862 8.72093 21.3862 8.72093 21.3862 8.75568C21.3862 8.79042 21.3862 8.82517 21.3862 8.85991V8.89466C21.3862 8.89466 21.3862 8.9294 21.4213 8.9294L21.4565 8.96415H21.4916H21.5267C21.5618 8.96415 21.5618 8.96415 21.5969 8.9294C21.5969 8.9294 21.5969 8.9294 21.632 8.89466C21.632 8.85991 21.632 8.82517 21.632 8.82517Z" fill="#FFB164"/>
<path opacity="0.24" d="M23.0014 10.0757C23.2823 10.041 23.5633 9.97147 23.8091 9.79774C23.8793 9.72825 23.9495 9.62402 23.9144 9.51978C23.8793 9.45029 23.774 9.45029 23.6686 9.48504C23.493 9.51978 23.3174 9.55453 23.1067 9.51978C22.7907 9.48504 22.1235 9.24182 21.9479 9.69351C21.7372 10.1452 22.7907 10.1104 23.0014 10.0757Z" fill="white"/>
<path d="M24.2659 13.2032C24.2659 13.2032 25.2491 16.4692 29.4632 14.9057C33.6772 13.3422 32.0267 10.0762 32.0267 10.0762L24.2659 13.2032Z" fill="#E24C24"/>
<path d="M28.7666 13.1969C30.9151 12.3629 32.3869 11.0063 32.054 10.1667C31.7211 9.32717 29.7095 9.3226 27.5611 10.1565C25.4126 10.9905 23.9408 12.3471 24.2737 13.1867C24.6066 14.0262 26.6181 14.0308 28.7666 13.1969Z" fill="#FF5A27"/>
<path d="M28.6898 13.003C30.6578 12.2392 32.0177 11.0262 31.7273 10.2938C31.4369 9.56144 29.6061 9.58695 27.6382 10.3508C25.6703 11.1147 24.3104 12.3276 24.6008 13.06C24.8912 13.7924 26.7219 13.7669 28.6898 13.003Z" fill="#FF8B78"/>
<path d="M26.5837 11.7092C26.4783 11.8134 26.3378 11.9872 26.4081 12.1609C26.4432 12.2304 26.4783 12.2651 26.5134 12.3346C26.5134 12.4041 26.4783 12.4736 26.5134 12.5431C26.5134 12.5778 26.5837 12.6126 26.6188 12.6473C26.8997 12.7863 27.2158 12.6821 27.5318 12.5431C28.2693 12.1956 29.0067 11.8482 29.7442 11.5007C29.9198 11.3965 30.1656 11.2923 30.1656 11.0838C30.1656 10.9101 30.0602 10.7364 29.8847 10.7016C29.7091 10.6321 29.5335 10.6321 29.3579 10.6669C28.8311 10.7364 28.3044 10.8058 27.8127 11.0491C27.3562 11.188 26.9348 11.3618 26.5837 11.7092Z" fill="#FF5A27"/>
<path d="M25.3192 12.8211C25.4597 12.7516 25.6002 12.6821 25.7055 12.6126C25.7407 12.6126 25.7407 12.5779 25.7407 12.5431C25.7407 12.5084 25.7407 12.4737 25.7055 12.4389C25.6704 12.3694 25.6002 12.3694 25.5299 12.4042C25.4948 12.4389 25.4597 12.4389 25.4246 12.4737H25.4597C25.3895 12.5084 25.2841 12.5779 25.2139 12.6126C25.1437 12.6474 25.1085 12.7169 25.1437 12.7516C25.2139 12.8211 25.2841 12.8559 25.3192 12.8211Z" fill="#FFB164"/>
<path d="M25.4598 12.2654C25.6002 12.1959 25.53 11.9875 25.3896 12.057C25.2491 12.0917 25.3193 12.3349 25.4598 12.2654Z" fill="#FFB164"/>
<path d="M25.4598 12.2649C25.53 12.2301 25.6353 12.2301 25.7056 12.1954C25.7407 12.1954 25.7758 12.1606 25.7758 12.1259C25.7758 12.0911 25.7758 12.0564 25.7758 12.0216C25.7758 11.9869 25.7407 11.9521 25.7056 11.9521C25.6705 11.9521 25.6353 11.9521 25.6002 11.9521C25.53 11.9869 25.4246 11.9869 25.3544 12.0216C25.3193 12.0216 25.2842 12.0564 25.2842 12.0911C25.2842 12.1259 25.2842 12.1606 25.2842 12.1954C25.2842 12.2301 25.3193 12.2649 25.3544 12.2649C25.4246 12.2649 25.4246 12.2649 25.4598 12.2649Z" fill="#FFB164"/>
<path d="M25.9868 11.4662C25.9868 11.5009 26.0219 11.5009 26.057 11.5009C26.0921 11.5009 26.0921 11.5357 26.1273 11.5357C26.1624 11.5704 26.2326 11.5704 26.2677 11.5704H26.3028C26.3028 11.5704 26.338 11.5704 26.338 11.5357C26.338 11.5357 26.338 11.5009 26.3731 11.5009V11.4662V11.4315C26.3731 11.3967 26.338 11.3967 26.338 11.3967C26.3028 11.362 26.2677 11.362 26.2677 11.362C26.2677 11.362 26.2677 11.362 26.2326 11.362H26.2677H26.2326H26.2677C26.2677 11.362 26.2326 11.362 26.2326 11.3272C26.2326 11.3272 26.2326 11.3272 26.2677 11.3272L26.2326 11.2925C26.2326 11.2925 26.2326 11.2925 26.2677 11.3272L26.2326 11.2925H26.1975H26.1624C26.1624 11.2925 26.1273 11.2925 26.1273 11.3272C26.0921 11.362 26.0921 11.362 26.0921 11.3967C25.9517 11.4315 25.9517 11.4662 25.9868 11.4662Z" fill="#FFB164"/>
<path d="M26.6538 11.0835C26.6889 11.1182 26.6889 11.153 26.724 11.1877L26.7591 11.2224H26.7942H26.8294C26.8294 11.2224 26.8645 11.2224 26.8645 11.1877C26.8996 11.153 26.8996 11.153 26.8996 11.1182V11.0835C26.8996 11.0487 26.8996 11.0487 26.8645 11.014C26.8294 10.9792 26.8294 10.9445 26.7942 10.9097L26.7591 10.875H26.724H26.6889C26.6889 10.875 26.6538 10.875 26.6538 10.9097C26.6187 10.9445 26.6187 10.9445 26.6187 10.9792V11.014C26.6538 11.0487 26.6538 11.0487 26.6538 11.0835Z" fill="#FFB164"/>
<path d="M28.1989 10.632C28.2341 10.5972 28.2341 10.5277 28.2692 10.493V10.4582V10.4235C28.2692 10.4235 28.2692 10.3887 28.2341 10.3887L28.1989 10.354H28.1638C28.1287 10.354 28.1287 10.354 28.0936 10.354H28.0585L28.0234 10.3887C27.9882 10.4235 27.9882 10.493 27.9531 10.5277V10.5625V10.5972C27.9531 10.5972 27.9531 10.632 27.9882 10.632L28.0234 10.6667H28.0585C28.0936 10.6667 28.0936 10.6667 28.1287 10.6667H28.1638C28.1638 10.6667 28.1638 10.6667 28.1989 10.632Z" fill="#FFB164"/>
<path d="M29.2173 10.3885C29.2875 10.3537 29.3578 10.2842 29.3929 10.2495C29.428 10.2147 29.428 10.2147 29.428 10.18C29.428 10.1453 29.428 10.1105 29.3929 10.0758C29.3578 10.041 29.3578 10.041 29.3226 10.041C29.2875 10.041 29.2524 10.041 29.2173 10.0758C29.1471 10.1105 29.0768 10.18 29.0417 10.2147C29.0066 10.2495 29.0066 10.2495 29.0066 10.2842C29.0066 10.319 29.0066 10.3537 29.0417 10.3885C29.0768 10.4232 29.0768 10.4232 29.1119 10.4232C29.1822 10.4232 29.2173 10.4232 29.2173 10.3885Z" fill="#FFB164"/>
<path d="M30.0951 10.4236C30.2005 10.3889 30.3409 10.3194 30.4463 10.2846C30.4814 10.2846 30.4814 10.2499 30.4814 10.2152C30.4814 10.1804 30.4814 10.1457 30.4463 10.1109C30.4112 10.0762 30.4112 10.0762 30.3761 10.0762C30.3409 10.0762 30.3058 10.0762 30.2707 10.1109C30.2356 10.1109 30.2356 10.1457 30.2005 10.1457H30.2356C30.1654 10.1804 30.06 10.2152 29.9898 10.2499C29.9195 10.2846 29.8844 10.3541 29.9195 10.3889C29.9547 10.3889 30.0249 10.4236 30.0951 10.4236Z" fill="#FFB164"/>
<path d="M30.7274 10.7365C30.8327 10.7017 30.9732 10.7017 31.0786 10.667C31.1137 10.667 31.1488 10.6322 31.1488 10.6322C31.1488 10.5975 31.1839 10.5627 31.1839 10.5627C31.1839 10.4932 31.1137 10.4585 31.0434 10.4585C30.9381 10.4932 30.7976 10.4932 30.6923 10.528C30.6571 10.528 30.622 10.5627 30.622 10.5627C30.622 10.5975 30.5869 10.6322 30.5869 10.6322C30.5869 10.7017 30.6571 10.7712 30.7274 10.7365Z" fill="#FFB164"/>
<path d="M30.3761 11.292C30.4464 11.3268 30.5166 11.3268 30.622 11.3615H30.6571H30.6922C30.7273 11.3615 30.7624 11.3268 30.7624 11.292C30.7624 11.2573 30.7624 11.2226 30.7624 11.1878C30.7624 11.1531 30.7273 11.1183 30.6922 11.1183C30.622 11.0836 30.5517 11.0836 30.4464 11.0488H30.4113H30.3761C30.341 11.0488 30.3059 11.0836 30.3059 11.1183C30.3059 11.1531 30.3059 11.1878 30.3059 11.2226C30.341 11.2573 30.341 11.292 30.3761 11.292Z" fill="#FFB164"/>
<path d="M29.709 11.9521L29.7441 11.9869C29.7441 11.9521 29.7441 11.9521 29.709 11.9521C29.7441 11.9869 29.7441 11.9869 29.7792 12.0216V11.9869C29.7792 11.9869 29.7792 11.9869 29.7792 12.0216C29.7792 12.0216 29.7792 12.0564 29.8143 12.0564L29.8495 12.0911H29.8846H29.9197C29.9548 12.0911 29.9899 12.0564 29.9899 12.0216C29.9899 11.9869 29.9899 11.9521 29.9899 11.9174C29.9899 11.8826 29.9548 11.8479 29.9548 11.8479C29.9197 11.8131 29.9197 11.8131 29.8846 11.7784C29.8495 11.7437 29.8143 11.7437 29.8143 11.7437H29.7792C29.7792 11.7437 29.7441 11.7437 29.7441 11.7784C29.7441 11.8131 29.709 11.8479 29.709 11.8479V11.8826C29.709 11.9174 29.709 11.9174 29.709 11.9521Z" fill="#FFB164"/>
<path d="M28.6205 12.5429C28.6205 12.5777 28.6556 12.5777 28.6556 12.6124V12.5777C28.6556 12.6124 28.6907 12.6472 28.6907 12.6472C28.6907 12.6472 28.6907 12.6819 28.7258 12.6819L28.7609 12.7167C28.7961 12.7167 28.8312 12.7167 28.8663 12.7167C28.9014 12.7167 28.9365 12.6819 28.9365 12.6472V12.6124C28.9365 12.5777 28.9365 12.5777 28.9365 12.5429C28.9365 12.5082 28.9014 12.4735 28.9014 12.4735C28.8663 12.4387 28.8663 12.404 28.8312 12.3692C28.7961 12.3345 28.7961 12.3345 28.7609 12.3345H28.7258C28.7258 12.3345 28.6907 12.3345 28.6907 12.3692C28.6556 12.404 28.6556 12.404 28.6556 12.4387C28.5854 12.4735 28.5854 12.5082 28.6205 12.5429Z" fill="#FFB164"/>
<path d="M27.7426 12.8558V12.8905C27.7426 12.8558 27.7426 12.8558 27.7426 12.8558C27.7426 12.8905 27.7426 12.8905 27.7426 12.9253C27.7778 12.8905 27.7778 12.8905 27.7426 12.8558C27.7426 12.8905 27.7426 12.9253 27.7426 12.9253V12.8905C27.7426 12.8905 27.7426 12.9253 27.7075 12.9253V12.96V12.9948C27.7075 13.0295 27.7426 13.0642 27.7778 13.0642C27.8129 13.0642 27.848 13.0642 27.8831 13.0642H27.9182L27.9533 13.0295C27.9533 12.9948 27.9885 12.9948 27.9885 12.96V12.9253C27.9885 12.8905 27.9885 12.8905 27.9885 12.8558C27.9885 12.821 27.9885 12.821 27.9533 12.7863C27.9533 12.7515 27.9182 12.7515 27.8831 12.7168C27.848 12.7168 27.8129 12.7168 27.7778 12.7168C27.7426 12.7168 27.7075 12.7515 27.7075 12.7863C27.7426 12.7863 27.7426 12.821 27.7426 12.8558Z" fill="#FFB164"/>
<path d="M26.7241 12.8557C26.7241 12.8904 26.689 12.9252 26.6539 12.9599C26.6539 12.9599 26.6539 12.9599 26.6539 12.9252C26.6188 12.9947 26.5837 13.0294 26.5485 13.0642C26.5134 13.0989 26.5134 13.1337 26.5134 13.1337C26.5134 13.1684 26.5485 13.2031 26.5485 13.2031C26.5837 13.2031 26.6188 13.2379 26.6188 13.2379H26.6539C26.689 13.2379 26.689 13.2031 26.689 13.2031C26.7592 13.1337 26.8295 13.0294 26.8646 12.9252C26.8646 12.8904 26.8646 12.8557 26.8646 12.821C26.8646 12.7862 26.8295 12.7515 26.7944 12.7515C26.7592 12.7515 26.7241 12.7515 26.689 12.7515C26.7592 12.7862 26.7241 12.821 26.7241 12.8557Z" fill="#FFB164"/>
<path d="M25.7759 13.2378C25.7759 13.2031 25.811 13.1684 25.811 13.1336V13.0989V13.0641C25.811 13.0641 25.811 13.0294 25.7759 13.0294L25.7407 12.9946H25.7056C25.6705 12.9946 25.6705 12.9946 25.6354 12.9946H25.6003L25.5651 13.0294C25.5651 13.0641 25.53 13.0989 25.53 13.1336V13.1684V13.2031C25.53 13.2031 25.53 13.2378 25.5651 13.2378L25.6003 13.2726H25.6354C25.6705 13.2726 25.6705 13.2726 25.7056 13.2726H25.7407C25.7407 13.2726 25.7407 13.2726 25.7759 13.2378Z" fill="#FFB164"/>
<path opacity="0.24" d="M26.5484 14.9401C26.8293 15.0096 27.1103 15.0444 27.3912 14.9749C27.4966 14.9401 27.6019 14.8707 27.5668 14.7664C27.5317 14.6969 27.4614 14.6622 27.3561 14.6274C27.1805 14.5927 27.0049 14.558 26.8293 14.4537C26.5484 14.28 26.0216 13.8283 25.6705 14.1758C25.3544 14.5232 26.3377 14.8707 26.5484 14.9401Z" fill="white"/>
<path d="M5.1622 7.50439C5.1622 7.50439 1.93143 8.72046 3.79263 12.7509C5.65384 16.7465 8.84949 14.9398 8.84949 14.9398L5.1622 7.50439Z" fill="#E24C24"/>
<path d="M8.76884 14.954C9.59269 14.568 9.45979 12.5821 8.47198 10.5182C7.48417 8.4544 6.01553 7.09427 5.19167 7.48027C4.36782 7.86628 4.50073 9.85226 5.48853 11.9161C6.47634 13.9799 7.94498 15.34 8.76884 14.954Z" fill="#FF5A27"/>
<path d="M8.61862 14.6398C9.33731 14.3031 9.18643 12.4977 8.28163 10.6073C7.37684 8.71687 6.06075 7.45738 5.34206 7.79411C4.62338 8.13084 4.77425 9.93628 5.67905 11.8267C6.58385 13.7171 7.89994 14.9766 8.61862 14.6398Z" fill="#FF8B78"/>
<path d="M6.8477 9.69371C6.70723 9.58947 6.53165 9.48524 6.39118 9.55473C6.32095 9.58947 6.28583 9.65896 6.2156 9.65896C6.14536 9.65896 6.07513 9.65896 6.00489 9.65896C5.96978 9.69371 5.93466 9.72845 5.89954 9.7632C5.75907 10.0412 5.93466 10.3539 6.07513 10.6318C6.49653 11.3267 6.88282 12.0216 7.30422 12.7165C7.40957 12.8902 7.55004 13.0987 7.76075 13.0987C7.93633 13.0987 8.0768 12.9597 8.14703 12.786C8.21727 12.6123 8.18215 12.4385 8.14703 12.2648C8.04168 11.7437 7.90121 11.2225 7.65539 10.7708C7.40957 10.4233 7.19887 10.0064 6.8477 9.69371Z" fill="#FF5A27"/>
<path d="M5.61879 8.5121C5.68903 8.65108 5.75926 8.75532 5.86461 8.8943C5.86461 8.92904 5.89973 8.92904 5.93485 8.92904C5.96996 8.92904 6.00508 8.92904 6.00508 8.8943C6.0402 8.85955 6.0402 8.79006 6.00508 8.72057C5.96996 8.68583 5.96996 8.65108 5.93485 8.61634C5.93485 8.61634 5.93485 8.61634 5.93485 8.65108C5.89973 8.58159 5.8295 8.47736 5.79438 8.40787C5.75926 8.33838 5.68903 8.33838 5.65391 8.33838C5.61879 8.37312 5.58368 8.44261 5.61879 8.5121Z" fill="#FFB164"/>
<path d="M6.18064 8.61664C6.25087 8.75562 6.46158 8.65139 6.39134 8.51241C6.32111 8.37343 6.11041 8.47766 6.18064 8.61664Z" fill="#FFB164"/>
<path d="M6.18066 8.6166C6.21578 8.68608 6.2509 8.79032 6.28601 8.85981C6.28601 8.89455 6.32113 8.89455 6.35625 8.9293C6.39137 8.9293 6.42648 8.9293 6.4616 8.9293C6.49672 8.9293 6.49672 8.89455 6.53183 8.85981C6.53183 8.82506 6.53183 8.79032 6.53183 8.75558C6.49672 8.68609 6.4616 8.58185 6.42648 8.51236C6.42648 8.47762 6.39137 8.47762 6.35625 8.44287C6.32113 8.44287 6.28601 8.44287 6.2509 8.44287C6.21578 8.44287 6.21578 8.47762 6.18066 8.51236C6.18066 8.54711 6.18066 8.58185 6.18066 8.6166Z" fill="#FFB164"/>
<path d="M7.02334 9.06814C7.02334 9.06814 6.98822 9.10289 6.98822 9.13763C6.98822 9.17238 6.95311 9.17238 6.95311 9.20712C6.95311 9.24187 6.91799 9.31136 6.95311 9.3461C6.95311 9.3461 6.95311 9.38085 6.98822 9.38085L7.02334 9.4156H7.05846H7.09358H7.12869C7.16381 9.4156 7.16381 9.38085 7.16381 9.38085C7.16381 9.3461 7.19893 9.31136 7.19893 9.31136C7.19893 9.31136 7.19893 9.31136 7.19893 9.27661V9.31136V9.27661V9.31136V9.27661V9.31136C7.19893 9.31136 7.19893 9.27661 7.23404 9.27661C7.23404 9.27661 7.23404 9.27661 7.19893 9.31136L7.23404 9.27661V9.24187V9.20712C7.23404 9.20712 7.23404 9.17238 7.19893 9.17238C7.16381 9.13763 7.16381 9.13763 7.12869 9.13763C7.09358 9.0334 7.05846 9.0334 7.02334 9.06814Z" fill="#FFB164"/>
<path d="M7.47982 9.72859C7.44471 9.76334 7.40959 9.76334 7.37447 9.79808L7.33936 9.83283V9.86757V9.90232C7.33936 9.90232 7.33936 9.93706 7.37447 9.93706C7.40959 9.97181 7.40959 9.97181 7.44471 9.97181H7.47982C7.51494 9.97181 7.51494 9.97181 7.55006 9.93706C7.58517 9.90232 7.62029 9.90232 7.65541 9.86757L7.69053 9.83283V9.79808V9.76334C7.69053 9.76334 7.69053 9.72859 7.65541 9.72859C7.62029 9.69385 7.62029 9.69385 7.58517 9.69385H7.55006C7.51494 9.69385 7.47982 9.69385 7.47982 9.72859Z" fill="#FFB164"/>
<path d="M8.00655 11.1876C8.04167 11.2223 8.1119 11.2223 8.14702 11.257H8.18214H8.21725C8.21725 11.257 8.25237 11.257 8.25237 11.2223L8.28749 11.1876V11.1528C8.28749 11.1181 8.28749 11.1181 8.28749 11.0833C8.28749 11.0833 8.28749 11.0833 8.28749 11.0486L8.25237 11.0138C8.21726 10.9791 8.14702 10.9791 8.1119 10.9443H8.07679H8.04167C8.04167 10.9443 8.00655 10.9443 8.00655 10.9791L7.97144 11.0138V11.0486C7.97144 11.0833 7.97144 11.0833 7.97144 11.1181C7.97144 11.1181 7.97144 11.1181 7.97144 11.1528L8.00655 11.1876Z" fill="#FFB164"/>
<path d="M8.32271 12.1952C8.35783 12.2647 8.42807 12.2994 8.46318 12.3689C8.4983 12.4037 8.4983 12.4037 8.53342 12.4037C8.56853 12.4037 8.60365 12.4037 8.60365 12.3689C8.63877 12.3342 8.63877 12.3342 8.63877 12.2994C8.63877 12.2647 8.63877 12.23 8.60365 12.23C8.56853 12.1605 8.4983 12.1257 8.46318 12.0562C8.42807 12.0215 8.42807 12.0215 8.39295 12.0215C8.35783 12.0215 8.32271 12.0215 8.32271 12.0562C8.2876 12.091 8.2876 12.091 8.2876 12.1257C8.2876 12.1605 8.32271 12.1952 8.32271 12.1952Z" fill="#FFB164"/>
<path d="M8.39294 13.0639C8.42806 13.1681 8.49829 13.2723 8.56852 13.3766C8.56852 13.4113 8.60364 13.4113 8.63876 13.4113C8.67388 13.4113 8.70899 13.4113 8.70899 13.3766C8.74411 13.3418 8.74411 13.3418 8.74411 13.3071C8.74411 13.2723 8.74411 13.2376 8.70899 13.2376C8.70899 13.2028 8.67388 13.2028 8.67388 13.1681C8.67388 13.1681 8.67388 13.1681 8.67388 13.2028C8.63876 13.1334 8.56852 13.0639 8.56852 12.9596C8.53341 12.8901 8.46317 12.8901 8.42806 12.8901C8.35782 12.9249 8.35782 12.9944 8.39294 13.0639Z" fill="#FFB164"/>
<path d="M8.0769 13.6893C8.11202 13.7935 8.14714 13.8977 8.14714 14.0367C8.14714 14.0715 8.18225 14.1062 8.18225 14.1062C8.21737 14.1062 8.25249 14.141 8.25249 14.141C8.32272 14.141 8.35784 14.0715 8.35784 14.002C8.32272 13.8977 8.28761 13.7935 8.28761 13.6545C8.28761 13.6198 8.25249 13.585 8.25249 13.585C8.21737 13.585 8.18225 13.5503 8.18225 13.5503C8.11202 13.585 8.0769 13.6198 8.0769 13.6893Z" fill="#FFB164"/>
<path d="M7.4799 13.4113C7.44478 13.4808 7.44479 13.5503 7.40967 13.6545V13.6892V13.724C7.40967 13.7587 7.44478 13.7587 7.4799 13.7935C7.51502 13.7935 7.55014 13.7935 7.58525 13.7935C7.62037 13.7935 7.62037 13.7587 7.65549 13.724C7.6906 13.6545 7.6906 13.585 7.72572 13.4808V13.446V13.4113C7.72572 13.3765 7.6906 13.3765 7.65549 13.3418C7.62037 13.3418 7.58525 13.3418 7.55014 13.3418C7.51502 13.3418 7.51502 13.3765 7.4799 13.4113Z" fill="#FFB164"/>
<path d="M6.81283 12.7857L6.77771 12.8205C6.77771 12.8205 6.77771 12.8205 6.81283 12.7857C6.77771 12.8205 6.77771 12.8205 6.7426 12.8552C6.7426 12.8552 6.7426 12.8552 6.77771 12.8552C6.77771 12.8552 6.77771 12.8552 6.7426 12.8552C6.7426 12.8552 6.70748 12.8552 6.70748 12.89L6.67236 12.9247V12.9594V12.9942C6.67236 13.0289 6.70748 13.0289 6.7426 13.0637C6.77771 13.0637 6.81283 13.0637 6.84795 13.0637C6.88307 13.0637 6.91818 13.0289 6.91818 12.9942C6.9533 12.9594 6.9533 12.9594 6.98842 12.9247C6.98842 12.89 7.02353 12.8552 7.02353 12.8552C7.02353 12.8552 7.02353 12.8205 6.98842 12.8205L6.9533 12.7857C6.91818 12.7857 6.88307 12.751 6.88307 12.751H6.84795C6.84795 12.751 6.81283 12.7857 6.81283 12.7857Z" fill="#FFB164"/>
<path d="M6.1104 11.7435C6.07528 11.7783 6.07528 11.7783 6.04017 11.7783C6.07528 11.7783 6.07528 11.7783 6.1104 11.7435C6.04017 11.7783 6.00505 11.813 6.00505 11.813C6.00505 11.813 5.96993 11.813 5.96993 11.8478L5.93481 11.8825C5.93481 11.9173 5.93481 11.952 5.93481 11.9867C5.93481 12.0215 5.96993 12.0215 6.00505 12.0562H6.04017C6.07528 12.0562 6.07528 12.0562 6.1104 12.0562C6.14552 12.0562 6.18063 12.0215 6.18063 12.0215C6.21575 11.9867 6.25087 11.9867 6.28598 11.952C6.3211 11.9173 6.3211 11.9173 6.3211 11.8825V11.8478C6.3211 11.8478 6.3211 11.813 6.28598 11.813C6.25087 11.7783 6.25087 11.7783 6.21575 11.7783C6.18063 11.7088 6.14552 11.7088 6.1104 11.7435Z" fill="#FFB164"/>
<path d="M5.75929 10.9094H5.72417H5.75929C5.72417 10.9094 5.72417 10.9094 5.68905 10.9094C5.72417 10.9094 5.72417 10.9094 5.75929 10.9094C5.72417 10.9094 5.68905 10.9094 5.68905 10.9094H5.72417H5.68905H5.65394H5.61882C5.5837 10.9094 5.5837 10.9441 5.54858 10.9788C5.54858 11.0136 5.54858 11.0483 5.54858 11.0831C5.54858 11.0831 5.54858 11.0831 5.54858 11.1178L5.5837 11.1526C5.61882 11.1526 5.61882 11.1526 5.65394 11.1873H5.68905C5.72417 11.1873 5.72417 11.1873 5.75929 11.1873C5.7944 11.1873 5.7944 11.1873 5.82952 11.1526C5.86464 11.1526 5.86464 11.1178 5.89975 11.0831C5.89975 11.0483 5.89975 11.0136 5.89975 10.9788C5.89975 10.9441 5.86464 10.9441 5.82952 10.9094C5.82952 10.8746 5.7944 10.8746 5.75929 10.9094Z" fill="#FFB164"/>
<path d="M5.68898 9.86749C5.65387 9.86749 5.61875 9.83275 5.58363 9.83275H5.61875C5.54852 9.798 5.5134 9.76326 5.47828 9.72852C5.44316 9.72852 5.40805 9.72852 5.37293 9.72852C5.33781 9.72852 5.3027 9.76326 5.3027 9.76326C5.3027 9.79801 5.26758 9.83275 5.26758 9.83275V9.86749C5.26758 9.90224 5.3027 9.90224 5.3027 9.90224C5.37293 9.97173 5.47828 10.0412 5.58363 10.076C5.61875 10.076 5.65387 10.076 5.68898 10.076C5.7241 10.076 5.7241 10.0412 5.75922 10.0065C5.75922 9.97173 5.75922 9.93698 5.75922 9.90224C5.75922 9.90224 5.7241 9.90224 5.68898 9.86749Z" fill="#FFB164"/>
<path d="M5.23238 8.96392C5.2675 8.96392 5.30262 8.99866 5.33773 8.99866H5.37285H5.40797C5.40797 8.99866 5.44308 8.99866 5.44308 8.96392L5.4782 8.92917V8.89443C5.4782 8.85968 5.4782 8.85968 5.4782 8.82494C5.4782 8.82494 5.4782 8.82494 5.4782 8.79019L5.44308 8.75545C5.40797 8.75545 5.37285 8.7207 5.33773 8.7207H5.30262H5.2675C5.2675 8.7207 5.23238 8.7207 5.23238 8.75545L5.19727 8.79019V8.82494C5.19727 8.85968 5.19727 8.85968 5.19727 8.89443C5.19727 8.89443 5.19727 8.89443 5.19727 8.92917C5.19727 8.96392 5.19727 8.96392 5.23238 8.96392Z" fill="#FFB164"/>
<path opacity="0.24" d="M3.58199 9.86753C3.54687 10.1455 3.51176 10.4582 3.61711 10.7014C3.65223 10.8056 3.75758 10.9099 3.82781 10.8751C3.89805 10.8404 3.93316 10.7362 3.93316 10.6667C3.96828 10.4929 3.96828 10.2845 4.07363 10.1455C4.2141 9.86753 4.6355 9.31161 4.28433 8.99891C3.89805 8.6862 3.61711 9.65906 3.58199 9.86753Z" fill="white"/>
<path d="M7.44488 11.0834C7.9014 10.8055 8.60374 10.9097 8.9198 11.3266C9.30608 10.7707 10.184 10.6665 10.7459 11.0139C11.3429 11.3614 11.6589 12.0563 11.6589 12.7164C12.6071 12.4037 13.6255 13.0986 14.1874 13.9325C14.2927 14.0715 14.3629 14.2105 14.5034 14.3147C14.679 14.4189 14.8897 14.4537 15.1004 14.4537C16.786 14.6621 18.2609 16.0519 18.577 17.7197C18.6823 18.2409 18.6472 18.7968 18.3663 19.2137C18.1205 19.5612 17.7342 19.7696 17.383 19.9434C16.9616 20.1518 16.5402 20.395 16.0486 20.4298C14.679 20.534 13.766 19.04 12.5369 18.4841C11.5185 18.0324 10.3245 18.2061 9.30608 17.7544C8.49839 17.407 7.72582 16.7121 7.02348 16.1909C6.42649 15.7392 6.0402 15.2875 5.8295 14.5926C5.54856 13.724 5.68903 12.0563 7.05859 12.4732C6.84789 11.9868 6.98836 11.3614 7.44488 11.0834Z" fill="#89E269"/>
<path d="M40.1388 10.2148H39.296C39.1555 13.3071 32.5886 15.0096 20.5786 15.0096C8.95486 15.0096 2.07191 12.786 1.86121 10.2148H1.0184C1.0184 10.2148 0.702349 14.1758 2.94984 18.9705C6.32108 26.1627 10.9916 27.483 10.9916 27.483L20.5084 27.6568L30.0251 27.483C30.0251 27.483 34.6605 26.1975 38.0318 19.0053C40.2442 14.1758 40.1388 10.2148 40.1388 10.2148Z" fill="#EDCEB9"/>
<path d="M30.1655 29.0468V27.3791L20.5786 26.1978L10.9916 27.4833V29.0468C10.9916 29.0468 10.9214 29.8112 13.8361 30.7841C17.8043 32.1391 24.301 31.6874 27.3913 30.7841C30.306 29.9154 30.1655 29.0468 30.1655 29.0468Z" fill="#EDCEB9"/>
<path d="M27.3562 30.7837C30.306 29.915 30.2006 29.0464 30.2006 29.0464V27.3787L25.811 26.8228C25.811 26.8228 25.811 26.8228 25.7759 26.8228C25.2842 27.1355 24.7926 27.3787 24.7575 28.0041C24.7224 28.6642 25.0735 29.4634 24.7926 30.0888C24.617 30.471 24.1605 30.6099 23.7391 30.7142C20.5083 31.4438 17.2073 30.9921 14.0468 30.2278C13.0635 29.9845 12.0451 29.7066 11.2374 29.1507C11.1672 29.1159 11.097 29.0464 10.9916 29.0117C10.9916 29.0117 10.9214 29.7761 13.8361 30.7489C17.7692 32.1387 24.2659 31.687 27.3562 30.7837Z" fill="#EABFAC"/>
<path opacity="0.38" d="M5.72402 16.3302C5.51332 16.8514 5.6889 17.442 5.89961 17.998C6.46148 19.4572 7.23406 20.8123 8.11198 22.1326C8.74409 23.0707 9.51666 24.0436 10.6404 24.252C11.0267 24.3215 11.4481 24.2868 11.7993 24.1131C12.1504 23.9393 12.3963 23.5571 12.4314 23.1749C12.4314 22.758 12.2207 22.4106 12.01 22.0631C11.4832 21.2292 11.0618 20.3259 10.816 19.3878C10.6755 18.7623 10.6053 18.0675 10.2892 17.5115C9.69225 16.4692 6.35613 14.6277 5.72402 16.3302Z" fill="white"/>
<path opacity="0.38" d="M12.4665 28.1087C12.3612 28.1087 12.291 28.1087 12.1856 28.1782C12.01 28.2824 12.01 28.5256 12.0803 28.6994C12.1856 28.8731 12.3612 28.9773 12.5017 29.0468C13.204 29.3943 13.9766 29.6027 14.7843 29.7417C15.1003 29.8112 15.4164 29.8459 15.6973 29.707C15.9782 29.6027 16.189 29.2553 16.0485 28.9773C15.908 28.7341 15.5568 28.6646 15.2759 28.6646C14.3629 28.5604 13.3796 28.074 12.4665 28.1087Z" fill="white"/>
<path d="M40.1038 10.2148H39.2609C39.1907 11.9521 37.0837 13.2376 33.1506 14.0715C32.9399 15.4961 32.4834 17.1638 31.5703 18.9358C28.7961 24.1128 26.1974 25.5721 23.0369 26.6144C19.1038 27.9347 14.5034 27.622 14.5034 27.622C14.5034 27.622 19.1389 28.6644 22.8262 28.6644C26.5135 28.6644 29.9549 27.483 29.9549 27.483C29.9549 27.483 34.5904 26.1975 37.9616 19.0053C40.2091 14.1758 40.1038 10.2148 40.1038 10.2148Z" fill="#EABFAC"/>
<path d="M40.1394 9.93701H39.2966C39.2966 10.0412 39.2966 10.1107 39.2966 10.215C39.1913 13.342 32.6244 15.0445 20.5792 15.0445C8.92038 15.0445 2.03744 12.7861 1.86185 10.215C1.86185 10.1107 1.89697 10.0412 1.89697 9.93701H1.05416C1.05416 10.0412 1.01904 10.1455 1.01904 10.2497C1.19463 13.0988 8.39362 15.6352 20.5792 15.6352C33.1863 15.6352 40.0341 13.7242 40.1394 10.215C40.1394 10.1107 40.1394 10.0065 40.1394 9.93701Z" fill="#FFDFCA"/>
<path d="M4.52983 6.74039L4.35425 8.09544C4.35425 8.09544 4.881 10.1106 7.79572 10.8403C11.0616 11.6394 13.5549 10.9098 13.7305 8.92931C13.7656 8.61661 13.4144 7.71324 13.4144 7.71324L4.49472 6.6709L4.52983 6.74039Z" fill="#59B24F"/>
<path d="M13.4551 8.29558C13.6997 7.05241 11.9071 5.66114 9.45123 5.18809C6.99536 4.71505 4.80619 5.33936 4.56157 6.58253C4.31695 7.8257 6.10953 9.21698 8.5654 9.69002C11.0213 10.1631 13.2104 9.53876 13.4551 8.29558Z" fill="#84D17D"/>
<path d="M13.1686 8.09588C13.0984 9.06874 11.2372 9.72889 8.9546 9.38144C6.67199 9.034 4.77567 7.71369 4.81078 6.74084C4.88102 5.76798 6.91781 5.03834 9.20042 5.38579C11.4479 5.73323 13.2038 7.12303 13.1686 8.09588Z" fill="#B0EDA9"/>
<path d="M6.46151 6.74048C6.39128 6.671 6.32104 6.60151 6.32104 6.49727C6.32104 6.32355 6.53175 6.2888 6.67222 6.2888C6.98827 6.32355 7.33944 6.39304 7.62038 6.53202C7.51503 6.39304 7.44479 6.25406 7.40967 6.11508C7.40967 6.08033 7.37456 6.04559 7.40967 6.01084C7.44479 5.94135 7.55014 5.9761 7.62038 6.01084C7.97155 6.18457 8.2876 6.42778 8.56854 6.70574C8.46319 6.56676 8.42807 6.39304 8.42807 6.25406C8.42807 6.08033 8.4983 5.94135 8.63877 5.87186C8.81436 5.80237 9.06018 5.90661 9.20064 6.08033C9.34111 6.25406 9.37623 6.46253 9.41135 6.671C9.69228 6.46253 10.0786 6.39304 10.4297 6.49727C10.5 6.53202 10.6053 6.56676 10.6404 6.63625C10.7107 6.77523 10.5702 6.87946 10.4649 6.94895C10.8863 6.87946 11.3779 7.05319 11.694 7.40064C11.7291 7.43538 11.7642 7.50487 11.7642 7.53962C11.7642 7.57436 11.7291 7.60911 11.7291 7.60911C11.5535 7.78283 11.3428 7.85232 11.097 7.88706C10.8511 7.92181 10.6053 7.85232 10.3595 7.81757C10.6053 7.92181 10.816 8.06079 11.0267 8.23451C11.0618 8.26926 11.0618 8.26926 11.097 8.304C11.097 8.33875 11.097 8.33875 11.0618 8.37349C10.8863 8.61671 10.5351 8.65145 10.2542 8.51247C9.97322 8.40824 9.7274 8.16502 9.5167 7.95655C9.62205 8.13028 9.69228 8.304 9.65717 8.51247C9.62205 8.6862 9.41135 8.82518 9.23576 8.75569C9.16553 8.72094 9.09529 8.65145 9.02506 8.58196C8.84947 8.37349 8.74412 8.13028 8.67389 7.88706C8.63877 8.19977 8.35783 8.44298 8.04178 8.40824C7.97155 8.40824 7.8662 8.37349 7.83108 8.304C7.76084 8.23451 7.76084 8.09553 7.83108 8.02604C7.8662 7.95655 7.93643 7.88706 8.04178 7.81757C7.79596 7.92181 7.51502 8.02604 7.30432 7.85232C7.23409 7.78283 7.19897 7.71334 7.23409 7.64385C7.26921 7.60911 7.30432 7.57436 7.33944 7.53962C7.44479 7.47013 7.76084 7.43538 7.79596 7.33115C7.23409 7.22691 6.8478 7.05319 6.46151 6.74048Z" fill="#C1FFB8"/>
<path d="M19.9464 11.4652C20.5083 11.222 21.2107 11.222 21.7374 11.5C21.8428 11.5695 22.0184 11.639 22.0886 11.5347C22.1237 11.5 22.1237 11.4305 22.1237 11.361C22.0184 10.7008 21.4214 10.1797 20.719 10.1449C20.2274 10.1102 19.7357 10.3534 19.2792 10.5966C18.9632 10.7703 18.6471 10.9788 18.3662 11.1873C17.9799 11.4652 17.5936 11.7779 17.418 12.2296C17.2775 12.5423 17.2073 13.2372 17.6638 13.3415C18.1204 13.4457 18.3311 12.7855 18.5769 12.5076C18.9632 12.0559 19.4197 11.6737 19.9464 11.4652Z" fill="#0A0B0C"/>
<path d="M21.2458 10.0758C20.5083 9.97152 19.7709 10.18 19.1036 10.5274C18.4715 10.8749 17.9097 11.3613 17.3478 11.8477C16.7508 12.3689 16.7859 13.3765 17.1371 14.0019C17.4531 14.5926 18.1204 14.9748 18.7876 15.0443C19.4548 15.1138 20.0869 14.8358 20.6839 14.5578C21.316 14.2451 21.9481 13.8977 22.3695 13.3418C22.826 12.7859 23.0367 12.0562 22.826 11.3961C22.6505 10.6664 21.9832 10.18 21.2458 10.0758ZM21.4916 11.9867C21.316 12.3342 20.9648 12.6121 20.6137 12.8206C20.2625 13.0291 19.9113 13.168 19.5602 13.307C19.2441 13.4113 18.928 13.5155 18.612 13.4807C18.2959 13.446 17.9448 13.307 17.8043 13.0291C17.1371 11.952 18.8578 11.1181 19.5953 10.8054C20.0167 10.6317 20.4732 10.5622 20.8946 10.6664C21.0702 10.7012 21.2107 10.7706 21.3511 10.8749C21.6672 11.1528 21.7023 11.6393 21.4916 11.9867Z" fill="#36383F"/>
<path d="M11.2726 4.44766C11.8345 4.20444 12.5368 4.20444 13.0636 4.4824C13.1689 4.55189 13.3445 4.62138 13.4148 4.51715C13.4499 4.4824 13.4499 4.41291 13.4499 4.34342C13.3445 3.68327 12.7475 3.1621 12.0452 3.12735C11.5536 3.09261 11.0619 3.33582 10.6054 3.57904C10.2893 3.75276 9.97328 3.96123 9.69235 4.1697C9.30606 4.44766 8.91977 4.76036 8.74419 5.21204C8.60372 5.52475 8.53348 6.21964 8.99 6.32388C9.44653 6.42811 9.65723 5.76796 9.90305 5.49C10.2893 5.03832 10.7459 4.65613 11.2726 4.44766Z" fill="#0A0B0C"/>
<path d="M12.5719 3.02302C11.8345 2.91878 11.097 3.12725 10.4298 3.4747C9.7977 3.82215 9.23583 4.30858 8.67395 4.79501C8.07696 5.31618 8.11208 6.32378 8.46325 6.94919C8.7793 7.53985 9.44653 7.92204 10.1138 7.99153C10.781 8.06102 11.4131 7.78306 12.0101 7.5051C12.6422 7.1924 13.2743 6.84495 13.6957 6.28903C14.1522 5.73312 14.3629 5.00347 14.1522 4.34332C13.9766 3.61368 13.3094 3.12725 12.5719 3.02302ZM12.8178 4.96873C12.6422 5.31618 12.291 5.55939 11.9398 5.76786C11.5887 5.97633 11.2375 6.11531 10.8863 6.25429C10.5703 6.35852 10.2542 6.46276 9.93817 6.42801C9.62211 6.39327 9.27094 6.25429 9.13047 5.97633C8.46325 4.89924 10.184 4.06536 10.9214 3.75266C11.3428 3.57894 11.7994 3.50945 12.2208 3.61368C12.3964 3.64843 12.5368 3.71792 12.6773 3.82215C12.9933 4.10011 13.0285 4.58654 12.8178 4.96873Z" fill="#36383F"/>
<path d="M36.2405 6.60131C36.6971 7.01824 37.0131 7.60891 37.0131 8.19957C37.0131 8.33855 37.0131 8.51227 37.1536 8.54702C37.2238 8.54702 37.2941 8.51227 37.3292 8.47753C37.891 8.09534 38.1017 7.2962 37.8208 6.70554C37.6101 6.25386 37.1887 5.90641 36.7673 5.62845C36.4512 5.41998 36.1352 5.24626 35.8191 5.07253C35.3977 4.86406 34.9412 4.6556 34.4496 4.69034C34.0984 4.72508 33.4312 4.9683 33.5365 5.41998C33.6419 5.87166 34.3442 5.76743 34.6954 5.87166C35.2924 5.9759 35.8191 6.21911 36.2405 6.60131Z" fill="#0A0B0C"/>
<path d="M38.1018 7.12269C37.8911 6.4278 37.3643 5.83714 36.7674 5.4202C36.1704 5.00326 35.468 4.7253 34.8008 4.44734C34.0985 4.16938 33.1503 4.62107 32.764 5.21173C32.3777 5.76765 32.3075 6.49729 32.5533 7.12269C32.7991 7.7481 33.3259 8.19978 33.8526 8.61672C34.4145 9.03366 35.0115 9.41585 35.7138 9.58958C36.3811 9.72856 37.1888 9.62432 37.6804 9.17264C38.172 8.65147 38.3125 7.85234 38.1018 7.12269ZM36.4513 8.19978C36.0299 8.19978 35.6436 7.99131 35.3276 7.78285C35.0115 7.57438 34.6954 7.33116 34.4145 7.0532C34.1687 6.84473 33.958 6.60152 33.8526 6.28882C33.7473 5.97611 33.7122 5.62867 33.8878 5.35071C34.5901 4.30836 36.1001 5.4202 36.6971 5.97611C37.0483 6.28882 37.2941 6.63627 37.3995 7.08795C37.4346 7.26167 37.4346 7.4354 37.3995 7.57438C37.2941 7.99131 36.8727 8.23453 36.4513 8.19978Z" fill="#36383F"/>
<path d="M22.7207 9.10293C22.7207 9.10293 24.1956 12.7164 28.4448 11.674C32.694 10.6317 34.4147 8.02584 34.801 7.57415C35.6087 6.6013 35.5736 5.17676 35.5736 5.17676L22.7207 9.10293Z" fill="#FFECD7"/>
<path d="M24.6522 8.51212C24.617 8.51212 25.7408 10.979 27.7425 10.5968C31.7107 9.83242 31.0786 6.56641 31.0786 6.56641L24.6522 8.51212Z" fill="#FFDC31"/>
<path opacity="0.52" d="M33.5368 7.01813C33.291 7.852 32.4482 8.33843 31.8512 8.92909C31.7459 9.03333 31.6054 9.20705 31.6756 9.34603C31.7108 9.45027 31.8512 9.51976 31.9917 9.48501C32.097 9.48501 32.2024 9.41552 32.3078 9.34603C32.7994 8.99858 33.2208 8.58165 33.6071 8.12996C34.0285 7.64353 34.485 7.12236 34.5552 6.46221C34.5552 6.39272 34.5552 6.32323 34.5552 6.25374C34.4499 5.97578 34.0636 6.11476 33.888 6.25374C33.6773 6.46221 33.6071 6.74017 33.5368 7.01813Z" fill="white"/>
</g>

</svg>
