<svg width="61" height="78" viewBox="0 0 61 78" fill="none" xmlns="http://www.w3.org/2000/svg">
<defs>
<clipPath id="clip0_326_4036">
<rect width="60.82" height="77.03" fill="white"/>
</clipPath>
</defs>
<g clip-path="url(#clip0_326_4036)">
<path d="M56.3 49.88H55.43V25.64C55.4221 19.073 52.8098 12.7773 48.1663 8.13373C43.5227 3.49018 37.227 0.877939 30.66 0.87H30.15C23.583 0.877939 17.2873 3.49018 12.6438 8.13373C8.0002 12.7773 5.38796 19.073 5.38002 25.64V49.14H4.52002V25.64C4.52531 18.8432 7.22699 12.3262 12.0321 7.51916C16.8372 2.71216 23.3532 0.00794431 30.15 0H30.66C37.4577 0.00793972 43.9748 2.71184 48.7815 7.51855C53.5882 12.3253 56.2921 18.8423 56.3 25.64V49.88Z" fill="#33290E"/>
<path d="M8.2599 50.8H1.6499V74.1H8.2599V50.8Z" fill="#FBCB43"/>
<path d="M8.2599 50.8H1.6499V52.21H8.2599V50.8Z" fill="#BA9732"/>
<path d="M8.26 47.49H1.64C0.734253 47.49 0 48.2242 0 49.13V49.16C0 50.0657 0.734253 50.8 1.64 50.8H8.26C9.16575 50.8 9.9 50.0657 9.9 49.16V49.13C9.9 48.2242 9.16575 47.49 8.26 47.49Z" fill="#FBCB43"/>
<path d="M3.81994 56.1599C3.52723 56.1545 3.24425 56.265 3.03261 56.4673C2.82096 56.6696 2.6978 56.9473 2.68994 57.2399V73.3599H4.99994V57.2399C4.99762 57.0902 4.96474 56.9425 4.90332 56.8059C4.84189 56.6693 4.75323 56.5467 4.64275 56.4455C4.53227 56.3444 4.4023 56.2669 4.26082 56.2178C4.11933 56.1687 3.96931 56.149 3.81994 56.1599Z" fill="#B08E2F"/>
<path d="M6.9999 77.0001H2.9099C2.57573 77.0001 2.25524 76.8673 2.01895 76.631C1.78265 76.3947 1.6499 76.0743 1.6499 75.7401V74.0901H8.2499V75.7701C8.24212 76.0973 8.10731 76.4087 7.874 76.6382C7.64069 76.8678 7.32721 76.9976 6.9999 77.0001Z" fill="#B08E2F"/>
<path d="M59.1701 50.8H52.5601V74.1H59.1701V50.8Z" fill="#FBCB43"/>
<path d="M59.1701 50.8H52.5601V52.21H59.1701V50.8Z" fill="#BA9732"/>
<path d="M59.1799 47.49H52.5599C51.6542 47.49 50.9199 48.2242 50.9199 49.13V49.16C50.9199 50.0657 51.6542 50.8 52.5599 50.8H59.1799C60.0857 50.8 60.8199 50.0657 60.8199 49.16V49.13C60.8199 48.2242 60.0857 47.49 59.1799 47.49Z" fill="#FBCB43"/>
<path d="M57.0001 56.1599C56.8548 56.1559 56.7102 56.1808 56.5746 56.233C56.4389 56.2853 56.315 56.3639 56.2099 56.4643C56.1048 56.5647 56.0207 56.685 55.9624 56.8181C55.9041 56.9512 55.8727 57.0946 55.8701 57.2399V73.3599H58.1501V57.2399C58.1463 57.0933 58.1133 56.9488 58.0533 56.815C57.9933 56.6811 57.9073 56.5605 57.8004 56.4601C57.6934 56.3596 57.5677 56.2814 57.4303 56.2299C57.2929 56.1784 57.1467 56.1546 57.0001 56.1599Z" fill="#B08E2F"/>
<path d="M57.9101 77.0001H53.8201C53.4867 76.9975 53.1677 76.8639 52.932 76.6282C52.6963 76.3924 52.5627 76.0735 52.5601 75.7401V74.0901H59.1701V75.7701C59.1622 76.099 59.026 76.4119 58.7906 76.6417C58.5551 76.8716 58.2391 77.0002 57.9101 77.0001Z" fill="#B08E2F"/>
<path d="M7.54011 53.3899H8.25011V56.7699H7.54011C7.0972 56.7699 6.67243 56.5939 6.35924 56.2808C6.04605 55.9676 5.87011 55.5428 5.87011 55.0999C5.86477 54.8772 5.90403 54.6558 5.98556 54.4485C6.0671 54.2413 6.18926 54.0524 6.34487 53.8931C6.50048 53.7337 6.68638 53.6071 6.89165 53.5207C7.09692 53.4343 7.31739 53.3898 7.54011 53.3899Z" fill="#B08E2F"/>
<path d="M7.5399 58.6899H8.2499V62.0699H7.5399C7.09699 62.0699 6.67221 61.894 6.35903 61.5808C6.04584 61.2676 5.8699 60.8429 5.8699 60.3999C5.86592 60.1777 5.90611 59.9568 5.98813 59.7501C6.07015 59.5435 6.19238 59.3552 6.34772 59.1961C6.50305 59.0371 6.68842 58.9104 6.89307 58.8235C7.09771 58.7366 7.31757 58.6912 7.5399 58.6899Z" fill="#B08E2F"/>
<path d="M7.53999 64H8.24999V67.38H7.53999C7.31984 67.38 7.10186 67.3365 6.89859 67.2519C6.69532 67.1674 6.51078 67.0435 6.35557 66.8873C6.20037 66.7312 6.07757 66.5459 5.99423 66.3422C5.9109 66.1384 5.86867 65.9201 5.86999 65.7C5.86735 65.4785 5.90853 65.2587 5.99115 65.0533C6.07377 64.8478 6.1962 64.6606 6.35141 64.5027C6.50661 64.3447 6.69153 64.2189 6.89551 64.1326C7.09949 64.0464 7.31852 64.0013 7.53999 64Z" fill="#B08E2F"/>
<path d="M7.5399 69.3H8.2499V72.68H7.5399C7.09607 72.6774 6.67132 72.4992 6.35842 72.1845C6.04552 71.8697 5.86989 71.4439 5.8699 71C5.86591 70.7782 5.90617 70.5578 5.9883 70.3517C6.07044 70.1457 6.19282 69.958 6.3483 69.7997C6.50377 69.6415 6.68922 69.5158 6.89381 69.43C7.09841 69.3442 7.31804 69.3 7.5399 69.3Z" fill="#B08E2F"/>
<path d="M53.2801 53.3899H52.5601V56.7699H53.2801C53.5035 56.7766 53.7261 56.7384 53.9345 56.6574C54.1429 56.5765 54.333 56.4546 54.4934 56.2988C54.6538 56.1431 54.7813 55.9567 54.8683 55.7508C54.9554 55.5448 55.0002 55.3235 55.0001 55.0999C55.0056 54.873 54.9648 54.6473 54.8802 54.4367C54.7956 54.2261 54.669 54.0349 54.508 53.8749C54.347 53.7148 54.1551 53.5893 53.944 53.5059C53.7328 53.4225 53.5069 53.3831 53.2801 53.3899Z" fill="#B08E2F"/>
<path d="M53.2801 58.6899H52.5601V62.0699H53.2801C53.5035 62.0766 53.7261 62.0384 53.9345 61.9575C54.1429 61.8765 54.333 61.7546 54.4934 61.5988C54.6538 61.4431 54.7813 61.2567 54.8683 61.0508C54.9554 60.8448 55.0002 60.6235 55.0001 60.3999C55.0042 60.1734 54.9624 59.9484 54.8773 59.7384C54.7922 59.5284 54.6655 59.3378 54.5048 59.1781C54.3441 59.0183 54.1528 58.8927 53.9423 58.8088C53.7318 58.7249 53.5066 58.6845 53.2801 58.6899Z" fill="#B08E2F"/>
<path d="M53.2801 64H52.5601V67.38H53.2801C53.5044 67.3867 53.7278 67.3482 53.9368 67.2666C54.1459 67.1851 54.3364 67.0622 54.497 66.9054C54.6575 66.7486 54.7848 66.561 54.8713 66.3539C54.9577 66.1468 55.0015 65.9244 55.0001 65.7C55.0028 65.4743 54.9601 65.2503 54.8743 65.0415C54.7886 64.8327 54.6617 64.6433 54.5012 64.4846C54.3406 64.326 54.1497 64.2013 53.9399 64.118C53.7301 64.0347 53.5057 63.9946 53.2801 64Z" fill="#B08E2F"/>
<path d="M53.2801 69.3001H52.5601V72.6801H53.2801C53.504 72.6854 53.7268 72.6459 53.9353 72.5639C54.1437 72.4818 54.3337 72.3589 54.4939 72.2024C54.6542 72.0458 54.7815 71.8588 54.8685 71.6524C54.9554 71.4459 55.0001 71.2241 55.0001 71.0001C55.0042 70.774 54.9624 70.5494 54.8772 70.3399C54.792 70.1305 54.6651 69.9405 54.5043 69.7816C54.3435 69.6226 54.152 69.498 53.9416 69.4152C53.7311 69.3324 53.5061 69.2933 53.2801 69.3001Z" fill="#B08E2F"/>
</g>

</svg>
