<svg width="315" height="78" viewBox="0 0 315 78" fill="none" xmlns="http://www.w3.org/2000/svg">
<mask id="mask0_1017_846" style="mask-type:alpha" maskUnits="userSpaceOnUse" x="0" y="0" width="315" height="78">
<rect width="315" height="78" rx="12" fill="#C4C4C4"/>
</mask>
<g>
<path opacity="0.3" d="M-57.2727 53C-42.1345 38.0273 -4.95241 28.8396 54.0186 25.5C120.647 21.7267 151.594 50.5736 213.992 43.5C259.849 38.3015 249.037 25.1032 284.411 16C314.11 8.35741 334.333 4.67468 372.273 0" stroke="white"/>
<path opacity="0.3" d="M-57.2727 65C-42.1345 50.0273 -4.95241 40.8396 54.0186 37.5C120.647 33.7267 151.594 62.5736 213.992 55.5C259.849 50.3015 249.037 37.1032 284.411 28C314.11 20.3574 334.333 16.6747 372.273 12" stroke="white"/>
<path opacity="0.3" d="M-57.2727 61C-42.1345 46.0273 -4.95241 36.8396 54.0186 33.5C120.647 29.7267 151.594 58.5736 213.992 51.5C259.849 46.3015 249.037 33.1032 284.411 24C314.11 16.3574 334.333 12.6747 372.273 8" stroke="white"/>
<path opacity="0.3" d="M-57.2727 57C-42.1345 42.0273 -4.95241 32.8396 54.0186 29.5C120.647 25.7267 151.594 54.5736 213.992 47.5C259.849 42.3015 249.037 29.1032 284.411 20C314.11 12.3574 334.333 8.67468 372.273 4" stroke="white"/>
<path d="M-11.4546 19C1.10774 33.9727 31.963 43.1604 80.8996 46.5C136.19 50.2733 161.872 21.4264 213.652 28.5C251.706 33.6985 242.734 46.8968 272.089 56C296.734 63.6426 313.516 67.3253 345 72" stroke="white" stroke-width="1.2"/>
<path d="M-11.4546 7C1.10774 21.9727 31.963 31.1604 80.8996 34.5C136.19 38.2733 161.872 9.4264 213.652 16.5C251.706 21.6985 242.734 34.8968 272.089 44C296.734 51.6426 313.516 55.3253 345 60" stroke="white" stroke-width="1.2"/>
<path d="M-11.4546 11C1.10774 25.9727 31.963 35.1604 80.8996 38.5C136.19 42.2733 161.872 13.4264 213.652 20.5C251.706 25.6985 242.734 38.8968 272.089 48C296.734 55.6426 313.516 59.3253 345 64" stroke="white" stroke-width="1.2"/>
<path d="M-11.4546 15C1.10774 29.9727 31.963 39.1604 80.8996 42.5C136.19 46.2733 161.872 17.4264 213.652 24.5C251.706 29.6985 242.734 42.8968 272.089 52C296.734 59.6426 313.516 63.3253 345 68" stroke="white" stroke-width="1.2"/>
</g>
</svg>
