<svg width="110" height="72" viewBox="0 0 110 72" fill="none" xmlns="http://www.w3.org/2000/svg">
<defs>
<linearGradient id="paint0_linear_1017_1200" x1="130" y1="53" x2="-61.9116" y2="10.9709" gradientUnits="userSpaceOnUse">
<stop stop-color="#C58BF2"/>
<stop offset="1" stop-color="#EEA4CE"/>
</linearGradient>
<linearGradient id="paint1_linear_1017_1200" x1="130" y1="65" x2="-61.9116" y2="22.9709" gradientUnits="userSpaceOnUse">
<stop stop-color="#C58BF2"/>
<stop offset="1" stop-color="#EEA4CE"/>
</linearGradient>
<linearGradient id="paint2_linear_1017_1200" x1="130" y1="61" x2="-61.9116" y2="18.9709" gradientUnits="userSpaceOnUse">
<stop stop-color="#C58BF2"/>
<stop offset="1" stop-color="#EEA4CE"/>
</linearGradient>
<linearGradient id="paint3_linear_1017_1200" x1="130" y1="57" x2="-61.9116" y2="14.9709" gradientUnits="userSpaceOnUse">
<stop stop-color="#C58BF2"/>
<stop offset="1" stop-color="#EEA4CE"/>
</linearGradient>
<linearGradient id="paint4_linear_1017_1200" x1="139" y1="19" x2="-44.7222" y2="57.358" gradientUnits="userSpaceOnUse">
<stop stop-color="#92A3FD"/>
<stop offset="1" stop-color="#9DCEFF"/>
</linearGradient>
<linearGradient id="paint5_linear_1017_1200" x1="139" y1="7" x2="-44.7222" y2="45.358" gradientUnits="userSpaceOnUse">
<stop stop-color="#92A3FD"/>
<stop offset="1" stop-color="#9DCEFF"/>
</linearGradient>
<linearGradient id="paint6_linear_1017_1200" x1="139" y1="11" x2="-44.7222" y2="49.358" gradientUnits="userSpaceOnUse">
<stop stop-color="#92A3FD"/>
<stop offset="1" stop-color="#9DCEFF"/>
</linearGradient>
<linearGradient id="paint7_linear_1017_1200" x1="139" y1="15" x2="-44.7222" y2="53.358" gradientUnits="userSpaceOnUse">
<stop stop-color="#92A3FD"/>
<stop offset="1" stop-color="#9DCEFF"/>
</linearGradient>
</defs>
<mask id="mask0_1017_1200" style="mask-type:alpha" maskUnits="userSpaceOnUse" x="0" y="0" width="110" height="78">
<rect width="110" height="78" rx="12" fill="#C4C4C4"/>
</mask>
<g mask="url(#mask0_1017_1200)">
<path opacity="0.3" d="M-20 53C-14.7136 38.0273 -1.72942 28.8396 18.8636 25.5C42.1306 21.7267 52.9378 50.5736 74.7273 43.5C90.741 38.3015 86.9652 25.1032 99.3182 16C109.689 8.35741 116.751 4.67468 130 0" stroke="url(#paint0_linear_1017_1200)"/>
<path opacity="0.3" d="M-20 65C-14.7136 50.0273 -1.72942 40.8396 18.8636 37.5C42.1306 33.7267 52.9377 62.5736 74.7273 55.5C90.741 50.3015 86.9652 37.1032 99.3182 28C109.689 20.3574 116.751 16.6747 130 12" stroke="url(#paint1_linear_1017_1200)"/>
<path opacity="0.3" d="M-20 61C-14.7136 46.0273 -1.72942 36.8396 18.8636 33.5C42.1306 29.7267 52.9378 58.5736 74.7273 51.5C90.741 46.3015 86.9652 33.1032 99.3182 24C109.689 16.3574 116.751 12.6747 130 8" stroke="url(#paint2_linear_1017_1200)"/>
<path opacity="0.3" d="M-20 57C-14.7136 42.0273 -1.72942 32.8396 18.8636 29.5C42.1306 25.7267 52.9378 54.5736 74.7273 47.5C90.741 42.3015 86.9652 29.1032 99.3182 20C109.689 12.3574 116.751 8.67468 130 4" stroke="url(#paint3_linear_1017_1200)"/>
<path opacity="0.8" d="M-4 19C1.03967 33.9727 13.418 43.1604 33.05 46.5C55.2312 50.2733 65.534 21.4264 86.3067 28.5C101.573 33.6985 97.9735 46.8968 109.75 56C119.637 63.6426 126.369 67.3253 139 72" stroke="url(#paint4_linear_1017_1200)" stroke-width="1.2"/>
<path opacity="0.8" d="M-4 7C1.03967 21.9727 13.418 31.1604 33.05 34.5C55.2312 38.2733 65.534 9.4264 86.3067 16.5C101.573 21.6985 97.9735 34.8968 109.75 44C119.637 51.6426 126.369 55.3253 139 60" stroke="url(#paint5_linear_1017_1200)" stroke-width="1.2"/>
<path opacity="0.8" d="M-4 11C1.03967 25.9727 13.418 35.1604 33.05 38.5C55.2312 42.2733 65.534 13.4264 86.3067 20.5C101.573 25.6985 97.9735 38.8968 109.75 48C119.637 55.6426 126.369 59.3253 139 64" stroke="url(#paint6_linear_1017_1200)" stroke-width="1.2"/>
<path opacity="0.8" d="M-4 15C1.03967 29.9727 13.418 39.1604 33.05 42.5C55.2312 46.2733 65.534 17.4264 86.3067 24.5C101.573 29.6985 97.9735 42.8968 109.75 52C119.637 59.6426 126.369 63.3253 139 68" stroke="url(#paint7_linear_1017_1200)" stroke-width="1.2"/>
</g>

</svg>
