<svg width="39" height="39" viewBox="0 0 39 39" fill="none" xmlns="http://www.w3.org/2000/svg">
<path d="M5.77718 14.7419C14.4383 12.6487 23.5049 12.9157 32.0269 15.5151C33.038 15.8278 34.206 16.3186 34.4414 17.348C34.5079 17.7658 34.4506 18.1939 34.2764 18.5798C34.1022 18.9656 33.8187 19.2923 33.4608 19.5197C32.7385 19.9647 31.9336 20.2601 31.0942 20.3884C25.9733 21.5351 20.7913 22.6861 15.5614 22.5123C12.8838 22.4472 10.2345 21.9499 7.7166 21.0399C6.60089 20.6273 0.895942 18.221 1.80682 16.6965C2.4867 15.5107 4.56559 15.0373 5.77718 14.7419Z" fill="#D88121"/>
<path d="M36.0452 1.33787C36.2729 0.945204 36.5679 0.595336 36.9168 0.304133C37.0986 0.16088 37.3137 0.0655091 37.5422 0.0267991C37.7706 -0.0119109 38.0052 0.00728442 38.2243 0.0826179C38.4532 0.195462 38.6465 0.369162 38.7826 0.58454C38.9187 0.799919 38.9925 1.0486 38.9957 1.30312C38.9864 1.81028 38.8721 2.31005 38.6601 2.7712C37.3227 6.28832 35.2418 9.47759 32.5586 12.1226C31.822 12.848 30.1703 14.7287 30.2051 12.5961C30.2356 10.8587 31.5126 9.01272 32.3015 7.50989C33.4318 5.38399 34.6817 3.32337 36.0452 1.33787Z" fill="#AED5C2"/>
<path d="M25.4199 13.0738C25.849 12.0678 26.5978 11.2301 27.551 10.6893C28.2617 10.3662 29.0537 10.2643 29.8234 10.3968C30.5932 10.5293 31.3049 10.8901 31.8657 11.432C32.409 11.9915 32.806 12.6755 33.0218 13.4238C33.2377 14.172 33.2657 14.9617 33.1034 15.7233C32.7521 17.2528 31.8256 18.5897 30.5146 19.4587C29.3074 20.2883 25.7511 21.9952 24.9317 19.9451C24.1124 17.895 24.4654 15.0371 25.4199 13.0738Z" fill="#AED5C2"/>
<path d="M26.3263 13.7471C26.6428 13.0128 27.1925 12.4024 27.8909 12.0097C28.4128 11.7719 28.9947 11.6969 29.5601 11.7946C30.1256 11.8923 30.6482 12.158 31.0594 12.557C31.4594 12.9667 31.7518 13.4684 31.9107 14.0177C32.0696 14.567 32.09 15.1469 31.9702 15.7059C31.7136 16.8312 31.0334 17.8153 30.07 18.4553C29.1984 19.0634 26.5834 20.3143 25.9689 18.8115C25.3544 17.3087 25.6246 15.2021 26.3263 13.7471Z" fill="#8CB5A0"/>
<path d="M6.18239 13.4256C7.45064 11.5883 8.83221 9.65549 10.9024 8.80852C12.6457 8.10488 14.5764 8.26124 16.3938 8.64781C19.7486 9.38322 22.9034 10.835 25.6407 12.9032C28.378 14.9713 30.6326 17.6065 32.2491 20.627C27.816 23.8735 22.4097 25.5271 16.9124 25.3179C13.146 25.1486 9.47082 24.1077 6.17804 22.2775C5.06668 21.6607 2.12051 20.2665 2.35585 18.9635C2.4866 18.173 3.75049 16.9394 4.2299 16.2705L6.18239 13.4256Z" fill="white"/>
<path d="M18.0108 20.7576C23.3324 20.7211 28.5694 19.426 33.2908 16.9788C33.4927 16.8741 33.7195 16.8266 33.9466 16.8417C34.1737 16.8567 34.3923 16.9337 34.5785 17.0641C34.7646 17.1945 34.9113 17.3735 35.0024 17.5813C35.0935 17.7891 35.1256 18.0179 35.0951 18.2427L33.3518 31.0341C33.099 32.8975 32.7547 34.9432 31.3426 36.1768C30.0787 37.2887 28.2919 37.4798 26.5965 37.6275C21.5642 38.0242 16.5304 38.2862 11.4952 38.4136C9.15043 38.4744 6.59214 38.4136 4.77039 36.9586C3.18399 35.6555 2.5259 33.5881 2.06828 31.5988C1.06486 27.2473 0.644265 22.7825 0.817464 18.3209C0.935137 15.3934 2.96608 17.3349 4.76604 18.095C6.71953 18.9192 8.74627 19.5591 10.8196 20.0061C13.1821 20.5164 15.5934 20.7683 18.0108 20.7576Z" fill="#F7A32D"/>
<path d="M1.01367 25.105C1.17929 26.8424 1.4495 28.5276 1.77201 30.2129C12.3031 32.7887 23.3512 32.3369 33.6352 28.9099L34.3543 23.6543C23.6926 27.7283 11.991 28.2375 1.01367 25.105Z" fill="#FFB966"/>
<path d="M8.11323 30.4041C7.96388 30.4058 7.8157 30.3777 7.6774 30.3215C7.49007 30.2524 7.32776 30.129 7.21127 29.9673C7.09479 29.8055 7.02946 29.6128 7.02367 29.4138C7.02799 29.2932 7.05825 29.175 7.11239 29.0671C7.16652 28.9592 7.24328 28.8641 7.33746 28.7883C7.42025 28.7187 7.51767 28.6685 7.62252 28.6415C7.72737 28.6144 7.83697 28.6111 7.94326 28.6319C7.99071 28.6365 8.03667 28.6509 8.07817 28.6743C8.11966 28.6977 8.15576 28.7295 8.18411 28.7677C8.21247 28.8058 8.23245 28.8496 8.24275 28.8959C8.25306 28.9423 8.25346 28.9903 8.24394 29.0369C8.23441 29.0834 8.21517 29.1275 8.18746 29.1661C8.15975 29.2048 8.1242 29.2372 8.0831 29.2613C8.042 29.2853 7.99629 29.3005 7.94892 29.3058C7.90155 29.3112 7.85359 29.3065 7.80815 29.2921C7.79383 29.2886 7.77888 29.2886 7.76457 29.2921C7.74748 29.3051 7.73325 29.3214 7.72275 29.3401C7.71226 29.3588 7.70572 29.3794 7.70355 29.4007C7.71361 29.4623 7.7399 29.52 7.77972 29.5681C7.81954 29.6162 7.87147 29.6529 7.93018 29.6744C8.00139 29.6984 8.07675 29.7077 8.15168 29.7017C8.22661 29.6957 8.29954 29.6746 8.36601 29.6396C8.45409 29.5967 8.53217 29.5359 8.59523 29.4611C8.65828 29.3863 8.70491 29.2991 8.7321 29.2053C8.77149 29.0143 8.75077 28.8159 8.67277 28.6371C8.59477 28.4583 8.46328 28.3078 8.29627 28.2063C8.0713 28.0786 7.81087 28.0269 7.55397 28.059C7.29707 28.0911 7.0575 28.2053 6.87113 28.3844C6.75752 28.5102 6.65678 28.6469 6.57041 28.7926C6.495 28.9139 6.41355 29.0313 6.32635 29.1445C5.97553 29.6015 5.45944 29.9039 4.88812 29.9871C4.59388 30.0288 4.29388 29.9988 4.0138 29.8997C3.73372 29.8006 3.48191 29.6354 3.27993 29.4181C3.06992 29.1863 2.93246 28.8983 2.88446 28.5896C2.83645 28.281 2.87999 27.9651 3.00972 27.6807C3.14835 27.3926 3.38015 27.1593 3.66787 27.0183C3.95559 26.8773 4.28251 26.8368 4.59612 26.9033C4.77383 26.9442 4.93906 27.0271 5.07787 27.145C5.21667 27.263 5.32499 27.4124 5.39368 27.5808C5.46741 27.7722 5.47394 27.9829 5.41222 28.1785C5.35049 28.3741 5.22414 28.5431 5.05374 28.658C4.95244 28.7185 4.83903 28.7561 4.72155 28.7681C4.60406 28.7801 4.48537 28.7662 4.37385 28.7275C4.27001 28.6935 4.17508 28.6368 4.09593 28.5617C4.01678 28.4866 3.95539 28.3949 3.91624 28.2932C3.89728 28.2508 3.88725 28.2051 3.88675 28.1587C3.88626 28.1124 3.89532 28.0664 3.91336 28.0237C3.93141 27.9809 3.95806 27.9424 3.99167 27.9103C4.02528 27.8783 4.06513 27.8534 4.10875 27.8374C4.15238 27.8213 4.19885 27.8143 4.2453 27.8168C4.29174 27.8194 4.33717 27.8314 4.37877 27.8521C4.42037 27.8729 4.45725 27.9019 4.48714 27.9374C4.51703 27.9729 4.53929 28.0142 4.55254 28.0586C4.56296 28.0707 4.57654 28.0797 4.59176 28.0847C4.60759 28.0915 4.62464 28.095 4.64188 28.095C4.65912 28.095 4.67618 28.0915 4.692 28.0847C4.72982 28.0532 4.75656 28.0105 4.76832 27.9629C4.78008 27.9152 4.77625 27.8651 4.75738 27.8197C4.72922 27.7524 4.68452 27.6933 4.62739 27.6477C4.57027 27.6022 4.50256 27.5717 4.43051 27.5591C4.26922 27.5301 4.10285 27.5543 3.95658 27.628C3.81031 27.7016 3.69211 27.8208 3.61987 27.9674C3.54061 28.1371 3.51484 28.3267 3.54596 28.5112C3.57709 28.6958 3.66364 28.8666 3.7942 29.0011C3.92346 29.1357 4.08291 29.2377 4.25945 29.2989C4.43598 29.36 4.62455 29.3786 4.80968 29.353C5.20525 29.292 5.56156 29.0802 5.80336 28.7622C5.87309 28.671 5.93846 28.5668 6.00819 28.4625C6.11858 28.2794 6.24706 28.1077 6.39172 27.95C6.68538 27.659 7.06768 27.4733 7.47864 27.4222C7.88961 27.3712 8.30596 27.4575 8.66237 27.6677C8.95208 27.8443 9.17921 28.1066 9.31204 28.4181C9.44487 28.7296 9.47677 29.0746 9.40327 29.4051C9.34907 29.5872 9.25704 29.756 9.13315 29.9004C9.00926 30.0448 8.85629 30.1617 8.68416 30.2434C8.50872 30.3398 8.31338 30.3948 8.11323 30.4041Z" fill="#D88121"/>
<path d="M12.9465 30.956C12.7627 30.9567 12.5795 30.9333 12.4017 30.8865C12.1652 30.8261 11.9437 30.7178 11.751 30.5683C11.5583 30.4189 11.3985 30.2315 11.2817 30.0178C11.1567 29.785 11.1037 29.5205 11.1293 29.2577C11.1549 28.9949 11.258 28.7456 11.4255 28.541C11.6149 28.3313 11.8767 28.2004 12.1587 28.1746C12.4407 28.1489 12.722 28.2301 12.9465 28.402C13.064 28.5063 13.1544 28.6375 13.2098 28.7843C13.2652 28.931 13.284 29.089 13.2647 29.2447C13.2571 29.3896 13.2133 29.5303 13.1372 29.6539C13.061 29.7776 12.955 29.8803 12.8288 29.9526C12.7132 30.0138 12.5848 30.0472 12.4539 30.0503C12.323 30.0533 12.1932 30.0258 12.0749 29.97C12.2184 30.0943 12.3883 30.1849 12.5717 30.235C12.895 30.3069 13.2328 30.2736 13.5357 30.1399C13.8385 30.0062 14.0903 29.7792 14.254 29.4922C14.3202 29.3508 14.3784 29.2058 14.4283 29.0579C14.5267 28.7187 14.7045 28.4076 14.947 28.1501C15.1251 27.9874 15.3411 27.8716 15.5756 27.8132C15.81 27.7548 16.0553 27.7556 16.2893 27.8157C16.7313 27.9328 17.1145 28.208 17.3658 28.5888C17.4902 28.7617 17.5793 28.9573 17.6279 29.1645C17.6765 29.3716 17.6837 29.5863 17.6491 29.7963C17.6076 30.0301 17.4971 30.2463 17.3318 30.4173C17.1664 30.5883 16.9537 30.7063 16.7208 30.7562C16.5856 30.7783 16.4473 30.7724 16.3146 30.7388C16.1818 30.7052 16.0575 30.6445 15.9493 30.5607C15.7607 30.417 15.6369 30.2046 15.605 29.97C15.5932 29.8228 15.6204 29.6752 15.6839 29.5418C15.7474 29.4084 15.845 29.2939 15.9668 29.2099C16.0749 29.1268 16.2029 29.0731 16.3381 29.0541C16.4733 29.0351 16.6112 29.0513 16.7382 29.1013C16.8171 29.1394 16.8782 29.2064 16.9087 29.2884C16.9392 29.3703 16.9367 29.4608 16.9019 29.541C16.867 29.6212 16.8024 29.6848 16.7215 29.7186C16.6407 29.7524 16.5498 29.7538 16.468 29.7224C16.4494 29.7191 16.4302 29.7201 16.4121 29.7254C16.3939 29.7306 16.3773 29.74 16.3634 29.7528C16.3395 29.7688 16.3196 29.79 16.3052 29.8149C16.2908 29.8397 16.2824 29.8676 16.2806 29.8962C16.2848 29.9269 16.2955 29.9563 16.312 29.9825C16.3286 30.0087 16.3505 30.0311 16.3765 30.0482C16.4104 30.0754 16.4495 30.0956 16.4914 30.1075C16.5334 30.1195 16.5772 30.1229 16.6205 30.1177C16.7195 30.0904 16.8083 30.0347 16.8757 29.9574C16.9432 29.8802 16.9863 29.7849 16.9997 29.6833C17.0353 29.4345 16.9711 29.1817 16.821 28.9797C16.6665 28.7376 16.4273 28.5612 16.1498 28.4846C16.0242 28.4535 15.8927 28.4538 15.7673 28.4857C15.6418 28.5175 15.5262 28.5798 15.4307 28.667C15.269 28.8568 15.1501 29.0789 15.0821 29.3185C15.0243 29.4883 14.9544 29.6538 14.8729 29.8137C14.6804 30.1556 14.4011 30.4411 14.063 30.6416C13.7249 30.8421 13.3399 30.9505 12.9465 30.956ZM12.1228 28.8711C12.1688 28.9105 12.2033 28.9616 12.2224 29.019C12.2416 29.0764 12.2448 29.1378 12.2318 29.1969C12.2318 29.236 12.2623 29.2881 12.3059 29.3185C12.3316 29.3427 12.3634 29.3595 12.3979 29.3671C12.4324 29.3748 12.4684 29.373 12.502 29.3619C12.5314 29.341 12.5557 29.3138 12.5731 29.2822C12.5904 29.2506 12.6004 29.2155 12.6022 29.1795C12.6082 29.1323 12.6035 29.0844 12.5884 29.0393C12.5733 28.9942 12.5483 28.9531 12.5151 28.9189C12.4566 28.8747 12.3874 28.847 12.3146 28.8386C12.2418 28.8302 12.168 28.8414 12.101 28.8711H12.1228Z" fill="#D88121"/>
<path d="M20.1507 30.6256C19.9125 30.6297 19.6767 30.5784 19.4619 30.4759C19.247 30.3733 19.0591 30.2224 18.913 30.0349C18.738 29.7977 18.6488 29.5084 18.6599 29.2142C18.6709 28.92 18.7817 28.6383 18.974 28.4148C19.0244 28.3567 19.0939 28.3182 19.1701 28.3062C19.3803 28.2734 19.5954 28.2923 19.7967 28.3612C19.998 28.4301 20.1793 28.5469 20.325 28.7015C20.3594 28.7329 20.3869 28.771 20.4058 28.8135C20.4247 28.856 20.4346 28.9019 20.435 28.9484C20.4354 28.9949 20.4261 29.0409 20.4078 29.0837C20.3896 29.1264 20.3627 29.165 20.3288 29.197C20.2949 29.2289 20.2548 29.2536 20.211 29.2694C20.1672 29.2853 20.1205 29.292 20.074 29.2891C20.0274 29.2862 19.982 29.2738 19.9404 29.2527C19.8989 29.2315 19.8622 29.2021 19.8325 29.1662C19.718 29.0475 19.5619 28.9774 19.3967 28.9707C19.3499 29.0783 19.3332 29.1966 19.3486 29.3129C19.3639 29.4292 19.4107 29.5391 19.4839 29.631C19.5814 29.7505 19.7091 29.8421 19.8538 29.8963C19.9986 29.9505 20.1552 29.9654 20.3076 29.9393C20.6474 29.8726 20.9468 29.6742 21.14 29.3877C21.2613 29.2023 21.3649 29.006 21.4495 28.8014C21.5105 28.6624 21.5802 28.519 21.6543 28.367C21.7573 28.1445 21.9071 27.9468 22.0936 27.7871C22.2801 27.6275 22.4989 27.5097 22.7351 27.4419C22.9402 27.4054 23.1506 27.4116 23.3532 27.4602C23.5557 27.5088 23.7459 27.5987 23.9119 27.7242C24.1949 27.9455 24.4368 28.2145 24.6266 28.519C24.7617 28.7145 25.167 29.3139 24.9143 29.8829C24.8063 30.0885 24.6432 30.2603 24.4432 30.3792C24.2432 30.498 24.014 30.5593 23.7811 30.5561C23.3948 30.597 23.0066 30.4984 22.6872 30.2781C22.5024 30.1506 22.3632 29.9679 22.2895 29.7563C22.2159 29.5447 22.2117 29.3152 22.2775 29.1011C22.3298 28.9762 22.4106 28.8652 22.5135 28.777C22.6164 28.6888 22.7386 28.6257 22.8702 28.5929C22.9868 28.5595 23.1097 28.5543 23.2287 28.5777C23.3477 28.6011 23.4594 28.6525 23.5545 28.7275C23.6238 28.7851 23.6674 28.8678 23.6756 28.9574C23.6837 29.047 23.6559 29.1362 23.5981 29.2053C23.5403 29.2744 23.4573 29.3178 23.3674 29.326C23.2775 29.3341 23.188 29.3063 23.1187 29.2487C23.1057 29.2428 23.0915 29.2398 23.0773 29.2398C23.063 29.2398 23.0489 29.2428 23.0359 29.2487C23.0081 29.2564 22.9823 29.2696 22.9598 29.2875C22.9373 29.3055 22.9187 29.3277 22.9051 29.353C22.8893 29.4291 22.8966 29.5082 22.9261 29.5801C22.9556 29.6521 23.006 29.7136 23.0707 29.7569C23.2598 29.8765 23.4851 29.9257 23.707 29.8959C23.9206 29.8959 24.1908 29.8047 24.2692 29.631C24.3477 29.4572 24.2692 29.2444 24.0383 28.9186C23.8931 28.6786 23.7056 28.4667 23.4848 28.2932C23.3971 28.2224 23.2957 28.1705 23.187 28.1406C23.0782 28.1107 22.9645 28.1035 22.8528 28.1194C22.7137 28.1708 22.5864 28.2495 22.4786 28.351C22.3708 28.4525 22.2846 28.5747 22.2252 28.7101C22.1599 28.8318 22.1032 28.9577 22.0378 29.0924C21.9359 29.3348 21.8119 29.5674 21.6674 29.7873C21.5195 30.0032 21.33 30.1876 21.1101 30.33C20.8902 30.4724 20.6441 30.57 20.386 30.6169C20.3078 30.624 20.2292 30.6269 20.1507 30.6256Z" fill="#D88121"/>
<path d="M28.1612 29.8392C28.0035 29.8392 27.8465 29.8173 27.6949 29.7741C27.3243 29.6625 27.0015 29.4313 26.7774 29.1167C26.5533 28.8021 26.4406 28.4222 26.4572 28.0367C26.461 27.7557 26.5697 27.4863 26.7622 27.2809C26.8859 27.1541 27.0496 27.0736 27.2259 27.053C27.4021 27.0325 27.5801 27.0731 27.7298 27.168C27.8078 27.225 27.8735 27.297 27.9229 27.3799C27.9723 27.4627 28.0045 27.5546 28.0174 27.6501C28.0325 27.7822 28.021 27.9158 27.9835 28.0434C27.9461 28.1709 27.8836 28.2897 27.7995 28.3929C27.7417 28.4617 27.6592 28.5053 27.5696 28.5142C27.48 28.5232 27.3904 28.4968 27.3201 28.4406C27.2513 28.3838 27.2077 28.3023 27.1987 28.2137C27.1897 28.1251 27.2161 28.0366 27.2722 27.9672C27.3004 27.934 27.3208 27.8949 27.3321 27.8529C27.3434 27.8108 27.3453 27.7668 27.3375 27.724C27.319 27.7235 27.3007 27.7268 27.2835 27.7335C27.2663 27.7402 27.2506 27.7503 27.2373 27.7631C27.1691 27.8496 27.1337 27.9572 27.137 28.0671C27.1169 28.3019 27.1778 28.5366 27.3098 28.7322C27.4417 28.9278 27.6368 29.0726 27.8627 29.1425C28.0885 29.2125 28.3315 29.2034 28.5515 29.1168C28.7715 29.0303 28.9552 28.8714 29.0721 28.6665C29.1843 28.4285 29.2607 28.1753 29.2987 27.9151C29.348 27.5235 29.4851 27.1479 29.6997 26.8162C29.8799 26.5718 30.1296 26.3871 30.4165 26.2861C30.7034 26.185 31.0142 26.1723 31.3084 26.2496C31.6027 26.3269 31.8668 26.4906 32.0664 26.7195C32.2661 26.9483 32.392 27.2317 32.428 27.5329C32.4632 27.7939 32.4164 28.0595 32.2938 28.2929C32.1713 28.5262 31.9791 28.716 31.7437 28.8359C31.5988 28.8972 31.4416 28.9245 31.2843 28.9154C31.1271 28.9064 30.9741 28.8613 30.8372 28.7838C30.7146 28.7168 30.6094 28.6223 30.53 28.5077C30.4505 28.393 30.399 28.2615 30.3796 28.1236C30.3738 28.0383 30.4006 27.954 30.4546 27.8876C30.5086 27.8212 30.5858 27.7776 30.6707 27.7655C30.7556 27.7534 30.8419 27.7737 30.9124 27.8224C30.9829 27.8711 31.0323 27.9445 31.0508 28.028C31.0592 28.0605 31.0745 28.0908 31.0955 28.117C31.1165 28.1432 31.1429 28.1647 31.1728 28.18C31.219 28.2053 31.27 28.2206 31.3226 28.2251C31.3751 28.2296 31.428 28.2231 31.4779 28.2061C31.5816 28.1431 31.6643 28.0509 31.7155 27.9412C31.7667 27.8314 31.7841 27.709 31.7655 27.5893C31.7462 27.4225 31.6769 27.2654 31.5665 27.1385C31.4562 27.0116 31.31 26.9209 31.147 26.8782C30.9841 26.8355 30.812 26.8428 30.6533 26.8991C30.4946 26.9555 30.3567 27.0583 30.2575 27.1941C30.1038 27.4469 30.0072 27.7299 29.9743 28.0237C29.9239 28.3563 29.821 28.6788 29.6692 28.9792C29.5152 29.2415 29.295 29.4589 29.0304 29.6098C28.7658 29.7607 28.4661 29.8398 28.1612 29.8392Z" fill="#D88121"/>
<path d="M3.35824 22.6904C3.21711 22.7028 3.08576 22.7674 2.99007 22.8715C2.89438 22.9756 2.84131 23.1117 2.84131 23.2529C2.84131 23.3941 2.89438 23.5302 2.99007 23.6343C3.08576 23.7384 3.21711 23.803 3.35824 23.8154C3.49936 23.803 3.63072 23.7384 3.7264 23.6343C3.82209 23.5302 3.87517 23.3941 3.87517 23.2529C3.87517 23.1117 3.82209 22.9756 3.7264 22.8715C3.63072 22.7674 3.49936 22.7028 3.35824 22.6904Z" fill="#E8E8E8"/>
<path d="M9.04574 21.248C8.90461 21.2604 8.77326 21.325 8.67757 21.4291C8.58188 21.5333 8.52881 21.6693 8.52881 21.8105C8.52881 21.9517 8.58188 22.0878 8.67757 22.1919C8.77326 22.296 8.90461 22.3606 9.04574 22.373C9.18686 22.3606 9.31822 22.296 9.4139 22.1919C9.50959 22.0878 9.56266 21.9517 9.56266 21.8105C9.56266 21.6693 9.50959 21.5333 9.4139 21.4291C9.31822 21.325 9.18686 21.2604 9.04574 21.248Z" fill="#E8E8E8"/>
<path d="M10.9242 23.8281C10.783 23.8405 10.6517 23.9051 10.556 24.0092C10.4603 24.1133 10.4072 24.2494 10.4072 24.3906C10.4072 24.5318 10.4603 24.6679 10.556 24.772C10.6517 24.8761 10.783 24.9407 10.9242 24.9531C11.0653 24.9407 11.1966 24.8761 11.2923 24.772C11.388 24.6679 11.4411 24.5318 11.4411 24.3906C11.4411 24.2494 11.388 24.1133 11.2923 24.0092C11.1966 23.9051 11.0653 23.8405 10.9242 23.8281Z" fill="#E8E8E8"/>
<path d="M18.6121 24.5708C18.471 24.5832 18.3397 24.6478 18.244 24.7519C18.1483 24.856 18.0952 24.9921 18.0952 25.1333C18.0952 25.2745 18.1483 25.4105 18.244 25.5146C18.3397 25.6188 18.471 25.6834 18.6121 25.6957C18.7533 25.6834 18.8846 25.6188 18.9803 25.5146C19.076 25.4105 19.1291 25.2745 19.1291 25.1333C19.1291 24.9921 19.076 24.856 18.9803 24.7519C18.8846 24.6478 18.7533 24.5832 18.6121 24.5708Z" fill="#E8E8E8"/>
<path d="M24.1429 21.9478C24.0018 21.9601 23.8704 22.0247 23.7747 22.1289C23.6791 22.233 23.626 22.369 23.626 22.5102C23.626 22.6514 23.6791 22.7875 23.7747 22.8916C23.8704 22.9957 24.0018 23.0603 24.1429 23.0727C24.284 23.0603 24.4154 22.9957 24.5111 22.8916C24.6068 22.7875 24.6598 22.6514 24.6598 22.5102C24.6598 22.369 24.6068 22.233 24.5111 22.1289C24.4154 22.0247 24.284 21.9601 24.1429 21.9478Z" fill="#E8E8E8"/>
<path d="M6.51359 32.5278C6.36333 32.5278 6.21922 32.5873 6.11297 32.6932C6.00671 32.7991 5.94702 32.9427 5.94702 33.0925C5.94702 33.2422 6.00671 33.3858 6.11297 33.4917C6.21922 33.5976 6.36333 33.6571 6.51359 33.6571C6.66386 33.6571 6.80797 33.5976 6.91422 33.4917C7.02047 33.3858 7.08017 33.2422 7.08017 33.0925C7.08017 32.9427 7.02047 32.7991 6.91422 32.6932C6.80797 32.5873 6.66386 32.5278 6.51359 32.5278Z" fill="#E8E8E8"/>
<path d="M8.5577 34.0396C8.41657 34.0519 8.28522 34.1165 8.18953 34.2207C8.09385 34.3248 8.04077 34.4608 8.04077 34.602C8.04077 34.7432 8.09385 34.8793 8.18953 34.9834C8.28522 35.0875 8.41657 35.1521 8.5577 35.1645C8.69883 35.1521 8.83018 35.0875 8.92587 34.9834C9.02155 34.8793 9.07463 34.7432 9.07463 34.602C9.07463 34.4608 9.02155 34.3248 8.92587 34.2207C8.83018 34.1165 8.69883 34.0519 8.5577 34.0396Z" fill="#E8E8E8"/>
<path d="M14.1449 32.9321C13.9947 32.9321 13.8506 32.9916 13.7443 33.0975C13.6381 33.2034 13.5784 33.347 13.5784 33.4968C13.5784 33.6465 13.6381 33.7901 13.7443 33.896C13.8506 34.0019 13.9947 34.0614 14.1449 34.0614C14.2952 34.0614 14.4393 34.0019 14.5456 33.896C14.6518 33.7901 14.7115 33.6465 14.7115 33.4968C14.7115 33.347 14.6518 33.2034 14.5456 33.0975C14.4393 32.9916 14.2952 32.9321 14.1449 32.9321Z" fill="#E8E8E8"/>
<path d="M20.3773 35.4902C20.2362 35.5026 20.1048 35.5672 20.0091 35.6713C19.9134 35.7755 19.8604 35.9115 19.8604 36.0527C19.8604 36.1939 19.9134 36.33 20.0091 36.4341C20.1048 36.5382 20.2362 36.6028 20.3773 36.6152C20.5184 36.6028 20.6498 36.5382 20.7454 36.4341C20.8411 36.33 20.8942 36.1939 20.8942 36.0527C20.8942 35.9115 20.8411 35.7755 20.7454 35.6713C20.6498 35.5672 20.5184 35.5026 20.3773 35.4902Z" fill="#E8E8E8"/>
<path d="M25.5853 32.9795C25.4442 32.9919 25.3128 33.0565 25.2171 33.1606C25.1214 33.2647 25.0684 33.4008 25.0684 33.542C25.0684 33.6832 25.1214 33.8192 25.2171 33.9233C25.3128 34.0275 25.4442 34.0921 25.5853 34.1044C25.7264 34.0921 25.8578 34.0275 25.9535 33.9233C26.0491 33.8192 26.1022 33.6832 26.1022 33.542C26.1022 33.4008 26.0491 33.2647 25.9535 33.1606C25.8578 33.0565 25.7264 32.9919 25.5853 32.9795Z" fill="#E8E8E8"/>
<path d="M29.5819 34.0264C29.4407 34.0387 29.3094 34.1034 29.2137 34.2075C29.118 34.3116 29.0649 34.4477 29.0649 34.5888C29.0649 34.73 29.118 34.8661 29.2137 34.9702C29.3094 35.0743 29.4407 35.139 29.5819 35.1513C29.723 35.139 29.8543 35.0743 29.95 34.9702C30.0457 34.8661 30.0988 34.73 30.0988 34.5888C30.0988 34.4477 30.0457 34.3116 29.95 34.2075C29.8543 34.1034 29.723 34.0387 29.5819 34.0264Z" fill="#E8E8E8"/>
<path d="M31.2511 21.6782C31.1099 21.6906 30.9786 21.7552 30.8829 21.8593C30.7872 21.9634 30.7341 22.0995 30.7341 22.2407C30.7341 22.3819 30.7872 22.518 30.8829 22.6221C30.9786 22.7262 31.1099 22.7908 31.2511 22.8032C31.3922 22.7908 31.5235 22.7262 31.6192 22.6221C31.7149 22.518 31.768 22.3819 31.768 22.2407C31.768 22.0995 31.7149 21.9634 31.6192 21.8593C31.5235 21.7552 31.3922 21.6906 31.2511 21.6782Z" fill="#E8E8E8"/>
<path d="M27.991 23.0203C27.8606 22.9475 27.7068 22.9286 27.5626 22.9676C27.4184 23.0066 27.2952 23.1003 27.2196 23.2288C27.1981 23.2651 27.1792 23.3028 27.163 23.3417C27.1189 23.4059 27.0887 23.4784 27.0743 23.5548C27.06 23.6312 27.0617 23.7097 27.0794 23.7854C27.0971 23.8611 27.1304 23.9323 27.1772 23.9945C27.224 24.0567 27.2833 24.1084 27.3513 24.1465C27.4192 24.1846 27.4944 24.2082 27.572 24.2158C27.6497 24.2234 27.728 24.2148 27.8021 24.1906C27.8762 24.1664 27.9445 24.1271 28.0025 24.0751C28.0605 24.0232 28.1071 23.9598 28.1392 23.889C28.1392 23.8499 28.1784 23.8152 28.1959 23.7761C28.2642 23.6477 28.281 23.4982 28.243 23.3579C28.205 23.2176 28.1149 23.097 27.991 23.0203Z" fill="#E8E8E8"/>
<path d="M32.6066 19.1895C32.4563 19.1895 32.3122 19.2489 32.206 19.3548C32.0997 19.4607 32.04 19.6043 32.04 19.7541C32.04 19.9039 32.0997 20.0475 32.206 20.1534C32.3122 20.2593 32.4563 20.3187 32.6066 20.3187C32.7569 20.3187 32.901 20.2593 33.0072 20.1534C33.1135 20.0475 33.1732 19.9039 33.1732 19.7541C33.1732 19.6043 33.1135 19.4607 33.0072 19.3548C32.901 19.2489 32.7569 19.1895 32.6066 19.1895Z" fill="#E8E8E8"/>
<g style="mix-blend-mode:multiply">
<path d="M26.5835 37.6227C28.2614 37.4881 30.0701 37.2839 31.3297 36.172C32.7417 34.9254 33.073 32.8927 33.3388 31.0294L35.0821 18.2379C35.1117 18.0135 35.0789 17.7853 34.9875 17.5781C34.896 17.3709 34.7492 17.1927 34.5632 17.0629C34.3772 16.933 34.159 16.8565 33.9324 16.8416C33.7057 16.8267 33.4793 16.874 33.2778 16.9783C32.5979 17.3345 31.9049 17.6603 31.1989 17.9643C31.2033 18.012 31.2033 18.06 31.1989 18.1076C31.1405 19.1581 30.9829 20.2008 30.7282 21.2219C30.1225 23.6265 29.0294 25.8822 27.5162 27.85C24.4306 31.8633 19.8457 34.5736 14.9732 35.9939C11.8511 36.8718 8.62847 37.3448 5.38501 37.4012C7.12831 38.4349 9.38588 38.4653 11.4866 38.4132C16.5276 38.2858 21.5599 38.0223 26.5835 37.6227Z" fill="#E8E8E8"/>
</g>
</svg>
