<svg width="28" height="18" viewBox="0 0 28 18" fill="none" xmlns="http://www.w3.org/2000/svg">
<defs>
<clipPath id="clip0_825_2776">
<rect width="27" height="18" fill="white" transform="translate(0.5)"/>
</clipPath>
</defs>
<g clip-path="url(#clip0_825_2776)">
<path fill-rule="evenodd" clip-rule="evenodd" d="M27.5 13.3905C27.5 15.9361 21.4591 18 14.0007 18C6.5423 18 0.5 15.9361 0.5 13.3905C0.5 10.8449 6.5409 8.78101 14.0007 8.78101C21.4605 8.78101 27.5 10.8449 27.5 13.3905Z" fill="#E2CAB3"/>
<path fill-rule="evenodd" clip-rule="evenodd" d="M27.5 12.882C27.5 15.4276 21.4591 17.4915 14.0007 17.4915C6.5423 17.4915 0.5 15.4276 0.5 12.882C0.5 10.3363 6.5409 8.27246 14.0007 8.27246C21.4605 8.27246 27.5 10.3363 27.5 12.882Z" fill="white"/>
<path fill-rule="evenodd" clip-rule="evenodd" d="M27.5 12.8092C27.5 15.2752 21.4591 17.274 14.0007 17.274C6.5423 17.274 0.5 15.2752 0.5 12.8092C0.5 10.3432 6.5409 8.3457 14.0007 8.3457C21.4605 8.3457 27.5 10.3445 27.5 12.8092Z" fill="#E7D8C8"/>
<path fill-rule="evenodd" clip-rule="evenodd" d="M26.9016 12.8092C26.9016 14.5691 21.7317 15.9945 15.3551 15.9945C8.97842 15.9945 3.80713 14.5691 3.80713 12.8092C3.80713 11.0492 8.97701 9.62378 15.3551 9.62378C21.7331 9.62378 26.9016 11.0506 26.9016 12.8092Z" fill="#E2CAB3"/>
<path d="M25.9281 12.9234C25.6823 11.8351 24.4853 11.3746 23.5399 11.3016C22.9568 11.2578 22.3738 11.3746 21.7922 11.4051C21.469 11.4226 21.1449 11.4101 20.8243 11.3679C20.4702 11.3215 20.1317 11.2007 19.7748 11.1728C19.1553 11.125 18.5414 11.3281 17.964 11.5405C17.2854 11.7913 16.6069 12.0196 15.9115 12.2134C14.5397 12.6082 13.1265 12.8605 11.6969 12.9659C11.1154 13.0159 10.5301 13.0128 9.94924 12.9566C9.54183 12.9088 9.14004 12.8239 8.73263 12.7788C8.01896 12.7031 7.22803 12.7921 6.94003 13.5844C6.72412 13.5837 6.51118 13.632 6.31908 13.7251C6.02828 13.8432 5.63913 14.0529 5.48881 14.3569C5.17553 14.9926 6.19124 15.2421 6.56774 15.3098C6.92598 15.3735 7.28703 15.3961 7.64668 15.4319C8.14681 15.4824 8.5486 15.7067 8.97146 15.9801C10.0377 16.6689 11.4609 16.714 12.6747 16.6344C13.3442 16.587 14.0061 16.4699 14.6485 16.2853C15.327 16.0942 16.0253 16.2097 16.7108 16.3198C17.2997 16.4374 17.9113 16.4025 18.481 16.219C19.0541 16.0265 19.5515 15.6748 20.0418 15.3218C20.6135 14.9103 21.264 14.8851 21.9369 14.8333C22.6003 14.7944 23.2586 14.6989 23.9037 14.548C24.4453 14.4187 24.9726 14.2409 25.4786 14.0171C25.9084 13.8034 26.0293 13.4052 25.9281 12.9234Z" fill="#EEBE30"/>
<path d="M22.0954 11.9771C22.0954 13.6919 18.2418 15.2859 13.6016 15.2859C8.96134 15.2859 5.0769 13.5738 5.0769 11.859C5.0769 10.1442 8.96134 9.07178 13.6016 9.07178C18.2418 9.07178 22.0954 10.2623 22.0954 11.9771Z" fill="#E3AC8A"/>
<path d="M22.0027 11.6463C22.0027 13.3611 18.2419 14.7507 13.6017 14.7507C8.96143 14.7507 5.19922 13.3611 5.19922 11.6463C5.19922 9.93147 8.96143 8.54053 13.6017 8.54053C18.2419 8.54053 22.0027 9.93147 22.0027 11.6463Z" fill="#DA840D"/>
<path d="M19.7129 11.3518C19.7129 12.6246 16.9229 13.6546 13.4796 13.6546C10.0363 13.6546 7.24341 12.6246 7.24341 11.3518C7.24341 10.079 10.0377 9.04907 13.4796 9.04907C16.9215 9.04907 19.7129 10.087 19.7129 11.3518Z" fill="#F0A508"/>
<path d="M9.28442 12.2011C9.28442 12.3338 9.12566 12.4493 8.92898 12.4493C8.7323 12.4493 8.57495 12.3378 8.57495 12.2011C8.57495 12.0644 8.7337 11.9529 8.92898 11.9529C9.12426 11.9529 9.28442 12.0644 9.28442 12.2011Z" fill="#DA840D"/>
<path d="M8.57512 11.1569C8.5732 11.1934 8.55997 11.2287 8.53706 11.2582C8.51416 11.2877 8.4826 11.3103 8.44628 11.323C8.40995 11.3358 8.37047 11.3382 8.33272 11.3299C8.29496 11.3217 8.26059 11.3032 8.23387 11.2767C8.20714 11.2502 8.18923 11.2168 8.18235 11.1808C8.17547 11.1448 8.17992 11.1077 8.19516 11.074C8.2104 11.0403 8.23575 11.0116 8.26808 10.9915C8.30041 10.9713 8.33829 10.9605 8.37704 10.9604C8.40373 10.961 8.43004 10.9665 8.45447 10.9766C8.4789 10.9868 8.50096 11.0014 8.51937 11.0197C8.53778 11.038 8.55219 11.0595 8.56176 11.083C8.57133 11.1066 8.57587 11.1317 8.57512 11.1569Z" fill="#DA840D"/>
<path d="M11.0365 12.5024C11.041 12.5669 11.0249 12.6312 10.9902 12.687C10.9556 12.7427 10.904 12.7874 10.8421 12.8151C10.7803 12.8428 10.711 12.8523 10.6434 12.8423C10.5758 12.8324 10.5128 12.8035 10.4628 12.7593C10.4128 12.7152 10.378 12.6578 10.3629 12.5948C10.3478 12.5317 10.3531 12.4658 10.3782 12.4056C10.4032 12.3454 10.4468 12.2938 10.5033 12.2573C10.5599 12.2208 10.6267 12.2013 10.6951 12.2011C10.7385 12.1997 10.7817 12.2064 10.8224 12.2207C10.863 12.2351 10.9002 12.2569 10.9319 12.2849C10.9636 12.3129 10.9892 12.3465 11.0071 12.3838C11.0251 12.4211 11.0351 12.4614 11.0365 12.5024Z" fill="#DA840D"/>
<path d="M10.2946 11.307C10.2946 11.3892 10.1976 11.4569 10.0796 11.4569C9.96162 11.4569 9.86328 11.3892 9.86328 11.307C9.86328 11.2247 9.96022 11.157 10.0796 11.157C10.199 11.157 10.2946 11.2233 10.2946 11.307Z" fill="#DA840D"/>
<path d="M12.4666 12.0184C12.4718 12.0601 12.4634 12.1022 12.4425 12.1393C12.4217 12.1764 12.3895 12.2066 12.35 12.226C12.3106 12.2453 12.2659 12.2529 12.2218 12.2477C12.1778 12.2425 12.1364 12.2248 12.1032 12.1969C12.07 12.169 12.0466 12.1322 12.0361 12.0914C12.0255 12.0507 12.0283 12.0078 12.0441 11.9686C12.0599 11.9294 12.088 11.8956 12.1245 11.8718C12.1611 11.848 12.2045 11.8352 12.2489 11.8352C12.3034 11.8327 12.3567 11.8504 12.3974 11.8847C12.4382 11.9189 12.463 11.967 12.4666 12.0184Z" fill="#DA840D"/>
<path d="M12.5494 13.1239C12.5494 13.2089 12.4455 13.2779 12.3162 13.2779C12.187 13.2779 12.083 13.2089 12.083 13.1239C12.083 13.039 12.1884 12.97 12.3162 12.97C12.4441 12.97 12.5494 13.039 12.5494 13.1239Z" fill="#DA840D"/>
<path d="M11.6198 11.4766C11.6173 11.5074 11.6053 11.5369 11.5852 11.5614C11.5651 11.5858 11.5379 11.6041 11.5069 11.6141C11.4759 11.6241 11.4425 11.6252 11.4108 11.6174C11.3791 11.6096 11.3506 11.5931 11.3287 11.5701C11.3068 11.5471 11.2926 11.5186 11.2877 11.488C11.2829 11.4574 11.2877 11.4261 11.3014 11.3981C11.3152 11.37 11.3374 11.3464 11.3653 11.3302C11.3932 11.3139 11.4255 11.3058 11.4582 11.3067C11.5032 11.3098 11.5451 11.3292 11.5753 11.3609C11.6054 11.3926 11.6213 11.434 11.6198 11.4766Z" fill="#DA840D"/>
<path d="M14.0388 11.7991C14.0388 11.8841 13.9376 11.9531 13.8126 11.9531C13.6876 11.9531 13.5864 11.8841 13.5864 11.7991C13.5864 11.7142 13.6876 11.6465 13.8126 11.6465C13.9376 11.6465 14.0388 11.7142 14.0388 11.7991Z" fill="#DA840D"/>
<path d="M14.0388 12.5938C14.0388 12.6442 13.9376 12.6854 13.8126 12.6854C13.6876 12.6854 13.5864 12.6442 13.5864 12.5938C13.5864 12.5433 13.6876 12.5022 13.8126 12.5022C13.9376 12.5022 14.0388 12.5433 14.0388 12.5938Z" fill="#DA840D"/>
<path d="M15.5685 12.0776C15.5685 12.1453 15.4772 12.2011 15.3634 12.2011C15.2496 12.2011 15.1597 12.1453 15.1597 12.0776C15.1597 12.01 15.251 11.9529 15.3634 11.9529C15.4758 11.9529 15.5685 12.0086 15.5685 12.0776Z" fill="#DA840D"/>
<path d="M15.3242 12.9646C15.3338 13.006 15.3295 13.0491 15.3121 13.0881C15.2946 13.1271 15.2648 13.16 15.2266 13.1823C15.1885 13.2045 15.1441 13.2151 15.0993 13.2124C15.0546 13.2098 15.0119 13.1941 14.977 13.1675C14.9421 13.1409 14.9168 13.1048 14.9047 13.0641C14.8925 13.0233 14.8939 12.98 14.9089 12.9401C14.9239 12.9002 14.9516 12.8657 14.9882 12.8413C15.0249 12.8169 15.0686 12.8039 15.1134 12.804C15.1638 12.7995 15.214 12.8138 15.2534 12.8438C15.2928 12.8738 15.3181 12.9172 15.3242 12.9646Z" fill="#DA840D"/>
<path d="M17.0267 12.707C17.0179 12.7465 16.9974 12.7829 16.9676 12.8119C16.9378 12.8409 16.9 12.8614 16.8584 12.8709C16.8168 12.8804 16.7732 12.8785 16.7327 12.8655C16.6922 12.8526 16.6564 12.829 16.6295 12.7976C16.6025 12.7662 16.5856 12.7282 16.5806 12.688C16.5757 12.6479 16.5828 12.6072 16.6013 12.5708C16.6198 12.5343 16.6489 12.5036 16.6851 12.4821C16.7214 12.4606 16.7633 12.4493 16.8061 12.4495C16.8713 12.4565 16.9309 12.4874 16.9721 12.5356C17.0134 12.5837 17.033 12.6453 17.0267 12.707Z" fill="#DA840D"/>
<path d="M16.9046 11.5471C16.9046 11.6002 16.8329 11.6427 16.7444 11.6427C16.6559 11.6427 16.5857 11.6002 16.5857 11.5471C16.5857 11.494 16.6573 11.4529 16.7444 11.4529C16.8315 11.4529 16.9046 11.4993 16.9046 11.5471Z" fill="#DA840D"/>
<path d="M18.2533 11.8297C18.2533 12.0355 18.1564 12.2014 18.0384 12.2014C17.9204 12.2014 17.822 12.0355 17.822 11.8297C17.822 11.624 17.919 11.4568 18.0384 11.4568C18.1578 11.4568 18.2533 11.624 18.2533 11.8297Z" fill="#DA840D"/>
<path d="M18.794 11.4513C18.794 11.4777 18.7829 11.5031 18.7631 11.5217C18.7434 11.5404 18.7166 11.5509 18.6886 11.5509C18.6607 11.5509 18.6339 11.5404 18.6141 11.5217C18.5944 11.5031 18.5833 11.4777 18.5833 11.4513C18.5833 11.4249 18.5944 11.3996 18.6141 11.381C18.6339 11.3623 18.6607 11.3518 18.6886 11.3518C18.7164 11.3522 18.743 11.3627 18.7627 11.3813C18.7824 11.3999 18.7936 11.4251 18.794 11.4513Z" fill="#DA840D"/>
<path d="M15.251 11.1343C15.251 11.2286 15.119 11.3069 14.9574 11.3069C14.7959 11.3069 14.6638 11.2286 14.6638 11.1343C14.6638 11.0401 14.7945 10.9604 14.9574 10.9604C15.1204 10.9604 15.251 11.0388 15.251 11.1343Z" fill="#DA840D"/>
<path d="M9.74265 10.2395C9.74265 10.2979 9.6401 10.3457 9.51366 10.3457C9.38722 10.3457 9.28467 10.2979 9.28467 10.2395C9.28467 10.1811 9.38722 10.1333 9.51366 10.1333C9.6401 10.1333 9.74265 10.1811 9.74265 10.2395Z" fill="#DA840D"/>
<path d="M11.0913 10.0261C11.0913 10.0858 10.9747 10.1336 10.8314 10.1336C10.6881 10.1336 10.5701 10.0858 10.5701 10.0261C10.5701 9.96638 10.6867 9.91992 10.8314 9.91992C10.9761 9.91992 11.0913 9.9677 11.0913 10.0261Z" fill="#DA840D"/>
<path d="M12.7882 10.2873C12.7882 10.3709 12.6309 10.4399 12.4356 10.4399C12.2404 10.4399 12.083 10.3709 12.083 10.2873C12.083 10.2036 12.2418 10.1333 12.4356 10.1333C12.6295 10.1333 12.7882 10.2023 12.7882 10.2873Z" fill="#DA840D"/>
<path d="M14.0386 10.0261C14.0389 10.0475 14.0324 10.0684 14.02 10.0863C14.0076 10.1042 13.9899 10.1182 13.969 10.1265C13.9482 10.1348 13.9252 10.137 13.903 10.1329C13.8808 10.1288 13.8604 10.1186 13.8444 10.1034C13.8284 10.0883 13.8175 10.0691 13.8132 10.0481C13.8088 10.0271 13.8112 10.0054 13.82 9.98568C13.8288 9.96598 13.8436 9.94921 13.8625 9.93749C13.8814 9.92578 13.9036 9.91967 13.9262 9.91993C13.956 9.91993 13.9846 9.93112 14.0057 9.95103C14.0268 9.97094 14.0386 9.99795 14.0386 10.0261Z" fill="#DA840D"/>
<path d="M13.8126 10.866C13.8126 10.9177 13.7058 10.9602 13.5723 10.9602C13.4389 10.9602 13.3335 10.9177 13.3335 10.866C13.3335 10.8142 13.4403 10.7717 13.5723 10.7717C13.7044 10.7717 13.8126 10.8142 13.8126 10.866Z" fill="#DA840D"/>
<path d="M15.6905 9.97932C15.6899 10.0101 15.6797 10.0401 15.661 10.0654C15.6424 10.0907 15.6162 10.1101 15.5858 10.1213C15.5554 10.1325 15.5221 10.1348 15.4903 10.1281C15.4585 10.1214 15.4295 10.1059 15.407 10.0835C15.3845 10.0612 15.3696 10.033 15.3641 10.0026C15.3587 9.97223 15.3629 9.94099 15.3763 9.91288C15.3897 9.88477 15.4116 9.86106 15.4393 9.84477C15.467 9.82847 15.4992 9.82033 15.5318 9.82138C15.5532 9.8219 15.5743 9.82639 15.5938 9.83461C15.6134 9.84283 15.6311 9.85461 15.6458 9.86927C15.6605 9.88394 15.6721 9.90121 15.6797 9.92009C15.6874 9.93898 15.6911 9.9591 15.6905 9.97932Z" fill="#DA840D"/>
<path d="M16.5854 10.6061C16.5854 10.6327 16.5026 10.6539 16.3986 10.6539C16.2946 10.6539 16.2131 10.6327 16.2131 10.6061C16.2131 10.5796 16.296 10.5583 16.3986 10.5583C16.5011 10.5583 16.5854 10.5796 16.5854 10.6061Z" fill="#DA840D"/>
<path d="M17.1688 10.2929C17.1723 10.3068 17.1711 10.3215 17.1654 10.3348C17.1596 10.3481 17.1496 10.3594 17.1368 10.3671C17.1239 10.3748 17.1089 10.3785 17.0937 10.3777C17.0785 10.3769 17.064 10.3717 17.0521 10.3627C17.0402 10.3537 17.0316 10.3415 17.0274 10.3276C17.0233 10.3138 17.0238 10.2991 17.0289 10.2856C17.034 10.272 17.0435 10.2604 17.056 10.2521C17.0685 10.2439 17.0833 10.2396 17.0985 10.2398C17.1153 10.2383 17.1319 10.243 17.1451 10.2529C17.1582 10.2628 17.1667 10.2771 17.1688 10.2929Z" fill="#DA840D"/>
<path d="M16.5854 10.6058C16.5821 10.6346 16.5701 10.6619 16.5508 10.6844C16.5315 10.7069 16.5058 10.7236 16.4766 10.7325C16.4475 10.7415 16.4162 10.7423 16.3866 10.7348C16.357 10.7274 16.3303 10.712 16.3098 10.6905C16.2892 10.669 16.2757 10.6424 16.2708 10.6138C16.2659 10.5852 16.2699 10.5559 16.2823 10.5294C16.2946 10.5029 16.3148 10.4804 16.3405 10.4645C16.3661 10.4486 16.396 10.4401 16.4267 10.4399C16.4486 10.441 16.4701 10.4461 16.49 10.455C16.5099 10.4639 16.5277 10.4764 16.5425 10.4918C16.5572 10.5072 16.5686 10.5252 16.576 10.5448C16.5833 10.5643 16.5865 10.5851 16.5854 10.6058Z" fill="#DA840D"/>
<path d="M17.4875 10.3404C17.4875 10.3948 17.4004 10.4399 17.2923 10.4399C17.1841 10.4399 17.0984 10.3948 17.0984 10.3404C17.0984 10.286 17.1855 10.2395 17.2923 10.2395C17.399 10.2395 17.4875 10.2846 17.4875 10.3404Z" fill="#DA840D"/>
<path d="M22.0954 10.7029C22.0954 12.4164 18.2418 14.0117 13.6016 14.0117C8.96134 14.0117 5.0769 12.2983 5.0769 10.5848C5.0769 8.87134 8.96134 7.79761 13.6016 7.79761C18.2418 7.79761 22.0954 8.98814 22.0954 10.7029Z" fill="#E3AC8A"/>
<path d="M22.0027 10.3713C22.0027 12.086 18.2419 13.4757 13.6017 13.4757C8.96143 13.4757 5.19922 12.086 5.19922 10.3713C5.19922 8.65646 8.96143 7.26685 13.6017 7.26685C18.2419 7.26685 22.0027 8.65646 22.0027 10.3713Z" fill="#DA840D"/>
<path d="M13.4795 12.3804C16.922 12.3804 19.7128 11.3494 19.7128 10.0777C19.7128 8.80588 16.922 7.7749 13.4795 7.7749C10.0369 7.7749 7.24609 8.80588 7.24609 10.0777C7.24609 11.3494 10.0369 12.3804 13.4795 12.3804Z" fill="#F0A508"/>
<path d="M9.28442 10.9274C9.28442 11.0601 9.12566 11.1756 8.92898 11.1756C8.7323 11.1756 8.57495 11.0641 8.57495 10.9274C8.57495 10.7907 8.7337 10.6792 8.92898 10.6792C9.12426 10.6792 9.28442 10.7894 9.28442 10.9274Z" fill="#DA840D"/>
<path d="M8.57529 9.88142C8.57418 9.91818 8.56163 9.95383 8.53921 9.9839C8.51678 10.014 8.48547 10.0371 8.44919 10.0505C8.41292 10.0638 8.37328 10.0668 8.33523 10.059C8.29718 10.0512 8.26241 10.0329 8.23527 10.0066C8.20813 9.9802 8.18981 9.94686 8.18261 9.91071C8.17542 9.87456 8.17965 9.83721 8.1948 9.80332C8.20994 9.76943 8.23532 9.74051 8.26776 9.72017C8.3002 9.69983 8.33827 9.68898 8.3772 9.68896C8.43037 9.69001 8.48096 9.71079 8.51803 9.74681C8.5551 9.78282 8.57567 9.83118 8.57529 9.88142Z" fill="#DA840D"/>
<path d="M11.0365 11.2282C11.041 11.2927 11.0249 11.357 10.9902 11.4128C10.9556 11.4685 10.904 11.5132 10.8421 11.5409C10.7803 11.5685 10.711 11.578 10.6434 11.5681C10.5758 11.5582 10.5128 11.5292 10.4628 11.4851C10.4128 11.441 10.378 11.3836 10.3629 11.3206C10.3478 11.2575 10.3531 11.1916 10.3782 11.1314C10.4032 11.0712 10.4468 11.0196 10.5033 10.9831C10.5599 10.9466 10.6267 10.927 10.6951 10.9269C10.7826 10.9244 10.8676 10.9547 10.9315 11.0111C10.9955 11.0675 11.0332 11.1456 11.0365 11.2282Z" fill="#DA840D"/>
<path d="M10.2946 10.0324C10.2946 10.1147 10.1976 10.1824 10.0796 10.1824C9.96162 10.1824 9.86328 10.1147 9.86328 10.0324C9.86328 9.95012 9.96022 9.8811 10.0796 9.8811C10.199 9.8811 10.2946 9.9541 10.2946 10.0324Z" fill="#DA840D"/>
<path d="M12.4666 10.7508C12.4718 10.7925 12.4634 10.8346 12.4425 10.8717C12.4217 10.9088 12.3895 10.939 12.35 10.9584C12.3106 10.9777 12.2659 10.9853 12.2218 10.9801C12.1778 10.9749 12.1364 10.9572 12.1032 10.9293C12.07 10.9014 12.0466 10.8646 12.0361 10.8239C12.0255 10.7831 12.0283 10.7403 12.0441 10.701C12.0599 10.6618 12.088 10.6281 12.1245 10.6042C12.1611 10.5804 12.2045 10.5676 12.2489 10.5676C12.3034 10.5651 12.3567 10.5828 12.3974 10.6171C12.4382 10.6514 12.463 10.6994 12.4666 10.7508Z" fill="#DA840D"/>
<path d="M12.5494 11.8482C12.5494 11.9331 12.4455 12.0021 12.3162 12.0021C12.187 12.0021 12.083 11.9331 12.083 11.8482C12.083 11.7632 12.1884 11.6956 12.3162 11.6956C12.4441 11.6956 12.5494 11.7632 12.5494 11.8482Z" fill="#DA840D"/>
<path d="M11.6194 10.2009C11.6172 10.2318 11.6053 10.2614 11.5854 10.286C11.5655 10.3107 11.5384 10.3292 11.5074 10.3394C11.4764 10.3495 11.4429 10.3509 11.4111 10.3432C11.3794 10.3355 11.3507 10.3192 11.3287 10.2962C11.3066 10.2732 11.2923 10.2446 11.2873 10.214C11.2824 10.1833 11.2871 10.152 11.3008 10.1239C11.3146 10.0957 11.3368 10.0721 11.3647 10.0558C11.3927 10.0395 11.425 10.0313 11.4578 10.0323C11.5027 10.035 11.5446 10.0542 11.5748 10.0856C11.6049 10.1171 11.6209 10.1584 11.6194 10.2009Z" fill="#DA840D"/>
<path d="M14.0388 10.5248C14.0388 10.6098 13.9376 10.6788 13.8126 10.6788C13.6876 10.6788 13.5864 10.6098 13.5864 10.5248C13.5864 10.4399 13.6876 10.3708 13.8126 10.3708C13.9376 10.3708 14.0388 10.4399 14.0388 10.5248Z" fill="#DA840D"/>
<path d="M14.0388 11.3201C14.0388 11.3705 13.9376 11.4117 13.8126 11.4117C13.6876 11.4117 13.5864 11.3705 13.5864 11.3201C13.5864 11.2697 13.6876 11.2285 13.8126 11.2285C13.9376 11.2285 14.0388 11.2697 14.0388 11.3201Z" fill="#DA840D"/>
<path d="M15.5685 10.8026C15.5685 10.8716 15.4772 10.9274 15.3634 10.9274C15.2496 10.9274 15.1597 10.8716 15.1597 10.8026C15.1597 10.7336 15.251 10.6792 15.3634 10.6792C15.4758 10.6792 15.5685 10.7349 15.5685 10.8026Z" fill="#DA840D"/>
<path d="M15.3241 11.6888C15.334 11.7301 15.3301 11.7733 15.3128 11.8125C15.2956 11.8516 15.2659 11.8847 15.2279 11.9072C15.1899 11.9296 15.1454 11.9404 15.1006 11.938C15.0558 11.9355 15.013 11.92 14.9779 11.8935C14.9429 11.867 14.9174 11.8309 14.9051 11.7902C14.8927 11.7495 14.8941 11.7061 14.909 11.6661C14.9238 11.6261 14.9515 11.5915 14.9881 11.5671C15.0247 11.5426 15.0685 11.5295 15.1134 11.5295C15.1636 11.5246 15.2138 11.5386 15.2532 11.5684C15.2926 11.5982 15.3181 11.6414 15.3241 11.6888Z" fill="#DA840D"/>
<path d="M17.0268 11.4312C17.018 11.4704 16.9977 11.5065 16.9681 11.5353C16.9386 11.5641 16.901 11.5844 16.8597 11.5938C16.8185 11.6032 16.7752 11.6014 16.735 11.5886C16.6948 11.5758 16.6592 11.5525 16.6324 11.5214C16.6057 11.4903 16.5887 11.4527 16.5837 11.4129C16.5786 11.3731 16.5855 11.3327 16.6037 11.2965C16.6219 11.2602 16.6505 11.2296 16.6864 11.2081C16.7222 11.1866 16.7638 11.1752 16.8062 11.175C16.8711 11.1821 16.9305 11.2128 16.9717 11.2607C17.0129 11.3085 17.0327 11.3698 17.0268 11.4312Z" fill="#DA840D"/>
<path d="M16.9046 10.2769C16.9046 10.3286 16.8329 10.3711 16.7444 10.3711C16.6559 10.3711 16.5857 10.3286 16.5857 10.2769C16.5857 10.2251 16.6573 10.1826 16.7444 10.1826C16.8315 10.1826 16.9046 10.2198 16.9046 10.2769Z" fill="#DA840D"/>
<path d="M18.2533 10.5542C18.2533 10.76 18.1564 10.9272 18.0384 10.9272C17.9204 10.9272 17.822 10.76 17.822 10.5542C17.822 10.3485 17.919 10.1826 18.0384 10.1826C18.1578 10.1826 18.2533 10.3525 18.2533 10.5542Z" fill="#DA840D"/>
<path d="M18.794 10.1769C18.7936 10.2032 18.7824 10.2283 18.7627 10.2469C18.743 10.2655 18.7165 10.2761 18.6886 10.2765C18.6678 10.2765 18.6474 10.2706 18.6301 10.2597C18.6128 10.2488 18.5992 10.2332 18.5913 10.215C18.5833 10.1968 18.5812 10.1768 18.5853 10.1575C18.5893 10.1382 18.5994 10.1205 18.6141 10.1065C18.6289 10.0926 18.6476 10.0831 18.6681 10.0793C18.6885 10.0755 18.7097 10.0774 18.7289 10.085C18.7482 10.0925 18.7647 10.1053 18.7762 10.1216C18.7878 10.138 18.794 10.1572 18.794 10.1769Z" fill="#DA840D"/>
<path d="M15.251 9.85882C15.251 9.95438 15.119 10.0327 14.9574 10.0327C14.7959 10.0327 14.6638 9.95438 14.6638 9.85882C14.6638 9.76326 14.7945 9.68628 14.9574 9.68628C15.1204 9.68628 15.251 9.76326 15.251 9.85882Z" fill="#DA840D"/>
<path d="M9.74265 8.96409C9.74265 9.02382 9.6401 9.0716 9.51366 9.0716C9.38722 9.0716 9.28467 9.02382 9.28467 8.96409C9.28467 8.90436 9.38722 8.85791 9.51366 8.85791C9.6401 8.85791 9.74265 8.90569 9.74265 8.96409Z" fill="#DA840D"/>
<path d="M11.0913 8.75169C11.0913 8.81009 10.9747 8.85787 10.8314 8.85787C10.6881 8.85787 10.5701 8.81009 10.5701 8.75169C10.5701 8.69329 10.6867 8.64551 10.8314 8.64551C10.9761 8.64551 11.0913 8.69329 11.0913 8.75169Z" fill="#DA840D"/>
<path d="M12.7882 9.01187C12.7882 9.09682 12.6309 9.16584 12.4356 9.16584C12.2404 9.16584 12.083 9.09682 12.083 9.01187C12.083 8.92693 12.2418 8.85791 12.4356 8.85791C12.6295 8.85791 12.7882 8.92693 12.7882 9.01187Z" fill="#DA840D"/>
<path d="M14.0386 8.7517C14.0389 8.77307 14.0324 8.79403 14.02 8.81192C14.0076 8.8298 13.9899 8.84378 13.969 8.85208C13.9482 8.86038 13.9252 8.86262 13.903 8.85852C13.8808 8.85441 13.8604 8.84415 13.8444 8.82903C13.8284 8.81392 13.8175 8.79464 13.8132 8.77366C13.8088 8.75269 13.8112 8.73096 13.82 8.71127C13.8288 8.69157 13.8436 8.67479 13.8625 8.66308C13.8814 8.65137 13.9036 8.64525 13.9262 8.64552C13.956 8.64552 13.9846 8.6567 14.0057 8.67661C14.0268 8.69653 14.0386 8.72353 14.0386 8.7517Z" fill="#DA840D"/>
<path d="M13.8126 9.5919C13.8126 9.64366 13.7058 9.68613 13.5723 9.68613C13.4389 9.68613 13.3335 9.64366 13.3335 9.5919C13.3335 9.54014 13.4403 9.49634 13.5723 9.49634C13.7044 9.49634 13.8126 9.53881 13.8126 9.5919Z" fill="#DA840D"/>
<path d="M15.6905 8.70532C15.6908 8.73631 15.6812 8.76667 15.6631 8.79248C15.6449 8.8183 15.619 8.83839 15.5887 8.85018C15.5584 8.86196 15.525 8.8649 15.4929 8.85862C15.4607 8.85234 15.4313 8.83712 15.4084 8.81492C15.3856 8.79272 15.3702 8.76455 15.3644 8.73405C15.3586 8.70355 15.3626 8.6721 15.3759 8.64376C15.3891 8.61541 15.4111 8.59147 15.4389 8.575C15.4666 8.55854 15.499 8.5503 15.5318 8.55136C15.5744 8.55206 15.615 8.56863 15.6447 8.59747C15.6745 8.6263 15.6909 8.66507 15.6905 8.70532Z" fill="#DA840D"/>
<path d="M16.5854 9.33172C16.5854 9.35693 16.5026 9.37817 16.3986 9.37817C16.2946 9.37817 16.2131 9.35693 16.2131 9.33172C16.2131 9.3065 16.296 9.28394 16.3986 9.28394C16.5011 9.28394 16.5854 9.30517 16.5854 9.33172Z" fill="#DA840D"/>
<path d="M17.1689 9.02538C17.1721 9.03938 17.1706 9.05398 17.1646 9.06715C17.1586 9.08031 17.1485 9.0914 17.1356 9.09887C17.1226 9.10634 17.1075 9.10982 17.0924 9.10883C17.0773 9.10784 17.0629 9.10243 17.0511 9.09334C17.0394 9.08426 17.031 9.07196 17.027 9.05814C17.023 9.04432 17.0237 9.02967 17.0289 9.01622C17.0341 9.00277 17.0436 8.99119 17.0561 8.98308C17.0686 8.97497 17.0835 8.97074 17.0986 8.97096C17.1156 8.96948 17.1324 8.97436 17.1456 8.98455C17.1587 8.99473 17.1671 9.00941 17.1689 9.02538Z" fill="#DA840D"/>
<path d="M16.5854 9.33192C16.5821 9.3607 16.5701 9.38798 16.5508 9.41047C16.5315 9.43295 16.5058 9.44967 16.4766 9.45862C16.4475 9.46757 16.4162 9.46836 16.3866 9.4609C16.357 9.45344 16.3303 9.43804 16.3098 9.41657C16.2892 9.39509 16.2757 9.36846 16.2708 9.33988C16.2659 9.3113 16.2699 9.282 16.2823 9.25551C16.2946 9.22902 16.3148 9.20648 16.3405 9.1906C16.3661 9.17472 16.396 9.16618 16.4267 9.16602C16.4486 9.16704 16.4701 9.17214 16.49 9.18103C16.5099 9.18993 16.5277 9.20244 16.5425 9.21785C16.5572 9.23326 16.5686 9.25127 16.576 9.27084C16.5833 9.29042 16.5865 9.31117 16.5854 9.33192Z" fill="#DA840D"/>
<path d="M17.4875 9.06498C17.4875 9.12072 17.4004 9.16585 17.2923 9.16585C17.1841 9.16585 17.0984 9.12072 17.0984 9.06498C17.0984 9.00924 17.1855 8.96411 17.2923 8.96411C17.399 8.96411 17.4875 9.00924 17.4875 9.06498Z" fill="#DA840D"/>
<path d="M22.2289 8.4254C22.2289 10.1389 18.374 11.7342 13.7337 11.7342C9.09348 11.7342 5.21045 10.0207 5.21045 8.30595C5.21045 6.59116 9.09348 5.52539 13.7337 5.52539C18.374 5.52539 22.2289 6.71061 22.2289 8.4254Z" fill="#E3AC8A"/>
<path d="M22.1349 8.09632C22.1349 9.81112 18.3727 11.2007 13.7324 11.2007C9.09217 11.2007 5.33276 9.80846 5.33276 8.09632C5.33276 6.38419 9.09357 4.98926 13.7338 4.98926C18.3741 4.98926 22.1349 6.37888 22.1349 8.09632Z" fill="#DA840D"/>
<path d="M19.8463 7.80018C19.8463 9.07167 17.0548 10.1029 13.6129 10.1029C10.171 10.1029 7.38379 9.07167 7.38379 7.80018C7.38379 6.52868 10.171 5.49609 13.6129 5.49609C17.0548 5.49609 19.8463 6.52736 19.8463 7.80018Z" fill="#F0A508"/>
<path d="M9.41655 8.64981C9.41655 8.78253 9.2592 8.898 9.06252 8.898C8.86584 8.898 8.7085 8.78651 8.7085 8.64981C8.7085 8.5131 8.86725 8.40161 9.06955 8.40161C9.27185 8.40161 9.41655 8.51177 9.41655 8.64981Z" fill="#DA840D"/>
<path d="M8.70849 7.60379C8.70684 7.64031 8.6939 7.67558 8.67128 7.70523C8.64866 7.73488 8.61734 7.75763 8.58119 7.77066C8.54504 7.78368 8.50565 7.78643 8.46787 7.77854C8.43009 7.77066 8.39558 7.7525 8.3686 7.7263C8.34162 7.7001 8.32336 7.66701 8.31606 7.63111C8.30876 7.59521 8.31275 7.55809 8.32753 7.52431C8.34231 7.49053 8.36724 7.46158 8.39924 7.44103C8.43124 7.42049 8.46891 7.40924 8.50759 7.40869C8.5344 7.40886 8.5609 7.41406 8.58556 7.42399C8.61022 7.43393 8.63255 7.44839 8.65124 7.46654C8.66993 7.48469 8.68462 7.50618 8.69445 7.52974C8.70428 7.5533 8.70905 7.57847 8.70849 7.60379Z" fill="#DA840D"/>
<path d="M11.1771 8.95084C11.1813 9.01507 11.165 9.07901 11.1303 9.13438C11.0956 9.18975 11.0441 9.234 10.9825 9.26139C10.9209 9.28878 10.8519 9.29805 10.7847 9.288C10.7174 9.27795 10.6549 9.24903 10.6052 9.20501C10.5555 9.16099 10.521 9.10388 10.5061 9.0411C10.4911 8.97831 10.4965 8.91274 10.5215 8.85288C10.5465 8.79302 10.59 8.74164 10.6462 8.70538C10.7025 8.66913 10.769 8.64968 10.8371 8.64956C10.9245 8.64705 11.0093 8.67736 11.073 8.73383C11.1367 8.7903 11.1742 8.86834 11.1771 8.95084Z" fill="#DA840D"/>
<path d="M10.4281 7.75374C10.4281 7.83735 10.3312 7.90504 10.2118 7.90504C10.0924 7.90504 9.99683 7.83735 9.99683 7.75374C9.99683 7.67012 10.0938 7.60376 10.2118 7.60376C10.3298 7.60376 10.4281 7.67145 10.4281 7.75374Z" fill="#DA840D"/>
<path d="M12.5999 8.4666C12.6051 8.50829 12.5967 8.55047 12.5758 8.58754C12.555 8.62461 12.5228 8.65483 12.4833 8.67419C12.4439 8.69355 12.3992 8.70114 12.3551 8.69595C12.3111 8.69076 12.2697 8.67304 12.2365 8.64513C12.2033 8.61723 12.1799 8.58045 12.1694 8.53969C12.1588 8.49892 12.1616 8.45609 12.1774 8.41686C12.1932 8.37764 12.2213 8.34387 12.2578 8.32005C12.2944 8.29622 12.3378 8.28346 12.3822 8.28344C12.4367 8.28089 12.49 8.29866 12.5307 8.33292C12.5715 8.36719 12.5963 8.41519 12.5999 8.4666Z" fill="#DA840D"/>
<path d="M12.683 9.57091C12.683 9.65585 12.579 9.72487 12.4498 9.72487C12.3205 9.72487 12.2166 9.65585 12.2166 9.57091C12.2166 9.48596 12.3205 9.42358 12.4498 9.42358C12.579 9.42358 12.683 9.48729 12.683 9.57091Z" fill="#DA840D"/>
<path d="M11.7531 7.92357C11.7531 7.96546 11.7354 8.00563 11.7041 8.03525C11.6727 8.06487 11.6302 8.08151 11.5859 8.08151C11.5415 8.08151 11.499 8.06487 11.4677 8.03525C11.4363 8.00563 11.4187 7.96546 11.4187 7.92357C11.4187 7.88168 11.4363 7.84151 11.4677 7.81189C11.499 7.78227 11.5415 7.76562 11.5859 7.76562C11.6302 7.76562 11.6727 7.78227 11.7041 7.81189C11.7354 7.84151 11.7531 7.88168 11.7531 7.92357Z" fill="#DA840D"/>
<path d="M14.1721 8.2475C14.1721 8.33244 14.0709 8.40145 13.9459 8.40145C13.8209 8.40145 13.7197 8.33244 13.7197 8.2475C13.7197 8.16255 13.8209 8.09619 13.9459 8.09619C14.0709 8.09619 14.1721 8.16255 14.1721 8.2475Z" fill="#DA840D"/>
<path d="M14.1721 9.04251C14.1721 9.09294 14.0709 9.13409 13.9459 9.13409C13.8209 9.13409 13.7197 9.09294 13.7197 9.04251C13.7197 8.99207 13.8209 8.95093 13.9459 8.95093C14.0709 8.95093 14.1721 8.99207 14.1721 9.04251Z" fill="#DA840D"/>
<path d="M15.702 8.52504C15.702 8.59406 15.6106 8.6498 15.4969 8.6498C15.3831 8.6498 15.2917 8.59406 15.2917 8.52504C15.2917 8.45603 15.3845 8.40161 15.4969 8.40161C15.6092 8.40161 15.702 8.45735 15.702 8.52504Z" fill="#DA840D"/>
<path d="M15.4575 9.41133C15.4677 9.45292 15.4639 9.49647 15.4467 9.53595C15.4296 9.57544 15.3998 9.6089 15.3616 9.6317C15.3235 9.6545 15.2787 9.66551 15.2336 9.66321C15.1885 9.66091 15.1452 9.6454 15.1099 9.61885C15.0745 9.59229 15.0487 9.55599 15.0362 9.51499C15.0236 9.47399 15.0249 9.43031 15.0397 9.39001C15.0546 9.34971 15.0824 9.31478 15.1193 9.29006C15.1561 9.26534 15.2001 9.25207 15.2453 9.25206C15.2958 9.24683 15.3464 9.26063 15.3861 9.29046C15.4258 9.32028 15.4515 9.36373 15.4575 9.41133Z" fill="#DA840D"/>
<path d="M17.1605 9.15802C17.1502 9.19671 17.1287 9.23192 17.0984 9.25968C17.0681 9.28743 17.0302 9.30661 16.9889 9.31506C16.9477 9.32351 16.9047 9.32088 16.865 9.30747C16.8252 9.29407 16.7902 9.27042 16.764 9.2392C16.7377 9.20799 16.7212 9.17045 16.7163 9.13083C16.7115 9.09122 16.7185 9.05111 16.7365 9.01505C16.7545 8.97898 16.7828 8.9484 16.8183 8.92675C16.8537 8.90511 16.8949 8.89327 16.9371 8.89258C16.9704 8.89569 17.0027 8.90509 17.0321 8.92022C17.0615 8.93535 17.0874 8.9559 17.1082 8.98066C17.129 9.00541 17.1444 9.03387 17.1534 9.06433C17.1624 9.0948 17.1648 9.12666 17.1605 9.15802Z" fill="#DA840D"/>
<path d="M17.0379 7.99926C17.0379 8.05103 16.9663 8.0935 16.8777 8.0935C16.7892 8.0935 16.719 8.05103 16.719 7.99926C16.719 7.9475 16.7892 7.90503 16.8777 7.90503C16.9663 7.90503 17.0379 7.9475 17.0379 7.99926Z" fill="#DA840D"/>
<path d="M18.3866 8.27666C18.3866 8.48238 18.2897 8.64961 18.1703 8.64961C18.0509 8.64961 17.9553 8.48238 17.9553 8.27666C17.9553 8.07093 18.0523 7.90503 18.1703 7.90503C18.2883 7.90503 18.3866 8.07093 18.3866 8.27666Z" fill="#DA840D"/>
<path d="M18.9259 7.89959C18.9257 7.91896 18.9193 7.93781 18.9077 7.95379C18.8961 7.96976 18.8798 7.98215 18.8608 7.98938C18.8418 7.99661 18.8209 7.99836 18.8008 7.99443C18.7808 7.99049 18.7624 7.98103 18.748 7.96724C18.7336 7.95346 18.7238 7.93596 18.7199 7.91694C18.716 7.89793 18.7182 7.87825 18.7261 7.86038C18.734 7.84251 18.7473 7.82725 18.7644 7.81651C18.7814 7.80578 18.8015 7.80005 18.822 7.80005C18.8497 7.8004 18.8761 7.81104 18.8956 7.82967C18.915 7.8483 18.9259 7.87342 18.9259 7.89959Z" fill="#DA840D"/>
<path d="M15.3832 7.58123C15.3832 7.67679 15.2525 7.75377 15.091 7.75377C14.9294 7.75377 14.7974 7.67679 14.7974 7.58123C14.7974 7.48567 14.928 7.40869 15.091 7.40869C15.2539 7.40869 15.3832 7.48567 15.3832 7.58123Z" fill="#DA840D"/>
<path d="M9.87613 6.68783C9.87613 6.74622 9.77358 6.794 9.64714 6.794C9.52071 6.794 9.41675 6.74622 9.41675 6.68783C9.41675 6.62943 9.5193 6.58032 9.64714 6.58032C9.77498 6.58032 9.87613 6.6281 9.87613 6.68783Z" fill="#DA840D"/>
<path d="M11.2246 6.47434C11.2246 6.53407 11.108 6.58052 10.9633 6.58052C10.8186 6.58052 10.7034 6.53407 10.7034 6.47434C10.7034 6.41462 10.82 6.36816 10.9633 6.36816C11.1066 6.36816 11.2246 6.41594 11.2246 6.47434Z" fill="#DA840D"/>
<path d="M12.9218 6.73428C12.9218 6.81922 12.7644 6.88824 12.5692 6.88824C12.3739 6.88824 12.2166 6.81922 12.2166 6.73428C12.2166 6.64934 12.3753 6.58032 12.5692 6.58032C12.763 6.58032 12.9218 6.64934 12.9218 6.73428Z" fill="#DA840D"/>
<path d="M14.1722 6.474C14.1691 6.50028 14.1559 6.52456 14.135 6.54219C14.1141 6.55983 14.0871 6.56958 14.0591 6.56958C14.0311 6.56958 14.0041 6.55983 13.9833 6.54219C13.9624 6.52456 13.9492 6.50028 13.946 6.474C13.9492 6.44771 13.9624 6.42343 13.9833 6.4058C14.0041 6.38817 14.0311 6.37842 14.0591 6.37842C14.0871 6.37842 14.1141 6.38817 14.135 6.4058C14.1559 6.42343 14.1691 6.44771 14.1722 6.474Z" fill="#DA840D"/>
<path d="M13.9458 7.31298C13.9458 7.36607 13.839 7.40855 13.7056 7.40855C13.5721 7.40855 13.4653 7.36607 13.4653 7.31298C13.4653 7.25989 13.5735 7.21875 13.7056 7.21875C13.8376 7.21875 13.9458 7.26122 13.9458 7.31298Z" fill="#DA840D"/>
<path d="M15.8243 6.42766C15.8246 6.45843 15.8152 6.48858 15.7973 6.51429C15.7794 6.54 15.7539 6.56011 15.7238 6.57207C15.6938 6.58403 15.6607 6.58729 15.6288 6.58145C15.5968 6.57561 15.5674 6.56093 15.5442 6.53926C15.5211 6.5176 15.5053 6.48993 15.4989 6.45978C15.4924 6.42962 15.4956 6.39833 15.508 6.36988C15.5204 6.34142 15.5414 6.31709 15.5685 6.29997C15.5956 6.28285 15.6274 6.27371 15.66 6.2737C15.6815 6.27335 15.703 6.27708 15.723 6.28467C15.743 6.29227 15.7612 6.30357 15.7765 6.31792C15.7918 6.33227 15.804 6.34938 15.8122 6.36822C15.8204 6.38707 15.8245 6.40728 15.8243 6.42766Z" fill="#DA840D"/>
<path d="M16.719 7.05437C16.719 7.07959 16.6347 7.10083 16.5321 7.10083C16.4296 7.10083 16.3467 7.07959 16.3467 7.05437C16.3467 7.02915 16.4296 7.00659 16.5321 7.00659C16.6347 7.00659 16.719 7.03446 16.719 7.05437Z" fill="#DA840D"/>
<path d="M17.3021 6.74122C17.2978 6.75564 17.2885 6.76833 17.2759 6.77736C17.2632 6.7864 17.2478 6.79128 17.2319 6.79128C17.216 6.79128 17.2006 6.7864 17.1879 6.77736C17.1752 6.76833 17.166 6.75564 17.1616 6.74122C17.166 6.7268 17.1752 6.71411 17.1879 6.70508C17.2006 6.69605 17.216 6.69116 17.2319 6.69116C17.2478 6.69116 17.2632 6.69605 17.2759 6.70508C17.2885 6.71411 17.2978 6.7268 17.3021 6.74122Z" fill="#DA840D"/>
<path d="M16.719 7.05409C16.7157 7.08287 16.7037 7.11015 16.6844 7.13263C16.6651 7.15512 16.6393 7.17184 16.6102 7.18079C16.581 7.18974 16.5498 7.19053 16.5202 7.18307C16.4906 7.17561 16.4639 7.16021 16.4433 7.13873C16.4228 7.11726 16.4093 7.09063 16.4044 7.06205C16.3995 7.03347 16.4035 7.00417 16.4158 6.97768C16.4282 6.95119 16.4484 6.92865 16.474 6.91277C16.4996 6.89688 16.5296 6.88835 16.5602 6.88818C16.5822 6.8892 16.6037 6.89431 16.6236 6.9032C16.6434 6.9121 16.6613 6.92461 16.676 6.94002C16.6908 6.95543 16.7021 6.97344 16.7095 6.99301C16.7169 7.01259 16.7201 7.03334 16.719 7.05409Z" fill="#DA840D"/>
<path d="M17.6208 6.78753C17.6208 6.84328 17.5337 6.8884 17.4255 6.8884C17.3173 6.8884 17.2302 6.84328 17.2302 6.78753C17.2302 6.73179 17.3173 6.68799 17.4255 6.68799C17.5337 6.68799 17.6208 6.73179 17.6208 6.78753Z" fill="#DA840D"/>
<path d="M22.2289 6.96123C22.2289 8.67602 18.374 10.27 13.7337 10.27C9.09348 10.27 5.21045 8.5579 5.21045 6.84311C5.21045 5.12832 9.09348 4.05591 13.7337 4.05591C18.374 4.05591 22.2289 5.24644 22.2289 6.96123Z" fill="#E3AC8A"/>
<path d="M22.1349 6.63626C22.1349 8.34972 18.3727 9.74067 13.7324 9.74067C9.09217 9.74067 5.33276 8.34441 5.33276 6.63626C5.33276 4.9281 9.09357 3.53052 13.7338 3.53052C18.3741 3.53052 22.1349 4.91085 22.1349 6.63626Z" fill="#DA840D"/>
<path d="M19.8463 6.33631C19.8463 7.6078 17.0548 8.63907 13.6129 8.63907C10.171 8.63907 7.38379 7.6078 7.38379 6.33631C7.38379 5.06482 10.171 4.03223 13.6129 4.03223C17.0548 4.03223 19.8463 5.06349 19.8463 6.33631Z" fill="#F0A508"/>
<path d="M9.41655 7.18569C9.41655 7.31842 9.2592 7.43389 9.06252 7.43389C8.86584 7.43389 8.7085 7.3224 8.7085 7.18569C8.7085 7.04899 8.86725 6.9375 9.06252 6.9375C9.2578 6.9375 9.41655 7.04899 9.41655 7.18569Z" fill="#DA840D"/>
<path d="M8.70849 6.13993C8.70684 6.17645 8.6939 6.21171 8.67128 6.24136C8.64866 6.27102 8.61734 6.29376 8.58119 6.30679C8.54504 6.31982 8.50565 6.32256 8.46787 6.31468C8.43009 6.3068 8.39558 6.28863 8.3686 6.26243C8.34162 6.23623 8.32336 6.20314 8.31606 6.16724C8.30876 6.13135 8.31275 6.09422 8.32753 6.06044C8.34231 6.02666 8.36724 5.99771 8.39924 5.97717C8.43124 5.95662 8.46891 5.94538 8.50759 5.94482C8.5344 5.94499 8.5609 5.9502 8.58556 5.96013C8.61022 5.97006 8.63255 5.98452 8.65124 6.00267C8.66993 6.02083 8.68462 6.04231 8.69445 6.06587C8.70428 6.08943 8.70905 6.11461 8.70849 6.13993Z" fill="#DA840D"/>
<path d="M10.8329 7.78811C11.0207 7.78811 11.1729 7.65322 11.1729 7.48683C11.1729 7.32044 11.0207 7.18555 10.8329 7.18555C10.6451 7.18555 10.4929 7.32044 10.4929 7.48683C10.4929 7.65322 10.6451 7.78811 10.8329 7.78811Z" fill="#DA840D"/>
<path d="M10.4281 6.2912C10.4281 6.37349 10.3312 6.44118 10.2118 6.44118C10.0924 6.44118 9.99683 6.37083 9.99683 6.2912C9.99683 6.21156 10.0938 6.13989 10.2118 6.13989C10.3298 6.13989 10.4281 6.20758 10.4281 6.2912Z" fill="#DA840D"/>
<path d="M12.5999 7.00249C12.6051 7.04418 12.5967 7.08635 12.5758 7.12343C12.555 7.1605 12.5228 7.19072 12.4833 7.21008C12.4439 7.22944 12.3992 7.23703 12.3551 7.23184C12.3111 7.22665 12.2697 7.20893 12.2365 7.18102C12.2033 7.15311 12.1799 7.11634 12.1694 7.07557C12.1588 7.03481 12.1616 6.99197 12.1774 6.95275C12.1932 6.91352 12.2213 6.87976 12.2578 6.85594C12.2944 6.83211 12.3378 6.81934 12.3822 6.81933C12.4367 6.81678 12.49 6.83455 12.5307 6.86881C12.5715 6.90307 12.5963 6.95108 12.5999 7.00249Z" fill="#DA840D"/>
<path d="M12.683 8.10649C12.683 8.19143 12.579 8.26045 12.4498 8.26045C12.3205 8.26045 12.2166 8.19143 12.2166 8.10649C12.2166 8.02155 12.3205 7.95386 12.4498 7.95386C12.579 7.95386 12.683 8.02287 12.683 8.10649Z" fill="#DA840D"/>
<path d="M11.7528 6.4609C11.7504 6.49152 11.7385 6.5208 11.7187 6.54516C11.6989 6.56951 11.672 6.58789 11.6413 6.59803C11.6107 6.60817 11.5775 6.60965 11.546 6.60227C11.5144 6.59489 11.4858 6.57899 11.4637 6.55649C11.4416 6.534 11.4268 6.5059 11.4213 6.47564C11.4159 6.44537 11.4198 6.41424 11.4328 6.38607C11.4457 6.3579 11.4671 6.33391 11.4942 6.31703C11.5214 6.30014 11.5531 6.2911 11.5856 6.29102C11.6316 6.29274 11.675 6.31158 11.7063 6.3434C11.7376 6.37523 11.7543 6.41747 11.7528 6.4609Z" fill="#DA840D"/>
<path d="M14.1721 6.78355C14.1721 6.8685 14.0709 6.93751 13.9459 6.93751C13.8209 6.93751 13.7197 6.8685 13.7197 6.78355C13.7197 6.69861 13.8209 6.63623 13.9459 6.63623C14.0709 6.63623 14.1721 6.69861 14.1721 6.78355Z" fill="#DA840D"/>
<path d="M14.1721 7.57839C14.1721 7.62883 14.0709 7.66997 13.9459 7.66997C13.8209 7.66997 13.7197 7.62883 13.7197 7.57839C13.7197 7.52796 13.8209 7.48682 13.9459 7.48682C14.0709 7.48682 14.1721 7.52796 14.1721 7.57839Z" fill="#DA840D"/>
<path d="M15.702 7.06093C15.702 7.12995 15.6106 7.1857 15.4969 7.1857C15.3831 7.1857 15.2917 7.12995 15.2917 7.06093C15.2917 6.99192 15.3845 6.9375 15.4969 6.9375C15.6092 6.9375 15.702 6.99324 15.702 7.06093Z" fill="#DA840D"/>
<path d="M15.4575 7.94746C15.4677 7.98905 15.4639 8.0326 15.4467 8.07208C15.4296 8.11157 15.3998 8.14503 15.3616 8.16783C15.3235 8.19063 15.2787 8.20164 15.2336 8.19934C15.1885 8.19704 15.1452 8.18153 15.1099 8.15497C15.0745 8.12842 15.0487 8.09212 15.0362 8.05112C15.0236 8.01012 15.0249 7.96644 15.0397 7.92614C15.0546 7.88584 15.0824 7.85091 15.1193 7.82619C15.1561 7.80148 15.2001 7.7882 15.2453 7.7882C15.2958 7.78296 15.3464 7.79676 15.3861 7.82659C15.4258 7.85642 15.4515 7.89986 15.4575 7.94746Z" fill="#DA840D"/>
<path d="M17.1605 7.69807C17.1502 7.73676 17.1287 7.77197 17.0984 7.79973C17.0681 7.82748 17.0302 7.84666 16.9889 7.85511C16.9477 7.86356 16.9047 7.86093 16.865 7.84752C16.8252 7.83412 16.7902 7.81047 16.764 7.77925C16.7377 7.74803 16.7212 7.7105 16.7163 7.67088C16.7115 7.63127 16.7185 7.59116 16.7365 7.55509C16.7545 7.51902 16.7828 7.48844 16.8183 7.46679C16.8537 7.44515 16.8949 7.43331 16.9371 7.43262C16.9705 7.43555 17.0029 7.44484 17.0324 7.45991C17.0619 7.47499 17.0878 7.49554 17.1087 7.52034C17.1296 7.54513 17.1449 7.57366 17.1538 7.60421C17.1627 7.63475 17.165 7.66668 17.1605 7.69807Z" fill="#DA840D"/>
<path d="M17.0379 6.5354C17.0379 6.58849 16.9663 6.63096 16.8777 6.63096C16.7892 6.63096 16.719 6.58849 16.719 6.5354C16.719 6.48231 16.7892 6.44116 16.8777 6.44116C16.9663 6.44116 17.0379 6.48363 17.0379 6.5354Z" fill="#DA840D"/>
<path d="M18.3866 6.81279C18.3866 7.01851 18.2897 7.18574 18.1703 7.18574C18.0509 7.18574 17.9553 7.01851 17.9553 6.81279C17.9553 6.60707 18.0523 6.44116 18.1703 6.44116C18.2883 6.44116 18.3866 6.60839 18.3866 6.81279Z" fill="#DA840D"/>
<path d="M18.9259 6.43597C18.9257 6.45534 18.9193 6.4742 18.9077 6.49017C18.8961 6.50615 18.8798 6.51853 18.8608 6.52576C18.8418 6.53299 18.8209 6.53475 18.8008 6.53081C18.7808 6.52687 18.7624 6.51742 18.748 6.50363C18.7336 6.48984 18.7238 6.47234 18.7199 6.45332C18.716 6.43431 18.7182 6.41463 18.7261 6.39676C18.734 6.37889 18.7473 6.36363 18.7644 6.35289C18.7814 6.34216 18.8015 6.33643 18.822 6.33643C18.8357 6.33642 18.8494 6.33901 18.8621 6.34403C18.8748 6.34905 18.8863 6.3564 18.896 6.36566C18.9057 6.37492 18.9133 6.38591 18.9184 6.39798C18.9236 6.41005 18.9261 6.42296 18.9259 6.43597Z" fill="#DA840D"/>
<path d="M15.3832 6.11737C15.3832 6.21293 15.2525 6.29123 15.091 6.29123C14.9294 6.29123 14.7974 6.21293 14.7974 6.11737C14.7974 6.0218 14.928 5.94482 15.091 5.94482C15.2539 5.94482 15.3832 6.0218 15.3832 6.11737Z" fill="#DA840D"/>
<path d="M9.87613 5.2241C9.87613 5.2825 9.77358 5.33028 9.64714 5.33028C9.52071 5.33028 9.41675 5.2825 9.41675 5.2241C9.41675 5.1657 9.5193 5.11792 9.64714 5.11792C9.77498 5.11792 9.87613 5.1657 9.87613 5.2241Z" fill="#DA840D"/>
<path d="M11.2246 5.01023C11.2246 5.06996 11.108 5.11774 10.9633 5.11774C10.8186 5.11774 10.7034 5.06996 10.7034 5.01023C10.7034 4.95051 10.82 4.90405 10.9633 4.90405C11.1066 4.90405 11.2246 4.95183 11.2246 5.01023Z" fill="#DA840D"/>
<path d="M12.9218 5.27055C12.9218 5.35549 12.7644 5.42451 12.5692 5.42451C12.3739 5.42451 12.2166 5.35549 12.2166 5.27055C12.2166 5.18561 12.3753 5.11792 12.5692 5.11792C12.763 5.11792 12.9218 5.18561 12.9218 5.27055Z" fill="#DA840D"/>
<path d="M14.1722 5.01024C14.1724 5.03161 14.166 5.05258 14.1536 5.07046C14.1412 5.08834 14.1234 5.10233 14.1026 5.11063C14.0817 5.11893 14.0587 5.12117 14.0365 5.11706C14.0143 5.11296 13.9939 5.10269 13.9779 5.08758C13.9619 5.07246 13.951 5.05319 13.9467 5.03221C13.9424 5.01123 13.9447 4.98951 13.9535 4.96981C13.9623 4.95011 13.9771 4.93334 13.996 4.92162C14.015 4.90991 14.0371 4.9038 14.0598 4.90406C14.0896 4.90406 14.1182 4.91525 14.1392 4.93516C14.1603 4.95507 14.1722 4.98208 14.1722 5.01024Z" fill="#DA840D"/>
<path d="M13.9458 5.85044C13.9458 5.90221 13.839 5.94468 13.7056 5.94468C13.5721 5.94468 13.4653 5.90221 13.4653 5.85044C13.4653 5.79868 13.5735 5.75488 13.7056 5.75488C13.8376 5.75488 13.9458 5.79735 13.9458 5.85044Z" fill="#DA840D"/>
<path d="M15.8243 4.96403C15.8246 4.99479 15.8152 5.02495 15.7973 5.05066C15.7794 5.07637 15.7539 5.09648 15.7238 5.10844C15.6938 5.12039 15.6607 5.12366 15.6288 5.11782C15.5968 5.11198 15.5674 5.09729 15.5442 5.07563C15.5211 5.05396 15.5053 5.0263 15.4989 4.99614C15.4924 4.96598 15.4956 4.93469 15.508 4.90624C15.5204 4.87778 15.5414 4.85345 15.5685 4.83633C15.5956 4.81921 15.6274 4.81007 15.66 4.81006C15.6815 4.80989 15.7028 4.81374 15.7228 4.8214C15.7427 4.82906 15.7608 4.84037 15.7761 4.85469C15.7914 4.869 15.8035 4.88603 15.8118 4.9048C15.8201 4.92357 15.8243 4.94369 15.8243 4.96403Z" fill="#DA840D"/>
<path d="M16.719 5.59026C16.719 5.61548 16.6347 5.63672 16.5321 5.63672C16.4296 5.63672 16.3467 5.61548 16.3467 5.59026C16.3467 5.56504 16.4296 5.54248 16.5321 5.54248C16.6347 5.54248 16.719 5.56372 16.719 5.59026Z" fill="#DA840D"/>
<path d="M17.3023 5.27701C17.3058 5.29094 17.3047 5.30554 17.299 5.31881C17.2933 5.33208 17.2834 5.34335 17.2706 5.35107C17.2579 5.35878 17.2429 5.36256 17.2278 5.36187C17.2126 5.36119 17.1981 5.35607 17.1862 5.34724C17.1743 5.33841 17.1655 5.32629 17.1612 5.31257C17.1569 5.29885 17.1572 5.2842 17.1621 5.27066C17.167 5.25711 17.1762 5.24533 17.1885 5.23696C17.2008 5.22859 17.2155 5.22403 17.2307 5.22392C17.2476 5.22239 17.2644 5.22705 17.2778 5.23693C17.2911 5.24681 17.2999 5.26116 17.3023 5.27701Z" fill="#DA840D"/>
<path d="M16.719 5.59022C16.7157 5.619 16.7037 5.64628 16.6844 5.66876C16.6651 5.69124 16.6393 5.70797 16.6102 5.71692C16.581 5.72587 16.5498 5.72666 16.5202 5.7192C16.4906 5.71173 16.4639 5.69634 16.4433 5.67486C16.4228 5.65339 16.4093 5.62676 16.4044 5.59818C16.3995 5.5696 16.4035 5.5403 16.4158 5.51381C16.4282 5.48732 16.4484 5.46478 16.474 5.4489C16.4996 5.43302 16.5296 5.42448 16.5602 5.42432C16.5822 5.42534 16.6037 5.43044 16.6236 5.43933C16.6434 5.44823 16.6613 5.46074 16.676 5.47615C16.6908 5.49156 16.7021 5.50957 16.7095 5.52914C16.7169 5.54872 16.7201 5.56947 16.719 5.59022Z" fill="#DA840D"/>
<path d="M17.6208 5.32342C17.6208 5.37917 17.5337 5.4243 17.4255 5.4243C17.3173 5.4243 17.2302 5.37917 17.2302 5.32342C17.2302 5.26768 17.3173 5.22388 17.4255 5.22388C17.5337 5.22388 17.6208 5.269 17.6208 5.32342Z" fill="#DA840D"/>
<path d="M21.9045 5.45364C21.7078 3.80521 18.1844 2.4939 13.8659 2.4939C9.82548 2.4939 6.48191 3.64196 5.90592 5.13775C5.77287 5.33991 5.70096 5.57263 5.698 5.81066C5.698 7.52546 9.42088 9.23892 13.8659 9.23892C18.3108 9.23892 22.0028 7.64623 22.0028 5.92879C22.0025 5.76592 21.9691 5.60462 21.9045 5.45364Z" fill="#C66720"/>
<path d="M22.4003 5.15636C22.4003 6.87115 18.5454 8.46649 13.9051 8.46649C9.26487 8.46649 5.38184 6.75303 5.38184 5.04355C5.38184 3.33406 9.26487 2.25635 13.9051 2.25635C18.5454 2.25635 22.4003 3.44157 22.4003 5.15636Z" fill="#E3AC8A"/>
<path d="M22.3257 4.82608C22.3257 6.54088 18.6731 7.83626 14.037 7.83626C9.40101 7.83626 5.63599 6.44664 5.63599 4.73185C5.63599 3.01706 9.3968 1.62744 14.037 1.62744C18.6773 1.62744 22.3257 3.11129 22.3257 4.82608Z" fill="#DA840D"/>
<path d="M13.7844 6.83403C17.227 6.83403 20.0178 5.80305 20.0178 4.53127C20.0178 3.2595 17.227 2.22852 13.7844 2.22852C10.3418 2.22852 7.55103 3.2595 7.55103 4.53127C7.55103 5.80305 10.3418 6.83403 13.7844 6.83403Z" fill="#F0A508"/>
<path d="M9.58817 5.38052C9.58817 5.51324 9.42942 5.63004 9.23415 5.63004C9.03887 5.63004 8.88013 5.51855 8.88013 5.38052C8.88013 5.24249 9.03887 5.13232 9.23415 5.13232C9.42942 5.13232 9.58817 5.24381 9.58817 5.38052Z" fill="#DA840D"/>
<path d="M8.87982 4.33584C8.8779 4.3724 8.86467 4.40763 8.84176 4.43716C8.81886 4.46668 8.78729 4.48922 8.75097 4.50197C8.71465 4.51472 8.67516 4.51713 8.63741 4.50889C8.59965 4.50065 8.56528 4.48214 8.53856 4.45563C8.51183 4.42913 8.49391 4.3958 8.48703 4.35977C8.48015 4.32375 8.48461 4.28661 8.49985 4.25295C8.51509 4.21929 8.54044 4.19059 8.57277 4.17041C8.6051 4.15023 8.64298 4.13945 8.68173 4.1394C8.70842 4.13992 8.73474 4.14542 8.75917 4.15559C8.7836 4.16576 8.80566 4.1804 8.82407 4.19866C8.84248 4.21692 8.85689 4.23844 8.86646 4.26198C8.87603 4.28553 8.88057 4.31063 8.87982 4.33584Z" fill="#DA840D"/>
<path d="M11.3442 5.68312C11.3481 5.74731 11.3316 5.81114 11.2967 5.86634C11.2618 5.92155 11.2102 5.9656 11.1485 5.99278C11.0868 6.01996 11.0179 6.02903 10.9508 6.01882C10.8836 6.00861 10.8212 5.97957 10.7716 5.93549C10.7221 5.8914 10.6877 5.83428 10.6729 5.77152C10.6581 5.70876 10.6636 5.64325 10.6887 5.58347C10.7137 5.52369 10.7572 5.47239 10.8134 5.43621C10.8697 5.40002 10.9361 5.38062 11.0042 5.38051C11.0476 5.37928 11.0908 5.38612 11.1313 5.40066C11.1719 5.4152 11.209 5.43715 11.2406 5.46526C11.2721 5.49336 11.2975 5.52707 11.3153 5.56445C11.3331 5.60183 11.3429 5.64216 11.3442 5.68312Z" fill="#DA840D"/>
<path d="M10.5995 4.48592C10.5995 4.56953 10.5026 4.63589 10.3832 4.63589C10.2637 4.63589 10.1682 4.56953 10.1682 4.48592C10.1682 4.4023 10.2651 4.33594 10.3832 4.33594C10.5012 4.33594 10.5995 4.40363 10.5995 4.48592Z" fill="#DA840D"/>
<path d="M12.7716 5.19739C12.7767 5.23907 12.7683 5.28125 12.7475 5.31832C12.7266 5.3554 12.6944 5.38562 12.655 5.40498C12.6156 5.42434 12.5709 5.43193 12.5268 5.42674C12.4827 5.42155 12.4413 5.40382 12.4081 5.37592C12.375 5.34801 12.3515 5.31124 12.341 5.27047C12.3304 5.2297 12.3332 5.18687 12.349 5.14764C12.3648 5.10842 12.3929 5.07465 12.4295 5.05083C12.466 5.027 12.5094 5.01424 12.5538 5.01422C12.6084 5.01132 12.6619 5.02897 12.7027 5.0633C12.7436 5.09763 12.7683 5.14585 12.7716 5.19739Z" fill="#DA840D"/>
<path d="M12.8544 6.30289C12.8544 6.38783 12.7504 6.45684 12.6211 6.45684C12.4919 6.45684 12.3879 6.38783 12.3879 6.30289C12.3879 6.21794 12.4919 6.14893 12.6211 6.14893C12.7504 6.14893 12.8544 6.21794 12.8544 6.30289Z" fill="#DA840D"/>
<path d="M11.9242 4.65597C11.9217 4.68659 11.9099 4.71587 11.8901 4.74023C11.8703 4.76459 11.8434 4.78296 11.8127 4.7931C11.782 4.80325 11.7489 4.80472 11.7173 4.79734C11.6858 4.78997 11.6572 4.77406 11.6351 4.75157C11.6129 4.72908 11.5982 4.70098 11.5927 4.67071C11.5872 4.64044 11.5912 4.60932 11.6042 4.58114C11.6171 4.55297 11.6384 4.52898 11.6656 4.51209C11.6928 4.49521 11.7245 4.48617 11.757 4.48608C11.7798 4.48677 11.8023 4.49172 11.8231 4.50064C11.8439 4.50957 11.8626 4.5223 11.8781 4.5381C11.8937 4.55389 11.9057 4.57244 11.9136 4.59268C11.9216 4.61291 11.9251 4.63442 11.9242 4.65597Z" fill="#DA840D"/>
<path d="M14.3437 4.97964C14.3437 5.06459 14.2426 5.13228 14.1175 5.13228C13.9925 5.13228 13.8914 5.06459 13.8914 4.97964C13.8914 4.8947 13.9925 4.82568 14.1175 4.82568C14.2426 4.82568 14.3437 4.8947 14.3437 4.97964Z" fill="#DA840D"/>
<path d="M14.3437 5.77468C14.3437 5.82512 14.2426 5.86626 14.1175 5.86626C13.9925 5.86626 13.8914 5.82512 13.8914 5.77468C13.8914 5.72425 13.9925 5.68311 14.1175 5.68311C14.2426 5.68311 14.3437 5.72425 14.3437 5.77468Z" fill="#DA840D"/>
<path d="M15.8734 5.25708C15.8734 5.3261 15.7806 5.38052 15.6683 5.38052C15.5559 5.38052 15.4631 5.3261 15.4631 5.25708C15.4631 5.18807 15.5559 5.13232 15.6683 5.13232C15.7806 5.13232 15.8734 5.18807 15.8734 5.25708Z" fill="#DA840D"/>
<path d="M15.6289 6.14387C15.6391 6.18545 15.6353 6.229 15.6182 6.26849C15.601 6.30797 15.5712 6.34143 15.533 6.36424C15.4949 6.38704 15.4501 6.39805 15.405 6.39575C15.3599 6.39344 15.3166 6.37794 15.2813 6.35138C15.2459 6.32482 15.2201 6.28853 15.2076 6.24753C15.195 6.20653 15.1962 6.16285 15.2111 6.12254C15.226 6.08224 15.2538 6.04731 15.2906 6.0226C15.3275 5.99788 15.3715 5.9846 15.4167 5.9846C15.4671 5.97972 15.5175 5.99365 15.5571 6.02341C15.5968 6.05317 15.6225 6.09641 15.6289 6.14387Z" fill="#DA840D"/>
<path d="M17.3317 5.88628C17.3229 5.92552 17.3026 5.96161 17.273 5.99039C17.2435 6.01916 17.2059 6.03944 17.1646 6.04888C17.1234 6.05831 17.0802 6.05652 17.0399 6.04371C16.9997 6.0309 16.9642 6.0076 16.9374 5.97649C16.9106 5.94538 16.8937 5.90775 16.8886 5.86794C16.8835 5.82813 16.8904 5.78777 16.9086 5.75154C16.9268 5.7153 16.9555 5.68467 16.9913 5.66318C17.0271 5.6417 17.0687 5.63024 17.1111 5.63013C17.176 5.63715 17.2354 5.66789 17.2766 5.71576C17.3178 5.76362 17.3376 5.82483 17.3317 5.88628Z" fill="#DA840D"/>
<path d="M17.2081 4.73155C17.2081 4.78331 17.1379 4.82578 17.0494 4.82578C16.9609 4.82578 16.8906 4.78331 16.8906 4.73155C16.8906 4.67979 16.9609 4.63599 17.0494 4.63599C17.1379 4.63599 17.2081 4.67846 17.2081 4.73155Z" fill="#DA840D"/>
<path d="M18.558 5.00894C18.558 5.21466 18.4611 5.38057 18.3416 5.38057C18.2222 5.38057 18.1267 5.21466 18.1267 5.00894C18.1267 4.80322 18.2236 4.63599 18.3416 4.63599C18.4597 4.63599 18.558 4.80322 18.558 5.00894Z" fill="#DA840D"/>
<path d="M19.0973 4.63212C19.0967 4.65142 19.0902 4.67015 19.0784 4.68595C19.0667 4.70174 19.0502 4.71392 19.0312 4.72095C19.0122 4.72798 18.9914 4.72955 18.9714 4.72546C18.9514 4.72138 18.9331 4.71182 18.9189 4.69798C18.9046 4.68415 18.895 4.66665 18.8912 4.64767C18.8874 4.6287 18.8896 4.60909 18.8976 4.59129C18.9055 4.5735 18.9188 4.55832 18.9359 4.54764C18.9529 4.53696 18.9729 4.53126 18.9933 4.53125C19.0072 4.53142 19.0208 4.53417 19.0335 4.53933C19.0463 4.5445 19.0578 4.55197 19.0674 4.56134C19.0771 4.57071 19.0847 4.58178 19.0898 4.59393C19.0949 4.60607 19.0975 4.61905 19.0973 4.63212Z" fill="#DA840D"/>
<path d="M15.5544 4.31327C15.5544 4.40883 15.4237 4.48581 15.2622 4.48581C15.1006 4.48581 14.97 4.40883 14.97 4.31327C14.97 4.21771 15.1006 4.1394 15.2636 4.1394C15.4265 4.1394 15.5544 4.21771 15.5544 4.31327Z" fill="#DA840D"/>
<path d="M10.0531 3.41917C10.0531 3.47756 9.95059 3.52534 9.82415 3.52534C9.69771 3.52534 9.59375 3.47756 9.59375 3.41917C9.59375 3.36077 9.69631 3.31299 9.82415 3.31299C9.95199 3.31299 10.0531 3.36077 10.0531 3.41917Z" fill="#DA840D"/>
<path d="M11.3964 3.20652C11.3964 3.26492 11.2798 3.3127 11.1351 3.3127C10.9904 3.3127 10.8752 3.26492 10.8752 3.20652C10.8752 3.14812 10.9918 3.10034 11.1351 3.10034C11.2784 3.10034 11.3964 3.14812 11.3964 3.20652Z" fill="#DA840D"/>
<path d="M13.0932 3.46677C13.0932 3.55171 12.9358 3.62073 12.7406 3.62073C12.5453 3.62073 12.3879 3.55171 12.3879 3.46677C12.3879 3.38182 12.5453 3.31812 12.7406 3.31812C12.9358 3.31812 13.0932 3.38182 13.0932 3.46677Z" fill="#DA840D"/>
<path d="M14.3435 3.20628C14.3438 3.2276 14.3374 3.24852 14.3251 3.26637C14.3127 3.28422 14.295 3.29821 14.2743 3.30655C14.2535 3.31489 14.2306 3.31721 14.2084 3.31321C14.1863 3.30921 14.1659 3.29908 14.1498 3.2841C14.1337 3.26912 14.1228 3.24997 14.1183 3.22908C14.1138 3.20819 14.1159 3.18651 14.1245 3.16678C14.1331 3.14706 14.1476 3.13019 14.1664 3.11832C14.1851 3.10645 14.2072 3.10011 14.2298 3.10011C14.2446 3.09993 14.2594 3.10255 14.2732 3.1078C14.287 3.11306 14.2995 3.12085 14.3101 3.13073C14.3207 3.14061 14.3291 3.15237 14.3349 3.16534C14.3406 3.17831 14.3435 3.19223 14.3435 3.20628Z" fill="#DA840D"/>
<path d="M14.1172 4.04541C14.1172 4.0985 14.0104 4.13964 13.8769 4.13964C13.7435 4.13964 13.6367 4.0985 13.6367 4.04541C13.6367 3.99232 13.7449 3.95117 13.8769 3.95117C14.009 3.95117 14.1172 3.99364 14.1172 4.04541Z" fill="#DA840D"/>
<path d="M15.9954 3.15874C15.996 3.18956 15.9868 3.21984 15.9691 3.24573C15.9514 3.27161 15.9259 3.29193 15.896 3.30409C15.866 3.31625 15.8328 3.31971 15.8008 3.31402C15.7687 3.30833 15.7392 3.29375 15.7159 3.27214C15.6926 3.25054 15.6767 3.22287 15.6701 3.19268C15.6635 3.16249 15.6666 3.13113 15.679 3.1026C15.6913 3.07407 15.7124 3.04966 15.7395 3.03248C15.7666 3.01529 15.7985 3.00611 15.8311 3.00611C15.8525 3.00593 15.8737 3.00974 15.8936 3.01732C15.9134 3.0249 15.9315 3.03609 15.9467 3.05026C15.962 3.06444 15.9741 3.08131 15.9825 3.09992C15.9909 3.11854 15.9953 3.13852 15.9954 3.15874Z" fill="#DA840D"/>
<path d="M16.8904 3.78522C16.8904 3.81177 16.8061 3.833 16.7035 3.833C16.601 3.833 16.5181 3.81177 16.5181 3.78522C16.5181 3.75868 16.601 3.73877 16.7035 3.73877C16.8061 3.73877 16.8904 3.76001 16.8904 3.78522Z" fill="#DA840D"/>
<path d="M17.4732 3.47208C17.4767 3.486 17.4756 3.50061 17.4699 3.51388C17.4642 3.52715 17.4543 3.53842 17.4415 3.54614C17.4288 3.55385 17.4138 3.55763 17.3987 3.55694C17.3835 3.55625 17.369 3.55114 17.3571 3.54231C17.3451 3.53348 17.3364 3.52136 17.3321 3.50764C17.3278 3.49392 17.3281 3.47927 17.333 3.46572C17.3379 3.45218 17.3471 3.4404 17.3594 3.43203C17.3717 3.42366 17.3864 3.4191 17.4016 3.41899C17.4185 3.41746 17.4353 3.42211 17.4486 3.432C17.462 3.44188 17.4708 3.45623 17.4732 3.47208Z" fill="#DA840D"/>
<path d="M16.8905 3.78516C16.8926 3.80596 16.8901 3.82693 16.8831 3.84674C16.8761 3.86655 16.8648 3.88476 16.8499 3.9002C16.835 3.91565 16.8169 3.92799 16.7967 3.93643C16.7764 3.94487 16.7546 3.94924 16.7325 3.94924C16.7104 3.94924 16.6885 3.94487 16.6683 3.93643C16.6481 3.92799 16.6299 3.91565 16.6151 3.9002C16.6002 3.88476 16.5889 3.86655 16.5819 3.84674C16.5749 3.82693 16.5724 3.80596 16.5744 3.78516C16.5724 3.76437 16.5749 3.7434 16.5819 3.72359C16.5889 3.70378 16.6002 3.68557 16.6151 3.67013C16.6299 3.65468 16.6481 3.64234 16.6683 3.6339C16.6885 3.62546 16.7104 3.62109 16.7325 3.62109C16.7546 3.62109 16.7764 3.62546 16.7967 3.6339C16.8169 3.64234 16.835 3.65468 16.8499 3.67013C16.8648 3.68557 16.8761 3.70378 16.8831 3.72359C16.8901 3.7434 16.8926 3.76437 16.8905 3.78516Z" fill="#DA840D"/>
<path d="M17.7912 3.51982C17.7912 3.57556 17.7055 3.62069 17.5974 3.62069C17.4892 3.62069 17.4021 3.57556 17.4021 3.51982C17.4021 3.46407 17.4892 3.41895 17.5974 3.41895C17.7055 3.41895 17.7912 3.46407 17.7912 3.51982Z" fill="#DA840D"/>
<path d="M22.3637 3.50274C22.3637 4.5486 20.9307 5.54934 18.7602 6.17048C17.171 6.60615 15.5233 6.82208 13.8685 6.81154C12.1447 6.81154 10.7286 6.38284 9.29849 6.28064C6.91304 6.10545 5.34521 4.46233 5.34521 3.38461C5.34521 1.66982 9.22965 0.597412 13.8685 0.597412C18.5073 0.597412 22.3637 1.78794 22.3637 3.50274Z" fill="#E3AC8A"/>
<path d="M22.2569 3.27555C22.2569 4.99034 18.4947 6.37996 13.8544 6.37996C9.21418 6.37996 5.45337 4.99034 5.45337 3.27555C5.45337 1.56076 9.20996 0.171143 13.8544 0.171143C18.4989 0.171143 22.2569 1.56076 22.2569 3.27555Z" fill="#DA840D"/>
<path d="M19.9672 2.98231C19.9672 4.2538 17.1758 5.28507 13.7339 5.28507C10.2919 5.28507 7.50049 4.2538 7.50049 2.98231C7.50049 1.71081 10.2905 0.678223 13.7339 0.678223C17.1772 0.678223 19.9672 1.70949 19.9672 2.98231Z" fill="#F0A508"/>
<path d="M9.5374 3.83169C9.5374 3.96441 9.37865 4.07988 9.18337 4.07988C8.9881 4.07988 8.82935 3.9684 8.82935 3.83169C8.82935 3.69498 8.9881 3.5835 9.18337 3.5835C9.37865 3.5835 9.5374 3.69366 9.5374 3.83169Z" fill="#DA840D"/>
<path d="M8.82959 2.78739C8.82794 2.82402 8.81494 2.85939 8.79219 2.8891C8.76944 2.91881 8.73796 2.94155 8.70165 2.9545C8.66534 2.96745 8.6258 2.97004 8.58795 2.96195C8.5501 2.95385 8.51559 2.93543 8.48873 2.90897C8.46186 2.88251 8.44381 2.84917 8.43683 2.8131C8.42984 2.77704 8.43423 2.73982 8.44944 2.70609C8.46465 2.67236 8.49001 2.64359 8.52238 2.62335C8.55475 2.60312 8.59269 2.59232 8.6315 2.59229C8.65807 2.5928 8.68427 2.59826 8.70861 2.60835C8.73294 2.61843 8.75494 2.63295 8.77333 2.65107C8.79173 2.66918 8.80617 2.69055 8.81582 2.71394C8.82547 2.73733 8.83015 2.76229 8.82959 2.78739Z" fill="#DA840D"/>
<path d="M11.2938 4.13297C11.298 4.19719 11.2817 4.26114 11.247 4.31651C11.2123 4.37188 11.1608 4.41613 11.0992 4.44352C11.0376 4.47091 10.9686 4.48018 10.9014 4.47013C10.8341 4.46007 10.7716 4.43116 10.7219 4.38714C10.6722 4.34312 10.6377 4.28601 10.6228 4.22323C10.6078 4.16044 10.6132 4.09487 10.6382 4.03501C10.6632 3.97515 10.7067 3.92377 10.7629 3.88751C10.8192 3.85126 10.8857 3.83181 10.9538 3.83169C11.0412 3.82918 11.126 3.85949 11.1897 3.91596C11.2534 3.97243 11.2909 4.05047 11.2938 4.13297Z" fill="#DA840D"/>
<path d="M10.549 2.93733C10.549 3.01962 10.452 3.08731 10.3326 3.08731C10.2132 3.08731 10.1177 3.01962 10.1177 2.93733C10.1177 2.85504 10.2146 2.78735 10.334 2.78735C10.4534 2.78735 10.549 2.85372 10.549 2.93733Z" fill="#DA840D"/>
<path d="M12.7223 3.64824C12.7271 3.68964 12.7185 3.73146 12.6977 3.76816C12.6768 3.80485 12.6446 3.8347 12.6054 3.85375C12.5662 3.8728 12.5218 3.88016 12.4781 3.87485C12.4344 3.86954 12.3934 3.85181 12.3605 3.82401C12.3277 3.79621 12.3046 3.75965 12.2942 3.71916C12.2838 3.67868 12.2867 3.63617 12.3025 3.59727C12.3182 3.55837 12.3461 3.5249 12.3825 3.5013C12.4188 3.47769 12.4618 3.46506 12.5059 3.46508C12.5603 3.46254 12.6134 3.48035 12.654 3.51465C12.6945 3.54894 12.719 3.59695 12.7223 3.64824Z" fill="#DA840D"/>
<path d="M12.8036 4.75273C12.8036 4.83767 12.6996 4.90668 12.5704 4.90668C12.4411 4.90668 12.3372 4.83767 12.3372 4.75273C12.3372 4.66779 12.4411 4.6001 12.5704 4.6001C12.6996 4.6001 12.8036 4.66911 12.8036 4.75273Z" fill="#DA840D"/>
<path d="M11.8791 3.10582C11.877 3.13652 11.8653 3.16594 11.8457 3.19048C11.826 3.21502 11.7992 3.23361 11.7685 3.24395C11.7379 3.25429 11.7047 3.25594 11.673 3.2487C11.6413 3.24146 11.6126 3.22564 11.5904 3.20319C11.5681 3.18074 11.5532 3.15263 11.5476 3.12231C11.5421 3.092 11.546 3.0608 11.5589 3.03256C11.5718 3.00431 11.5932 2.98024 11.6204 2.96331C11.6476 2.94638 11.6794 2.93733 11.712 2.93726C11.7347 2.93794 11.757 2.94285 11.7777 2.95169C11.7984 2.96054 11.817 2.97315 11.8325 2.9888C11.8481 3.00446 11.8602 3.02285 11.8682 3.04293C11.8762 3.063 11.8799 3.08437 11.8791 3.10582Z" fill="#DA840D"/>
<path d="M14.2929 3.42959C14.2929 3.51454 14.1918 3.58355 14.0668 3.58355C13.9417 3.58355 13.8462 3.51454 13.8462 3.42959C13.8462 3.34465 13.9473 3.27563 14.0724 3.27563C14.1974 3.27563 14.2929 3.34465 14.2929 3.42959Z" fill="#DA840D"/>
<path d="M14.2929 4.22439C14.2929 4.27483 14.1918 4.31597 14.0668 4.31597C13.9417 4.31597 13.8462 4.27483 13.8462 4.22439C13.8462 4.17396 13.9473 4.13281 14.0724 4.13281C14.1974 4.13281 14.2929 4.17396 14.2929 4.22439Z" fill="#DA840D"/>
<path d="M15.8228 3.70693C15.8228 3.77595 15.7301 3.83169 15.6177 3.83169C15.5053 3.83169 15.4126 3.77595 15.4126 3.70693C15.4126 3.63791 15.5053 3.5835 15.6177 3.5835C15.7301 3.5835 15.8228 3.63924 15.8228 3.70693Z" fill="#DA840D"/>
<path d="M15.5784 4.59334C15.5663 4.63741 15.539 4.67643 15.5009 4.70428C15.4627 4.73213 15.4159 4.74724 15.3677 4.74724C15.3195 4.74724 15.2727 4.73213 15.2345 4.70428C15.1964 4.67643 15.1691 4.63741 15.157 4.59334C15.1691 4.54928 15.1964 4.51026 15.2345 4.48241C15.2727 4.45456 15.3195 4.43945 15.3677 4.43945C15.4159 4.43945 15.4627 4.45456 15.5009 4.48241C15.539 4.51026 15.5663 4.54928 15.5784 4.59334Z" fill="#DA840D"/>
<path d="M17.2812 4.33744C17.2876 4.36821 17.2867 4.39993 17.2786 4.43034C17.2705 4.46074 17.2553 4.48907 17.2342 4.51328C17.2132 4.5375 17.1867 4.557 17.1566 4.57039C17.1266 4.58378 17.0938 4.59073 17.0607 4.59073C17.0275 4.59073 16.9947 4.58378 16.9647 4.57039C16.9347 4.557 16.9082 4.5375 16.8871 4.51328C16.866 4.48907 16.8508 4.46074 16.8427 4.43034C16.8346 4.39993 16.8337 4.36821 16.8401 4.33744C16.8326 4.30615 16.8326 4.27367 16.8402 4.24239C16.8478 4.21112 16.8627 4.18186 16.8839 4.15679C16.9051 4.13171 16.932 4.11147 16.9626 4.09755C16.9932 4.08364 17.0267 4.07642 17.0607 4.07642C17.0946 4.07642 17.1281 4.08364 17.1587 4.09755C17.1893 4.11147 17.2162 4.13171 17.2374 4.15679C17.2586 4.18186 17.2735 4.21112 17.2811 4.24239C17.2887 4.27367 17.2887 4.30615 17.2812 4.33744Z" fill="#DA840D"/>
<path d="M17.1573 3.1853C17.1573 3.23706 17.0871 3.27953 16.9986 3.27953C16.9101 3.27953 16.8398 3.23706 16.8398 3.1853C16.8398 3.13354 16.9101 3.09106 16.9986 3.09106C17.0871 3.09106 17.1573 3.12955 17.1573 3.1853Z" fill="#DA840D"/>
<path d="M18.5077 3.45878C18.5077 3.66451 18.4108 3.83174 18.2914 3.83174C18.1719 3.83174 18.0764 3.66451 18.0764 3.45878C18.0764 3.25306 18.1719 3.08716 18.2914 3.08716C18.4108 3.08716 18.5077 3.25306 18.5077 3.45878Z" fill="#DA840D"/>
<path d="M19.0443 3.08196C19.0441 3.10133 19.0377 3.12019 19.0261 3.13616C19.0145 3.15214 18.9982 3.16452 18.9792 3.17175C18.9602 3.17898 18.9393 3.18074 18.9192 3.1768C18.8992 3.17286 18.8808 3.16341 18.8664 3.14962C18.852 3.13583 18.8422 3.11833 18.8383 3.09932C18.8344 3.0803 18.8366 3.06062 18.8445 3.04275C18.8524 3.02488 18.8657 3.00962 18.8828 2.99889C18.8998 2.98815 18.9199 2.98242 18.9404 2.98242C18.9681 2.98277 18.9945 2.99341 19.014 3.01204C19.0334 3.03067 19.0443 3.05579 19.0443 3.08196Z" fill="#DA840D"/>
<path d="M15.504 2.76336C15.504 2.85892 15.3734 2.93723 15.2104 2.93723C15.0475 2.93723 14.9182 2.85892 14.9182 2.76336C14.9182 2.6678 15.0489 2.59082 15.2104 2.59082C15.372 2.59082 15.504 2.6678 15.504 2.76336Z" fill="#DA840D"/>
<path d="M9.99674 1.8702C9.99674 1.9286 9.89419 1.97638 9.76635 1.97638C9.6385 1.97638 9.53735 1.9286 9.53735 1.8702C9.53735 1.8118 9.63991 1.7627 9.76635 1.7627C9.89278 1.7627 9.99674 1.81048 9.99674 1.8702Z" fill="#DA840D"/>
<path d="M11.3454 1.65623C11.3454 1.71595 11.2288 1.76241 11.0841 1.76241C10.9394 1.76241 10.8228 1.71595 10.8228 1.65623C10.8228 1.5965 10.9408 1.55005 11.0841 1.55005C11.2274 1.55005 11.3454 1.59252 11.3454 1.65623Z" fill="#DA840D"/>
<path d="M13.0424 1.91665C13.0424 2.0016 12.8851 2.07061 12.6898 2.07061C12.4945 2.07061 12.3372 2.0016 12.3372 1.91665C12.3372 1.83171 12.4945 1.7627 12.6898 1.7627C12.8851 1.7627 13.0424 1.83171 13.0424 1.91665Z" fill="#DA840D"/>
<path d="M14.2928 1.65648C14.293 1.6778 14.2866 1.69871 14.2743 1.71656C14.2619 1.73442 14.2443 1.7484 14.2235 1.75674C14.2027 1.76508 14.1798 1.7674 14.1576 1.76341C14.1355 1.75941 14.1151 1.74928 14.099 1.7343C14.083 1.71932 14.072 1.70016 14.0675 1.67927C14.063 1.65838 14.0651 1.6367 14.0737 1.61698C14.0823 1.59726 14.0969 1.58039 14.1156 1.56852C14.1343 1.55664 14.1564 1.5503 14.179 1.5503C14.1938 1.55013 14.2086 1.55274 14.2224 1.558C14.2362 1.56326 14.2488 1.57105 14.2594 1.58093C14.2699 1.5908 14.2783 1.60257 14.2841 1.61554C14.2898 1.62851 14.2928 1.64242 14.2928 1.65648Z" fill="#DA840D"/>
<path d="M14.0669 2.49644C14.0669 2.5482 13.9587 2.59067 13.8267 2.59067C13.6946 2.59067 13.5864 2.5482 13.5864 2.49644C13.5864 2.44468 13.6946 2.40088 13.8267 2.40088C13.9587 2.40088 14.0669 2.44335 14.0669 2.49644Z" fill="#DA840D"/>
<path d="M15.9435 1.60994C15.9444 1.64055 15.9355 1.6707 15.9182 1.69654C15.9008 1.72237 15.8756 1.74272 15.8459 1.75499C15.8162 1.76726 15.7833 1.77088 15.7515 1.7654C15.7196 1.75991 15.6901 1.74557 15.6669 1.72421C15.6437 1.70284 15.6278 1.67543 15.6211 1.64546C15.6145 1.61549 15.6175 1.58433 15.6297 1.55597C15.6419 1.5276 15.6627 1.50332 15.6896 1.48622C15.7165 1.46912 15.7482 1.45998 15.7806 1.45997C15.8232 1.45961 15.8642 1.47517 15.8947 1.50326C15.9253 1.53135 15.9428 1.56969 15.9435 1.60994Z" fill="#DA840D"/>
<path d="M16.84 2.2365C16.84 2.26172 16.7557 2.28295 16.6532 2.28295C16.5506 2.28295 16.4663 2.26172 16.4663 2.2365C16.4663 2.21128 16.5506 2.18872 16.6532 2.18872C16.7557 2.18872 16.84 2.20996 16.84 2.2365Z" fill="#DA840D"/>
<path d="M17.4229 1.923C17.4264 1.93693 17.4253 1.95154 17.4196 1.96481C17.4139 1.97807 17.404 1.98935 17.3912 1.99706C17.3785 2.00478 17.3635 2.00855 17.3484 2.00787C17.3332 2.00718 17.3187 2.00207 17.3068 1.99323C17.2949 1.9844 17.2861 1.97229 17.2818 1.95857C17.2775 1.94484 17.2778 1.9302 17.2827 1.91665C17.2876 1.9031 17.2968 1.89133 17.3091 1.88296C17.3214 1.87458 17.3361 1.87003 17.3513 1.86991C17.3682 1.86838 17.385 1.87304 17.3983 1.88293C17.4117 1.89281 17.4205 1.90716 17.4229 1.923Z" fill="#DA840D"/>
<path d="M16.84 2.23646C16.8368 2.26525 16.8248 2.29252 16.8055 2.31501C16.7862 2.33749 16.7604 2.35421 16.7313 2.36316C16.7021 2.37211 16.6709 2.3729 16.6413 2.36544C16.6117 2.35798 16.585 2.34258 16.5644 2.32111C16.5439 2.29963 16.5303 2.273 16.5255 2.24442C16.5206 2.21585 16.5246 2.18654 16.5369 2.16005C16.5493 2.13356 16.5695 2.11102 16.5951 2.09514C16.6207 2.07926 16.6506 2.07072 16.6813 2.07056C16.7032 2.07158 16.7248 2.07668 16.7447 2.08557C16.7645 2.09447 16.7823 2.10698 16.7971 2.12239C16.8118 2.1378 16.8232 2.15581 16.8306 2.17539C16.838 2.19496 16.8412 2.21571 16.84 2.23646Z" fill="#DA840D"/>
<path d="M17.7405 1.96966C17.7405 2.0254 17.6534 2.07053 17.5466 2.07053C17.4398 2.07053 17.3513 2.0254 17.3513 1.96966C17.3513 1.91392 17.4384 1.87012 17.5466 1.87012C17.6548 1.87012 17.7405 1.91392 17.7405 1.96966Z" fill="#DA840D"/>
<path d="M15.1302 10.2635C15.0983 10.1489 15.0242 10.0487 14.9212 9.9811C14.8182 9.91347 14.693 9.88278 14.5682 9.89456C13.7253 9.95163 13.655 11.2855 13.9515 11.8682C14.0397 11.9326 14.1507 11.9628 14.2617 11.9524C14.3727 11.942 14.4754 11.892 14.5485 11.8124C14.8183 11.5271 14.904 11.1143 14.9995 10.7506C15.0463 10.5896 15.0899 10.4272 15.1302 10.2635Z" fill="#EEBE30"/>
<path d="M21.3874 3.33268C21.0943 3.22566 20.824 3.06965 20.5895 2.87212C20.3091 2.61531 20.0508 2.33794 19.8168 2.0426C19.467 1.63647 18.9584 1.4772 18.4246 1.41747C17.8303 1.34978 17.2164 1.47454 16.6179 1.44534C16.297 1.43709 15.9824 1.35848 15.6991 1.21573C15.4182 1.06443 15.1976 0.81756 14.9574 0.603875C14.4868 0.205704 13.8897 0.205704 13.2954 0.115451C12.9018 0.0498047 12.5037 0.0112136 12.1041 -1.82581e-05C11.6953 -0.00930892 10.9802 -0.0146179 10.7063 0.353027C10.4028 0.485751 10.2961 0.838796 10.2272 1.1361C10.1884 1.38141 10.1269 1.62302 10.0432 1.85811C9.91836 2.12549 9.72528 2.35943 9.48124 2.53899C8.94599 2.95972 8.2843 3.18535 7.6788 3.47867C7.1871 3.71625 6.58442 4.05337 6.3203 4.52984C6.16156 4.8152 6.17982 5.30362 6.46079 5.51465C6.80779 5.76683 7.07191 5.29168 7.14636 5.05145C7.2152 4.83378 7.24049 4.61213 7.42733 4.44888C7.67904 4.24244 7.97824 4.09429 8.30116 4.0162C8.57229 3.94453 8.8631 3.94453 9.13002 3.86623C9.45042 3.75228 9.75181 3.59539 10.0249 3.40036C10.3452 3.19862 10.6571 3.00219 11.0378 2.9146C11.3539 2.84558 11.8428 2.8562 12.0915 3.08448C12.2278 3.24054 12.3452 3.41062 12.4413 3.59149C12.5694 3.76019 12.7392 3.89686 12.9358 3.98966C13.332 4.20334 13.7857 4.29758 14.2002 4.49135C14.3387 4.55942 14.4582 4.65769 14.5486 4.77804C14.5626 4.79795 14.5753 4.81785 14.5879 4.83909C14.5981 4.85412 14.6075 4.86962 14.616 4.88554C15.0684 5.67392 14.4994 6.50876 14.5149 7.34093C14.5149 7.78954 14.859 8.5235 15.4407 8.16382C15.48 8.13993 15.5165 8.11339 15.553 8.08684C15.6191 7.50551 15.6725 6.90958 15.886 6.36143C16.0869 5.85177 16.3608 5.3806 16.3313 4.81918C16.3145 4.50994 16.1585 4.22591 16.1206 3.92064C16.0672 3.49593 16.4718 3.30348 16.8357 3.21986C17.3548 3.08934 17.9051 3.12481 18.4007 3.32073C19.3335 3.68307 20.0865 4.4303 21.1233 4.55373C21.5335 4.60284 22.1278 4.54179 22.2908 4.1184C22.4537 3.69501 21.6796 3.4508 21.3874 3.33268Z" fill="#EEBE30"/>
<path opacity="0.5" d="M15.6793 3.88634C15.6367 3.74326 15.5582 3.61204 15.4503 3.50388C15.3424 3.39572 15.2084 3.31382 15.0598 3.26519C14.8462 3.2121 14.5091 3.34615 14.5357 3.59036C14.5361 3.59525 14.5376 3.60001 14.54 3.60435C14.5424 3.60868 14.5457 3.61251 14.5498 3.61558C14.4093 3.89828 14.8167 4.38538 14.9572 4.59243C15.0601 4.72499 15.125 4.88045 15.1455 5.04369C15.1693 5.25472 15.0977 5.46309 15.1188 5.67147C15.1272 5.76438 15.2016 6.16122 15.3997 6.00195C15.6259 5.82145 15.6498 5.41266 15.6962 5.15518C15.7896 4.73623 15.7839 4.30294 15.6793 3.88634Z" fill="white"/>
<path opacity="0.5" d="M19.7649 2.51231C19.5352 2.15229 19.169 1.88843 18.7408 1.77436C18.3081 1.65624 17.2699 1.52882 17.1603 2.12741C17.1594 2.13949 17.1626 2.15154 17.1694 2.1618C17.1762 2.17206 17.1863 2.18 17.1982 2.18448C17.2259 2.20357 17.2506 2.22637 17.2713 2.25217C17.2772 2.263 17.2865 2.27181 17.298 2.27739C17.3093 2.28124 17.3218 2.28124 17.3331 2.27739C17.4133 2.34682 17.5095 2.39771 17.6141 2.42604C17.8716 2.47992 18.1342 2.50927 18.398 2.51363C18.7633 2.54682 18.967 2.69547 19.2212 2.92641C19.3617 3.05913 19.7467 3.33785 19.9447 3.12682C20.0965 2.97817 19.8478 2.63441 19.7649 2.51231Z" fill="white"/>
<path opacity="0.5" d="M7.27992 4.17969C7.21834 4.17241 7.15605 4.17241 7.09447 4.17969C7.09472 4.17707 7.09434 4.17444 7.09334 4.17198C7.09235 4.16953 7.09078 4.16732 7.08875 4.16553C7.08671 4.16374 7.08427 4.16241 7.08162 4.16164C7.07896 4.16087 7.07615 4.16069 7.0734 4.16111C6.97072 4.17657 6.87324 4.21435 6.78864 4.27147C6.70405 4.32859 6.63465 4.40348 6.58592 4.49026C6.5522 4.55662 6.48617 4.78889 6.63087 4.80083C6.77557 4.81278 6.88937 4.66811 6.97085 4.59246C7.08894 4.4773 7.20055 4.35635 7.3052 4.23012C7.30831 4.22541 7.31011 4.22003 7.31045 4.21448C7.31078 4.20894 7.30964 4.2034 7.30712 4.19839C7.30461 4.19337 7.3008 4.18902 7.29604 4.18576C7.29129 4.18249 7.28574 4.1804 7.27992 4.17969Z" fill="white"/>
<path opacity="0.5" d="M24.2254 11.8324C24.1009 11.8074 23.9724 11.8062 23.8474 11.829C23.7224 11.8517 23.6035 11.898 23.4978 11.9649C23.3921 12.0319 23.3017 12.1182 23.2319 12.2188C23.1621 12.3194 23.1145 12.4322 23.0917 12.5505C23.0908 12.5547 23.091 12.5591 23.0922 12.5633C23.0934 12.5675 23.0955 12.5713 23.0985 12.5746C23.1014 12.5779 23.1051 12.5806 23.1093 12.5824C23.1135 12.5842 23.118 12.585 23.1226 12.585C23.1232 12.5938 23.1232 12.6027 23.1226 12.6115C23.0734 12.8186 22.8135 12.9141 22.6491 13.0017C22.5269 13.0654 22.4005 13.1225 22.274 13.1809C21.8526 13.3826 21.1895 13.6428 21.0588 14.1777C21.0567 14.1835 21.0566 14.1898 21.0583 14.1957C21.0601 14.2016 21.0637 14.2069 21.0687 14.2108C21.3215 14.3754 21.6124 14.1299 21.8104 13.9759C22.2102 13.6767 22.679 13.4707 23.1788 13.3747C23.7323 13.2605 24.7649 13.295 24.9644 12.5783C25.0852 12.1337 24.5499 11.8868 24.2254 11.8324Z" fill="white"/>
<path d="M15.171 1.5381C15.1219 1.47306 14.9968 1.3337 14.9125 1.32441C14.8648 1.32441 14.8465 1.23416 14.8015 1.24743C14.7566 1.26071 14.6878 1.29389 14.6259 1.24743C14.6052 1.22919 14.5831 1.21234 14.5599 1.197C14.547 1.18844 14.5322 1.18269 14.5167 1.18017C14.5011 1.17764 14.4852 1.17841 14.47 1.1824C14.4307 1.197 14.4152 1.25274 14.3674 1.21691C14.3197 1.18107 14.2059 1.23549 14.1778 1.28858C14.1683 1.30314 14.1608 1.31874 14.1553 1.33503C13.9881 1.35759 13.8195 1.60048 13.7563 1.71329C13.6972 1.82186 13.6696 1.94328 13.6763 2.0652C13.6829 2.18712 13.7236 2.3052 13.7943 2.40744C13.9474 2.65431 14.2593 2.68749 14.5346 2.69545C14.6431 2.70733 14.753 2.6983 14.8577 2.66891C14.9546 2.62878 15.0384 2.56512 15.1008 2.48442C15.3789 2.16057 15.4323 1.8792 15.171 1.5381Z" fill="#48264C"/>
<path d="M15.1711 1.5384C15.1232 1.47455 15.0665 1.41698 15.0025 1.36719C15.0084 1.58651 14.9334 1.80094 14.7904 1.9738C14.6474 2.14666 14.4453 2.26721 14.2186 2.31484C14.0588 2.34804 13.8926 2.34302 13.7354 2.30024C13.7522 2.33868 13.7719 2.37594 13.7944 2.41172C13.9475 2.65859 14.2594 2.69177 14.5347 2.69973C14.6432 2.71161 14.7531 2.70258 14.8578 2.67319C14.9547 2.63306 15.0385 2.5694 15.1009 2.4887C15.379 2.16088 15.4324 1.8795 15.1711 1.5384Z" fill="#300D33"/>
<path d="M15.418 14.7495C15.3729 14.6399 15.3 14.5424 15.2059 14.4655C15.1904 14.3832 15.1708 14.3022 15.1525 14.2199C15.1511 14.2119 15.1477 14.2043 15.1427 14.1976C15.1377 14.191 15.1312 14.1855 15.1236 14.1815C15.1161 14.1776 15.1077 14.1753 15.0991 14.1748C15.0904 14.1743 15.0818 14.1757 15.0738 14.1788C14.9474 14.2345 14.9193 14.1629 14.8322 14.0978C14.8183 14.0897 14.8022 14.0854 14.7858 14.0854C14.7695 14.0854 14.7534 14.0897 14.7395 14.0978C14.599 14.1881 14.4501 13.9744 14.3405 14.0978C14.2764 14.1909 14.2055 14.2796 14.1284 14.3633C14.0372 14.4178 13.9532 14.4824 13.8783 14.5557C13.8245 14.601 13.7772 14.6527 13.7378 14.7097C13.7219 14.7337 13.7074 14.7585 13.6943 14.784C13.683 14.8079 13.6732 14.8331 13.6648 14.857C13.6642 14.8596 13.6642 14.8624 13.6648 14.865C13.6079 15.0384 13.6114 15.2245 13.6746 15.3959C13.7814 15.7025 14.1185 15.8113 14.4206 15.8816C14.5374 15.9196 14.6612 15.935 14.7844 15.9268C14.9024 15.9039 15.0118 15.8522 15.1019 15.7768C15.4897 15.4848 15.6189 15.1862 15.418 14.7495Z" fill="#48264C"/>
<path d="M15.4183 14.7494C15.3823 14.6682 15.3351 14.5919 15.2778 14.5225C15.2282 14.7664 15.0903 14.9864 14.8878 15.1448C14.6853 15.3031 14.4308 15.39 14.1679 15.3905C13.982 15.3908 13.7989 15.347 13.6355 15.2631C13.6444 15.3081 13.6566 15.3524 13.672 15.3958C13.7788 15.7024 14.116 15.8112 14.418 15.8816C14.5348 15.9195 14.6586 15.9349 14.7819 15.9267C14.8998 15.9038 15.0093 15.8521 15.0994 15.7767C15.4899 15.4847 15.6191 15.1861 15.4183 14.7494Z" fill="#300D33"/>
<path d="M12.8782 1.3074C12.8347 1.22643 12.7223 1.04991 12.6296 1.02469C12.5818 1.01275 12.5818 0.929132 12.5355 0.921169C12.5214 0.801717 12.4638 0.676957 12.3163 0.702174C12.2826 0.702174 12.1927 0.791099 12.1576 0.740664C12.1403 0.710866 12.1124 0.687819 12.0789 0.67563C12.01 0.650412 11.9496 0.707483 11.9103 0.751282C11.8443 0.82428 11.76 0.716774 11.6743 0.751282C11.6333 0.774156 11.5998 0.8074 11.5777 0.847265C11.5556 0.887131 11.5458 0.932034 11.5493 0.976913C11.5493 0.984876 11.5493 0.990185 11.5493 0.998149C11.4432 1.07412 11.3487 1.16343 11.2683 1.2636C11.1813 1.37413 11.1269 1.50446 11.1106 1.64132C11.0943 1.77818 11.1167 1.91667 11.1756 2.04269C11.2992 2.34397 11.642 2.44086 11.9468 2.49262C12.0619 2.52322 12.1819 2.53312 12.3008 2.52182C12.4167 2.49297 12.5227 2.43627 12.6085 2.35724C12.9892 2.03738 13.1016 1.73344 12.8782 1.3074Z" fill="#48264C"/>
<path d="M12.8783 1.30724C12.8361 1.22801 12.7837 1.15401 12.7223 1.08691C12.6872 1.33403 12.5621 1.5619 12.3686 1.73143C12.1751 1.90095 11.9251 2.00155 11.6617 2.01598C11.4767 2.02503 11.2922 1.99036 11.125 1.91511C11.1362 1.96027 11.1507 2.00463 11.1686 2.04783C11.2922 2.34912 11.635 2.446 11.9398 2.49777C12.0574 2.52743 12.18 2.53553 12.3009 2.52166C12.4167 2.49281 12.5227 2.43611 12.6085 2.35708C12.9892 2.03722 13.1016 1.73328 12.8783 1.30724Z" fill="#300D33"/>
<path d="M18.3418 2.37978C18.2982 2.27758 18.1788 2.05328 18.072 2.01611C18.0116 1.99621 18.0144 1.87543 17.9526 1.88339C17.8683 1.89135 17.7883 1.91259 17.7222 1.83694C17.7013 1.80677 17.6783 1.77795 17.6534 1.75067C17.6397 1.73516 17.6225 1.72279 17.603 1.71451C17.5836 1.70623 17.5624 1.70226 17.541 1.70289C17.4848 1.71218 17.4469 1.78385 17.4005 1.72014C17.3345 1.6352 17.1842 1.6989 17.1308 1.76261C17.1143 1.77972 17.0997 1.79841 17.0872 1.81836C16.8625 1.8011 16.566 2.0838 16.4494 2.21653C16.3382 2.34811 16.2644 2.50431 16.2349 2.67037C16.2054 2.83642 16.2212 3.00683 16.2809 3.1655C16.4017 3.54377 16.7992 3.68047 17.1533 3.77205C17.2883 3.81768 17.4316 3.8371 17.5747 3.82912C17.7148 3.80232 17.8445 3.73991 17.9498 3.64862C18.4219 3.2823 18.5792 2.91996 18.3418 2.37978Z" fill="#48264C"/>
<path d="M18.3417 2.3799C18.2992 2.2803 18.2435 2.1862 18.176 2.09985C18.1212 2.39326 17.9594 2.65928 17.7187 2.85178C17.478 3.04427 17.1735 3.15108 16.8582 3.15368C16.6397 3.1523 16.4252 3.09742 16.2358 2.99441C16.2452 3.05055 16.2589 3.10599 16.2766 3.16032C16.3974 3.53858 16.795 3.67528 17.149 3.76686C17.284 3.8125 17.4273 3.83191 17.5705 3.82393C17.7105 3.79714 17.8402 3.73473 17.9456 3.64343C18.4218 3.28242 18.5791 2.92009 18.3417 2.3799Z" fill="#300D33"/>
<path d="M18.1353 13.6147C18.0805 13.4965 17.9358 13.2391 17.8079 13.1979C17.7349 13.1753 17.7349 13.0347 17.6675 13.0426C17.5677 13.0532 17.4722 13.0785 17.3865 12.9922C17.3612 12.957 17.333 12.9237 17.3022 12.8926C17.2845 12.8744 17.2627 12.8601 17.2384 12.8509C17.214 12.8417 17.1878 12.8379 17.1617 12.8396C17.0943 12.8502 17.0493 12.9325 16.9889 12.8608C16.9074 12.7626 16.729 12.8382 16.6644 12.9112C16.6451 12.9319 16.6277 12.9541 16.6124 12.9776C16.3427 12.959 15.9901 13.2908 15.851 13.4395C15.7197 13.5901 15.6329 13.7708 15.5993 13.9633C15.5658 14.1559 15.5867 14.3533 15.6599 14.5358C15.8102 14.9711 16.2893 15.1237 16.715 15.2246C16.8811 15.2782 17.0569 15.2994 17.2319 15.287C17.3985 15.2554 17.5531 15.1825 17.6801 15.076C18.2364 14.6539 18.4191 14.2318 18.1353 13.6147Z" fill="#48264C"/>
<path d="M18.1352 13.6148C18.0831 13.4993 18.0151 13.3908 17.9329 13.2922C17.8623 13.6374 17.6672 13.9487 17.3807 14.1731C17.0943 14.3974 16.7343 14.521 16.3623 14.5226C16.1003 14.523 15.8424 14.4614 15.6121 14.3434C15.6232 14.4088 15.6402 14.4731 15.6626 14.5359C15.813 14.9712 16.292 15.1238 16.7177 15.2247C16.8838 15.2783 17.0597 15.2995 17.2347 15.2871C17.4012 15.2554 17.5558 15.1826 17.6828 15.076C18.2363 14.654 18.419 14.2319 18.1352 13.6148Z" fill="#300D33"/>
<path d="M11.7823 12.6593C11.7823 12.6593 12.1574 12.5266 12.3751 12.9951C12.5929 13.4636 12.6715 13.9241 12.8893 14.1431C12.9491 14.1923 12.9963 14.2537 13.0272 14.3227C13.0582 14.3917 13.072 14.4665 13.0677 14.5413C13.0677 14.5413 12.4538 14.2241 12.2964 14.0555C12.063 13.8265 11.8631 13.569 11.7022 13.2897C11.5252 12.9526 11.4001 12.6367 11.4001 12.6367L11.7823 12.6593Z" fill="#5F825C"/>
<path d="M11.6349 12.5768C11.6349 12.5768 11.729 12.2092 11.2134 12.0592C10.6979 11.9092 10.2019 11.8867 9.94906 11.7075C9.88987 11.6565 9.81903 11.619 9.74203 11.5981C9.66504 11.5771 9.58397 11.5732 9.50513 11.5867C9.50513 11.5867 9.90832 12.1269 10.1036 12.2503C10.3716 12.4424 10.6654 12.6 10.9774 12.7188C11.3511 12.8516 11.6981 12.9285 11.6981 12.9285L11.6349 12.5768Z" fill="#5F825C"/>
<path d="M11.5618 12.7561C11.5618 12.7561 12.2544 13.2233 12.2347 13.8591C12.215 14.4948 12.215 14.812 11.8132 15.1664C11.4114 15.5208 10.6472 15.5407 10.251 15.7079C9.85486 15.8752 9.38142 16.0265 9.26763 16.1194C9.15383 16.2123 8.91219 16.3065 8.55676 16.1194C8.20133 15.9322 7.99482 15.9521 8.06225 15.4279C8.16307 14.7532 8.33533 14.0898 8.57643 13.4476C8.77311 12.9619 8.94732 12.5876 9.50364 12.4389C10.0369 12.3094 10.6005 12.3486 11.108 12.5504C11.4578 12.719 11.5618 12.7561 11.5618 12.7561Z" fill="#ED6366"/>
<path d="M8.14514 14.9223C8.45955 15.0339 8.79268 15.091 9.12854 15.0909C10.5053 15.0909 11.6208 14.1764 11.6208 13.0496C11.6211 12.9567 11.6136 12.864 11.5983 12.7722C11.7472 12.885 12.2459 13.3031 12.2291 13.8446C12.2094 14.479 12.2094 14.7976 11.8076 15.152C11.4058 15.5063 10.6416 15.5262 10.2454 15.6935C9.84924 15.8607 9.3758 16.012 9.26201 16.1049C9.14821 16.1978 8.90658 16.2921 8.55115 16.1049C8.19572 15.9178 7.9892 15.9364 8.05664 15.4134C8.07771 15.2754 8.10721 15.1068 8.14514 14.9223Z" fill="#C73A54"/>
<path d="M11.8697 14.1496C11.9638 14.1615 11.9863 14.0089 11.9933 13.8974C12.0005 13.8695 12.0005 13.8404 11.9933 13.8125V13.8032C11.9933 13.7926 11.9779 13.7899 11.9765 13.8032C11.9733 13.8034 11.9702 13.8044 11.9675 13.806C11.9648 13.8076 11.9626 13.8098 11.961 13.8125C11.9442 13.8483 11.7391 14.1337 11.8697 14.1496Z" fill="#E7D8C8"/>
<path d="M11.6731 13.5737C11.6744 13.5753 11.6761 13.5766 11.6781 13.5776C11.68 13.5785 11.6822 13.579 11.6844 13.579C11.6865 13.579 11.6887 13.5785 11.6906 13.5776C11.6926 13.5766 11.6943 13.5753 11.6956 13.5737C11.7232 13.5524 11.7455 13.5257 11.7611 13.4954C11.7766 13.4652 11.7849 13.4321 11.7855 13.3985C11.7931 13.3802 11.7973 13.3609 11.7982 13.3414C11.7984 13.3386 11.7979 13.3358 11.7967 13.3332C11.7954 13.3307 11.7935 13.3285 11.7911 13.3269C11.7887 13.3253 11.7858 13.3243 11.7829 13.324C11.7799 13.3238 11.777 13.3243 11.7743 13.3255C11.7743 13.3255 11.7574 13.3255 11.7588 13.3255C11.7186 13.3529 11.6886 13.3918 11.6732 13.4364C11.6578 13.481 11.6578 13.529 11.6731 13.5737Z" fill="#E7D8C8"/>
<path d="M11.2669 13.2721C11.3484 13.3332 11.3863 13.1938 11.4074 13.1022C11.4194 13.0745 11.4279 13.0456 11.4327 13.016C11.433 13.0126 11.4322 13.0092 11.4304 13.0063C11.4285 13.0034 11.4258 13.0012 11.4225 12.9998C11.4192 12.9985 11.4156 12.9982 11.4121 12.9989C11.4086 12.9997 11.4055 13.0015 11.4032 13.004C11.3638 13.0478 11.1868 13.2164 11.2669 13.2721Z" fill="#E7D8C8"/>
<path d="M11.2149 13.8643C11.216 13.8657 11.2175 13.8668 11.2192 13.8676C11.2209 13.8683 11.2228 13.8687 11.2247 13.8687C11.2266 13.8687 11.2284 13.8683 11.2301 13.8676C11.2318 13.8668 11.2333 13.8657 11.2345 13.8643C11.2614 13.8396 11.2849 13.812 11.3048 13.782C11.3537 13.7302 11.3841 13.6652 11.3919 13.5962C11.3919 13.5856 11.3806 13.5723 11.368 13.5776L11.3427 13.5936C11.2528 13.6559 11.146 13.7767 11.2149 13.8643Z" fill="#E7D8C8"/>
<path d="M11.3553 14.4577C11.4073 14.4882 11.4382 14.4178 11.4551 14.3448C11.4781 14.3076 11.4915 14.2658 11.4944 14.2227C11.4947 14.2199 11.4942 14.2171 11.4929 14.2146C11.4917 14.212 11.4898 14.2099 11.4874 14.2082C11.4849 14.2066 11.4821 14.2056 11.4791 14.2054C11.4762 14.2051 11.4732 14.2056 11.4705 14.2068H11.4537C11.4537 14.2068 11.4537 14.2068 11.4537 14.2161C11.4167 14.252 11.3876 14.2944 11.368 14.3409C11.3539 14.3714 11.3174 14.4377 11.3553 14.4577Z" fill="#E7D8C8"/>
<path d="M11.6209 14.7867C11.6771 14.8212 11.7361 14.7721 11.7614 14.7243C11.7752 14.6918 11.7856 14.658 11.7923 14.6235C11.809 14.5967 11.8191 14.5668 11.8218 14.5359C11.8251 14.5324 11.827 14.5279 11.827 14.5232C11.827 14.5186 11.8251 14.5141 11.8218 14.5106V14.5013C11.8218 14.4907 11.8035 14.4801 11.7923 14.4894C11.7459 14.5213 11.5352 14.7323 11.6209 14.7867Z" fill="#E7D8C8"/>
<path d="M11.0758 14.9698C11.1236 15.0322 11.1699 14.9698 11.2022 14.9087C11.2221 14.8921 11.2378 14.8716 11.2485 14.8487C11.2592 14.8258 11.2645 14.801 11.2641 14.776C11.264 14.7736 11.2634 14.7713 11.2622 14.7693C11.261 14.7672 11.2593 14.7655 11.2572 14.7642C11.2551 14.7629 11.2527 14.7621 11.2503 14.7618C11.2478 14.7616 11.2453 14.7619 11.243 14.7627C11.177 14.7866 11.0168 14.8928 11.0758 14.9698Z" fill="#E7D8C8"/>
<path d="M10.8116 14.2013C10.8523 14.1548 10.8996 14.1137 10.9521 14.0792C10.9549 14.0771 10.9584 14.0758 10.962 14.0755C10.9657 14.0752 10.9694 14.076 10.9725 14.0777C10.9757 14.0794 10.9783 14.082 10.9799 14.0851C10.9815 14.0882 10.9821 14.0917 10.9816 14.0952C10.9801 14.1149 10.9748 14.1342 10.9661 14.1522V14.1721C10.959 14.2276 10.9345 14.2798 10.8959 14.3221C10.8664 14.354 10.7975 14.3699 10.7694 14.3221C10.7413 14.2743 10.7863 14.2239 10.8116 14.2013Z" fill="#E7D8C8"/>
<path d="M10.7331 13.7331C10.7443 13.7742 10.8005 13.7703 10.8286 13.749C10.8474 13.7329 10.8627 13.7136 10.8735 13.6919C10.8997 13.6617 10.9153 13.6247 10.9185 13.5858C10.9186 13.5828 10.918 13.5799 10.9167 13.5772C10.9154 13.5745 10.9134 13.5721 10.9109 13.5703C10.9085 13.5685 10.9056 13.5673 10.9025 13.5667C10.8994 13.5662 10.8962 13.5663 10.8932 13.5672C10.8532 13.582 10.8176 13.6057 10.7893 13.6362C10.764 13.6588 10.7218 13.6959 10.7331 13.7331Z" fill="#E7D8C8"/>
<path d="M10.9748 12.7415C10.9795 12.7402 10.9845 12.7405 10.9889 12.7425C10.9934 12.7445 10.9968 12.7479 10.9987 12.7521C11.0093 12.7917 11.0075 12.8334 10.9935 12.872C10.9796 12.9106 10.954 12.9446 10.9201 12.9698C10.9174 12.9717 10.9144 12.9729 10.9111 12.9734C10.9079 12.9739 10.9046 12.9737 10.9014 12.9728C10.8983 12.9719 10.8954 12.9703 10.893 12.9682C10.8907 12.9661 10.8889 12.9634 10.8877 12.9605C10.8835 12.9512 10.8806 12.9414 10.8793 12.9313C10.8665 12.8941 10.8692 12.8537 10.887 12.8184C10.9048 12.7831 10.9362 12.7556 10.9748 12.7415Z" fill="#E7D8C8"/>
<path d="M10.4899 13.4714C10.532 13.5045 10.5672 13.4714 10.5924 13.4183C10.6245 13.388 10.6482 13.3507 10.6612 13.3097C10.6742 13.2687 10.6761 13.2253 10.6669 13.1833C10.665 13.1796 10.662 13.1765 10.6582 13.1744C10.6545 13.1723 10.6502 13.1712 10.6458 13.1714C10.5826 13.1794 10.5292 13.263 10.5053 13.3041C10.4815 13.3453 10.4365 13.4315 10.4899 13.4714Z" fill="#E7D8C8"/>
<path d="M10.4744 12.7093C10.4826 12.6998 10.4915 12.691 10.5011 12.6828C10.5043 12.6807 10.5079 12.6794 10.5118 12.6791C10.5156 12.6787 10.5195 12.6793 10.523 12.6808C10.5265 12.6822 10.5296 12.6845 10.5319 12.6874C10.5342 12.6903 10.5357 12.6938 10.5362 12.6974C10.5402 12.7281 10.5367 12.7592 10.526 12.7884C10.5152 12.8176 10.4976 12.8441 10.4744 12.8659C10.4747 12.8695 10.4747 12.873 10.4744 12.8765C10.4701 12.8847 10.4637 12.8917 10.4558 12.8968C10.4478 12.9019 10.4386 12.905 10.429 12.9058C10.4194 12.9066 10.4098 12.9051 10.401 12.9014C10.3922 12.8976 10.3846 12.8918 10.3789 12.8845C10.3185 12.8261 10.4042 12.7412 10.4744 12.7093Z" fill="#E7D8C8"/>
<path d="M9.99691 13.1954C10.025 13.1404 10.0694 13.0942 10.1247 13.0627C10.1279 13.0605 10.1318 13.0592 10.1357 13.0591C10.1397 13.059 10.1436 13.06 10.1469 13.062C10.1502 13.064 10.1529 13.0669 10.1544 13.0703C10.156 13.0738 10.1564 13.0776 10.1557 13.0812C10.1539 13.1059 10.1477 13.1302 10.1374 13.1529C10.1374 13.1609 10.1374 13.1688 10.1374 13.1755C10.1344 13.2049 10.1278 13.2338 10.1177 13.2617C10.1087 13.2888 10.0891 13.3116 10.0629 13.3255C10.061 13.3288 10.0581 13.3315 10.0547 13.3335C10.0512 13.3354 10.0473 13.3364 10.0433 13.3364C10.0393 13.3364 10.0353 13.3354 10.0319 13.3335C10.0284 13.3315 10.0255 13.3288 10.0236 13.3255C9.96881 13.2976 9.98567 13.2286 9.99691 13.1954Z" fill="#E7D8C8"/>
<path d="M9.89713 12.8742C9.89943 12.8757 9.90211 12.8764 9.90486 12.8764C9.90761 12.8764 9.91029 12.8757 9.91259 12.8742C9.93133 12.8574 9.9487 12.8392 9.96457 12.8198C10 12.7918 10.03 12.7581 10.0531 12.7203C10.0627 12.7037 10.0666 12.6847 10.0643 12.6659V12.6566C10.0643 12.6473 10.0643 12.6407 10.0503 12.6446C10.045 12.6386 10.0383 12.6339 10.0308 12.6309C10.0232 12.6279 10.0149 12.6267 10.0067 12.6274C9.91259 12.6287 9.81425 12.8092 9.89713 12.8742Z" fill="#E7D8C8"/>
<path d="M9.3296 13.0403C9.3577 13.0907 9.42373 13.0403 9.44761 13.0124C9.48588 12.9706 9.51245 12.9204 9.52488 12.8664C9.53469 12.8483 9.53998 12.8283 9.54033 12.808C9.54076 12.8051 9.54048 12.8021 9.53953 12.7992C9.53857 12.7964 9.53695 12.7938 9.5348 12.7917C9.53264 12.7895 9.53 12.7878 9.52707 12.7867C9.52414 12.7857 9.52099 12.7852 9.51785 12.7855C9.48504 12.7898 9.45388 12.8018 9.42717 12.8204C9.40045 12.8389 9.379 12.8634 9.36472 12.8916C9.34084 12.9301 9.30431 12.9952 9.3296 13.0403Z" fill="#E7D8C8"/>
<path d="M9.46874 13.5738C9.4856 13.615 9.53056 13.595 9.54742 13.5738C9.56428 13.5526 9.56287 13.5459 9.56989 13.5327C9.5977 13.5039 9.61742 13.4691 9.62724 13.4313C9.63706 13.3935 9.63666 13.3539 9.62609 13.3163C9.62512 13.3138 9.62354 13.3115 9.62147 13.3097C9.6194 13.3078 9.61689 13.3064 9.61416 13.3057C9.61143 13.3049 9.60855 13.3047 9.60574 13.3052C9.60293 13.3057 9.60028 13.3067 9.59799 13.3084C9.55863 13.3421 9.52788 13.3839 9.50808 13.4305C9.49122 13.465 9.44908 13.526 9.46874 13.5738Z" fill="#E7D8C8"/>
<path d="M10.0402 13.8034C10.0552 13.7367 10.0945 13.677 10.1512 13.6348C10.1537 13.6323 10.1568 13.6305 10.1603 13.6296C10.1639 13.6287 10.1676 13.6287 10.1711 13.6296C10.1746 13.6306 10.1777 13.6325 10.1801 13.635C10.1826 13.6376 10.1842 13.6407 10.1849 13.6441C10.1873 13.6688 10.1839 13.6937 10.1751 13.7171C10.1716 13.7464 10.1596 13.7743 10.1406 13.7977C10.1215 13.8211 10.096 13.8391 10.0669 13.8498H10.0528C10.0494 13.8503 10.0459 13.8499 10.0426 13.8489C10.0394 13.8479 10.0364 13.8461 10.0339 13.8438C10.0315 13.8415 10.0296 13.8387 10.0285 13.8356C10.0274 13.8325 10.0271 13.8292 10.0275 13.8259L10.0402 13.8034Z" fill="#E7D8C8"/>
<path d="M10.4506 13.9598C10.4535 13.958 10.4569 13.9569 10.4604 13.9566C10.4638 13.9563 10.4673 13.9569 10.4705 13.9582C10.4737 13.9595 10.4766 13.9616 10.4787 13.9642C10.4809 13.9668 10.4823 13.9698 10.4829 13.9731C10.4829 13.9731 10.4829 13.9731 10.4829 13.9824C10.4829 14.0567 10.4281 14.1761 10.3424 14.1828C10.3401 14.1831 10.3377 14.1831 10.3354 14.1825C10.3331 14.182 10.331 14.181 10.3292 14.1796C10.3273 14.1782 10.3258 14.1765 10.3247 14.1745C10.3236 14.1726 10.3229 14.1704 10.3228 14.1682C10.3252 14.1264 10.338 14.0857 10.3602 14.0495C10.3824 14.0133 10.4134 13.9825 10.4506 13.9598Z" fill="#E7D8C8"/>
<path d="M9.96868 14.2012C9.98628 14.1846 10.0061 14.1703 10.0277 14.1587C10.0389 14.1587 10.0586 14.1587 10.0586 14.1706C10.0558 14.2238 10.0329 14.2742 9.99397 14.3126C9.97788 14.3372 9.9544 14.3566 9.92654 14.3684C9.92281 14.3697 9.91868 14.3696 9.91501 14.3681C9.91134 14.3667 9.90843 14.3639 9.90687 14.3604C9.90687 14.3604 9.90687 14.3511 9.90687 14.3458C9.90607 14.3423 9.90607 14.3387 9.90687 14.3352C9.90215 14.3096 9.90549 14.2832 9.91648 14.2594C9.92746 14.2356 9.94562 14.2153 9.96868 14.2012Z" fill="#E7D8C8"/>
<path d="M9.59949 13.8284C9.60523 13.828 9.61091 13.8298 9.61535 13.8332C9.6198 13.8367 9.62267 13.8416 9.62337 13.847C9.62547 13.8584 9.62547 13.8701 9.62337 13.8815C9.62602 13.9009 9.62413 13.9205 9.61781 13.9391C9.6115 13.9577 9.60092 13.9747 9.58684 13.989C9.56811 14.0214 9.53912 14.0473 9.50395 14.0633C9.49552 14.0633 9.48569 14.0633 9.48148 14.054C9.45057 13.985 9.49833 13.8271 9.59949 13.8284Z" fill="#E7D8C8"/>
<path d="M8.96594 13.745C8.96688 13.7477 8.9684 13.7503 8.97042 13.7525C8.97243 13.7546 8.9749 13.7564 8.97766 13.7576C8.98042 13.7589 8.98342 13.7596 8.98648 13.7597C8.98954 13.7598 8.99258 13.7593 8.99544 13.7583C9.03897 13.7391 9.07418 13.7063 9.09516 13.6654C9.11613 13.6246 9.1216 13.5782 9.11063 13.534C9.10931 13.5312 9.10739 13.5288 9.10498 13.5268C9.10258 13.5248 9.09976 13.5233 9.0967 13.5224C9.09364 13.5215 9.09042 13.5213 9.08725 13.5217C9.08408 13.5221 9.08104 13.5231 9.07832 13.5247C9.04655 13.5458 9.01977 13.5729 8.99965 13.6043C8.98281 13.6236 8.97099 13.6464 8.96513 13.6709C8.95928 13.6953 8.95955 13.7207 8.96594 13.745Z" fill="#E7D8C8"/>
<path d="M9.02735 14.2572C9.02714 14.2299 9.0349 14.2031 9.04977 14.1797C9.06463 14.1562 9.08604 14.1372 9.11164 14.1245C9.11476 14.1232 9.11818 14.1226 9.12158 14.1229C9.12499 14.1231 9.12828 14.1241 9.13118 14.1258C9.13409 14.1275 9.13651 14.1298 9.13824 14.1326C9.13998 14.1354 9.14097 14.1385 9.14114 14.1417C9.14497 14.1681 9.14213 14.195 9.13285 14.2201C9.12357 14.2453 9.10812 14.268 9.08776 14.2864C9.0817 14.2943 9.07406 14.3011 9.06528 14.3063C9.06262 14.3077 9.05969 14.3085 9.05667 14.3088C9.05366 14.3091 9.05062 14.3087 9.04773 14.3079C9.04484 14.307 9.04217 14.3056 9.03988 14.3037C9.03758 14.3019 9.03571 14.2996 9.03437 14.297C9.03371 14.2955 9.03338 14.294 9.03338 14.2924C9.03338 14.2908 9.03371 14.2892 9.03437 14.2877C9.03056 14.2779 9.0282 14.2676 9.02735 14.2572Z" fill="#E7D8C8"/>
<path d="M10.3143 14.4498C10.3168 14.4496 10.3194 14.4499 10.3217 14.4507C10.3241 14.4515 10.3263 14.4527 10.3282 14.4543C10.33 14.4559 10.3315 14.4579 10.3325 14.4601C10.3335 14.4623 10.334 14.4646 10.334 14.467C10.3338 14.5024 10.3231 14.537 10.3029 14.5669C10.2828 14.5967 10.2541 14.6205 10.2202 14.6356C10.2156 14.6369 10.2107 14.6369 10.2061 14.6356H10.1865C10.1842 14.636 10.1819 14.6359 10.1797 14.6353C10.1775 14.6348 10.1754 14.6338 10.1737 14.6324C10.1719 14.631 10.1705 14.6292 10.1696 14.6272C10.1686 14.6253 10.1682 14.6231 10.1682 14.621C10.1759 14.5833 10.1933 14.5481 10.2188 14.5182C10.2442 14.4884 10.277 14.4649 10.3143 14.4498Z" fill="#E7D8C8"/>
<path d="M10.4633 14.8197C10.4628 14.8233 10.4634 14.8269 10.4648 14.8302C10.4662 14.8335 10.4685 14.8364 10.4715 14.8387C10.4744 14.8409 10.4779 14.8424 10.4816 14.8431C10.4854 14.8437 10.4892 14.8434 10.4928 14.8423H10.5026C10.5047 14.8436 10.5071 14.8443 10.5096 14.8443C10.5121 14.8443 10.5146 14.8436 10.5167 14.8423L10.5265 14.833C10.5538 14.815 10.5769 14.7919 10.5946 14.7652C10.6122 14.7386 10.6239 14.7088 10.6291 14.6777C10.6296 14.6747 10.6292 14.6715 10.628 14.6687C10.6268 14.6658 10.6248 14.6632 10.6222 14.6613C10.6197 14.6594 10.6166 14.6582 10.6133 14.6579C10.6101 14.6575 10.6068 14.6579 10.6038 14.6591C10.5588 14.6789 10.5215 14.7114 10.497 14.752C10.481 14.7722 10.4695 14.7952 10.4633 14.8197Z" fill="#E7D8C8"/>
<path d="M10.3804 15.2872C10.3982 15.2517 10.4241 15.2205 10.4562 15.1956C10.4699 15.1814 10.4849 15.1686 10.5012 15.1571C10.5058 15.1557 10.5107 15.1557 10.5153 15.1571C10.5181 15.1549 10.5216 15.1536 10.5252 15.1534C10.5289 15.1531 10.5326 15.1539 10.5357 15.1556C10.5389 15.1573 10.5415 15.1599 10.5431 15.163C10.5447 15.1661 10.5453 15.1696 10.5448 15.173C10.5393 15.2045 10.5244 15.2338 10.5017 15.2573C10.479 15.2809 10.4495 15.2977 10.4169 15.3058H10.4057C10.4027 15.3076 10.3992 15.3086 10.3957 15.3085C10.3921 15.3084 10.3887 15.3072 10.3859 15.3051C10.3831 15.3031 10.3811 15.3002 10.3801 15.297C10.3791 15.2938 10.3792 15.2903 10.3804 15.2872Z" fill="#E7D8C8"/>
<path d="M9.92512 15.0589C9.92638 15.0396 9.93205 15.0209 9.94176 15.0039C9.95146 14.9869 9.96496 14.9722 9.98132 14.9607C10.003 14.9395 10.0301 14.924 10.06 14.9155C10.0726 14.9155 10.0895 14.9155 10.0895 14.9315C10.0873 14.9692 10.0725 15.0053 10.0473 15.0346C10.022 15.0639 9.98765 15.085 9.94901 15.0947C9.94605 15.0951 9.94305 15.0949 9.94017 15.0942C9.93729 15.0934 9.9346 15.0922 9.93224 15.0904C9.92989 15.0887 9.92793 15.0865 9.92646 15.0841C9.925 15.0816 9.92407 15.0789 9.92372 15.0761C9.92234 15.075 9.92126 15.0737 9.92056 15.0721C9.91987 15.0705 9.91957 15.0688 9.91971 15.0672C9.91985 15.0655 9.92041 15.0638 9.92135 15.0624C9.92229 15.061 9.92359 15.0597 9.92512 15.0589Z" fill="#E7D8C8"/>
<path d="M9.60075 14.5147H9.61199C9.61652 14.513 9.62139 14.5124 9.62623 14.5128C9.63107 14.5133 9.63573 14.5148 9.63984 14.5172C9.64394 14.5197 9.64738 14.523 9.64986 14.527C9.65235 14.5309 9.65381 14.5354 9.65414 14.5399C9.64571 14.6076 9.5853 14.6952 9.51366 14.6992C9.50242 14.6992 9.48697 14.6912 9.48837 14.6793C9.48781 14.6444 9.49819 14.6102 9.51819 14.5809C9.53819 14.5516 9.56692 14.5286 9.60075 14.5147Z" fill="#E7D8C8"/>
<path d="M9.37307 15.1306C9.40156 15.0912 9.4423 15.061 9.48968 15.0444C9.49334 15.0429 9.49734 15.0424 9.50127 15.0429C9.50521 15.0434 9.50893 15.0449 9.51207 15.0472C9.51521 15.0494 9.51765 15.0525 9.51915 15.056C9.52064 15.0594 9.52114 15.0632 9.52059 15.0669C9.49457 15.1443 9.43829 15.2093 9.36324 15.2487C9.36007 15.2512 9.35627 15.2527 9.35224 15.2533C9.3482 15.2538 9.34409 15.2533 9.34034 15.2518C9.33659 15.2503 9.33334 15.2479 9.33094 15.2448C9.32854 15.2416 9.32708 15.238 9.32671 15.2341C9.32533 15.2147 9.3288 15.1952 9.33685 15.1772C9.3449 15.1592 9.35731 15.1433 9.37307 15.1306Z" fill="#E7D8C8"/>
<path d="M9.00206 14.7057C9.00309 14.679 9.01106 14.6529 9.02527 14.6298C9.03947 14.6066 9.05949 14.5871 9.08354 14.573C9.09478 14.573 9.11585 14.573 9.12007 14.5823C9.12522 14.6174 9.11962 14.6532 9.10394 14.6854C9.08826 14.7176 9.06314 14.745 9.03156 14.7641C9.02756 14.7671 9.02269 14.7689 9.01759 14.7693C9.01249 14.7696 9.00739 14.7685 9.00298 14.7661C8.99856 14.7636 8.99504 14.76 8.99287 14.7556C8.9907 14.7512 8.98998 14.7463 8.99082 14.7416C8.99378 14.7294 8.99754 14.7174 9.00206 14.7057Z" fill="#E7D8C8"/>
<path d="M8.6482 14.293C8.65276 14.2772 8.66262 14.2633 8.6763 14.2532L8.68473 14.2439C8.69456 14.232 8.72125 14.236 8.72125 14.2532C8.72029 14.2822 8.71054 14.3103 8.69315 14.3342C8.6922 14.3517 8.68732 14.3687 8.67884 14.3843C8.67037 14.3999 8.65849 14.4135 8.64399 14.4244C8.64132 14.426 8.63826 14.427 8.63509 14.4271C8.63193 14.4273 8.62877 14.4267 8.62594 14.4253C8.6231 14.424 8.62069 14.422 8.61892 14.4195C8.61716 14.417 8.61612 14.4141 8.61589 14.4112C8.61228 14.3695 8.62366 14.3278 8.6482 14.293Z" fill="#E7D8C8"/>
<path d="M8.99817 13.1463L9.01643 13.1237C9.02627 13.1144 9.04875 13.1237 9.04875 13.133C9.05138 13.1595 9.04756 13.1862 9.03757 13.211C9.02759 13.2359 9.01171 13.2582 8.99115 13.2764V13.2843C8.98899 13.2863 8.98633 13.2876 8.98343 13.2883C8.98053 13.289 8.9775 13.2889 8.97464 13.2881C8.97179 13.2873 8.96921 13.2858 8.96717 13.2837C8.96514 13.2816 8.96371 13.2791 8.96305 13.2764C8.96166 13.268 8.96166 13.2595 8.96305 13.2511C8.95736 13.2323 8.95765 13.2124 8.96389 13.1937C8.97014 13.1751 8.98206 13.1586 8.99817 13.1463Z" fill="#E7D8C8"/>
<path d="M8.82923 15.3336C8.83069 15.3361 8.83283 15.3382 8.83542 15.3396C8.83801 15.3411 8.84097 15.3418 8.84398 15.3418C8.84699 15.3418 8.84995 15.3411 8.85254 15.3396C8.85514 15.3382 8.85728 15.3361 8.85873 15.3336L8.86997 15.3217C8.89843 15.3007 8.9218 15.2742 8.93852 15.244C8.95524 15.2138 8.96492 15.1805 8.96691 15.1465C8.96726 15.1428 8.96651 15.139 8.96474 15.1357C8.96297 15.1324 8.96024 15.1296 8.95688 15.1277C8.95351 15.1257 8.94964 15.1247 8.94571 15.1248C8.94177 15.1248 8.93792 15.1259 8.9346 15.1279C8.87419 15.169 8.80254 15.2633 8.82923 15.3336Z" fill="#E7D8C8"/>
<path d="M8.49384 15.0549C8.49728 15.0375 8.50665 15.0217 8.52053 15.0098C8.52593 15.001 8.53255 14.993 8.5402 14.9859C8.54228 14.9832 8.54502 14.9809 8.54819 14.9794C8.55137 14.9779 8.55489 14.9771 8.55846 14.9771C8.56203 14.9771 8.56555 14.9779 8.56872 14.9794C8.5719 14.9809 8.57464 14.9832 8.57672 14.9859C8.58788 15.0151 8.58788 15.047 8.57672 15.0762C8.56929 15.1061 8.55268 15.1334 8.52896 15.1545C8.52667 15.1561 8.52402 15.1572 8.52121 15.1576C8.51841 15.1581 8.51552 15.1579 8.51279 15.1572C8.51006 15.1564 8.50756 15.155 8.50549 15.1532C8.50342 15.1513 8.50183 15.149 8.50086 15.1465C8.4927 15.1326 8.48784 15.1173 8.48663 15.1014C8.48542 15.0856 8.48788 15.0697 8.49384 15.0549Z" fill="#E7D8C8"/>
<path d="M8.5513 15.5074C8.55434 15.5053 8.55793 15.5039 8.56171 15.5035C8.56549 15.5031 8.56931 15.5037 8.57277 15.5052C8.57622 15.5067 8.57919 15.5091 8.58134 15.512C8.5835 15.515 8.58477 15.5184 8.58502 15.522C8.58858 15.554 8.58478 15.5864 8.57386 15.6168C8.56295 15.6473 8.54519 15.6752 8.5218 15.6986C8.5218 15.6986 8.5218 15.7065 8.5218 15.7092C8.52041 15.7123 8.51807 15.715 8.51507 15.7169C8.51207 15.7188 8.50855 15.7198 8.50494 15.7198C8.50134 15.7198 8.49781 15.7188 8.49481 15.7169C8.49181 15.715 8.48947 15.7123 8.48808 15.7092C8.47873 15.6733 8.47965 15.6357 8.49076 15.6002C8.50187 15.5648 8.52277 15.5327 8.5513 15.5074Z" fill="#E7D8C8"/>
<path d="M9.0696 15.7027C9.07431 15.7014 9.07933 15.7017 9.08389 15.7033C9.08846 15.705 9.09232 15.7081 9.09488 15.712C9.0964 15.7142 9.0972 15.7167 9.0972 15.7193C9.0972 15.7219 9.0964 15.7244 9.09488 15.7266C9.09535 15.7297 9.09535 15.7328 9.09488 15.7359C9.09472 15.7618 9.08816 15.7872 9.07572 15.8103C9.06328 15.8333 9.0453 15.8533 9.02324 15.8686C9.02069 15.8705 9.01772 15.8718 9.01456 15.8724C9.0114 15.873 9.00813 15.8729 9.00501 15.8721C9.00189 15.8714 8.99899 15.8699 8.99655 15.8679C8.99411 15.866 8.99218 15.8635 8.99092 15.8607C8.99027 15.858 8.99027 15.8553 8.99092 15.8527C8.98834 15.8529 8.98573 15.8526 8.9833 15.8517C8.98087 15.8509 8.97868 15.8495 8.97692 15.8477C8.97515 15.8459 8.97384 15.8437 8.97311 15.8414C8.97237 15.839 8.97222 15.8365 8.97266 15.8341C8.97626 15.8064 8.98697 15.7799 9.00386 15.757C9.02076 15.7341 9.04333 15.7155 9.0696 15.7027Z" fill="#E7D8C8"/>
<path d="M9.73834 15.3826C9.74126 15.3808 9.74462 15.3797 9.7481 15.3795C9.75158 15.3792 9.75508 15.3797 9.75829 15.381C9.76149 15.3824 9.7643 15.3844 9.76646 15.387C9.76862 15.3896 9.77006 15.3927 9.77065 15.3959C9.77204 15.4362 9.76095 15.476 9.73874 15.5104C9.71653 15.5449 9.68416 15.5724 9.64562 15.5897C9.63883 15.5922 9.63133 15.5922 9.62454 15.5897L9.60768 15.6003C9.60518 15.6012 9.60249 15.6014 9.59986 15.6011C9.59722 15.6008 9.5947 15.5999 9.59251 15.5984C9.59032 15.597 9.58851 15.5951 9.58724 15.5929C9.58597 15.5907 9.58527 15.5882 9.58521 15.5857C9.59118 15.5426 9.60826 15.5016 9.63496 15.4661C9.66167 15.4307 9.69716 15.4021 9.73834 15.3826Z" fill="#E7D8C8"/>
<path d="M10.8791 15.2909C10.882 15.2847 10.8858 15.2789 10.8903 15.2737C10.8881 15.2641 10.8881 15.2541 10.8903 15.2445C10.9062 15.2156 10.9319 15.1927 10.9634 15.1794C10.9746 15.1794 10.9901 15.1794 10.9943 15.1874C10.9999 15.2061 10.9999 15.2258 10.9943 15.2445C10.9898 15.2661 10.977 15.2853 10.9582 15.2983C10.9395 15.3113 10.9163 15.3172 10.8931 15.3148C10.8882 15.313 10.8841 15.3097 10.8815 15.3053C10.8789 15.3009 10.8781 15.2958 10.8791 15.2909Z" fill="#E7D8C8"/>
</g>

</svg>
