<svg width="29" height="40" viewBox="0 0 29 40" fill="none" xmlns="http://www.w3.org/2000/svg">
<path d="M23.0843 5.24426C23.0843 5.24426 23.0843 5.40513 23.0602 5.67861C22.9838 6.84893 22.7224 10.1427 22.1231 12.0169C21.9542 12.5397 21.4274 13.7744 20.808 15.1739C19.8991 17.2733 18.7891 19.6863 18.3668 20.7521C18.2301 21.098 16.9029 20.4424 16.549 20.3781C15.6562 20.2051 15.5476 18.6125 15.8371 17.2733C15.9309 16.8045 16.1021 16.3546 16.3439 15.9421L16.4203 15.8255L16.4726 15.749C16.9632 15.0332 17.7636 14.1082 18.4834 13.2676C19.0161 12.6865 19.4891 12.0532 19.8951 11.3774C20.2973 10.5208 21.5882 5.39306 21.5882 5.39306C22.1955 4.7335 23.0843 5.24426 23.0843 5.24426Z" fill="#FFEDE5"/>
<path d="M23.2534 4.68947C23.2091 4.88251 23.1729 5.06751 23.1448 5.21632C23.0925 5.4898 23.0684 5.67077 23.0684 5.67077C22.6179 6.14132 21.7412 5.67077 21.7412 5.67077C21.6815 5.59034 21.6277 5.50566 21.5803 5.41741C21.3387 5.00211 21.2425 4.51811 21.3068 4.04197C21.3712 3.67599 21.4355 2.83545 21.4355 2.83545H21.5964C21.7653 2.83545 21.8176 3.35828 21.8297 3.6036C21.8328 3.63704 21.8328 3.6707 21.8297 3.70414C21.8389 3.66086 21.8567 3.61985 21.8819 3.58349C21.9355 3.51865 22.0043 3.46816 22.0823 3.43657C22.1602 3.40497 22.2448 3.39327 22.3284 3.40251C22.5335 3.40251 22.7305 3.40251 22.9397 3.40251C23.0339 3.4005 23.1274 3.41975 23.2131 3.45882C23.2438 3.47144 23.2712 3.49067 23.2936 3.51512C23.563 3.7886 23.3257 4.40393 23.2534 4.68947Z" fill="#FFEDE5"/>
<path d="M23.2533 4.68928C23.2091 4.88232 23.1729 5.06732 23.1447 5.21612C23.1132 5.16811 23.0782 5.12242 23.0402 5.07939C22.8627 4.90715 22.6538 4.77062 22.4249 4.67721C22.1675 4.54047 21.4596 4.1383 21.6768 3.7321C21.7137 3.67669 21.7672 3.63444 21.8296 3.61145L21.89 3.59134C22.2228 3.54119 22.5588 3.51431 22.8954 3.51091C23.004 3.51091 23.1126 3.47471 23.2212 3.46265C23.2512 3.47625 23.2785 3.49534 23.3016 3.51895C23.563 3.78841 23.3257 4.40373 23.2533 4.68928Z" fill="#E0855C"/>
<path d="M17.1121 12.2663C17.2441 11.5101 17.4295 10.7642 17.6671 10.0342C17.6965 9.95562 17.7053 9.87076 17.6926 9.78779C17.6798 9.70481 17.646 9.62649 17.5944 9.56031C17.5427 9.49414 17.4749 9.44232 17.3975 9.40982C17.3201 9.37731 17.2357 9.36521 17.1523 9.37467C16.9804 9.40476 16.8129 9.4561 16.6536 9.5275C16.6536 9.5275 17.0558 8.36923 16.4887 7.98717C15.9216 7.6051 15.0811 8.33706 14.7553 8.88402C14.8184 8.76707 14.836 8.63095 14.8049 8.50179C14.7737 8.37263 14.6959 8.25954 14.5864 8.18423C14.1843 7.92684 12.3865 9.90956 12.7404 11.5384C13.0944 13.1672 13.2432 12.7087 13.2432 12.7087C13.2432 12.7087 16.9995 12.4754 17.1121 12.2663Z" fill="#3B2645"/>
<path d="M13.1426 12.0049C13.1026 11.9501 13.0503 11.9054 12.9898 11.8747C12.9294 11.8439 12.8625 11.8279 12.7947 11.8279C12.7268 11.8279 12.66 11.8439 12.5995 11.8747C12.5391 11.9054 12.4867 11.9501 12.4468 12.0049C12.0969 12.4071 12.6921 13.2114 13.1426 13.2597C13.169 12.8418 13.169 12.4228 13.1426 12.0049Z" fill="#E0855C"/>
<path d="M19.6296 16.8712C19.0958 18.1322 18.6732 19.4376 18.3668 20.7723C18.3426 20.9009 18.3185 21.0216 18.2984 21.1382C18.1657 21.9426 17.7635 25.908 17.6992 26.5314C17.6992 26.5837 17.6992 26.6118 17.6992 26.6118C14.5501 27.4805 11.2644 26.6118 11.2644 26.6118C11.2644 26.6118 11.2644 26.5515 11.2644 26.4349C11.192 25.6627 10.8823 22.4574 10.6973 19.6864C10.6008 18.2707 10.5405 16.9717 10.5565 16.1633C10.5565 15.8657 11.2483 15.8979 11.7228 15.8295C12.2925 15.7564 12.8659 15.7161 13.4401 15.7089H13.6171L13.6573 15.2464L13.6895 14.9367L13.7659 14.1082C13.8182 14.1082 13.8705 14.1283 13.9227 14.1324C14.0237 14.1509 14.1258 14.1616 14.2284 14.1645C14.3529 14.1747 14.4779 14.1747 14.6024 14.1645L14.7794 14.1444C14.8577 14.1366 14.9356 14.1245 15.0126 14.1082C15.1413 14.0801 15.266 14.0439 15.3826 14.0077L15.4872 13.9715H15.5153L15.5958 13.9393C15.7458 13.8796 15.8911 13.8083 16.0301 13.7262C16.1065 13.6819 16.1709 13.6377 16.2232 13.6015L16.2594 13.5774L16.3277 13.5251C16.3468 13.5157 16.3634 13.5019 16.376 13.4849C16.376 13.5452 16.376 13.5693 16.376 13.5975C16.3398 13.8589 16.3036 14.1967 16.2875 14.5345C16.2875 14.7638 16.2634 14.993 16.2553 15.1941C16.2553 15.5359 16.2553 15.7853 16.2553 15.7853C16.3304 15.7813 16.4055 15.7813 16.4806 15.7853C16.4842 15.7832 16.4884 15.7821 16.4926 15.7821C16.4969 15.7821 16.501 15.7832 16.5047 15.7853C16.8326 15.8006 17.1591 15.8383 17.482 15.8979C18.2233 16.0311 18.9362 16.291 19.5894 16.6661C19.6187 16.6903 19.6388 16.724 19.6461 16.7614C19.6535 16.7988 19.6476 16.8376 19.6296 16.8712Z" fill="#FFEDE5"/>
<path d="M16.3682 13.4487C16.3146 13.7369 16.1976 14.0096 16.0255 14.2469C15.8535 14.4842 15.6308 14.6803 15.3736 14.8208C15.1163 14.9614 14.8311 15.0429 14.5384 15.0595C14.2458 15.076 13.9531 15.0273 13.6816 14.9167L13.7581 14.0882C14.2135 14.176 14.6826 14.1644 15.1331 14.054C15.5836 13.9436 16.0049 13.7372 16.3682 13.4487Z" fill="#E0855C"/>
<path d="M13.2432 10.7983C13.01 11.0356 12.9939 11.5785 12.9738 12.1737C12.9135 13.9795 13.4564 14.5466 14.3774 14.6431C15.2984 14.7396 16.2676 14.3897 16.4647 12.7127C16.5652 11.8761 16.6698 11.104 16.3681 10.738C15.8936 10.1991 13.931 10.0583 13.2432 10.7983Z" fill="#FFEDE5"/>
<path d="M16.3159 12.4715C16.3159 12.4715 16.6014 11.7235 17.0438 12.1216C17.4862 12.5198 16.8628 13.6539 16.1952 13.5654C16.1952 13.5654 16.0987 12.7289 16.3159 12.4715Z" fill="#FFEDE5"/>
<path d="M16.8387 12.4472C16.7346 12.4833 16.6408 12.544 16.5652 12.6241C16.4832 12.6945 16.4162 12.7807 16.3682 12.8775C16.3682 12.9097 16.3963 12.9258 16.4204 12.9097C16.4446 12.8936 16.521 12.789 16.5773 12.7327C16.6115 12.7771 16.6556 12.8129 16.706 12.8373C16.7152 12.8388 16.7247 12.8378 16.7335 12.8343C16.7422 12.8309 16.7498 12.8252 16.7556 12.8178C16.7613 12.8104 16.765 12.8016 16.7662 12.7923C16.7674 12.7829 16.766 12.7735 16.7623 12.7649C16.7343 12.7235 16.6971 12.6891 16.6537 12.6644C16.7289 12.6149 16.8001 12.5598 16.8669 12.4995C16.8709 12.4945 16.8733 12.4885 16.8739 12.4822C16.8745 12.4759 16.8732 12.4695 16.8702 12.4639C16.8672 12.4584 16.8626 12.4538 16.857 12.4508C16.8514 12.4478 16.845 12.4466 16.8387 12.4472Z" fill="#E0855C"/>
<path d="M13.7458 12.1297C13.7458 12.1297 13.589 12.19 13.6131 11.9125C13.6372 11.635 13.7458 11.6993 13.7458 11.6993C13.7458 11.6993 13.8544 11.6993 13.8383 11.9165C13.8223 12.1337 13.7458 12.1297 13.7458 12.1297Z" fill="#3B2645"/>
<path d="M15.3303 12.1297C15.3303 12.1297 15.1735 12.19 15.1976 11.9125C15.2217 11.635 15.3303 11.6993 15.3303 11.6993C15.3303 11.6993 15.4389 11.6993 15.4228 11.9165C15.4067 12.1337 15.3303 12.1297 15.3303 12.1297Z" fill="#3B2645"/>
<path d="M14.4496 12.8696C14.3732 12.8696 14.1923 12.9018 14.152 12.8173C14.1676 12.6256 14.2068 12.4365 14.2687 12.2543C14.343 12.0085 14.4034 11.7588 14.4496 11.5063C14.4496 11.5063 14.4496 11.4861 14.4215 11.5063C14.2625 11.9437 14.1375 12.3928 14.0475 12.8495C14.0463 12.8551 14.0464 12.8609 14.0476 12.8664C14.0488 12.872 14.0513 12.8772 14.0547 12.8818C14.0581 12.8864 14.0625 12.8902 14.0675 12.8929C14.0725 12.8957 14.078 12.8973 14.0837 12.8978C14.2003 12.8978 14.3129 12.9219 14.4295 12.9219C14.4858 12.938 14.4979 12.8736 14.4496 12.8696Z" fill="#E0855C"/>
<path d="M13.9187 11.2931C13.8061 11.2328 13.597 11.2207 13.5165 11.3373C13.5137 11.3422 13.5122 11.3478 13.5122 11.3535C13.5122 11.3592 13.5137 11.3647 13.5166 11.3696C13.5194 11.3745 13.5236 11.3786 13.5285 11.3814C13.5334 11.3842 13.539 11.3856 13.5447 11.3856C13.601 11.3856 13.6492 11.3574 13.7055 11.3534C13.7645 11.3506 13.8234 11.3602 13.8785 11.3816C13.9308 11.3977 13.967 11.3172 13.9187 11.2931Z" fill="#3B2645"/>
<path d="M15.5637 11.4299C15.4993 11.269 15.2218 11.2529 15.1052 11.3534C15.0984 11.3567 15.0927 11.3619 15.0887 11.3683C15.0846 11.3747 15.0825 11.3821 15.0825 11.3896C15.0825 11.3972 15.0846 11.4046 15.0887 11.411C15.0927 11.4174 15.0984 11.4225 15.1052 11.4258C15.1736 11.45 15.246 11.4258 15.3184 11.4258C15.3768 11.4352 15.4337 11.4528 15.4873 11.4781C15.5396 11.4942 15.5758 11.458 15.5637 11.4299Z" fill="#3B2645"/>
<path d="M14.0476 13.4287C14.393 13.474 14.7439 13.4122 15.053 13.2517C15.0068 13.3586 14.9389 13.4549 14.8538 13.5344C14.7687 13.614 14.6682 13.6752 14.5584 13.7142C14.2085 13.8188 14.0476 13.4287 14.0476 13.4287Z" fill="white"/>
<path d="M13.4001 20.3781C13.0542 20.4425 11.4656 20.6194 11.1841 20.3781C10.982 20.1765 10.8149 19.9428 10.6894 19.6864C10.0452 18.3296 9.48253 16.9356 9.00431 15.5118C8.4654 13.9916 8.00692 12.5759 7.83399 12.037C7.21062 10.1428 6.96931 6.84497 6.8929 5.67464C6.87279 5.40117 6.86475 5.24432 6.86475 5.24432C6.86475 5.24432 7.74551 4.74562 8.3729 5.40117C8.3729 5.40117 9.68399 10.5329 10.0701 11.3895C10.3943 11.9478 10.7757 12.4707 11.2082 12.95C11.9522 13.8428 12.8692 14.8884 13.4322 15.6888L13.5368 15.8376L13.6132 15.9542C13.9678 16.5972 14.179 17.3092 14.2326 18.0415C14.3371 19.1515 14.132 20.2374 13.4001 20.3781Z" fill="#FFEDE5"/>
<path d="M8.37275 5.40118C8.32536 5.48943 8.2716 5.57411 8.21188 5.65455C8.21188 5.65455 7.33916 6.13715 6.89275 5.67465C6.89275 5.67465 6.87264 5.54998 6.83645 5.35694C6.80025 5.16389 6.76003 4.95476 6.69971 4.68933C6.65145 4.49629 6.33775 3.72813 6.49862 3.59139C6.5371 3.56535 6.5812 3.54881 6.62732 3.54313L7.16623 3.44661C7.4759 3.39031 7.99471 3.30585 8.11938 3.69596C8.11938 3.47074 8.11938 2.93987 8.35264 2.82324H8.52155C8.52155 2.82324 8.58188 3.6477 8.64623 4.02976C8.70969 4.50458 8.61348 4.98702 8.37275 5.40118Z" fill="#FFEDE5"/>
<path d="M10.6492 27.3277C10.6492 27.3277 8.9842 31.82 8.91583 40.3179C8.91583 40.9936 7.60072 45.6709 8.11148 52.2062L10.0701 52.5762C10.0701 52.5762 11.9683 45.6749 12.0528 40.9654C12.0528 40.9654 14.4658 32.6083 14.6307 28.7635C14.7956 24.9187 12.2378 23.672 10.6492 27.3277Z" fill="#FFEDE5"/>
<path d="M18.2382 27.3277C18.2382 27.3277 19.9032 31.82 19.9676 40.3179C19.9676 40.9936 21.2867 45.6709 20.7719 52.2062L18.8134 52.5762C18.8134 52.5762 16.9191 45.6749 16.8306 40.9654C16.8306 40.9654 14.4176 32.6083 14.2527 28.7635C14.0878 24.9187 16.6497 23.672 18.2382 27.3277Z" fill="#FFEDE5"/>
<path d="M20.808 15.174C19.8991 17.2733 18.7931 19.6864 18.3668 20.7521C18.3426 20.8808 18.3185 21.0015 18.2984 21.1181C18.1657 21.9225 17.7635 25.8879 17.6992 26.5113C16.6093 26.8451 14.3933 27.2392 11.2644 26.4147C11.192 25.6426 10.8823 22.4372 10.6973 19.6663C10.0531 18.3095 9.49042 16.9155 9.01221 15.4917C9.76427 15.0171 10.818 14.1685 11.2161 12.95C11.9601 13.8428 12.8771 14.8884 13.4401 15.6888H13.5206C13.5206 15.733 13.5206 15.7853 13.5447 15.8376C13.6451 16.6074 13.8806 17.3535 14.2405 18.0415C14.2925 18.1374 14.3661 18.22 14.4554 18.2828C14.5447 18.3456 14.6473 18.3869 14.7552 18.4034C15.1574 18.4034 15.5395 17.8967 15.8451 17.2854C16.0743 16.8175 16.2692 16.3337 16.4283 15.8376L16.4564 15.7611C16.4601 15.759 16.4643 15.7579 16.4685 15.7579C16.4727 15.7579 16.4769 15.759 16.4806 15.7611C16.9712 15.0453 17.7716 14.1203 18.4914 13.2797C18.8735 13.8267 19.7905 14.9206 20.808 15.174Z" fill="#E8CEE5"/>
<path d="M20.056 36.4851C18.9996 37.0354 17.8077 37.2712 16.6214 37.1648C16.2035 37.1293 15.7951 37.0203 15.4149 36.8431L14.4497 31.4539L13.5126 36.8431C11.4776 37.5791 8.68652 36.2358 8.68652 36.2358C9.57533 27.5207 11.2323 26.2136 11.2323 26.2136C13.963 27.1024 17.7234 26.2418 17.7234 26.2418C19.6498 28.8278 20.056 36.4851 20.056 36.4851Z" fill="#3B2645"/>
<path d="M6.87281 5.3368H6.83661C6.80444 5.16387 6.7602 4.93463 6.69987 4.6692C6.65161 4.47615 6.34194 3.71202 6.49878 3.57126C6.53759 3.54586 6.58154 3.52938 6.62748 3.523L7.16639 3.42648C7.39466 3.36826 7.63389 3.36826 7.86215 3.42648C7.97061 3.47688 8.06151 3.55858 8.12315 3.66107C8.18479 3.76356 8.21435 3.88216 8.20802 4.00159C8.20802 4.7255 7.06183 5.23626 6.87281 5.3368Z" fill="#E0855C"/>
<path d="M28.4493 3.79247H0.232824C0.168564 3.78452 0.109429 3.75335 0.0665483 3.70483C0.0236678 3.65632 0 3.5938 0 3.52905C0 3.4643 0.0236678 3.40178 0.0665483 3.35327C0.109429 3.30475 0.168564 3.27358 0.232824 3.26562H28.4493C28.5136 3.27358 28.5727 3.30475 28.6156 3.35327C28.6585 3.40178 28.6822 3.4643 28.6822 3.52905C28.6822 3.5938 28.6585 3.65632 28.6156 3.70483C28.5727 3.75335 28.5136 3.78452 28.4493 3.79247Z" fill="#3B2645"/>
<path d="M1.12963 4.87839C1.01086 4.87839 0.8969 4.83149 0.812542 4.74789C0.728184 4.66428 0.68026 4.55074 0.679199 4.43198V2.62622C0.679199 2.50675 0.726656 2.39218 0.811128 2.30771C0.895601 2.22324 1.01017 2.17578 1.12963 2.17578C1.2491 2.17578 1.36367 2.22324 1.44814 2.30771C1.53261 2.39218 1.58007 2.50675 1.58007 2.62622V4.43198C1.58007 4.49094 1.56839 4.54932 1.54571 4.60375C1.52302 4.65817 1.48978 4.70756 1.4479 4.74907C1.40602 4.79057 1.35633 4.82337 1.3017 4.84557C1.24708 4.86777 1.1886 4.87892 1.12963 4.87839Z" fill="#3B2645"/>
<path d="M2.02247 6.4549C1.90514 6.4549 1.79262 6.40829 1.70965 6.32533C1.62669 6.24236 1.58008 6.12984 1.58008 6.01251V1.04968C1.58008 0.931288 1.62711 0.817741 1.71083 0.734023C1.79455 0.650304 1.9081 0.603271 2.02649 0.603271C2.14489 0.603271 2.25843 0.650304 2.34215 0.734023C2.42587 0.817741 2.4729 0.931288 2.4729 1.04968V6.01251C2.47238 6.07113 2.46031 6.12908 2.43739 6.18304C2.41447 6.237 2.38114 6.28592 2.33931 6.327C2.29749 6.36808 2.24798 6.40052 2.19361 6.42246C2.13925 6.44441 2.08109 6.45543 2.02247 6.4549Z" fill="#291B30"/>
<path d="M2.91541 7.21902C2.79701 7.21902 2.68346 7.17199 2.59975 7.08827C2.51603 7.00455 2.46899 6.891 2.46899 6.77261V0.446413C2.46899 0.328017 2.51603 0.21447 2.59975 0.130751C2.68346 0.0470327 2.79701 0 2.91541 0C3.0338 0 3.14735 0.0470327 3.23107 0.130751C3.31479 0.21447 3.36182 0.328017 3.36182 0.446413V6.76054C3.36343 6.82017 3.35308 6.87952 3.33137 6.93508C3.30965 6.99065 3.27703 7.04129 3.23541 7.08403C3.1938 7.12677 3.14404 7.16074 3.08908 7.18392C3.03411 7.20711 2.97506 7.21904 2.91541 7.21902Z" fill="#3B2645"/>
<path d="M27.1625 4.87827C27.2809 4.87827 27.3944 4.83124 27.4781 4.74752C27.5619 4.6638 27.6089 4.55026 27.6089 4.43186V2.6261C27.6089 2.56748 27.5973 2.50943 27.5749 2.45527C27.5525 2.4011 27.5196 2.35189 27.4781 2.31044C27.4367 2.26899 27.3875 2.2361 27.3333 2.21367C27.2792 2.19123 27.2211 2.17969 27.1625 2.17969C27.1039 2.17969 27.0458 2.19123 26.9916 2.21367C26.9375 2.2361 26.8883 2.26899 26.8468 2.31044C26.8054 2.35189 26.7725 2.4011 26.75 2.45527C26.7276 2.50943 26.7161 2.56748 26.7161 2.6261V4.43186C26.7161 4.55026 26.7631 4.6638 26.8468 4.74752C26.9305 4.83124 27.0441 4.87827 27.1625 4.87827Z" fill="#3B2645"/>
<path d="M26.2697 6.4549C26.3874 6.45491 26.5003 6.40843 26.5839 6.32557C26.6675 6.24272 26.715 6.13021 26.7161 6.01251V1.04968C26.7161 0.931288 26.669 0.817741 26.5853 0.734023C26.5016 0.650304 26.3881 0.603271 26.2697 0.603271C26.1513 0.603271 26.0377 0.650304 25.954 0.734023C25.8703 0.817741 25.8232 0.931288 25.8232 1.04968V6.01251C25.8243 6.13021 25.8718 6.24272 25.9554 6.32557C26.039 6.40843 26.152 6.45491 26.2697 6.4549Z" fill="#291B30"/>
<path d="M25.3768 7.21902C25.4951 7.21902 25.6087 7.17199 25.6924 7.08827C25.7761 7.00455 25.8232 6.891 25.8232 6.77261V0.446413C25.8232 0.328017 25.7761 0.21447 25.6924 0.130751C25.6087 0.0470327 25.4951 0 25.3768 0C25.2584 0 25.1448 0.0470327 25.0611 0.130751C24.9774 0.21447 24.9303 0.328017 24.9303 0.446413V6.76054C24.9287 6.82017 24.9391 6.87952 24.9608 6.93508C24.9825 6.99065 25.0151 7.04129 25.0567 7.08403C25.0984 7.12677 25.1481 7.16074 25.2031 7.18392C25.258 7.20711 25.3171 7.21904 25.3768 7.21902Z" fill="#3B2645"/>
<path d="M6.8807 4.09804C6.89666 4.1379 6.92141 4.17364 6.95309 4.20261C7.001 4.23425 7.0566 4.25232 7.11396 4.25489C7.29267 4.27174 7.47289 4.26225 7.64885 4.22674C7.81215 4.20499 7.9621 4.12502 8.07113 4.00152C8.12797 3.92029 8.16269 3.82565 8.17185 3.72693C8.18102 3.6282 8.16433 3.52879 8.12342 3.43848C8.06291 3.29631 7.96928 3.17066 7.85035 3.07202C7.73142 2.97337 7.59063 2.90459 7.43972 2.87141C7.19037 2.81511 6.55896 2.83924 6.45842 3.14891C6.40613 3.30174 6.55494 3.45457 6.62733 3.57522C6.69972 3.69587 6.80831 3.92913 6.8807 4.09804Z" fill="#FFEDE5"/>
<path d="M22.8954 4.09804C22.8794 4.13893 22.8531 4.17496 22.819 4.20261C22.7713 4.23482 22.7156 4.25295 22.6581 4.25489C22.4807 4.27163 22.3018 4.26215 22.1272 4.22674C21.9587 4.20695 21.8031 4.12698 21.6889 4.00152C21.6319 3.92025 21.5974 3.82537 21.589 3.72649C21.5805 3.62762 21.5983 3.52826 21.6406 3.43848C21.7007 3.29678 21.7937 3.17144 21.9119 3.07283C22.0301 2.97422 22.1701 2.90517 22.3203 2.87141C22.5736 2.81511 23.2051 2.83924 23.3056 3.14891C23.3579 3.30174 23.2091 3.45457 23.1367 3.57522C23.0643 3.69587 22.9839 3.92913 22.8954 4.09804Z" fill="#FFEDE5"/>
<path d="M16.6214 37.165C16.2035 37.1294 15.7951 37.0205 15.4149 36.8432L14.4497 31.4541C14.4497 31.4541 15.6562 33.1794 16.6214 37.165Z" fill="#291B30"/>
<path d="M13.1306 22.2925C13.1283 22.3139 13.1283 22.3354 13.1306 22.3568C13.1306 22.3568 13.1668 22.3568 13.1588 22.3568L13.1306 22.2925Z" fill="#D6BED3"/>
<path d="M17.3173 18.13C17.1326 17.5174 17.0073 16.8885 16.9433 16.2518C16.9433 16.2348 16.9365 16.2184 16.9244 16.2063C16.9124 16.1943 16.896 16.1875 16.8789 16.1875C16.8619 16.1875 16.8455 16.1943 16.8334 16.2063C16.8214 16.2184 16.8146 16.2348 16.8146 16.2518C16.6738 17.4141 17.1645 18.8338 17.7758 19.8111C17.7863 19.8259 17.8016 19.8367 17.8192 19.8418C17.8367 19.8468 17.8554 19.8457 17.8722 19.8387C17.8891 19.8317 17.903 19.8191 17.9118 19.8032C17.9206 19.7872 17.9237 19.7687 17.9206 19.7508C17.7677 19.1958 17.4983 18.677 17.3173 18.13Z" fill="#D6BED3"/>
<path d="M12.8892 16.0348C12.5594 16.5536 12.2778 17.1046 11.9481 17.6435C11.6183 18.1824 11.2322 18.6409 10.9426 19.1798C10.9373 19.1867 10.9349 19.1955 10.9361 19.2042C10.9372 19.2128 10.9417 19.2207 10.9487 19.2261C10.9556 19.2314 10.9644 19.2337 10.973 19.2326C10.9817 19.2315 10.9896 19.227 10.9949 19.22C11.8656 18.3157 12.549 17.2483 13.0058 16.079C13.0259 16.0147 12.9253 15.9745 12.8892 16.0348Z" fill="#D6BED3"/>
</svg>
