<svg width="25" height="34" viewBox="0 0 25 34" fill="none" xmlns="http://www.w3.org/2000/svg">
<defs>
<linearGradient id="paint0_linear_1017_409" x1="25" y1="34.0001" x2="-8.40493" y2="32.0451" gradientUnits="userSpaceOnUse">
<stop stop-color="#92A3FD"/>
<stop offset="1" stop-color="#9DCEFF"/>
</linearGradient>
<clipPath id="clip0_1017_409">
<rect width="25" height="34" fill="white"/>
</clipPath>
</defs>
<g clip-path="url(#clip0_1017_409)">
<path d="M0 0.944824L2.80651 32.1486C2.89235 33.1042 7.0496 33.9248 12.0934 33.9952C17.1372 34.0657 21.3137 33.3622 21.4232 32.4066L25 1.29002L0 0.944824Z" fill="url(#paint0_linear_1017_409)"/>
<g opacity="0.64">
<path opacity="0.64" d="M22.7219 7.23605C22.7558 7.20977 22.7739 7.18469 22.7739 7.15841C22.7739 6.72483 18.1638 6.30916 12.466 6.23032C6.76829 6.15149 2.14573 6.43816 2.13782 6.87294C2.13782 6.89922 2.15476 6.92549 2.18752 6.95177H2.1062L4.44628 31.3974C4.51856 32.1475 7.96092 32.7901 12.1362 32.8486C16.3116 32.9071 19.7686 32.3577 19.8601 31.61L22.8044 7.24322L22.7219 7.23605Z" fill="white"/>
</g>
<path d="M24.9648 1.19045C24.9717 0.637027 19.3975 0.111139 12.5145 0.0158446C5.63144 -0.07945 0.0461086 0.291934 0.0392585 0.845355C0.0324085 1.39878 5.60664 1.92466 12.4896 2.01996C19.3727 2.11525 24.958 1.74387 24.9648 1.19045Z" fill="#7B6F72"/>
<g opacity="0.51">
<path opacity="0.51" d="M22.8056 7.09526C22.8056 7.48704 18.1503 7.74146 12.4153 7.66262C6.68027 7.58379 2.04529 7.20037 2.04981 6.80859C2.05433 6.41681 6.70512 6.1612 12.4401 6.24123C18.1751 6.32126 22.8135 6.70229 22.8056 7.09526Z" fill="white"/>
</g>
<path d="M10.762 18.5426C10.8245 17.6802 10.8685 16.8174 10.8941 15.9542C10.9088 15.4764 10.2029 15.4406 10.1883 15.9232C10.1649 16.7115 10.1273 17.4994 10.0753 18.287L8.32704 18.2105C8.34285 17.6491 8.35829 17.0885 8.37335 16.5287C8.38577 16.051 7.67991 16.0151 7.66635 16.4977C7.62645 17.9501 7.5888 19.403 7.55342 20.8562C7.53986 21.334 8.24573 21.3698 8.25928 20.8873C8.2766 20.2447 8.29391 19.6013 8.31123 18.9571L10.0245 19.0323C9.96352 19.8015 9.88822 20.5688 9.79863 21.334C9.74329 21.8118 10.4492 21.8393 10.5045 21.3651C10.6016 20.5337 10.6822 19.7008 10.7462 18.8663C10.7691 18.8162 10.7822 18.7617 10.785 18.7061C10.7877 18.6505 10.7799 18.5949 10.762 18.5426Z" fill="white"/>
<path d="M12.3509 24.0731C12.2944 24.0731 11.8381 24.0253 11.6665 24.0038C11.7615 23.9251 11.8485 23.8363 11.9262 23.7386C11.9928 23.6646 12.064 23.5953 12.1295 23.5188C12.4017 23.1987 12.605 22.8022 12.4977 22.3614C12.3068 21.5755 11.2667 21.5253 11.078 22.3387C10.9651 22.8046 11.6427 23.0351 11.7557 22.5669C11.8788 22.5669 11.8844 22.6445 11.7715 22.7962C11.7121 22.9012 11.6391 22.9969 11.5546 23.0805C11.4553 23.1916 11.3491 23.2967 11.2554 23.4137C11.0848 23.6299 10.9165 23.8987 10.9504 24.1949C11.0261 24.8554 11.8765 24.7706 12.326 24.8196C12.7755 24.8686 12.8015 24.128 12.3509 24.0731Z" fill="white"/>
<path d="M15.5245 16.5146C15.521 16.4271 15.485 16.3445 15.4244 16.2848C15.3637 16.2251 15.2832 16.1931 15.2004 16.1957C14.0146 16.1802 13.4137 18.0387 13.3832 19.054C13.3482 20.1887 13.87 21.5767 15.118 21.5934C16.3433 21.6101 17.0933 20.393 17.1972 19.22C17.2875 18.1988 16.5726 16.6998 15.5245 16.5146ZM16.4721 19.3502C16.3592 20.0896 15.8396 20.952 15.022 20.8373C14.2043 20.7227 14.0462 19.6309 14.0959 18.9405C14.1213 18.5945 14.2023 18.2557 14.3353 17.9384C14.4358 17.6995 14.6572 17.2217 14.9305 17.027C14.9652 17.0974 15.0197 17.1547 15.0864 17.1911C15.1531 17.2274 15.2288 17.2411 15.3032 17.2301C15.6849 17.1811 16.1242 17.8273 16.2914 18.1271C16.4884 18.4987 16.5525 18.9328 16.4721 19.3502Z" fill="white"/>
</g>

</svg>
