<svg width="41" height="46" viewBox="0 0 41 46" fill="none" xmlns="http://www.w3.org/2000/svg">
<path d="M5.4009 25.9366C4.71469 28.7434 3.67125 31.5107 3.73998 34.4029C3.77614 35.8362 4.12724 37.3328 5.11303 38.3821C6.18178 39.5193 7.84718 39.9506 9.40621 39.871C12.5309 39.7148 15.3239 37.7631 18.4488 37.5447C20.6377 37.3894 22.7906 38.0977 24.9178 38.6699C27.0449 39.2421 29.3243 39.6685 31.4009 38.9801C32.2803 38.7298 33.0377 38.1765 33.5373 37.4191C34.2389 36.2154 33.8994 34.6928 33.5438 33.3382L29.9924 19.8526C29.7863 19.0711 29.525 18.2104 28.8355 17.7766C28.0802 17.3134 27.1131 17.5339 26.2562 17.7375C22.5077 18.6316 18.6377 18.9522 14.7797 18.6884C12.8198 18.5246 10.8712 18.2374 8.94561 17.8283C7.45961 17.5514 6.62222 17.8611 6.36713 19.4246C5.99351 21.6046 5.92157 23.772 5.4009 25.9366Z" fill="#9F4A4A"/>
<g style="mix-blend-mode:multiply">
<path d="M26.8466 17.6087C26.646 17.6512 26.444 17.6969 26.2577 17.734C22.5092 18.6281 18.6391 18.9487 14.7811 18.6848C12.8213 18.5211 10.8726 18.2338 8.94707 17.8248C7.46108 17.5479 6.62368 17.8576 6.3686 19.4211C6.17234 20.6334 6.07239 21.8422 5.92719 23.0462C6.51425 23.3958 7.13049 23.6943 7.76889 23.9381C9.07839 24.4029 10.4462 24.6806 11.831 24.7628C14.7506 24.9584 17.6963 24.4884 20.6483 24.3209C23.6004 24.1535 26.6877 24.327 29.3161 25.7001C30.356 26.244 31.2949 26.9613 32.091 27.8202L29.9851 19.8685C29.8719 19.3608 29.6844 18.8715 29.4287 18.4161C29.1257 18.2997 28.8231 18.1913 28.5176 18.0893C27.9729 17.8957 27.4108 17.741 26.8466 17.6087Z" fill="#E8E8E8"/>
</g>
<g style="mix-blend-mode:multiply">
<g style="mix-blend-mode:multiply">
<path d="M16.5214 19.1339C16.4699 19.1314 16.4184 19.139 16.3701 19.1564C16.3218 19.1738 16.2776 19.2005 16.24 19.2352C16.2024 19.2698 16.1723 19.3116 16.1513 19.358C16.1303 19.4045 16.119 19.4547 16.1178 19.5058C15.9152 25.6439 15.89 31.8615 16.0463 38.0086C16.3063 37.9305 16.5663 37.8524 16.8226 37.8C16.6763 31.7274 16.6991 25.5943 16.9008 19.5376C16.903 19.435 16.8645 19.3352 16.7936 19.2597C16.7226 19.1842 16.6249 19.1391 16.5214 19.1339Z" fill="#E8E8E8"/>
</g>
<g style="mix-blend-mode:multiply">
<path d="M25.5395 18.1832C25.5122 18.1253 25.471 18.0747 25.4195 18.036C25.368 17.9973 25.3079 17.9717 25.2443 17.9613L24.9515 18.0247C24.8756 18.0765 24.8209 18.1534 24.7972 18.2418C24.7734 18.3302 24.7821 18.4244 24.8218 18.5077C26.9785 23.0051 28.6228 27.7224 29.724 32.5717C30.0417 33.9755 30.3334 35.4728 30.1087 36.9332C29.9833 37.815 29.6196 38.6446 29.0559 39.3342C29.3937 39.3345 29.7311 39.3142 30.0659 39.2732C30.4869 38.5986 30.7644 37.8449 30.8816 37.0578C31.1305 35.4642 30.8094 33.8214 30.488 32.4082C29.377 27.5039 27.7172 22.7326 25.5395 18.1832Z" fill="#E8E8E8"/>
</g>
<g style="mix-blend-mode:multiply">
<path d="M20.5412 34.8584C19.8309 29.9452 19.5001 24.9892 19.5516 20.0337C19.5549 19.9812 19.5473 19.9284 19.5295 19.8787C19.5116 19.8289 19.4837 19.7831 19.4475 19.7442C19.4113 19.7053 19.3676 19.674 19.319 19.6522C19.2703 19.6305 19.2179 19.6187 19.1647 19.6176C19.1116 19.6165 19.0589 19.6262 19.0099 19.6459C18.9608 19.6657 18.9165 19.6952 18.8795 19.7327C18.8425 19.7701 18.8136 19.8147 18.7947 19.8637C18.7758 19.9127 18.7672 19.9652 18.7694 20.0178C18.7166 25.0131 19.0494 30.009 19.7647 34.9618C19.8832 35.8512 20.0617 36.7324 20.2988 37.5994C20.5867 37.6351 20.8717 37.6772 21.1571 37.7273C20.8715 36.7889 20.6655 35.8292 20.5412 34.8584Z" fill="#E8E8E8"/>
</g>
<g style="mix-blend-mode:multiply">
<path d="M24.9147 38.6682L25.5771 38.8368C25.9551 35.9261 25.9367 32.9743 25.5222 30.0605C25.0099 26.3246 23.8492 22.6982 22.0914 19.3425C22.068 19.2968 22.0358 19.2561 21.9965 19.2227C21.9572 19.1894 21.9117 19.164 21.8626 19.1482C21.8135 19.1323 21.7618 19.1263 21.7105 19.1304C21.6593 19.1345 21.6095 19.1487 21.564 19.1722C21.4716 19.2192 21.4022 19.3007 21.3707 19.3989C21.3393 19.4971 21.3484 19.604 21.396 19.6964C24.4299 25.5444 25.62 32.1462 24.8103 38.637L24.9147 38.6682Z" fill="#E8E8E8"/>
</g>
<g style="mix-blend-mode:multiply">
<path d="M11.4693 34.3101C12.1112 29.5937 12.2575 24.819 11.906 20.0627C11.8925 19.9656 11.8425 19.8769 11.7661 19.8142C11.6897 19.7515 11.5925 19.7194 11.494 19.7245C11.3955 19.7295 11.3029 19.7712 11.2347 19.8413C11.1666 19.9114 11.1279 20.0047 11.1265 20.1025C11.4749 24.8084 11.3288 29.5324 10.6906 34.1984C10.6481 34.522 10.5991 34.8426 10.5534 35.1647C10.2925 36.696 10.1503 38.2461 10.128 39.8014C10.3932 39.7645 10.6514 39.7168 10.9125 39.6626C10.9454 38.1936 11.0847 36.7299 11.3292 35.2828L11.4693 34.3101Z" fill="#E8E8E8"/>
</g>
<g style="mix-blend-mode:multiply">
<path d="M8.75596 17.7938C8.49174 17.7456 8.22349 17.7245 7.95546 17.7307L7.96178 17.7958C8.52811 20.8199 8.48015 23.9194 7.82072 26.9124C7.3944 28.6628 6.86783 30.3868 6.24355 32.076C5.56332 33.8995 5.00564 35.7667 4.57412 37.6654C4.72728 37.9239 4.9092 38.1648 5.11643 38.3835C5.15043 38.4221 5.18734 38.4542 5.22278 38.4896C5.63681 36.3913 6.22597 34.3325 6.98421 32.3341C7.61945 30.6171 8.15487 28.8646 8.58786 27.0851C9.25825 24.0351 9.31537 20.878 8.75596 17.7938Z" fill="#E8E8E8"/>
</g>
</g>
<path d="M9.99883 13.1729C11.2553 12.875 12.5375 12.6902 13.8298 12.6209L21.5796 11.9807C23.8969 11.7856 26.3685 11.6247 28.4171 12.7417C29.2457 13.1911 30.0285 13.9976 29.9263 14.9211C29.8815 15.1883 29.7813 15.4429 29.6318 15.6687C29.4823 15.8945 29.2869 16.0866 29.0578 16.233C28.5996 16.5245 28.0955 16.739 27.5655 16.868C24.4041 17.796 21.0981 18.1699 17.7958 17.973C14.4929 17.786 11.2413 17.0379 8.18315 15.7614C7.85456 15.614 7.16698 15.4576 6.91807 15.1942C6.60369 14.8391 7.22036 14.5199 7.48121 14.3254C8.24305 13.7953 9.09561 13.405 9.99883 13.1729Z" fill="#873C3C"/>
<path d="M15.3658 2.34738C15.5635 1.65505 15.9052 1.01271 16.3692 0.461448C16.8754 -0.051293 17.6997 -0.331839 18.3537 -0.00358723C18.6043 0.14467 18.8139 0.35266 18.9631 0.601225C19.1124 0.84979 19.1965 1.13094 19.2077 1.41878C19.2266 1.99392 19.1372 2.56643 18.9441 3.10697C18.3754 5.00206 17.6456 6.84454 16.7627 8.61474C16.6044 9.00075 16.3516 9.34085 16.0268 9.60456C14.8504 10.4241 13.0004 9.39217 13.32 8.0016C13.7518 6.09683 14.6993 4.18585 15.3658 2.34738Z" fill="#EBAD16"/>
<path d="M10.0719 10.9596C10.8059 9.56015 12.0699 8.35167 13.6417 8.06758C15.2135 7.78348 17.037 8.6984 17.4258 10.2431C17.6621 11.186 17.3563 12.1584 17.0534 13.0893C16.6732 14.2542 16.2944 15.4158 15.9109 16.5791C15.6236 17.4664 15.2336 18.4595 14.3521 18.7883C13.3284 19.1703 12.2243 18.4377 11.4491 17.658C10.7303 16.9464 9.05211 16.1122 8.89159 15.1059C8.69607 13.9049 9.53092 11.9901 10.0719 10.9596Z" fill="#EBAD16"/>
<path d="M10.9911 11.5234C11.5422 10.4702 12.4923 9.55702 13.6754 9.34777C14.8584 9.13853 16.2255 9.82155 16.5205 10.9855C16.6958 11.6948 16.4674 12.4332 16.2399 13.1254L15.3826 15.7504C15.1577 16.4281 14.8712 17.1639 14.2077 17.4115C13.4399 17.6979 12.6097 17.1466 12.0271 16.5623C11.4819 16.018 10.224 15.3995 10.1026 14.6405C9.95501 13.7373 10.5842 12.2987 10.9911 11.5234Z" fill="#D88121"/>
<path d="M10.2463 14.4522C12.2365 13.4343 14.2266 12.4138 16.2166 11.3907C17.8429 10.5626 19.5606 9.69774 21.4008 9.74809C24.1665 9.82022 26.443 11.8726 28.4274 13.8017C28.9741 14.3428 29.5827 14.966 29.6275 15.7374C29.6998 16.9845 28.3489 17.7881 27.1659 18.1998C23.4364 19.4878 19.4382 19.8578 15.5137 19.2782C13.5565 19.0025 11.6395 18.4844 9.80791 17.736C9.16829 17.4726 7.91408 17.066 8.01208 16.1873C8.10041 15.4093 9.65369 14.7704 10.2463 14.4522Z" fill="white"/>
<path d="M5.07287 20.5689C5.92033 21.5835 7.39084 21.7717 8.71128 21.881C12.6616 22.2157 16.6175 22.5645 20.5811 22.3679C23.9587 22.2652 27.2926 21.6283 30.4566 20.4812C30.9478 20.2913 31.3608 19.9463 31.6326 19.4993C31.9043 19.0523 32.0197 18.5277 31.961 18.0062C31.8757 17.1811 31.7324 16.3624 31.5323 15.556C31.4565 15.1252 31.276 14.7181 31.0063 14.3702C30.7817 14.1507 30.5089 13.9858 30.2097 13.8888C29.9105 13.7918 29.5932 13.7655 29.2834 13.8119C28.6618 13.9051 28.0552 14.0752 27.4778 14.3181C23.4128 15.7618 18.9787 15.6346 14.7147 15.1632C12.6167 14.9311 10.527 14.5041 8.42215 14.3312C7.12763 14.2257 6.07014 14.4718 5.35205 15.5981C4.67909 16.6589 3.66485 19.6339 5.07287 20.5689Z" fill="#B15352"/>
</svg>
